<!-- (c) Carrd Inc. All rights reserved. All logos and trademarks are property of their respective owners. -->
<svg xmlns="http://www.w3.org/2000/svg" id="icon">
<path d="M35.7,23.5L35.7,23.5c-3.1,0.3-5-2.1-5.2-4.6c-0.2-2.5,1.1-5.2,4.2-5.5h0.1c3.1-0.3,4.9,2.1,5.2,4.6 C40.2,20.5,38.8,23.2,35.7,23.5z M37.9,18.2c-0.2-1.6-1.1-3.1-2.9-2.9h0c-1.8,0.2-2.5,1.9-2.3,3.5c0.2,1.6,1.1,3.1,2.9,2.9h0 c0.8-0.1,1.4-0.5,1.9-1.2C37.8,19.9,38,19.1,37.9,18.2z M26.5,14.3l2.1-0.2l0.9,9.8l-2.1,0.2L26.5,14.3z M21.5,24.7L21.5,24.7 l-0.9-9.8l2.1-0.2v0.1l0.7,7.8l2.6-0.3l0.2,2H26L21.5,24.7z M16.7,25.2L16.7,25.2l-3.6,0.3v-0.1l-0.8-9.7l3.5-0.3 c1-0.1,1.8,0.1,2.4,0.5c0.6,0.4,0.9,1.1,1,1.9c0.1,1.1-0.5,1.7-1,2.1c0.8,0.2,1.6,0.9,1.7,2.1c0.1,0.9-0.2,1.7-0.8,2.2 C18.5,24.7,17.7,25.1,16.7,25.2z M17.1,18.2c0-0.4-0.1-0.7-0.4-0.8c-0.2-0.1-0.6-0.2-0.9-0.2l-1.3,0.1l0.2,2.2l1.1-0.1 C16.7,19.3,17.2,18.8,17.1,18.2z M17.7,22.1c0-0.3-0.2-1.2-1.5-1.1l-1.4,0.1l0.2,2.3l1.2-0.1h0C17.2,23.3,17.7,22.8,17.7,22.1z M8.4,16.1l2.1-0.2l0.9,9.8l-2.1,0.2L8.4,16.1z M4.4,26.3L4.4,26.3l-3.6,0.3v-0.1L0,16.9l3.5-0.3c1.1-0.1,2,0.1,2.5,0.7 c0.5,0.4,0.8,1,0.9,1.8c0.1,1.1-0.5,1.7-1,2.1c0.8,0.2,1.6,0.9,1.7,2.1C7.7,24.9,6.5,26.2,4.4,26.3z M4.9,19.4 c0-0.4-0.1-0.7-0.4-0.8c-0.2-0.1-0.6-0.2-0.9-0.2l-1.3,0.1l0.2,2.2l1.1-0.1c0.5,0,0.9-0.2,1.1-0.5C4.8,19.9,4.9,19.6,4.9,19.4z M5.4,23.3c0-0.3-0.2-1.2-1.5-1.1l-1.4,0.1l0.2,2.3l1.2-0.1h0c0.6-0.1,0.9-0.2,1.2-0.4C5.4,23.9,5.5,23.7,5.4,23.3z"/>
</svg>