<!-- (c) Font Awesome (fontawesome.io, SIL OFL) -->
<svg xmlns="http://www.w3.org/2000/svg" id="icon">
<path d="M9.5,11.1c0.8,0,1.4,0.3,2,0.8s0.8,1.2,0.8,2v18.8c0,0.8-0.3,1.4-0.8,2s-1.2,0.8-2,0.8H7.3c-0.8,0-1.4-0.3-2-0.8 c-0.5-0.5-0.8-1.2-0.8-2V13.9c0-0.8,0.3-1.4,0.8-2s1.2-0.8,2-0.8C7.3,11.1,9.5,11.1,9.5,11.1z M33.3,14c0.7,0.4,1.2,0.9,1.6,1.6 c0.4,0.7,0.6,1.4,0.6,2.2v13.3c0,1.2-0.4,2.3-1.3,3.1c-0.9,0.9-1.9,1.3-3.1,1.3h-15c-0.8,0-1.4-0.3-2-0.8c-0.5-0.5-0.8-1.2-0.8-2 V6.1c0-0.5,0.2-0.9,0.5-1.2s0.7-0.5,1.2-0.5h11.6c0.5,0,1,0.1,1.5,0.3c0.6,0.2,1,0.5,1.3,0.8l2.6,2.6c0.3,0.3,0.6,0.8,0.8,1.3 s0.3,1.1,0.3,1.5L33.3,14L33.3,14z M20.6,31.1v-2.2c0-0.2-0.1-0.3-0.2-0.4c-0.1-0.1-0.2-0.2-0.4-0.2h-2.2c-0.2,0-0.3,0.1-0.4,0.2 c-0.1,0.1-0.2,0.2-0.2,0.4v2.2c0,0.2,0.1,0.3,0.2,0.4c0.1,0.1,0.2,0.2,0.4,0.2H20c0.2,0,0.3-0.1,0.4-0.2 C20.5,31.4,20.6,31.2,20.6,31.1z M20.6,26.7v-2.2c0-0.2-0.1-0.3-0.2-0.4c-0.1-0.1-0.2-0.2-0.4-0.2h-2.2c-0.2,0-0.3,0.1-0.4,0.2 c-0.1,0.1-0.2,0.2-0.2,0.4v2.2c0,0.2,0.1,0.3,0.2,0.4c0.1,0.1,0.2,0.2,0.4,0.2H20c0.2,0,0.3-0.1,0.4-0.2 C20.5,26.9,20.6,26.8,20.6,26.7z M20.6,22.2V20c0-0.2-0.1-0.3-0.2-0.4c-0.1-0.1-0.2-0.2-0.4-0.2h-2.2c-0.2,0-0.3,0.1-0.4,0.2 c-0.1,0.1-0.2,0.2-0.2,0.4v2.2c0,0.2,0.1,0.3,0.2,0.4c0.1,0.1,0.2,0.2,0.4,0.2H20c0.2,0,0.3-0.1,0.4-0.2S20.6,22.4,20.6,22.2z M25,31.1v-2.2c0-0.2-0.1-0.3-0.2-0.4c-0.1-0.1-0.2-0.2-0.4-0.2h-2.2c-0.2,0-0.3,0.1-0.4,0.2c-0.1,0.1-0.2,0.2-0.2,0.4v2.2 c0,0.2,0.1,0.3,0.2,0.4c0.1,0.1,0.2,0.2,0.4,0.2h2.2c0.2,0,0.3-0.1,0.4-0.2C24.9,31.4,25,31.2,25,31.1z M25,26.7v-2.2 c0-0.2-0.1-0.3-0.2-0.4c-0.1-0.1-0.2-0.2-0.4-0.2h-2.2c-0.2,0-0.3,0.1-0.4,0.2c-0.1,0.1-0.2,0.2-0.2,0.4v2.2c0,0.2,0.1,0.3,0.2,0.4 c0.1,0.1,0.2,0.2,0.4,0.2h2.2c0.2,0,0.3-0.1,0.4-0.2C24.9,26.9,25,26.8,25,26.7z M25,22.2V20c0-0.2-0.1-0.3-0.2-0.4 c-0.1-0.1-0.2-0.2-0.4-0.2h-2.2c-0.2,0-0.3,0.1-0.4,0.2c-0.1,0.1-0.2,0.2-0.2,0.4v2.2c0,0.2,0.1,0.3,0.2,0.4 c0.1,0.1,0.2,0.2,0.4,0.2h2.2c0.2,0,0.3-0.1,0.4-0.2C24.9,22.5,25,22.4,25,22.2z M29.4,31.1v-2.2c0-0.2-0.1-0.3-0.2-0.4 c-0.1-0.1-0.2-0.2-0.4-0.2h-2.2c-0.2,0-0.3,0.1-0.4,0.2c-0.1,0.1-0.2,0.2-0.2,0.4v2.2c0,0.2,0.1,0.3,0.2,0.4 c0.1,0.1,0.2,0.2,0.4,0.2h2.2c0.2,0,0.3-0.1,0.4-0.2C29.4,31.4,29.4,31.2,29.4,31.1z M29.4,26.7v-2.2c0-0.2-0.1-0.3-0.2-0.4 c-0.1-0.1-0.2-0.2-0.4-0.2h-2.2c-0.2,0-0.3,0.1-0.4,0.2c-0.1,0.1-0.2,0.2-0.2,0.4v2.2c0,0.2,0.1,0.3,0.2,0.4 c0.1,0.1,0.2,0.2,0.4,0.2h2.2c0.2,0,0.3-0.1,0.4-0.2C29.4,26.9,29.4,26.8,29.4,26.7z M29.4,22.2V20c0-0.2-0.1-0.3-0.2-0.4 c-0.1-0.1-0.2-0.2-0.4-0.2h-2.2c-0.2,0-0.3,0.1-0.4,0.2c-0.1,0.1-0.2,0.2-0.2,0.4v2.2c0,0.2,0.1,0.3,0.2,0.4 c0.1,0.1,0.2,0.2,0.4,0.2h2.2c0.2,0,0.3-0.1,0.4-0.2S29.4,22.4,29.4,22.2z M31.1,15.6v-4.4h-2.8c-0.5,0-0.9-0.2-1.2-0.5 c-0.3-0.3-0.5-0.7-0.5-1.2V6.7H15.6v8.9L31.1,15.6L31.1,15.6z"/>
</svg>