<!-- (c) Carrd Inc. All rights reserved. All logos and trademarks are property of their respective owners. -->
<svg xmlns="http://www.w3.org/2000/svg" id="icon">
<path d="M35,34.7c-0.6,0.6-1.5,1-2.3,1c0,0,0,0,0,0l-20.2-0.3c-0.3,0-0.7-0.1-1-0.2c-1.4-0.4-2.4-1.8-2.4-3.3l0-3.7H1.9 c-0.5,0-1-0.4-1-1c0-0.5,0.4-1,1-1h7.2l0-7.2H5.6c-0.5,0-1-0.4-1-1c0-0.5,0.4-1,1-1h3.5l0-4.2c0-0.9,0.4-1.8,1-2.4 c0.6-0.6,1.5-1,2.4-1l5.9,0.1l-2.2-1C16,8.4,15.8,8.2,15.8,8c0-0.2,0-0.4,0.2-0.6l3.4-3.7c0.1-0.2,0.4-0.2,0.6-0.2 c0.2,0,0.4,0.2,0.5,0.4l1.5,2.8l1.2-5.9c0-0.2,0.2-0.4,0.4-0.5c0.2-0.1,0.4-0.1,0.6,0l4.9,2.7c0.2,0.1,0.3,0.3,0.3,0.5 c0,0.2,0,0.4-0.2,0.6l-4.9,5.4l8.4,0.1c1.4,0,2.7,0.9,3.2,2.3c0.1,0.4,0.2,0.8,0.2,1.2v19.1C36,33.2,35.6,34.1,35,34.7z M17.1,28.2 h-5.5l0,3.7c0,0.4,0.3,0.8,0.7,0.9c0.1,0,0.2,0,0.2,0l8.4,0.1v-9.2l-9.3-0.1l0,2.5h5.5c0.5,0,1,0.4,1,1 C18.1,27.7,17.6,28.2,17.1,28.2z M12.4,11.9c-0.2,0-0.4,0.1-0.6,0.2c-0.2,0.2-0.3,0.4-0.3,0.7l0,4.2H15c0.5,0,1,0.4,1,1 c0,0.5-0.4,1-1,1h-3.4l0,1.6l9.3,0.1v-8.7L12.4,11.9z M27.5,3.9L24.2,2l-1.4,6.8c-0.1,0.3-0.3,0.5-0.6,0.5c-0.3,0-0.6-0.1-0.7-0.4 l-1.9-3.7l-2.1,2.3l4.1,1.9l0.7,0L27.5,3.9z M33.5,13.2c0-0.1,0-0.2-0.1-0.3c-0.1-0.4-0.5-0.6-0.8-0.6l-8.4-0.1v8.7l9.3,0.1V13.2z M33.5,24l-9.3-0.1v9.2l8.5,0.1c0.2,0,0.4-0.1,0.6-0.2c0.2-0.2,0.3-0.4,0.3-0.7V24z M7.4,22.3c0,0.5-0.4,1-1,1H1c-0.5,0-1-0.4-1-1 c0-0.5,0.4-1,1-1h5.5C7,21.3,7.4,21.8,7.4,22.3z"/>
</svg>