<!-- (c) Carrd Inc. All rights reserved. All logos and trademarks are property of their respective owners. -->
<svg xmlns="http://www.w3.org/2000/svg" id="icon">
<path d="M18.2,38.2c2.8-4.8,5.6-9.6,8.3-14.5c2.5-4.3,4.9-8.5,7.4-12.8c0.1-0.2,0.2-0.4,0.4-0.8c-1.2,0-2.2,0.1-3.2,0 c-0.9-0.1-1.2,0.3-1.6,1c-1.1,2-2.4,4-3.6,6c-1.7,2.9-3.3,5.9-5,8.8c-1.6,2.7-3.2,5.4-4.8,8.2c0,0.1-0.1,0.1-0.2,0.3 C10.7,25.3,5.4,16.2,0,7c0.4-0.1,0.7-0.1,1.1-0.1c3.3,0,6.6,0,10,0c0.7,0,1.1,0.2,1.4,0.8c1.7,3.1,3.5,6.1,5.3,9.2 c0.1,0.2,0.2,0.5,0.1,0.7c-0.5,1-1.1,2-1.8,3.1c-1-1.7-1.9-3.2-2.8-4.7c-1-1.7-2-3.4-2.9-5c-0.2-0.4-0.5-0.6-0.9-0.5 c-1.1,0-2.3,0-3.6,0C9.2,16.1,12.6,22,16,27.9c0.7-1.2,1.3-2.2,1.9-3.2c1.8-3.1,3.5-6.1,5.3-9.2c1.5-2.7,3.1-5.4,4.6-8.1 c0.1-0.2,0.5-0.5,0.8-0.5c3.6,0,7.1,0,10.7,0c0.2,0,0.4,0,0.6,0.1c-2.4,4.3-4.9,8.4-7.3,12.6c-2.4,4.1-4.7,8.3-7.1,12.4 c-1.1,1.9-2.2,3.8-3.3,5.7c-0.1,0.2-0.1,0.4-0.2,0.5C20.9,38.2,19.5,38.2,18.2,38.2z"/>
</svg>