<!-- (c) Carrd Inc. All rights reserved. All logos and trademarks are property of their respective owners. -->
<svg xmlns="http://www.w3.org/2000/svg" id="icon">
<path d="M36.2,25.8c0,0.3,0,0.6,0,0.9c0.3,0,0.6,0,0.9,0c0,0.3,0,0.6,0,0.9c0.3,0,0.6,0,0.9,0c0,0.3,0,0.6,0,0.9 c-0.3,0-0.6,0-0.9,0c0-0.3,0-0.6,0-0.9c-0.3,0-0.6,0-0.9,0c0-0.3,0-0.6,0-0.9c-0.3,0-0.6,0-0.9,0c0-0.3,0-0.6,0-0.9 c-1.2,0-2.3,0-3.5,0c0-0.3,0-0.6,0-0.9c-0.6,0-1.2,0-1.7,0c0-0.3,0-0.5,0-0.7c0-0.1,0-0.2-0.2-0.2c-0.2,0-0.5,0-0.8,0 c0-0.6,0-1.2,0-1.8c-0.3,0-0.6,0-0.9,0c0-0.6,0-1.2,0-1.8c-0.6,0-1.2,0-1.8,0c0,0.6,0,1.2,0,1.8c0.6,0,1.2,0,1.7,0 c0,0.3,0,0.6,0,0.9c-0.9,0-1.7,0-2.6,0c0-0.3,0-0.6,0-0.9c-0.3,0-0.6,0-0.9,0c0,0.6,0,1.2,0,1.7c-0.3,0-0.5,0-0.7,0 c-0.1,0-0.1,0-0.1,0.1c0,0.5,0,1,0,1.4c0,0.1,0,0.2,0,0.2c0.6,0,1.2,0,1.8,0c0,0.3,0,0.6,0,0.9c1.2,0,2.3,0,3.5,0c0,0.3,0,0.6,0,0.8 c-1.5,0-2.9,0-4.4,0c0-0.3,0-0.6,0-0.9c-0.6,0-1.2,0-1.8,0c0-0.6,0-1.2,0-1.7c-0.3,0-0.6,0-0.9,0c0,0.3,0,0.6,0,0.9 c-1.5,0-2.9,0-4.4,0c0-0.3,0-0.6,0-0.9c-0.3,0-0.6,0-0.9,0c0-0.3,0-0.6,0-0.9c-0.3,0-0.6,0-0.9,0c0-0.3,0-0.6,0-0.9 c-0.3,0-0.6,0-0.9,0c0-0.3,0-0.6,0-0.9c-1.8,0-3.5,0-5.3,0c0,0.9,0,1.8,0,2.6c-0.6,0-1.2,0-1.8,0c0-0.3,0-0.6,0-0.9 c0.3,0,0.6,0,0.9,0c0-0.6,0-1.2,0-1.8c-1.8,0-3.5,0-5.3,0c0,0.9,0,1.8,0,2.6c-0.3,0-0.6,0-0.9,0c0,0.3,0,0.6,0,0.9 c-0.6,0-1.2,0-1.8,0c0-0.3,0-0.6,0-0.9c-0.3,0-0.6,0-0.9,0c0-1.2,0-2.4,0-3.5c0.3,0,0.6,0,0.9,0c0-0.3,0-0.6,0-0.9 c0.3,0,0.6,0,0.9,0c0-0.3,0-0.6,0-0.9c2.4,0,4.7,0,7.1,0c0-3.5,0-7.1,0-10.6c4.1,0,8.2,0,12.4,0c0-0.9,0-1.8,0-2.7 c-0.3,0-0.6,0-0.9,0c0-0.3,0-0.6,0-0.9c-0.3,0-0.6,0-0.9,0c0-0.3,0-0.6,0-0.9c-0.3,0-0.6,0-0.9,0c0-0.3,0-0.6,0-0.9 c2.1,0,4.1,0,6.2,0c0,0.3,0,0.6,0,0.9c0.3,0,0.6,0,0.9,0c0,0.3,0,0.6,0,0.9c0.3,0,0.6,0,0.9,0c0-0.3,0-0.6,0-0.9c0.3,0,0.6,0,0.9,0 c0-0.3,0-0.6,0-0.9c0.3,0,0.6,0,0.9,0c0-0.6,0-1.2,0-1.8c0.3,0,0.6,0,0.9,0c0-0.3,0-0.6,0-0.9c0.6,0,1.2,0,1.8,0c0,0.3,0,0.6,0,0.9 c0.3,0,0.6,0,0.9,0c0,0.6,0,1.2,0,1.8c0.3,0,0.6,0,0.9,0c0,0.9,0,1.8,0,2.6c0.3,0,0.6,0,0.9,0c0,4.4,0,8.8,0,13.3c0.1,0,0.2,0,0.3,0 c1.4,0,2.8,0,4.1,0c0,1.2,0,2.4,0,3.5c-0.3,0-0.6,0-0.9,0c0,0.3,0,0.6,0,0.9c-0.3,0-0.6,0-0.9,0c0,0.3,0,0.6,0,0.9 c-0.3,0-0.6,0-0.9,0c0,0.3,0,0.6,0,0.9C35.6,25.8,35.9,25.8,36.2,25.8z M17,24c2,0,4,0,5.9,0c0-1.1,0-2.3,0-3.4 c-0.3,0-0.6,0-0.9-0.1c-0.3-0.1-0.6,0-0.8,0c-0.9,0-1.9,0-2.8,0c-0.4,0-0.9,0-1.3,0.1c0,0,0,0,0,0C17,21.7,17,22.8,17,24z M32.7,16 c-0.6,0-1.2,0-1.7,0c0-0.3,0-0.6,0-0.8c0.6,0,1.2,0,1.7,0c0-0.3,0-0.6,0-0.9c-0.6,0-1.2,0-1.7,0c0-0.3,0-0.6,0-0.9 c-0.6,0-1.2,0-1.8,0c0-0.3,0-0.6,0-0.9c-1.8,0-3.5,0-5.3,0c0,0.3,0,0.6,0,0.9c-0.6,0-1.2,0-1.8,0c0,0.3,0,0.6,0,0.9 c-2.4,0-4.7,0-7.1,0c0,0.3,0,0.6,0,0.9c-0.3,0-0.6,0-0.9,0c0,0.3,0,0.6,0,0.9c-0.3,0-0.6,0-0.9,0c0,0.3,0,0.6,0,0.9 c-0.3,0-0.6,0-0.9,0c0-0.3,0-0.6,0-0.9c-0.3,0-0.6,0-0.9,0c0-0.3,0-0.6,0-0.9c-0.3,0-0.6,0-0.9,0c0,0.3,0,0.6,0,0.9 c-0.3,0-0.6,0-0.9,0c0,1.2,0,2.4,0,3.5c7.7,0,15.3,0,23,0C32.7,18.4,32.7,17.2,32.7,16z M36.2,24c0-1.2,0-2.4,0-3.5 c-1.7,0-3.5,0-5.2,0c0,1.2,0,2.4,0,3.5C32.7,24,34.5,24,36.2,24z M16.8,16.1c0.3,0,0.6,0,0.8,0c0,0.6,0,1.1,0,1.7 c-0.3,0-0.6,0-0.9,0c0,0.3,0,0.6,0,0.9c-0.3,0-0.5,0-0.8,0c0-0.6,0-1.1,0-1.7c0.3,0,0.6,0,0.9,0C16.8,16.7,16.8,16.4,16.8,16.1z M22.1,16c-1.5,0-2.9,0-4.4,0c0-0.3,0-0.5,0-0.8c1.4,0,2.9,0,4.4,0C22.1,15.5,22.1,15.7,22.1,16z M22.9,16.9c-0.3,0-0.5,0-0.8,0 c0-0.3,0-0.5,0-0.8c0.3,0,0.5,0,0.8,0C22.9,16.3,22.9,16.6,22.9,16.9z M23.8,17.8c-0.3,0-0.5,0-0.8,0c0-0.3,0-0.5,0-0.8 c0.3,0,0.5,0,0.8,0C23.8,17.2,23.8,17.5,23.8,17.8z M24.7,18.7c-0.3,0-0.5,0-0.8,0c0-0.3,0-0.5,0-0.8c0.3,0,0.5,0,0.8,0 C24.7,18.1,24.7,18.4,24.7,18.7z M29.1,18.7c-0.3,0-0.5,0-0.8,0c0-0.3,0-0.5,0-0.8c0.3,0,0.5,0,0.8,0C29.1,18.1,29.1,18.4,29.1,18.7 z M30,17.8c-0.3,0-0.5,0-0.8,0c0-0.3,0-0.5,0-0.8c0.3,0,0.5,0,0.8,0C30,17.2,30,17.5,30,17.8z M30.9,16.9c-0.3,0-0.5,0-0.8,0 c0-0.3,0-0.5,0-0.8c0.3,0,0.5,0,0.8,0C30.9,16.3,30.9,16.6,30.9,16.9z M5.3,23.1c0.9,0,1.8,0,2.6,0c0,0.3,0,0.6,0,0.9 c-0.9,0-1.8,0-2.6,0c0,1.2,0,2.4,0,3.5c0.9,0,1.8,0,2.6,0c0,0.3,0,0.6,0,0.9c-0.9,0-1.7,0-2.6,0c0-0.3,0-0.6,0-0.9 c-0.3,0-0.6,0-0.9,0c0-1.2,0-2.3,0-3.5c0.3,0,0.6,0,0.9,0C5.3,23.7,5.3,23.4,5.3,23.1z M9.7,28.4c0.3,0,0.6,0,0.9,0 c0,0.6,0,1.2,0,1.8c0.3,0,0.6,0,0.9,0c0,0.6,0,1.2,0,1.7c0.6,0,1.2,0,1.7,0c0,0.3,0,0.5,0,0.8c0,0.1,0,0.2,0.1,0.1 c0.2,0,0.5,0,0.7,0c0,0.3,0,0.6,0,0.9c0.3,0,0.6,0,0.9,0c0,0.3,0,0.6,0,0.9c-0.6,0-1.2,0-1.8,0c0-0.3,0-0.6,0-0.9 c-0.3,0-0.6,0-0.9,0c0-0.3,0-0.6,0-0.9c-0.3,0-0.6,0-0.9,0c0-0.3,0-0.6,0-0.9c-0.3,0-0.6,0-0.9,0c0-0.3,0-0.6,0-0.9 c-0.3,0-0.6,0-0.9,0c0-0.6,0-1.2,0-1.8c-0.3,0-0.6,0-0.9,0c0-0.6,0-1.2,0-1.8c-0.3,0-0.6,0-0.9,0c0-0.3,0-0.6,0-0.9 c0.6,0,1.2,0,1.8,0C9.7,27.3,9.7,27.8,9.7,28.4z M15.9,31.9c0-0.3,0-0.6,0-0.9c-0.3,0-0.6,0-0.9,0c0-0.6,0-1.2,0-1.8 c-0.3,0-0.6,0-0.9,0c0-0.3,0-0.6,0-0.8c1.8,0,3.5,0,5.3,0c0,0.3,0,0.5,0,0.7c0,0.6,0,1.1,0,1.7c0,0.3,0,0.7-0.1,1 C18.3,31.9,17.1,31.9,15.9,31.9z M21.2,31.9c0-0.3,0-0.6,0-0.9c-0.3,0-0.6,0-0.8,0c0-0.9,0-1.7,0-2.6c1.4,0,2.9,0,4.3,0 c0,1.2,0,2.3,0,3.5c-0.3,0-0.6,0-0.9,0c0,0.3,0,0.5,0,0.8c0,0.1,0,0.1-0.1,0.1c-0.5,0-1,0-1.5,0c-0.1,0-0.1,0-0.1-0.1 c0-0.2,0-0.5,0-0.8C21.8,31.9,21.5,31.9,21.2,31.9z M25.5,34.6C25.6,34.6,25.6,34.6,25.5,34.6c0.1,0.3,0.1,0.6,0.1,0.9 c-3.5,0-7.1,0-10.6,0c0-0.3,0-0.6,0-0.9C18.5,34.6,22,34.6,25.5,34.6z M25.6,34.6C25.6,34.6,25.6,34.6,25.6,34.6 C25.6,34.6,25.6,34.6,25.6,34.6C25.6,34.6,25.6,34.6,25.6,34.6L25.6,34.6C25.6,34.6,25.6,34.6,25.6,34.6 C25.6,34.6,25.6,34.6,25.6,34.6C25.6,34.6,25.6,34.6,25.6,34.6z M26.4,33.7C26.5,33.7,26.5,33.8,26.4,33.7c0.1,0.3,0.1,0.6,0.1,0.9 c-0.3,0-0.6,0-0.9,0c0-0.3,0-0.6,0-0.9C25.9,33.7,26.2,33.7,26.4,33.7z M30,25.8c0,0.3,0,0.5,0,0.8c-0.3,0-0.5,0-0.8,0 c0-0.3,0-0.5,0-0.8C29.5,25.8,29.7,25.8,30,25.8z M25.6,28.4c1.8,0,3.5,0,5.3,0c0,1.5,0,2.9,0,4.4c-0.3,0-0.6,0-0.9,0 c0,0.3,0,0.6,0,0.9c-0.9,0-1.8,0-2.6,0c0-0.3,0-0.6,0-0.9c-0.3,0-0.6,0-0.9,0c0-0.3,0-0.6,0-0.9c-0.3,0-0.6,0-0.9,0 C25.6,30.8,25.6,29.6,25.6,28.4z M33.6,29.5c0,0.5,0,0.9,0,1.4c-0.1,0.5,0,0.9,0,1.4c0,0.2,0,0.4,0,0.6c-0.6,0-1.2,0-1.8,0 c0-1.5,0-2.9,0-4.4c0.6,0,1.2,0,1.8,0C33.6,28.8,33.6,29.1,33.6,29.5z M37.1,31c-0.3,0-0.6,0-1,0c0,0.3,0,0.6,0,1 c-0.5,0-1.1,0-1.6,0c0-1.2,0-2.3,0-3.5c0.9,0,1.7,0,2.6,0C37.1,29.3,37.1,30.1,37.1,31z"/>
</svg>