<!-- (c) Font Awesome (fontawesome.io, SIL OFL) -->
<svg xmlns="http://www.w3.org/2000/svg" id="icon">
<path d="M35.7,13c-1.6-2-3.8-3.5-6.5-4.7c-2.8-1.1-5.8-1.7-9-1.7c-2.4,0-4.8,0.3-7,1C10.9,8.2,9,9.2,7.4,10.3 c-1.6,1.2-2.9,2.5-3.8,4.1c-1,1.6-1.4,3.3-1.4,5c0,2,0.6,3.9,1.8,5.7c1.2,1.8,2.9,3.2,5,4.4c-0.1,0.5-0.3,1-0.5,1.5 c-0.2,0.5-0.4,0.9-0.5,1.2c-0.2,0.3-0.4,0.7-0.7,1c-0.3,0.4-0.5,0.6-0.6,0.8c-0.1,0.2-0.4,0.4-0.7,0.8c-0.3,0.4-0.5,0.6-0.6,0.7 c0,0-0.1,0.1-0.2,0.2C5,35.8,5,35.8,5,35.8L4.8,36c-0.1,0.1-0.1,0.2-0.1,0.2c0,0,0,0.1,0,0.2c0,0.1,0,0.2,0,0.2v0 c0.1,0.2,0.2,0.4,0.4,0.6c0.2,0.1,0.4,0.2,0.6,0.2C6.6,37.3,7.3,37.2,8,37c3.5-0.9,6.6-2.5,9.2-4.9c1,0.1,2,0.2,2.9,0.2 c3.3,0,6.3-0.6,9-1.7c2.8-1.1,4.9-2.7,6.5-4.7c1.6-2,2.4-4.1,2.4-6.5C38.1,17.1,37.3,14.9,35.7,13z" />
</svg>