<!-- (c) Carrd Inc. All rights reserved. All logos and trademarks are property of their respective owners. -->
<svg xmlns="http://www.w3.org/2000/svg" id="icon">
<path d="M39.4,22.7c-0.5,0.2-1.1,0.4-1.6,0.5c-1.7,0.2-2.7-0.7-2.9-2.4c-0.1-1,0-2,0-3c0-0.3,0-0.5-0.4-0.5 c-1.1,0-1.1,0-1.1-1.1c0-0.6,0.1-0.8,0.7-0.7c0.1,0,0.2,0,0.3,0c0.4,0.1,0.6-0.1,0.6-0.5c0-1.2,0-1.2,1.2-1.4 c0.4-0.1,0.9-0.1,1.4-0.2c-0.3,0.6-0.2,1.2-0.3,1.7c-0.1,0.3,0,0.4,0.4,0.4c0.6,0,1.1,0,1.7,0c0.2,0,0.3,0.1,0.3,0.3 c0.1,1.5,0.1,1.5-1.4,1.5c-0.9,0-0.9,0-1,1c0,0.7-0.1,1.4,0,2.1c0.2,0.9,0.7,1.2,1.6,0.9c0.3-0.1,0.6-0.3,1-0.5 c0.1,0.3,0.1,0.6,0.2,0.8C40.1,22.2,40,22.5,39.4,22.7z M33.5,24.8c0.2,0.1,0.3,0.1,0.4,0c0.1-0.1,0.3-0.1,0.4-0.1 c0.5,0.4,0.9,0.1,1.4,0c0.5-0.1,0.8,0.3,0.8,0.7c0,0.9,0,1.8,0,2.8c0,0.4-0.2,0.3-0.4,0.3c-0.2,0-0.4,0-0.4-0.3c0-0.8,0-1.6,0-2.3 c0-0.2,0.1-0.5-0.2-0.5c-0.3,0-0.4,0.3-0.4,0.5c0,0.6,0,1.1,0,1.7c0,0.2,0,0.3,0,0.5c0,0.3,0.1,0.5-0.4,0.5c-0.5,0-0.3-0.3-0.3-0.5 c0-0.6,0-1.3,0-1.9c0-0.2,0-0.4-0.1-0.5c0-0.1-0.1-0.2-0.2-0.2c-0.1,0-0.3,0.1-0.3,0.2c-0.1,0.2-0.2,0.4-0.2,0.7c0,0.7,0,1.3,0,2 c0,0.3-0.1,0.3-0.4,0.3c-0.2,0-0.4,0-0.4-0.3c0-0.5,0-1,0-1.6c0-0.5,0-0.9,0-1.4C32.9,24.8,33.1,24.6,33.5,24.8z M32,22.4 c0.1,0.2,0.3,0.4,0.5,0.7c-0.9,0-1.6,0-2.4,0c-0.2,0-0.3-0.2-0.4-0.3c-0.6-0.8-1.2-1.7-1.8-2.5c-0.1-0.1-0.2-0.4-0.4-0.3 c-0.2,0.1-0.3,0.3-0.3,0.6c0,0.7,0,1.4,0,2.1c0,0.4-0.1,0.5-0.5,0.4c-0.5,0-1,0-1.5,0c-0.3,0-0.4-0.1-0.4-0.4c0-3.4,0-6.8,0-10.1 c0-0.2,0-0.4,0.3-0.4c0.7,0,1.4,0,2.2,0c-0.2,0.6-0.2,4.7-0.1,5.5c0.7-0.7,1.4-1.3,2-2c0.2-0.2,0.4-0.3,0.7-0.2c0.6,0.1,1.3,0,2.1,0 c-1,1-1.8,1.8-2.7,2.7c-0.3,0.3-0.3,0.4-0.1,0.7C30.4,20,31.2,21.2,32,22.4z M27.5,24.8c0.8,0.3,0.9,0.5,0.2,1.1 c-0.4-0.6-1-0.7-1.6-0.4c-0.5,0.4-0.6,1.2-0.3,1.7c0.3,0.5,1,0.7,1.5,0.2c0.4-0.3,0.5,0,0.7,0.2c0.2,0.3-0.1,0.3-0.2,0.4 c-0.7,0.5-1.9,0.4-2.6-0.2c-0.6-0.6-0.7-1.7-0.2-2.4C25.6,24.8,26.6,24.5,27.5,24.8z M22.2,28.6c-0.4,0-0.6-0.3-0.6-0.6 c0-0.3,0.2-0.6,0.8-0.6c0.2,0,0.4,0.2,0.4,0.6C22.9,28.3,22.6,28.6,22.2,28.6z M21.1,14c-0.7,0-1.4-0.6-1.3-1.3 c0-0.7,0.6-1.3,1.4-1.2c0.7,0,1.4,0.6,1.4,1.3C22.5,13.4,21.8,14,21.1,14z M22,15.5c0.3,0,0.4,0.1,0.4,0.4c0,2.3,0,4.5,0,6.8 c0,1.3-0.5,2.3-1.8,2.9c-1.4,0.6-2.6,0.4-3.8-0.5c-0.3-0.2-0.4-0.4-0.1-0.8c0.4-0.4,0.7-0.9,1.1-1.4c0.2,0.7,0.5,1.2,1.2,1.2 c0.6,0,0.9-0.2,1-0.8c0.1-0.9,0-1.9,0-2.8c0-0.8,0-1.7,0-2.5c0-0.5-0.2-0.7-0.7-0.6c-0.5,0-1,0-1.6,0c-0.3,0-0.4-0.1-0.4-0.4 c0-1.4,0-1.4,1.4-1.4C20,15.6,21,15.6,22,15.5z M10.6,22.3c-0.3,0.8-0.3,0.8-1.3,0.8c-0.8,0-0.8,0-0.8-0.8c0-3.2,0-6.3,0-9.5 c0-0.5,0.2-0.6,0.6-0.6c0.6,0,1.2,0,1.8,0c0,1.3,0,2.6,0,4c0.6-0.6,1.4-0.8,2.2-0.7c1.3,0.2,2.2,1,2.5,2.3c0.3,1,0.2,2,0,3.1 C15,23.1,12.3,24,10.6,22.3z M13.1,17.6c-0.6-0.8-1.6-0.6-1.9,0.2c-0.2,0.5-0.2,1-0.2,1.5c0,0.5,0,1,0.2,1.4 c0.2,0.4,0.4,0.7,0.9,0.8c0.5,0,0.9-0.2,1.2-0.6C13.7,20.1,13.6,18.3,13.1,17.6z M3.7,23.2c-2.2,0-3.8-1.7-3.7-3.9 c0-2.2,1.7-3.9,3.8-3.9c2.1,0,3.8,1.8,3.8,3.9C7.5,21.5,5.9,23.2,3.7,23.2z M4.9,17.9c-0.6-0.9-1.7-0.9-2.3,0 c-0.5,0.8-0.5,2.2,0,2.9c0.6,0.8,1.6,0.8,2.2,0c0.3-0.4,0.4-1,0.5-1.5C5.3,18.8,5.2,18.3,4.9,17.9z M30.6,24.7 c1.1,0,1.9,0.8,1.9,1.9c0,1.1-0.8,1.9-1.9,1.9c-1,0-1.8-0.8-1.8-1.9C28.7,25.6,29.5,24.7,30.6,24.7z M30.6,27.9 c0.5,0,0.9-0.5,0.9-1.2c0-0.7-0.4-1.2-0.9-1.2c-0.5,0-0.9,0.5-0.9,1.2C29.7,27.3,30,27.9,30.6,27.9z"/>
</svg>