<!-- (c) Carrd Inc. All rights reserved. All logos and trademarks are property of their respective owners. -->
<svg xmlns="http://www.w3.org/2000/svg" id="icon">
<path d="M29,36.5V29h7.5v7.5H29z M29,16.2h7.5v7.5H29V16.2z M29,3.5h7.5V11H29V3.5z M16.2,29h7.5v7.5h-7.5V29z M17.1,35.6h5.6v-5.6h-5.6V35.6z M16.2,16.2h7.5v7.5h-7.5V16.2z M16.2,3.5h7.5V11h-7.5V3.5z M17.1,10.1h5.6V4.4h-5.6V10.1z M3.5,29 H11v7.5H3.5V29z M4.4,35.6h5.6v-5.6H4.4V35.6z M3.5,16.2H11v7.5H3.5V16.2z M4.4,22.8h5.6v-5.6H4.4V22.8z M3.5,3.5H11V11H3.5V3.5z M4.4,10.1h5.6V4.4H4.4V10.1z"/>
</svg>