<!-- (c) Carrd Inc. All rights reserved. All logos and trademarks are property of their respective owners. -->
<svg xmlns="http://www.w3.org/2000/svg" id="icon">
<path d="M33.6,21.7c-1.1,0-0.8-1.2-0.9-1.9c-1-8.1-4.7-12-12.8-13.2l0,0c-0.7-0.1-1.7,0-1.6-0.8 c0.1-1.3,1.3-0.8,1.9-0.9c7.7,0.3,14.4,7.4,14.3,15C34.5,20.7,34.7,21.8,33.6,21.7z M22,12.8L22,12.8c2.2-0.1,4.8,2.6,4.8,4.9 c0,0.6,0,1.3-0.8,1.4c-0.5,0.1-0.9-0.4-0.9-0.9c-0.2-2-1.3-3.2-3.3-3.6c-0.6-0.1-1.2-0.3-0.9-1.1C21,12.8,21.5,12.8,22,12.8z M19.5,9.5c0.2-1.1,1.2-0.7,2-0.6l0,0c5,0.6,9,4.9,9,9.7c-0.1,0.6,0.3,1.5-0.7,1.7c-1.2,0.2-1-0.9-1.1-1.7c-0.8-4.9-2.6-6.8-7.5-7.9 C20.5,10.5,19.4,10.6,19.5,9.5z M20.1,28.1c1.3,0.6,2.5,0.5,3.4-0.8c1.6-2.4,3.5-2.3,5.6-0.8c1.1,0.7,2.1,1.5,3.1,2.3l0,0 c1.4,1.1,3.1,2,2.3,4.3c-0.8,2.4-3.8,4.8-6.3,4.8c-0.4-0.1-1.1-0.2-1.7-0.5c-11-4.8-19-12.5-23.6-23.7C1.5,10,3.1,6.8,6.9,5.5 c0.7-0.2,1.4-0.2,2,0c1.6,0.6,5.8,6.3,5.9,8c0.1,1.3-0.8,2-1.7,2.6c-1.7,1.1-1.7,2.6-1,4.2C13.8,24,16.6,26.5,20.1,28.1z" />
</svg>