<!-- (c) Carrd Inc. All rights reserved. All logos and trademarks are property of their respective owners. -->
<svg xmlns="http://www.w3.org/2000/svg" id="icon">
<path d="M40,22.9c0,0-0.9,4-6.7,5.4c-2.7,4.2-7.5,7.1-12.9,7.1c-7.1,0-13-4.8-14.8-11.3C2.5,24.4,0,25.7,0,25.7 s1.4-3.7,4.1-4.6c0.3-0.1,0.7-0.2,1-0.3c0-0.3,0-0.6,0-0.9c0-8.5,6.9-15.4,15.3-15.4c8.5,0,15.3,6.9,15.3,15.4 c0,1.6-0.2,3.2-0.7,4.6C38.4,23.8,40,22.9,40,22.9z M20.4,32.2C20.4,32.2,20.4,32.2,20.4,32.2c3.3,0,6.3-1.3,8.5-3.4 c-2.7,0-6.1-0.4-10.2-1.6c-2.6-0.7-5.4-2-8.7-3c-0.4-0.1-0.8-0.2-1.1-0.2C10.5,28.8,15.1,32.2,20.4,32.2z M20.4,7.8 C13.6,7.8,8.2,13.3,8.2,20c0,0.2,0,0.4,0,0.6c3.5,0.2,6.9,2,11.2,3.4c3.6,1.2,8.1,1.8,12,1.4c0.8-1.6,1.2-3.4,1.2-5.3 C32.6,13.2,27.1,7.8,20.4,7.8z"/>
</svg>