<!-- (c) Carrd Inc. All rights reserved. All logos and trademarks are property of their respective owners. -->
<svg xmlns="http://www.w3.org/2000/svg" id="icon">
<path d="M24.5,3.9h-0.7C22.3,3.3,20.7,3,19,3c-3.6,0-6.6,1.3-9.2,3.8C7.3,9.3,6,12.4,6,16c0,3.6,1.3,6.6,3.8,9.2 c2.5,2.5,5.6,3.8,9.2,3.8c2,0,3.8-0.4,5.5-1.2c0,1.6-0.6,3-1.8,4.1c-1.1,1.1-2.5,1.7-4.2,1.7V40c3.4,0,6.4-1.2,8.8-3.6 c2.4-2.4,3.7-5.4,3.7-8.8V3.9H24.5z M24.6,19.5c0,0-0.4,0.5-0.9,1.2c-0.5,0.6-3,3.4-3,3.4v-1.8c-0.5,0.1-1.1,0.2-1.6,0.2 c-3.6,0-6.5-2.9-6.5-6.5s2.9-6.5,6.5-6.5s6.5,2.9,6.5,6.5C25.6,17.2,25.2,18.5,24.6,19.5L24.6,19.5z"/>
</svg>