<!-- (c) Carrd Inc. All rights reserved. All logos and trademarks are property of their respective owners. -->
<svg xmlns="http://www.w3.org/2000/svg" id="icon">
<path d="M36.44,25.29c-0.1,5.52-3.99,9.87-9.68,10.92c-0.94,0.17-1.91,0.26-2.87,0.27c-2.71,0.04-5.42,0.02-8.13,0.01 c-2.03,0-3.5-1.4-3.48-3.3c0.02-1.87,1.46-3.25,3.46-3.26c2.76-0.01,5.52,0.05,8.27-0.03c1.01-0.03,2.06-0.25,3.01-0.61 c1.78-0.66,2.79-2.08,2.84-3.95c0.09-3.56,0.1-7.12,0-10.68c-0.06-2.43-1.74-4.03-4.43-4.5c-0.74-0.13-1.5-0.14-2.3-0.21 c1.73-2.33,1.73-3.85,0.01-6.43c2.88-0.16,5.58,0.4,8.03,1.91c3.42,2.11,5.12,5.29,5.26,9.23C36.55,18.21,36.51,21.75,36.44,25.29z M10.69,16.82c1.86,0.01,3.72,0.01,5.59,0.01c1.26,0,2.53,0,3.79,0c1.54,0,2.76,1.05,3.07,2.63c0.27,1.38-0.57,2.96-1.9,3.47 c-0.44,0.17-0.93,0.27-1.4,0.27c-3.03,0.02-6.07,0.03-9.1-0.01c-0.64-0.01-0.82,0.19-0.81,0.82c0.03,3.08,0.02,6.16,0.01,9.24 c-0.01,1.53-0.97,2.71-2.52,3.13c-1.26,0.34-2.8-0.3-3.45-1.54c-0.25-0.48-0.39-1.09-0.39-1.64c-0.04-3.06-0.02-6.12-0.02-9.17 c0-2.92-0.12-5.85,0.03-8.76c0.23-4.73,2.17-8.51,6.61-10.65c1.46-0.71,3.04-1.04,4.67-1.05c1.72-0.01,2.48-0.01,4.21,0 c1.77,0.01,3.15,1.39,3.16,3.14c0.01,1.78-1.38,3.22-3.16,3.25c-1.54,0.02-2.12-0.01-3.66,0.01c-3.53,0.04-5.93,2.87-5.47,6.39 C10,16.9,10.36,16.82,10.69,16.82z"/>
</svg>