<!-- (c) Carrd Inc. All rights reserved. All logos and trademarks are property of their respective owners. -->
<svg xmlns="http://www.w3.org/2000/svg" id="icon">
<path d="M33.3,35.6c-0.8-0.4-1.6-0.9-2.4-1.3c-0.9-0.5-1.7-1-2.6-1.4c-0.7-0.4-1.5-0.8-2.2-1.2c-0.9-0.5-1.8-1-2.7-1.5 c-1.1-0.6-2.3-1.3-3.4-1.9c-0.1,0-0.2,0-0.3,0c-0.3,0.2-0.6,0.3-1,0.5c-1.4,0.8-2.8,1.5-4.2,2.3c-1.2,0.7-2.4,1.3-3.5,2 c-1.6,0.9-3.1,1.7-4.7,2.6C6.3,35.8,6.2,35.9,6,36c0,0-0.1,0-0.1,0c0-0.1,0-0.1,0-0.2c0-5.8,0-11.6,0-17.4c0.1,0,0.2,0,0.3,0 c9.1,0,18.3,0,27.4,0c0.1,0,0.3,0,0.4,0c0,5.8,0,11.7,0,17.5C33.8,35.8,33.6,35.7,33.3,35.6z M6.3,15c-0.1,0-0.3,0-0.4,0 c0-1.3,0-2.5,0-3.8c0.1,0,0.3,0,0.4,0c9.1,0,18.2,0,27.3,0c0.1,0,0.3,0,0.4,0c0,1.3,0,2.5,0,3.8c-0.1,0-0.3,0-0.4,0 C24.5,15,15.4,15,6.3,15z M6.2,7.8c-0.1,0-0.2,0-0.3,0c0-1.3,0-2.5,0-3.8C6,4,6,4,6,4c9.4,0,18.7,0,28.1,0c0,1.3,0,2.5,0,3.8 c-0.1,0-0.3,0-0.4,0C24.5,7.8,15.4,7.8,6.2,7.8z"/>
</svg>