<!-- (c) Carrd Inc. All rights reserved. All logos and trademarks are property of their respective owners. -->
<svg xmlns="http://www.w3.org/2000/svg" id="icon">
<path d="M38,16c-5.8,3.5-11.7,6.9-17.5,10.4c-1.2,0.7-2.3,0.2-2.3-1.3c0-0.6,0-1.3,0-1.9c0-0.4,0-0.8,0-1.2 c-0.2-1.8,0.7-3.2,2.2-4c1.3-0.7,2.6-1.2,3.9-1.7c0.4-0.2,0.8-0.3,1.2-0.4c0.5-0.2,0.8-0.6,0.8-1.1c0-0.6-0.2-1-0.7-1.2 c-0.7-0.3-1.4-0.5-2.1-0.8c-1.5-0.5-3-1.1-4.1-2.2c-0.7-0.7-1.1-1.5-1.1-2.5c0-1.3,0-2.5,0-3.8c0-1.4,1.1-2,2.3-1.3 C26.3,6.5,32.1,9.9,38,13.4C39.1,14.1,39.1,15.3,38,16z M16.3,35.8c0,1.4-0.3,1.7-1.7,1.7c-1.7,0-3.4,0-5.1,0c-1,0-1.4-0.4-1.4-1.4 c0-5.4,0-10.7,0-16.1c0-5.3,0-10.6,0-15.8c0-1.2,0.3-1.5,1.5-1.5c1.8,0,3.5,0,5.3,0c1,0,1.3,0.4,1.4,1.3c0,0.3,0,0.5,0,0.8 C16.3,15.1,16.3,25.5,16.3,35.8z"/>
</svg>