<!-- (c) Carrd Inc. All rights reserved. All logos and trademarks are property of their respective owners. -->
<svg xmlns="http://www.w3.org/2000/svg" id="icon">
<path d="M26,15.2h-5.1V5H26c2.8,0,5.1,2.3,5.1,5.1S28.8,15.2,26,15.2z M14,39C11.2,39,9,36.7,9,33.9s2.3-5.1,5.1-5.1 h5.1v5.1C19.1,36.7,16.9,39,14,39z M9,22c0-2.8,2.3-5.1,5.1-5.1h5.1v10.2H14C11.2,27.1,9,24.8,9,22z M9,10.1C9,7.3,11.2,5,14,5h5.1 v10.2H14C11.2,15.2,9,12.9,9,10.1z M26,16.9c2.8,0,5.1,2.3,5.1,5.1s-2.3,5.1-5.1,5.1s-5.1-2.3-5.1-5.1S23.1,16.9,26,16.9z"/>
</svg>