<!-- (c) Carrd Inc. All rights reserved. All logos and trademarks are property of their respective owners. -->
<svg xmlns="http://www.w3.org/2000/svg" id="icon">
<path d="M38,25.4c0,2.9,0,4.7-0.3,6.2c0,0,0,0,0,0c-0.1,0.4-0.2,0.7-0.3,1.1c-0.8,2.1-2.4,3.8-4.6,4.6 C30.9,38,29.1,38,25.5,38h0H14.6h0c-3.6,0-5.4,0-7.4-0.6c-2.1-0.8-3.8-2.4-4.6-4.6c-0.1-0.4-0.2-0.7-0.3-1.1c0,0,0,0,0,0 C2,30.1,2,28.4,2,25.4V14.6c0-2.9,0-4.7,0.3-6.2c0,0,0,0,0,0c0.1-0.4,0.2-0.7,0.3-1.1c0.8-2.1,2.4-3.8,4.6-4.6C9.1,2,10.9,2,14.5,2 h0h10.9h0c3.6,0,5.4,0,7.4,0.6c2.1,0.8,3.8,2.4,4.6,4.6c0.1,0.4,0.2,0.7,0.3,1.1c0,0,0,0,0,0C38,9.9,38,11.6,38,14.6V25.4z M15.3,4.3c-3.1,0-5.1,0-6.8,0.5C6.6,5.5,5.5,6.6,4.9,8.4c-0.5,1.7-0.5,3.7-0.5,6.8v9.5c0,3.2,0,5.1,0.5,6.8 c0.7,1.9,1.7,2.9,3.6,3.6c1.7,0.5,3.7,0.5,6.8,0.5h9.5c3.1,0,5.1,0,6.8-0.5c1.9-0.7,2.9-1.7,3.6-3.6c0.5-1.7,0.5-3.7,0.5-6.8v-9.5 c0-3.2,0-5.1-0.5-6.8c-0.7-1.9-1.7-2.9-3.6-3.6c-1.7-0.5-3.7-0.5-6.8-0.5H15.3z M33.2,11.6c0,0,0,3.5,0,4.9c0,0.1,0,0.3-0.3,0.5 c-8.6,4.5-11.8,11.8-13,15.7c-0.1,0.3-0.2,0.6-0.5,0.6c-0.5,0-1.2,0-1.7,0c-0.3,0-0.4-0.1-0.5-0.6C16.6,28.3,14.6,21,7,15.6 c-0.1-0.1-0.2-0.2-0.2-0.5c0-1.2,0-3.5,0-3.5c0-3.8,2.6-4.8,3.8-4.8c0.2,0,0.4,0.1,0.6,0.3C14.8,15,17,20,18.4,31.9 c0,0.2,0,0.3,0.2,0c1-2.2,5.7-13.2,3.8-24.6c-0.1-0.4,0.3-0.6,0.5-0.6c1.9,0,5.6,0,5.6,0C31.3,6.8,33.2,8.7,33.2,11.6z M7.3,27.5 c2.9,0.9,6,1.8,8.3,4.8c0.3,0.4,0,0.9-0.4,0.9c-1.9,0-3.7,0-3.7,0c-2.9,0-4.8-1.8-4.8-4.9c0-0.1,0-0.2,0-0.3 C6.8,27.9,6.9,27.4,7.3,27.5z M32.7,26.6c0.5-0.1,0.6,0.4,0.6,0.5c0,1.2,0,1.2,0,1.2c0,2.8-1.9,4.9-4.8,4.9c0,0-3.5,0-6,0 c-0.3,0-0.8-0.4-0.4-1C25.2,29,29,27.8,32.7,26.6z"/>
</svg>