<!-- (c) Carrd Inc. All rights reserved. All logos and trademarks are property of their respective owners. -->
<svg xmlns="http://www.w3.org/2000/svg" id="icon">
<path d="M39,21.3c0,1.31-1.06,2.37-2.38,2.37c-1.31,0-2.38-1.06-2.38-2.38c0-0.02,0-0.03,0-0.05v-2.5 c0-0.02,0-0.03,0-0.05c0-1.31,1.06-2.38,2.38-2.38c1.31,0,2.38,1.06,2.38,2.38h0L39,21.3L39,21.3z M30.8,29.07 c0,1.31-1.06,2.38-2.38,2.38c-1.31,0-2.37-1.06-2.38-2.37h0v-8.42h0c0-1.31,1.06-2.37,2.38-2.37c1.31,0,2.38,1.06,2.38,2.38 c0,0.01,0,0.02,0,0.04v8.35C30.79,29.04,30.8,29.06,30.8,29.07z M30.8,13.52c0,1.31-1.06,2.38-2.38,2.38 c-1.31,0-2.38-1.06-2.38-2.38v-2.59c0-1.31,1.06-2.38,2.38-2.38c1.31,0,2.38,1.06,2.38,2.38c0,0.02,0,0.03,0,0.05v2.49 C30.79,13.49,30.8,13.51,30.8,13.52z M22.38,36.62c0,1.31-1.06,2.38-2.38,2.38c-1.31,0-2.38-1.06-2.38-2.38c0-0.02,0-0.03,0-0.05 v-2.5c0-0.02,0-0.03,0-0.05c0-1.31,1.06-2.38,2.38-2.38c1.31,0,2.38,1.06,2.38,2.38c0,0.02,0,0.03,0,0.05v2.5 C22.37,36.59,22.38,36.61,22.38,36.62z M20,29.28c-1.31,0-2.38-1.06-2.38-2.38c0-0.01,0-0.02,0-0.04v-5.72v-2.3v-5.76 c0-1.31,1.06-2.37,2.37-2.37c1.31,0,2.37,1.06,2.37,2.37v5.76v2.3v5.72c0,0.01,0,0.02,0,0.04C22.38,28.22,21.31,29.28,20,29.28z M22.38,5.97c0,1.31-1.06,2.38-2.38,2.38c-1.31,0-2.38-1.06-2.38-2.38c0-0.02,0-0.03,0-0.05V3.42c0-0.02,0-0.03,0-0.05 C17.62,2.06,18.69,1,20,1c1.31,0,2.38,1.06,2.38,2.38c0,0.02,0,0.03,0,0.05v2.49C22.37,5.93,22.38,5.95,22.38,5.97z M11.58,31.44 c-1.31,0-2.38-1.06-2.38-2.38c0-0.02,0-0.03,0-0.05v-2.5c0-0.02,0-0.03,0-0.05c0-1.31,1.06-2.38,2.38-2.38 c1.31,0,2.38,1.06,2.38,2.38c0,0,0,0,0,0h0v2.59h0C13.95,30.38,12.89,31.44,11.58,31.44z M11.58,21.73c-1.29,0-2.34-1.03-2.37-2.32 h0v-8.44c0-0.01,0-0.02,0-0.04c0-1.31,1.06-2.38,2.38-2.38c1.31,0,2.38,1.06,2.38,2.38v8.47h0C13.92,20.69,12.87,21.73,11.58,21.73z M5.75,21.3c0,1.31-1.06,2.38-2.38,2.38C2.07,23.67,1,22.61,1,21.3h0V18.7h0c0-1.31,1.06-2.38,2.38-2.38c1.31,0,2.38,1.06,2.38,2.38 c0,0.02,0,0.03,0,0.05v2.5C5.75,21.26,5.75,21.28,5.75,21.3z"/>
</svg>