<!-- (c) Carrd Inc. All rights reserved. All logos and trademarks are property of their respective owners. -->
<svg xmlns="http://www.w3.org/2000/svg" id="icon">
<path d="M34.6,16.4l-3.4,4.8c-0.7,0.7-1.2,1-1.6,1c-0.5,0-1-0.2-1.6-0.5c-1-0.6-2.2-1.7-3.5-3.3 c-0.4-0.5-0.8-1.1-1.3-1.7c-0.2-0.2-0.3-0.5-0.5-0.8l-0.3-0.5l3.7-5c1-1.4,2.6-2.2,4.3-2.2c1.1,0,2.1,0.3,2.9,0.8c0,0,0,0,0,0 l0.2,0.1c1.5,1,2.2,2.6,2.2,4.3C35.5,14.5,35.2,15.5,34.6,16.4z M20,33.8c-1.3,0-3-1.1-4.3-2.9v0l-3.9-5.4l-3-4.3l-1.9-2.6l-1.6-2.2 c-0.6-0.9-0.9-1.9-0.9-2.9c0-1.6,0.7-3.3,2.2-4.3l0.2-0.1c0,0,0,0,0,0l0,0c0.9-0.6,1.9-0.9,2.9-0.9c1.7,0,3.3,0.8,4.3,2.1l3.9,5.5 l0.5,0.7c0.1,0.1,0.2,0.3,0.2,0.3l0.5,0.8c0.2,0.3,0.4,0.6,0.6,0.9c0,0,0.1,0.1,0.1,0.1c0.5,0.7,1,1.3,1.5,1.9 c2.4,2.9,4.6,4.5,6.7,5l-3.9,5.4v0C23,32.7,21.4,33.8,20,33.8L20,33.8z M39.5,12.8c-0.2-2.2-1.1-4.2-2.6-5.7 c-0.1-0.1-0.2-0.2-0.4-0.3c-0.2-0.1-0.3-0.2-0.4-0.3c0,0-0.1,0-0.1-0.1c-0.1-0.1-0.3-0.2-0.4-0.3c0,0-0.2-0.1-0.2-0.1 c-0.4-0.3-0.8-0.5-1.3-0.7c-1-0.5-2-0.7-3.1-0.8c-0.3,0-0.5,0-0.8,0c-1.6,0-3.2,0.4-4.6,1.2c-1.1,0.6-2.1,1.5-2.9,2.6L20,11.8 l-2.7-3.8c-0.8-1.1-1.8-2-2.9-2.6C13,4.7,11.4,4.3,9.8,4.3c-0.3,0-0.5,0-0.8,0C7.9,4.4,6.8,4.7,5.9,5.2C5.4,5.4,5,5.6,4.6,5.9L4.4,6 C4.2,6.1,4.1,6.2,4,6.3c0,0-0.1,0-0.1,0.1C3.8,6.5,3.7,6.6,3.6,6.7C3.4,6.8,3.2,6.9,3.1,7.1c-1.5,1.5-2.5,3.5-2.6,5.7 c0,0.2,0,0.3,0,0.5c0,0.1,0,0.1,0,0.2c0,0.2,0,0.4,0,0.5c0,0.1,0,0.2,0,0.3c0,0.1,0,0.2,0,0.2c0.2,1.4,0.7,2.7,1.6,3.9l10.3,14.9 c0.2,0.3,0.4,0.6,0.7,0.9c0,0,0.1,0.1,0.1,0.1c0,0,0.1,0.1,0.1,0.1c1.9,2.1,4.3,3.3,6.5,3.3h0.2c2.3,0,4.7-1.2,6.5-3.3 c0,0,0.1-0.1,0.1-0.1c0,0,0.1-0.1,0.1-0.1c0.2-0.3,0.5-0.6,0.7-0.9l10.3-14.9c0.9-1.2,1.4-2.6,1.6-3.9c0-0.1,0-0.2,0-0.2 c0-0.1,0-0.2,0-0.3c0-0.2,0-0.4,0-0.5c0-0.1,0-0.1,0-0.2C39.5,13.1,39.5,12.9,39.5,12.8z"/>
</svg>