<!-- (c) Carrd Inc. All rights reserved. All logos and trademarks are property of their respective owners. -->
<svg xmlns="http://www.w3.org/2000/svg" id="icon">
<path d="M30,37.3H10L0,20L10,2.7h20C30,2.7,40,20,40,20L30,37.3z M27.8,6.5H12.2L4.4,20l7.8,13.5h15.6L35.6,20L27.8,6.5 z M24.5,27c-3.9,2.3-9,0.9-11.2-3c-2.3-3.9-1-8.9,3-11.2c3.9-2.3,8.9-1,11.2,3C29.7,19.7,28.4,24.7,24.5,27z M14.2,18.8 c-0.2,1.4,0,2.9,0.8,4.1c0.7,1.2,1.8,2.2,3.2,2.7L14.2,18.8z M15.1,16.5l5.6,9.5c0.6,0,1.2-0.2,1.9-0.4L16.4,15 C15.9,15.4,15.5,15.9,15.1,16.5z M23.9,14.3c-0.3,0-0.6,0.3-0.6,0.6s0.3,0.6,0.6,0.6c0.3,0,0.6-0.3,0.6-0.6S24.2,14.3,23.9,14.3z M19.9,13.6c-0.6,0-1.2,0.2-1.8,0.4l6.1,10.6c0.5-0.4,0.9-0.9,1.2-1.4L19.9,13.6z M26.3,18.7c-0.3,0-0.6,0.3-0.6,0.6 s0.3,0.6,0.6,0.6s0.6-0.3,0.6-0.6S26.6,18.7,26.3,18.7z"/>
</svg>