<!-- (c) Carrd Inc. All rights reserved. All logos and trademarks are property of their respective owners. -->
<svg xmlns="http://www.w3.org/2000/svg" id="icon">
<path d="M39.7,26.8c-0.2,0.8-0.5,1.5-0.9,2.2c-0.4,0.7-0.8,1.3-1.4,1.8c-0.1,0.1-0.3,0.2-0.4,0.2 c-0.2,0.1-0.4-0.1-0.3-0.3c0-0.2,0.1-0.3,0.2-0.5c0.3-0.8,0.6-1.5,0.8-2.3c0.2-0.5,0.3-1.1,0.3-1.7c0.1-0.4,0-0.7-0.4-0.9 c-0.3-0.1-0.7-0.2-1-0.2c-1.1-0.1-2.3,0-3.4,0.2c-0.1,0-0.3,0.1-0.4,0.1c-0.1,0-0.2,0-0.3-0.1c0-0.1,0-0.2,0-0.3 c0.1-0.1,0.3-0.3,0.5-0.4c0.7-0.5,1.6-0.7,2.4-0.9c0.9-0.2,1.8-0.2,2.7-0.1c0.5,0,0.9,0.2,1.3,0.3c0.3,0.1,0.5,0.3,0.5,0.7 c0,0,0,0.1,0,0.1c0,0.2,0,0.3,0,0.5C39.9,25.8,39.8,26.3,39.7,26.8z M38.4,20.7c-0.5,0.1-1,0.2-1.5,0.3c0,0,0,0,0-0.1 c-0.8,0-1.5-0.1-2.2-0.5c-0.9-0.5-1.4-1.3-1.6-2.3c-0.2-0.9-0.2-1.8,0-2.6c0.3-1.3,1-2.3,2.3-2.7c0.9-0.3,1.7-0.3,2.6-0.1 c0.2,0,0.3,0.1,0.5,0.1c0.2,0.1,0.4,0.2,0.4,0.5c0,0.2,0,0.4,0,0.6c0,0.1-0.1,0.2-0.2,0.2c-0.2,0-0.4-0.1-0.6-0.1 c-0.7-0.1-1.4-0.1-2,0.1c-0.6,0.2-1,0.6-1.2,1.3c-0.3,1-0.3,2-0.1,2.9c0.2,0.9,0.9,1.3,1.7,1.4c0.6,0.1,1.3,0,1.9-0.2 c0.6-0.1,0.6,0,0.6,0.4c0,0,0,0,0,0C39.1,20.5,39.1,20.5,38.4,20.7z M30.6,11.2c-0.6,0-1-0.3-1-0.9c0-0.6,0.4-1,1-1 c0.7,0,1,0.3,1,0.9C31.6,10.7,31.3,11.2,30.6,11.2z M24.7,15.5c0.5,0.3,1,0.4,1.5,0.6c0.5,0.2,1,0.4,1.4,0.7c0.7,0.4,0.9,1.2,0.8,2 c-0.1,1.1-0.8,1.7-1.7,2c-1,0.3-2,0.3-2.9,0c-0.3-0.1-0.6-0.2-0.9-0.3c-0.3-0.1-0.4-0.3-0.4-0.5c0-0.2,0-0.3,0-0.5 c0-0.1,0.1-0.2,0.2-0.2c0.2,0,0.4,0.1,0.6,0.1c0.8,0.2,1.6,0.3,2.5,0.2c0.3,0,0.6-0.2,0.9-0.4c0.5-0.6,0.3-1.3-0.4-1.6 c-0.5-0.3-1.1-0.4-1.7-0.7c-0.6-0.2-1.1-0.5-1.5-1c-0.7-0.8-0.7-2.6,0.8-3.3c0.5-0.3,1.1-0.4,1.7-0.4c0.7,0,1.4,0.2,2.1,0.4 c0.2,0.1,0.3,0.2,0.3,0.4c0,0.2,0,0.3,0,0.5c0,0.2-0.1,0.3-0.3,0.2c-0.2,0-0.4-0.1-0.6-0.2c-0.6-0.2-1.2-0.2-1.8-0.1 c-0.2,0-0.4,0.1-0.6,0.2C24.1,14.2,24.1,15.2,24.7,15.5z M31.2,20.7c-0.4,0-0.7,0-1.1,0c-0.1,0-0.2-0.1-0.2-0.2c0-0.1,0-0.2,0-0.2 c0-2.4,0-4.8,0-7.2c0-0.4,0.1-0.4,0.4-0.4c0.2,0,0.5,0,0.7,0c0.4,0,0.4,0.1,0.4,0.4c0,1.2,0,2.4,0,3.7c0,0,0,0,0,0 c0,1.2,0,2.4,0,3.5c0,0.1,0,0.2,0,0.2C31.4,20.6,31.3,20.7,31.2,20.7z M26.3,29.3c0.6-0.1,1.3-0.2,1.9-0.4c0.7-0.2,1.5-0.3,2.2-0.5 c0.9-0.3,1.8-0.5,2.7-0.8c0.8-0.3,1.6-0.6,2.4-0.9c0.2-0.1,0.4-0.1,0.6,0c0.4,0.1,0.6,0.6,0.3,0.9c-0.3,0.3-0.7,0.5-1,0.8 c-1.4,1-3,1.7-4.6,2.3c-1.3,0.5-2.7,0.9-4.1,1.2c-1,0.2-2,0.4-2.9,0.5c-0.9,0.1-1.7,0.2-2.6,0.2c-0.1,0-0.1,0-0.2,0 c-0.7,0-1.3,0-2,0c-0.4,0-0.7,0-1.1-0.1c-0.9-0.1-1.7-0.2-2.6-0.3c-1.1-0.2-2.1-0.4-3.2-0.7c-0.9-0.2-1.8-0.6-2.7-0.9 c-1.7-0.6-3.3-1.4-4.8-2.4c-1.2-0.7-2.3-1.5-3.3-2.4c-0.3-0.3-0.6-0.6-1-0.8c0,0-0.1-0.1-0.1-0.2c-0.1-0.2-0.1-0.3,0-0.5 c0.1-0.1,0.3-0.1,0.4-0.1c0.3,0.2,0.7,0.4,1,0.6c1.1,0.5,2.2,1.1,3.4,1.6c1.2,0.5,2.4,0.9,3.6,1.3c0.8,0.3,1.6,0.5,2.4,0.7 c1,0.2,2,0.4,3,0.6c0.9,0.2,1.8,0.3,2.7,0.4c1.7,0.1,3.4,0.3,5.1,0.1c0.8-0.1,1.6-0.1,2.4-0.2C24.9,29.5,25.6,29.4,26.3,29.3z M20.7,20.7c-0.2,0-0.4,0-0.6,0c-0.3,0-0.3-0.1-0.4-0.3c0-0.1-0.1-0.3-0.1-0.5c-0.6,0.4-1.1,0.7-1.7,0.9c-0.8,0.2-1.7,0.3-2.5,0 c-0.6-0.3-0.9-0.7-1.1-1.3c-0.1-0.3-0.1-0.6-0.1-0.9c0-1.8,0-3.6,0-5.5c0-0.3,0.1-0.4,0.4-0.4c0.3,0,0.5,0,0.8,0 c0.3,0,0.3,0.1,0.3,0.3c0,0.3,0,0.7,0,1c0,1.4,0,2.7,0,4.1c0,0.2,0,0.5,0.1,0.7c0.1,0.5,0.6,0.8,1.1,0.8c0.5,0,1-0.1,1.5-0.3 c0.3-0.1,0.5-0.3,0.8-0.4c0.2-0.1,0.2-0.2,0.2-0.3c0-1.9,0-3.7,0-5.6c0-0.4,0.1-0.5,0.5-0.5c0.3,0,0.5,0,0.8,0 c0.3,0,0.4,0.1,0.4,0.4c0,1.1,0,2.2,0,3.3c0,1.3,0,2.6,0,3.9C21.1,20.6,21.1,20.7,20.7,20.7z M12,20.7c-0.3,0-0.6,0-0.9,0 c-0.3,0-0.3-0.1-0.3-0.3c0-1.7,0-3.4,0-5.2c0-0.4-0.1-0.8-0.3-1.2c-0.2-0.3-0.6-0.4-0.9-0.4c-0.8,0-1.5,0.2-2.2,0.6 c-0.1,0.1-0.1,0.2-0.1,0.3c0,1.9,0,3.8,0,5.6c0,0.1,0,0.2,0,0.2c0,0.2-0.1,0.3-0.3,0.3c-0.3,0-0.7,0-1,0c-0.2,0-0.3-0.1-0.3-0.2 c0-0.1,0-0.2,0-0.3c0-1.7,0-3.3,0-5c0-0.2,0-0.5-0.1-0.7c-0.2-0.6-0.6-0.8-1.2-0.8c-0.7,0-1.4,0.3-2,0.6c-0.1,0.1-0.2,0.1-0.2,0.3 c0,1.9,0,3.9,0,5.8c0,0.3-0.1,0.4-0.4,0.4c-0.3,0-0.6,0-0.8,0c-0.2,0-0.3-0.1-0.3-0.3c0-0.1,0-0.3,0-0.4c0-2.3,0-4.6,0-6.9 c0-0.4,0.1-0.4,0.5-0.4c0.2,0,0.4,0,0.6,0c0.3,0,0.3,0.1,0.4,0.3c0,0.1,0,0.3,0.1,0.4c0.5-0.2,1-0.5,1.5-0.7 c0.8-0.3,1.7-0.4,2.6-0.1c0.3,0.1,0.6,0.4,0.8,0.7c0.1,0.2,0.2,0.2,0.3,0.1c0.3-0.2,0.6-0.4,1-0.5c0.8-0.4,1.7-0.5,2.6-0.4 c0.8,0.2,1.5,0.7,1.6,1.7c0,0.2,0.1,0.5,0.1,0.8c0,1.8,0,3.6,0,5.3c0,0.1,0,0.1,0,0.2C12.2,20.6,12.1,20.7,12,20.7z"/>
</svg>