<!-- (c) Carrd Inc. All rights reserved. All logos and trademarks are property of their respective owners. -->
<svg xmlns="http://www.w3.org/2000/svg" id="icon">
<path d="M40,23.6c0,0.4,0,0.9,0,1.3c-0.1,0-0.1,0.1-0.2,0.1c-1.6-0.2-2.2,1-2.1,2.3c0,0.7,0,1.4,0,2.1 c0,0.5-0.2,0.7-0.7,0.6c-0.2,0-0.5,0-0.7,0c-0.4,0-0.6-0.1-0.6-0.6c0-1.3,0-2.6,0-3.9c0-0.2,0-0.4,0-0.5c-0.9-0.2-0.9-0.2-0.7-1.7 c0.7,0,1.4-0.1,2,0c0.3,0,0.5,0.4,0.8,0.7c0.4-0.4,0.9-0.8,1.7-0.9C39.9,23.1,40,23.2,40,23.6z M34.3,27c-1.1,0-2.2,0-3.3,0 c-0.2,0-0.3,0-0.5,0c0.2,1.5,1.7,1.8,3.5,0.6c0.2,0.4,0.5,0.7,0.7,1.1c0,0.1-0.1,0.3-0.2,0.4c-2.1,1.6-5.3,0.9-6-1.7 c-0.3-1.3-0.1-2.5,0.9-3.5c0.9-0.9,2.1-1.1,3.4-0.8c1.6,0.5,2.2,1.9,2,3.5C34.7,26.9,34.4,27,34.3,27z M31.8,24.7 c-0.7,0-1.1,0.3-1.3,0.9c0.7,0,1.5,0,2.2,0C32.7,25,32.4,24.7,31.8,24.7z M29.6,16c-0.9-0.1-0.9,0.5-1,1.1c-0.1,0.6-0.4,1.2-0.6,1.8 c-0.4,0.9-0.6,0.9-1.6,0.7c0.3-1.1,0.7-2.2,1-3.4c-1.7,0.1-3.8,1.8-4.1,3.1c-0.3,1.1,0.1,1.6,1.2,1.5c0.1,0,0.2,0,0.3,0 c0.2,0.7,0.2,0.8-0.6,0.9c-0.4,0.1-0.9,0.1-1.3,0.1c-1-0.1-1.5-1.2-1.1-2.2c0.5-1.1,1.2-2,2.3-2.7c1.1-0.7,2.2-1.3,3.4-2 c0-0.6,0.1-1.3,0.1-2c0-0.7,0-1.4-0.1-2.2c-0.2,0.4-0.3,0.9-0.5,1.3C26.4,13,26,14,25.4,14.8c-0.2,0.4-0.8,0.7-1.2,0.8 c-1,0.2-1.7-0.5-1.8-1.7c0-0.3-0.1-0.6-0.1-0.9c0,0-0.1,0-0.1,0c-0.1,0.3-0.3,0.7-0.5,1c-0.3,0.6-0.6,1.1-0.9,1.6 c-0.3,0.4-0.6,0.7-1.2,0.6c-0.4-0.1-0.8-0.7-0.8-1.3c0-0.7,0-1.4,0-2.1c-0.1,0-0.1,0-0.2,0c-0.1,0.2-0.2,0.5-0.3,0.7 c-0.3,0.9-0.6,1.7-0.8,2.6c0,0.1,0,0.1,0,0.2c-0.3,0.8-0.7,1.2-1.1,1.1c-0.5-0.1-1-0.8-1.1-1.5c0-0.7,0-1.4,0-2.1 c0-0.7-0.1-1.4-0.1-2.2c-0.1,0.2-0.2,0.3-0.2,0.4c-0.7,2.1-1.5,4.2-2.2,6.3c-0.3,0.8-0.6,1.1-1.2,1c-0.5-0.1-0.8-0.7-0.8-1.4 c0.2-2.9,0.4-5.8,0.6-8.7c0.1-0.7,0.3-0.9,0.9-0.9c0.6,0,0.8,0.3,0.8,1c-0.1,0.8-0.2,1.7-0.3,2.5c0,0.4-0.1,0.7,0,1.1 c0.3-0.7,0.6-1.5,0.9-2.2c0.2-0.6,0.5-1.2,0.7-1.7c0.2-0.5,0.7-0.7,1.2-0.6c0.5,0.1,0.9,0.4,0.9,0.9c0.1,0.8,0.1,1.6,0.1,2.3 c0,0.8,0.1,1.6,0.2,2.4c0.3-1.1,0.7-2.3,1-3.4c0.1-0.2,0.1-0.4,0.2-0.6c0.2-0.5,0.6-0.7,1.2-0.6c0.6,0.1,0.9,0.5,0.9,1 c0,0.8-0.1,1.7-0.1,2.5c0,0.4,0,0.8,0.1,1.1c0.6-1,1.1-2,1.4-3.1c0.2-0.6,0.2-1.3,0.5-1.9c0.1-0.4,0.4-0.7,0.7-1 c0.4-0.4,0.8-0.2,0.9,0.4c0.1,0.7,0.1,1.3,0.2,2c0.1,1,0.2,2,0.3,3c0,0.1,0.1,0.2,0.1,0.3c0.7-0.8,1.2-1.6,1.6-2.5 c0.4-0.8,0.7-1.6,1.1-2.4c0.2-0.4,0.5-0.6,1-0.5c0.5,0.1,0.6,0.4,0.7,0.8c0.1,0.9,0.1,1.7,0.1,2.6c0,1.1,0,2.2,0,3.3 c0.2,0,0.4,0,0.7,0.1c0.2,0.1,0.4,0.3,0.4,0.4C30,15.7,29.7,16,29.6,16z M12.1,26.5c0-1.1,0-2.1,0-3.2c0.6,0,1.2,0,1.9,0 c0,1.7,0,3.3,0,5c0.8-0.2,0.9,0.2,0.8,0.7c0,0.3,0,0.5,0,0.8c-1.2,0.4-2.3,0.1-2.7-0.6c-0.7,0.7-1.6,1-2.6,0.8 c-1.1-0.2-1.7-0.8-1.7-2c-0.1-1.6,0-3.2,0-4.8c0.6,0,1.2,0,1.9,0c0,1.2,0,2.4,0,3.6c0,0.3,0,0.5,0.1,0.8c0.1,0.5,0.5,0.7,1,0.6 C11.5,28.1,12.1,27.4,12.1,26.5z M7.1,28.1c-0.3,1-1.4,1.8-2.6,1.8c-0.9,0-1.9,0-2.8,0c-0.6,0-0.9-0.3-0.9-0.9c0-2,0-3.9,0-5.9 c0-0.2,0-0.4,0-0.6c-0.3,0-0.5,0-0.8-0.1c0-0.5,0-1,0-1.6c0.1,0,0.2-0.1,0.3-0.1c1.4,0,2.8,0,4.1,0c1.5,0,2.6,1.2,2.5,2.5 c-0.1,0.6-0.4,1.2-0.7,1.9C7.2,25.8,7.5,26.9,7.1,28.1z M4.1,22.4c-0.4,0-0.9,0-1.3,0c0,0.6,0,1.2,0,1.9c0.4,0,0.8,0,1.2,0 c0.6,0,0.9-0.3,1-0.9C5,22.9,4.7,22.5,4.1,22.4z M5.3,27c0-0.6-0.4-1-0.9-1c-0.5,0-1,0-1.6,0c0,0.8,0,1.5,0,2.3c0.6,0,1.2,0,1.7-0.1 C5,28,5.3,27.5,5.3,27z M15.6,22.4c0-0.5,0-1.1,0-1.6c0.5,0,1,0,1.5,0c0.1,0,0.3,0.2,0.3,0.3c0,0.4,0,0.8,0,1.3 C16.8,22.4,16.3,22.4,15.6,22.4z M14.9,23.2c0.6,0,1.3,0,1.9,0c0.4,0,0.7,0.3,0.7,0.8c0,1.9,0,3.9,0,5.9c-0.6,0-1.2,0-1.9,0 c0-1.6,0-3.3,0-4.9c-0.3,0-0.5,0-0.7-0.1C14.9,24.3,14.9,23.8,14.9,23.2z M20.3,29.8c-0.6,0-1.2,0-1.8,0c0-3,0-6,0-9.1 c0.6,0,1.2,0,1.8,0C20.3,23.8,20.3,26.8,20.3,29.8z M23.5,23.1c0.8-0.1,1.5,0.1,2.2,0.4c0-1,0-1.9,0-2.8c0.6,0,1.2,0,1.9,0 c0,2.5,0,5,0,7.5c0.9-0.2,0.8,0.3,0.8,0.8c0,0.3,0,0.5,0,0.9c-0.9-0.2-1.8,0.3-2.6-0.5c-0.8,0.7-1.7,0.9-2.7,0.6 c-0.8-0.2-1.4-0.7-1.7-1.5c-0.5-1.1-0.6-2.2-0.2-3.3C21.5,24,22.3,23.3,23.5,23.1z M23.1,27.6c0.1,0.5,0.6,0.8,1.2,0.8 c0.5,0,1-0.2,1.2-0.7c0.2-0.3,0.2-0.7,0.3-1.1c0,0-0.1,0-0.1,0c0-0.2,0-0.3,0-0.5c-0.1-0.7-0.6-1.3-1.2-1.3c-0.8-0.1-1.3,0.2-1.5,1 C22.9,26.4,23,27,23.1,27.6z"/>
</svg>