<!-- (c) Carrd Inc. All rights reserved. All logos and trademarks are property of their respective owners. -->
<svg xmlns="http://www.w3.org/2000/svg" id="icon">
<path d="M24.9,20.6c0,2.4-0.5,4.5-1.5,6.3s-2.4,3.3-4.2,4.3c-1.8,1-3.9,1.6-6.3,1.6c-1.7,0-3.3-0.3-4.9-1s-2.9-1.5-4-2.7 s-2-2.4-2.7-4c-0.7-1.5-1-3.2-1-4.9c0-1.7,0.3-3.3,1-4.9s1.5-2.9,2.7-4s2.4-2,4-2.7c1.5-0.7,3.2-1,4.9-1c3.2,0,6,1.1,8.4,3.3 l-3.4,3.3c-1.3-1.3-3-1.9-5-1.9c-1.4,0-2.7,0.4-3.9,1.1c-1.2,0.7-2.1,1.7-2.8,2.9s-1,2.5-1,4s0.3,2.8,1,4c0.7,1.2,1.6,2.2,2.8,2.9 c1.2,0.7,2.5,1.1,3.9,1.1c0.9,0,1.8-0.1,2.6-0.4c0.8-0.3,1.4-0.6,2-1c0.5-0.4,1-0.8,1.3-1.3c0.4-0.5,0.7-1,0.8-1.4 c0.2-0.4,0.3-0.9,0.4-1.3h-7.1v-4.3h11.8C24.8,19.2,24.9,19.9,24.9,20.6L24.9,20.6z M39.6,18.5v3.6h-3.6v3.6h-3.6v-3.6h-3.6v-3.6 h3.6V15h3.6v3.6H39.6z"/>
</svg>