<!-- (c) Carrd Inc. All rights reserved. All logos and trademarks are property of their respective owners. -->
<svg xmlns="http://www.w3.org/2000/svg" id="icon">
<path d="M29.1,6.2c-3.8,0-7.2,2-9.1,4.9c-2-2.9-5.3-4.9-9.1-4.9C4.9,6.2,0,11.1,0,17.1c0,3.8,2.4,6.6,4.9,9.1l9.9,9.4 c0.5,0.5,1.4,0.1,1.4-0.6v-7.3c0-2.1,1.7-3.8,3.8-3.8c2.1,0,3.8,1.7,3.8,3.8V35c0,0.7,0.9,1.1,1.4,0.6l9.9-9.4 c2.5-2.6,4.9-5.3,4.9-9.1C40,11.1,35.1,6.2,29.1,6.2z M10.1,25.5c-0.1,0.2-0.4,0.3-0.6,0.3c-0.2,0-0.4-0.1-0.5-0.2 c-3.3-2.9-4.9-5.9-4.9-9v0c0-2.6,1.6-5.6,3.7-7c0.4-0.2,0.8-0.1,1,0.2c0.2,0.4,0.1,0.8-0.2,1c-1.7,1.1-3,3.6-3,5.7v0 c0,2.6,1.5,5.2,4.4,7.8C10.4,24.7,10.4,25.2,10.1,25.5z M15,22.7c-0.1,0.2-0.4,0.4-0.7,0.4c-0.1,0-0.3,0-0.4-0.1 c-2.2-1.2-3.7-3.7-3.7-6.1v0c0-2.3,1.3-4.3,3.3-5.4c0.4-0.2,0.8-0.1,1,0.3c0.2,0.4,0.1,0.8-0.3,1c-1.5,0.8-2.5,2.4-2.5,4.1 c0,1.9,1.2,3.8,2.9,4.7C15,21.9,15.2,22.3,15,22.7z M20,20.8c-1.8,0-3.3-1.5-3.3-3.3s1.5-3.3,3.3-3.3c1.8,0,3.3,1.5,3.3,3.3 S21.8,20.8,20,20.8z M26.1,23c-0.1,0.1-0.2,0.1-0.4,0.1c-0.3,0-0.5-0.1-0.7-0.4c-0.2-0.4-0.1-0.8,0.3-1c1.7-1,2.9-2.9,2.9-4.7 c0-1.7-0.9-3.3-2.5-4.1c-0.4-0.2-0.5-0.7-0.3-1c0.2-0.4,0.7-0.5,1-0.3c2,1.1,3.3,3.1,3.3,5.4v0C29.8,19.3,28.3,21.8,26.1,23z M35.9,16.6c0,3.1-1.6,6.1-4.9,9c-0.1,0.1-0.3,0.2-0.5,0.2c-0.2,0-0.4-0.1-0.6-0.3c-0.3-0.3-0.2-0.8,0.1-1.1 c2.9-2.6,4.4-5.2,4.4-7.8v0c0-2.1-1.3-4.6-3-5.7c-0.4-0.2-0.5-0.7-0.2-1c0.2-0.4,0.7-0.5,1-0.2C34.3,11,35.9,14,35.9,16.6L35.9,16.6 z"/>
</svg>