<!-- (c) Carrd Inc. All rights reserved. All logos and trademarks are property of their respective owners. -->
<svg xmlns="http://www.w3.org/2000/svg" id="icon">
<path d="M31.4,27.8c-2.6,2.2-5.6,3.5-9.1,3.9c-0.5,1.5-1.4,2.8-2.6,3.8c-1.7,1.4-3.8,2.2-6,2.2c-2.3,0-4.4-0.8-6.1-2.2 c-1.9-1.6-3-3.9-3-6.3V17.3c0-4.1,1.7-7.7,5-10.5c3-2.6,6.7-3.9,10.9-3.9c4.2,0,7.9,1.3,10.9,4c3.2,2.8,4.9,6.4,4.9,10.5 C36.3,21.4,34.6,25,31.4,27.8z M27.7,11.1c-2-1.7-4.4-2.6-7.3-2.6c-2.8,0-5.3,0.9-7.3,2.6c-2,1.7-3,3.8-3,6.2v11.8 c0,0.8,0.3,1.5,1,2.1c0.7,0.6,1.5,0.9,2.4,0.9c0.9,0,1.8-0.3,2.4-0.9c0.7-0.6,1-1.3,1-2.1v-3h3.4c2.8,0,5.3-0.9,7.3-2.6 c2-1.7,3-3.8,3-6.3C30.7,14.9,29.7,12.8,27.7,11.1z M22.8,19.3c-0.6,0.6-1.4,0.8-2.4,0.8h-3.4v-2.9c0-0.8,0.3-1.5,1-2 c0.7-0.6,1.5-0.9,2.4-0.9c0.9,0,1.7,0.3,2.4,0.9c0.7,0.6,1,1.3,1,2C23.8,18.1,23.5,18.8,22.8,19.3z" />
</svg>