<!-- (c) Carrd Inc. All rights reserved. All logos and trademarks are property of their respective owners. -->
<svg xmlns="http://www.w3.org/2000/svg" id="icon">
<path d="M2.5,21.2c0-0.8,0-1.6,0-2.3c0-0.2,0.1-0.3,0.1-0.5C3.3,10.8,8.8,4.5,16.2,2.9c1.1-0.2,2.1-0.3,3.2-0.5c0.4,0,0.8,0,1.2,0 c0.8,0.1,1.7,0.2,2.5,0.3c8.1,1.4,14,8.2,14.3,16.6c0.4,8-5,15.3-12.7,17.5c-1.2,0.3-2.5,0.5-3.8,0.7c-0.6,0-1.2,0-1.9,0 c-0.2,0-0.3-0.1-0.5-0.1C11,36.8,4.7,31.4,3,23.9C2.8,23,2.7,22.1,2.5,21.2z M12.9,27.7c4.6-0.1,8.3-1.7,11.2-5 c2.4-2.8,3.5-6,3.5-9.7c0-0.6,0-1.2-0.6-1.7c-2.8-2.1-5.9-2.9-9.4-2.2C9.8,10.7,6.2,20,10.9,26.5C11.5,27.4,12.1,27.9,12.9,27.7z"/>
</svg>