<!-- (c) Carrd Inc. All rights reserved. All logos and trademarks are property of their respective owners. -->
<svg xmlns="http://www.w3.org/2000/svg" id="icon">
<path d="M19.8,36c-3.8,0-7.6,0-11.4,0c-2.2,0-4.2-2-4.2-4.2c0-7.7,0-15.4,0-23.1c0-2.1,1.6-3.8,3.7-4c0.4,0,0.8,0,1.2,0 c6.6,0,13.2,0,19.8,0c0.3,0,0.6-0.1,0.8-0.4c1-1.6,3.5-1.9,5-0.5c1.4,1.2,1.5,3.5,0.2,4.7c-1.2,1.3-2.8,1.5-4.3,0.6 c-0.3-0.2-0.5-0.5-0.8-0.7c-0.2-0.1-0.4-0.2-0.6-0.2c-6.9,0-13.8,0-20.8,0C7.8,8.2,7.6,8.4,7.6,9c0,7.5,0,15,0,22.6c0,0.7,0.3,1,1,1 c7.5,0,15,0,22.5,0c0.7,0,0.9-0.3,0.9-1c0-4.4,0-8.9,0-13.3c0-0.7-0.2-0.9-0.9-0.9c-4.4,0-8.9,0-13.3,0c-0.7,0-1,0.3-1,1 c0,1.2,0,2.5,0,3.7c0,0.7,0.3,1,1,1c1,0,2,0,3,0c0.1,0,0.3,0,0.4,0c0.6,0,1.1,0,1.6-0.6c1-1.1,2.8-1.2,4.1-0.4 c1.3,0.8,1.9,2.4,1.4,3.8c-0.4,1.3-1.4,2.2-2.7,2.4c-1.4,0.2-2.5-0.3-3.3-1.5c-0.1-0.2-0.3-0.3-0.5-0.3c-1.4,0-2.7,0-4.1,0 c-2.1,0-3.8-1.3-4.3-3.4c-0.1-0.2-0.1-0.5-0.1-0.7c0-1.4,0-2.7,0-4.1C13.3,16,15.2,14,17.5,14c4.7-0.1,9.4-0.1,14,0 c2.3,0,4,1.9,4,4.2c0,4.5,0,9.1,0,13.6c0,2.1-1.3,3.7-3.3,4.2C31.9,36,31.6,36,31.3,36C27.5,36,23.7,36,19.8,36z"/>
</svg>