<!-- (c) Carrd Inc. All rights reserved. All logos and trademarks are property of their respective owners. -->
<svg xmlns="http://www.w3.org/2000/svg" id="icon">
<path d="M32.3,28.4c-0.4,0.5-0.8,0.9-1.3,1.2c-0.2,0.1-0.3,0.2-0.5,0.2c-1.2,0.4-2.4,0.5-3.7,0.5h-7.3h-1.3h-7.8 c-0.4,0-0.7-0.3-0.7-0.7v-0.6v-1.5v-1.9v-1.9v-1.4c0-0.3,0-0.6,0.1-0.9c0.1-0.2,0.4-0.4,0.6-0.4h15.5c1,0,1.9,0,2.9,0.1 c1,0.1,1.9,0.5,2.7,1.1c0.3,0.2,0.5,0.5,0.7,0.7c0.7,0.8,1.1,1.8,1.1,2.8C33.4,26.6,33,27.6,32.3,28.4 M9.7,16.7v-2v-2v-1.6v-0.6 c0-0.4,0.3-0.7,0.7-0.7c0,0,16.4,0,16.4,0h0.9c1.2,0,2.4,0.3,3.5,0.9c1,0.7,1.7,1.6,2,2.8c0.1,0.4,0.2,0.7,0.2,1.1 c0,1-0.5,2-1.1,2.8c-0.4,0.5-0.8,0.9-1.3,1.1c-1.2,0.5-2.4,0.7-3.7,0.7c0,0-0.5,0-0.5,0H10.4c-0.4,0-0.7-0.4-0.7-0.8 C9.7,17.8,9.7,17.2,9.7,16.7 M34.9,24.7c-0.1-0.5-0.2-0.9-0.4-1.3c-0.2-0.4-0.4-0.8-0.6-1.2c-0.3-0.4-0.6-0.7-0.9-1 c-0.2-0.2-0.4-0.4-0.6-0.5L32,20.3c-0.1-0.1-0.3-0.2-0.4-0.3c0.4-0.3,0.9-0.6,1.3-0.9c0.3-0.3,0.6-0.6,0.9-1 c0.3-0.4,0.5-0.8,0.7-1.2c0.1-0.3,0.3-0.7,0.3-1.1c0.1-0.7,0.1-1.5,0-2.3c0-0.3-0.1-0.6-0.2-0.9c-0.2-0.6-0.5-1.2-0.9-1.7 c-0.2-0.2-0.3-0.4-0.5-0.6c-0.5-0.5-1-0.9-1.6-1.3c-0.4-0.2-0.8-0.4-1.2-0.6c-1.1-0.3-2.2-0.4-3.4-0.4h-0.9h-14c0,0-5.1,0-6.8,0 C5.1,8.1,5,8.2,5,8.4v1.1c0,0.3,0.3,0.3,0.5,0.3h1c0,0,0.6,0,0.8,0c0.4,0,0.7,0.3,0.7,0.7c0,0.1,0,0.4,0,0.5c0,0.1,0,0.3,0,0.4 c0,1.8,0,7,0,7c0,0.2-0.1,0.4-0.2,0.5c-0.1,0.1-0.2,0.1-0.2,0.2c-0.1,0-0.2,0-0.3,0c-0.6,0-1.2,0-1.8,0c-0.1,0-0.2,0-0.3,0 c-0.1,0-0.2,0.1-0.2,0.2c0,0.1,0,0.2,0,0.3c0,0.1,0,0.3,0,0.4c0,0.2,0,0.3,0,0.5c0,0.1,0,0.1,0,0.2c0.1,0.1,0.2,0.2,0.3,0.2h0.8h1.1 c0.2,0,0.5,0,0.6,0.2c0.2,0.2,0.2,0.5,0.2,0.7c0,0.3,0,0.5,0,0.8c0,0.4,0,0.8,0,1.1V24v1.7v1v1.8v1c0,0.4-0.3,0.7-0.7,0.7H6.1 c-0.1,0-0.4,0-0.6,0c-0.1,0-0.2,0-0.2,0c-0.1,0-0.2,0-0.2,0.1C5,30.4,5,30.4,5,30.5c0,0,0,0.1,0,0.1v1c0,0.1,0,0.1,0.1,0.2 c0.1,0.1,0.2,0.1,0.3,0.1h7.7h9.1c1.9,0,3.7,0,5.6,0c0.5,0,1.1,0,1.7-0.1c0.4-0.1,0.7-0.1,1.1-0.2c0.4-0.1,0.8-0.3,1.2-0.6 c0.6-0.3,1.1-0.8,1.6-1.3c0.9-1,1.5-2.2,1.6-3.5C35,25.7,35,25.2,34.9,24.7"/>
</svg>