<!-- (c) Carrd Inc. All rights reserved. All logos and trademarks are property of their respective owners. -->
<svg xmlns="http://www.w3.org/2000/svg" id="icon">
<path d="M20,3c0.2,0.1,0.4,0.3,0.5,0.3c6.5,0.6,8.6,5.5,9,10.1c0.3,2.8,0.1,5.5-2.9,7.3c4.9,2.1,5.6,6.2,5.5,10.6 c-0.1,3.1-1.8,5.3-4.9,5.7c-3.4,0.5-6.9,0.7-10.3,0.9c-0.5,0-1.3-0.6-1.4-1.1c-1.8-7.4-3.6-14.8-5.3-22.2c-0.5-2.3,0.6-3.8,2.6-4.2 c2-0.4,3.4,0.5,4,2.6c0.2,0.7,0.5,1.4,0.5,2.1c0.1,2.3,1.4,2.7,3.3,2.4c1.9-0.3,2.7-1.4,2.7-3.3c0-3.7-2-5.7-5.7-5.7 c-1.6,0-3.2-0.1-4.8,0c-3,0.2-5-0.9-6.2-3.6C6.5,4.5,6.1,4,5.8,3.4C6.1,3.3,6.5,3,6.9,3C11.3,3,15.6,3,20,3z M19.2,23.3 c0.5,2.7,0.9,5.2,1.4,7.7c0.1,0.4,0.4,1,0.8,1.1c2,0.8,4.6-0.9,4.7-3.1C26.3,24.5,24.1,22.6,19.2,23.3z"/>
</svg>