<!-- (c) Carrd Inc. All rights reserved. All logos and trademarks are property of their respective owners. -->
<svg xmlns="http://www.w3.org/2000/svg" id="icon">
<path d="M32.1,37.6c-1.2,0-2.2-1-2.2-2.2c0-1.2,1-2.2,2.1-2.2c1.2,0,2.2,1,2.2,2.1C34.3,36.6,33.3,37.6,32.1,37.6z M30.4,28.4c-1.3,0-2.1-0.7-2.1-2.1c0-1,0-2,0-2.8c-1.2,1-2.3,2.3-3.7,3.1c-6.1,3.6-15.8,0.8-18.2-7.7C4.3,11.4,8.8,4.1,16.5,2.7 c7.3-1.4,14.1,2.8,15.6,9.9c0.2,0.7,0.2,1.5,0.2,2.2c0,3.8,0,7.7,0,11.5C32.4,27.6,31.7,28.4,30.4,28.4z M19,6.1 c-5.1,0-9.1,4.2-9.1,9.3c0.1,5.4,4.4,9.3,9.8,9.1c4.8-0.2,8.7-4.2,8.7-9.2C28.4,9.9,24.4,6,19,6.1z M7.9,33.3c1.2,0,2.1,1,2.1,2.2 c0,1.2-1,2.1-2.2,2.1c-1.2,0-2.2-1-2.2-2.2C5.8,34.2,6.7,33.3,7.9,33.3z M14,33.3c1.2,0,2.2,1.1,2.1,2.2c0,1.1-1,2.1-2.2,2.1 c-1.2,0-2.2-1-2.2-2.2C11.8,34.2,12.8,33.3,14,33.3z M20,33.3c1.2,0,2.2,1,2.2,2.2c0,1.2-1,2.2-2.2,2.2c-1.2,0-2.2-1-2.2-2.2 C17.8,34.2,18.8,33.3,20,33.3z M26.1,33.3c1.2,0,2.1,1,2.1,2.2c0,1.2-1,2.2-2.2,2.2c-1.2,0-2.2-1-2.2-2.2 C23.9,34.2,24.9,33.3,26.1,33.3z"/>
</svg>