<!-- (c) Carrd Inc. All rights reserved. All logos and trademarks are property of their respective owners. -->
<svg xmlns="http://www.w3.org/2000/svg" id="icon">
<path d="M23.3,22.2L23.3,22.2c-0.2,0-1.2,0.1-3.3,0.1c-1.7,0-2.9,0-3.4-0.1v0C10,21.9,5.1,20.7,5.1,19.3c0-1.4,5-2.6,11.6-2.9V21 c0.4,0,1.7,0.1,3.4,0.1c2.1,0,3.1-0.1,3.3-0.1v-4.6c6.6,0.3,11.6,1.5,11.6,2.9C34.9,20.7,30,21.9,23.3,22.2 M23.3,15.9v-4.1h9.2V5.6 H7.4v6.2h9.2v4.1c-7.5,0.3-13.2,1.9-13.2,3.7c0,1.8,5.7,3.3,13.2,3.7v13.1h6.7V23.3c7.5-0.3,13.1-1.9,13.1-3.7 C36.5,17.8,30.9,16.3,23.3,15.9"/>
</svg>