<!-- (c) Carrd Inc. All rights reserved. All logos and trademarks are property of their respective owners. -->
<svg xmlns="http://www.w3.org/2000/svg" id="icon">
<path d="M19.6,17.9c0,1-0.4,1.8-1.1,2.5c-0.8,0.7-1.7,1.1-2.7,1.1c-1.1,0-2-0.4-2.7-1.1c-0.8-0.7-1.1-1.6-1.1-2.5 c0-1,0.4-1.9,1.1-2.6c0.8-0.7,1.7-1.1,2.7-1.1s2,0.4,2.7,1.1C19.2,16.1,19.6,16.9,19.6,17.9z M28.6,17.9c0,1-0.4,1.8-1.1,2.5 c-0.8,0.7-1.7,1.1-2.7,1.1c-1.1,0-2-0.4-2.7-1.1c-0.8-0.7-1.1-1.6-1.1-2.5c0-1,0.4-1.9,1.1-2.6c0.8-0.7,1.7-1.1,2.7-1.1 c1.1,0,2,0.4,2.7,1.1C28.2,16.1,28.6,16.9,28.6,17.9z M32.6,21.1V9.2c0-1-0.2-1.8-0.6-2.2c-0.4-0.4-1-0.7-2-0.7H10.2 c-1,0-1.7,0.2-2,0.6C7.8,7.4,7.6,8.1,7.6,9.2v12c0.5,0.3,1,0.5,1.6,0.7c0.5,0.2,1,0.4,1.4,0.5s0.9,0.2,1.4,0.3 c0.5,0.1,1,0.2,1.3,0.2c0.3,0,0.7,0.1,1.3,0.1c0.5,0,0.9,0,1,0s0.5,0,1,0s0.8,0,0.8,0c0.8,0,1.4,0.1,1.7,0.5 c0.1,0.1,0.1,0.1,0.2,0.2c0.3,0.3,0.7,0.6,1.1,0.9c0.1-1.1,0.8-1.6,2.1-1.6c0.1,0,0.3,0,0.7,0c0.4,0,0.6,0,0.8,0c0.1,0,0.4,0,0.8,0 c0.4,0,0.7,0,0.9,0c0.2,0,0.5,0,1-0.1c0.4,0,0.8-0.1,1.1-0.2c0.3-0.1,0.7-0.1,1.1-0.2c0.4-0.1,0.8-0.2,1.2-0.3 c0.4-0.1,0.8-0.3,1.2-0.5S32.2,21.3,32.6,21.1L32.6,21.1z M35.5,21c-1.4,1.8-3.7,3.3-6.6,4.5c1,3.4,0.9,6.2-0.4,8.3 c-0.8,1.3-1.9,2.2-3.3,2.6c-1.2,0.4-2.3,0.3-3.3-0.3c-1-0.6-1.5-1.6-1.5-2.9l0-5.8v0c-0.1,0-0.2-0.1-0.4-0.1s-0.3-0.1-0.4-0.1l0,6 c0,1.4-0.4,2.3-1.5,2.9c-0.9,0.6-2,0.6-3.3,0.3c-1.4-0.4-2.5-1.3-3.3-2.7c-1.3-2.1-1.4-4.9-0.4-8.3c-3-1.2-5.2-2.7-6.6-4.5 c-0.3-0.4-0.3-0.8-0.1-1.1s0.6-0.3,1.1,0c0,0,0.1,0.1,0.2,0.1c0.1,0.1,0.2,0.1,0.2,0.1V7.8c0-0.9,0.3-1.6,0.8-2.2s1.2-0.9,2-0.9 h22.4c0.8,0,1.5,0.3,2,0.9s0.8,1.3,0.8,2.2v12.4l0.4-0.3c0.5-0.3,0.8-0.3,1.1,0C35.8,20.2,35.8,20.6,35.5,21L35.5,21z"/>
</svg>