<!-- (c) Carrd Inc. All rights reserved. All logos and trademarks are property of their respective owners. -->
<svg xmlns="http://www.w3.org/2000/svg" id="icon">
<path d="M38.5,15c0,0.4,0,0.8,0,1.2c0,0,0,0.1,0,0.1c-0.1,1.2-0.3,2.3-0.6,3.4c0,0.1,0,0.2,0,0.4c0.3,0.9,0.5,1.9,0.6,2.9 c0,0.2,0,0.5,0.1,0.7c0,0.4,0,0.8,0,1.2c0,0,0,0.1,0,0.1c-0.1,0.6-0.1,1.1-0.2,1.7c-0.6,2.5-1.9,4.6-3.9,6.1 c-1.6,1.2-3.3,1.9-5.3,2.4c-0.1,0-0.2,0.1-0.3,0.1c-0.9,1-1.9,1.8-3,2.5c-1.3,0.8-2.8,1.4-4.4,1.6c-0.3,0-0.6,0.1-0.8,0.1 c-0.4,0-0.8,0-1.2,0c0,0-0.1,0-0.1,0c-1.4-0.1-2.6-0.5-3.8-1c-1.6-0.8-3-1.9-4.2-3.2c-0.1-0.1-0.2-0.1-0.2-0.1 c-0.3-0.1-0.7-0.2-1-0.3c-1.9-0.5-3.6-1.4-5-2.7c-2-1.9-3.1-4.2-3.4-6.9c0-0.1,0-0.3,0-0.4c0-0.4,0-0.8,0-1.2c0,0,0-0.1,0-0.1 c0.1-1.2,0.3-2.3,0.6-3.4c0-0.1,0-0.2,0-0.4c-0.3-0.9-0.5-1.9-0.6-2.9c0-0.2,0-0.5-0.1-0.7c0-0.4,0-0.8,0-1.2c0,0,0-0.1,0-0.1 c0.1-0.6,0.1-1.1,0.2-1.7c0.6-2.5,1.9-4.6,3.9-6.1C7.2,5.9,9,5.2,10.9,4.7c0.1,0,0.2-0.1,0.3-0.1c0.9-1,1.9-1.8,3-2.5 c1.3-0.8,2.8-1.4,4.4-1.6c0.3,0,0.6-0.1,0.8-0.1c0.4,0,0.8,0,1.2,0c0,0,0.1,0,0.1,0c1.4,0.1,2.6,0.5,3.8,1c1.6,0.8,3,1.9,4.2,3.2 C28.9,4.6,29,4.7,29,4.7c0.3,0.1,0.7,0.2,1,0.3c1.9,0.5,3.6,1.4,5,2.7c2,1.9,3.1,4.2,3.4,6.9C38.5,14.8,38.5,14.9,38.5,15z M31.8,20 c0-0.7-0.1-1.4-0.1-2.1c-0.1-1.4-0.4-2.8-0.7-4.1c0-0.1-0.1-0.1-0.1-0.2c-0.5-0.4-0.9-0.9-1.4-1.3c-2.7-2.2-5.8-3.9-9.2-4.8 c-0.1,0-0.2,0-0.3,0c-4,1.1-7.6,3.1-10.6,6c-0.1,0.1-0.2,0.2-0.2,0.4c-0.4,1.4-0.6,2.8-0.7,4.2c-0.1,1.3-0.1,2.7,0,4 c0.1,1.4,0.4,2.7,0.7,4.1c0,0.1,0.1,0.2,0.1,0.2c0.3,0.3,0.6,0.6,0.9,0.8c2.9,2.5,6.1,4.3,9.8,5.2c0.1,0,0.2,0,0.3,0 c4-1.1,7.6-3.1,10.6-6c0.1-0.1,0.2-0.2,0.2-0.4C31.5,24.1,31.8,22.1,31.8,20z M15.2,4.3c0.1,0,0.1,0,0.2,0c1.5,0,2.9,0.2,4.3,0.6 c0.2,0,0.4,0.1,0.6,0c1.5-0.3,2.9-0.5,4.4-0.6c0.1,0,0.1,0,0.2,0C21.8,2.2,18,2.3,15.2,4.3z M15.2,35.7c1.6,1.1,3.5,1.7,5.4,1.5 c1.5-0.1,2.9-0.6,4.2-1.5c-0.1,0-0.1,0-0.2,0c-1.6,0-3.1-0.3-4.6-0.6c-0.1,0-0.2,0-0.2,0c-1.2,0.3-2.4,0.5-3.6,0.6 C15.9,35.6,15.5,35.7,15.2,35.7z M4,16.3C4,16.2,4,16.2,4,16.3c0.9-1.4,1.8-2.6,2.9-3.7c0.1-0.1,0.1-0.2,0.2-0.3 c0.4-1.4,1-2.8,1.7-4.1c0-0.1,0.1-0.1,0.1-0.2C7.1,8.8,5.9,9.9,5,11.4C4.1,12.9,3.8,14.5,4,16.3z M31.3,8c0,0,0,0.1,0.1,0.1 c0.7,1.3,1.3,2.7,1.7,4.1c0,0.1,0.1,0.2,0.2,0.3c1,1.1,2,2.3,2.8,3.6c0,0,0.1,0.1,0.1,0.2c0.1-1.6-0.2-3.1-0.9-4.5 C34.3,10.1,33,8.9,31.3,8z M8.7,32c0,0,0-0.1-0.1-0.1C8,30.5,7.4,29.1,7,27.7c0-0.1-0.1-0.2-0.2-0.3c-1-1.1-2-2.3-2.8-3.6 c0,0-0.1-0.1-0.1-0.2c-0.1,1.6,0.2,3.1,0.9,4.5C5.7,29.9,7,31.1,8.7,32z M31.3,32c1.8-0.8,3.1-2.1,4-3.8c0.7-1.4,0.9-2.9,0.8-4.4 C36,23.8,36,23.8,36,23.8c-0.8,1.3-1.7,2.5-2.8,3.6c-0.1,0.1-0.1,0.2-0.2,0.3c-0.4,1.4-1,2.8-1.7,4.1C31.3,31.9,31.3,31.9,31.3,32z M6,17.7C5.9,17.7,5.9,17.7,6,17.7C5.9,17.7,5.9,17.7,6,17.7c-0.4,0.8-0.8,1.5-1.1,2.2c0,0.1,0,0.2,0,0.3c0.3,0.7,0.7,1.3,1,2 c0,0,0.1,0.1,0.1,0.1C5.8,20.8,5.8,19.2,6,17.7z M34.1,22.3C34.1,22.3,34.1,22.3,34.1,22.3c0.4-0.8,0.7-1.5,1.1-2.2 c0-0.1,0-0.2,0-0.3c-0.3-0.7-0.7-1.4-1-2.1c0,0-0.1-0.1-0.1-0.1C34.2,19.2,34.2,20.8,34.1,22.3z M11,8.9C11,8.9,11.1,8.9,11,8.9 c0.7-0.4,1.3-0.8,1.9-1.1c0.6-0.4,1.3-0.7,2-1c-0.1,0-0.1,0-0.2,0c-0.7,0-1.4,0.1-2.1,0.2c-0.1,0-0.2,0.1-0.3,0.2 c-0.4,0.6-0.8,1.1-1.2,1.7C11.1,8.8,11.1,8.8,11,8.9z M25.1,6.7c1.3,0.7,2.6,1.4,3.8,2.2c0-0.1,0-0.1,0-0.1 c-0.4-0.6-0.8-1.2-1.2-1.8c0-0.1-0.1-0.1-0.2-0.1c-0.5-0.1-1-0.1-1.5-0.1C25.7,6.7,25.4,6.7,25.1,6.7z M11.1,31.1 C11.1,31.1,11.1,31.1,11.1,31.1c0,0.1,0,0.1,0,0.1c0.4,0.6,0.8,1.2,1.3,1.8c0,0.1,0.1,0.1,0.2,0.1c0.5,0.1,1,0.1,1.5,0.1 c0.3,0,0.5,0,0.8,0C13.5,32.6,12.3,31.9,11.1,31.1z M29,31.1C29,31.1,28.9,31.1,29,31.1c-1.2,0.8-2.5,1.5-3.8,2.1c0.1,0,0.1,0,0.2,0 c0.7,0,1.4-0.1,2.1-0.1c0.2,0,0.3-0.1,0.3-0.2c0.4-0.6,0.7-1.1,1.1-1.7C28.9,31.2,28.9,31.2,29,31.1z"/>
</svg>