<!-- (c) Carrd Inc. All rights reserved. All logos and trademarks are property of their respective owners. -->
<svg xmlns="http://www.w3.org/2000/svg" id="icon">
<path d="M20.7,14.2l-0.3,1.5c-0.1,0.2-0.3,0.4-0.5,0.4h-9.5c-0.6,0-1,0.2-1.1,0.6L9,17.2c-0.1,0.3,0.2,0.5,0.8,0.5h6.2 c2,0,3.1,0.8,3.1,2.3c0,0.4-0.1,0.8-0.2,1.3l-0.7,2.7c-0.3,1.1-0.9,2-1.8,2.7c-0.9,0.7-2,1-3.2,1H0.5C0.2,27.6,0,27.3,0,27 c0,0,0-0.1,0-0.1l0.3-1.5C0.4,25.2,0.6,25,0.9,25h9.6c0.6,0,0.9-0.2,1-0.7l0.1-0.4c0.1-0.5-0.1-0.7-0.7-0.7H4.5 c-1.9,0-2.9-0.8-2.9-2.3c0-0.4,0.1-0.8,0.2-1.2L2.5,17c0.2-1,0.9-1.9,1.9-2.5c1-0.6,2.1-1,3.3-1h12.5C20.5,13.5,20.7,13.8,20.7,14.2 C20.7,14.1,20.7,14.1,20.7,14.2L20.7,14.2z M37.8,14.3l-3.4,2.3c-0.2,0.1-0.3,0.3-0.2,0.5l3.3,9.9c0.1,0.3-0.1,0.5-0.3,0.6 c0,0-0.1,0-0.1,0h-7.2c-0.2,0-0.4-0.2-0.4-0.3L28,21.7c-0.1-0.3-0.4-0.4-0.6-0.3c0,0-0.1,0-0.1,0l-0.7,0.5c-0.1,0.1-0.1,0.2-0.2,0.3 l-1.3,5.1c-0.1,0.2-0.2,0.3-0.4,0.3h-6.1c-0.3,0-0.5-0.3-0.4-0.5c0,0,0,0,0-0.1l4.5-18.3c0.1-0.2,0.3-0.4,0.5-0.3h6.1 c0.3,0,0.5,0.3,0.4,0.5c0,0,0,0,0,0.1l-2.1,8.3c0,0.3,0.1,0.5,0.4,0.6c0.1,0,0.2,0,0.4-0.1l6.2-4.2c0.1-0.1,0.2-0.1,0.3-0.1h2.8 C38,13.5,38.2,14.1,37.8,14.3L37.8,14.3z"/>
</svg>