<!-- (c) Carrd Inc. All rights reserved. All logos and trademarks are property of their respective owners. -->
<svg xmlns="http://www.w3.org/2000/svg" id="icon">
<path d="M31.9,26.2c-0.1,0-0.1,0-0.1,0.1c0.1,0.6,0.2,1.1,0.4,1.7c0.4,1.7,0.8,3.4,1.4,5c0.3,0.8,0.6,1.6,1,2.4 c0.1,0.2,0.2,0.4,0.4,0.6c0,0,0,0-0.1,0c-0.5,0-1,0-1.5,0c-2.1,0-4.3,0-6.4,0c0.1-0.1,0.1-0.1,0.2-0.2c0.4-0.5,0.8-1,1.1-1.5 c0.2-0.3,0.3-0.7,0.2-1.1c-0.1-0.7-0.2-1.5-0.4-2.2c-0.1-0.7-0.2-1.4-0.3-2.1c-0.1-0.3-0.1-0.7-0.2-1c0,0-0.1,0-0.1,0 c-0.4,0.2-0.7,0.3-1.1,0.5c-0.9,0.5-1.7,1-2.5,1.6c-0.5,0.4-1,0.9-1.3,1.6c-0.2,0.4-0.4,0.8-0.3,1.3c0,0.1,0,0.2,0,0.3 c0,0.2,0,0.4,0.2,0.6c0.6,0.9,1.2,1.7,2.1,2.3c-2.7,0-5.5,0-8.2,0c0,0,0,0,0,0c0.3-0.3,0.5-0.6,0.6-1.1c0.1-0.3,0-0.6,0-0.9 c-0.2-0.9-0.3-1.8-0.5-2.7c-0.2-1.1-0.4-2.2-0.6-3.3c0-0.2-0.1-0.3-0.1-0.5c-0.1,0.2-0.1,0.4-0.1,0.6c-0.2,1.1-0.5,2.2-0.7,3.3 c-0.2,0.8-0.3,1.6-0.4,2.4c-0.1,0.4-0.1,0.8-0.1,1.2c0,0.4,0.2,0.8,0.6,1.1c-2.5,0-5.1,0-7.6,0c0,0,0,0,0.1-0.1 c0.4-0.3,0.8-0.7,1.1-1.1c0.2-0.4,0.3-0.7,0.3-1.2c-0.2-0.9-0.3-1.8-0.6-2.6c-0.3-1.5-0.7-2.9-1.1-4.4c-0.4-1.6-0.8-3.2-1.2-4.8 c-0.5-2.2-1.1-4.3-1.6-6.5c-0.2-0.8-0.6-1.6-1.2-2.2C3.2,13.1,3.1,13.1,3,13c0,0,0,0,0,0c0,0,0.1,0,0.1,0c1.7,0,3.4,0,5.2,0 c0.5,0,1,0,1.5,0c0.1,0,0.2,0,0.4,0C10.1,13,10,13,10,13.1c-0.5,0.4-0.7,0.9-0.6,1.5c0.2,1,0.3,1.9,0.5,2.9c0.4,2,0.8,3.9,1.2,5.9 c0.2,1.2,0.5,2.3,0.8,3.5c0,0.2,0.1,0.3,0.1,0.5c0,0,0,0,0,0c1.2-4.7,2.3-9.3,3.5-14c0,0,0,0,0,0c1.2,4.5,2.4,8.9,3.6,13.4 c0,0,0,0,0-0.1c0.2-1,0.4-2,0.6-3c0.2-1,0.4-2.1,0.6-3.1c0.2-1.2,0.5-2.4,0.7-3.6c0.2-1,0.4-2.1,0.6-3.1c0-0.2,0.1-0.3,0.1-0.5 c0-0.4-0.1-0.8-0.4-1.2c-0.2-0.2-0.4-0.4-0.7-0.4c-0.2,0-0.5,0-0.7-0.1c-0.8-0.1-1.6-0.2-2.4-0.3c-0.8-0.1-1.7-0.3-2.5-0.5 c-0.6-0.2-1.3-0.4-1.8-0.8c-0.3-0.2-0.6-0.5-0.9-0.9c0,0-0.1-0.1-0.1-0.2c2.6,0,5.2,0,7.8,0c0-0.4,0-0.7,0-1.1c4.7,0,9.3,0,13.9,0 c0,0.4,0,0.7,0,1.1c0,0,0,0,0,0c-0.7,0-1.4,0.1-2.1,0.3c-0.7,0.2-1.4,0.4-2,0.8c-0.8,0.5-1.3,1.2-1.5,2.1c0,0.2-0.1,0.4-0.1,0.6 c0.2,0.8,0.3,1.6,0.5,2.3c0.7,2.6,1.3,5.2,2,7.7c0,0.1,0.1,0.2,0.1,0.3c1.1-0.3,2.2-0.7,3.3-1c0.2,0.9,0.4,1.9,0.7,2.8 c0,0-0.1,0-0.1,0C33.8,25.4,32.9,25.8,31.9,26.2z M25,19C25,19,25,19,25,19c-0.5,2.5-1,4.9-1.5,7.4c1-0.9,2.2-1.4,3.4-2 C26.3,22.6,25.6,20.8,25,19z M30.5,6.5C26.2,5.7,22,4.9,17.8,4c-0.1,0.6-0.2,1.1-0.3,1.7c-0.6-0.1-1.3-0.2-1.9-0.3 c0-0.2,0.1-0.4,0.1-0.6C15.9,3.8,16,3,16.2,2.1c0,0,0-0.1,0.1-0.1c0.5-0.7,0.9-1.3,1.4-2c0,0,0,0,0.1,0c0.2,0,0.4,0.1,0.6,0.1 c0.1,0,0.2,0,0.4,0.1c-0.2,0.8-0.3,1.7-0.5,2.5c4.2,0.6,8.4,1.3,12.7,1.9C30.7,5.3,30.6,5.8,30.5,6.5z"/>
</svg>