<!-- (c) Carrd Inc. All rights reserved. All logos and trademarks are property of their respective owners. -->
<svg xmlns="http://www.w3.org/2000/svg" id="icon">
<path d="M31.1,8.6V6.4l1.6-1.3H15.2L4.6,14.4h7c0,0.2,0,0.3,0,0.5c0,1.7,0.6,3.1,1.8,4.3c1.2,1.1,2.6,1.7,4.4,1.7 c0.4,0,0.8,0,1.2-0.1c-0.2,0.5-0.4,1-0.4,1.5c0,0.8,0.4,1.7,1.1,2.6c-3.2,0.2-5.6,0.8-7.1,1.7c-0.9,0.5-1.6,1.2-2.1,2 c-0.5,0.8-0.8,1.7-0.8,2.6c0,0.8,0.2,1.5,0.5,2.1c0.3,0.6,0.8,1.2,1.3,1.6c0.6,0.4,1.2,0.7,1.9,1c0.7,0.3,1.4,0.5,2.1,0.6 c0.7,0.1,1.4,0.2,2.1,0.2c1.1,0,2.2-0.1,3.3-0.4c1.1-0.3,2.2-0.7,3.1-1.3c1-0.6,1.8-1.3,2.4-2.3c0.6-1,0.9-2,0.9-3.2 c0-0.9-0.2-1.7-0.6-2.5c-0.4-0.7-0.8-1.4-1.4-1.8c-0.5-0.5-1.1-0.9-1.6-1.3c-0.5-0.4-1-0.8-1.4-1.2c-0.4-0.4-0.6-0.8-0.6-1.2 c0-0.4,0.1-0.8,0.4-1.2c0.3-0.4,0.6-0.7,1-1.1s0.8-0.7,1.2-1.2c0.4-0.4,0.8-1,1-1.6c0.3-0.7,0.4-1.4,0.4-2.3c0-1.1-0.2-2-0.6-2.7 c0-0.1-0.1-0.1-0.2-0.2l4.7-3.8v1.4c-0.6,0.1-0.5,0.4-0.5,0.9v10.6c0,0.5,0.4,0.9,0.9,0.9h0.3c0.5,0,0.9-0.4,0.9-0.9V9.5 C31.7,9.1,31.8,8.7,31.1,8.6L31.1,8.6z M22.3,26.9c0.1,0.1,0.3,0.2,0.6,0.5c0.3,0.3,0.6,0.5,0.7,0.6c0.1,0.1,0.3,0.3,0.5,0.6 c0.2,0.3,0.4,0.5,0.5,0.7c0.1,0.2,0.2,0.4,0.3,0.7C25,30.4,25,30.7,25,31c0,1.4-0.5,2.4-1.6,3.1c-1.1,0.7-2.4,1-3.9,1 c-0.8,0-1.5-0.1-2.2-0.3c-0.7-0.2-1.4-0.4-2.1-0.8s-1.2-0.8-1.6-1.5c-0.4-0.6-0.6-1.3-0.6-2.2c0-0.8,0.2-1.6,0.7-2.2 c0.5-0.6,1.1-1.1,1.8-1.4c0.7-0.3,1.5-0.6,2.3-0.7c0.8-0.1,1.5-0.2,2.3-0.2c0.4,0,0.7,0,0.9,0.1c0,0,0.2,0.2,0.6,0.5 C22,26.7,22.2,26.8,22.3,26.9L22.3,26.9z M22.1,18.7c-0.6,0.7-1.5,1.1-2.5,1.1c-1,0-1.8-0.4-2.6-1.2c-0.7-0.8-1.3-1.7-1.6-2.7 c-0.3-1-0.5-2-0.5-2.9c0-1.1,0.3-2.1,0.9-2.9c0.6-0.8,1.4-1.2,2.5-1.2c1,0,1.8,0.4,2.6,1.2c0.7,0.8,1.3,1.8,1.6,2.8 c0.3,1,0.5,2,0.5,3C23,17,22.7,17.9,22.1,18.7L22.1,18.7z"/>
</svg>