<!-- (c) Carrd Inc. All rights reserved. All logos and trademarks are property of their respective owners. -->
<svg xmlns="http://www.w3.org/2000/svg" id="icon">
<path d="M4.1,37.5v-1.6h31.8v1.6H4.1z M5.2,7h29.2v3.1H5.2V7z M9.1,30.9c0,0.2,0,0.5-0.1,0.7c-0.5,0.1-1,0.2-1.4,0.2 c-0.5,0-0.9-0.1-1.4-0.2c0-0.2,0-0.5-0.1-0.7C6,29.6,5.9,28.3,5.9,27c0-1.2-0.1-2.4-0.1-3.6c0-1.1,0-2.2,0-3.3 c0-1.5,0.1-3.1,0.1-4.6C6,14,6.1,12.5,6.1,11.1c0-0.1,0.1-0.2,0.2-0.2c0.4-0.1,0.9-0.1,1.3-0.1c0.4,0,0.9,0,1.3,0.1 C9,10.9,9,11,9,11.1c0.1,1.5,0.2,2.9,0.2,4.4c0.1,1.5,0.1,3.1,0.1,4.6c0,1.1,0,2.2,0,3.3c0,1.2,0,2.4-0.1,3.6 C9.2,28.3,9.1,29.6,9.1,30.9z M17,30.9c0,0.2,0,0.5-0.1,0.7c-0.5,0.1-1,0.2-1.4,0.2c-0.5,0-0.9-0.1-1.4-0.2c0-0.2,0-0.5-0.1-0.7 c-0.1-1.3-0.2-2.6-0.2-3.9c0-1.2-0.1-2.4-0.1-3.6c0-1.1,0-2.2,0-3.3c0-1.5,0.1-3.1,0.1-4.6c0.1-1.5,0.2-2.9,0.2-4.4 c0-0.1,0.1-0.2,0.2-0.2c0.4-0.1,0.9-0.1,1.3-0.1c0.4,0,0.9,0,1.3,0.1c0.1,0,0.2,0,0.2,0.2c0.1,1.5,0.2,2.9,0.2,4.4 c0.1,1.5,0.1,3.1,0.1,4.6c0,1.1,0,2.2,0,3.3c0,1.2,0,2.4-0.1,3.6C17.2,28.3,17.1,29.6,17,30.9z M26.2,30.9c0,0.2,0,0.5-0.1,0.7 c-0.5,0.1-1,0.2-1.4,0.2c-0.5,0-0.9-0.1-1.4-0.2c0-0.2,0-0.5-0.1-0.7c-0.1-1.3-0.2-2.6-0.2-3.9c0-1.2-0.1-2.4-0.1-3.6 c0-1.1,0-2.2,0-3.3c0-1.5,0.1-3.1,0.1-4.6c0.1-1.5,0.2-2.9,0.2-4.4c0-0.1,0.1-0.2,0.2-0.2c0.4-0.1,0.9-0.1,1.3-0.1 c0.4,0,0.9,0,1.3,0.1c0.1,0,0.2,0,0.2,0.2c0.1,1.5,0.2,2.9,0.2,4.4c0.1,1.5,0.1,3.1,0.1,4.6c0,1.1,0,2.2,0,3.3c0,1.2,0,2.4-0.1,3.6 C26.4,28.3,26.3,29.6,26.2,30.9z M34,30.9c0,0.2,0,0.5-0.1,0.7c-0.5,0.1-1,0.2-1.4,0.2c-0.5,0-0.9-0.1-1.4-0.2c0-0.2,0-0.5-0.1-0.7 c-0.1-1.3-0.2-2.6-0.2-3.9c0-1.2-0.1-2.4-0.1-3.6c0-1.1,0-2.2,0-3.3c0-1.5,0.1-3.1,0.1-4.6c0.1-1.5,0.2-2.9,0.2-4.4 c0-0.1,0.1-0.2,0.2-0.2c0.4-0.1,0.9-0.1,1.3-0.1c0.4,0,0.9,0,1.3,0.1c0.1,0,0.2,0,0.2,0.2c0.1,1.5,0.2,2.9,0.2,4.4 c0.1,1.5,0.1,3.1,0.1,4.6c0,1.1,0,2.2,0,3.3c0,1.2,0,2.4-0.1,3.6C34.1,28.3,34.1,29.6,34,30.9z M34.7,35H5.4v-2.3h29.3V35z M19.8,6.1H5.4l-0.9-1l15.3-3.6L35,5.1l-0.9,1H19.8z"/>
</svg>