<!-- (c) Carrd Inc. All rights reserved. All logos and trademarks are property of their respective owners. -->
<svg xmlns="http://www.w3.org/2000/svg" id="icon">
<path d="M33.5,34.8l-9.1,0l-3.6-4.2h-2.2L18,29.9l-1.3,4.9H8.5l-7.5-7l7-22.1l8.2,0l4,5.5l0.4-1.7l2.3,0l1-3.8l8.5,0 l5.8,7.2L33.5,34.8z M10.8,21.9H6.4L6,23.3h4.5L10.8,21.9z M2.3,26.9l7,0l0.7-2.5h-7L2.3,26.9z M3.5,23.3h1.3l1.3-3.9H4.7L3.5,23.3z M8.8,6.6L8.3,8.1h6.6l0.5-1.6L8.8,6.6z M20.4,14.3h-5.1l1.1-4l-2.3-0.1l0.3-1H7.9l-2.8,8.9h1.3h1.2l-0.8,2.5h4.4l0.7-2.4l2.6,0 l-1.2,4.2l4.7,0l1.1-4.2l2.6,0l-2.2,8.7l7.2,0L30,13h-2.8H26h-5.2L20.4,14.3z M23.8,10.4l-2.3,0l-0.4,1.4h5.2L27,9.3h-2.9L23.8,10.4 z M24.8,6.5l-0.4,1.6h3h1.2l-0.3,1.2l-0.7,2.6h2.7l1.2-5.3L24.8,6.5z" />
</svg>