<!-- (c) Carrd Inc. All rights reserved. All logos and trademarks are property of their respective owners. -->
<svg xmlns="http://www.w3.org/2000/svg" id="icon">
<path d="M39.7,8.3c-1.1-0.1-2.3-0.2-3.4-0.2C35,8,33.8,7.9,32.6,7.9c-1.2,0-2.3,0-3.5,0.1c-0.9,0-1.7,0.1-2.6,0.2 c-0.7,0.1-1.4,0.2-2.2,0.2c-0.4,0.1-0.9,0.1-1.3,0.2c-0.5,0.1-1,0.2-1.4,0.3c-0.4,0.1-0.8,0.2-1.3,0.3c-0.6,0.2-1.3,0.4-1.9,0.6 C17,10.4,15.7,11,14.5,12c-1.4,1.1-2.6,2.5-3.4,4.1C10.6,17,10.2,18,9.9,19c-0.4,1.6-0.6,3.2-0.5,4.9c0,0.7,0.1,1.4,0.3,2 c0.4,1.8,1.2,3.4,2.4,4.7c0.6,0.7,1.3,1.2,2.1,1.7c0.5,0.3,1.1,0.6,1.7,0.8c0.7,0.2,1.4,0.3,2.2,0.3c0.6,0,1.2-0.1,1.7-0.1 c0.1,0,0.1,0,0.2,0c0.1,0,0.1,0,0.2,0.1c0,0.1,0,0.2-0.1,0.2c-0.2,0.1-0.4,0.1-0.6,0.2c-0.5,0.2-1.1,0.3-1.6,0.5 c-0.6,0.1-1.2,0.3-1.8,0.4c-0.7,0.1-1.4,0.2-2.1,0.2c-0.2,0-0.3,0-0.5,0c-0.4,0-0.9,0-1.3,0c-0.1,0-0.2,0-0.3,0 c-0.9,0-1.9-0.2-2.8-0.4c-0.7-0.2-1.4-0.4-2.1-0.7c-1.1-0.4-2-1-2.9-1.8c-1.5-1.4-2.5-3.1-3.1-5.1c-0.2-0.6-0.3-1.1-0.4-1.7 c-0.1-0.5-0.2-1.1-0.3-1.6c-0.1-0.6-0.1-1.1-0.1-1.7c0-0.1,0-0.1,0-0.2c0-0.3,0-0.7,0-1c0.5,0.1,1,0.3,1.6,0.4 c0.2,0.1,0.4,0.1,0.6,0.2c0,0,0-0.1,0-0.1c0-0.6,0-1.2,0.1-1.9c0-0.6,0.1-1.1,0.2-1.7c0-0.1,0-0.1-0.1-0.1c-0.4-0.1-0.7-0.2-1.1-0.3 c-0.4-0.1-0.9-0.2-1.3-0.3c0-0.1,0-0.2,0-0.3c0-0.1,0-0.1,0-0.2c0-0.6,0.1-1.2,0.3-1.7c0.2-0.7,0.4-1.4,0.8-2.1 c0.7-1.4,1.8-2.6,3-3.5c1.2-0.9,2.5-1.6,3.8-2.2c0.9-0.4,1.8-0.7,2.8-0.9c0.7-0.2,1.3-0.3,2-0.5c0.6-0.1,1.2-0.2,1.8-0.3 c0.7-0.1,1.3-0.2,2-0.3C17.6,5,18.7,5,19.8,5c0.2,0,0.3,0,0.5,0c0.8,0,1.7,0,2.5,0c0,0,0.1,0,0.1,0C24,5,25.1,5,26.1,5.1 c0.7,0,1.5,0.1,2.2,0.2c0.5,0,0.9,0.1,1.4,0.2c0.5,0.1,1.1,0.2,1.6,0.3c0.5,0.1,0.9,0.2,1.4,0.3c0.5,0.1,1.1,0.2,1.6,0.3 c0.6,0.1,1.2,0.3,1.8,0.4c0.5,0.1,1.1,0.3,1.6,0.4c0.5,0.2,1,0.3,1.6,0.5C39.5,7.8,39.7,7.9,40,8c0,0.1,0,0.1,0,0.2 C39.9,8.3,39.8,8.3,39.7,8.3z M1.6,22.3c-0.1,0-0.3-0.1-0.4-0.1c0,0.1,0,0.1,0,0.2c0.1,0.6,0.1,1.3,0.2,1.9c0.1,0.6,0.2,1.2,0.3,1.8 c0.2,0.8,0.4,1.5,0.7,2.2c0.6,1.4,1.5,2.7,2.7,3.6C6,32.5,6.9,33,7.9,33.4c0.6,0.2,1.2,0.4,1.8,0.5c0.5,0.1,1,0.2,1.6,0.2 c0.9,0.1,1.7,0.1,2.6,0.1c0,0,0,0,0.1,0c0,0-0.1,0-0.1,0c-0.2-0.1-0.4-0.1-0.6-0.2c-0.8-0.3-1.5-0.7-2.2-1.2 c-0.3-0.2-0.6-0.5-0.9-0.8c-0.4-0.4-0.8-1-1.1-1.5c-0.6-1-1.1-2.1-1.4-3.2c-0.1-0.4-0.2-0.9-0.3-1.3c-0.1-0.5-0.1-0.9-0.2-1.4 c0-0.3,0-0.6,0-1c0-0.1,0-0.1-0.1-0.1c-0.1,0-0.2,0-0.3,0c-0.3-0.1-0.7-0.1-1-0.2c-0.3-0.1-0.7-0.1-1-0.2c-0.3-0.1-0.6-0.1-0.9-0.2 c-0.3-0.1-0.7-0.2-1-0.3C2.4,22.5,2,22.4,1.6,22.3z M32.1,6.6c-0.4-0.1-0.8-0.2-1.2-0.2c-0.4-0.1-0.8-0.1-1.2-0.2 c-0.3,0-0.7-0.1-1-0.1C28,6,27.3,6,26.7,5.9c-0.4,0-0.8-0.1-1.2-0.1c-0.6,0-1.2-0.1-1.8-0.1c-1.4-0.1-2.8,0-4.3,0 c-0.5,0-1.1,0.1-1.6,0.1c-0.4,0-0.8,0.1-1.2,0.1c-0.3,0-0.5,0.1-0.8,0.1c-0.3,0-0.7,0.1-1,0.1c-0.3,0-0.5,0.1-0.8,0.1 c-0.5,0.1-1.1,0.2-1.6,0.3C12,6.7,11.5,6.9,11.1,7c-0.7,0.2-1.4,0.4-2.1,0.7c-0.7,0.3-1.4,0.6-2,0.9C6.3,9,5.6,9.4,5,9.9 c-0.6,0.4-1.1,0.9-1.5,1.5C3,12,2.6,12.6,2.3,13.2C2,13.8,1.7,14.4,1.6,15c-0.1,0.5-0.2,0.9-0.3,1.4c0,0.2,0,0.2,0.2,0.3 c0.3,0.1,0.6,0.1,0.9,0.2c0.2,0,0.5,0.1,0.7,0.1c0.2,0,0.5,0.1,0.7,0.1c0.3,0.1,0.7,0.1,1,0.2c0.2,0,0.5,0.1,0.7,0.1 c0.3,0.1,0.7,0.1,1,0.2c0.4,0.1,0.9,0.1,1.3,0.2c0.2,0,0.2,0,0.2-0.1c0.1-0.3,0.2-0.7,0.2-1c0.2-0.8,0.5-1.6,0.9-2.3 c0.5-1.1,1.2-2,2.1-2.8c0.6-0.6,1.2-1.1,1.9-1.5c0.7-0.5,1.4-0.8,2.2-1.2c0.6-0.3,1.3-0.5,2-0.7c0.5-0.1,1-0.3,1.5-0.4 c0.5-0.1,0.9-0.2,1.4-0.3c0.4-0.1,0.8-0.1,1.1-0.2c0.3,0,0.6-0.1,0.9-0.1c0.4,0,0.8-0.1,1.2-0.1c0.7-0.1,1.5-0.1,2.2-0.2 c0.6,0,1.3-0.1,1.9-0.1c1.5,0,3.1,0,4.6,0c0.1,0,0.1,0,0.2,0c0,0,0,0,0,0C32.3,6.7,32.2,6.6,32.1,6.6z M17.9,31.4 c-0.7-0.2-1.4-0.4-2.1-0.8c-1.7-0.9-2.9-2.3-3.5-4.1c-0.3-0.9-0.5-1.7-0.6-2.7c0-0.3,0-0.7,0-1c0-0.1,0-0.1,0.1-0.1 c0.4,0.1,0.7,0.1,1.1,0.2c0.2,0,0.4,0.1,0.6,0.1c0.1,0,0.1,0,0.1-0.1c0-0.7,0-1.5,0-2.2c0-0.1,0-0.2,0-0.3c0,0,0-0.1-0.1-0.1 c-0.3-0.1-0.7-0.1-1-0.2c-0.1,0-0.2,0-0.4-0.1C12,20,12,20,12,19.9c0-0.4,0-0.9,0.1-1.3c0.1-0.6,0.2-1.2,0.5-1.7 c0.4-1,1.1-1.9,1.9-2.7c0.7-0.6,1.5-1.2,2.3-1.6c0.7-0.4,1.5-0.7,2.3-0.9c0.6-0.2,1.3-0.4,2-0.5c0.9-0.2,1.7-0.3,2.6-0.4 c0.6-0.1,1.2-0.1,1.9-0.2c1-0.1,1.9-0.1,2.9-0.1c0,0,0,0,0,0c1.2,0,2.4,0,3.6,0.2c0.7,0.1,1.4,0.1,2,0.2c0.6,0.1,1.2,0.2,1.9,0.3 c0.5,0.1,1,0.2,1.4,0.3c0.1,0,0.2,0.1,0.2,0.2c0,0.1-0.1,0.1-0.2,0.1c-0.6,0-1.2,0-1.9,0c-1.1,0-2.3,0.1-3.4,0.2 c-0.7,0-1.3,0.1-2,0.2c-0.7,0.1-1.3,0.2-2,0.3c-0.7,0.1-1.4,0.3-2.2,0.6c-0.9,0.3-1.8,0.6-2.6,1.1c-1.2,0.7-2.3,1.5-3,2.7 c-0.4,0.6-0.8,1.3-1,2.1c-0.2,0.6-0.3,1.2-0.3,1.8c-0.1,0.7-0.1,1.4,0,2.1c0,0.6,0.1,1.2,0.2,1.8c0.2,1,0.5,2,1.1,2.9 c0.6,1,1.4,1.7,2.5,2.1c0.7,0.3,1.5,0.4,2.3,0.4c0.5,0,1-0.1,1.5-0.2c0.1,0,0.2,0,0.2,0.1c0,0.1,0,0.2-0.1,0.2 c-0.4,0.2-0.7,0.4-1.1,0.5c-0.8,0.3-1.5,0.6-2.3,0.7c-1.2,0.2-2.3,0.3-3.5,0.3C19.1,31.6,18.5,31.5,17.9,31.4z M20,14.4 c0.9-0.7,1.9-1.2,3-1.7c0.7-0.3,1.4-0.6,2.2-0.8c0.4-0.1,0.9-0.3,1.3-0.4c0.2,0,0.3-0.1,0.5-0.1c0,0,0,0,0,0c-0.1,0-0.2,0-0.3,0 c-0.6,0-1.1,0-1.7,0c-0.5,0-1,0.1-1.6,0.2c-0.4,0.1-0.8,0.1-1.2,0.2c-0.5,0.1-1,0.2-1.4,0.3c-0.6,0.2-1.1,0.3-1.7,0.5 c-0.4,0.1-0.8,0.3-1.2,0.5c-1,0.5-2,1-2.8,1.8c-0.8,0.7-1.4,1.5-1.7,2.5c-0.2,0.5-0.3,1.1-0.3,1.7c0,0.1,0,0.1,0.1,0.1 c0.2,0,0.4,0.1,0.7,0.1c0.3,0,0.7,0.1,1,0.1c0.3,0,0.6,0.1,0.9,0.1c0.3,0,0.7,0.1,1,0.1c0.1,0,0.2,0,0.2,0c0,0,0.1-0.1,0.1-0.2 c0.1-0.5,0.2-0.9,0.3-1.4c0.1-0.6,0.4-1.1,0.7-1.6C18.6,15.6,19.3,15,20,14.4z M20.6,30.8C20.7,30.8,20.7,30.8,20.6,30.8 C20.7,30.8,20.7,30.8,20.6,30.8c0-0.1,0-0.1,0-0.1c-1-0.6-1.8-1.3-2.4-2.3c-0.8-1.2-1.2-2.4-1.3-3.8c0-0.1,0-0.1-0.1-0.1 c-0.2,0-0.4,0-0.6,0c-0.7-0.1-1.4-0.1-2.1-0.2c-0.4,0-0.8-0.1-1.2-0.1c-0.1,0-0.1,0-0.1,0.1c0.1,0.5,0.2,1.1,0.3,1.6 c0.3,0.8,0.7,1.6,1.2,2.3c0.6,0.7,1.3,1.4,2.1,1.8c0.9,0.5,1.8,0.7,2.8,0.8C19.7,30.8,20.2,30.8,20.6,30.8z M24.2,27.7 c-1-0.5-1.7-1.4-2.1-2.4c-0.3-0.8-0.5-1.6-0.5-2.4c0-0.1,0-0.1,0.1-0.1c0.3,0,0.6,0,1,0.1c0.1,0,0.1,0,0.1-0.1c0-0.5,0-1,0-1.5 c0-0.1,0-0.1-0.1-0.1c-0.2,0-0.4-0.1-0.7-0.1c-0.1,0-0.2,0-0.3-0.1c-0.1,0-0.1,0-0.1-0.1c0-0.9,0.3-1.8,0.8-2.6 c0.5-0.7,1.2-1.2,1.9-1.6c0.7-0.4,1.5-0.7,2.3-0.9c1.1-0.3,2.2-0.5,3.3-0.6c0.7,0,1.3-0.1,2-0.1c0,0,0,0,0,0c0.9,0,1.8,0.1,2.7,0.2 c0.1,0,0.2,0,0.3,0c0.1,0,0.2,0.1,0.2,0.2c0,0.1-0.1,0.1-0.1,0.1c-0.4,0-0.8,0-1.2,0c-0.7,0-1.4,0.1-2.1,0.2 c-0.6,0.1-1.3,0.3-1.9,0.5c-0.9,0.3-1.7,0.8-2.4,1.4c-0.6,0.6-1.1,1.3-1.4,2c-0.4,0.9-0.4,1.9-0.4,2.9c0,0.5,0.1,1,0.2,1.4 c0.3,1,0.7,2,1.6,2.6c0.7,0.6,1.6,0.8,2.5,0.7c0,0,0.1,0,0.1,0c0.1,0,0.2,0,0.2,0.1c0,0.1,0,0.2-0.1,0.2c-0.2,0.1-0.5,0.2-0.7,0.3 c-0.9,0.3-1.8,0.3-2.7,0.3C25.8,28.3,25,28.1,24.2,27.7z M25.6,18.1c0.6-0.8,1.3-1.5,2.2-1.9c0.1,0,0.1-0.1,0.2-0.1c0,0,0,0,0,0 c0,0,0,0,0,0c-0.3,0.1-0.6,0.1-0.9,0.2c-0.4,0.1-0.9,0.3-1.3,0.5c-0.7,0.3-1.2,0.6-1.8,1.1c-0.5,0.5-0.9,1-1.1,1.7 c-0.1,0.2-0.1,0.4-0.1,0.6c0,0.1,0,0.1,0.1,0.1c0.1,0,0.2,0,0.3,0c0.5,0,1,0.1,1.4,0.1c0.1,0,0.1,0,0.1-0.1c0-0.2,0.1-0.4,0.2-0.6 C25,19.1,25.2,18.6,25.6,18.1z M27.1,27.4C27,27.4,27,27.3,27.1,27.4c-0.3-0.2-0.5-0.3-0.7-0.5c-0.6-0.5-1-1.1-1.3-1.8 c-0.2-0.4-0.3-0.8-0.4-1.2c0-0.1,0-0.1-0.1-0.1c-0.6,0-1.1,0-1.7,0c0,0-0.1,0-0.1,0C23,26,25.2,27.5,27.1,27.4z"/>
</svg>