<!-- (c) Carrd Inc. All rights reserved. All logos and trademarks are property of their respective owners. -->
<svg xmlns="http://www.w3.org/2000/svg" id="icon">
<path d="M37.6,23.9c-1.2,0-2.2-1-2.2-2.2c0-1.2,1-2.2,2.2-2.2c1.2,0,2.2,1,2.2,2.2C39.9,22.9,38.9,23.9,37.6,23.9z M32.6,29.4c-0.7,0-1.4-0.4-1.7-1l-3.4-4.5l-1,0.9l0,2.6l0,0c-0.1,1.1-0.9,1.9-2,1.9c-1.1,0-2-0.9-2-2c0,0,0,0,0,0l0,0l0-15.3h0l0,0 c0,0,0,0,0-0.1c0-1.1,0.9-2,2-2c1.1,0,2,0.9,2,2c0,0,0,0.1,0,0.1l0,0l0,7.5l3.8-3.7l0,0c0.4-0.4,0.9-0.7,1.5-0.7l0,0 c1.1,0,2,0.9,2,2c0,0.5-0.2,1-0.6,1.4l0,0l-2.6,2.6l3.7,5l0,0c0.2,0.3,0.3,0.7,0.3,1.1C34.6,28.5,33.7,29.4,32.6,29.4z M19.5,27.4 c0,1.1-0.9,2-2,2c-1.1,0-2-0.9-2-2h0l0-10.1l0,0c0,0,0,0,0,0c0-1.1,0.9-2,2-2c1.1,0,2,0.9,2,2c0,0,0,0,0,0.1l0,0L19.5,27.4 L19.5,27.4L19.5,27.4z M11,29.4c-0.7,0-1.4-0.4-1.7-1l-3.4-4.5l-1,0.9l0,2.6l0,0c-0.1,1.1-0.9,1.9-2,1.9c-1.1,0-2-0.9-2-2 c0,0,0,0,0,0l0,0l0-15.3l0,0l0,0c0,0,0,0,0-0.1c0-1.1,0.9-2,2-2c1.1,0,2,0.9,2,2c0,0,0,0.1,0,0.1l0,0l0,7.5l3.8-3.7l0,0 c0.4-0.4,0.9-0.7,1.5-0.7l0,0c1.1,0,2,0.9,2,2c0,0.5-0.2,1-0.6,1.4l0,0l-2.6,2.6l3.7,5l0,0c0.2,0.3,0.3,0.7,0.3,1.1 C13.1,28.5,12.1,29.4,11,29.4z" />
</svg>