<!-- (c) Carrd Inc. All rights reserved. All logos and trademarks are property of their respective owners. -->
<svg xmlns="http://www.w3.org/2000/svg" id="icon">
<path d="M4.2,5H11c0.5,0,0.9,0.4,0.9,0.9v29.3c0,0.5-0.4,0.9-0.9,0.9H4.2c-0.5,0-0.9-0.4-0.9-0.9V5.9 C3.4,5.4,3.8,5,4.2,5z M29,5h6.8c0.5,0,0.9,0.4,0.9,0.9v29.3c0,0.5-0.4,0.9-0.9,0.9H29c-0.5,0-0.9-0.4-0.9-0.9V5.9 C28.1,5.4,28.5,5,29,5z M16.6,14.7h6.8c0.5,0,0.9,0.4,0.9,0.9v15.8c0,0.5-0.4,0.9-0.9,0.9h-6.8c-0.5,0-0.9-0.4-0.9-0.9V15.5 C15.7,15.1,16.1,14.7,16.6,14.7z"/>
</svg>