<!-- (c) Carrd Inc. All rights reserved. All logos and trademarks are property of their respective owners. -->
<svg xmlns="http://www.w3.org/2000/svg" id="icon">
<path d="M37.5,18.4c-0.1-0.8-0.1-1.5-0.3-2.3c-0.2-0.9-0.4-1.8-0.7-2.7c-0.5-1.5-1.2-2.9-2.2-4.2c-0.4-0.5-0.9-1.1-1.4-1.6 c-1-1-2.2-1.9-3.4-2.6c-1.3-0.8-2.6-1.4-4.1-1.8c-0.8-0.2-1.6-0.4-2.4-0.6c-0.5-0.1-1-0.1-1.5-0.2c0,0,0,0-0.1,0c-0.8,0-1.6,0-2.3,0 c-0.2,0-0.3,0.1-0.5,0.1c-0.8,0.1-1.7,0.3-2.5,0.5c-1,0.3-1.9,0.7-2.9,1.2c-1,0.5-1.9,1.1-2.7,1.8c-0.4,0.3-0.9,0.7-1.3,1.1 C8.5,7.8,7.8,8.5,7.1,9.2c-0.9,1-1.7,2-2.4,3.2c-0.6,1-1.1,2.1-1.5,3.2c-0.3,0.8-0.4,1.7-0.6,2.5c-0.1,0.9-0.2,1.7-0.1,2.6 c0,1,0.1,2,0.3,2.9C3.1,25,3.5,26.3,4,27.6c0.5,1,1.1,2,1.7,2.9c0.6,0.8,1.2,1.4,1.9,2.1c0.9,0.8,1.9,1.6,3,2.2 c1.3,0.8,2.6,1.4,4,1.8c1,0.3,1.9,0.5,2.9,0.7c0.4,0.1,0.9,0.1,1.3,0.1c0,0,0.1,0,0.1,0c0.8,0,1.6,0,2.3,0c0.2,0,0.4-0.1,0.5-0.1 c1.2-0.1,2.3-0.4,3.4-0.8c1.2-0.4,2.4-1,3.5-1.7c0.7-0.5,1.4-1,2.1-1.5c0.4-0.3,0.8-0.7,1.2-1.1c0.3-0.3,0.6-0.6,0.8-0.8 c0.9-0.9,1.6-1.9,2.3-3c0.7-1.2,1.3-2.4,1.6-3.7c0.2-0.8,0.4-1.5,0.5-2.3c0.1-0.4,0.1-0.8,0.1-1.2c0,0,0,0,0-0.1c0-0.9,0-1.8,0-2.7 C37.5,18.5,37.5,18.5,37.5,18.4z M25.8,18.3c0,0-1.2-0.2-2.1-0.2c-2,0-2.4,1.1-2.4,2.7v6.8h-5.3V13.7h5.3v2.3c0.6-2,1.9-2.6,4.5-2.6 V18.3L25.8,18.3z"/>
</svg>