<!-- (c) Carrd Inc. All rights reserved. All logos and trademarks are property of their respective owners. -->
<svg xmlns="http://www.w3.org/2000/svg" id="icon">
<path d="M20,40c-0.1-0.1-0.1-0.1-0.1-0.2c-3.9-6.5-7.9-13-11.8-19.5C8,20.2,8,20.1,8.1,20C12,13.4,15.9,6.8,19.9,0.2 C19.9,0.1,20,0.1,20,0c0.1,0.1,0.1,0.1,0.1,0.2c3.9,6.6,7.9,13.1,11.8,19.7c0.1,0.1,0.1,0.3,0,0.4c-3.9,6.5-7.9,13-11.8,19.5 C20.1,39.8,20.1,39.9,20,40z M16.4,21c1.2,4.9,2.4,9.8,3.6,14.6c0,0,0,0,0.1,0c1.2-4.9,2.4-9.7,3.6-14.6C21.2,21,18.8,21,16.4,21z M16.4,19.1c2.4,0,4.8,0,7.2,0c-1.2-4.8-2.4-9.6-3.6-14.5c0,0,0,0-0.1,0C18.8,9.5,17.6,14.3,16.4,19.1z M16.7,31.5 C16.7,31.5,16.8,31.5,16.7,31.5c-0.8-3.5-1.6-7-2.5-10.5c-1.2,0-2.4,0-3.6,0C12.6,24.6,14.7,28.1,16.7,31.5z M23.2,31.5 C23.3,31.5,23.3,31.5,23.2,31.5c2.1-3.5,4.1-7,6.2-10.5c-1.2,0-2.4,0-3.6,0C24.9,24.5,24.1,28,23.2,31.5z M14.2,19.1 c0.8-3.4,1.7-6.9,2.5-10.3c0,0-0.1,0-0.1,0c-2,3.4-4,6.9-6,10.3C11.9,19.1,13.1,19.1,14.2,19.1z M29.3,19.1c-2-3.5-4-6.9-6-10.3 c0,0,0,0-0.1,0c0.8,3.4,1.7,6.9,2.5,10.3C27,19.1,28.1,19.1,29.3,19.1z"/>
</svg>