<!-- (c) Carrd Inc. All rights reserved. All logos and trademarks are property of their respective owners. -->
<svg xmlns="http://www.w3.org/2000/svg" id="icon">
<path d="M27.2,14.5c0.3,0.2,0.4,0.5,0.2,0.8c-0.2,0.3-0.5,0.4-0.8,0.2l0,0c-0.3-0.2-0.4-0.5-0.2-0.8 C26.5,14.4,26.9,14.3,27.2,14.5z M27.7,8.2c0.3,0,0.6,0.3,0.6,0.6c0,0.1,0,0.2-0.1,0.3c-0.2,0.3-0.5,0.4-0.8,0.2l0,0 c-0.3-0.2-0.3-0.5-0.2-0.8C27.3,8.3,27.4,8.2,27.7,8.2z M20.7,40V11.4c0.7,0,1.5,0.2,2.4,0.6l0,0c1,0.4,1.8,1.1,2.4,2 c0,0-0.1,0.1-0.1,0.1c-0.5,0.8-0.3,1.8,0.5,2.3c0.3,0.2,0.6,0.3,0.9,0.3c0.6,0,1.1-0.3,1.4-0.8c0.5-0.8,0.3-1.8-0.5-2.3 c-0.4-0.2-0.9-0.3-1.3-0.2c-0.4-0.6-0.9-1.1-1.5-1.5c0.7-0.2,1.5-0.6,2.2-1.4c0.2,0,0.3,0.1,0.5,0.1c0.6,0,1.1-0.3,1.4-0.8 c0.2-0.4,0.3-0.8,0.2-1.3c-0.1-0.4-0.4-0.8-0.8-1.1c-0.3-0.2-0.6-0.3-0.9-0.3c-0.6,0-1.1,0.3-1.4,0.8c-0.4,0.6-0.4,1.3,0,1.9 c-1,1.1-2.4,1.2-2.8,1.2c-1-0.4-2-0.6-2.8-0.6V0l17,9.7v20.6L20.7,40z M20.7,31.9c0.1,0,0.5,0,1.2-0.3c1.5-0.4,1.9-0.1,2.3,0.2 c0.3,0.2,0.6,0.4,1.2,0.5c0,0,0.1,0,0.1,0c0.6,0,1.4-0.3,2-0.5c0.3,0.3,0.7,0.5,1.2,0.5c0.4,0,0.8-0.1,1.1-0.4 c0.3-0.3,0.6-0.7,0.6-1.2c0-0.4-0.1-0.9-0.4-1.2c-0.6-0.7-1.7-0.8-2.4-0.2l0,0c-0.4,0.4-0.7,0.9-0.6,1.5c-0.5,0.2-1.2,0.4-1.5,0.4 c-0.2,0-0.4-0.1-0.6-0.3c-0.3-0.2-0.7-0.4-1.2-0.5c0.8-0.8,1.7-1.9,2.4-3.6c0.6,0,1.1-0.3,1.4-0.8c0.5-0.8,0.2-1.8-0.6-2.3 c-0.3-0.2-0.6-0.2-0.9-0.2c-0.6,0-1.2,0.3-1.5,0.8c-0.2,0.4-0.3,0.9-0.2,1.3c0.1,0.4,0.3,0.7,0.6,1c-1.1,2.6-2.6,3.6-3.5,4.1 c0,0-0.1,0-0.1,0c-0.3,0.1-0.6,0.2-0.7,0.2V31.9z M33.2,14.3C33.2,14.3,33.3,14.3,33.2,14.3c0.7,0,1.2-0.3,1.5-0.8 c0.2-0.4,0.3-0.8,0.2-1.3c-0.1-0.4-0.4-0.8-0.8-1.1c-0.3-0.2-0.6-0.3-0.9-0.3c-0.6,0-1.1,0.3-1.4,0.8c-0.4,0.7-0.3,1.6,0.3,2.2l0,0 c-0.4,1.3-0.3,2.9,0,4c0,0-0.1,0.1-0.1,0.1c-0.1,0.1-0.1,0.1-0.2,0.2c-0.1,0.1-0.2,0.3-0.2,0.4c-0.9,0.1-1.4,0.5-1.9,0.8 c-0.6,0.4-1.1,0.7-2.7,0.7c-0.5-0.1-1,0-1.5,0c-0.4,0-0.8,0-1.3,0c-0.4,0-0.6-0.2-1-0.7c-0.5-0.6-1.2-1.3-2.6-1.4v1.1 c0.9,0.1,1.3,0.5,1.8,1c0.4,0.5,0.9,1,1.7,1.1c0.6,0,1,0,1.5,0c0.7,0,1.2,0,2.2,0.2c0.7,0.2,3.4,2.7,4.1,4c0,0-0.1,0.1-0.1,0.1 c-0.5,0.8-0.3,1.8,0.5,2.3c0,0,0,0,0.1,0.1c0.3,0.2,0.6,0.3,0.9,0.3c0.6,0,1.1-0.3,1.4-0.8c0.2-0.4,0.3-0.8,0.2-1.3 c-0.1-0.4-0.4-0.8-0.8-1.1c-0.4-0.3-0.9-0.3-1.3-0.2c-0.7-1.2-2.4-2.9-3.7-3.8c0.5-0.2,0.8-0.4,1.2-0.6c0.4-0.3,0.7-0.5,1.4-0.6 c0.1,0.3,0.3,0.6,0.6,0.7c0.3,0.2,0.6,0.3,1,0.3c0.6,0,1.1-0.3,1.4-0.8c0.2-0.4,0.3-0.8,0.2-1.3c-0.1-0.4-0.4-0.8-0.8-1.1 c-0.3-0.2-0.6-0.3-0.9-0.3c0,0-0.1,0-0.1,0C33,16.6,33,15.3,33.2,14.3z M33.6,18.6c0.1,0.1,0.2,0.2,0.3,0.4c0,0.2,0,0.3-0.1,0.4 c-0.2,0.3-0.5,0.4-0.8,0.2l0,0c-0.3-0.2-0.3-0.5-0.2-0.8c0.1-0.2,0.3-0.3,0.5-0.3C33.4,18.5,33.5,18.6,33.6,18.6z M33,13.1 c-0.3-0.2-0.3-0.5-0.2-0.8c0.1-0.2,0.3-0.3,0.5-0.3c0.1,0,0.2,0,0.3,0.1c0.1,0.1,0.2,0.2,0.3,0.4c0,0.2,0,0.3-0.1,0.4 C33.6,13.2,33.3,13.3,33,13.1L33,13.1z M33.3,25.8c0.1,0,0.2,0,0.3,0.1c0.1,0.1,0.2,0.2,0.3,0.4c0,0.2,0,0.3-0.1,0.4 c-0.2,0.3-0.5,0.4-0.8,0.2l0,0c-0.3-0.2-0.3-0.5-0.2-0.8C32.9,25.9,33.1,25.8,33.3,25.8z M28.3,30.1c0.1-0.1,0.2-0.1,0.4-0.1 c0.3,0,0.6,0.3,0.6,0.6l0,0c0,0.2-0.1,0.3-0.2,0.4c-0.2,0.2-0.6,0.2-0.8-0.1C28,30.7,28,30.3,28.3,30.1z M26.3,24.6 c0.3,0.2,0.4,0.5,0.2,0.8c-0.1,0.2-0.3,0.3-0.5,0.3c-0.1,0-0.2,0-0.3-0.1c-0.1-0.1-0.2-0.2-0.3-0.4c0-0.2,0-0.3,0.1-0.4 C25.7,24.5,26,24.4,26.3,24.6z M7.8,25.8v-3.3c0-0.4,0.3-0.7,0.7-0.7h0h0.3v4.8H8.5C8.1,26.6,7.8,26.2,7.8,25.8z M18.1,10.1 c-2.8,0-5.7,1-7.4,2.7c-1.9,1.8-2.9,4.5-2.9,7.8c-0.5,0.1-0.9,0.5-0.9,1.1v5c0,0.6,0.5,1.1,1.1,1.1h0.6c0.1,0,0.2,0,0.3,0v0.4 c0,0.6,0.4,1.1,1,1.1h0.5c0.5,0,1-0.5,1-1.1V20c0-0.6-0.4-1.1-1-1.1H9.7c-0.5,0-0.9,0.4-1,0.9c0-0.5,0.1-1,0.1-1.4 c0.3-2,1.1-3.7,2.4-4.9c1.6-1.5,4.2-2.4,6.8-2.4c0.3,0,0.9,0,1.2,0V40l-17-9.7V9.7l17-9.7v10.2C19,10.1,18.4,10.1,18.1,10.1z M16.3,25.7c-0.1,0.2-0.2,0.4-0.3,0.5c0,0.1-0.1,0.1-0.1,0.2c0,0.2,0.1,0.3,0.3,0.3c0.1,0,0.2-0.1,0.3-0.1c0.1-0.2,0.3-0.4,0.4-0.6 c0.7-1.5,0.6-3.2-0.4-4.5c-0.1-0.1-0.3-0.2-0.5-0.1c-0.1,0.1-0.2,0.3-0.1,0.5C16.8,23,16.9,24.5,16.3,25.7z M14.5,26 c0.1,0,0.1,0.1,0.2,0.1c0.1,0,0.2-0.1,0.3-0.1c0.1-0.1,0.2-0.3,0.3-0.4c0.5-1,0.4-2.2-0.2-3.1c-0.1-0.2-0.3-0.2-0.5-0.1 c-0.2,0.1-0.2,0.3-0.1,0.5c0.5,0.7,0.5,1.7,0.1,2.5c-0.1,0.1-0.1,0.2-0.2,0.3C14.3,25.7,14.3,25.9,14.5,26z M13.2,25.2 c0.1,0,0.2-0.1,0.3-0.2c0.3-0.6,0.3-1.2,0.1-1.8C13.5,23,13.3,23,13.1,23c-0.2,0.1-0.3,0.3-0.2,0.4c0.2,0.4,0.2,0.8-0.1,1.2 c0,0,0,0.1,0,0.2C12.8,25,13,25.2,13.2,25.2z"/>
</svg>