<!-- (c) Carrd Inc. All rights reserved. All logos and trademarks are property of their respective owners. -->
<svg xmlns="http://www.w3.org/2000/svg" id="icon">
<path d="M39.9,21.1c0,0.2-0.1,0.4-0.1,0.6c-0.1,0.2-0.1,0.4-0.2,0.6c-0.1,0.3-0.3,0.6-0.5,0.8c-0.2,0.3-0.5,0.5-0.8,0.7 c-0.3,0.2-0.5,0.3-0.8,0.4c-0.5,0.2-1,0.2-1.5,0.2c-0.2,0-0.4-0.1-0.5-0.1c-0.2-0.1-0.5-0.1-0.7-0.3c-0.3-0.2-0.6-0.5-0.8-0.8 c-0.1-0.2-0.2-0.4-0.3-0.6c-0.1-0.3-0.2-0.7-0.2-1.1c0-0.3,0-0.7,0.1-1c0-0.2,0.1-0.3,0.1-0.5c0.1-0.2,0.1-0.4,0.2-0.6 c0.1-0.2,0.2-0.4,0.4-0.7c0.3-0.4,0.6-0.7,1-0.9c0.2-0.1,0.4-0.2,0.6-0.3c0.2-0.1,0.4-0.1,0.6-0.2c0.3-0.1,0.7-0.1,1.1,0 c0.2,0,0.3,0,0.5,0.1c0.2,0,0.3,0.1,0.5,0.2c0.2,0.1,0.4,0.2,0.6,0.4c0.2,0.2,0.4,0.5,0.6,0.7c0.1,0.2,0.2,0.5,0.3,0.8 c0.1,0.3,0.1,0.5,0.1,0.8c0,0,0,0,0,0C40,20.6,40,20.8,39.9,21.1z M37.6,20.3c0-0.2-0.1-0.5-0.2-0.7c-0.2-0.3-0.5-0.4-0.8-0.2 c-0.2,0.1-0.3,0.2-0.4,0.4c-0.1,0.2-0.2,0.4-0.3,0.6c-0.1,0.2-0.1,0.4-0.1,0.6c0,0.4-0.1,0.7,0,1.1c0,0.2,0.1,0.3,0.2,0.4 c0.2,0.2,0.4,0.3,0.7,0.2c0.2-0.1,0.3-0.2,0.4-0.4c0.2-0.2,0.3-0.5,0.3-0.8c0.1-0.3,0.1-0.6,0.1-1C37.6,20.4,37.6,20.4,37.6,20.3z M33.9,18.1c0,0.1,0,0.3-0.1,0.4c0,0.2-0.1,0.4-0.1,0.5c0,0.1,0,0.2,0,0.3c0,0,0,0.1-0.1,0.1c-0.4,0-0.9,0-1.3,0 c-0.1,0-0.1,0-0.1,0.1c0,0.1,0,0.3-0.1,0.4c-0.1,0.4-0.1,0.8-0.2,1.2c0,0.3-0.1,0.7-0.1,1c0,0.1,0,0.2,0,0.3c0,0.2,0.1,0.3,0.3,0.3 c0.2,0,0.3,0,0.5,0c0.1,0,0.3-0.1,0.4-0.1c0.1,0,0.2-0.1,0.3-0.1c0,0,0,0,0,0c0,0,0,0,0,0c0,0.3-0.1,0.5-0.1,0.8 c0,0.2-0.1,0.4-0.1,0.6c0,0.1,0,0.1-0.1,0.1c-0.2,0.1-0.4,0.2-0.6,0.2c-0.2,0.1-0.3,0.1-0.5,0.1c-0.2,0.1-0.5,0.1-0.7,0.1 c-0.3,0-0.5,0-0.8-0.1c-0.3-0.1-0.6-0.3-0.7-0.6c-0.1-0.1-0.1-0.3-0.1-0.4c-0.1-0.3,0-0.6,0-0.9c0-0.2,0.1-0.5,0.1-0.7 c0-0.1,0-0.3,0.1-0.4c0-0.2,0.1-0.4,0.1-0.6c0-0.3,0.1-0.7,0.1-1c0-0.1,0-0.2,0-0.3c0-0.1,0-0.1-0.1-0.1c-0.2,0-0.4,0-0.5,0 c-0.1,0-0.1,0-0.1-0.1c0.1-0.4,0.1-0.9,0.2-1.3c0-0.1,0-0.1,0-0.2c0,0,0-0.1,0.1-0.1c0.2,0,0.4,0,0.6,0c0.1,0,0.1,0,0.1-0.1 c0-0.2,0.1-0.4,0.1-0.5c0-0.1,0.1-0.2,0.1-0.4c0-0.1,0-0.1,0-0.2c0-0.1,0.1-0.1,0.1-0.1c0.2-0.1,0.5-0.2,0.7-0.3 c0.2-0.1,0.4-0.2,0.6-0.2c0.2-0.1,0.5-0.2,0.7-0.3c0,0,0,0,0,0c0,0,0,0,0.1,0c0,0.2-0.1,0.4-0.1,0.6c0,0.3-0.1,0.6-0.1,1 c0,0.2,0,0.3-0.1,0.4c0,0.1,0,0.1,0.1,0.1c0.4,0,0.9,0,1.3,0c0,0,0,0,0,0c0,0,0.1,0,0,0.1C33.9,17.8,33.9,17.9,33.9,18.1z M28.9,20.6c0,0.1,0,0.3-0.1,0.4c0,0.2-0.1,0.5-0.1,0.7c0,0.2,0,0.3-0.1,0.5c0,0.2-0.1,0.5-0.1,0.7c0,0.4-0.1,0.8-0.1,1.2 c0,0.1,0,0.1-0.1,0.1c-0.7,0-1.3,0-2,0c0,0,0,0,0,0c0,0,0,0,0-0.1c0.1-0.3,0.1-0.6,0.2-0.9c0,0,0,0,0-0.1c0,0,0,0,0,0c0,0,0,0,0,0 c-0.2,0.3-0.5,0.5-0.8,0.7c-0.3,0.1-0.5,0.2-0.8,0.3c-0.2,0-0.4,0-0.6,0c-0.2,0-0.4,0-0.6-0.1c-0.4-0.1-0.6-0.4-0.8-0.7 c-0.2-0.4-0.3-0.8-0.2-1.2c0-0.2,0.1-0.5,0.2-0.7c0.1-0.4,0.4-0.6,0.7-0.9c0.2-0.1,0.4-0.3,0.6-0.4c0.2-0.1,0.3-0.1,0.5-0.2 c0.5-0.1,1.1-0.2,1.7-0.1c0.2,0,0.5,0.1,0.7,0.1c0.1,0,0.1,0,0.1-0.1c0-0.2,0-0.4,0-0.6c0-0.2-0.2-0.4-0.3-0.4 c-0.2-0.1-0.5-0.1-0.8-0.1c-0.2,0-0.4,0-0.7,0.1c-0.2,0-0.3,0.1-0.5,0.1c-0.1,0-0.3,0.1-0.4,0.2c-0.1,0-0.2,0.1-0.3,0.2 c-0.1,0-0.1,0-0.1,0c0-0.1-0.1-0.3-0.1-0.4c0-0.1-0.1-0.3-0.1-0.4c0-0.1-0.1-0.3-0.1-0.4c0,0,0-0.1,0-0.1c0,0,0-0.1,0-0.1 c0.1-0.1,0.3-0.1,0.4-0.2c0.3-0.1,0.5-0.2,0.8-0.3c0.2-0.1,0.5-0.1,0.7-0.2c0.4-0.1,0.9-0.1,1.3-0.1c0.2,0,0.4,0,0.7,0.1 c0.2,0.1,0.4,0.1,0.6,0.2c0.3,0.2,0.6,0.4,0.7,0.8c0.1,0.2,0.1,0.4,0.2,0.6c0,0.3,0,0.6,0,0.9C28.9,20.2,28.9,20.4,28.9,20.6z M26.8,21.2c-0.3-0.1-0.5-0.1-0.8-0.1c0,0,0,0,0,0c-0.2,0-0.4,0-0.6,0.1c-0.2,0-0.4,0.1-0.6,0.2c-0.3,0.2-0.5,0.5-0.5,0.9 c0,0.1,0.1,0.3,0.1,0.4c0.2,0.2,0.4,0.4,0.7,0.4c0.3,0,0.6-0.1,0.9-0.3c0.3-0.2,0.5-0.5,0.6-0.8C26.7,21.7,26.8,21.5,26.8,21.2 C26.8,21.2,26.8,21.2,26.8,21.2z M22.6,19.9c0,0.3-0.1,0.6-0.1,0.9c0,0.2-0.1,0.5-0.1,0.7c0,0.2-0.1,0.3-0.1,0.5 c-0.1,0.3-0.1,0.7-0.2,1c0,0.3-0.1,0.5-0.1,0.8c0,0.1,0,0.2,0,0.3c0,0,0,0.1-0.1,0.1c0,0-0.1,0-0.1,0c-0.7,0-1.3,0-2,0 c-0.1,0-0.1,0-0.1-0.1c0.1-0.4,0.1-0.9,0.2-1.3c0-0.3,0.1-0.6,0.1-0.9c0-0.2,0.1-0.4,0.1-0.6c0-0.3,0.1-0.6,0.1-0.9 c0-0.2,0-0.4,0.1-0.6c0-0.1,0-0.1,0-0.2c0-0.1-0.2-0.1-0.3-0.1c-0.1,0-0.2,0.1-0.3,0.2c-0.2,0.1-0.3,0.3-0.5,0.5 c-0.2,0.2-0.3,0.5-0.4,0.8c-0.1,0.2-0.1,0.4-0.2,0.6c0,0.3-0.1,0.6-0.1,0.8c0,0.3-0.1,0.6-0.1,1c0,0.1,0,0.3,0,0.4 c0,0.1,0,0.2,0,0.3c0,0,0,0.1-0.1,0.1c0,0,0,0-0.1,0c-0.7,0-1.5,0-2.2,0c-0.1,0-0.1,0-0.1-0.1c0-0.2,0.1-0.5,0.1-0.7 c0-0.2,0.1-0.4,0.1-0.6c0-0.2,0.1-0.4,0.1-0.6c0-0.2,0.1-0.4,0.1-0.6c0-0.3,0.1-0.6,0.1-0.9c0-0.3,0.1-0.5,0.1-0.8 c0-0.1,0-0.2-0.1-0.2c-0.1-0.1-0.2-0.1-0.3-0.1c-0.2,0-0.4,0.2-0.5,0.3c-0.2,0.2-0.4,0.5-0.5,0.8C15,20.8,15,21,14.9,21.2 c0,0.1-0.1,0.2-0.1,0.4c0,0.2-0.1,0.4-0.1,0.6c0,0.2-0.1,0.3-0.1,0.5c0,0.2-0.1,0.5-0.1,0.7c0,0.2-0.1,0.5-0.1,0.7c0,0,0,0-0.1,0 c0,0,0,0,0,0c-0.7,0-1.5,0-2.2,0c-0.1,0-0.1,0-0.1-0.1c0-0.2,0.1-0.3,0.1-0.5c0-0.2,0.1-0.3,0.1-0.5c0-0.1,0-0.3,0.1-0.4 c0-0.2,0.1-0.4,0.1-0.6c0-0.3,0.1-0.6,0.1-0.9c0-0.3,0.1-0.6,0.1-0.9c0-0.1,0-0.3,0.1-0.4c0-0.2,0.1-0.5,0.1-0.7 c0-0.4,0.1-0.9,0-1.3c0-0.1,0-0.1,0.1-0.1c0.3,0,0.6,0,1-0.1c0.3,0,0.5-0.1,0.8-0.1c0.1,0,0.2,0,0.3-0.1c0,0,0.1,0,0.1,0.1 c0.1,0.4,0,0.8,0,1.2c0,0.2-0.1,0.5-0.1,0.7c0,0,0,0,0,0c0,0,0,0,0,0c0,0,0.1-0.1,0.1-0.1c0.3-0.5,0.6-0.9,1.1-1.3 c0.2-0.2,0.5-0.4,0.8-0.5c0.4-0.1,0.7-0.2,1.1-0.1c0.3,0.1,0.6,0.3,0.7,0.6c0.1,0.3,0.1,0.7,0.1,1c0,0.1,0,0.2,0,0.2c0,0,0,0,0,0.1 c0,0,0,0,0,0c0,0,0.1-0.1,0.1-0.1c0.3-0.5,0.7-0.9,1.1-1.3c0.2-0.2,0.5-0.3,0.8-0.4c0.3-0.1,0.6-0.1,0.9-0.1c0.2,0,0.4,0.1,0.6,0.3 c0.1,0.1,0.2,0.3,0.3,0.5c0.1,0.3,0.1,0.7,0,1C22.6,19.5,22.6,19.7,22.6,19.9z M12.2,21.5c-0.1,0.3-0.2,0.6-0.3,0.9 c-0.2,0.5-0.5,0.9-0.9,1.2c-0.2,0.2-0.5,0.4-0.8,0.5c-0.3,0.2-0.7,0.3-1,0.3c-0.4,0.1-0.8,0-1.2-0.1c-0.5-0.1-1-0.4-1.3-0.7 c-0.2-0.2-0.3-0.4-0.4-0.6C6.1,22.8,6,22.5,6,22.3c-0.1-0.2-0.1-0.5-0.1-0.8c0-0.3,0-0.7,0.1-1c0.1-0.3,0.2-0.6,0.3-0.8 c0.3-0.5,0.6-1,1.1-1.4c0.2-0.2,0.5-0.3,0.8-0.5c0.2-0.1,0.5-0.2,0.8-0.2c0.4-0.1,0.8-0.1,1.1,0c0.2,0,0.4,0.1,0.5,0.1 c0.3,0.1,0.5,0.2,0.7,0.4c0.2,0.2,0.4,0.3,0.5,0.5c0.1,0.2,0.2,0.4,0.3,0.6c0.2,0.4,0.2,0.9,0.2,1.3C12.3,20.9,12.3,21.2,12.2,21.5z M10,20.1c0-0.2-0.1-0.4-0.2-0.5c-0.1-0.2-0.3-0.3-0.4-0.3c-0.2,0-0.4,0.1-0.6,0.2c-0.1,0.2-0.3,0.3-0.3,0.5 c-0.1,0.2-0.1,0.4-0.2,0.6c-0.1,0.3-0.1,0.5-0.1,0.8c0,0.1,0,0.2,0,0.3c0,0.2,0.1,0.4,0.2,0.6c0.1,0.2,0.2,0.3,0.4,0.3 c0.2,0,0.4,0,0.6-0.2c0.2-0.2,0.3-0.4,0.4-0.7c0.1-0.2,0.1-0.4,0.2-0.7C10,20.8,10,20.4,10,20.1z M6.3,18.7c0,0.2,0,0.2-0.1,0.3 c-0.5,0.6-1,1.1-1.5,1.7c-0.4,0.5-0.9,1-1.3,1.4c0,0-0.1,0.1-0.1,0.1c0,0,0,0,0,0c0,0,0,0,0,0c0.1,0,0.2,0,0.3,0c0.6,0,1.2,0,1.8,0 c0.1,0,0.2,0,0.3,0c0.1,0,0.1,0,0.1,0.1c0,0.1-0.1,0.3-0.1,0.4c0,0.2-0.1,0.3-0.1,0.5c0,0.3-0.1,0.5-0.1,0.8c0,0,0,0.1,0,0.1 c0,0.1,0,0.1-0.1,0.1c-0.4,0-0.7,0-1.1,0c-1,0-2,0-3,0c-0.4,0-0.8,0-1.2,0c0,0,0,0,0,0c0-0.3,0-0.6,0-1c0,0,0,0,0-0.1 c0,0,0-0.1,0-0.1c0,0,0-0.1,0-0.1c0.5-0.5,0.9-1,1.4-1.5c0.6-0.6,1.1-1.2,1.7-1.8c0,0,0,0,0.1-0.1c0,0-0.1,0-0.1,0 c-0.6,0-1.3,0-1.9,0c-0.1,0-0.2,0-0.4,0c-0.1,0-0.1,0-0.1-0.1c0-0.3,0.1-0.5,0.1-0.8c0-0.1,0-0.3,0.1-0.4C1,18.1,1,17.9,1,17.7 c0,0,0-0.1,0.1-0.1c0.3,0,0.6,0,0.9,0c1.1,0,2.1,0,3.2,0c0.4,0,0.7,0,1.1,0c0.1,0,0.1,0,0.1,0.1C6.3,18.1,6.3,18.4,6.3,18.7z"/>
</svg>