<!-- (c) Carrd Inc. All rights reserved. All logos and trademarks are property of their respective owners. -->
<svg xmlns="http://www.w3.org/2000/svg" id="icon">
<path d="M38.5,20.9c-0.1,1.2-0.3,2.3-0.6,3.4c0,0,0,0,0,0.1c-0.3-0.1-0.6-0.2-0.9-0.3c0.4-1.4,0.6-2.8,0.6-4.2 c0.3,0,0.6,0,1,0v0.4C38.5,20.5,38.5,20.7,38.5,20.9z M36.5,14c0.3-0.1,0.6-0.2,0.9-0.4c0.5,1.4,0.9,2.9,1,4.4c-0.3,0-0.6,0.1-1,0.1 C37.4,16.8,37,15.4,36.5,14z M33.5,9c0.2-0.2,0.5-0.4,0.7-0.7c1,1.1,1.8,2.4,2.5,3.7c-0.3,0.2-0.6,0.3-0.9,0.5 C35.2,11.2,34.4,10,33.5,9z M28.9,5.3c0.2-0.3,0.3-0.6,0.5-0.9C30.7,5.1,31.9,6,33,7c-0.2,0.2-0.4,0.5-0.7,0.7 C31.3,6.8,30.1,6,28.9,5.3z M23.4,3.3c0.1-0.3,0.1-0.6,0.2-1C25,2.6,26.4,3,27.8,3.6c-0.1,0.3-0.3,0.6-0.4,0.9 C26.1,3.9,24.8,3.5,23.4,3.3z M17.5,3.1c0-0.3-0.1-0.6-0.1-1c0.3,0,0.5-0.1,0.8-0.1c0.4,0,0.8,0,1.2-0.1c0,0,0,0,0,0h1.3 c0.2,0,0.4,0,0.6,0c0.2,0,0.3,0,0.5,0c0,0.3-0.1,0.7-0.1,1C20.3,2.9,18.9,2.9,17.5,3.1z M11.5,3.9c1.3-0.7,2.7-1.2,4.2-1.5 c0.1,0.3,0.1,0.6,0.2,1c-1.4,0.3-2.7,0.8-4,1.4C11.8,4.5,11.6,4.2,11.5,3.9z M6.5,7.6c1-1.1,2.2-2,3.5-2.8c0.2,0.3,0.3,0.6,0.5,0.8 C9.2,6.4,8.1,7.3,7.2,8.3C6.9,8,6.7,7.8,6.5,7.6z M3.8,13.2c-0.3-0.1-0.6-0.3-0.8-0.4c0.6-1.4,1.4-2.7,2.3-3.8 C5.5,9.1,5.8,9.3,6,9.5c-0.4,0.6-0.8,1.2-1.2,1.8C4.4,11.9,4.1,12.5,3.8,13.2z M2.4,19c-0.3,0-0.6,0-1,0v-0.1c0-0.1,0-0.3,0-0.4 c0.1-1.3,0.4-2.6,0.7-3.9c0,0,0,0,0-0.1c0.3,0.1,0.6,0.2,0.9,0.3C2.8,16.1,2.5,17.5,2.4,19z M3,24.9C2.6,25,2.3,25.1,2,25.2 c-0.1-0.3-0.1-0.6-0.2-0.9c-0.2-1.1-0.3-2.1-0.3-3.2c0,0,0,0,0-0.1v-0.3c0.3,0,0.6,0,1,0C2.5,22.1,2.6,23.5,3,24.9z M5.5,30.2 c-0.2,0.2-0.5,0.4-0.7,0.6c-1-1.2-1.7-2.5-2.2-4c0.3-0.1,0.6-0.2,0.9-0.3C3.9,27.9,4.6,29.1,5.5,30.2z M15.4,6.5 c1.3-0.5,2.7-0.7,4.2-0.8c1.9-0.1,3.8,0.2,5.6,0.8c2.1,0.7,3.9,1.8,5.5,3.4c1.1,1.1,2.1,2.4,2.8,3.8c0.6,1.2,1,2.5,1.2,3.9 c0.2,1.1,0.2,2.2,0.1,3.3c-0.3,2.4-1.1,4.5-2.5,6.4c-1.8,2.4-4.1,4-6.9,5c-1.2,0.4-2.4,0.7-3.7,0.8c-1.8,0.2-3.5,0-5.3-0.4 c-0.1,0-0.1,0-0.2,0c-1.5,0.9-3,1.8-4.5,2.7c-0.1,0.1-0.2,0.1-0.4,0.1c-0.2,0-0.4-0.2-0.4-0.5c-0.1-0.7-0.1-1.4-0.2-2.1 c-0.1-0.9-0.1-1.8-0.2-2.7c0,0,0-0.1-0.1-0.1c-0.8-0.7-1.6-1.4-2.2-2.3c-1.1-1.6-1.9-3.3-2.2-5.2c-0.2-1.1-0.3-2.1-0.3-3.1 c0-3.1,1-5.8,2.9-8.2C10.4,9,12.7,7.5,15.4,6.5z M7.3,32c0.1,0.1,0.2,0.2,0.4,0.3c0.1,0.1,0.2,0.2,0.2,0.3c0.3,0.9,0.6,1.9,0.9,2.8 c-0.3,0.1-0.6,0.2-0.9,0.3c-0.1-0.2-0.2-0.5-0.2-0.7c-0.2-0.6-0.4-1.3-0.6-1.9C7,33.1,7,33,6.9,33c-0.3-0.3-0.6-0.5-0.9-0.8 c0.2-0.3,0.4-0.5,0.7-0.7C6.9,31.6,7.1,31.8,7.3,32z M9.8,38.7c0.5-0.2,1-0.4,1.5-0.7c0.1,0.3,0.3,0.6,0.4,0.9 c-0.7,0.3-1.4,0.6-2.1,0.9H9.4c-0.2-0.1-0.3-0.3-0.4-0.5c-0.2-0.6-0.4-1.3-0.6-1.9c0,0,0,0,0-0.1c0.3-0.1,0.6-0.2,0.9-0.3 C9.5,37.7,9.6,38.2,9.8,38.7z M15.9,36c0.1-0.1,0.3-0.1,0.4,0c0.3,0.1,0.6,0.2,0.9,0.2c-0.1,0.3-0.1,0.6-0.2,1 c-0.2,0-0.4-0.1-0.5-0.1c-0.2-0.1-0.4,0-0.6,0c-0.8,0.4-1.7,0.7-2.5,1.1c0,0-0.1,0-0.1,0c-0.1-0.3-0.3-0.6-0.4-0.9 c0.3-0.1,0.6-0.3,0.9-0.4C14.5,36.7,15.2,36.3,15.9,36z M23,36.2c0.1,0.3,0.1,0.6,0.2,1c-1.5,0.3-2.9,0.3-4.4,0.2c0-0.3,0-0.7,0-1 C20.2,36.5,21.6,36.5,23,36.2z M29,35.2c-1.3,0.7-2.7,1.2-4.1,1.6c-0.1-0.3-0.2-0.6-0.2-1c1.4-0.4,2.7-0.9,3.9-1.5 C28.7,34.6,28.9,34.9,29,35.2z M33.2,30.7c0.2,0.2,0.5,0.4,0.7,0.7c-1,1.1-2.1,2.1-3.4,2.9c-0.2-0.3-0.3-0.5-0.5-0.8 C31.2,32.7,32.3,31.8,33.2,30.7z M37.3,26.1c-0.6,1.4-1.3,2.7-2.2,3.9c-0.3-0.2-0.5-0.4-0.8-0.6c0.9-1.1,1.5-2.4,2.1-3.7 C36.7,25.8,37,26,37.3,26.1z" />
</svg>