<!-- (c) Carrd Inc. All rights reserved. All logos and trademarks are property of their respective owners. -->
<svg xmlns="http://www.w3.org/2000/svg" id="icon">
<path d="M39.5,34.6c-0.6,0.4-1.2,0.8-1.9,1.2c-0.4,0.2-0.6,0.2-1-0.1c-1.6-1.3-3.3-2.5-4.9-3.8 c-2.1-1.6-4.2-3.3-6.3-4.9c-0.2-0.2-0.3-0.1-0.5,0c-1.3,0.9-2.5,1.8-3.8,2.7c-0.4,0.3-0.8,0.5-1.3,0.4c-0.1,0-0.2,0-0.2-0.1 c-0.3-0.1-0.3-0.2-0.1-0.4c1.4-1.3,2.7-2.6,4.1-3.8c1.5-1.4,3-2.8,4.5-4.1c0.3-0.2,0.5-0.5,0.8-0.7c0.2-0.2,0.2-0.2,0.3,0.1 c0.3,0.7,0.3,1.4,0,2.1c0,0,0,0,0,0.1c-0.2,0.4-0.1,0.7,0.3,1c0.7,0.6,1.4,1.3,2.1,2c1.8,1.7,3.6,3.5,5.4,5.3 c0.9,0.9,1.8,1.7,2.7,2.6c0.1,0.1,0.1,0.1,0.2,0.2C39.8,34.4,39.7,34.5,39.5,34.6z M36.8,27.8c-0.5-0.5-1.1-1.1-1.6-1.6 c-0.1-0.1-0.1-0.2-0.1-0.3c0.7-2.1,0.9-4.3,0.7-6.5c-0.3-3.7-1.7-7-4.2-9.8C29.7,7.5,27.4,6,24.7,5c-2.2-0.8-4.6-1-6.9-0.9 c-1.3,0.1-2.5,0.3-3.7,0.7c-0.1,0-0.2,0-0.3,0c-0.6-0.6-1.1-1.1-1.7-1.7c0,0,0-0.1,0-0.1c5.6-2.4,14.7-2.2,21.1,4.7 c6.1,6.6,5.9,15.2,3.7,20.1C36.9,27.9,36.8,27.9,36.8,27.8z M15.8,11.3c-0.7,1-1.5,2.1-2.2,3.1c-0.1,0.1-0.2,0.3-0.3,0.4 c-0.2-0.3-0.4-0.5-0.6-0.8C10.2,11,7.8,7.9,5.4,4.8C5,4.3,4.7,3.9,4.3,3.4C4,3,4,2.7,4.3,2.3c0.4-0.7,0.9-1.3,1.3-2 C5.6,0.2,5.7,0.1,5.9,0C6,0.1,6,0.2,6.1,0.4C7.6,1.8,9,3.3,10.4,4.8c1.8,1.8,3.5,3.6,5.3,5.5C16.2,10.7,16.2,10.7,15.8,11.3z M12.8,25c-0.4,0.8-0.9,1.6-1.3,2.4c-0.4-0.4-0.7-0.7-1.1-1.1c-0.8-0.8-1.5-1.7-2.3-2.5c-0.3-0.3-0.3-0.4-0.1-0.8 c0.2-0.3,0.4-0.6,0.5-0.9c0.1-0.1,0.1-0.2,0.3-0.1C10.1,22.9,11.4,23.9,12.8,25C12.7,24.9,12.7,24.9,12.8,25z M20.2,14.9 c0.1,0.1,0.1,0.2,0,0.3c-1.1,1.4-2.2,2.8-3.3,4.3c0,0,0,0-0.1,0.1c-0.3-0.4-0.6-0.7-0.9-1.1c-0.2-0.2-0.3-0.4-0.5-0.6 c-0.1-0.2-0.2-0.2-0.4-0.1c-1.1,0.9-2.2,1.8-3.2,2.6c-0.3,0.2-0.6,0.4-0.9,0.5c-0.3,0.1-0.5,0-0.8-0.2c3-3.3,6-6.5,9.1-9.8 c0.5,0.8,0.6,1.6,0.3,2.4c-0.1,0.2-0.1,0.4-0.1,0.6c0,0.1,0,0.3,0.1,0.3C19.7,14.4,19.9,14.6,20.2,14.9z M25.8,20.5 c0.1,0.1,0.1,0.2,0,0.3c-1,1.3-2.1,2.5-3.1,3.8c-0.1,0.2-0.2,0.1-0.4,0c-0.5-0.4-1.1-0.9-1.7-1.3c-0.2-0.1-0.3-0.1-0.4,0 c-1.6,1.3-3.3,2.5-4.9,3.8c-0.2,0.2-0.2,0.3-0.1,0.5c0.9,1.2,1.8,2.4,2.7,3.6c0,0,0.1,0.1,0.1,0.2c-0.1,0.1-0.1,0.1-0.2,0.2 c-0.3,0.2-0.5,0.3-0.8,0.5c-0.5,0.3-0.5,0.3-0.9-0.1c-1.1-1-2.3-2.1-3.4-3.1c-0.1-0.1-0.2-0.1-0.4-0.1c-0.3,0.1-0.7,0.1-1-0.1 c4.5-4.5,8.9-8.9,13.4-13.4c0,0,0.1,0,0.1,0.1c0.5,0.9,0.7,1.9,0.3,2.9c-0.1,0.4-0.2,0.8-0.3,1.2c0,0.1,0,0.2,0.1,0.3 C25.3,20,25.6,20.3,25.8,20.5z M5.4,8.8c0.3,0.3,0.5,0.7,0.8,1c0.1,0.1,0.1,0.3,0,0.4c-1.3,1.6-2.3,3.3-2.9,5.2 c-0.8,2.4-1,4.8-0.8,7.2c0.3,2.7,1.2,5.2,2.7,7.4c1.1,1.7,2.5,3.1,4.1,4.2c1.3,0.9,2.6,1.7,4.1,2.2c2.1,0.7,4.2,1.1,6.4,1 c3.4-0.1,6.5-1.2,9.2-3.2c0.3-0.2,0.5-0.4,0.7-0.6c0.1-0.1,0.2-0.1,0.3,0c0.6,0.4,1.2,0.9,1.8,1.4c-0.1,0.1-0.1,0.1-0.1,0.2 c-2,1.7-4.2,3-6.7,3.8c-1.4,0.5-2.8,0.7-4.3,0.9c-0.1,0-0.2,0.1-0.3,0.1c-0.8,0-1.6,0-2.5,0c-0.3,0-0.7-0.1-1-0.1 c-1.8-0.2-3.5-0.7-5.2-1.4c-2.6-1.1-4.9-2.7-6.8-4.8c-2.8-3.1-4.5-6.8-4.9-11c0-0.2-0.1-0.3-0.1-0.4c0-0.9,0-1.8,0-2.7 c0-0.2,0.1-0.5,0.1-0.7c0.2-1.6,0.5-3.2,1.1-4.7c0.7-1.7,1.5-3.3,2.7-4.8c0.3-0.4,0.6-0.8,1-1.2C5.1,8.4,5.3,8.6,5.4,8.8z"/>
</svg>