<!-- (c) Carrd Inc. All rights reserved. All logos and trademarks are property of their respective owners. -->
<svg xmlns="http://www.w3.org/2000/svg" id="icon">
<path d="M8.5,2.5C9,2.7,9.4,3,9.8,3.2c3.6,2.1,7.2,4.1,10.7,6.2c0.7,0.4,0.9,1,0.9,1.8c0,2.4,0,4.7,0,7.1c0,0.5,0.1,0.6,0.6,0.3 c2.9-1.6,5.7-3.3,8.6-4.9c0.4-0.2,0.6-0.2,1,0c0.7,0.4,1.4,0.8,2.1,1.3c0.4,0.3,0.4,0.3,0,0.5c-2.6,1.5-5.3,3-7.9,4.5 c-1.4,0.8-2.7,1.6-4.1,2.3c-0.2,0.1-0.3,0.2-0.3,0.5c0,2.5,0,5,0,7.4c0,0.3,0.1,0.4,0.3,0.6c3,1.7,5.9,3.4,8.8,5 c1.1,0.6,2.2,1.2,3.3,1.9c0.1,0,0.1,0.1,0.3,0.2c-0.3,0.2-0.6,0.3-0.8,0.5c-0.6,0.4-1.3,0.7-1.9,1.1c-0.2,0.1-0.4,0.1-0.6,0 c-3.8-2.1-7.6-4.3-11.4-6.5c-0.7-0.4-1.1-1-1.1-1.8c0-2.1,0-4.2,0-6.2c0-0.7,0-0.7-0.6-0.4c-2.9,1.6-5.8,3.3-8.6,5 c-1.1,0.6-2.7,0.1-3.2-1.1c0-0.1-0.1-0.2-0.2-0.2c0-8,0-16,0-24.1C5.9,4.1,5.9,4,6,3.9C6.2,3.4,6.6,3,7,2.7c0.1-0.1,0.3-0.2,0.4-0.2 C7.8,2.5,8.2,2.5,8.5,2.5z M8.9,26.1C9.1,26,9.2,26,9.3,25.9c2.9-1.7,5.9-3.4,8.8-5.1c0.2-0.1,0.3-0.3,0.3-0.6c0-2.7,0-5.5,0-8.2 c0-0.3-0.1-0.4-0.3-0.6c-2.9-1.7-5.9-3.4-8.8-5C9.2,6.4,9.1,6.3,8.9,6.3C8.9,12.9,8.9,19.4,8.9,26.1z"/>
</svg>