<!-- (c) Carrd Inc. All rights reserved. All logos and trademarks are property of their respective owners. -->
<svg xmlns="http://www.w3.org/2000/svg" id="icon">
<path d="M39.5,29.2c0,0.2-0.1,0.4-0.2,0.6c-0.2,0.5-0.5,0.8-1.1,0.8c-0.3,0-0.5,0.1-0.8,0.1c-0.2,0-0.2,0.1-0.2,0.3 c-0.2,0.7-0.3,1.5-0.5,2.2c-0.1,0.3-0.2,0.4-0.5,0.4c-0.3,0-0.6,0-0.9,0c-0.2,0-0.3-0.1-0.2-0.3c0.3-1.2,0.5-2.4,0.8-3.6 c0.2-1.1,0.5-2.3,0.7-3.5c0-0.2,0.1-0.3,0.3-0.3c0.7,0,1.4,0.1,2.1,0.1c0.5,0,0.8,0.2,0.9,0.7c0,0.1,0,0.1,0,0.2 C39.8,27.7,39.7,28.4,39.5,29.2z M37.9,27.6c-0.1,0.5-0.2,0.9-0.3,1.4c0,0.2-0.1,0.3-0.1,0.5c0.3,0.1,0.4,0,0.4-0.3 c0.1-0.4,0.2-0.8,0.2-1.2c0-0.2,0.1-0.4,0.1-0.6C38.1,27.3,38,27.4,37.9,27.6z M39.8,19c0,0.2,0,0.3-0.2,0.4 c-0.3,0.1-0.5,0.3-0.7,0.3c-0.2,0-0.4-0.3-0.6-0.5c-0.9-0.9-2.3-1.2-3.5-0.7c-1.2,0.5-1.9,1.6-1.9,2.9c0,0.1,0,0.1,0,0.2 c0,0.2-0.1,0.3-0.3,0.3c-0.3,0-0.6,0-0.9,0c-0.3,0-0.3-0.1-0.3-0.3c0.1-1.6-0.9-2.9-2.4-3.2c-2.1-0.5-4,1-3.9,3.2 c0,0.3-0.1,0.4-0.4,0.4c-0.3,0-0.6,0-0.9,0c-0.3,0-0.3-0.1-0.2-0.3c0.4-0.9,0.8-1.7,1.2-2.6c0-0.1,0.1-0.2,0.1-0.3 c-0.1,0-0.3,0-0.4,0c-4.7,0-9.4,0-14.1,0c-0.3,0-0.4-0.1-0.6-0.3c-0.8-1-1.8-1.7-3.1-2c-1.4-0.3-2.8,0-4,0.7c-0.8,0.5-1.5,1-2.2,1.6 c-0.1,0-0.1,0.1-0.2,0.2c-0.2-0.2,0-0.3,0.1-0.4c0.8-0.7,1.5-1.4,2.3-2.2c0.2-0.2,0.5-0.5,0.6-0.8c0.2-0.3,0.4-0.4,0.7-0.5 c1.4-0.4,2.8-0.7,4.2-1.1c0.1,0,0.2-0.1,0.2-0.2c0.8-2,2.1-3.4,3.8-4.7c2.3-1.7,4.9-2.7,7.7-3.3c1.3-0.3,2.7-0.5,4.1-0.7 c0.4-0.1,0.5,0,0.5,0.4c0.1,1.1,0.2,2.3,0.2,3.4c0,2.9-0.1,5.8-0.1,8.7c0,0.1,0,0.1,0,0.2c0.1,0,0.2,0,0.3,0c4.9,0,9.7,0,14.6,0 c0.1,0,0.3,0,0.4,0.1c0,0,0,0.1,0,0.1C39.8,18.3,39.7,18.7,39.8,19z M15,15.1c0.2,0,0.3,0,0.5,0c0,0,0,0,0,0c0.2,0,0.3,0,0.5,0 c0.1,0,0.1-0.1,0.2-0.2c-0.1-0.1-0.1-0.2-0.2-0.2c-0.3,0-0.6,0-1,0c-0.1,0-0.1,0.1-0.2,0.2C14.9,15,14.9,15.1,15,15.1z M16.4,8.5 c0-0.1,0-0.2,0-0.3c-0.1,0-0.1,0-0.1,0c-0.9,0.5-1.8,0.9-2.6,1.4c-1.5,0.9-2.6,2.1-3.2,3.8c-0.1,0.4-0.2,0.8-0.3,1.3 c0.7-0.1,1.3-0.2,1.8-0.2c1.4-0.2,2.7-0.4,4.1-0.5c0.2,0,0.3-0.1,0.3-0.3C16.4,12,16.4,10.3,16.4,8.5z M32.8,17.6 c-0.3,0-0.5,0-0.8,0c-0.1,0-0.1-0.1-0.2-0.2c0.1,0,0.2-0.1,0.2-0.1c0.3,0,0.7,0,1,0c0,0,0,0.1,0,0.1C32.9,17.5,32.9,17.6,32.8,17.6z M26.6,5.3c-0.5,0.2-0.5,0.6-0.5,1.1c-0.1,3.7-0.2,7.3-0.3,11c0,0.1,0,0.1,0,0.2c0,0.2-0.1,0.3-0.3,0.3c-0.2,0-0.2-0.1-0.2-0.3 c0-1.1,0-2.2,0-3.2c0-1,0-2,0-2.9c0-2,0-4,0-6c0-0.6,0.8-1.1,1.3-0.9c0.1,0.1,0.2,0.3,0.2,0.4C26.8,5,26.7,5.2,26.6,5.3z M0.4,18.2 c0-0.5,0.1-0.9,0.1-1.4c0-0.4,0.2-0.6,0.6-0.7c0.6-0.2,1.3-0.4,1.9-0.6c0,0,0.1,0,0.2,0c-0.7,1.1-1.7,1.9-2.6,2.7 C0.5,18.2,0.4,18.2,0.4,18.2z M4.8,16.7c1.6-0.3,2.9,0.1,4.1,1.1c0.3,0.3,0.6,0.5,0.8,0.8c0.2,0.2,0.4,0.3,0.7,0.3c4.5,0,9,0,13.5,0 c0.6,0,0.6,0,0.3,0.5c-0.4,0.9-0.8,1.8-1.3,2.6c-0.1,0.2-0.2,0.3-0.4,0.3c-2.2,0-4.3,0-6.5,0c0,0,0,0,0,0c-2.1,0-4.2,0-6.4,0 c-0.4,0-0.4,0-0.5-0.4c-0.2-0.9-0.5-1.8-1-2.6c-1.2-1.9-4.7-1.7-5.6,0.5c-0.3,0.6-0.4,1.3-0.6,2c-0.1,0.4-0.1,0.4-0.5,0.4 c-1.2,0-1.5-0.3-1.5-1.5c0-1.1,0-1.1,0.8-1.9C2,17.9,3.3,17.1,4.8,16.7z M1.3,27.9c0-0.2,0.1-0.4,0.1-0.6c-0.2,0-0.3,0-0.4,0 c-0.2,0-0.3-0.1-0.2-0.3c0.1-0.2,0.1-0.5,0.2-0.7C1,26,1.1,26,1.3,26c0.8,0,1.6,0,2.4,0C4,26,4,26.1,4,26.3c0,0.1-0.1,0.3-0.1,0.4 c-0.1,0.5-0.1,0.5-0.6,0.6C3,27.3,3,27.4,3,27.6c-0.3,1.5-0.6,3-1,4.5c-0.1,0.4-0.2,0.8-0.2,1.1c0,0.2-0.2,0.4-0.4,0.4 c-0.3,0-0.6,0-1,0c-0.2,0-0.3-0.1-0.2-0.3C0.5,31.5,0.9,29.7,1.3,27.9z M3.3,30.8c0.3-1.2,0.5-2.4,0.8-3.6c0.1-0.4,0.1-0.7,0.2-1.1 c0-0.1,0.1-0.2,0.2-0.2c0.8,0,1.7,0,2.5,0.1c0.4,0,0.6,0.3,0.6,0.7c-0.1,0.6-0.2,1.3-0.4,1.9c-0.1,0.3-0.4,0.5-0.6,0.7 c0.5,0.3,0.3,0.8,0.2,1.2c-0.2,0.9-0.4,1.8-0.6,2.7c0,0.2-0.1,0.2-0.3,0.2c-0.3,0-0.7,0-1,0c-0.2,0-0.3-0.1-0.3-0.3 c0.2-1,0.5-2.1,0.7-3.1c0,0,0,0,0-0.1C5.2,30,5.1,30,5,30.2c-0.2,1-0.4,2-0.6,3c0,0.2-0.1,0.3-0.3,0.3c-0.3,0-0.7,0-1,0 c-0.2,0-0.3-0.1-0.2-0.3C3,32.4,3.2,31.6,3.3,30.8z M5.4,28.8c0.1-0.1,0.3-0.1,0.3-0.2c0.1-0.4,0.2-0.7,0.2-1.1 c0-0.1-0.1-0.2-0.1-0.2c-0.1,0-0.2,0.1-0.2,0.1C5.5,27.9,5.4,28.3,5.4,28.8C5.4,28.8,5.4,28.8,5.4,28.8z M5.5,24.1 c-1.5,0-2.6-1.2-2.6-2.7c0-1.4,1.2-2.6,2.7-2.6c1.5,0,2.7,1.2,2.7,2.7C8.2,22.9,7,24.1,5.5,24.1z M5.6,19.3c-1.2-0.1-2.2,1-2.2,2.1 c0,1.2,0.9,2.2,2.1,2.2c1.2,0,2.2-0.9,2.2-2.1C7.7,20.1,6.6,19.2,5.6,19.3z M5.6,23C4.7,23,4,22.2,4,21.4c0-0.9,0.7-1.6,1.6-1.6 c0.8,0,1.6,0.8,1.5,1.6C7.1,22.3,6.4,22.9,5.6,23z M7.7,29.5c0.2-1,0.4-2.1,0.7-3.1C8.4,26.1,8.5,26,8.8,26c0.3,0,0.6,0,0.9,0 c0.2,0,0.3,0.1,0.2,0.3c-0.3,1.6-0.7,3.2-1,4.7c-0.1,0.3-0.1,0.6-0.2,1c0,0.1,0.1,0.2,0.1,0.3C8.9,32.1,9,32.1,9,32 c0.1-0.6,0.3-1.1,0.4-1.7c0.3-1.3,0.6-2.7,0.9-4c0-0.2,0.1-0.3,0.4-0.3c0.3,0,0.6,0,0.9,0c0.2,0,0.3,0.1,0.2,0.3c-0.2,1-0.4,2-0.6,3 c-0.2,1-0.4,2-0.7,3c-0.2,0.9-0.5,1.3-1.4,1.3c0,0-0.1,0-0.1,0c-0.3,0-0.7,0-1,0c0,0-0.1,0-0.1,0c-0.7-0.1-0.9-0.4-0.8-1.1 C7.2,31.5,7.4,30.5,7.7,29.5z M11.4,30.8c0.3-1.2,0.5-2.4,0.8-3.6c0.1-0.3,0.2-0.6,0.4-0.9c0.2-0.3,0.6-0.4,1-0.4c0.5,0,1,0,1.5,0.1 c0.5,0.1,0.7,0.3,0.6,0.8c-0.1,0.6-0.2,1.3-0.3,1.9c-0.1,0.6-0.1,0.6-0.7,0.5c-0.2,0-0.4,0-0.6,0c-0.2,0-0.3-0.1-0.3-0.3 c0.1-0.4,0.2-0.9,0.3-1.3c0-0.1,0-0.2-0.1-0.3c-0.1,0.1-0.2,0.2-0.2,0.3c-0.3,1.4-0.6,2.8-0.9,4.3c0,0.1,0,0.2,0.1,0.3 c0.1-0.1,0.2-0.2,0.2-0.3c0.1-0.5,0.2-0.9,0.3-1.4c0-0.2,0.1-0.3,0.3-0.3c0.3,0,0.7,0,1,0c0.2,0,0.3,0.1,0.2,0.3 c-0.2,0.6-0.3,1.3-0.4,1.9c-0.2,0.7-0.6,1.2-1.4,1.2c0,0-0.1,0-0.1,0c-0.3,0-0.7,0-1,0c-0.1,0-0.2,0-0.4-0.1 c-0.5-0.1-0.7-0.4-0.6-0.9C11.1,32,11.2,31.4,11.4,30.8z M15.3,31.1c0.3-1.5,0.6-3,0.9-4.5C16.3,26,16.3,26,17,26c0.2,0,0.5,0,0.7,0 c0.2,0,0.3,0.1,0.3,0.3c-0.2,0.7-0.3,1.4-0.5,2.1c0,0.1,0,0.2,0,0.2c0,0,0.1,0,0.1,0c0.1-0.2,0.1-0.4,0.2-0.6 c0.2-0.6,0.4-1.2,0.6-1.8c0.1-0.2,0.2-0.2,0.3-0.2c0.3,0,0.7,0,1,0c0.3,0,0.3,0.1,0.2,0.3c-0.4,0.9-0.7,1.7-1.1,2.6 c-0.1,0.1-0.1,0.3-0.1,0.4c0,1.3-0.1,2.6-0.1,3.9c0,0.3-0.1,0.4-0.4,0.4c-0.3,0-0.7,0-1,0c-0.2,0-0.3-0.1-0.2-0.2 c0.1-0.9,0.1-1.8,0.2-2.7c0-0.2,0-0.4,0.1-0.6c0,0-0.1,0-0.1,0c-0.1,0.3-0.1,0.6-0.2,0.9c-0.2,0.8-0.3,1.6-0.5,2.4 c0,0.1-0.2,0.2-0.3,0.2c-0.3,0-0.6,0-1,0c-0.4,0-0.4,0-0.3-0.4C15,32.5,15.1,31.8,15.3,31.1z M20.1,27.6c0.1-0.4,0.2-0.9,0.3-1.3 c0-0.2,0.1-0.3,0.4-0.3c0.6,0,1.2,0,1.8,0c0.3,0,0.3,0.1,0.3,0.3c-0.1,0.2-0.1,0.5-0.2,0.7c0,0.2-0.1,0.3-0.3,0.3 c-0.1,0-0.1,0-0.2,0c-0.4,0-0.4,0-0.4,0.5c0.2,0,0.3,0,0.5,0c0.2,0,0.2,0.1,0.2,0.2c-0.1,0.3-0.1,0.6-0.2,0.9c0,0.1-0.1,0.1-0.2,0.2 c-0.1,0-0.3,0-0.4,0c-0.1,0-0.2,0.1-0.2,0.2c-0.2,0.9-0.4,1.8-0.6,2.7c0,0,0,0.1,0,0.2c0.2,0,0.4,0,0.5,0c0.2,0,0.3,0.1,0.2,0.3 c-0.1,0.3-0.1,0.6-0.2,0.9c0,0.1-0.2,0.2-0.2,0.2c-0.6,0-1.3,0-1.9,0c-0.2,0-0.2-0.1-0.2-0.2C19.3,31.4,19.7,29.5,20.1,27.6z M22.1,31.6c0.2-1,0.4-2,0.7-3.1c0.2-0.8,0.3-1.6,0.5-2.4c0-0.1,0.1-0.2,0.2-0.2c0.8,0,1.6,0,2.5,0.1c0.5,0,0.7,0.3,0.6,0.8 c-0.1,0.6-0.2,1.1-0.3,1.6c-0.1,0.4-0.4,0.7-0.7,0.9c0.5,0.4,0.4,0.9,0.3,1.3c-0.2,0.9-0.4,1.7-0.5,2.6c0,0.2-0.1,0.3-0.3,0.3 c-0.3,0-0.6,0-0.9,0c-0.3,0-0.4-0.1-0.3-0.4c0.1-0.7,0.3-1.3,0.4-2c0.1-0.3,0.1-0.6,0.2-0.9c0-0.1,0-0.1-0.1-0.2 c-0.1,0-0.2,0.1-0.2,0.1c-0.1,0.4-0.2,0.8-0.3,1.2c-0.1,0.7-0.3,1.4-0.4,2c0,0.1-0.1,0.2-0.2,0.2c-0.4,0-0.8,0-1.2,0 c-0.2,0-0.2-0.1-0.2-0.3C21.9,32.7,22,32.2,22.1,31.6z M24.4,28.8c0.1-0.1,0.3-0.1,0.3-0.2c0.1-0.3,0.2-0.7,0.2-1.1 c0-0.1-0.1-0.1-0.2-0.2c-0.1,0.1-0.2,0.1-0.2,0.2c-0.1,0.3-0.2,0.6-0.2,0.9C24.3,28.6,24.4,28.7,24.4,28.8z M28.3,24.1 c-1.4,0-2.7-1.2-2.6-2.7c0-1.5,1.2-2.7,2.7-2.7c1.5,0,2.7,1.2,2.7,2.7C30.9,22.9,29.7,24.1,28.3,24.1z M28.3,19.3 c-1.1-0.1-2.2,0.8-2.2,2.1c0,1.3,1.1,2.2,2.2,2.1c1.2,0,2.2-1,2.2-2.1C30.4,20,29.3,19.2,28.3,19.3z M28.3,23.1 c-0.9,0-1.6-0.8-1.6-1.7c-0.1-0.7,0.6-1.6,1.7-1.7c0.9,0,1.7,0.8,1.7,1.7C29.9,22.4,29.2,23.1,28.3,23.1z M26.3,30.8 c0-0.2,0.2-0.3,0.4-0.3c0.3,0,0.6,0,0.9,0c0.2,0,0.3,0.1,0.3,0.3c-0.1,0.4-0.2,0.8-0.2,1.1c0,0.1,0,0.2,0.1,0.3 c0.1-0.1,0.2-0.1,0.2-0.2c0.1-0.4,0.2-0.9,0.3-1.3c0-0.1-0.1-0.3-0.2-0.4c-0.3-0.2-0.6-0.4-0.9-0.6c-0.3-0.2-0.4-0.5-0.3-0.8 c0.1-0.7,0.3-1.4,0.5-2c0.1-0.5,0.5-0.8,1-0.8c0.6,0,1.2,0,1.8,0c0.4,0,0.7,0.4,0.6,0.8c-0.1,0.5-0.2,1-0.3,1.5 c0,0.1-0.2,0.2-0.3,0.2c-0.4,0-0.7,0-1.1,0c-0.2,0-0.3-0.1-0.2-0.3c0.1-0.3,0.1-0.5,0.2-0.8c0,0-0.1-0.1-0.1-0.1 c-0.1,0.1-0.2,0.1-0.3,0.2c-0.1,0.3-0.1,0.6-0.2,0.8c0,0.1,0.1,0.3,0.2,0.3c0.3,0.2,0.5,0.4,0.8,0.6c0.5,0.3,0.5,0.8,0.4,1.2 c-0.1,0.7-0.3,1.3-0.4,2c-0.2,0.7-0.6,1.1-1.3,1.1c0,0-0.1,0-0.1,0c-0.3,0-0.7,0-1,0c0,0,0,0,0,0c-0.9-0.1-1-0.5-0.8-1.3 C26,31.8,26.2,31.3,26.3,30.8z M33.4,21.4c0-1.5,1.2-2.7,2.7-2.7c1.4,0,2.6,1.2,2.6,2.7c0,1.5-1.2,2.7-2.6,2.7 C34.6,24.1,33.4,22.9,33.4,21.4z M36,23.6c1.4,0,2.2-1.1,2.2-2.1c0-1.1-0.7-2.2-2.2-2.2c-1.4,0-2.2,1.1-2.2,2.1 C33.9,22.4,34.6,23.5,36,23.6z M36.1,19.7c0.9,0,1.6,0.6,1.7,1.7c0,0.9-0.8,1.7-1.7,1.7c-0.9,0-1.7-0.8-1.7-1.7 C34.4,20.5,35.2,19.7,36.1,19.7z M30.4,30.3c0.3-1.3,0.6-2.6,0.8-4c0.1-0.2,0.2-0.3,0.4-0.3c0.4,0,0.9,0,1.3,0 c0.3,0,0.4,0.1,0.3,0.4c-0.1,0.9-0.3,1.9-0.4,2.8c0,0.1,0,0.3,0,0.4c0,0,0.1,0,0.1,0c0.1-0.4,0.2-0.7,0.3-1.1 c0.2-0.7,0.4-1.5,0.7-2.2c0-0.1,0.2-0.2,0.3-0.3c0.5,0,1,0,1.5,0c0.2,0,0.3,0.1,0.2,0.3c-0.2,1-0.4,2-0.6,2.9 c-0.3,1.3-0.6,2.6-0.8,3.8c0,0.1,0,0.2-0.1,0.3c0,0.2-0.1,0.3-0.4,0.3c-0.3,0-0.6,0-0.9,0c0.3-1.5,0.6-2.8,0.9-4.2c0,0-0.1,0-0.1,0 c-0.1,0.5-0.3,1-0.4,1.5c-0.3,0.8-0.5,1.7-0.8,2.5c-0.1,0.2-0.1,0.3-0.4,0.3c-0.2,0-0.4,0-0.7,0c-0.2,0-0.3-0.1-0.3-0.3 c0.2-1.2,0.3-2.4,0.4-3.7c0-0.1,0-0.2,0-0.3c0,0-0.1,0-0.1,0c-0.1,0.6-0.3,1.3-0.4,1.9c-0.2,0.7-0.3,1.4-0.4,2.1 c0,0.2-0.1,0.3-0.3,0.2c-0.2,0-0.4,0-0.6,0c-0.3,0-0.3-0.1-0.3-0.4C30,32.2,30.2,31.3,30.4,30.3z"/>
</svg>