<!-- (c) Carrd Inc. All rights reserved. All logos and trademarks are property of their respective owners. -->
<svg xmlns="http://www.w3.org/2000/svg" id="icon">
<path d="M37.5,19.7C37.3,20,37.1,20,36.8,20c-1.1,0-2.2,0-3.3,0c-0.5,0-0.6-0.1-0.7-0.6c-0.3-6.1-4.9-11.2-10.9-12.1 c-6.7-1-12.9,3.3-14.4,10c-1.6,7.1,3.2,14.2,10.4,15.4c0.5,0.1,1.1,0.1,1.6,0.2c0.4,0,0.5,0.2,0.5,0.6c0,1.2,0,2.4,0,3.5 c0,0.2-0.2,0.4-0.3,0.6c-0.3,0-0.6,0-0.9,0c-0.1,0-0.2,0-0.2-0.1c-1.8-0.1-3.5-0.5-5.2-1.2c-5.9-2.6-9.5-7-10.7-13.4 c-0.1-0.6-0.2-1.2-0.2-1.8c0-0.7,0-1.4,0-2.1c0-0.1,0-0.2,0.1-0.3c0.2-2.8,1-5.4,2.5-7.7c2.8-4.5,6.8-7.3,12.1-8.2 c0.6-0.1,1.2-0.2,1.9-0.2c0.7,0,1.4,0,2.1,0c0.1,0,0.2,0,0.3,0.1c2.3,0.2,4.5,0.7,6.5,1.8c5.2,2.7,8.4,7,9.5,12.8 c0.1,0.6,0.2,1.2,0.2,1.8C37.5,19.2,37.5,19.5,37.5,19.7z M29.5,20c0.5,0,0.6-0.1,0.6-0.6c0-0.4-0.1-0.7-0.1-1.1 C29,12.7,23.6,9,18.1,10.1c-4.2,0.8-7.4,4.1-8.1,8.4c-0.7,4.2,1.3,8.2,4.9,10.3c1.4,0.8,2.9,1.3,4.6,1.4c0.4,0,0.6-0.1,0.6-0.4 c0-1,0-2,0-3c0-0.3-0.2-0.4-0.4-0.4c-0.2,0-0.4,0-0.6-0.1c-3.3-0.6-5.6-3.5-5.2-6.8c0.3-2.3,1.5-4,3.6-5c2.1-1,4.3-0.8,6.2,0.6 c1.5,1.1,2.4,2.6,2.6,4.4c0.1,0.5,0.2,0.6,0.7,0.6c0.4,0,0.8,0,1.2,0C28.6,20,29,20,29.5,20z"/>
</svg>