<!-- (c) Carrd Inc. All rights reserved. All logos and trademarks are property of their respective owners. -->
<svg xmlns="http://www.w3.org/2000/svg" id="icon">
<path d="M37.5,21.9c0,4,0,8,0,12c0,0.1,0,0.3,0,0.4c0,1.4-0.7,2.2-2.2,2.4c-1.7,0.1-3.3,0.2-5,0.3 c-3.4,0.2-6.7,0.4-10.1,0.6c-3,0.2-5.9,0.3-8.9,0.5C10,38.2,9,37.8,8.2,36.7c-0.2-0.3-0.5-0.6-0.7-1c-1.2-1.6-2.5-3.2-3.7-4.8 c-0.8-1.1-1.3-2.2-1.3-3.7c0-7.1,0-14.1,0-21.2c0-0.3,0-0.5,0.1-0.8c0.2-1,0.8-1.7,1.9-1.8c1.7-0.2,3.5-0.3,5.2-0.4 c2.8-0.2,5.5-0.4,8.3-0.6c2.7-0.2,5.3-0.4,8-0.6c1.4-0.1,2.6,0.3,3.7,1.1c2.3,1.7,4.7,3.3,7.1,5c0.6,0.4,0.8,0.9,0.8,1.7 C37.5,13.7,37.5,17.8,37.5,21.9z M32.1,7.2c-1.1-0.8-2.3-1.6-3.4-2.5c-0.8-0.6-1.6-0.9-2.6-0.8c-1.9,0.1-3.7,0.3-5.6,0.4 c-4,0.3-7.9,0.6-11.9,0.9C7.8,5.2,7,5.3,6.1,5.4c-0.2,0-0.4,0.2-0.4,0.3c0,0.1,0.1,0.3,0.3,0.4c0.9,0.8,1.9,1.5,2.8,2.2 C9.3,8.8,9.9,9,10.6,9c0.3,0,0.6,0,1,0c2.9-0.2,5.8-0.4,8.6-0.5C24,8.2,27.8,8,31.7,7.8c0.3,0,0.5-0.1,0.8-0.1c0,0,0-0.1,0.1-0.1 C32.4,7.4,32.3,7.3,32.1,7.2z M35.1,11.5c0-1-0.4-1.4-1.4-1.3c-2.9,0.2-5.7,0.3-8.6,0.5c-3.5,0.2-7,0.4-10.6,0.6 c-1.2,0.1-2.5,0.1-3.7,0.2c-0.7,0-1,0.3-1.1,1c0,0.2,0,0.4,0,0.6c0,6.8,0,13.6,0,20.4c0,1.6,0.4,2,2,1.9c1.6-0.1,3.2-0.2,4.8-0.3 c5.7-0.3,11.4-0.7,17.1-1c0.9-0.1,1.3-0.5,1.4-1.4c0-0.2,0-0.3,0-0.5c0-3.4,0-6.8,0-10.2C35.1,18.5,35.1,15,35.1,11.5z M30.7,15.4 c-0.9,0.2-0.9,0.2-0.9,1.1c0,4.7,0,9.5,0,14.2c0,0.3-0.1,0.5-0.4,0.6c-0.6,0.2-1.1,0.4-1.7,0.5c-0.9,0.2-1.7-0.1-2.3-0.8 c-0.8-1.1-1.5-2.2-2.2-3.3c-1.7-2.6-3.3-5.2-5-7.8c0-0.1-0.1-0.1-0.2-0.2c0,0.2,0,0.3,0,0.4c0,3.2,0,6.4,0,9.7 c0,0.3,0.1,0.4,0.4,0.5c0.6,0.1,1.2,0.3,1.8,0.4c-0.1,0.7-0.4,1.1-1.1,1.2c-0.5,0.1-1,0.1-1.5,0.1C16.4,32,15.2,32,14,32.1 c-0.4,0-0.4-0.1-0.4-0.4c0.1-0.4,0.3-0.6,0.7-0.7c0.4-0.1,0.8-0.2,1.1-0.3c0-4.6,0-9.2,0-13.9c-0.6-0.1-1.2-0.1-1.7-0.2 c-0.2-0.8,0.3-1.5,1.1-1.6c1.5-0.1,3-0.2,4.5-0.3c0.6-0.1,0.9,0.2,1.3,0.7c2.1,3.3,4.3,6.5,6.4,9.8c0.1,0.1,0.2,0.2,0.3,0.5 c0-3.3,0-6.5,0-9.7c-0.5-0.1-1-0.1-1.5-0.2c-0.3,0-0.3-0.1-0.3-0.4c0.1-0.5,0.5-1,1-1c1.7-0.1,3.3-0.2,5-0.3 C31.7,14.8,31.5,15.2,30.7,15.4z"/>
</svg>