<!-- (c) Carrd Inc. All rights reserved. All logos and trademarks are property of their respective owners. -->
<svg xmlns="http://www.w3.org/2000/svg" id="icon">
<path d="M24.1,22.3c0.1-0.4,0-0.5-0.4-0.4v0c-1.5,0.5-4.1,1.1-7,0.5c-0.6-0.1-0.6-0.6,0-0.6c2.4-0.1,6-0.7,8-2.7 c1.4-1.5,2.2-3.8,3.1-6.3c1-2.9,2.1-6.2,4.5-9.1c0.1-0.1,0.1-0.1,0.2-0.2c0.5-0.5,1.1-1.1-1.1-1.1c-11,0-14.9,8.9-21.6,23.8 c-1.2,2.6-2.4,5.5-3.8,8.5c-0.1,0.3-0.2,0.5-0.4,0.7C5.3,36,5.1,36.6,5,37c0,0.3,0.2,0.6,0.5,0.6c1.3,0,2.6-2.3,3.9-4.5 c0.6-1,1.1-1.9,1.6-2.6c0.6-0.9,1.3-1.3,2.1-1.5c0.6-0.2,1.3-0.2,2.1-0.3c0.8-0.1,1.7-0.2,2.7-0.4C21.4,27.3,23.3,24.6,24.1,22.3z M31.1,34.3c0,1.8-1.5,3.3-3.3,3.3c-1.8,0-3.3-1.5-3.3-3.3c0-1.8,1.5-3.3,3.3-3.3C29.6,31,31.1,32.4,31.1,34.3z"/>
</svg>