<!-- (c) Carrd Inc. All rights reserved. All logos and trademarks are property of their respective owners. -->
<svg xmlns="http://www.w3.org/2000/svg" id="icon">
<path d="M20,37.4c-9.7,0-17.5-7.8-17.5-17.4c0-7.6,4.9-14,11.7-16.4V10c-3.5,2-5.8,5.8-5.8,10c0,6.4,5.2,11.6,11.7,11.6 c6.4,0,11.7-5.2,11.7-11.6c0-4.3-2.3-8-5.8-10V3.6C32.6,6,37.5,12.4,37.5,20C37.5,29.6,29.7,37.4,20,37.4z M17.1,25.3V11.8 c0.9-0.3,1.9-0.5,2.9-0.5c1,0,2,0.2,2.9,0.5v13.5C22,25.6,21,25.8,20,25.8S18,25.6,17.1,25.3z M17.1,8.8V2.8C18,2.7,19,2.6,20,2.6 c1,0,2,0.1,2.9,0.2v5.9C22,8.5,21,8.4,20,8.4S18,8.5,17.1,8.8z"/>
</svg>