<!-- (c) Carrd Inc. All rights reserved. All logos and trademarks are property of their respective owners. -->
<svg xmlns="http://www.w3.org/2000/svg" id="icon">
<path d="M39,17.8l-0.2,0.6c0,0.1,0,0.2-0.1,0.3c-0.1,0.2-0.1,0.5-0.2,0.7c-0.2,0.6-0.5,1.2-0.8,1.8c-0.5,1-1.2,2-2.3,3 c-3.3,3.3-6.6,6.6-9.9,9.8l-4.5,4.5c-0.1,0.1-0.1,0.1-0.2,0.2l-0.2,0.2L20.4,39h-1.1l-3.9-3.9c-3.5-3.5-7-7-10.5-10.4l-0.2-0.2 c-0.5-0.5-1.1-1.1-1.5-1.7c-0.4-0.5-0.8-1.1-1.1-1.9c-0.2-0.5-0.4-1.1-0.6-1.6c-0.1-0.3-0.2-0.6-0.2-0.9c0-0.1-0.1-0.3-0.1-0.4 c0,0,0-0.1,0-0.1L1,17.5v-2.8l0.1-0.1l0.1-0.3c0.1-0.3,0.1-0.6,0.2-0.9l0-0.1c0.1-0.5,0.3-1,0.5-1.5c0.2-0.5,0.5-1,0.9-1.7 c0.7-1,1.5-1.9,2.6-2.8c0.7-0.5,1.4-0.9,2.3-1.3C8.1,5.7,8.6,5.6,9,5.5c0.3-0.1,0.6-0.2,0.9-0.2c0.2,0,0.4-0.1,0.7-0.1L11,5l2.6,0 L14,5.1c0.3,0.1,0.7,0.2,1,0.2c0.2,0.1,0.5,0.1,0.7,0.2l0.2,0.1c0.7,0.2,1.3,0.5,2.1,1c0.7,0.4,1.4,0.9,2,1.6c0.6-0.5,1.1-1,1.7-1.4 c0.6-0.4,1.3-0.8,2-1.1c0.3-0.1,0.7-0.2,1-0.3l0.1,0c0.2-0.1,0.3-0.1,0.5-0.1L26.4,5l3.1,0l0.2,0.1c0.2,0,0.4,0.1,0.6,0.1l0.2,0.1 c0.4,0.1,0.7,0.2,1.1,0.3c0.8,0.3,1.6,0.7,2.2,1.1c1.7,1.1,2.9,2.5,3.8,4.1c0.3,0.6,0.5,1.2,0.8,1.8c0.1,0.2,0.1,0.5,0.2,0.7 c0,0.1,0,0.2,0.1,0.3c0,0.1,0.1,0.3,0.1,0.4l0.1,0.4L39,17.8z M26.4,7.4c-0.2,0.1-0.4,0.1-0.5,0.1c-0.1,0-0.3,0.1-0.4,0.1 c-0.3,0.1-0.7,0.3-1,0.4l-0.1,0.1c-0.8,0.3-1.6,0.8-2.3,1.5c-0.2,0.2-0.4,0.4-0.6,0.6l-0.3,0.3l-4.5,4.5l-0.8,0.8L7.4,24l3.1,3 L30.2,7.6c0,0,0,0-0.1,0c-0.1,0-0.3-0.1-0.4-0.1l-0.2,0c-0.1,0-0.2,0-0.3-0.1c-0.2,0-0.3-0.1-0.4-0.1h0c-0.2,0-0.4,0-0.6,0 C27.5,7.2,26.9,7.2,26.4,7.4z M3.3,17.2c0,0.1,0.1,0.3,0.1,0.4c0,0.1,0,0.1,0,0.2c0.1,0.3,0.2,0.6,0.3,0.9l0.1,0.2 c0.1,0.3,0.2,0.6,0.4,0.9c0.2,0.5,0.5,0.9,0.8,1.4L5,21.4c0.2,0.4,0.5,0.7,0.8,1l3-3l-5.3-5.3c0,0,0,0,0,0c0,0.2-0.1,0.4-0.1,0.5 c0,0.2-0.1,0.3-0.1,0.4c0,0.2-0.1,0.3-0.1,0.5c0,0.2,0,0.4,0,0.6C3.2,16.5,3.2,16.9,3.3,17.2z M12.1,28.6l3.3,3.3l20.3-20.1 c-0.1-0.2-0.3-0.5-0.4-0.7c-0.5-0.8-1.1-1.4-1.7-1.9c-0.3-0.2-0.6-0.4-0.9-0.6c-0.1,0-0.2-0.1-0.2-0.1L12.1,28.6z M20,36.5 c4.8-4.8,9.5-9.5,14.3-14.2c0.4-0.4,0.7-0.8,1-1.2c0.3-0.5,0.6-1,0.9-1.7c0.1-0.3,0.2-0.5,0.3-0.8c0.1-0.3,0.2-0.6,0.3-0.9 c0-0.2,0.1-0.4,0.1-0.6c0-0.6,0-1.2,0-1.8c0-0.2,0-0.4-0.1-0.6c-0.1-0.3-0.1-0.5-0.2-0.7L16.9,33.5l0.5,0.5 C18.2,34.8,19.1,35.7,20,36.5z M17.3,8.9c-0.5-0.4-1.1-0.7-1.7-0.9C15,7.7,14.5,7.6,14,7.5l-0.7-0.1c-0.2,0-0.3-0.1-0.5-0.1 c-0.3,0-0.7,0-1,0l-0.3,0c-0.1,0-0.1,0-0.2,0c-0.2,0-0.4,0.1-0.6,0.1l-0.3,0.1c-0.2,0-0.3,0.1-0.5,0.1l5.5,5.4l3.1-3.1 C18.1,9.5,17.7,9.2,17.3,8.9z M7.8,8.5C7.1,8.9,6.5,9.3,5.9,9.8c-0.2,0.2-0.4,0.4-0.6,0.6l-0.1,0.1c-0.3,0.4-0.6,0.8-0.9,1.3l6.1,6 l3.3-3.4L7.8,8.5z"/>
</svg>