<!-- (c) Carrd Inc. All rights reserved. All logos and trademarks are property of their respective owners. -->
<svg xmlns="http://www.w3.org/2000/svg" id="icon">
<path d="M37.4,18.4c0,0.5,0.1,1.1,0.1,1.6l0,0C37.5,19.4,37.5,18.9,37.4,18.4z M11.5,18.3c0,0-4.9,17.9,14.6,18.1 c6.1-2.3,10.6-7.9,11.3-14.6c0-0.5,0.1-0.9,0.1-1.4c0-0.1,0-0.2,0-0.4c0-0.5,0-1.1-0.1-1.6C32.3,38.6,9.5,30.7,11.5,18.3z M21.5,11.6c0,0-18.2-5.1-17.9,14.7c0.9,2.4,2.4,4.6,4.2,6.3c0.1,0.1,0.2,0.1,0.2,0.2c0.5,0.5,1.1,0.9,1.7,1.4 c0.1,0.1,0.2,0.1,0.3,0.2c0.6,0.4,1.3,0.8,1.9,1.1c0.2,0.1,0.4,0.2,0.6,0.3c0.6,0.3,1.2,0.5,1.7,0.7c0.1,0,0.3,0.1,0.4,0.2 c0.7,0.2,1.4,0.4,2.2,0.5c0.2,0,0.4,0.1,0.7,0.1c0.8,0.1,1.5,0.2,2.3,0.2c0,0,0.1,0,0.1,0c0.6,0,1.2,0,1.7-0.1 C1.3,32.6,9.1,9.8,21.5,11.6z M28.6,21c0,0,4.3-18.1-15-17.3C7.1,6.3,2.5,12.6,2.5,20c0,0.8,0.1,1.6,0.2,2.4 C6.8,1.9,29.9,8.5,28.6,21z M19.3,28.8c0,0,18.2,2.4,17.1-14.9C33.9,7.2,27.5,2.5,20,2.5c-1.1,0-2.1,0.1-3.2,0.3 C37.1,5.3,31.8,29,19.3,28.8z M25.1,20c0,2.7-2.2,4.9-4.9,4.9s-4.9-2.2-4.9-4.9c0-2.7,2.2-4.9,4.9-4.9c0,0,0,0,0,0 C22.9,15.1,25.1,17.3,25.1,20z"/>
</svg>