<!-- (c) Carrd Inc. All rights reserved. All logos and trademarks are property of their respective owners. -->
<svg xmlns="http://www.w3.org/2000/svg" id="icon">
<path d="M17,18.1h-3.7c-0.4,0-0.6,0-0.8-0.1c-0.6-0.2-1.1-0.8-1.1-1.5c0-0.7,0.5-1.3,1.1-1.5c0.2-0.1,0.4-0.1,0.8-0.1 h2.4v-2.4c0-0.4,0-0.6,0.1-0.8c0.2-0.6,0.8-1.1,1.5-1.1c0.7,0,1.3,0.5,1.5,1.1c0.1,0.2,0.1,0.4,0.1,0.8v3.8c0,0.2,0,0.5,0,0.7 c-0.1,0.6-0.6,1.1-1.2,1.2C17.5,18.1,17.2,18.1,17,18.1L17,18.1z M29,32H9V14.1c0-0.2,0.1-0.4,0.2-0.6l5.2-5.3C14.6,8.1,14.8,8,15,8 h14V32z M5.9,11.1c-0.5,0.5-0.9,1.2-1,2c0,0.2,0,0.3,0,0.5v20.2c0,0.3,0,0.4,0,0.5c0.1,0.9,0.9,1.6,1.7,1.7c0.1,0,0.2,0,0.5,0h23.6 c0.3,0,0.4,0,0.5,0c0.9-0.1,1.6-0.9,1.7-1.7c0-0.1,0-0.2,0-0.5V6.3c0-0.3,0-0.4,0-0.5c-0.1-0.9-0.9-1.6-1.7-1.7c-0.2,0-0.3,0-0.5,0 H14.5c-0.2,0-0.4,0-0.5,0c-0.7,0.1-1.4,0.4-1.9,1L5.9,11.1z"/>
</svg>