<!-- (c) Carrd Inc. All rights reserved. All logos and trademarks are property of their respective owners. -->
<svg xmlns="http://www.w3.org/2000/svg" id="icon">
<path d="M34.5,34.9L5.1,38.5L1.5,9.3l5.3-0.6V5.5h29.7v29.4H34.5z M6.8,9.7l-4.1,0.5L6,37.3l20-2.5H6.8V9.7z M27,18.8 c-0.4-0.8-1-1.5-1.8-2c-0.8-0.5-1.7-0.7-2.6-0.7c-0.9,0-1.8,0.2-2.6,0.7c-0.7,0.5-1.2,1.2-1.5,2v-6.3h-2.3v14.8h2.3v-2.6 c0.3,0.8,0.8,1.5,1.5,2c0.8,0.5,1.6,0.8,2.6,0.7c0.9,0,1.8-0.2,2.6-0.7c0.8-0.5,1.4-1.1,1.8-2c0.4-0.9,0.7-2,0.6-3 C27.6,20.8,27.4,19.8,27,18.8z M24.4,24.5c-0.6,0.7-1.5,1-2.4,1c-0.6,0-1.2-0.1-1.7-0.4c-0.5-0.3-0.9-0.7-1.2-1.3 c-0.3-0.6-0.5-1.3-0.4-1.9c0-0.7,0.1-1.3,0.4-1.9c0.3-0.5,0.7-1,1.2-1.3c0.5-0.3,1.1-0.5,1.7-0.4c0.9,0,1.8,0.3,2.4,1 c0.6,0.7,1,1.7,0.9,2.7C25.3,23,25,23.8,24.4,24.5z"/>
</svg>