<!-- (c) Carrd Inc. All rights reserved. All logos and trademarks are property of their respective owners. -->
<svg xmlns="http://www.w3.org/2000/svg" id="icon">
<path d="M36.5,27.8c-0.2,1.7-1.4,3-3,3.4c-0.2,0-0.4,0.1-0.6,0.1c0,0,0,0.1,0,0.1c0,2,0,3.9,0,5.9c0,0.3,0,0.5,0,0.8 c-0.1,0.7-0.5,1.2-1.2,1.5c-0.1,0.1-0.3,0.1-0.4,0.1c-0.2,0-0.3,0-0.5,0c-0.9-0.2-1.5-0.7-2-1.4c-1.8-2.3-3.5-4.6-5.3-6.8 c-0.1-0.1-0.2-0.1-0.3-0.1c-2.4,0-4.9,0-7.3,0c-2.7,0-5.5,0-8.2,0c-2,0-3.6-1.3-4-3.2c0-0.2-0.1-0.3-0.1-0.5c0-5.9,0-11.8,0-17.7 c0,0,0-0.1,0-0.1c0.2-1.5,1.1-2.6,2.5-3.2c0.3-0.1,0.7-0.2,1.1-0.3c8.6,0,17.2,0,25.7,0c0,0,0.1,0,0.1,0c1.6,0.2,3,1.4,3.4,3 c0.1,0.2,0.1,0.4,0.1,0.6c0,5.9,0,11.8,0,17.7C36.5,27.7,36.5,27.7,36.5,27.8z M35,10.4c0,0,0-0.1,0-0.1c0-1.1-0.8-2.1-1.9-2.4 c-0.4-0.1-0.8-0.1-1.2-0.1c-8.1,0-16.2,0-24.3,0C6.1,7.8,5,8.9,5,10.5C5,16,5,21.6,5,27.2c0,1.5,1.1,2.6,2.6,2.6c1.4,0,2.8,0,4.2,0 c4,0,8,0,12,0c0.1,0,0.2,0,0.3,0.1c1.7,2.2,3.4,4.3,5,6.5c0.3,0.4,0.6,0.8,0.9,1.1c0.2,0.2,0.4,0.4,0.6,0.5c0.3,0.2,0.5,0.1,0.6-0.3 c0-0.1,0-0.3,0-0.4c0-2.4,0-4.9,0-7.3c0-0.1,0-0.2,0-0.3c0.3,0,0.5,0,0.7,0c0.3,0,0.6,0,1-0.1c1.2-0.3,2-1.3,2-2.5 C35,21.6,35,16,35,10.4z M28.3,25.6c-0.4,0-0.6-0.3-0.8-0.6c-0.6-1.2-1.3-2.5-1.9-3.7c-0.2-0.4-0.4-0.8-0.6-1.2 c0-0.1-0.1-0.1-0.2-0.1c-0.5,0-0.9,0-1.5,0c0,0.1,0,0.2,0,0.2c0,1.5,0,3,0,4.4c0,0.4-0.2,0.6-0.5,0.7c-0.5,0.2-1,0.2-1.4,0 C21.2,25.2,21,25,21,24.7c0-3.9,0-7.8,0-11.7c0-0.6,0.4-0.9,0.9-0.9c1.4,0,2.8,0,4.2,0c0.6,0,1.2,0.2,1.8,0.4c0.9,0.4,1.5,1.1,1.8,2 c0.3,1,0.3,2,0,3c-0.3,1-1,1.7-2,2c-0.1,0-0.1,0-0.2,0.1c0,0,0,0,0,0c0,0.1,0.1,0.1,0.1,0.2c0.8,1.4,1.6,2.9,2.3,4.3 c0.1,0.2,0.1,0.3,0,0.5C29.7,25.1,28.9,25.7,28.3,25.6z M27.4,15.7c-0.1-0.8-0.6-1.4-1.4-1.5c-0.8-0.1-1.7,0-2.5,0c0,0,0,0,0,0 c0,1.3,0,2.6,0,3.9c0,0,0,0,0.1,0c0.8,0,1.6,0,2.4,0c0.8,0,1.3-0.5,1.5-1.3C27.4,16.4,27.4,16,27.4,15.7z M16,24.8 c-0.1,0.3-0.3,0.5-0.6,0.7c-0.6,0.3-1.3,0.3-1.9,0c-0.3-0.1-0.5-0.4-0.7-0.7c-1.2-3.8-2.3-7.6-3.5-11.3c-0.1-0.4,0-0.7,0.3-1 c0.4-0.3,0.8-0.4,1.3-0.3c0.3,0,0.5,0.2,0.6,0.5c0.9,3.2,1.8,6.5,2.7,9.7c0,0.1,0,0.1,0,0.2c0,0,0,0,0,0c0.1-0.5,0.3-1,0.4-1.6 c0.8-2.7,1.5-5.5,2.3-8.2c0.1-0.3,0.3-0.5,0.7-0.6c0.6,0,1,0.1,1.5,0.5c0.2,0.2,0.3,0.4,0.2,0.7C18.3,17.1,17.2,21,16,24.8z"/>
</svg>