<!-- (c) Carrd Inc. All rights reserved. -->
<svg xmlns="http://www.w3.org/2000/svg" id="icon">
<path d="M34.4,23.1c-0.2,0.3-0.5,0.4-0.8,0.4L12.2,26c0.2,0.8,0.3,1.3,0.3,1.4c0,0.2-0.2,0.7-0.5,1.3h18.8 c0.4,0,0.7,0.1,0.9,0.4c0.3,0.3,0.4,0.6,0.4,0.9c0,0.4-0.1,0.7-0.4,0.9c-0.3,0.3-0.6,0.4-0.9,0.4h-1.3H11.2H9.9 c-0.4,0-0.7-0.1-0.9-0.4c-0.3-0.3-0.4-0.6-0.4-0.9c0-0.2,0.1-0.4,0.2-0.6c0.1-0.3,0.2-0.5,0.3-0.7c0.1-0.2,0.3-0.5,0.4-0.8 c0.2-0.3,0.3-0.5,0.3-0.6l-3.6-18H2c-0.4,0-0.7-0.1-0.9-0.4C0.8,8.7,0.7,8.4,0.7,8c0-0.4,0.1-0.7,0.4-0.9C1.3,6.8,1.6,6.7,2,6.7h5.2 c0.2,0,0.4,0,0.6,0.1C8,6.9,8.1,7,8.2,7.1c0.1,0.1,0.2,0.3,0.3,0.5C8.6,7.9,8.6,8,8.7,8.2c0,0.1,0.1,0.3,0.1,0.6 c0,0.3,0.1,0.4,0.1,0.5h24.6c0.4,0,0.7,0.1,0.9,0.4c0.3,0.3,0.4,0.6,0.4,0.9v11.6C34.8,22.5,34.6,22.8,34.4,23.1z M32.5,11.5 c-0.1-0.1-0.1-0.1-0.5-0.1c-3.6,0-22.7,0-22.7,0l2.4,12.2c0,0,17.4-1.9,20.5-2.2c0.3,0,0.2-0.1,0.3-0.2c0.1-0.1,0.1-0.1,0.1-0.4 c0-1.5,0-7.3,0-8.9C32.6,11.7,32.6,11.6,32.5,11.5z M31.4,32.2c0.5,0.5,0.8,1.1,0.8,1.9c0,0.7-0.3,1.3-0.8,1.9 c-0.5,0.5-1.1,0.8-1.8,0.8c-0.7,0-1.3-0.3-1.8-0.8c-0.5-0.5-0.8-1.1-0.8-1.9c0-0.7,0.3-1.3,0.8-1.9c0.5-0.5,1.1-0.8,1.8-0.8 C30.2,31.4,30.8,31.7,31.4,32.2z M13,32.2c0.5,0.5,0.8,1.1,0.8,1.9c0,0.7-0.3,1.3-0.8,1.9c-0.5,0.5-1.1,0.8-1.8,0.8 c-0.7,0-1.3-0.3-1.8-0.8c-0.5-0.5-0.8-1.1-0.8-1.9c0-0.7,0.3-1.3,0.8-1.9c0.5-0.5,1.1-0.8,1.8-0.8C11.9,31.4,12.5,31.7,13,32.2z" />
</svg>