<!-- (c) Carrd Inc. All rights reserved. All logos and trademarks are property of their respective owners. -->
<svg xmlns="http://www.w3.org/2000/svg" id="icon">
<path d="M35.5,10.2l2.8,22.7c-1.6,0-3.1-0.3-4.6-1c-2.4-1.1-4.7-1.6-7-1.6c-2.7,0-4.9,0.9-6.7,2.6c-1.8-1.8-4-2.6-6.7-2.6 c-2.3,0-4.6,0.5-7,1.6c-1.5,0.7-3,1-4.5,1H1.7l2.8-22.7c2.7-1.5,5.5-2.3,8.6-2.3c2.8,0,5.1,0.6,6.9,1.9c1.8-1.3,4.1-1.9,6.9-1.9 C30,7.9,32.9,8.7,35.5,10.2z M26.7,27.8c1.5,0,2.9,0.2,4.1,0.5c1.2,0.3,2.8,0.9,4.6,1.7l-2.2-18.2c-2-0.9-4.2-1.4-6.6-1.4 c-2.7,0-4.9,0.8-6.7,2.5c-1.8-1.7-4-2.5-6.7-2.5c-2.3,0-4.5,0.5-6.6,1.4L4.5,30c1.3-0.5,2.2-0.9,3-1.2s1.6-0.5,2.7-0.7 s2.1-0.3,3.2-0.3c2.4,0,4.6,0.6,6.7,1.9C22,28.5,24.3,27.8,26.7,27.8L26.7,27.8z M27.4,27.2l-1-16.2c-2.5,0-4.6,1-6.4,2.8 c-1.8-1.8-4-2.8-6.7-2.8c-2.1,0-4.1,0.4-6,1.2L5.3,29c1.5-0.6,2.8-1.1,4.1-1.4c1.2-0.3,2.6-0.4,4-0.4c2.5,0,4.7,0.6,6.7,1.8 c2-1.3,4.3-1.9,6.7-1.8L27.4,27.2z"/>
</svg>