<!-- (c) Carrd Inc. All rights reserved. All logos and trademarks are property of their respective owners. -->
<svg xmlns="http://www.w3.org/2000/svg" id="icon">
<path d="M21,23.6c1.3,1.2,14.6,13.3,14.9,13c-3.3-3.7-6.6-7.4-9.9-11.1c-0.8-0.9-1.6-1.8-2.3-2.6c-0.1-0.1-0.6-0.5-0.7-0.7 c-0.1-0.3,0.1-0.4,0.4-0.7c0.4-0.4,0.8-0.8,1.2-1.2c1.7-1.8,3.4-3.6,5.1-5.4c-2,0.3-3.9,0.9-5.8,1.4c-1,0.2-1.5-0.6-2.3-1.3 c-0.8-0.8-1.7-1.5-2.5-2.3c-1.6-1.5-3.2-3-4.8-4.5c-0.4-0.4-1-0.8-1.3-1.2c-0.3-0.4-0.2-0.8-0.2-1.3c0-1.1,0-2.1,0-3.2 C9,6.2,5.4,10,1.7,13.7c1,0,2-0.1,2.9-0.1c0.5,0,1.1-0.1,1.5-0.1c0.6,0.1,0.7,0.3,1.1,0.8c1.4,1.7,2.8,3.4,4.2,5.1 c0.7,0.8,1.3,1.6,2,2.4c0.4,0.5,0.7,0.9,1.1,1.4c0.3,0.3,0.8,0.7,0.9,1.1c0.2,0.8-0.3,2.2-0.4,2.9c-0.2,1-0.4,2-0.5,3 C16.6,28,18.8,25.8,21,23.6z" />
</svg>