<!-- (c) Carrd Inc. All rights reserved. All logos and trademarks are property of their respective owners. -->
<svg xmlns="http://www.w3.org/2000/svg" id="icon">
<path d="M37.9,18.3c-0.5,3.2-3.4,5.8-6.7,5.9c-7.5,0-14.9,0-22.4,0c0,1.9,0,3.7,0,5.6c-0.5,0-0.9,0-1.4,0 c-0.1-1.9-0.1-3.7-0.1-5.6c-2.5,0-4.9,0-7.4,0c0-0.5,0-0.9,0-1.4c2.5,0,4.9,0,7.4-0.1c0-4.2,0-8.4,0-12.7c7.8,0,15.6,0,23.4,0 C35,9.7,38.7,14.1,37.9,18.3z M36,14.6c-0.7-1.6-2.3-2.8-4-3.1c-7.7-0.3-15.4-0.1-23.2-0.1c0,3.8,0,7.6,0,11.3c7.4,0,14.8,0,22.2,0 c2,0,4-1.2,4.9-3C36.8,18.2,36.8,16.2,36,14.6z"/>
</svg>