<!-- (c) Carrd Inc. All rights reserved. All logos and trademarks are property of their respective owners. -->
<svg xmlns="http://www.w3.org/2000/svg" id="icon">
<path d="M15.8,4C15.9,4,15.9,4.1,15.8,4c1.9,3.1,3.7,6,5.5,9c0,0.1,0.1,0.1,0.2,0.1c6.1,0,12.2,0,18.4,0c0,0,0.1,0,0.2,0 c-0.1,0-0.1,0.1-0.1,0.1c-4.4,3.3-8.8,6.7-13.2,10c-0.2,0.2-0.5,0.4-0.7,0.5c-0.1,0-0.1,0.1-0.1,0.2c0.2,1.2,0.4,2.4,0.7,3.6 c0.3,1.7,0.6,3.4,0.9,5c0.2,1.2,0.4,2.3,0.6,3.5c0,0,0,0.1,0,0.1c0,0-0.1,0-0.1-0.1c-4.1-2.7-8.2-5.4-12.3-8.1c-0.1,0-0.1-0.1-0.2,0 c-3.1,1.1-6.2,2.3-9.2,3.4c0,0-0.1,0-0.1,0c0-0.2,0.1-0.4,0.1-0.6c0.4-2.1,0.8-4.1,1.2-6.2c0.1-0.8,0.3-1.5,0.4-2.3 c0-0.1,0-0.1-0.1-0.2C6,20,4.2,18,2.4,16.1c-0.3-0.3-0.6-0.6-0.9-0.9c0,0,0,0,0,0c0.1,0,0.2,0,0.3-0.1c1.3-0.2,2.6-0.5,3.9-0.7 c1.2-0.2,2.3-0.4,3.5-0.6c0.4-0.1,0.8-0.1,1.2-0.2c0.1,0,0.1,0,0.2-0.1c1-1.8,2-3.6,3-5.4C14.3,6.7,15.1,5.4,15.8,4 C15.8,4.1,15.8,4,15.8,4C15.8,4,15.8,4,15.8,4z M24,30.5c0-0.1,0-0.1,0-0.1c-0.7-2.8-1.3-5.5-2-8.3c0-0.1,0-0.1,0.1-0.2 c3-2.1,5.9-4.3,8.9-6.4c0,0,0.1,0,0.1-0.1c0,0-0.1,0-0.1,0c-0.7,0-1.4,0-2-0.1c-1.8,0-3.6-0.1-5.3-0.1c-1.3,0-2.6-0.1-3.8-0.1 c-0.1,0-0.1,0-0.2-0.1c-1.3-2-2.6-3.9-3.8-5.9c0,0,0-0.1-0.1-0.1c0,0,0,0.1-0.1,0.1c-1.1,2-2.1,4.1-3.2,6.1c0,0.1-0.1,0.1-0.2,0.1 c-0.1,0-0.2,0-0.3,0.1c-1.7,0.4-3.4,0.7-5.1,1.1c-0.3,0.1-0.6,0.1-1,0.2c0,0,0.1,0.1,0.1,0.1c0.3,0.3,0.6,0.5,0.8,0.8 c1.3,1.2,2.5,2.5,3.8,3.7c0,0,0.1,0.1,0.1,0.2c-0.4,1.9-0.8,3.8-1.2,5.8c0,0.2-0.1,0.3-0.1,0.5c2.1-0.9,4.3-1.7,6.4-2.6 c0,0,0,0,0,0.1c0,0-0.1,0-0.1,0C18.4,27,21.2,28.7,24,30.5z"/>
</svg>