<!-- (c) Carrd Inc. All rights reserved. All logos and trademarks are property of their respective owners. -->
<svg xmlns="http://www.w3.org/2000/svg" id="icon">
<path d="M30.3,31.9L30.3,31.9c-1.4,1.5-2.9,2.4-4.6,3.1c-1.8,0.8-3.6,1.2-5.6,1.2s-3.8-0.4-5.6-1.1c-1.8-0.8-3.2-1.8-4.5-3 s-2.4-2.8-3-4.5c-0.5-1.2-0.8-2.4-1-3.3c0-0.3,0.2-0.5,0.9-0.6c0.6-0.1,0.9,0,1,0.4c0,0,0,0,0,0.1c0.2,1.1,0.5,2,0.8,2.7 c0.6,1.5,1.5,2.7,2.6,3.9c1.2,1.2,2.4,2.1,3.9,2.6c1.6,0.7,3.1,1,4.8,1s3.2-0.3,4.8-1c1.5-0.7,2.8-1.6,3.9-2.6l0.1-0.1 c0.1-0.1,0.3-0.2,0.4-0.1c0.1,0,0.3,0.2,0.6,0.4C30.4,31.3,30.4,31.7,30.3,31.9z M22,21.1l-1.2,1.2l1.1,1.1c0.3,0.3,0.2,0.5-0.1,0.9 c-0.2,0.2-0.4,0.3-0.6,0.3c-0.1,0-0.2-0.1-0.3-0.2l-1.1-1.1l-1.2,1.2c-0.1,0.1-0.1,0.1-0.3,0.1s-0.4-0.1-0.6-0.3l0,0 c-0.2-0.2-0.3-0.4-0.3-0.5s0-0.2,0.1-0.3l1.2-1.2l-1.2-1.2c-0.2-0.2-0.1-0.5,0.3-0.8c0.2-0.2,0.4-0.3,0.6-0.3c0.1,0,0.1,0,0.2,0.1 l1.2,1.2l1.2-1.2c0.2-0.2,0.5-0.1,0.9,0.2C22.1,20.7,22.2,20.9,22,21.1L22,21.1z M30.3,22.2c0,1.4-0.3,2.7-0.8,4 c-0.5,1.3-1.3,2.4-2.3,3.2c-1,1-2.1,1.7-3.2,2.3c-1.3,0.5-2.5,0.8-4,0.8c-1.4,0-2.7-0.3-4-0.8c-1.3-0.5-2.4-1.3-3.2-2.3 c-1-1-1.7-2.1-2.2-3.2c-0.2-0.4-0.3-0.6-0.3-0.7l0,0c-0.1-0.3,0.1-0.6,0.8-0.8c0.6-0.2,1-0.1,1.1,0.2c0.4,1.2,1,2.2,1.7,2.9l0,0v-6 c0-1.6,0.6-2.9,1.8-4c1.3-1.2,2.7-1.8,4.4-1.8c1.8,0,3.1,0.6,4.4,1.8c1.3,1.2,1.9,2.6,1.9,4.3c0,1.8-0.6,3.1-1.9,4.4 c-1.3,1.2-2.6,1.8-4.4,1.8c-0.7,0-1.4-0.1-2-0.3c-0.3-0.1-0.4-0.5-0.2-1.1c0.2-0.6,0.5-0.9,0.8-0.8l0.3,0.1c0.2,0,0.4,0.1,0.6,0.1 s0.4,0.1,0.5,0.1c1.2,0,2.3-0.4,3-1.3s1.3-1.9,1.3-3s-0.4-2.2-1.3-3c-0.8-0.8-1.9-1.3-3-1.3c-1.3,0-2.3,0.5-3.1,1.4 c-0.8,0.9-1.1,1.8-1.1,2.8v7.3c1.3,0.8,2.6,1.2,4.2,1.2c1.1,0,2.2-0.2,3.2-0.7c1.1-0.4,2-1.1,2.7-1.8c0.8-0.7,1.4-1.7,1.8-2.7 c0.4-1,0.7-2.1,0.7-3.2c0-2.4-0.8-4.3-2.4-6s-3.6-2.4-6-2.4s-4.3,0.8-6,2.4c-0.6,0.6-1.1,1.1-1.4,1.6l0,0c-0.1,0.1-0.2,0.2-0.2,0.3 c-0.1,0.1-0.2,0.1-0.4,0.2c-0.2,0.1-0.4,0-0.7-0.1c-0.3-0.1-0.5-0.2-0.7-0.3s-0.2-0.2-0.2-0.4V5.5c0-0.2,0.1-0.3,0.2-0.5 c0.1-0.2,0.2-0.2,0.4-0.2h15.4c0.4,0,0.5,0.3,0.5,1s-0.2,1-0.5,1H12.2v8.4l0,0c0.5-0.5,1.1-1,1.8-1.5c0.7-0.5,1.4-0.9,1.9-1.1 c1.3-0.5,2.6-0.8,4-0.8s2.7,0.3,4,0.8c1.3,0.5,2.4,1.3,3.2,2.3c1,1,1.7,2.1,2.3,3.2C30,19.4,30.3,20.8,30.3,22.2L30.3,22.2z M29.7,12c0.1,0.1,0.2,0.2,0.2,0.3s0,0.2-0.1,0.3c-0.1,0.1-0.2,0.2-0.3,0.4c-0.3,0.3-0.5,0.5-0.7,0.5c-0.1,0-0.2,0-0.3-0.1 c-1.3-1.1-2.5-1.9-3.6-2.4c-1.5-0.7-3.1-1-4.8-1c-1.6,0-3,0.3-4.6,0.9c-0.3,0.1-0.6-0.1-0.8-0.7c-0.1-0.3-0.2-0.5-0.1-0.7 c0-0.2,0.1-0.3,0.3-0.4c1.5-0.7,3.2-1,5.2-1s3.7,0.4,5.5,1.1C27.2,10,28.6,10.9,29.7,12L29.7,12z"/>
</svg>