<!-- (c) Carrd Inc. All rights reserved. All logos and trademarks are property of their respective owners. -->
<svg xmlns="http://www.w3.org/2000/svg" id="icon">
<path d="M34.2,34.8c0,0,0-0.1,0-0.2V21.1c-0.2-3.2-1.5-6-3.7-8.4c-0.7-0.7-1.4-1.3-2.1-1.8c-1.8-1.4-4.7-2.4-8-2.4 c-1.9,0-3.7,0.3-5.2,0.9c0,0-0.1,0-0.1,0c-0.7,0.2-1.3-0.2-1.3-1l0,0V0.8c-0.1-0.6-0.5-0.7-1-0.2l-6,6.6c-0.6,0.6-1,1.6-1,2.3 c0,0,0,11.3,0,12.9c0,3.8,1.2,7.1,3.8,9.8c2.3,2.5,5,3.8,8.2,4h15.1C33.6,36.2,34.2,35.5,34.2,34.8z M25.3,27.8 c-3,2.9-7.7,2.9-10.6-0.1c-2.9-3-2.9-7.7,0.1-10.6c3-2.9,7.7-2.9,10.6,0.1C28.3,20.1,28.2,24.8,25.3,27.8z"/>
</svg>