<!-- (c) Carrd Inc. All rights reserved. All logos and trademarks are property of their respective owners. -->
<svg xmlns="http://www.w3.org/2000/svg" id="icon">
<path d="M37.3,21.1c-1.1,1.4-2.3,2.8-3.4,4.2c-0.2,0.2-0.5,0.4-0.8,0.4c-3.6,0-7.1,0-10.7,0c-0.2,0-0.3-0.3-0.2-0.4 c4.9-6.2,9.9-12.3,14.8-18.5c0-0.1,0.1-0.1,0.1-0.1c0.2-0.1,0.3,0.1,0.3,0.2c0,4.5,0,9,0,13.4C37.5,20.6,37.5,20.9,37.3,21.1z M25.4,35.4c-3.6,0-7.2,0-10.7,0c-0.3,0-0.6-0.1-0.7-0.4c-3.7-4.6-7.4-9.3-11.1-13.9c-0.2-0.2-0.2-0.4-0.2-0.7c0-4.5,0-9,0-13.4 c0-0.1,0-0.2,0.1-0.3C2.8,6.5,3,6.8,3.1,6.9c7.5,9.3,15,18.7,22.4,28C25.7,35.1,25.6,35.4,25.4,35.4z"/>
</svg>