<!-- (c) Carrd Inc. All rights reserved. All logos and trademarks are property of their respective owners. -->
<svg xmlns="http://www.w3.org/2000/svg" id="icon">
<path d="M37.6,24.3c-0.9,4-3.3,7.7-6.6,10.2c-2.5,2-5.6,3.2-8.8,3.6c-3.8,0.5-7.8-0.3-11.2-2.3c-3.4-2-6.2-5.1-7.7-8.8 c-1.5-3.5-1.8-7.6-0.9-11.3c1-4.1,3.4-7.8,6.7-10.3c2.9-2.2,6.4-3.5,10-3.6c3-0.2,6,0.5,8.6,1.8c4,1.9,7.2,5.3,8.9,9.4 C38.1,16.5,38.5,20.5,37.6,24.3z M15,35.1c2.1,0.8,4.5,1,6.7,0.8c3.9-0.4,7.5-2.3,10.1-5.2c2-2.2,3.3-5,3.8-7.9 c1-5.4-1-11.2-5.2-14.8c-3-2.7-7.1-4.2-11.2-3.9c-6,0.2-11.5,4.2-13.8,9.7C3.1,19.2,4.1,25.9,8,30.3c0-3.5,0-7,0-10.5 c0.2-3.4,1.8-6.6,4.4-8.8c2.5-2.1,5.8-3.1,9-2.7c3,0.3,5.8,1.9,7.7,4.2c1.9,2.3,3.1,5.3,2.9,8.3c0,4.9-3.4,9.6-8,11.2 c-3,1.1-6.5,0.9-9.3-0.5c0,1.2,0,2.3,0,3.5C14.8,35,14.9,35.1,15,35.1z"/>
</svg>