<!-- (c) Carrd Inc. All rights reserved. All logos and trademarks are property of their respective owners. -->
<svg xmlns="http://www.w3.org/2000/svg" id="icon">
<path d="M38.7,16.7c-0.2,0.7-0.8,1.1-1.4,1.3c-0.7,0.2-1.4,0.2-2-0.2c-0.3-0.2-0.4-0.5-0.6-0.7c-0.7-1-1.4-2-2.2-2.9 c-0.5-0.5-1.1-0.9-1.7-1.4c-0.4-0.3-0.9-0.7-1.3-1c-1-0.6-1.9-1.1-3-1.6c-0.6-0.3-1.2-0.2-1.8-0.5c-0.9-0.4-1.8-0.4-2.7-0.6 c-0.2-0.1-0.4,0-0.7,0c-1.1,0-2.3,0-3.4,0c-0.5,0-0.9,0.2-1.4,0.3c-0.4,0.1-0.8,0.2-1.2,0.3c-0.2,0.1-0.5,0.2-0.7,0.3 c-0.3,0.1-0.6,0.1-0.9,0.2c-0.8,0.3-1.6,0.6-2.3,1.1c-0.5,0.4-1.2,0.6-1.7,1c-1.2,0.9-2.4,1.9-3.3,3.2c-0.5,0.7-1,1.5-1.7,2.1 c-0.7,0.7-2.1,0.6-2.9,0c-0.9-0.7-1.3-2.1-0.3-3.3c0.7-1,1.5-1.9,2.3-2.9c0.6-0.6,1.2-1.2,1.8-1.7c0.8-0.6,1.6-1.2,2.4-1.7 c1.3-0.9,2.7-1.5,4.1-2.1c0.7-0.3,1.4-0.4,2.1-0.6C15.1,5,16,4.7,16.9,4.6c0.6-0.1,1.3-0.1,2-0.1c1.1,0,2.2-0.1,3.3,0.1 c1.2,0.1,2.3,0.4,3.5,0.7c1,0.2,1.9,0.5,2.9,0.8c0.4,0.1,0.8,0.4,1.2,0.6c0.6,0.3,1.3,0.6,1.9,1c0.8,0.5,1.5,1.1,2.2,1.6 c1.9,1.5,3.5,3.3,4.8,5.3c0.2,0.3,0.3,0.6,0.5,0.9c0,0,0,0.1,0,0.1C38.9,15.9,38.8,16.3,38.7,16.7z M9.5,17.2 c0.3-0.4,0.8-0.7,1.2-1.1c0.8-0.7,1.7-1.4,2.7-1.9c1.3-0.6,2.5-1.3,4-1.4c0.4,0,0.8-0.2,1.2-0.2c0,0,0,0.1,0,0.1 c0.4-0.1,0.8-0.2,1.1-0.1c1.2,0.1,2.4,0,3.5,0.5c1,0.4,2,0.6,2.9,1c0.6,0.3,1.1,0.7,1.7,1.1c1.5,1,2.7,2.3,3.6,3.8 c0.6,1,0.4,1.9-0.2,2.8c-0.5,0.7-2.2,1-2.9,0.3c-0.4-0.4-0.8-0.9-1.2-1.3c-0.9-1.2-2-2.1-3.4-2.7c-0.6-0.3-1.3-0.6-1.9-0.7 c-0.8-0.2-1.7-0.3-2.5-0.2c-1.3,0.2-2.5,0.4-3.7,1.1c-0.9,0.5-1.8,1.1-2.6,1.9c-0.5,0.5-0.9,1.1-1.4,1.7c-0.5,0.6-1.6,0.8-2.3,0.5 c-1.4-0.6-1.9-2.2-1.1-3.5C8.7,18.3,9.1,17.7,9.5,17.2z M19.9,21.4c4,0,6.8,3.1,7.1,6.1c0.2,2.2-0.3,4-1.7,5.7 c-1,1.2-3.2,2.5-5.3,2.3c-3.9,0.3-6.8-3.3-7-6.2c-0.2-2.5,0.6-4.6,2.4-6.2C16.5,22,18.1,21.3,19.9,21.4z M16.3,28.6 c0.1,2,1.7,3.5,3.7,3.5c2.1,0.1,3.8-1.8,3.6-3.8c-0.1-1.9-1.8-3.5-3.7-3.4C17.8,24.9,16.2,26.6,16.3,28.6z M20,25.4 c1.7,0.1,2.9,1.3,3.1,3.2c-0.3,1.7-1.3,3-3.2,2.9c-1.7,0-2.9-1.2-3-3.1C16.8,27,18.4,25.3,20,25.4z"/>
</svg>