<!-- (c) Carrd Inc. All rights reserved. All logos and trademarks are property of their respective owners. -->
<svg xmlns="http://www.w3.org/2000/svg" id="icon">
<path d="M31.7,11.8c-1.6,0.4-3,1.3-4.1,2.4c-1.3-4.6-4.1-11.5-6.8-12.6c-0.6-0.3-1.3-0.2-1.8,0.1c-1.7,1-2.8,4.2-1.8,10.3 c-3.7-6.9-5-6.9-5.6-6.9c-0.6,0-1.1,0.4-1.3,0.9c-0.4,0.9-1.2,3.7,0.8,9.8c-2.4-3.3-3.1-3.7-4-3.7c-0.5,0-1,0.4-1.3,0.9 c-0.7,1.4-0.6,4.7,1.6,9.8c-0.8-0.7-1.7-1.1-2.7-1.1c-0.6,0-1,0.4-1.3,0.8c-0.9,1.7,1,6.3,3.3,9.5c1.9,2.6,5.7,6.6,11.2,6.6 c0.8,0,1.5-0.1,2.3-0.2c0.5-0.1,0.9-0.6,0.8-1.2c-0.1-0.5-0.6-0.9-1.2-0.8c-4.6,0.9-8-1.6-10.1-3.9C6.4,29.1,5.1,25,5,23.8 c0.7,0.3,2.5,1.4,6.2,6.1c0.3,0.5,0.9,0.6,1.4,0.2c0.5-0.3,0.6-1,0.2-1.4c-5.1-7.8-5.6-12.6-5.5-14.2c1.5,1.5,5.3,7.2,8.1,11.5 c0.3,0.5,0.9,0.6,1.4,0.3c0.5-0.3,0.6-0.9,0.4-1.4c-5.9-10.9-5.7-15.9-5.4-17.6c0.9,0.9,3.3,4.1,8.2,14.9c0.2,0.5,0.8,0.7,1.3,0.5 c0.5-0.2,0.8-0.8,0.6-1.3C17.1,8.4,19.1,3.9,19.9,3.4c1,0,4,5,5.8,11.6c0.1,0.4,0.2,0.8,0.3,1.2c-0.3,0.5-0.5,0.9-0.6,1.4 c-1,3.6-2,11.9-0.1,14.2c0.4,0.5,1,0.7,1.6,0.7c0.8-0.1,1.5-0.5,1.9-1.2c1.8-2.6,0.7-9.1-0.7-14.8c1-1.4,2.4-2.4,4-2.9 c0.7-0.2,1.5,0,2,0.5c0.8,0.9,2.2,4.3-2.1,16.4c-0.2,0.5,0.1,1.1,0.6,1.3c0.5,0.2,1.1-0.1,1.3-0.6c3.4-9.6,4-15.8,1.7-18.4 C34.6,11.8,33.1,11.4,31.7,11.8z M27.2,30.2c-0.1,0.1-0.2,0.2-0.3,0.3c-0.7-0.9-0.7-6.1,0.1-10.4C28.5,27.5,27.6,29.7,27.2,30.2z"/>
</svg>