<!-- (c) Carrd Inc. All rights reserved. All logos and trademarks are property of their respective owners. -->
<svg xmlns="http://www.w3.org/2000/svg" id="icon">
<path d="M40,15.9c0,0.3,0,0.6-0.1,0.9c-0.2,1.1-0.5,2.1-1,3.1c-0.4,0.8-1,1.5-1.6,2.2c-0.8,0.8-1.6,1.6-2.3,2.4 c-0.2,0.2-0.5,0.2-0.7,0c-0.9-0.9-1.8-1.9-2.8-2.8c-0.2-0.2-0.2-0.5,0-0.7c0.3-0.3,0.7-0.6,1-1c0.6-0.6,1.2-1.1,1.7-1.8 c0.9-1.1,1.2-2.3,0.9-3.7c-0.2-1.4-0.9-2.4-2.1-3.2c-1.1-0.7-2.3-1-3.5-0.7c-1,0.2-1.9,0.6-2.6,1.4c-0.7,0.7-1.4,1.4-2.2,2.2 c-0.4,0.4-0.8,0.8-1.2,1.2c0.1,0.1,0.1,0.1,0.2,0.2c3.2,3.2,6.5,6.5,9.7,9.7c0.3,0.3,0.3,0.5,0,0.8c-4,4-7.9,7.9-11.9,11.9 c0,0-0.1,0.1-0.2,0.1c-0.3,0.3-0.6,0.4-1,0.5c-0.2,0-0.4,0-0.6,0c0,0,0,0,0,0c-0.4-0.1-0.8-0.3-1.1-0.6C13.3,32.6,8.1,27.4,2.9,22.2 c-0.2-0.2-0.3-0.4-0.5-0.5c-0.6-0.7-1.1-1.4-1.5-2.2c-0.4-0.9-0.7-1.8-0.8-2.8c0-0.2-0.1-0.3-0.1-0.5c0-0.6,0-1.1,0-1.7 c0,0,0-0.1,0-0.1c0.1-0.4,0.1-0.8,0.2-1.2c0.3-1.2,0.8-2.3,1.5-3.4C2.2,9,2.8,8.3,3.4,7.8C4.2,7.2,5,6.6,6,6.3 C6.7,6,7.4,5.8,8.1,5.7c0.3,0,0.5-0.1,0.8-0.1c0.6,0,1.1,0,1.7,0c0.2,0,0.5,0,0.7,0.1c0.7,0.1,1.4,0.3,2.1,0.6c1.1,0.4,2.1,1,3,1.9 c0.9,0.8,1.7,1.7,2.5,2.5c0.2,0.2,0.2,0.5,0,0.7c-0.9,0.9-1.8,1.8-2.8,2.8c-0.2,0.2-0.5,0.2-0.7,0c-0.6-0.6-1.2-1.2-1.8-1.8 c-0.3-0.3-0.6-0.6-0.9-0.8c-1.1-0.9-2.4-1.2-3.8-1c-1.2,0.2-2.2,0.8-2.9,1.7c-1,1.2-1.3,2.5-1,4c0.2,0.9,0.6,1.7,1.3,2.4 c0.8,0.8,1.5,1.5,2.3,2.3c0.4,0.4,0.7,0.7,1.1,1.1c0-0.1,0.1-0.1,0.1-0.1c4.6-4.6,9.2-9.2,13.8-13.8c0.6-0.6,1.3-1.1,2-1.5 c1-0.5,2.1-0.9,3.3-1.1c0.2,0,0.3-0.1,0.5-0.1c0.5,0,1.1,0,1.6,0c0.1,0,0.2,0,0.4,0c0.8,0.1,1.6,0.3,2.3,0.6c1.1,0.4,2,1,2.9,1.7 c0.8,0.7,1.5,1.5,2,2.5c0.7,1.2,1.1,2.4,1.2,3.7c0,0.2,0.1,0.4,0.1,0.6c0,0.4,0,0.7,0,1.1C40,15.8,40,15.8,40,15.9z M20.3,20.7 c-2.9-0.2-5.2,2.2-5.1,4.8c0,2.7,2.2,4.7,4.6,4.8c2.9,0.1,4.9-2.2,5-4.7C24.9,22.9,22.6,20.9,20.3,20.7z M18.3,28.1 c-1.4-0.9-1.7-2.5-1.2-3.8c0.6-1.4,2.2-2.2,3.7-1.7c-0.2,0.6-0.1,1.2,0.3,1.5c0.5,0.4,1,0.4,1.6,0c0.6,0.9,0.5,2.5-0.4,3.5 C21.2,28.8,19.5,28.9,18.3,28.1z"/>
</svg>