<!-- (c) Carrd Inc. All rights reserved. All logos and trademarks are property of their respective owners. -->
<svg xmlns="http://www.w3.org/2000/svg" id="icon">
<path d="M8.5,37c0-10.7,0-21.3,0-32c0.1,0,0.2,0,0.3,0c4.8,0,9.5,0,14.3,0c2.4,0,4.7,0.5,6.8,1.6c3,1.6,4.8,4,5.4,7.3 c0.5,2.6,0.3,5.1-0.6,7.6c-1.2,3.1-3.3,5.3-6.4,6.6c-1.7,0.7-3.5,1.1-5.4,1.3c-1.3,0.1-2.7,0.1-4,0.1c-0.1,0-0.2,0-0.3,0 c0,0.1,0,0.2,0,0.3c0,1.9,0,3.8,0,5.8c0,0.9-0.6,1.5-1.5,1.5c-2.8,0-5.5,0-8.3,0C8.7,37,8.6,37,8.5,37z"/>
</svg>