<!-- (c) Carrd Inc. All rights reserved. All logos and trademarks are property of their respective owners. -->
<svg xmlns="http://www.w3.org/2000/svg" id="icon">
<path d="M20,36c-2.8,0-5.4-0.7-7.7-2l1.1-2l0.1-0.1l0.9-1.6l1.7-3l1.2-2.1c0.8,0.4,1.8,0.7,2.7,0.7 c3.3,0,5.9-2.7,5.9-5.9c0-1.6-0.6-3-1.6-4.1l1-1.1l0,0l0.6-0.7L26,14v0l1.7-1.8v0l0.1-0.1l0,0l1.7-1.8c0,0,0,0,0,0l0.1-0.1 c0,0,0,0,0,0l1.5-1.7c3,2.9,4.8,7,4.8,11.5C36,28.8,28.8,36,20,36z M17.3,25.2L17.3,25.2C17.3,25.2,17.3,25.2,17.3,25.2L17.3,25.2z M21.2,20c0,0.6-0.5,1.1-1.1,1.1c-0.6,0-1.1-0.5-1.1-1.1c0-0.6,0.5-1.1,1.1-1.1C20.6,18.9,21.2,19.4,21.2,20z M27.4,6.9L26.7,8 c0,0,0,0,0,0l-0.1,0.1c0,0,0,0,0,0l-1.2,2.2l0,0l-0.1,0.1l0,0l-1.2,2.2h0l-0.1,0.1L23,14.9c-0.9-0.5-1.9-0.8-3-0.8 c-3.3,0-5.9,2.6-5.9,5.9c0,1.7,0.7,3.2,1.8,4.3c0,0,0,0,0,0l-0.6,0.6l0,0l-1,1.1l-0.1,0.1l-1.7,1.8v0L12.4,28l0,0l-1.7,1.8 c0,0,0,0,0,0l-0.1,0.1l0,0l-0.8,0.8l0,0L9,31.6c-3.1-2.9-5-7-5-11.6v-0.2l0,0C4.1,11.1,11.2,4,20,4h0.3c2.7,0,5.3,0.8,7.6,2 L27.4,6.9L27.4,6.9z"/>
</svg>