<!-- (c) Carrd Inc. All rights reserved. All logos and trademarks are property of their respective owners. -->
<svg xmlns="http://www.w3.org/2000/svg" id="icon">
<path d="M20.1,40.1C20,40.1,20,40,20.1,40.1c-0.5-0.6-3.3-4.1-6.1-8.5c-0.8-1.4-1.4-2.5-1.3-2.8c0.3-0.7,5.2-1.2,6.7-0.5 c0.5,0.2,0.4,0.5,0.4,0.6c0,0.7,0,2.5,0,2.5c0,0.4,0.3,0.7,0.7,0.7c0.4,0,0.7-0.3,0.7-0.7l0-4.6h0c0-0.4-0.4-0.5-0.5-0.5 c-0.8,0-2.4,0-4.1,0c-3.8,0-4.6,0.2-5.3-0.3C9.8,25.1,7.6,19,7.5,15.5c-0.1-4.9,2.8-9.1,6.9-11.2C16.1,3.4,18,2.9,20,2.9 c6.4,0,11.8,4.9,12.5,11.2c0,0,0,0,0,0c0.1,1.5-8.2,1.8-9.9,1.4c-0.3-0.1-0.3-0.3-0.3-0.4c0-1.2,0-4.4,0-4.4c0-0.4-0.3-0.7-0.7-0.7 h0c-0.4,0-0.7,0.3-0.7,0.7l0,6c0,0.4,0.3,0.5,0.4,0.5c0.9,0,3.1,0,5.2,0c2.8,0,3.9,0.3,4.7,0.9c0.5,0.4,0.7,1.1,0.5,2.1 C30.2,28.9,20.4,39.6,20.1,40.1z"/>
</svg>