<!-- (c) Carrd Inc. All rights reserved. All logos and trademarks are property of their respective owners. -->
<svg xmlns="http://www.w3.org/2000/svg" id="icon">
<path d="M32.8,39c-0.1,0-0.2,0-0.4-0.1c-0.4-0.1-0.6-0.4-0.8-0.6c-0.3-0.4-0.7-0.7-1-1.1c-0.7-0.7-1.3-1.4-2-2.1 c-0.3-0.3-0.6-0.7-0.9-1c-0.7-0.7-1.3-1.4-2-2.1c-0.3-0.3-0.7-0.7-1-1c-0.7-0.7-1.3-1.4-2-2.1c-0.3-0.3-0.6-0.6-0.9-1 c-0.5-0.6-1.1-1.2-1.6-1.7c-0.1-0.1-0.1-0.1-0.2-0.2c-0.3,0.3-0.5,0.5-0.7,0.7c-0.2,0.2-0.4,0.5-0.6,0.7c-0.7,0.8-1.5,1.6-2.2,2.4 c-0.7,0.7-1.3,1.4-2,2.1c-0.7,0.7-1.3,1.4-2,2.1c-0.6,0.6-1.2,1.3-1.8,1.9c-0.5,0.6-1.4,0.5-2,0.1c-0.3-0.2-0.5-0.6-0.6-1 c-0.1-0.3,0-0.6,0.1-1c0.1-0.4,0.4-0.7,0.7-1c0.3-0.4,0.7-0.8,1-1.2c0.3-0.3,0.6-0.7,0.8-1c0.3-0.4,0.7-0.8,1-1.2 c0.3-0.3,0.6-0.7,0.8-1c0.3-0.4,0.7-0.8,1-1.2c0.3-0.3,0.6-0.7,0.8-1c0.3-0.4,0.7-0.8,1-1.2c0.3-0.3,0.6-0.7,0.8-1 c0.3-0.3,0.6-0.7,0.8-1c0,0,0,0,0-0.1c-0.2-0.2-0.3-0.3-0.5-0.5c-0.4-0.4-0.7-0.7-1.1-1.1c-0.2-0.3-0.5-0.5-0.7-0.8 c-0.3-0.6-0.2-1.3,0.3-1.8c0.5-0.5,0.9-1,1.4-1.5c0.1-0.1,0.1-0.2,0.2-0.2c-0.3-0.4-0.6-0.7-0.9-1c-0.3-0.4-0.6-0.7-0.9-1.1 c-0.3-0.4-0.6-0.7-0.9-1.1c-0.3-0.4-0.7-0.8-1-1.3c-0.3-0.4-0.7-0.8-1-1.3c-0.3-0.4-0.7-0.8-1-1.3c-0.3-0.4-0.7-0.8-1-1.3 C9.9,8.3,9.6,8,9.3,7.6C9,7.3,8.7,6.9,8.4,6.6C8.1,6.1,7.7,5.7,7.4,5.3C7,4.9,6.7,4.5,6.3,4C6,3.6,5.7,3.2,5.5,2.7 c0-0.1,0-0.1,0-0.2c0,0,0-0.1,0-0.1c0,0,0,0,0,0c0-0.5,0.3-0.9,0.7-1.1C6.4,1.1,6.6,1.1,6.8,1C7,1,7.2,1,7.3,1 C7.6,1.1,7.8,1.2,8,1.4c0.2,0.1,0.3,0.3,0.4,0.4c0.3,0.3,0.6,0.6,0.9,1C9.9,3.4,10.4,4,11,4.6c0.3,0.3,0.5,0.6,0.8,0.8 c0.6,0.6,1.1,1.2,1.7,1.9c0.3,0.3,0.6,0.6,0.9,0.9c0.5,0.6,1.1,1.2,1.6,1.8c0.3,0.3,0.6,0.6,0.8,0.9c0.6,0.6,1.1,1.2,1.7,1.8 c0.3,0.3,0.6,0.6,0.9,0.9c0.1,0.1,0.2,0.3,0.4,0.4c0.4-0.4,0.7-0.7,1-1.1c0.3-0.3,0.6-0.6,0.9-0.9c0.6-0.6,1.1-1.2,1.7-1.8 c0.3-0.3,0.5-0.6,0.8-0.9c0.6-0.6,1.1-1.2,1.7-1.9C26.2,7,26.6,6.6,27,6.1c0.5-0.6,1.1-1.2,1.6-1.7c0.4-0.4,1-0.6,1.6-0.4 c0.6,0.2,1,0.6,1.1,1.2c0.1,0.3,0,0.6-0.2,0.8c-0.3,0.4-0.6,0.8-0.9,1.2c-0.4,0.4-0.7,0.9-1.1,1.3c-0.3,0.4-0.6,0.8-1,1.2 c-0.4,0.4-0.7,0.9-1.1,1.3c-0.4,0.4-0.7,0.9-1.1,1.3c-0.4,0.5-0.8,1-1.2,1.5c-0.4,0.4-0.7,0.9-1.1,1.3c-0.4,0.4-0.7,0.9-1.1,1.3 c-0.1,0.1-0.2,0.3-0.4,0.4c0.1,0.1,0.2,0.3,0.4,0.4c0.5,0.6,1.1,1.2,1.6,1.7c0.6,0.6,0.6,1.6,0,2.2c-0.5,0.6-1.1,1.1-1.6,1.7 c0.2,0.2,0.4,0.5,0.6,0.7c0.3,0.4,0.7,0.8,1,1.2c0.3,0.3,0.6,0.7,0.9,1c0.3,0.3,0.6,0.7,0.9,1c0.3,0.3,0.6,0.7,0.9,1 c0.3,0.4,0.7,0.8,1,1.2c0.3,0.3,0.6,0.7,0.8,1c0.3,0.3,0.6,0.7,0.9,1c0.3,0.3,0.6,0.7,0.9,1c0.3,0.4,0.7,0.8,1,1.2 c0.3,0.3,0.6,0.7,0.8,1c0.3,0.4,0.6,0.7,0.9,1.1c0.2,0.3,0.5,0.6,0.7,0.9c0.2,0.3,0.4,0.6,0.4,1c0,0,0,0,0,0c0,0,0,0.1,0,0.1 c0,0.1,0,0.2,0,0.2c-0.2,0.6-0.5,1-1.2,1.2c-0.1,0-0.2,0-0.3,0.1C32.9,39,32.9,39,32.8,39z M22.4,22.4c0.1-0.1,0.1-0.2,0.2-0.2 c0.3-0.3,0.5-0.5,0.8-0.8c0.2-0.2,0.4-0.4,0.6-0.6c0.3-0.3,0.3-0.7,0.1-1c-0.1-0.2-0.3-0.4-0.5-0.6c-0.3-0.4-0.7-0.8-1.1-1.1 c-0.4-0.4-0.7-0.8-1.1-1.2c-0.4-0.4-0.7-0.8-1.1-1.2c-0.4-0.4-0.7-0.8-1.1-1.1c-0.4-0.4-0.7-0.8-1.1-1.2c-0.4-0.4-0.7-0.8-1.1-1.2 c-0.4-0.4-0.7-0.8-1.1-1.2c-0.4-0.4-0.7-0.8-1.1-1.1c-0.4-0.4-0.7-0.8-1.1-1.2c-0.4-0.4-0.7-0.8-1.1-1.2c-0.4-0.4-0.7-0.8-1.1-1.1 c-0.4-0.4-0.7-0.8-1.1-1.2C10.4,4.8,10,4.5,9.7,4.1C9.4,3.7,9,3.4,8.7,3.1C8.6,2.9,8.5,2.8,8.3,2.6C8.1,2.4,7.8,2.1,7.6,1.9 C7.2,1.5,6.7,1.6,6.4,1.9C6.2,2.1,6.1,2.4,6.2,2.7c0.2,0.4,0.4,0.7,0.7,1c0.2,0.2,0.4,0.5,0.6,0.8C7.8,4.8,8,5.1,8.3,5.4 C8.5,5.7,8.8,6,9,6.3c0.3,0.3,0.5,0.6,0.8,0.9c0.3,0.3,0.5,0.6,0.8,0.9c0.3,0.3,0.5,0.6,0.8,1c0.2,0.3,0.5,0.6,0.7,0.9 c0.3,0.3,0.5,0.6,0.8,0.9c0.2,0.2,0.4,0.5,0.6,0.7c0.3,0.3,0.5,0.6,0.8,0.9c0.3,0.3,0.5,0.6,0.8,0.9c0.3,0.3,0.5,0.6,0.8,0.9 c0.3,0.3,0.5,0.6,0.8,0.9c0.3,0.3,0.5,0.6,0.8,1c0.2,0.3,0.5,0.6,0.7,0.9c0.3,0.3,0.5,0.6,0.8,0.9c0.3,0.3,0.5,0.6,0.8,0.9 c0.3,0.3,0.5,0.6,0.8,0.9c0.2,0.3,0.5,0.5,0.7,0.8c0.3,0.4,0.6,0.7,0.9,1.1C22.1,22,22.2,22.2,22.4,22.4z M17.9,23.4 C17.9,23.4,17.9,23.4,17.9,23.4c-0.3,0.3-0.5,0.5-0.6,0.7c-0.2,0.3-0.5,0.5-0.7,0.8c-0.3,0.3-0.6,0.7-0.9,1 c-0.2,0.3-0.5,0.5-0.7,0.8c-0.2,0.3-0.5,0.5-0.7,0.8c-0.2,0.3-0.5,0.6-0.7,0.8c-0.3,0.3-0.6,0.7-0.9,1c-0.2,0.3-0.5,0.5-0.7,0.8 c-0.3,0.3-0.6,0.7-0.9,1c-0.2,0.3-0.5,0.5-0.7,0.8c-0.3,0.4-0.6,0.7-0.9,1.1c-0.2,0.2-0.4,0.5-0.6,0.7c-0.2,0.3-0.3,0.6-0.2,1 c0.2,0.5,0.8,0.7,1.2,0.6c0.2-0.1,0.4-0.2,0.5-0.4c0.3-0.4,0.7-0.7,1-1c0.3-0.3,0.6-0.7,1-1c0.3-0.3,0.7-0.7,1-1 c0.3-0.3,0.6-0.7,1-1c0.3-0.3,0.7-0.7,1-1c0.3-0.3,0.6-0.7,0.9-1c0.3-0.4,0.7-0.7,1-1.1c0.3-0.3,0.6-0.7,1-1 c0.4-0.4,0.8-0.8,1.2-1.3c0.1-0.1,0.2-0.2,0.3-0.2C19.2,24.7,18.5,24,17.9,23.4z"/>
</svg>