<!-- (c) Carrd Inc. All rights reserved. All logos and trademarks are property of their respective owners. -->
<svg xmlns="http://www.w3.org/2000/svg" id="icon">
<path d="M9.1,27c-0.1-0.2-0.2-0.4-0.3-0.6c-0.1,0-0.1,0-0.1,0c-0.4,0.2-0.8,0.3-1.2,0.5C7.3,27,7.2,27,7,27 c-0.2-0.1-0.4-0.2-0.5-0.5c0-0.3,0.1-0.5,0.3-0.6c0.1,0,0.1-0.1,0.2-0.1c0.4-0.2,0.8-0.3,1.1-0.5c0.1,0,0.1,0,0.2-0.1 c0-0.1-0.1-0.2-0.1-0.3c0-0.1-0.1-0.2-0.1-0.3c-0.1,0-0.1,0-0.2,0.1c-0.4,0.2-0.8,0.3-1.2,0.5c-0.1,0.1-0.3,0.1-0.4,0 c-0.2-0.1-0.4-0.2-0.5-0.5c0-0.2,0.1-0.5,0.3-0.6C6.2,24,6.3,24,6.3,24c0.4-0.2,0.8-0.3,1.2-0.5c0.1,0,0.1,0,0.2-0.1 c-0.1-0.2-0.2-0.4-0.3-0.7c-0.1,0.1-0.2,0.1-0.4,0.1c-0.3,0.1-0.7,0.3-1,0.4c-0.2,0.1-0.3,0.1-0.5,0c-0.2-0.1-0.4-0.3-0.4-0.5 c0-0.3,0.1-0.5,0.3-0.6c0,0,0.1,0,0.1-0.1C6,22,6.4,21.9,6.8,21.7c0.1,0,0.1,0,0.2-0.1c-0.1-0.2-0.2-0.4-0.3-0.6c-0.1,0-0.1,0-0.1,0 c-0.4,0.2-0.8,0.3-1.2,0.5c-0.1,0-0.2,0.1-0.4,0.1c-0.3,0-0.5-0.2-0.5-0.5c0-0.2,0.1-0.5,0.3-0.6c0.1,0,0.1-0.1,0.2-0.1 c0.4-0.2,0.8-0.3,1.1-0.5c0,0,0.1,0,0.2-0.1c-0.1-0.2-0.2-0.4-0.3-0.7c-0.1,0-0.1,0-0.2,0.1c-0.4,0.2-0.8,0.3-1.2,0.5 c-0.2,0.1-0.3,0.1-0.5,0c-0.2-0.1-0.4-0.3-0.4-0.5c0-0.3,0.1-0.5,0.3-0.6c0.1,0,0.1-0.1,0.2-0.1c0.4-0.1,0.7-0.3,1.1-0.4 c0.1,0,0.1,0,0.2-0.1c-0.1-0.2-0.2-0.4-0.3-0.7c-0.1,0-0.1,0-0.2,0.1c-0.4,0.2-0.8,0.3-1.2,0.5C3.8,18,3.6,18,3.5,18 c-0.2-0.1-0.4-0.3-0.4-0.5c0-0.3,0.1-0.5,0.3-0.6c0.1,0,0.1-0.1,0.2-0.1c0.4-0.2,0.8-0.3,1.1-0.5c0,0,0.1,0,0.2-0.1 c-0.1-0.2-0.2-0.4-0.3-0.7c-0.1,0-0.1,0-0.2,0.1C4,15.9,3.6,16,3.2,16.2c-0.2,0.1-0.3,0.1-0.5,0c-0.2-0.1-0.4-0.3-0.4-0.5 c0-0.3,0.1-0.5,0.3-0.6c0.1,0,0.1-0.1,0.2-0.1c0.4-0.2,0.8-0.3,1.2-0.5c0,0,0.1,0,0.2-0.1c-0.1-0.2-0.2-0.4-0.3-0.7 c-0.1,0-0.1,0-0.1,0c-0.4,0.2-0.8,0.3-1.2,0.5c-0.1,0-0.2,0.1-0.3,0.1c-0.3,0-0.5-0.2-0.5-0.5c-0.1-0.2,0.1-0.5,0.3-0.6 c0.1,0,0.1-0.1,0.2-0.1c0.4-0.2,0.8-0.3,1.2-0.5c0,0,0.1,0,0.2-0.1c-0.1-0.2-0.2-0.4-0.3-0.7c-0.1,0-0.2,0.1-0.3,0.1 c-0.4,0.1-0.7,0.3-1.1,0.4c-0.2,0.1-0.3,0.1-0.5,0C1.1,12.5,1,12.4,1,12.1c0-0.2,0.1-0.4,0.3-0.6c0.1,0,0.1-0.1,0.2-0.1 c0.4-0.2,0.8-0.3,1.2-0.5c0,0,0.1,0,0.2-0.1c-0.1-0.2-0.1-0.4-0.2-0.6C10.9,7,19.3,3.8,27.6,0.5C27.7,0.6,39,29.5,39,29.7 c-0.1,0-0.1,0-0.2,0.1c-7,2.7-14,5.5-20.9,8.2c-1.2,0.5-2.4,0.9-3.6,1.4c-0.1,0-0.3,0.1-0.4,0.1c-0.1-0.2-0.1-0.4-0.2-0.5 c0,0-0.1,0-0.1,0c-0.4,0.2-0.8,0.3-1.3,0.5c-0.1,0.1-0.3,0.1-0.4,0c-0.2-0.1-0.4-0.3-0.4-0.5c0-0.3,0.1-0.5,0.3-0.6 c0.1,0,0.1-0.1,0.2-0.1c0.4-0.1,0.7-0.3,1.1-0.4c0.1,0,0.1,0,0.2-0.1c-0.1-0.2-0.2-0.4-0.3-0.7c-0.1,0-0.1,0-0.2,0.1 c-0.4,0.2-0.8,0.3-1.2,0.5c-0.1,0.1-0.3,0.1-0.4,0c-0.2-0.1-0.4-0.3-0.5-0.5c0-0.2,0.1-0.5,0.3-0.6c0,0,0.1,0,0.1-0.1 c0.4-0.2,0.8-0.3,1.1-0.5c0.1,0,0.1,0,0.2-0.1c-0.1-0.2-0.2-0.4-0.3-0.7c-0.1,0-0.1,0-0.2,0.1c-0.4,0.2-0.8,0.3-1.2,0.5 c-0.1,0-0.3,0.1-0.4,0.1c-0.3-0.1-0.5-0.3-0.5-0.5c0-0.3,0.1-0.5,0.4-0.6c0.3-0.1,0.6-0.2,0.9-0.4c0.2-0.1,0.3-0.1,0.5-0.2 c-0.1-0.2-0.2-0.4-0.3-0.7c-0.1,0-0.1,0-0.2,0.1c-0.4,0.2-0.8,0.3-1.2,0.5c-0.1,0.1-0.3,0.1-0.4,0c-0.2-0.1-0.4-0.3-0.4-0.5 c0-0.2,0.1-0.5,0.3-0.6c0,0,0.1,0,0.1-0.1c0.4-0.2,0.8-0.3,1.2-0.5c0.1,0,0.1,0,0.2-0.1c-0.1-0.2-0.2-0.4-0.3-0.7 c-0.1,0-0.1,0-0.2,0.1c-0.4,0.2-0.8,0.3-1.2,0.5c-0.1,0-0.2,0.1-0.4,0c-0.3-0.1-0.5-0.3-0.5-0.5c0-0.3,0.1-0.5,0.4-0.6 c0.2-0.1,0.3-0.1,0.5-0.2c0.3-0.1,0.5-0.2,0.8-0.3c0,0,0.1,0,0.1-0.1c-0.1-0.2-0.2-0.4-0.3-0.7c-0.1,0-0.1,0-0.2,0.1 c-0.4,0.2-0.8,0.3-1.2,0.5c-0.1,0.1-0.3,0.1-0.4,0C8.2,30.5,8,30.3,8,30c0-0.2,0.1-0.5,0.3-0.6c0.1,0,0.1-0.1,0.2-0.1 c0.4-0.2,0.8-0.3,1.2-0.5c0.1,0,0.1,0,0.2-0.1c-0.1-0.2-0.2-0.4-0.3-0.7c-0.1,0-0.1,0-0.2,0.1c-0.4,0.2-0.8,0.3-1.2,0.5 c-0.1,0.1-0.3,0.1-0.4,0c-0.3-0.1-0.4-0.3-0.5-0.5c0-0.2,0.1-0.5,0.3-0.6c0,0,0.1,0,0.1-0.1c0.4-0.2,0.8-0.3,1.2-0.5 C8.9,27.1,9,27.1,9.1,27z M21.4,14.4L21.4,14.4c0,0.1-0.1,0.2-0.1,0.3c-0.3,0.7-0.6,1.4-0.9,2.2c-1.2,3-2.2,6.2-3,9.4 c0,0.1,0,0.2-0.1,0.3c0.9-0.6,1.6-1.4,2.2-2.3c0.6-0.9,1.1-1.8,1.4-2.8c0,0,0,0,0,0c-0.2,0.1-0.5,0.2-0.7,0.3c0-0.1,0.1-0.2,0.2-0.2 c0.3-0.3,0.6-0.6,0.9-0.9c0.1-0.1,0.2-0.2,0.2-0.3c0.2-0.7,0.4-1.3,0.6-2c0-0.1,0-0.1,0.1-0.3c-0.8,0.4-1.5,0.9-2.2,1.3 c0.1-0.1,0.1-0.2,0.2-0.2c0.7-0.5,1.3-1,2-1.5c0.1-0.1,0.2-0.2,0.2-0.3c0.1-0.8,0.3-1.6,0.5-2.3c0.3-1.5,0.7-2.9,1.3-4.3 c0.6-1.4,1.4-2.7,2.5-3.8c0,0,0-0.1,0.1-0.1c-0.1,0-0.2,0.1-0.3,0.1c-0.3,0.1-0.6,0.3-0.9,0.4c-1.4,0.8-2.6,1.8-3.6,3 c-0.2,0.2-0.2,0.4-0.2,0.6c0,0.2,0,0.5,0,0.7c0,0,0,0,0,0c-0.1-0.3-0.1-0.5-0.2-0.8c0,0.1-0.1,0.1-0.1,0.1c-0.4,0.6-0.9,1.3-1.3,1.9 c-0.1,0.1-0.1,0.2,0,0.3c0.1,0.3,0.2,0.6,0.3,1c0,0.1,0,0.1,0,0.2c0,0,0,0,0,0c-0.2-0.3-0.3-0.7-0.5-1.1c0,0.1-0.1,0.1-0.1,0.1 c-1.1,2.1-2.1,4.2-3,6.4c0,0.1,0,0.2,0,0.3c0.2,0.4,0.3,0.8,0.5,1.2c0,0.1,0.1,0.2,0.1,0.3c-0.3-0.4-0.5-0.8-0.8-1.2 c-0.2,0.5-0.3,0.9-0.5,1.3c-0.1,0.1,0,0.3,0,0.4c0.1,0.4,0.3,0.7,0.4,1.1c0,0,0,0.1,0,0.2c0,0,0,0,0,0c-0.2-0.2-0.4-0.5-0.6-0.8 c-0.4,1.3-0.1,2.9,0.5,3.8c0-0.1,0-0.2,0.1-0.3c0.5-2.4,1.3-4.7,2.2-6.9c0-0.1,0.1-0.1,0.1-0.2l0,0c0,0.1,0,0.2-0.1,0.2 c-1,2.4-1.7,4.9-2.2,7.4c-0.3,1.6-0.6,3.3-0.9,4.9c0,0.1,0,0.3-0.1,0.4c0.1,0,0.1-0.1,0.1-0.1c0.4-0.7,0.8-1.3,1.2-2 c0.1-0.1,0.1-0.3,0-0.4c-0.2-0.4-0.2-0.7-0.2-1.1c0.2-1.4,0.4-2.8,0.8-4.2c0.9-3.3,2.1-6.4,3.6-9.5C21.3,14.4,21.4,14.4,21.4,14.4z M16.3,32.1c0.2,0,0.3,0,0.5,0c0.2,0,0.3,0,0.5,0c1.8-0.2,3.1-1,4.2-2.4c0.4-0.6,0.7-1.2,0.9-1.8c0.1-0.4,0.3-0.8,0.5-1.2 c0.2-0.5,0.5-0.9,1-1.2c0.9-0.7,1.9-0.8,2.9-0.6c1,0.2,1.9,0.6,2.7,1.2c0.1,0.1,0.1,0.1,0.2,0.2c0,0,0,0,0,0c0,0,0,0-0.1-0.1 c-0.6-0.6-1.3-1-2.1-1.3c-0.7-0.3-1.5-0.4-2.3-0.2c-1.3,0.3-2.2,1-2.7,2.2c-0.2,0.4-0.3,0.8-0.4,1.2c-0.2,0.5-0.4,1-0.8,1.5 C20,31,18.3,31.9,16.3,32.1z M4.8,13.5c0.2-0.1,0.5-0.2,0.7-0.3c0.2-0.1,0.4-0.4,0.3-0.6C5.7,12.2,5.4,12,5,12.1 c-0.2,0.1-0.4,0.2-0.6,0.2c0,0-0.1,0-0.1,0.1c0.3,0,0.5,0.1,0.6,0.4C5,13.1,4.9,13.3,4.8,13.5z M7.8,21.3c0.3,0.1,0.5,0.2,0.6,0.4 c0.1,0.3,0,0.5-0.2,0.7c0.2-0.1,0.5-0.2,0.7-0.3c0.3-0.1,0.4-0.5,0.3-0.8c-0.1-0.3-0.4-0.5-0.7-0.3C8.3,21.1,8.1,21.2,7.8,21.3z M11.3,30.3c0.6,0.1,0.8,0.7,0.4,1.1c0.3-0.1,0.5-0.2,0.8-0.3c0.3-0.1,0.4-0.5,0.3-0.7c-0.1-0.3-0.4-0.5-0.7-0.4 C11.8,30.1,11.6,30.2,11.3,30.3z M9,24.2c0,0,0.1,0,0.1,0c0.2-0.1,0.3-0.1,0.5-0.2c0.3-0.1,0.5-0.5,0.4-0.8 c-0.1-0.3-0.5-0.5-0.8-0.3C9,22.9,8.8,23,8.6,23.1c0,0-0.1,0-0.1,0.1C9.1,23.2,9.4,23.7,9,24.2z M4.1,11.7c0.2-0.1,0.5-0.2,0.7-0.3 c0.3-0.1,0.4-0.5,0.3-0.8c-0.1-0.3-0.4-0.4-0.7-0.3c-0.1,0-0.3,0.1-0.4,0.2c-0.1,0-0.2,0.1-0.3,0.1C4.3,10.7,4.4,11.3,4.1,11.7z M14.5,38.6c0.3-0.1,0.5-0.2,0.8-0.3c0,0,0.1-0.1,0.1-0.1c0.2-0.2,0.2-0.5,0.1-0.7c-0.1-0.2-0.4-0.4-0.7-0.3 c-0.2,0.1-0.4,0.2-0.6,0.2c0,0-0.1,0-0.1,0.1C14.7,37.5,15,38.1,14.5,38.6z M7.6,20.6C7.6,20.6,7.6,20.6,7.6,20.6 c0.3-0.1,0.5-0.2,0.8-0.3c0.3-0.1,0.3-0.5,0.2-0.8c-0.1-0.3-0.4-0.4-0.7-0.3c-0.1,0-0.3,0.1-0.4,0.1c-0.1,0-0.2,0.1-0.3,0.1 C7.8,19.6,7.9,20.2,7.6,20.6z M9.9,26.7c0.3,0.1,0.5,0.2,0.6,0.4c0.1,0.3,0,0.5-0.2,0.7c0.2-0.1,0.5-0.2,0.7-0.3 c0.3-0.1,0.4-0.5,0.3-0.8c-0.1-0.3-0.4-0.4-0.7-0.3C10.4,26.5,10.2,26.6,9.9,26.7z M13.2,35c0.2-0.1,0.5-0.2,0.7-0.3 c0.3-0.1,0.4-0.5,0.3-0.7c-0.1-0.3-0.4-0.4-0.7-0.4c-0.3,0.1-0.5,0.2-0.8,0.3C13.4,34,13.6,34.5,13.2,35z M13.9,36.8 c0.2-0.1,0.4-0.2,0.6-0.3c0.3-0.1,0.5-0.5,0.4-0.8c-0.1-0.3-0.5-0.5-0.8-0.3c-0.2,0.1-0.4,0.1-0.5,0.2c0,0-0.1,0-0.1,0.1 C14.1,35.8,14.2,36.4,13.9,36.8z M5,14.2C5,14.2,5,14.2,5,14.2c0.3,0.1,0.5,0.2,0.6,0.4c0.1,0.3,0,0.5-0.1,0.7 C5.7,15.2,6,15.1,6.2,15c0.3-0.1,0.4-0.5,0.3-0.7c-0.1-0.3-0.4-0.5-0.7-0.4C5.5,14,5.3,14.1,5,14.2z M10.6,28.5 c0.3,0.1,0.5,0.2,0.6,0.4c0.1,0.3,0,0.5-0.1,0.7c0.2-0.1,0.4-0.1,0.6-0.2c0.1,0,0.1,0,0.1-0.1c0.3-0.2,0.4-0.5,0.2-0.7 c-0.1-0.3-0.4-0.4-0.7-0.4C11.1,28.3,10.9,28.4,10.6,28.5z M6.4,17.7c0.5,0.1,0.8,0.6,0.4,1.1c0.2-0.1,0.4-0.2,0.6-0.2 c0.1,0,0.1,0,0.2-0.1c0.3-0.1,0.4-0.5,0.3-0.8c-0.1-0.3-0.4-0.4-0.7-0.3C6.9,17.6,6.7,17.7,6.4,17.7z M9.6,26 c0.2-0.1,0.5-0.2,0.7-0.3c0.3-0.1,0.5-0.5,0.3-0.8c-0.1-0.3-0.5-0.5-0.8-0.3c-0.2,0.1-0.4,0.1-0.5,0.2c0,0-0.1,0-0.1,0.1 C9.8,25,10.1,25.6,9.6,26z M6.2,17.1C6.2,17.1,6.2,17.1,6.2,17.1c0.3-0.1,0.5-0.2,0.7-0.3c0.2-0.1,0.3-0.4,0.3-0.6 c-0.1-0.4-0.4-0.6-0.8-0.4c-0.2,0.1-0.4,0.1-0.6,0.2c0,0-0.1,0-0.1,0.1C6.2,16,6.6,16.5,6.2,17.1z M12.1,32.1 c0.3,0.1,0.5,0.2,0.6,0.4c0.1,0.3,0,0.5-0.1,0.7c0.3-0.1,0.5-0.2,0.7-0.3c0.3-0.1,0.3-0.5,0.2-0.8c-0.1-0.3-0.4-0.4-0.7-0.3 C12.5,31.9,12.3,32,12.1,32.1z M29.8,26.3C29.8,26.3,29.8,26.3,29.8,26.3C29.8,26.3,29.7,26.3,29.8,26.3 C29.7,26.2,29.7,26.2,29.8,26.3C29.7,26.3,29.7,26.3,29.8,26.3z"/>
</svg>