<!-- (c) Carrd Inc. All rights reserved. All logos and trademarks are property of their respective owners. -->
<svg xmlns="http://www.w3.org/2000/svg" id="icon">
<path d="M22.6,38.4c-1.7,0-3.4,0-5.1,0c0,0,0-0.1,0-0.1c0-1.6,0-3.2,0-4.8c0-0.1,0-0.1,0-0.2c-1.7,0-3.4,0-5.1,0c0-1.7,0-3.4,0-5.1 c-1.7,0-3.4,0-5.1,0c0-1.7,0-3.4,0-5.1c-0.4,0-0.8,0-1.2,0c-1.3,0-2.6,0-3.9,0c0-5.1,0-10.3,0-15.4c5.1,0,10.3,0,15.4,0 c0,0,0,0.1,0,0.1c0,1.6,0,3.2,0,4.9c0,0.1,0,0.1,0,0.2c1.7,0,3.4,0,5.2,0c0-0.9,0-1.7,0-2.6c0-0.8,0-1.7,0-2.5c5.1,0,10.3,0,15.4,0 c0,5.1,0,10.3,0,15.4c0,0-0.1,0-0.1,0c-1.6,0-3.2,0-4.8,0c-0.1,0-0.1,0-0.2,0c0,1.7,0,3.4,0,5.1c-1.7,0-3.4,0-5.1,0 c0,1.7,0,3.4,0,5.1c-1.7,0-3.4,0-5.1,0c0,1.3,0,2.6,0,3.8C22.6,37.6,22.6,38,22.6,38.4z"/>
</svg>