<!-- (c) Carrd Inc. All rights reserved. All logos and trademarks are property of their respective owners. -->
<svg xmlns="http://www.w3.org/2000/svg" id="icon">
<path d="M10.78,18.67c2.69-2.47,5.32-4.83,7.87-7.27c0.85-0.82,1.73-1.02,2.87-0.75c0,6.21,0,12.41,0,18.79 c-1.51,0-3.02,0.03-4.52-0.04c-0.16-0.01-0.42-0.57-0.42-0.87c-0.03-2.53-0.02-5.06-0.02-7.59c0-0.32,0-0.64,0-1.18 c-0.4,0.32-0.66,0.52-0.91,0.74c-1.34,1.17-2.7,2.33-4.01,3.54c-0.62,0.58-1.11,0.61-1.74,0.01c-1.27-1.2-2.6-2.34-3.91-3.51 c-0.23-0.21-0.49-0.4-0.88-0.72c-0.02,0.51-0.05,0.84-0.05,1.18c0,2.5-0.03,4.99,0.01,7.49c0.01,0.79-0.26,1.01-1.01,0.98 c-1.1-0.05-2.2-0.03-3.31-0.01C0.22,29.48,0,29.29,0,28.74c0.01-5.84,0-11.67,0.02-17.51c0-0.22,0.2-0.62,0.28-0.62 c0.68,0.07,1.53-0.01,1.98,0.37c2.03,1.71,3.95,3.55,5.91,5.34C9.03,17.09,9.87,17.85,10.78,18.67z M28.84,23.64 c0,2.01,0,3.84,0,5.75c-1.66,0-3.23,0-4.89,0c0-6.25,0-12.48,0-18.86c0.34,0,0.68,0,1.03,0c2.66,0,5.32,0,7.98,0 c3.36,0,5.71,1.54,6.65,4.36c1.01,3.03,0.03,6.05-2.59,8.01c-0.08,0.06-0.17,0.1-0.31,0.19c0.92,1.65,1.8,3.23,2.68,4.81 c0.68,1.22,0.49,1.58-0.86,1.58c-1.1,0-2.21-0.03-3.31,0.01c-0.57,0.02-0.89-0.19-1.12-0.7c-0.67-1.44-1.44-2.83-2.06-4.29 c-0.3-0.7-0.7-0.92-1.4-0.85C30.09,23.68,29.54,23.64,28.84,23.64z M28.91,19.49c1.51,0,2.9,0.04,4.29-0.01 c1.04-0.04,1.77-0.94,1.87-2.14c0.11-1.23-0.47-2.46-1.45-2.55c-1.56-0.14-3.14-0.04-4.72-0.04C28.91,16.36,28.91,17.87,28.91,19.49 z"/>
</svg>