<!-- (c) Carrd Inc. All rights reserved. All logos and trademarks are property of their respective owners. -->
<svg xmlns="http://www.w3.org/2000/svg" id="icon">
<path d="M39.4,22c-0.1,0.6-0.2,1.1-0.3,1.7c-0.1,0.6-0.3,1.1-0.4,1.6c-0.3,1-0.7,2-1.1,2.9c-0.5,1-1.1,2-1.7,2.9 c-0.4,0.5-0.7,0.9-1.1,1.4c-0.5,0.6-1.1,1.1-1.6,1.6c-0.5,0.5-1.1,0.9-1.6,1.3c-0.6,0.4-1.1,0.8-1.7,1.1c-0.8,0.5-1.6,0.9-2.5,1.2 c-0.6,0.2-1.2,0.4-1.8,0.6c-0.3,0.1-0.7,0.2-1,0.2c-0.3,0.1-0.6,0.2-0.9,0.2c-0.3,0.1-0.7,0.1-1,0.1c-0.8,0.1-1.7,0.1-2.4,0.2 c-0.8,0-1.4-0.1-2.1-0.1c-0.5,0-1-0.1-1.5-0.2c-0.3,0-0.6-0.1-0.9-0.2c-0.4-0.1-0.7-0.2-1.1-0.3c-0.6-0.2-1.2-0.4-1.8-0.6 c-0.5-0.2-0.9-0.4-1.3-0.6c-0.7-0.4-1.4-0.7-2-1.1c-0.5-0.3-0.9-0.6-1.4-1c-0.7-0.5-1.3-1-1.9-1.6c-0.5-0.5-1-1-1.4-1.6 c-0.5-0.6-0.9-1.2-1.3-1.8c-0.5-0.7-0.9-1.5-1.3-2.3c-0.2-0.5-0.5-1.1-0.7-1.6c-0.2-0.5-0.3-1-0.5-1.5C1,24.4,0.9,24,0.9,23.6 c-0.1-0.4-0.2-0.8-0.2-1.1c0-0.3-0.1-0.7-0.1-1c0-0.7-0.1-1.4-0.1-2c0-0.5,0-0.9,0.1-1.4c0.1-0.6,0.2-1.1,0.3-1.7 c0-0.3,0.1-0.6,0.2-0.8c0.2-0.6,0.3-1.1,0.5-1.7c0.2-0.7,0.5-1.4,0.8-2c0.2-0.5,0.5-1,0.8-1.5c0,0,0,0,0,0C3.6,9.6,4,9,4.4,8.5 C5,7.6,5.7,6.8,6.5,6.1c0.5-0.5,1.1-1,1.7-1.4c0.7-0.5,1.4-1,2.1-1.4c0.4-0.2,0.8-0.5,1.3-0.7c0.7-0.3,1.4-0.6,2.2-0.8 c0.5-0.2,1-0.3,1.5-0.4c0.4-0.1,0.8-0.2,1.2-0.2C17,1,17.4,0.9,17.9,0.9c0.6-0.1,1.1-0.1,1.7-0.1c0.6,0,1.1,0,1.7,0 c0.5,0,0.9,0.1,1.4,0.2c0.5,0.1,1.1,0.2,1.6,0.3c0.4,0.1,0.7,0.2,1.1,0.3c0.4,0.1,0.8,0.3,1.3,0.4c0.9,0.3,1.8,0.7,2.6,1.2 c0.8,0.4,1.6,0.9,2.4,1.5c0.9,0.6,1.7,1.4,2.4,2.1c0.6,0.6,1.1,1.2,1.6,1.9c0.6,0.7,1.1,1.5,1.5,2.4c0.3,0.6,0.6,1.2,0.9,1.9 c0.3,0.7,0.5,1.4,0.7,2.1c0.2,0.6,0.3,1.3,0.4,1.9c0.1,0.5,0.1,1,0.2,1.5c0,0.7,0.1,1.3,0.1,2C39.5,20.9,39.5,21.5,39.4,22z M36.3,14.8c-0.6,0.2-1.1,0.3-1.7,0.5c-0.3,0.1-0.7,0.2-1,0.3c-0.4,0.1-0.8,0.2-1.2,0.3c-0.1,0-0.1,0-0.2,0 c-0.4-0.1-0.9-0.2-1.3-0.3c-0.2,0-0.3-0.1-0.4-0.2c-0.2-0.2-0.3-0.5-0.5-0.7c-0.6-0.8-1.2-1.7-1.8-2.5c-0.6-0.8-1.2-1.7-1.8-2.5 c0,0,0-0.1,0-0.1c-0.6,0.5-1.2,0.9-1.8,1.3c-0.4,0.3-0.9,0.6-1.3,1c-0.1,0-0.1,0.1-0.2,0c-0.3-0.4-0.5-0.7-0.8-1 c-0.7-0.9-1.4-1.9-2.1-2.8c-0.5-0.7-1-1.3-1.5-2c-0.1-0.1-0.1-0.1-0.2,0c-0.1,0.1-0.1,0.1-0.2,0.2c-0.6,0.5-1.3,1-1.9,1.5 c-0.6,0.4-1.1,0.9-1.7,1.3c-0.7,0.5-1.4,1.1-2.1,1.6c-0.2,0.1-0.3,0.2-0.5,0.1c-0.6-0.2-1.2-0.3-1.8-0.5c-0.4-0.1-0.9-0.2-1.3-0.3 C8.5,10,8.1,9.9,7.6,9.8c-0.1,0-0.1,0-0.2,0c-0.4,0.2-0.8,0.3-1.2,0.5c-0.7,0.3-1.5,0.6-2.2,1c-0.1,0-0.1,0.1-0.1,0.1 c-0.3,0.5-0.5,1-0.8,1.6c-0.2,0.5-0.4,1-0.6,1.6c-0.1,0.3-0.2,0.6-0.3,1c-0.1,0.4-0.2,0.8-0.3,1.3C2,17,2,17.2,1.9,17.4 c0,0.3-0.1,0.5-0.1,0.8c0,0.4-0.1,0.7-0.1,1.1c0,1.1,0,2.1,0.2,3.2c0,0.2,0,0.4,0.1,0.6c0.1,0.5,0.2,1,0.3,1.5 c0.2,0.9,0.5,1.7,0.9,2.5c0.3,0.6,0.6,1.2,0.9,1.8c0.2,0.4,0.5,0.8,0.7,1.2c0.1,0.1,0.1,0.1,0.2,0.1c1.4,0,2.9,0,4.3,0 c0.4,0,0.8,0,1.1,0c0.1,0,0.2,0,0.3,0c0,0,0,0,0,0c-0.1,0-0.2-0.1-0.3-0.1c-0.5-0.2-0.9-0.5-1.3-0.9c-0.4-0.4-0.7-0.9-0.8-1.5 c-0.1-0.6-0.1-1.2,0.1-1.9c0-0.1,0-0.1-0.1-0.1c-0.2,0-0.3,0-0.5,0c-0.1,0-0.2,0-0.3-0.1c-0.1-0.1-0.2-0.2-0.4-0.2 c-0.1,0-0.1,0-0.2-0.1c-0.3-0.2-0.6-0.5-0.9-0.7c0,0-0.1-0.1-0.1-0.1c-0.3,0-0.5,0-0.8,0c-0.4,0-0.4,0-0.4-0.4c0-1.7,0-3.4,0-5 c0-0.1,0-0.2,0-0.3c0-0.1,0.1-0.2,0.2-0.2c0.6,0,1.1,0,1.7,0c0.2,0,0.3,0.1,0.3,0.3c0,0.4,0,0.8,0,1.2c0,0.2,0,0.2,0.2,0.1 c0-0.2,0-0.4,0-0.6c0-0.5,0.1-1,0.2-1.4c0.1-0.4,0.6-0.8,0.9-0.7c0.7,0,1.4,0,2.1,0c0,0,0.1,0,0.1,0c0-0.1,0-0.2-0.1-0.2 c-0.1,0-0.2,0-0.4,0c-0.3,0-0.6,0-0.8-0.1c-0.3,0-0.6,0-0.9,0c-0.1,0-0.2-0.1-0.1-0.2c0,0,0.1-0.1,0.2-0.1c0.1,0,0.2,0,0.2-0.1 c0.1-0.1,0.2-0.3,0.3-0.4c0.1-0.1,0.1-0.2,0.3-0.1c0.1,0,0.2,0,0.3-0.1c0.2-0.2,0.5-0.3,0.8-0.3c0.2,0,0.2,0,0.2-0.2 c0-0.2,0-0.2,0.2-0.2c0.7,0,1.4,0,2,0c0.1,0,0.2,0,0.2,0.2c0,0.2,0,0.4,0,0.5c0.2,0,0.3,0,0.5,0c0-0.1,0-0.1,0-0.2 c0-0.1,0-0.1,0-0.2c0-0.3,0.1-0.3,0.3-0.3c1.7,0,3.4,0,5.2,0c0.1,0,0.2,0,0.2,0.1c0,0.2,0,0.3,0,0.5c0,0,0,0.1,0.1,0.1 c0.1,0,0.3,0,0.4,0c0.1,0,0.1-0.2,0.1-0.3c0,0,0-0.1,0-0.1c0.1-0.2,0.2-0.3,0.4-0.3c0.2,0,0.4,0.1,0.5,0.3c0.1,0.2,0.3,0.2,0.5,0.1 c0.1,0,0.3,0,0.4,0.1c0.1,0.1,0.2,0.1,0.3,0.1c0.1,0,0.1,0,0.1-0.1c0.1-0.2,0.2-0.4,0.3-0.5c0.3-0.2,0.5-0.1,0.5,0.2 c0,0.2,0,0.4,0,0.6c0,0.1,0,0.2,0.2,0.3c0.6,0.3,1.1,0.5,1.7,0.8c0.1,0.1,0.3,0.1,0.4,0.1c0.3,0,0.6,0,0.9,0c0.3,0,0.3,0,0.2,0.3 c0,0.1,0,0.2,0.1,0.2c0.3,0.1,0.6,0.3,0.9,0.4c0.7,0.3,1.4,0.6,2.1,0.9c0.8,0.4,1.6,0.7,2.3,1.1c0.8,0.3,1.6,0.7,2.3,1 c0.3,0.1,0.5,0.2,0.8,0.4c0,0,0,0,0,0c0-0.1,0.1-0.2,0.2-0.2c0.1,0,0.2,0.1,0.2,0.2c0,0.3,0,0.5,0,0.8c0,0.1,0,0.2,0,0.3 c0.2-0.1,0.3,0.1,0.5,0.2c-0.1,0.1-0.1,0.2-0.2,0.3c0.1,0.1,0.1,0.2,0.1,0.3c0,0.1,0,0.2,0.1,0.2c0,0,0,0.1,0,0.1c0,0.1,0,0.1,0,0.2 c0,0.2,0,0.5-0.2,0.6c0,0-0.1,0.1-0.2,0.1c-0.2,0-0.3,0-0.5,0c-0.1,0-0.2,0.1-0.2,0.2c0,0.1,0.1,0,0.2,0.1c0,0,0,0,0,0 c0.1,0.4,0,0.5-0.2,0.6C34.5,26,34.2,26,33.9,26c0-0.2,0-0.2-0.1-0.2c0.3,0.9,0.2,1.8-0.2,2.7c-0.5,0.9-1.2,1.4-2.1,1.7 c0.1,0,0.2,0,0.3,0c1,0,2,0,3.1,0c0.2,0,0.3,0,0.4-0.2c0.4-0.6,0.8-1.3,1.1-1.9c0.4-0.8,0.7-1.6,1-2.4c0.2-0.6,0.4-1.2,0.5-1.8 c0.1-0.5,0.2-0.9,0.2-1.4c0.1-0.5,0.1-1,0.2-1.5c0-0.7,0-1.4,0-2c0-0.5-0.1-1-0.2-1.5c-0.1-0.5-0.2-1-0.3-1.5 c-0.1-0.4-0.2-0.8-0.3-1.3c0-0.1-0.1-0.1-0.1-0.1C37,14.7,36.6,14.7,36.3,14.8z M37.2,13.9c-0.4-1.2-1-2.3-1.6-3.3 c-1.6-2.5-3.7-4.5-6.3-6c-2.8-1.6-5.9-2.5-9.1-2.5c-3.9,0-7.6,1.1-10.8,3.3c-1.9,1.3-3.5,3-4.8,4.9c0.1,0,0.2-0.1,0.3-0.1 c0.8-0.4,1.6-0.7,2.4-1.1c0.1,0,0.1,0,0.2,0C8,9.2,8.4,9.3,8.9,9.4c0.4,0.1,0.7,0.2,1.1,0.2c0,0,0.1,0,0.1-0.1 c0.2-0.2,0.4-0.5,0.5-0.7c0.5-0.6,1-1.2,1.7-1.7c0.4-0.3,0.8-0.6,1.2-0.9c0.9-0.6,1.8-1,2.7-1.3c0.8-0.3,1.5-0.5,2.3-0.5 c0.3,0,0.6-0.1,1-0.1c0.8,0,1.5,0,2.3,0.1c0.2,0,0.4,0,0.6,0.1c0.4,0.1,0.7,0.2,1.1,0.3c0.7,0.2,1.3,0.4,1.9,0.7 c0.9,0.4,1.8,1,2.6,1.7c0.7,0.6,1.4,1.3,2,2.1c0.4,0.5,0.7,1.1,1,1.7c0.3,0.6,0.5,1.2,0.7,1.8c0.1,0.4,0.2,0.7,0.3,1.1 c0.1,0.4,0.1,0.7,0.2,1.1c0,0.2,0,0.4,0.1,0.5C33.9,14.8,35.5,14.3,37.2,13.9z M9.4,16.9c0-0.1-0.1-0.1-0.1-0.2c0-0.1,0-0.1-0.1-0.2 c-0.1,0-0.3,0.2-0.4,0.4C9,16.9,9.2,16.9,9.4,16.9z M34.6,22.4c0,0,0,0.1,0,0.1c0.1-0.1,0-0.4,0.3-0.5c-2.9-1.3-5.8-2.6-8.7-3.9 c0,0,0,0.1,0,0.1c0,0.1-0.1,0.2-0.2,0.1c-0.1,0-0.2,0-0.3,0c-0.1,0-0.1,0-0.2,0.1c-0.1,0.1-0.1,0.4,0,0.6c0.3,0.5,0.7,1,1,1.6 c0,0,0.1,0.1,0.1,0.1c0.1,0,0.2,0,0.3,0c0.3,0,0.6,0.1,1,0.1c0.1,0,0.2,0,0.2,0.1c0.1,0.1,0.1,0.1,0.3,0.1c0.4,0,0.7,0,1.1,0 c0.6,0,1.1,0.1,1.7,0.2c0.5,0.1,1,0.2,1.5,0.3c0.6,0.2,1.2,0.4,1.7,0.5C34.5,22.1,34.6,22.3,34.6,22.4z M34.6,23.4 C34.6,23.4,34.6,23.4,34.6,23.4c0.1,0.1,0.1,0,0.1,0c0-0.1-0.1-0.2-0.1-0.3c0,0,0,0,0,0C34.6,23.2,34.6,23.3,34.6,23.4z M16.5,25.9 c-0.2,0-0.3,0.1-0.5,0.2c-0.1,0.1-0.1,0.1-0.2,0.1c0,0,0,0,0,0c0.1,0,0.1,0,0.2,0c3.3,0,6.7,0,10,0c0.3,0,0.3-0.2,0.5-0.3 c0,0,0,0,0,0c0,0-0.1,0-0.1,0C23.1,25.9,19.8,25.9,16.5,25.9z M24.8,17.6c-0.2-0.1-0.5-0.2-0.7-0.3c-0.4-0.2-0.8-0.4-1.3-0.6 c-0.1,0.1,0,0.4-0.3,0.3c0,0.1,0,0.3,0,0.4c0,0,0.1,0.1,0.1,0.1c0.4,0,0.8,0,1.2,0c0.1,0,0.2,0,0.3,0.1c0.2,0.2,0.4,0.4,0.7,0.6 c0-0.2,0-0.3,0.1-0.4C24.9,17.7,24.9,17.7,24.8,17.6z M21.9,16.6c0-0.1-0.1-0.1-0.2-0.1c0,0.3,0,0.6-0.1,0.9c0.1,0,0.1,0,0.2,0 C21.9,17.2,21.9,16.9,21.9,16.6z M19.5,17.3c0-0.1,0-0.1-0.1-0.1c-0.1,0-0.2,0-0.3,0c-0.1,0-0.1,0-0.2,0.1c0,0.1,0,0.1,0,0.2 c0.2,0,0.4,0,0.6,0C19.5,17.4,19.5,17.3,19.5,17.3z M19.5,16.9C19.5,16.9,19.5,16.8,19.5,16.9c0.1-0.1,0.1-0.2,0.1-0.3 c-0.2,0-0.3,0-0.5,0c0,0.1,0,0.2,0,0.3C19.2,16.9,19.3,16.9,19.5,16.9z M27.5,28.6c-0.5-0.7-0.6-1.6-0.5-2.4c0,0,0,0,0,0 c0,0-0.1,0.1-0.1,0.1c-0.1,0.2-0.3,0.3-0.5,0.3c-3.4,0-6.9,0-10.3,0c-0.2,0-0.3,0-0.5,0c0,0-0.1,0-0.1,0.1c0,0.2-0.1,0.4-0.1,0.7 c-0.1,0.8-0.5,1.4-1.1,1.9c-0.4,0.4-0.8,0.6-1.3,0.8c0,0-0.1,0-0.1,0.1c0,0,0,0,0,0c5.6,0,11.1,0,16.7,0c0,0,0,0,0,0 C28.7,29.9,28,29.4,27.5,28.6z M13.5,17.1c-0.2,0-0.3,0-0.5,0c0,0-0.1,0-0.1,0.1c0,0.1,0,0.2,0,0.2c0.3,0,0.5,0,0.7,0 c0-0.1,0-0.2,0-0.2C13.6,17.2,13.6,17.1,13.5,17.1z M13.5,16.6C13.5,16.6,13.5,16.5,13.5,16.6c-0.2-0.1-0.4-0.1-0.5-0.1 c0,0.3,0,0.3,0.3,0.3c0,0,0,0,0.1,0C13.6,16.9,13.6,16.9,13.5,16.6z"/>
</svg>