<!-- (c) Carrd Inc. All rights reserved. All logos and trademarks are property of their respective owners. -->
<svg xmlns="http://www.w3.org/2000/svg" id="icon">
<path d="M38.6,21.9H21.7v-3.8h16.9c0.4,0,0.8,0.3,0.8,0.8v2.3C39.4,21.6,39,21.9,38.6,21.9z M36.3,14.6H21.7v-3.8h14.6 c0.4,0,0.8,0.3,0.8,0.8v2.3C37.1,14.3,36.7,14.6,36.3,14.6z M9.8,29.2c-5.1,0-9.2-4.1-9.2-9.2s4.1-9.2,9.2-9.2 c2.5,0,4.6,0.9,6.2,2.4l-2.6,2.6v0c-1-0.9-2.2-1.4-3.5-1.4c-3,0-5.5,2.6-5.5,5.6s2.5,5.6,5.5,5.6c2.7,0,4.6-1.5,5-3.6h-5v-3.5h8.7 c0.1,0.6,0.1,1.1,0.1,1.7C18.7,25.5,15.2,29.2,9.8,29.2z M37.1,26.2v2.3c0,0.4-0.3,0.8-0.8,0.8H21.7v-3.8h14.6 C36.7,25.4,37.1,25.7,37.1,26.2z"/>
</svg>