<!-- (c) Carrd Inc. All rights reserved. All logos and trademarks are property of their respective owners. -->
<svg xmlns="http://www.w3.org/2000/svg" id="icon">
<path d="M20,5.2C11.8,5.2,5.2,11.8,5.2,20c0,8.2,6.6,14.8,14.8,14.8c8.2,0,14.8-6.6,14.8-14.8C34.8,11.8,28.2,5.2,20,5.2z M38,20 c0,9.9-8.1,18-18,18c-9.9,0-18-8.1-18-18c0-9.9,8.1-18,18-18C29.9,2,38,10.1,38,20z M12.3,12.2c1.9,0,3.4,1.5,3.4,3.4 s-1.5,3.4-3.4,3.4c-1.9,0-3.4-1.5-3.4-3.4C8.9,13.7,10.4,12.2,12.3,12.2z M27.5,12.2c1.9,0,3.4,1.5,3.4,3.4s-1.5,3.4-3.4,3.4 c-1.9,0-3.4-1.5-3.4-3.4C24.1,13.7,25.6,12.2,27.5,12.2z"/>
</svg>