<!-- (c) Carrd Inc. All rights reserved. All logos and trademarks are property of their respective owners. -->
<svg xmlns="http://www.w3.org/2000/svg" id="icon">
<path d="M19.9,38c0,0,3.76,0,3.76-11.05c0-2.06-1.68-3.73-3.76-3.73c-2.07,0-3.76,1.67-3.76,3.73C16.14,38,19.9,38,19.9,38z M24.51,34.24c0.17-0.63,0.29-1.27,0.39-1.91l0.08-0.52c0.17-0.07,0.33-0.14,0.5-0.21c2.6-1.18,4.8-3.18,6.2-5.66 c0.64-1.14,1.11-2.37,1.39-3.64c0.32-1.43,0.41-2.92,0.23-4.37c-0.15-1.36-0.52-2.7-1.1-3.95c-0.66-1.48-1.58-2.82-2.74-3.95 c-1.19-1.18-2.58-2.13-4.1-2.8c-1.56-0.7-3.29-1.07-5.03-1.11c-1.74-0.04-3.48,0.23-5.11,0.86c-1.56,0.59-3,1.47-4.25,2.6 c-1.18,1.07-2.19,2.37-2.92,3.8c-0.62,1.21-1.05,2.52-1.28,3.86c-0.23,1.39-0.23,2.82-0.02,4.23c0.19,1.23,0.55,2.45,1.1,3.61 c1.26,2.66,3.41,4.88,6.07,6.23c0.32,0.15,0.64,0.3,0.99,0.45c0.02,0.17,0.07,0.36,0.09,0.55c0.11,0.62,0.23,1.26,0.39,1.88 c-0.58-0.19-1.16-0.41-1.72-0.66c-3.07-1.38-5.67-3.77-7.28-6.74C5.66,25.43,5.15,24,4.83,22.51c-0.37-1.64-0.43-3.37-0.21-5.05 c0.21-1.57,0.66-3.13,1.33-4.57c0.8-1.68,1.91-3.24,3.24-4.54c1.3-1.3,2.94-2.39,4.72-3.13c1.86-0.78,3.86-1.2,5.86-1.21 c2.01-0.02,4.03,0.34,5.91,1.08c1.81,0.71,3.47,1.76,4.9,3.07c1.38,1.27,2.51,2.78,3.34,4.45c0.71,1.41,1.21,2.95,1.44,4.5 c0.25,1.62,0.25,3.29-0.02,4.89c-0.23,1.5-0.73,2.96-1.4,4.33c-1.51,3-3.99,5.48-7.02,6.98c-0.75,0.36-1.55,0.68-2.36,0.93 L24.51,34.24z M25.25,28.14l0.01-0.67c0-0.45,0-0.89-0.07-1.34c-0.02-0.17-0.07-0.32-0.11-0.49c0.8-0.64,1.46-1.45,1.95-2.37 c0.37-0.68,0.64-1.43,0.8-2.2c0.17-0.86,0.21-1.75,0.09-2.64c-0.11-0.79-0.32-1.56-0.64-2.28c-0.41-0.87-0.96-1.68-1.65-2.37 c-0.71-0.68-1.51-1.23-2.4-1.64c-0.99-0.43-2.06-0.68-3.14-0.7c-1.07-0.02-2.17,0.17-3.18,0.55c-0.9,0.36-1.74,0.87-2.47,1.54 c-0.73,0.66-1.33,1.43-1.76,2.3c-0.37,0.7-0.62,1.45-0.78,2.24c-0.15,0.81-0.17,1.64-0.07,2.45c0.11,0.79,0.32,1.56,0.64,2.28 c0.5,1.09,1.22,2.05,2.13,2.84l-0.13,0.57c-0.09,0.45-0.07,0.87-0.07,1.34v0.6c-1.51-0.91-2.75-2.24-3.59-3.77 c-0.5-0.87-0.84-1.82-1.03-2.8c-0.23-1.09-0.28-2.22-0.13-3.32c0.13-1,0.41-1.98,0.82-2.88c0.5-1.11,1.22-2.13,2.08-3 c0.88-0.87,1.91-1.57,3.02-2.07c1.24-0.55,2.6-0.86,3.95-0.89c1.38-0.02,2.75,0.21,4.01,0.7c1.16,0.45,2.22,1.11,3.14,1.94 c0.9,0.84,1.67,1.81,2.24,2.91c0.45,0.89,0.8,1.86,0.97,2.84c0.17,1.02,0.21,2.07,0.07,3.09c-0.13,1-0.41,1.98-0.84,2.9 c-0.84,1.86-2.27,3.46-4.03,4.5L25.25,28.14L25.25,28.14z M19.9,14.58c2.09,0,3.79,1.68,3.79,3.76c0,2.09-1.7,3.77-3.79,3.77 s-3.79-1.68-3.79-3.75s1.69-3.75,3.79-3.75V14.58L19.9,14.58z"/>
</svg>