<!-- (c) Carrd Inc. All rights reserved. All logos and trademarks are property of their respective owners. -->
<svg xmlns="http://www.w3.org/2000/svg" id="icon">
<path d="M20.2,15.7c-1.1-0.1-3.5-0.2-3.5-2.4c0-2.6,3.5-2.6,4.8-2.6c2.3,0,5.3,0.7,7.5,1.3c0,0,1.2,0.4,2.2,0.8l0.1,0v-0.1V5.6 l-0.1,0c-2.5-0.9-5.5-1.7-10.9-1.7C10.8,3.9,7.5,9.3,7.5,14c0,2.7,1.2,9,11.9,9.8c0.9,0.1,3.3,0.2,3.3,2.5c0,1.9-2,3-5.3,3 c-3.7,0-7.2-0.9-9.3-1.8v7.4c3.2,0.8,6.9,1.3,11.1,1.3c9.2,0,13.3-5.2,13.3-10.3C32.5,20,27.9,16.3,20.2,15.7z"/>
</svg>