<!-- (c) Carrd Inc. All rights reserved. All logos and trademarks are property of their respective owners. -->
<svg xmlns="http://www.w3.org/2000/svg" id="icon">
<path d="M40,27.8c-0.1,0.1-0.2,0.1-0.4,0.1c-1.7-0.3-3.2-1-4.7-1.8c-2.5-1.3-5.1-2.5-7.9-3.1c0,0,0,0-0.1-0.1 c0.3-0.2,0.5-0.3,0.8-0.5c0.1-0.1,0.3-0.3,0.2-0.4c-0.1-0.2-0.3-0.4-0.5-0.3c-0.5,0.2-1,0.4-1.4,0.7c-1.4,0.8-2.8,1.7-4.4,2 c-0.4,0.1-0.6,0-0.4-0.4c0.3-0.8,0.6-1.6,0.9-2.4c0-0.1,0.1-0.1,0.1-0.2c0.2-0.3,0.3-0.6-0.1-0.8c-0.4-0.2-0.8,0-0.8,0.3 C20.9,22.1,20,22,19,22c-3.9,0-7.7,0.8-11.4,2.3c-0.9,0.3-1.2,1.1-1.4,2c-0.2,1.1,0,2.2,0.2,3.3c0,0.2,0,0.4,0,0.6 c-0.2,0-0.4,0-0.6-0.1c-0.7-0.4-1.3-0.8-2.1-1.1c-0.4-0.1-0.9,0-1.3,0c-0.8,0.1-1.6,0.2-2.4,0.3c-0.3-0.7,0.3-1,0.6-1.3 c0.8-0.9,1.7-1.9,2.6-2.7c0.7-0.6,1-1.3,1.5-2c0.5-0.7,1.1-1.5,1.6-2.2c0.6-0.7,1.2-1.4,1.9-2c1.1-0.9,2.2-1.8,3.4-2.6 c2-1.4,4.3-2.3,6.6-2.9c0.1,0,0.3-0.3,0.3-0.5c-0.2-0.8-0.5-1.4-1.1-2c-0.1-0.1-0.3-0.3-0.4-0.4c-0.1-0.2-0.3-0.5-0.2-0.6 c0.1-0.2,0.4-0.3,0.6-0.3c1.2,0.2,2.5,0.3,3.7,0.6c1.5,0.3,2.7,1.1,3.9,2c0.3,0.2,0.5,0.6,0.9,0.8c0.5,0.3,1,0.4,1.5,0.6 c2.4,0.7,4.5,1.7,6.5,3.1c2,1.5,3.4,3.4,3.9,5.8c0.1,0.6,0.1,1.2,0.2,1.8c0,0.2,0.1,0.4,0.2,0.6c0.5,0.8,1.1,1.6,1.6,2.4 C40,27.6,40,27.8,40,27.8z M34.9,20.7c-0.3,0-0.8,0.4-0.7,0.7c0.1,0.3,0.4,0.6,0.7,0.7c0.3,0.1,0.7-0.3,0.7-0.8 C35.6,21,35.3,20.8,34.9,20.7z M24.8,24c0.7-0.7,1.5-0.4,2.3-0.2c0.2,0.1,0.4,0.1,0.6,0.2c0,0.1,0,0.1,0,0.2c-1,0.3-2,0.7-3.1,1 c-0.4,0.1-0.5-0.2-0.4-0.5C24.3,24.5,24.6,24.2,24.8,24z"/>
</svg>