<!-- (c) Carrd Inc. All rights reserved. All logos and trademarks are property of their respective owners. -->
<svg xmlns="http://www.w3.org/2000/svg" id="icon">
<path d="M20,34.4c-1.1,0-2.3-0.1-3.4-0.2c-1.1,0.8-7.4,5.2-8,5.3c0,0-0.2,0.1-0.5,0C8,39.3,8,39,8,39 c0.1-0.4,1.6-5.9,1.9-6.9C4.6,29.5,1,24.8,1,19.5c0-8.3,8.5-15,19-15l0,0c10.5,0,19,6.7,19,15C39,27.7,30.5,34.4,20,34.4z M12.3,15 H6.7c-0.6,0-1.1,0.5-1.1,1.1c0,0.6,0.5,1.1,1.1,1.1h1.7v6.5c0,0.6,0.5,1,1.1,1s1.1-0.5,1.1-1v-6.5h1.7c0.6,0,1.1-0.5,1.1-1.1 C13.4,15.5,12.9,15,12.3,15z M20.1,23l-2.6-6.9C17.3,15.5,16.7,15,16,15c-0.7,0-1.3,0.6-1.5,1.1L11.9,23c-0.3,1,0,1.4,0.3,1.6 c0.2,0.1,0.5,0.2,0.7,0.2c0.5,0,0.8-0.2,0.9-0.5l0.5-1.4l3.3,0l0.5,1.4c0.1,0.3,0.5,0.5,0.9,0.5v0c0.2,0,0.5-0.1,0.7-0.2 C20.1,24.4,20.4,24,20.1,23z M25.3,22.5H23v-6.4c0-0.6-0.5-1.1-1.1-1.1c-0.6,0-1.1,0.5-1.1,1.1v7.4c0,0.6,0.5,1,1,1h3.5 c0.6,0,1-0.5,1-1S25.9,22.5,25.3,22.5z M33.5,16.8c0.2-0.2,0.3-0.4,0.2-0.7c0-0.3-0.1-0.5-0.3-0.7c-0.2-0.2-0.5-0.3-0.8-0.3 c-0.2,0-0.4,0.1-0.6,0.2L29,18.4v-2.4c0-0.6-0.5-1.1-1.1-1.1c-0.6,0-1.1,0.5-1.1,1.1v7.5c0,0.6,0.5,1.1,1.1,1.1l0,0 c0.6,0,1.1-0.5,1.1-1.1v-2.4l0.4-0.4l2.6,3.4c0.2,0.3,0.5,0.4,0.9,0.4c0.2,0,0.5-0.1,0.7-0.2c0.2-0.2,0.4-0.4,0.4-0.7 c0-0.3,0-0.6-0.2-0.8L31,19.3L33.5,16.8z M16,17.7l1.1,3.1h0h-2.2L16,17.7z"/>
</svg>