<!-- (c) Carrd Inc. All rights reserved. All logos and trademarks are property of their respective owners. -->
<svg xmlns="http://www.w3.org/2000/svg" id="icon">
<path d="M32.2,29.8c0-1.2,0-2.4,0-4c-1.4,2.2-2.9,3.6-5,4.2c-5.7,1.6-10.5-1.8-11.2-8c-0.3-2.6-0.1-5.2,1-7.7 c1.3-3,3.6-4.7,6.9-4.9c3.5-0.2,6.4,0.8,8.4,4.1c0-1.9,0-3.8,0-5.6c0-1.9,0-3.8,0-5.8c0.5,0,0.9,0,1.4,0c0,9.2,0,18.5,0,27.8 C33.2,29.8,32.8,29.8,32.2,29.8z M30.6,13.8c-2.6-4-9.1-4.1-11.6,0c-2.3,3.9-2.3,7.9-0.1,11.8c2.6,4.6,9.1,4.6,11.9,0 c1-1.7,1.5-3.6,1.5-6.6C32.3,17.6,31.7,15.5,30.6,13.8z M4.9,38c-0.8,0-1.7,0-2.6,0c0-1.7,0-3.3,0-4.9C2.4,33.1,2.5,33,2.6,33 c3.2,0.1,3.5-0.2,3.5-3.5c0-6.1,0-12.2,0-18.4c0-0.4,0-0.9,0-1.4c2,0,3.9,0,5.9,0c0,0.1,0.1,0.2,0.1,0.3c0,7,0.1,14-0.1,21 C11.9,36.4,10.1,38,4.9,38z M6.2,2c1.9,0,3.6,0,5.3,0c0.2,0,0.3,0,0.5,0.1c0,1.6,0,3.1,0,4.8c-1.9,0-3.8,0-5.8,0 C6.2,5.3,6.2,3.7,6.2,2z"/>
</svg>