<!-- (c) Carrd Inc. All rights reserved. All logos and trademarks are property of their respective owners. -->
<svg xmlns="http://www.w3.org/2000/svg" id="icon">
<path d="M9.7,6.8c1.4,0,2.6,0,3.9,0c1.9,4.9,3.7,9.9,5.7,15.2c0.3-0.7,0.5-1.1,0.6-1.5c1.9-5.5,4-11,5.8-16.6 c0.5-1.5,1.1-2.2,2.7-1.9c0.5,0.1,1.1,0,1.9,0c-0.2,0.7-0.4,1.3-0.6,1.8C27,11,24.4,18,21.7,25.1c-0.4,1.1-0.6,2.3-0.6,3.5 c-0.1,3.1,0,6.2,0,9.4c-1.2,0-2.3,0-3.6,0c0-3.3,0-6.5,0-9.8c0-1-0.2-2.1-0.6-3c-2.2-5.6-4.4-11.3-6.7-16.9C10,7.8,9.9,7.4,9.7,6.8z "/>
</svg>