<!-- (c) Carrd Inc. All rights reserved. All logos and trademarks are property of their respective owners. -->
<svg xmlns="http://www.w3.org/2000/svg" id="icon">
<path d="M5.3,20c0-2.1,0.4-4.1,1.3-6l7.1,19.4c-2.5-1.2-4.6-3-6.1-5.4S5.3,22.9,5.3,20z M30.1,19.2c0,0.2,0,0.5,0,0.7 c0,0.3-0.1,0.6-0.2,1c-0.1,0.4-0.2,0.7-0.2,0.9c-0.1,0.2-0.2,0.6-0.3,1.1c-0.2,0.6-0.3,1-0.3,1.1L27.5,29l-5.4-16 c0.6,0,1.2-0.1,1.7-0.2c0.2,0,0.4-0.1,0.5-0.4c0.1-0.2,0.1-0.4,0-0.6c-0.1-0.2-0.3-0.3-0.6-0.3l-4,0.2c-1,0-2.3-0.1-3.9-0.2 c-0.2,0-0.3,0-0.4,0.1c-0.1,0.1-0.2,0.2-0.2,0.3c0,0.1,0,0.2,0,0.4c0,0.1,0.1,0.2,0.2,0.3c0.1,0.1,0.2,0.1,0.4,0.2l1.5,0.2l2.3,6.3 l-3.2,9.7L11,13c0.6,0,1.2-0.1,1.7-0.2c0.2,0,0.4-0.1,0.5-0.4c0.1-0.2,0.1-0.4,0-0.6c-0.1-0.2-0.3-0.3-0.6-0.3l-4,0.2 c-0.1,0-0.2,0-0.4,0c-0.2,0-0.4,0-0.5,0C9.1,9.8,10.8,8.2,13,7s4.5-1.8,7.1-1.8c1.9,0,3.7,0.3,5.4,1c1.7,0.7,3.3,1.6,4.6,2.9h-0.2 c-0.7,0-1.3,0.3-1.8,0.8c-0.5,0.5-0.7,1.1-0.7,1.8c0,0.2,0,0.3,0,0.5c0,0.2,0.1,0.3,0.1,0.4c0,0.1,0.1,0.3,0.2,0.4 c0.1,0.2,0.1,0.3,0.2,0.4c0,0.1,0.1,0.2,0.2,0.4s0.2,0.3,0.2,0.4c0,0.1,0.1,0.2,0.3,0.5c0.1,0.2,0.2,0.4,0.3,0.4 C29.7,16.5,30.1,17.9,30.1,19.2L30.1,19.2z M20.4,21.3l4.6,12.5c0,0.1,0,0.1,0.1,0.2c-1.6,0.6-3.3,0.9-4.9,0.9 c-1.4,0-2.8-0.2-4.2-0.6L20.4,21.3z M33.1,12.9c1.2,2.2,1.8,4.6,1.8,7.1c0,2.7-0.7,5.2-2,7.4c-1.3,2.3-3.1,4.1-5.4,5.4l4.5-13.1 c0.8-2.2,1.1-4,1.1-5.3C33.2,13.9,33.2,13.3,33.1,12.9L33.1,12.9z M20.1,2.7c2.3,0,4.6,0.5,6.7,1.4s4,2.1,5.5,3.7 c1.5,1.5,2.8,3.4,3.7,5.5c0.9,2.1,1.4,4.4,1.4,6.7S37,24.6,36,26.7c-0.9,2.1-2.1,4-3.7,5.5c-1.5,1.5-3.4,2.8-5.5,3.7 s-4.4,1.4-6.7,1.4s-4.6-0.5-6.7-1.4s-4-2.1-5.5-3.7c-1.5-1.5-2.8-3.4-3.7-5.5S2.8,22.3,2.8,20c0-2.3,0.5-4.6,1.4-6.7s2.1-4,3.7-5.5 s3.4-2.8,5.5-3.7S17.8,2.7,20.1,2.7z M20.1,36.5c2.2,0,4.4-0.4,6.4-1.3c2-0.9,3.8-2.1,5.3-3.5s2.6-3.2,3.5-5.3 c0.9-2,1.3-4.2,1.3-6.4s-0.4-4.4-1.3-6.4c-0.9-2-2-3.8-3.5-5.3c-1.5-1.5-3.2-2.6-5.3-3.5s-4.2-1.3-6.4-1.3s-4.4,0.4-6.4,1.3 S9.9,6.8,8.4,8.3s-2.7,3.2-3.5,5.3S3.6,17.8,3.6,20c0,2.2,0.4,4.4,1.3,6.4s2.1,3.8,3.5,5.3s3.2,2.6,5.3,3.5 C15.8,36.1,17.9,36.5,20.1,36.5z"/>
</svg>