<!-- (c) Font Awesome (fontawesome.io, SIL OFL) -->
<svg xmlns="http://www.w3.org/2000/svg" id="icon">
<path d="M21.1,34.4h-2.5c-0.7,0-1.3-0.2-1.8-0.6c-0.5-0.4-0.7-1-0.7-1.7V18.3l-5.8,5.8c-0.5,0.5-1.1,0.7-1.8,0.7 c-0.7,0-1.3-0.2-1.8-0.7l-1.5-1.5c-0.5-0.5-0.7-1.1-0.7-1.8c0-0.7,0.2-1.3,0.7-1.8L18,6.3c0.5-0.5,1.1-0.7,1.8-0.7 c0.7,0,1.3,0.2,1.8,0.7L34.4,19c0.5,0.5,0.7,1.1,0.7,1.8c0,0.7-0.2,1.3-0.7,1.8l-1.5,1.5c-0.5,0.5-1.1,0.7-1.8,0.7s-1.3-0.2-1.8-0.7 l-5.8-5.8v13.8c0,0.7-0.2,1.2-0.7,1.7C22.3,34.2,21.8,34.4,21.1,34.4z" />
</svg>