<!-- (c) Carrd Inc. All rights reserved. All logos and trademarks are property of their respective owners. -->
<svg xmlns="http://www.w3.org/2000/svg" id="icon">
<path d="M15.3,25.2c-0.4,0-0.9,0-1.3-0.1c-0.4-0.1-0.8-0.2-1.2-0.4c-0.4-0.2-0.8-0.4-1-0.7c-0.3-0.3-0.5-0.6-0.6-0.9 c-0.1-0.3-0.1-0.6,0-0.9c0.1-0.3,0.3-0.5,0.6-0.6s0.5-0.2,0.7-0.2c0.2,0,0.4,0.1,0.5,0.1c0.1,0.1,0.3,0.2,0.4,0.3 c0.1,0.1,0.2,0.2,0.4,0.3c0.5,0.4,1.1,0.6,1.7,0.6c0.3,0,0.6,0,0.9-0.1s0.4-0.3,0.5-0.5c0-0.2-0.1-0.4-0.3-0.5 c-0.2-0.1-0.4-0.2-0.8-0.3L14.5,21c-1.5-0.5-2.4-1.1-2.7-1.7c-0.3-0.6-0.4-1.1-0.4-1.6v0c0-0.8,0.4-1.4,1.2-2 c0.8-0.5,1.7-0.8,2.8-0.8c0.9,0,1.6,0.1,2.3,0.4c0.6,0.3,1.1,0.7,1.4,1.2c0.2,0.3,0.3,0.6,0.2,0.9c0,0.1-0.1,0.3-0.2,0.3 C19.1,17.9,19,18,18.9,18c-0.4,0.2-0.7,0.3-0.9,0.3c-0.2,0-0.3,0-0.5-0.1S17.2,18,17,17.9l-0.1-0.1c-0.4-0.3-0.8-0.5-1.3-0.5 c-0.4,0-0.7,0.1-0.9,0.2c-0.2,0.1-0.3,0.3-0.3,0.5s0.1,0.3,0.3,0.5c0.2,0.1,0.4,0.2,0.7,0.3l1.6,0.5c1.1,0.3,1.9,0.8,2.4,1.5 c0.2,0.3,0.3,0.6,0.4,0.8c0.1,0.3,0.1,0.4,0.1,0.6c0,0.5-0.1,0.9-0.4,1.3c-0.2,0.4-0.6,0.7-1.1,1C18,24.7,17.5,24.9,17,25 C16.4,25.2,15.9,25.2,15.3,25.2L15.3,25.2z M27.4,26.5c0-0.2,0-0.4,0.1-0.5c0.1-0.1,0.2-0.2,0.3-0.2c0.2-0.1,0.4-0.2,0.5-0.3 c0.2-0.1,0.3-0.3,0.4-0.5c0.1-0.2,0.1-0.4,0.2-0.7c0-0.1,0-0.2,0-0.3c0-0.1,0-0.1,0-0.2l0-0.2l0.1-0.6l0-0.2c0-0.1,0-0.1,0-0.2 l0-0.2c0,0,0-0.1,0-0.1l0-0.1l0.1-1l0-0.3l0.1-0.6c0,0,0,0,0,0c0,0,0,0,0,0h-0.4c-0.1,0-0.2-0.1-0.3-0.2c0,0,0-0.1,0-0.1 c0-0.2,0-0.3,0.1-0.5c0-0.1,0.1-0.2,0.2-0.2c0.1,0,0.2-0.1,0.3-0.1h0.4c0,0,0-0.1,0-0.1c0-0.1,0-0.2,0.1-0.3 c0.1-0.3,0.2-0.5,0.3-0.8c0.2-0.3,0.4-0.5,0.7-0.7L31,17c0.1,0,0.2-0.1,0.2-0.1c0.1,0,0.3-0.1,0.4-0.1c0.2,0,0.4,0,0.6,0h0.1 c0.1,0,0.3,0,0.4,0c0.1,0,0.1,0,0.2,0.1c0.1,0.1,0.1,0.2,0.1,0.3c0,0.1,0,0.2,0,0.3c0,0.1,0,0.1,0,0.2l0,0.1c0,0.1,0,0.1-0.1,0.1 c0,0-0.1,0.1-0.2,0.1h-0.4c-0.1,0-0.1,0-0.2,0H32c-0.1,0-0.2,0-0.3,0.1c-0.2,0.1-0.3,0.2-0.4,0.4c-0.1,0.1-0.1,0.3-0.1,0.5h2v0h0v0 h0c0.1,0,0.2,0,0.3,0.1c0.1,0.1,0.1,0.2,0.1,0.3c0,0,0,0.1,0,0.1v0c0,0,0,0,0,0l0.1-0.1c0.1-0.1,0.2-0.1,0.3-0.2 c0.1-0.1,0.2-0.1,0.3-0.2c0.2-0.1,0.3-0.1,0.5-0.1c0.1,0,0.3,0,0.4,0c0.2,0,0.3,0,0.3,0c0.2,0,0.3,0.1,0.5,0.1 c0.2,0.1,0.4,0.3,0.5,0.5l0,0.1l0.1-0.1c0,0,0.1-0.1,0.1-0.1c0.4-0.3,0.8-0.5,1.1-0.6c0.1,0,0.2,0,0.3,0c0.1,0,0.2,0,0.4,0 c0.2,0,0.4,0.1,0.5,0.2c0.2,0.1,0.3,0.2,0.4,0.4c0.1,0.2,0.2,0.4,0.2,0.6c0,0.2,0,0.4,0,0.6v0l0,0.4l0,0.2l0,0.2c0,0.1,0,0.1,0,0.2 c0,0.1,0,0.1,0,0.2l0,0.3l0,0.2l0,0.1l0,0.1l-0.1,0.5l0,0.4l0,0.3L39,24.7l0,0c0,0.1,0,0.2-0.1,0.3c0,0.1-0.1,0.2-0.2,0.2 c-0.1,0-0.1,0-0.2,0h-0.7c-0.1,0-0.3-0.1-0.3-0.2c0-0.1,0-0.1,0-0.1l0-0.3l0-0.1v0c0-0.1,0-0.1,0-0.2c0-0.1,0-0.1,0-0.2 c0-0.1,0-0.2,0-0.4c0-0.1,0-0.3,0.1-0.4l0-0.2l0.1-0.7l0-0.1c0-0.1,0-0.2,0-0.3c0-0.1,0-0.1,0-0.2c0-0.1,0-0.2,0-0.3l0,0 c0-0.2,0-0.4,0.1-0.7c0-0.1,0-0.3-0.1-0.4c-0.1-0.1-0.1-0.2-0.2-0.2c-0.1,0-0.1,0-0.2,0c-0.1,0-0.2,0-0.3,0l-0.1,0 c-0.2,0.1-0.4,0.2-0.5,0.4c0,0,0,0,0,0c0,0,0,0.1,0,0.1l-0.1,0.6l-0.1,0.8c0,0.1,0,0.1,0,0.2c0,0.1,0,0.1,0,0.2l0,0.3l0,0.1 c0,0.1,0,0.1,0,0.2l0,0.2c0,0.2,0,0.3-0.1,0.5l0,0.3c0,0.1,0,0.2,0,0.3c0,0,0,0.1,0,0.1c0,0.1,0,0.2,0,0.3c-0.1,0.2-0.2,0.4-0.4,0.4 h-0.7c-0.2,0-0.3-0.1-0.3-0.2c0-0.1,0-0.1,0-0.2v0c0,0,0-0.1,0-0.1l0-0.1l0.1-0.6c0-0.1,0-0.3,0.1-0.4l0-0.2l0.1-0.6l0.1-0.7 l0.1-0.5c0-0.1,0-0.1,0-0.2c0-0.2,0.1-0.5,0-0.7c0-0.2-0.1-0.3-0.2-0.4c-0.1,0-0.2-0.1-0.3-0.1l-0.1,0c-0.2,0-0.4,0.1-0.5,0.2 c-0.1,0.1-0.3,0.2-0.4,0.3c0,0,0,0.1,0,0.1l0,0.2c0,0.1,0,0.1,0,0.2l-0.1,0.4v0l0,0.1l0,0.2c0,0.1,0,0.2,0,0.3c0,0.1,0,0.3-0.1,0.4 l0,0.2L33,24.4c0,0.1,0,0.3-0.1,0.5c0,0.1-0.1,0.2-0.1,0.2c-0.1,0.1-0.1,0.1-0.2,0.1c0,0-0.1,0-0.2,0h-0.7c-0.2,0-0.3-0.1-0.3-0.2 c0-0.1,0-0.2,0-0.2c0-0.1,0-0.1,0-0.2l0-0.1c0-0.2,0.1-0.4,0.1-0.6c0-0.1,0-0.1,0-0.2l0-0.2c0-0.1,0-0.1,0-0.2c0-0.1,0-0.1,0-0.2 l0-0.2c0-0.1,0-0.1,0-0.2l0.2-1.2l0-0.3l0-0.3c0-0.1,0-0.1,0-0.2c0-0.1,0-0.1,0-0.2l0.1-0.3h-1c0,0,0,0,0,0l0,0.3l0,0.1 c0,0,0,0,0,0.1l0,0.1c0,0.1,0,0.1,0,0.2c0,0.1,0,0.2,0,0.4l-0.1,0.6l0,0.2c0,0.1,0,0.1,0,0.2c0,0.1,0,0.1,0,0.2l0,0.2l-0.1,0.8 l-0.1,0.8c-0.2,1.2-0.6,2-1,2.3c-0.5,0.3-0.8,0.5-1.2,0.5c-0.2,0-0.3,0-0.5-0.1c-0.1,0-0.2-0.1-0.2-0.2 C27.4,26.7,27.4,26.6,27.4,26.5L27.4,26.5z M9.1,15.1c-0.7,0-1.1,0.2-1.3,0.6c-0.2,0.3-0.2,0.6-0.2,0.9v0.2l-0.1-0.2 c0,0,0-0.1-0.1-0.2c-0.1-0.1-0.2-0.3-0.4-0.4c-0.2-0.2-0.5-0.3-0.8-0.4c-0.4-0.1-0.8-0.2-1.4-0.2c-1.3,0-2.3,0.5-3.1,1.4 s-1.2,2.1-1.3,3.5c0,1.5,0.4,2.6,1.2,3.6c0.8,0.9,1.8,1.4,3,1.4h0.2c0.6,0,1.2-0.2,1.7-0.5c0.4-0.2,0.8-0.5,1-0.9l0.1-0.1v0.3 c0,0.3,0.1,0.6,0.2,0.9c0.2,0.3,0.6,0.4,1.2,0.5c0.6,0,1.1-0.2,1.3-0.7c0.1-0.2,0.1-0.4,0.2-0.6c0-0.2,0-0.3,0-0.4v-6.4 c0-0.4,0-0.9-0.2-1.3C10.2,15.3,9.8,15.1,9.1,15.1L9.1,15.1z M5.3,22.5c-0.6,0-1-0.2-1.3-0.6S3.5,21,3.5,20.3c0-0.8,0.2-1.3,0.5-1.6 s0.7-0.5,1.3-0.5c0.5,0,0.9,0.2,1.2,0.5C6.8,19,6.9,19.5,7,20.3c0,0.7-0.2,1.2-0.5,1.6C6.2,22.3,5.8,22.5,5.3,22.5L5.3,22.5z M21.8,25.2c-0.7,0-1.1-0.3-1.3-0.7c-0.2-0.4-0.2-0.8-0.2-1.2v-6.5c0-0.4,0.1-0.8,0.2-1.2c0.2-0.4,0.6-0.6,1.3-0.7 c0.5,0,0.9,0.1,1.1,0.4c0.2,0.2,0.3,0.4,0.3,0.6c0,0.2,0,0.4,0,0.6c0,0,0,0.1,0,0.1V18l1.8-2.1c0.1-0.1,0.2-0.3,0.3-0.3 c0.3-0.3,0.7-0.4,1-0.4c0.2,0,0.5,0.1,0.8,0.3c0.1,0.1,0.2,0.1,0.3,0.2c0.3,0.3,0.4,0.7,0.4,1c0,0.3-0.2,0.6-0.4,0.8l-2,2.2l2.5,3.6 c0.2,0.3,0.3,0.6,0.2,0.9c0,0.3-0.2,0.6-0.5,0.9c-0.2,0.2-0.5,0.3-0.8,0.3h0c-0.2,0-0.4-0.1-0.6-0.2c-0.2-0.1-0.4-0.3-0.5-0.5 l-2.4-3.5v2.3c0,0.5,0,0.9-0.2,1.3S22.5,25.2,21.8,25.2z" />
</svg>