<!-- (c) Carrd Inc. All rights reserved. All logos and trademarks are property of their respective owners. -->
<svg xmlns="http://www.w3.org/2000/svg" id="icon">
<path d="M29.3,5.5c1.5,0,2.8,0.5,3.9,1.6s1.6,2.4,1.6,3.9v18.2c0,1.5-0.5,2.8-1.6,3.9c-1.1,1.1-2.4,1.6-3.9,1.6H11.1 c-1.5,0-2.8-0.5-3.9-1.6c-1.1-1.1-1.6-2.4-1.6-3.9V10.9c0-1.5,0.5-2.8,1.6-3.9s2.4-1.6,3.9-1.6C11.1,5.5,29.3,5.5,29.3,5.5z M18.9,20c0-1.1-0.4-2.1-1.2-2.8C16.9,16.4,16,16,14.9,16c-1.1,0-2.1,0.4-2.8,1.2c-0.8,0.8-1.2,1.7-1.2,2.8c0,1.1,0.4,2.1,1.2,2.8 c0.8,0.8,1.7,1.2,2.8,1.2c1.1,0,2.1-0.4,2.8-1.2C18.5,22.1,18.9,21.1,18.9,20z M29.6,20c0-1.1-0.4-2.1-1.2-2.8 c-0.8-0.8-1.7-1.2-2.8-1.2c-1.1,0-2.1,0.4-2.8,1.2s-1.2,1.7-1.2,2.8c0,1.1,0.4,2.1,1.2,2.8c0.8,0.8,1.7,1.2,2.8,1.2 c1.1,0,2.1-0.4,2.8-1.2C29.2,22.1,29.6,21.1,29.6,20z"/>
</svg>