<!-- (c) Carrd Inc. All rights reserved. All logos and trademarks are property of their respective owners. -->
<svg xmlns="http://www.w3.org/2000/svg" id="icon">
<path d="M38,18.2c0,1.2,0,2.4,0,3.5c0,0.1-0.1,0.1-0.1,0.2c-0.1,0.8-0.2,1.6-0.4,2.4c-0.4,1.5-0.9,2.9-1.6,4.2 c-0.8,1.5-1.8,2.8-2.9,4c-0.7,0.7-1.4,1.3-2.2,1.9c-1.4,1.1-2.9,1.9-4.6,2.5c-1.3,0.5-2.5,0.8-3.9,0.9c-0.2,0-0.4,0.1-0.7,0.1 c-1.2,0-2.3,0-3.5,0c0,0,0-0.1-0.1-0.1c-0.9-0.2-1.9-0.3-2.8-0.5c-1.8-0.4-3.4-1.2-5-2.2c-1.3-0.8-2.5-1.8-3.6-3 c-0.5-0.6-1.1-1.2-1.6-1.9c-0.8-1-1.4-2.2-1.9-3.4c-0.5-1.3-1-2.7-1.2-4.1c-0.1-0.4-0.1-0.9-0.2-1.3c0-1.1,0-2.2,0-3.2 c0-0.1,0.1-0.1,0.1-0.2c0.1-0.7,0.2-1.4,0.3-2.1c0.4-1.9,1.1-3.7,2.1-5.4c1-1.6,2.2-3,3.6-4.3c0.6-0.6,1.3-1.1,2-1.5 C11,4.4,12,3.8,13,3.4c1.3-0.6,2.7-1,4.1-1.2C17.5,2.1,18,2,18.4,2c1.1,0,2.1,0,3.2,0c0,0,0.1,0.1,0.1,0.1c0.5,0.1,1,0.1,1.6,0.2 c1.6,0.3,3.1,0.8,4.6,1.5c1.4,0.7,2.6,1.5,3.8,2.5c1,0.8,1.9,1.7,2.7,2.8c1,1.3,1.9,2.8,2.5,4.4c0.5,1.2,0.8,2.4,1,3.7 C37.9,17.4,37.9,17.8,38,18.2z M13.7,29.4c1.4,0.6,2.7,1.1,4,1.7c0.2,0.1,0.2,0.2,0.2,0.3c0,0.9,0,1.8,0,2.6c0,0.5,0.1,0.6,0.6,0.6 c0.4,0,0.9-0.1,1.3-0.1c0.6,0,1.2,0,1.7,0c0.5,0,0.5-0.1,0.5-0.5c0-0.9,0-1.8,0-2.7c0-0.1,0.1-0.3,0.2-0.3c1.3-0.6,2.7-1.2,4-1.8 c0.1,0,0.2,0,0.2,0c0.6,0.7,1.3,1.3,1.9,2c0.3,0.3,0.6,0.4,0.9,0c0.7-0.7,1.4-1.5,2.2-2.2c0.3-0.3,0.3-0.5,0-0.9 c-0.6-0.6-1.1-1.1-1.7-1.6c-0.2-0.2-0.3-0.4-0.1-0.7c0.5-1.2,1-2.4,1.5-3.6c0.1-0.2,0.2-0.2,0.4-0.2c0.9,0,1.8,0,2.7,0 c0.4,0,0.5-0.1,0.5-0.5c0-1,0-2,0-3.1c0-0.5-0.1-0.7-0.7-0.7c-0.9,0-1.7,0-2.6,0c-0.2,0-0.3-0.1-0.3-0.2c-0.5-1.2-1-2.5-1.6-3.7 c-0.1-0.3-0.1-0.4,0.1-0.6c0.6-0.6,1.2-1.1,1.8-1.7c0.4-0.4,0.4-0.5,0-0.8c-0.7-0.7-1.4-1.4-2.1-2.1c-0.4-0.4-0.5-0.4-0.9,0 c-0.7,0.7-1.3,1.4-1.9,2c-1.4-0.6-2.7-1.2-4-1.7c-0.2-0.1-0.3-0.2-0.3-0.4c0-0.9,0-1.8,0-2.7c0-0.4-0.1-0.5-0.5-0.5c-1,0-2,0-3.1,0 c-0.5,0-0.6,0.1-0.6,0.6c0,0.9,0,1.7,0,2.6c0,0.2,0,0.3-0.2,0.4c-1.4,0.6-2.7,1.2-4.1,1.8c0-0.1-0.1-0.2-0.2-0.2 c-0.6-0.6-1.1-1.2-1.7-1.7c-0.4-0.4-0.5-0.4-0.9,0c-0.7,0.7-1.4,1.4-2.1,2.1c-0.3,0.3-0.3,0.5,0,0.7c0.6,0.6,1.2,1.3,1.9,1.9 c0.2,0.2,0.2,0.3,0.1,0.5c-0.2,0.4-0.4,0.8-0.5,1.1c-0.4,0.9-0.8,1.9-1.2,2.8c-1,0-1.9,0-2.9,0c-0.5,0-0.6,0.1-0.6,0.6c0,1,0,2,0,3 c0,0.5,0.1,0.6,0.6,0.6c1,0,1.9,0,2.9,0c0,0.1,0.1,0.1,0.1,0.2c0.6,1.3,1.1,2.6,1.7,3.9c0,0.1,0,0.3-0.1,0.3 c-0.6,0.6-1.2,1.2-1.8,1.8c-0.3,0.3-0.3,0.6,0,0.9c0.7,0.7,1.5,1.4,2.2,2.2c0.4,0.4,0.5,0.4,0.8,0C12.4,30.7,13,30.1,13.7,29.4z"/>
</svg>