<!-- (c) Carrd Inc. All rights reserved. All logos and trademarks are property of their respective owners. -->
<svg xmlns="http://www.w3.org/2000/svg" id="icon">
<path d="M20,3c4.7,0,8.8,1.7,12.1,5c1.6,1.6,2.8,3.4,3.6,5.5S37,17.7,37,20c0,2.3-0.4,4.5-1.2,6.5c-0.8,2-2,3.8-3.6,5.4 c-1.7,1.6-3.5,2.9-5.6,3.8C24.4,36.5,22.2,37,20,37s-4.4-0.4-6.4-1.3C11.5,34.8,9.6,33.6,8,32c-1.6-1.6-2.9-3.5-3.7-5.5S3,22.3,3,20 c0-2.2,0.4-4.4,1.3-6.5S6.4,9.6,8.1,8C11.3,4.7,15.3,3,20,3L20,3z M20,6.1c-3.9,0-7.1,1.4-9.8,4.1c-1.3,1.4-2.4,2.9-3.1,4.6 S6.1,18.2,6.1,20c0,1.8,0.4,3.6,1.1,5.3c0.7,1.7,1.7,3.2,3.1,4.5c1.3,1.3,2.8,2.3,4.5,3c1.7,0.7,3.4,1,5.3,1c1.8,0,3.6-0.4,5.3-1.1 c1.7-0.7,3.2-1.7,4.6-3.1c2.6-2.6,4-5.8,4-9.7c0-1.9-0.3-3.7-1-5.3s-1.7-3.2-3-4.5C27.2,7.5,23.9,6.1,20,6.1L20,6.1z M19.8,17.2 l-2.3,1.2c-0.2-0.5-0.5-0.9-0.9-1.1c-0.4-0.2-0.7-0.3-1-0.3c-1.5,0-2.3,1-2.3,3c0,0.9,0.2,1.6,0.6,2.2s1,0.8,1.7,0.8 c1,0,1.7-0.5,2.1-1.5l2.1,1.1c-0.4,0.8-1.1,1.5-1.8,2s-1.7,0.7-2.6,0.7c-1.5,0-2.7-0.5-3.7-1.4s-1.4-2.2-1.4-3.9 c0-1.6,0.5-2.9,1.4-3.8c0.9-0.9,2.1-1.4,3.6-1.4C17.4,14.7,18.9,15.5,19.8,17.2L19.8,17.2z M29.6,17.2l-2.2,1.2 c-0.2-0.5-0.5-0.9-0.9-1.1c-0.4-0.2-0.7-0.3-1-0.3c-1.5,0-2.3,1-2.3,3c0,0.9,0.2,1.6,0.6,2.2c0.4,0.5,0.9,0.8,1.7,0.8 c1,0,1.7-0.5,2.1-1.5l2.1,1.1c-0.5,0.8-1.1,1.5-1.9,2c-0.8,0.5-1.6,0.7-2.6,0.7c-1.5,0-2.8-0.5-3.7-1.4c-0.9-0.9-1.4-2.2-1.4-3.9 c0-1.6,0.5-2.9,1.4-3.8c0.9-0.9,2.1-1.4,3.6-1.4C27.2,14.7,28.7,15.5,29.6,17.2z"/>
</svg>