<!-- (c) Carrd Inc. All rights reserved. All logos and trademarks are property of their respective owners. -->
<svg xmlns="http://www.w3.org/2000/svg" id="icon">
<path d="M25.4,18.1c1.3,0.4,2.6,0.6,3.8,0.9c1.2,0.3,2.4,0.7,3.6,1.2c1.2,0.5,1.9,1.5,2.3,2.6c0,0.8,0,1.7,0,2.5 c-1.2,3.1-3.7,4.3-6.8,4.5c-2.3,0.2-4.5-0.1-6.4-1.2c-1.7-1-2.6-2.5-2.8-4.6c1.5,0,3,0,4.4,0c0.2,0,0.4,0.3,0.4,0.5 c0.8,2.4,4.4,2.4,5.7,1.2c0.9-0.8,0.8-2.1-0.4-2.6c-1.2-0.5-2.5-0.7-3.8-1c-1.2-0.3-2.3-0.6-3.4-1.1c-3.5-1.7-3.3-6.6-0.4-8.5 c1.3-0.9,2.8-1.3,4.4-1.3c1.8,0,3.5,0,5.2,0.8c1.5,0.7,3.5,2.8,3.2,5c-1.3,0-2.6,0-4,0c-0.2,0-0.5-0.3-0.5-0.5 c-0.7-2.1-3.2-2.4-4.8-1.6c-0.7,0.3-1,0.9-1,1.7C24.2,17.4,24.7,17.9,25.4,18.1z M9.7,34.7c-1.6,0-3.1,0-4.7,0c0-0.2,0-0.4,0.1-0.6 c1.8-6.1,3.5-12.1,5.3-18.2c1-3.5,2.1-7,3.1-10.5c1.6,0,3.1,0,4.7,0c-1.4,4.7-2.7,9.3-4.1,14C12.6,24.4,11.1,29.6,9.7,34.7z"/>
</svg>