<!-- (c) Carrd Inc. All rights reserved. All logos and trademarks are property of their respective owners. -->
<svg xmlns="http://www.w3.org/2000/svg" id="icon">
<path d="M35.7,27.3c0,1.1-0.2,2.2-0.5,3.3c-0.3,0.8-0.6,1.6-1.2,2.3c-0.5,0.7-1.2,1.2-2,1.7c-0.8,0.4-1.7,0.7-2.6,0.8 c-0.6,0.1-1.3,0.1-1.9,0.1c-2,0-4,0-6,0c-0.1,0-0.1,0-0.2,0c0-0.1,0-0.1,0-0.2c0-10.2,0-20.4,0-30.6c0-0.2,0-0.2,0.2-0.2 c2.2,0,4.3,0,6.5,0c1.1,0,2.2,0.2,3.2,0.6c0.7,0.3,1.4,0.7,2,1.2c0.8,0.7,1.4,1.6,1.8,2.6c0.3,0.8,0.5,1.7,0.6,2.6 c0,0.4,0,0.7,0,1.1C35.7,17.5,35.7,22.4,35.7,27.3z M31.3,12.4c0-0.6-0.1-1.2-0.2-1.8C30.9,10,30.5,9.5,30,9.1 c-0.6-0.3-1.2-0.5-1.9-0.5c-0.7,0-1.4,0-2.1,0c-0.1,0-0.2,0-0.2,0c0,0.1,0,0.1,0,0.2c0,3.6,0,7.1,0,10.7c0,3.9,0,7.8,0,11.7 c0,0.2,0,0.2,0.2,0.2c0.6,0,1.3,0,1.9,0c0.5,0,1,0,1.4-0.2c0.7-0.2,1.2-0.6,1.6-1.3c0.3-0.7,0.4-1.4,0.5-2.1 C31.3,22.7,31.3,17.5,31.3,12.4z M18.2,30.5c-0.3,0.9-0.6,1.7-1.2,2.4c-0.5,0.7-1.1,1.2-1.9,1.6c-0.7,0.4-1.5,0.7-2.2,0.8 c-0.4,0.1-0.8,0.1-1.2,0.2c-0.5,0-1.1,0-1.7,0c-1.8,0-3.7,0-5.5,0c0,0-0.1,0-0.2,0c0-0.1,0-0.1,0-0.2c0-10.2,0-20.4,0-30.7 c0-0.2,0-0.2,0.2-0.2c2.2,0,4.4,0,6.6,0c1.1,0,2.1,0.2,3.2,0.6c0.9,0.3,1.7,0.8,2.4,1.5C17.2,7.3,17.7,8.1,18,9 c0.3,0.7,0.4,1.5,0.5,2.3c0,0.4,0.1,0.7,0.1,1.1c0,4.9,0,9.8,0,14.7C18.6,28.3,18.5,29.4,18.2,30.5z M14.2,19.3c0-2.4,0-4.8,0-7.2 c0-0.5-0.1-1-0.2-1.5c-0.3-0.9-0.9-1.4-1.7-1.7c-0.5-0.2-1-0.2-1.5-0.2c-0.6,0-1.3,0-1.9,0c-0.2,0-0.2,0-0.2,0.2c0,3.7,0,7.5,0,11.2 c0,3.7,0,7.5,0,11.2c0,0.2,0,0.2,0.2,0.2c0.6,0,1.3,0,1.9,0c0.5,0,0.9,0,1.4-0.2c0.5-0.1,0.9-0.3,1.2-0.7c0.4-0.4,0.6-0.9,0.7-1.4 c0.1-0.5,0.2-1.1,0.2-1.6C14.2,24.7,14.2,22,14.2,19.3z"/>
</svg>