<!-- (c) Carrd Inc. All rights reserved. -->
<svg xmlns="http://www.w3.org/2000/svg" id="icon">
<path d="M5,6.7c3.3,0,6.6,0,9.9,0c0,0,0,0,0.1,0c1.3,0.3,1.9,1.1,1.9,2.4c0,0.8,0,1.5,0,2.3c0,0.1,0,0.1,0,0.2c0.1,0,0.2,0,0.3,0 c3.8,0,7.6,0,11.5,0c0.2,0,0.4,0,0.5,0c1.2,0.2,1.9,1.1,1.9,2.3c0,1.5,0,2.9,0,4.4c0,0.1,0,0.2,0,0.3c0.1,0,0.2,0,0.3,0 c1.3,0,2.7,0,4,0c1.1,0,2.1,0,3.2,0c0.8,0,1.2,0.3,1.4,0.9c0,0,0,0.1,0,0.1c-0.1,0.2-0.2,0.5-0.3,0.7c-2.5,3.7-4.9,7.5-7.4,11.2 c-0.2,0.3-0.5,0.5-0.7,0.8c-0.4,0.3-0.9,0.6-1.5,0.7c-0.4,0.1-0.8,0.1-1.2,0.2c-7.9,0-15.7,0-23.6,0c-0.1,0-0.2,0-0.3,0 c-0.3-0.1-0.5-0.1-0.8-0.2C3.4,32.5,3,31.7,3,30.8c0-3.7,0-7.4,0-11.1c0-3.5,0-7.1,0-10.6C3,8,3.6,7.2,4.6,6.8 C4.7,6.8,4.9,6.8,5,6.7z M37.3,20.6c-0.1,0-0.2,0-0.3,0c-2.6,0-5.3,0-7.9,0c-4.7,0-9.4,0-14,0c-0.6,0-1.1,0.2-1.6,0.5 c-0.1,0.1-0.3,0.2-0.4,0.4c-2.2,3.3-4.3,6.5-6.5,9.8c0,0-0.1,0.1-0.1,0.2c0.1,0,0.1,0,0.2,0c7.4,0,14.7,0,22.1,0 c0.2,0,0.5,0,0.7-0.1c0.5-0.2,1-0.4,1.3-0.9c2.1-3.2,4.2-6.4,6.4-9.6C37.2,20.7,37.2,20.7,37.3,20.6z M29.3,18.7c0-0.1,0-0.2,0-0.3 c0-1.4,0-2.8,0-4.2c0-0.5-0.1-0.6-0.6-0.6c-4.4,0-8.9,0-13.3,0c-0.1,0-0.2,0-0.3,0c0-0.1,0-0.2,0-0.3c0-1.4,0-2.8,0-4.1 c0-0.4-0.2-0.6-0.6-0.6c-3,0-6.1,0-9.1,0C5,8.6,4.9,8.7,4.9,9.1c0,7,0,14,0,21c0,0.1,0,0.1,0,0.2C5,30.3,5,30.2,5,30.2 c2.2-3.2,4.3-6.5,6.5-9.8c0.3-0.4,0.6-0.7,0.9-0.9c0.8-0.5,1.7-0.8,2.6-0.8c4.6,0,9.3,0,13.9,0C29.1,18.7,29.2,18.7,29.3,18.7z"/>
</svg>