<!-- (c) Carrd Inc. All rights reserved. All logos and trademarks are property of their respective owners. -->
<svg xmlns="http://www.w3.org/2000/svg" id="icon">
<path d="M20.5,39.4L20.5,39.4c0.1-0.1,0.2-0.1,0.2-0.1c0.1-0.1,0.1-0.1,0.2-0.2l18.3-18.2c0.5-0.5,0.5-1.3,0-1.8l-6.1-6.1L27,7 l-6.1-6.1c-0.1-0.1-0.1-0.1-0.2-0.2c-0.1,0-0.1-0.1-0.1-0.1l-0.1-0.1c-0.1,0-0.1,0-0.2-0.1c0,0-0.1,0-0.1,0c-0.2,0-0.3,0-0.5,0 c0,0,0,0-0.1,0c-0.1,0-0.1,0-0.2,0.1l-0.1,0c-0.1,0-0.1,0.1-0.1,0.1c-0.1,0.1-0.1,0.1-0.2,0.2L0.9,19.1c-0.5,0.5-0.5,1.3,0,1.8 l18.3,18.2c0.1,0.1,0.1,0.1,0.2,0.2c0.1,0,0.1,0.1,0.1,0.1l0.1,0c0.1,0,0.1,0,0.2,0.1l0.1,0c0.2,0,0.3,0,0.5,0l0.1,0 C20.4,39.4,20.4,39.4,20.5,39.4z M26.3,9.9l3.9,3.9c0.1,0.1,0.1,0.3,0,0.4l-3.9,3.9c-0.1,0.1-0.3,0.1-0.4,0L22,14.2 c-0.1-0.1-0.1-0.3,0-0.4l3.9-3.9C26,9.7,26.2,9.7,26.3,9.9z M20.2,3.8l3.9,3.9c0.1,0.1,0.1,0.3,0,0.4l-5,5c-0.5,0.5-0.5,1.3,0,1.8 l6.1,6.1c0.5,0.5,1.3,0.5,1.8,0l5-5c0.1-0.1,0.3-0.1,0.4,0l3.9,3.9c0.1,0.1,0.1,0.3,0,0.4l-16.1,16c-0.1,0.1-0.3,0.1-0.4,0l-3.9-3.9 c-0.1-0.1-0.1-0.3,0-0.4l5-5c0.5-0.5,0.5-1.3,0-1.8l-6.1-6.1c-0.5-0.5-1.3-0.5-1.8,0l-5,5c-0.1,0.1-0.3,0.1-0.4,0l-3.9-3.9 c-0.1-0.1-0.1-0.3,0-0.4l5-5L19.8,3.8C19.9,3.7,20.1,3.7,20.2,3.8z M13.7,30.2l-3.9-3.9c-0.1-0.1-0.1-0.3,0-0.4l3.9-3.9 c0.1-0.1,0.3-0.1,0.4,0l3.9,3.9c0.1,0.1,0.1,0.3,0,0.4l-3.9,3.9C14,30.3,13.8,30.3,13.7,30.2C13.7,30.2,13.7,30.2,13.7,30.2z"/>
</svg>