<!-- (c) Carrd Inc. All rights reserved. All logos and trademarks are property of their respective owners. -->
<svg xmlns="http://www.w3.org/2000/svg" id="icon">
<path d="M39.8,10.5c-0.2,1-0.5,2-1,3.8c-0.2,0.8-3,7.6-3,7.6c0,0.5,0.2,3.6-0.3,4.7c0.8,0.2,1.4,1.1,1.3,2 c0,0,0,0.1,0,0.2c0,0.2-0.1,0.3-0.1,0.5c-0.1,0.5-0.3,1.1-0.6,1.6c-0.3,0.5-0.6,1-1,1.4c0,0.3-0.1,0.7-0.2,0.9c0,0-0.9,1.3-1.3,1.6 c-1.6,1.4-3.6,2.1-5.9,1.4c-2.3,1.1-4.8,1.7-7.4,1.7c-2.6,0-5.2-0.6-7.4-1.8c-2.4,0.7-4.4,0.1-6-1.4c-0.4-0.3-1.3-1.6-1.3-1.6 c-0.2-0.3-0.2-0.6-0.2-0.9c-0.7-0.4-1.7-3-1.8-3.8c-0.1-0.8,0.5-1.9,1.5-2c-0.4-1-0.4-3.9-0.4-4.2c0,0-2.9-7.3-3.2-8.1 c-0.5-1.8-0.8-2.8-1-3.8C0.1,9.6,0,8.9,0,8.3c0-1.6,0.5-2.8,1.6-3.6c0.8-0.6,1.6-0.9,2.5-0.9c0.7,0,1.5,0.2,2.4,0.5 c0.5,0.2,8.3,4.1,8.3,4.2c0.1-0.3,0.2-0.6,0.4-0.9c1.1-1.9,3.6-2.6,5.6-1.5L25,8.6c0.1-0.1,8-4.1,8.4-4.2C34.3,4,35,3.8,35.8,3.8 c0.9,0,1.7,0.3,2.5,0.9C39.5,5.5,40,6.7,40,8.3C40,8.9,39.9,9.6,39.8,10.5z M8.3,8.8c-2.4-1.1-3.9-2-4.7-1.4c-0.7,0.5,0.3,4,0.9,6 c0.4,1.4,1.6,4.4,2.3,6c1.1-3.3,3.6-6.1,6.8-7.7C12.6,11.1,10.2,9.7,8.3,8.8z M13.7,23.1c0-0.6-0.5-1.1-1.1-1.1s-1.1,0.5-1.1,1.1V24 c0,0.3,0.1,0.6,0.3,0.8c0.2,0.2,0.5,0.3,0.8,0.3c0.6,0,1.1-0.5,1.1-1.1V23.1z M24.4,16c-0.1,0.1-0.1,0.1-0.2,0.2l-4.3,2.5 c-1.1,0.6-2.5,0.2-3.1-0.8c-0.2-0.4-0.3-0.7-0.3-1.1c0-0.5,0.2-1,0.5-1.4c-0.8-0.3-1.4-1.1-1.5-2c0-0.1,0-0.1,0-0.2 c0-0.1,0-0.2,0-0.3c0,0,0-0.1,0-0.1c0.1-0.5,0.4-1,0.8-1.3c0.2-0.1,0.3-0.2,0.5-0.3c0,0,0.1,0,0.1-0.1c0-0.1-0.1-0.2-0.1-0.2 c0-0.1-0.1-0.1-0.1-0.2c0,0,0,0,0,0c0-0.1-0.1-0.2-0.1-0.3c-0.3,0.1-0.6,0.3-0.9,0.6c0,0-0.1,0.1-0.1,0.1c-0.5,0.6-0.9,1.3-0.9,2.1 c0,0.2,0,0.4,0,0.6c0.1,0.8,0.6,1.4,1.2,1.9c-0.3,0.9-0.2,1.8,0.2,2.6c0.4,0.7,1.1,1.2,1.9,1.4c0.3,0.1,0.5,0.1,0.8,0.1 c0.5,0,1-0.1,1.5-0.4l4.5-2.5L24.4,16z M23,27.4c0.1-0.7-0.4-1.3-1.1-1.5c0,0-0.6-0.2-1.8-0.2s-1.8,0.2-1.8,0.2 c-0.7,0.2-1.2,0.8-1.1,1.5l-9.9,0.8l-2.1,0.2c0,0,0.5,3.3,2.8,3.6c-0.4,0.3-1,0.6-1,0.6s2,3.6,5.9,1.9c0.1,0.1,0.3,0.2,0.4,0.2 c0.3,0.1,0.5,0.3,0.8,0.4c0.1,0.1,0.3,0.1,0.4,0.2c0.1,0.1,0.3,0.1,0.4,0.2c0.2,0,0.3,0.1,0.5,0.2c0.1,0,0.2,0.1,0.3,0.1 c0.3,0.1,0.6,0.2,0.9,0.3c0,0,0.1,0,0.2,0c0.1,0,0.2,0,0.3,0.1c0.1,0,0.2,0,0.2,0c0.2,0,0.3,0,0.5,0.1c0.1,0,0.2,0,0.3,0 c0.1,0,0.1,0,0.2,0c0.1,0,0.2,0,0.4,0c0.2,0,0.3,0,0.5,0c0,0,0,0,0.1,0c0.1,0,0.2,0,0.3,0c0,0,0,0,0.1,0c0,0,0.1,0,0.1,0 c0.1,0,0.3,0,0.5,0c0.1,0,0.3,0,0.4,0c0.2,0,0.3,0,0.5,0c0.1,0,0.1,0,0.2,0c0.1,0,0.2,0,0.4,0c0.1,0,0.2,0,0.3,0c0,0,0,0,0,0 c0.1,0,0.2,0,0.2,0c0,0,0,0,0,0c0.1,0,0.2,0,0.3,0c0.3,0,0.6-0.1,0.9-0.2c0.2,0,0.3-0.1,0.5-0.1c0.1,0,0.2-0.1,0.4-0.1 c0,0,0,0,0.1,0c0.1,0,0.2-0.1,0.4-0.1c0.1,0,0.3-0.1,0.4-0.2c0.1,0,0.2-0.1,0.3-0.1c0.2,0,0.3-0.1,0.5-0.2c0.1-0.1,0.3-0.1,0.4-0.2 c0,0,0.1,0,0.1-0.1c0.2-0.1,0.5-0.2,0.7-0.4c3.9,1.6,5.8-1.9,5.8-1.9s-0.6-0.3-1-0.6c2.4-0.3,2.8-3.6,2.9-3.6l-1.9-0.2L23,27.4z M26.3,24c0,0.3,0.1,0.6,0.3,0.8c0.2,0.2,0.5,0.3,0.8,0.3c0.6,0,1.1-0.5,1.1-1.1v-0.9c0-0.6-0.5-1.1-1.1-1.1c-0.6,0-1.1,0.5-1.1,1.1 V24z M36.3,7.4c-0.7-0.5-2.3,0.3-4.7,1.5c-1.8,0.8-4.1,2.2-5.2,2.8c3.2,1.5,5.7,4.2,6.9,7.4c0.7-1.7,1.8-4.5,2.2-5.7 C36,11.4,37.1,7.9,36.3,7.4z M22.6,31.9c-0.7,0.4-1.5,0.7-2.6,0.7c0,0,0,0,0,0c0,0,0,0,0,0c-1.1,0-1.9-0.3-2.6-0.7 c-0.2-0.2-0.7-0.7-0.8-0.8c-0.1-0.2,0-0.5,0.2-0.6c0.1,0,0.2-0.1,0.3-0.1c0.2,0,0.3,0.1,0.4,0.2c0,0,0.3,0.4,0.5,0.5 c0.5,0.3,1.2,0.5,2,0.5c0.9,0,1.6-0.2,2-0.5c0.2-0.1,0.5-0.5,0.5-0.5c0.1-0.2,0.2-0.2,0.4-0.2c0.1,0,0.2,0,0.3,0.1 c0.2,0.1,0.4,0.4,0.2,0.6C23.3,31.2,22.8,31.8,22.6,31.9z M22.1,27.7l-1,1.1c-0.2,0.2-0.4,0.3-0.6,0.4c0,0-0.1,0-0.1,0 c-0.1,0-0.2,0-0.2,0c0,0,0,0,0,0c-0.1,0-0.2,0-0.2,0c0,0,0,0,0,0c-0.1,0-0.2,0-0.2,0c-0.2-0.1-0.5-0.2-0.7-0.4l-1-1.1 c-0.1-0.1-0.2-0.2-0.2-0.4c-0.1-0.3,0.1-0.5,0.3-0.7c0.1-0.1,0.3-0.2,0.6-0.3h0h0c0,0,0,0,0.1,0c0,0,0,0,0,0h0h0c0,0,0,0,0,0 c0,0,0.1,0,0.1,0c0.1,0,0.2,0,0.3,0c0.1,0,0.3,0,0.4,0c0.1,0,0.1,0,0.2,0c0,0,0,0,0,0c0,0,0,0,0,0c0,0,0,0,0,0c0.3,0,0.5,0,0.7,0 c0.2,0,0.3,0,0.4,0.1c0,0,0,0,0,0c0,0,0,0,0,0c0,0,0,0,0,0c0,0,0,0,0.1,0c0,0,0,0,0,0h0h0h0c0,0,0,0,0,0c0.1,0,0.3,0.1,0.4,0.1 c0.4,0.2,0.6,0.5,0.5,0.8C22.2,27.4,22.2,27.6,22.1,27.7z"/>
</svg>