<!-- (c) Carrd Inc. All rights reserved. All logos and trademarks are property of their respective owners. -->
<svg xmlns="http://www.w3.org/2000/svg" id="icon">
<path d="M35.9,30.2c-0.4,2.5-2.1,4.7-4.5,5.7c-0.9,0.4-1.8,0.5-2.8,0.5c-0.3,0-0.6,0-0.9-0.1c-1.1-0.1-2.3-0.5-3.4-1.2 c-1.4-0.8-2.8-1.9-4.3-3.6c-1.5,1.6-2.9,2.8-4.3,3.6c-1.1,0.7-2.3,1-3.4,1.2c-0.3,0-0.6,0.1-0.9,0.1c-1,0-1.9-0.2-2.8-0.5 c-2.4-1-4.1-3.1-4.5-5.7c-0.2-1.2,0-2.4,0.4-3.7C4.7,26,4.8,25.6,5,25.2c0.3-0.6,0.6-1.2,0.8-1.8l0-0.1c2.4-5.1,5-10.4,7.6-15.5 l0.1-0.2c0.3-0.5,0.6-1.1,0.8-1.6c0.3-0.6,0.7-1.3,1.2-1.9c1.1-1.3,2.7-2.1,4.4-2.1c1.7,0,3.3,0.8,4.4,2.1c0.6,0.6,0.9,1.3,1.2,1.9 c0.3,0.5,0.6,1.1,0.8,1.6L26.6,8c2.7,5.1,5.2,10.4,7.6,15.5l0,0c0.2,0.5,0.5,1.1,0.8,1.8c0.2,0.4,0.3,0.8,0.5,1.2 C36,27.8,36.1,29,35.9,30.2z M20,28.3c1.9-2.4,3.1-4.6,3.5-6.4c0.2-0.8,0.2-1.5,0.1-2.1c-0.1-0.5-0.3-1-0.6-1.4 c-0.6-1-1.8-1.5-3-1.5c-1.3,0-2.4,0.6-3,1.5c-0.3,0.4-0.5,0.9-0.6,1.4c-0.1,0.6-0.1,1.3,0.1,2.1C16.9,23.8,18.1,26,20,28.3z M33.5,27.3c-0.1-0.3-0.3-0.7-0.4-1.1c-0.3-0.5-0.5-1.2-0.8-1.7v0c-2.4-5.1-4.9-10.3-7.6-15.4l-0.1-0.2c-0.3-0.5-0.6-1.1-0.8-1.6 c-0.3-0.5-0.6-1.1-1-1.5c-0.7-0.8-1.7-1.3-2.8-1.3c-1.1,0-2,0.4-2.8,1.3c-0.4,0.4-0.7,1-1,1.5c-0.3,0.5-0.6,1.1-0.8,1.6L15.4,9 c-2.7,5.1-5.2,10.3-7.6,15.4l0,0.1C7.5,25,7.2,25.6,7,26.2c-0.2,0.4-0.3,0.8-0.4,1.1c-0.3,1-0.4,1.8-0.3,2.7c0.2,1.8,1.4,3.3,3.1,4 c0.8,0.3,1.7,0.4,2.6,0.3c0.9-0.1,1.7-0.4,2.6-0.9c1.2-0.7,2.5-1.8,3.9-3.3c-2.2-2.8-3.7-5.4-4.2-7.6c-0.3-1-0.3-2-0.2-2.9 c0.1-0.9,0.4-1.6,0.9-2.3c1.1-1.5,2.9-2.4,4.9-2.4c2,0,3.8,0.9,4.9,2.4c0.5,0.7,0.8,1.5,0.9,2.3c0.1,0.9,0.1,1.9-0.2,2.9 c-0.5,2.3-1.9,4.8-4.2,7.6c1.4,1.6,2.7,2.6,3.9,3.3c0.9,0.5,1.8,0.8,2.6,0.9c0.9,0.1,1.8,0,2.6-0.3c1.7-0.7,2.9-2.2,3.1-4 C33.9,29,33.8,28.2,33.5,27.3z" />
</svg>