<!-- (c) Carrd Inc. All rights reserved. All logos and trademarks are property of their respective owners. -->
<svg xmlns="http://www.w3.org/2000/svg" id="icon">
<path d="M29.9,2.1C30,2.3,30,2.4,30,2.6c0,1.6,0,3.2,0,4.9c0,0.1,0,0.2,0,0.5c2.3-1.7,4.6-3.4,6.9-5.2C37,2.9,37,3,37,3 c0,4.1,0,8.1,0,12.2c0,0.5-0.3,0.4-0.6,0.5c-0.9,0.4-1.7,0.7-2.6,1c-0.8,0.3-1.5,0.6-2.3,0.9c-0.4,0.2-0.9,0.3-1.3,0.5 C30,18.3,30,18.5,30,18.6c0,1.8,0,3.6,0,5.4c0,3.5-1.3,6.5-3.9,8.8c-1.2,1.1-2.5,1.8-4,2.4c-1.7,0.6-3.4,0.8-5.1,0.5 c-3-0.4-5.6-1.7-7.5-4.1c-1-1.2-1.7-2.5-2.2-4.1c-2.4,1-4.8,1.9-7.2,2.9c0,0,0,0,0-0.1c1.6-1.2,3.2-2.4,4.9-3.7 C5.4,26.4,6,26,6.5,25.6c0.2-0.2,0.3-0.3,0.3-0.6c0-3.2,0-6.5-0.1-9.7c0-0.3,0.1-0.4,0.3-0.5c1.7-0.9,3.4-1.9,5.1-2.8 c0.5-0.3,1.1-0.6,1.6-0.9c0,3,0,6,0,9c0.4-0.2,0.6-0.4,0.9-0.6c2.3-1.8,4.7-3.5,7-5.3c0.1-0.1,0.1-0.2,0.1-0.3c0-2.3,0-4.5,0-6.8 c0-0.3,0.1-0.5,0.4-0.7c2.4-1.3,4.8-2.6,7.1-3.9C29.6,2.4,29.7,2.3,29.9,2.1C29.9,2.1,29.9,2.1,29.9,2.1z M13.8,24.9 c0.1,0.3,0.2,0.7,0.3,0.9c0.7,1.5,2.1,2.4,3.6,2.4c0.5,0,1-0.1,1.4-0.2c1.5-0.4,2.5-1.8,2.7-3.1c0.1-0.9,0-1.9,0.1-2.8 c0-0.1,0-0.2,0-0.4C19.1,22.8,16.5,23.8,13.8,24.9z"/>
</svg>