<!-- (c) Font Awesome (fontawesome.io, SIL OFL) -->
<svg xmlns="http://www.w3.org/2000/svg" id="icon">
<path d="M30.79,3.55L18.33,14.86c-1.2,1.09-1.8,2.47-1.8,4.14c0,1.65,0.59,3.08,1.77,4.29s2.59,1.81,4.23,1.81 c1.58,0,2.99-0.59,4.26-1.78c1.73-1.6,4.76-6.5,9.08-14.69c0.59-1.15,0.88-2.13,0.88-2.95c0-0.91-0.34-1.67-1.03-2.28 S34.24,2.5,33.33,2.5C32.41,2.5,31.56,2.85,30.79,3.55z M13.14,22.9c-0.68,0.1-1.35,0.26-2.01,0.5s-1.24,0.54-1.72,0.93 c-0.48,0.38-0.93,0.88-1.36,1.48c-0.42,0.61-0.8,1.34-1.12,2.2c-0.18,0.48-0.54,0.72-1.07,0.72c-0.2,0-0.49-0.11-0.9-0.33 s-0.79-0.46-1.15-0.71s-0.77-0.54-1.21-0.87s-0.71-0.52-0.8-0.59c0,1.54,0.19,2.97,0.57,4.3s0.94,2.52,1.69,3.57 s1.74,1.88,2.98,2.49s2.66,0.91,4.26,0.91c2.8,0,5.07-0.87,6.81-2.62s2.58-4,2.53-6.78l-0.02-1.39c-1.08-0.29-2.06-0.78-2.94-1.48 s-1.57-1.55-2.08-2.54C14.63,22.73,13.81,22.8,13.14,22.9z"/>
</svg>