<!-- (c) Carrd Inc. All rights reserved. All logos and trademarks are property of their respective owners. -->
<svg xmlns="http://www.w3.org/2000/svg" id="icon">
<path d="M20,38C10,38,2,29.9,2,20C2,10,10.1,2,20.1,2C30,2,38,10.1,38,20C38,30,29.9,38,20,38z M20,5.6 C12.1,5.6,5.7,12,5.6,20C5.5,27.8,12,34.3,20,34.4C27.9,34.4,34.3,28,34.4,20C34.4,12.1,28,5.6,20,5.6z M24.4,30.5 c-0.4,0.1-0.6,0-0.8-0.3c-2.3-2.2-4.6-4.5-6.8-6.7c-0.6-0.5-0.5-1,0.2-1.3c0.2-0.1,0.4-0.2,0.6-0.3c0.5-0.3,1-0.4,1.6,0 c1.1,0.6,2.5-0.2,2.8-1.5c0-0.2,0.2-0.4,0.4-0.4c0.4-0.2,0.9-0.4,1.4-0.6c0.6-0.2,1,0,1,0.7c0,1.6,0,3.3,0,4.9c0,1.6,0,3.2,0,4.8 C24.8,30.1,24.7,30.4,24.4,30.5z M23.1,17.7c-0.2,0.1-0.5,0.2-0.7,0.3c-0.6,0.3-1,0.4-1.7,0.1c-1.1-0.6-2.5,0.2-2.8,1.5 c-0.1,0.3-0.2,0.4-0.4,0.5c-0.5,0.2-0.9,0.4-1.3,0.6c-0.6,0.3-1,0-1-0.7c0-1.6,0-3.3,0-4.9c0-1.6,0-3.2,0-4.8c0-0.3,0-0.7,0.4-0.7 c0.2,0,0.6,0.1,0.8,0.3c2.3,2.2,4.6,4.5,6.9,6.8C23.8,17,23.7,17.5,23.1,17.7z"/>
</svg>