<!-- (c) Carrd Inc. All rights reserved. All logos and trademarks are property of their respective owners. -->
<svg xmlns="http://www.w3.org/2000/svg" id="icon">
<path d="M17,20c0-1.5-1.2-2.7-2.7-2.7c-1.5,0-2.7,1.2-2.7,2.7c0,1.5,1.2,2.7,2.7,2.7C15.8,22.6,17,21.5,17,20z M14.1,15.6 c0.1,0,0.2,0,0.3,0c0.1,0,0.2,0,0.3,0l1.8,0h8.1c0.6,0,1.1,0.1,1.5,0.4c0.4,0.2,0.7,0.5,0.9,0.9c0.2,0.4,0.3,0.8,0.3,1.2 c0,0.4-0.1,0.8-0.2,1.2c-0.2,0.4-0.4,0.7-0.8,0.9c-0.4,0.2-0.8,0.4-1.3,0.4l-0.8,0l3.2,1.8v-4.5c0-0.5,0.1-1,0.4-1.3 c0.3-0.4,0.6-0.6,1-0.8c0.4-0.2,0.9-0.2,1.3-0.1c0.5,0.1,0.9,0.2,1.3,0.5l8.5,6.1v2.1l-9.5-6.9c-0.2-0.1-0.3-0.2-0.5-0.2 c-0.2,0-0.3,0-0.4,0.1c-0.1,0.1-0.2,0.2-0.3,0.3c-0.1,0.1-0.1,0.3-0.1,0.4l0,6.3h-1.7v0l-8.6-5.3V19l6,0c0.3,0,0.5-0.1,0.7-0.3 c0.2-0.2,0.2-0.4,0.3-0.6c0-0.2-0.1-0.4-0.2-0.6c-0.1-0.2-0.4-0.3-0.7-0.3l-7,0c0.6,0.7,0.9,1.7,0.9,2.7c0,2.4-2,4.4-4.4,4.4 c-0.1,0-0.2,0-0.2,0l0,0H2.5c-0.5,0-0.9-0.1-1.2-0.3c-0.3-0.2-0.6-0.4-0.8-0.8c-0.2-0.3-0.3-0.6-0.4-1c-0.1-0.4-0.1-0.7,0-1.1 c0.1-0.4,0.2-0.7,0.5-1c0.2-0.3,0.6-0.5,1-0.7l6.3-2.2H0.6v-1.7L14.1,15.6z M10.5,18l-8.3,3.2c-0.2,0.1-0.3,0.2-0.4,0.4 c-0.1,0.2-0.1,0.3,0,0.5c0,0.2,0.1,0.3,0.3,0.4c0.1,0.1,0.3,0.2,0.6,0.2l8.3,0C10.3,21.9,10,21,10,20C10,19.3,10.2,18.6,10.5,18z"/>
</svg>