<!-- (c) Carrd Inc. All rights reserved. All logos and trademarks are property of their respective owners. -->
<svg xmlns="http://www.w3.org/2000/svg" id="icon">
<path d="M36.7,18.4c0.1-0.7,0.1-1.4,0.2-2.4c0.1-8-6.8-14.1-14.5-14.1c-1.9,0-2.8,0-4.7,0C10,1.9,3.1,8,3.2,16c0,1,0,1.7,0.1,2.4 c-1,1.4-1.5,3.4-1.3,5.4l0.1,0.6c0.4,4,3.5,7,6.8,6.7l0.2,0c2.3,4.3,6.3,7,10.9,7v0h0c0.4,0,0.7-0.3,0.7-0.7V35 c0-0.4-0.3-0.7-0.7-0.7v0c-4.7,0-8.9-5.7-8.9-11.5c0-5.7,4.2-11.5,8.9-11.5l0,0h0c0.4,0,0.7-0.3,0.7-0.7V8.3c0-0.4-0.3-0.7-0.7-0.7 v0c-5,0-9.4,3.2-11.5,8.2l-1.2,0.1c-0.1,0-0.1,0-0.2,0c-0.3-6,5.3-10.4,11.2-10.4c1.5,0,2.3,0,3.8,0c5.9,0,11,4.4,10.8,10.4 c-0.1,0-0.2,0-0.3,0l-1.9-0.2v0c0,0,0,0,0,0c-0.4,0-0.8,0.3-0.8,0.7l-1.4,13.7c0,0.4,0.3,0.8,0.7,0.8c0,0,0,0,0,0v0l1.9,0.2 c3.3,0.4,6.4-2.6,6.8-6.7l0.1-0.6C38.2,21.8,37.7,19.8,36.7,18.4z"/>
</svg>