<!-- (c) Carrd Inc. All rights reserved. All logos and trademarks are property of their respective owners. -->
<svg xmlns="http://www.w3.org/2000/svg" id="icon">
<path d="M20,27.13c-1.91,0-3.7-0.74-5.05-2.09c-1.35-1.35-2.09-3.13-2.09-5.04c0-1.9,0.74-3.69,2.09-5.04 c1.35-1.35,3.14-2.09,5.05-2.09s3.7,0.74,5.05,2.09h0c1.35,1.35,2.09,3.14,2.09,5.04c0,1.9-0.74,3.69-2.09,5.04 C23.7,26.39,21.91,27.13,20,27.13z M34.57,29.7l-4.26-3.34c1.17-1.89,1.8-4.07,1.8-6.35c0-3.24-1.26-6.28-3.55-8.57 C26.27,9.14,23.23,7.89,20,7.89s-6.27,1.26-8.56,3.55C9.15,13.72,7.89,16.76,7.89,20c0,3.24,1.26,6.28,3.55,8.57 c2.29,2.29,5.33,3.54,8.56,3.54c2.28,0,4.47-0.63,6.36-1.8l3.34,4.26c-6.8,4.54-16.07,3.8-22.07-2.2c-6.83-6.83-6.83-17.91,0-24.75 c6.83-6.83,17.92-6.83,24.75,0C38.38,13.62,39.11,22.9,34.57,29.7z"/>
</svg>