<!-- (c) Carrd Inc. All rights reserved. All logos and trademarks are property of their respective owners. -->
<svg xmlns="http://www.w3.org/2000/svg" id="icon">
<path d="M33.8,29.4c2.3-2.7,3.7-6.2,3.7-9.9c0-8.9-7.8-16.1-17.5-16.1S2.5,10.6,2.5,19.5c0,8.9,7.8,16.1,17.5,16.1 c2.1,0,4.2-0.4,6.2-1.1c0.2-0.1,0.5,0,0.6,0.2c1.5,2,3.7,3.4,6.3,3.9c0.2,0,0.4-0.1,0.4-0.3c0-0.1,0-0.2-0.1-0.3 C31.5,35.5,31.6,31.8,33.8,29.4L33.8,29.4z M28.3,17.6L23.8,21l1.6,5.4c0.1,0.3-0.1,0.6-0.3,0.6c-0.1,0-0.3,0-0.4-0.1L20,23.7 L15.4,27c-0.2,0.2-0.6,0.1-0.7-0.1c-0.1-0.1-0.1-0.3-0.1-0.4l1.6-5.4l-4.5-3.4c-0.2-0.2-0.3-0.5-0.1-0.7c0.1-0.1,0.2-0.2,0.4-0.2 l5.7-0.1l1.9-5.3c0.1-0.3,0.4-0.4,0.7-0.3c0.1,0.1,0.3,0.2,0.3,0.3l1.9,5.3l5.7,0.1c0.3,0,0.5,0.2,0.5,0.5 C28.5,17.3,28.4,17.5,28.3,17.6z"/>
</svg>