<!-- (c) Carrd Inc. All rights reserved. -->
<svg xmlns="http://www.w3.org/2000/svg" id="icon">
<path d="M29.4,20.3L16.7,33.1c-0.1,0-0.1,0.1-0.4,0.1s-0.3,0-0.4-0.1l-1.5-1.5c0-0.1-0.1-0.1-0.1-0.4s0-0.3,0.1-0.4l9.2-9.2H1.2 c-0.1,0-0.2,0-0.2,0c0-0.1-0.1-0.3-0.1-0.5v-2.5c0-0.2,0-0.3,0.1-0.4l0,0c0,0,0.1,0,0.2,0h22.4L14.4,9c0-0.1-0.1-0.1-0.1-0.4 s0-0.3,0.1-0.4l1.5-1.5c0.1,0,0.1-0.1,0.4-0.1s0.3,0,0.4,0.1l12.7,12.8c0,0.1,0.1,0.1,0.1,0.4C29.5,20.2,29.4,20.2,29.4,20.3z M34.4,6.6h-2.2c-0.4,0-0.6,0.3-0.6,0.7v25.3c0,0.4,0.3,0.7,0.6,0.7h2.2c0.4,0,0.6-0.3,0.6-0.7V7.3C35.1,6.9,34.8,6.6,34.4,6.6z"/>
</svg>