<!-- (c) Carrd Inc. All rights reserved. All logos and trademarks are property of their respective owners. -->
<svg xmlns="http://www.w3.org/2000/svg" id="icon">
<path d="M38.6,22.7h-1.4l-1.3-8.5H40L38.6,22.7z M31.7,21.4l-2.3,1.8l-2.5-1.9l-0.2,4.1h-3.4l0.5-10.9h0.3l5.3,4.3 l5.5-4.3h0.3l0.3,10.9h-3.7L31.7,21.4z M18.2,24.1h-4.1l-0.6,1.3H9.3L16,14.4h0.4L23,25.5h-4.2L18.2,24.1z M16.2,19.7l-1,2.1h1.9 L16.2,19.7z M9.9,23.9c-0.8,1.5-3,1.5-3.8,1.5H0V14.2h5.9c1,0,2.7,0.1,3.6,1.3c0.5,0.7,0.6,1.8,0.4,2.5c-0.3,1-0.9,1.4-1.8,1.7 c0.8,0.3,1.4,0.5,1.9,1.5C10.3,22,10.3,23.2,9.9,23.9z M4.9,16.7H3.8v1.8h1.1c0.7,0,1.1-0.2,1.1-0.9C6,16.9,5.6,16.7,4.9,16.7z M5,21.2H3.8V23H5c0.7,0,1.1-0.2,1.1-0.9C6.2,21.4,5.7,21.2,5,21.2z M37.9,23.5c0.6,0,1.2,0.5,1.2,1.2c0,0.6-0.5,1.2-1.2,1.2 c-0.6,0-1.2-0.5-1.2-1.2C36.7,24,37.3,23.5,37.9,23.5z"/>
</svg>