<!-- (c) Carrd Inc. All rights reserved. All logos and trademarks are property of their respective owners. -->
<svg xmlns="http://www.w3.org/2000/svg" id="icon">
<path d="M36.8,5.4V4.8l-0.3,0.6h-0.1l-0.3-0.6v0.6h-0.2V4.5h0h0.1h0l0.3,0.7l0.3-0.7h0H37h0v0.9H36.8z M35.6,5.4h-0.2 V4.6h-0.3V4.5h0.7v0.1h-0.3V5.4z M20.6,32.3C20.6,32.3,20.6,32.3,20.6,32.3l14.6-1.8v6l-14.3-2.4L20.6,32.3z M26.5,14.7l-1.2,0.5 l1.2,14L20.2,30L18,17l-1.2,0.5l1.1,12.7l-6.2,0.8L9.6,19.3l-1.2,0.5l1,11.5l-3.6,0.5L1,13.4l19.2-9l15,3.8v19.9L29,28.9L26.5,14.7z "/>
</svg>