<!-- (c) Carrd Inc. All rights reserved. All logos and trademarks are property of their respective owners. -->
<svg xmlns="http://www.w3.org/2000/svg" id="icon">
<path d="M36.3,11.9c-0.1,3.4-2.5,8-7.1,14c-4.8,6.2-8.8,9.2-12.1,9.2c-2,0-3.7-1.9-5.1-5.6c-0.6-2.3-1.6-5.7-2.8-10.3 c-1-3.7-2.2-5.6-3.4-5.6c-0.3,0-1.2,0.5-2.7,1.6L1.4,13c0.3-0.3,1.1-1,2.3-2.1s2.1-1.9,2.8-2.5c2.2-2,4-3,5.2-3.1 C13,5.2,14.1,5.6,15,6.5s1.4,2.4,1.7,4.4c0.6,4.1,1.1,6.8,1.4,8c0.8,3.6,1.6,5.3,2.6,5.3c0.7,0,1.8-1.2,3.3-3.5 c1.4-2.3,2.2-4.1,2.3-5.3c0.2-2-0.6-3-2.3-3c-0.8,0-1.7,0.2-2.6,0.6c1.7-5.6,5-8.4,9.8-8.2C34.8,5,36.5,7.3,36.3,11.9L36.3,11.9z"/>
</svg>