<!-- (c) Carrd Inc. All rights reserved. All logos and trademarks are property of their respective owners. -->
<svg xmlns="http://www.w3.org/2000/svg" id="icon">
<path d="M7.32,19.09v0.88c0,0.09-0.09,0.18-0.18,0.18h-1.1c-0.04,0-0.09,0.04-0.09,0.09v4.66c0,0.09-0.09,0.18-0.18,0.18H4.9 c-0.09,0-0.18-0.09-0.18-0.18v-4.66c0-0.04-0.04-0.09-0.09-0.09h-1.1c-0.09,0-0.18-0.09-0.18-0.18v-0.88c0-0.09,0.09-0.18,0.18-0.18 h3.61C7.23,18.92,7.32,19,7.32,19.09z M12.16,18.92h-0.88c-0.09,0-0.18,0.09-0.18,0.18v4.14c0,0.4-0.31,0.7-0.86,0.7 c-0.53,0-0.84-0.31-0.84-0.7v-4.14c0-0.09-0.09-0.18-0.18-0.18H8.35c-0.09,0-0.18,0.09-0.18,0.18v4.14c0,1.06,0.88,1.94,2.07,1.94 c1.21,0,2.09-0.88,2.09-1.94v-4.14C12.34,19,12.25,18.92,12.16,18.92z M17.13,18.92h-0.88c-0.09,0-0.18,0.09-0.18,0.18v3.3 c0,0.04-0.07,0.07-0.09,0.02l-1.21-3.34c-0.02-0.09-0.09-0.15-0.22-0.15H13.5c-0.09,0-0.18,0.09-0.18,0.18v5.81 c0,0.09,0.09,0.18,0.18,0.18h0.88c0.09,0,0.18-0.09,0.18-0.18v-3.04c0-0.04,0.07-0.07,0.09-0.02l1.19,3.08 c0.02,0.07,0.09,0.15,0.24,0.15h1.03c0.09,0,0.18-0.09,0.18-0.18v-5.81C17.31,19,17.22,18.92,17.13,18.92z M21.69,23.84H19.6 c-0.04,0-0.09-0.04-0.09-0.09V22.7c0-0.04,0.04-0.09,0.09-0.09h1.98c0.09,0,0.18-0.09,0.18-0.18v-0.88c0-0.09-0.09-0.18-0.18-0.18 H19.6c-0.04,0-0.09-0.04-0.09-0.09v-1.06c0-0.04,0.04-0.09,0.09-0.09h2.05c0.09,0,0.18-0.09,0.18-0.18v-0.88 c0-0.09-0.09-0.18-0.18-0.18h-3.19c-0.09,0-0.18,0.09-0.18,0.18v5.81c0,0.09,0.09,0.18,0.18,0.18h3.23c0.09,0,0.18-0.09,0.18-0.18 v-0.88C21.86,23.93,21.77,23.84,21.69,23.84z M40,11.8v12.4c0,0.34-0.26,0.6-0.6,0.6H25.6v3.4c0,0.34-0.26,0.6-0.6,0.6H0.6 c-0.34,0-0.6-0.26-0.6-0.6V15.8c0-0.34,0.26-0.6,0.6-0.6h23.8v-3.4c0-0.34,0.26-0.6,0.6-0.6h14.4C39.74,11.2,40,11.46,40,11.8z M24.4,16.4H1.3c-0.06,0-0.1,0.04-0.1,0.1v11c0,0.06,0.04,0.1,0.1,0.1h23c0.06,0,0.1-0.04,0.1-0.1V16.4z M31.48,20.07 c0-0.09-0.09-0.18-0.18-0.18h-0.75c-0.04,0-0.09-0.04-0.09-0.09V16.2c0-0.04,0.04-0.09,0.09-0.09h0.66c0.09,0,0.18-0.09,0.18-0.18 V15.1c0-0.09-0.09-0.18-0.18-0.18h-2.73c-0.09,0-0.18,0.09-0.18,0.18v0.84c0,0.09,0.09,0.18,0.18,0.18h0.66 c0.04,0,0.09,0.04,0.09,0.09v3.61c0,0.04-0.04,0.09-0.09,0.09H28.4c-0.09,0-0.18,0.09-0.18,0.18v0.84c0,0.09,0.09,0.18,0.18,0.18 h2.9c0.09,0,0.18-0.09,0.18-0.18V20.07z M36.41,15.1c0-0.09-0.09-0.18-0.18-0.18h-0.88c-0.09,0-0.18,0.09-0.18,0.18v3.3 c0,0.04-0.07,0.07-0.09,0.02l-1.21-3.34c-0.02-0.09-0.09-0.15-0.22-0.15h-1.03c-0.09,0-0.18,0.09-0.18,0.18v5.81 c0,0.09,0.09,0.18,0.18,0.18h0.88c0.09,0,0.18-0.09,0.18-0.18v-3.04c0-0.04,0.07-0.07,0.09-0.02l1.19,3.08 c0.02,0.07,0.09,0.15,0.24,0.15h1.03c0.09,0,0.18-0.09,0.18-0.18V15.1z"/>
</svg>