<!-- (c) Carrd Inc. All rights reserved. All logos and trademarks are property of their respective owners. -->
<svg xmlns="http://www.w3.org/2000/svg" id="icon">
<path d="M24.9,18.6c0-5.8,0-11.5,0-17.3c1.2,0.3,2.4,0.6,3.6,1c2.8,1,5.4,2.5,7.4,4.7c1.7,1.9,2.6,4.2,2.8,6.7c0.4,4,0.4,8.1,0,12.1 c-0.3,4.4-2.5,7.6-6.2,9.9c-3,1.8-6.2,2.8-9.7,3.1c-3.3,0.3-6.6,0.2-9.9-0.7c-3.5-0.9-6.5-2.6-8.9-5.3c-1.6-1.8-2.4-3.9-2.7-6.2 c-0.5-4.2-0.4-8.4-0.1-12.6c0.4-4.2,2.5-7.4,6.1-9.6c3.1-1.9,6.5-2.9,10.1-3.2c0.7,0,1.4,0,2.1-0.1c0.5,0,0.6,0.1,0.6,0.6 c0,1.1,0,2.1,0,3.2c0,8.3,0,16.5,0,24.8c0,0.3,0,0.5,0,0.8c1.6,0,3,0,4.6,0c0-2.6,0-5.1,0-7.6c0,0,0.1,0,0.1-0.1 c0.1,0.2,0.2,0.3,0.3,0.5c0.9,1.4,1.8,2.7,2.6,4.2c1.2,2.1,3,3,5.3,3.1c0.7,0,1.5,0,2.2,0c0-1.5,0-2.9,0-4.4c-0.3,0-0.6,0-0.9,0 c-1.2,0-2.1-0.5-2.8-1.4c-0.8-1.3-1.7-2.6-2.5-3.9c-0.1-0.2,0-0.5,0.1-0.7c1.9-2.6,3.8-5.3,5.7-7.9c0.1-0.2,0.2-0.4,0.4-0.6 c-0.8,0-1.4,0-2.1,0c-1,0-1.9,0-2.9,0c-0.4,0-0.6,0.1-0.8,0.4c-1.4,2-2.9,4.1-4.4,6.1C25.2,18.2,25.1,18.3,24.9,18.6z M4.2,28.3 c0.9,0.5,1.7,1.2,2.6,1.5c2.2,0.9,4.5,1,6.8,0.6c3.5-0.7,5.3-2.9,5.2-6.3c-0.1-2.7-1.3-4.3-3.9-5c-0.5-0.1-1.1-0.2-1.6-0.3 c-0.8-0.1-1.6-0.2-2.4-0.4c-0.7-0.1-1.2-0.7-1.2-1.2c-0.1-0.7,0.3-1.3,0.9-1.6c0.3-0.1,0.5-0.2,0.8-0.3c1.5-0.2,3,0,4.1,1 c1-1,1.9-1.9,2.9-2.9c-0.2-0.2-0.4-0.4-0.7-0.6c-1.3-1-2.9-1.4-4.5-1.5c-1.8-0.1-3.5,0-5.1,0.9c-2.1,1.2-3.2,3.4-2.9,6 c0.3,2.3,1.6,3.7,4.1,4.4c0.3,0.1,0.6,0.1,0.9,0.2c1,0.2,1.9,0.3,2.9,0.5c0.8,0.2,1.2,0.7,1.2,1.5c0,1-0.7,1.6-1.9,1.7 c-1.8,0.1-3.6,0-5.1-1.2C6.2,26.3,5.3,27.2,4.2,28.3z"/>
</svg>