<!-- (c) Carrd Inc. All rights reserved. All logos and trademarks are property of their respective owners. -->
<svg xmlns="http://www.w3.org/2000/svg" id="icon">
<path d="M36.8,14.1c-1.4,0-2.7,0-4.1,0c-0.7,0-1.1-0.4-1.4-0.9c-2.5-3.7-6-5.6-10.4-5.7c-6.6-0.1-11.5,4.6-12.7,9.9 c-0.1,0.5-0.3,0.7-0.8,0.7c-1.6,0-3.1,0-4.8,0c0.1-1.6,0.5-3.1,1.1-4.4C6.8,6,14.3,1.3,22.5,2.2c7,0.7,12,4.6,14.9,11 C37.6,13.8,37.5,14,36.8,14.1z M9.1,25.6c2.9,5.9,10,8.5,16.2,5.9c2.2-0.9,4-2.4,5.4-4.3c0.7-0.9,1.4-1.4,2.6-1.3c1,0.1,1.9,0,2.9,0 c1,0,1.2,0.3,0.8,1.2c-1.9,4-4.7,6.9-8.6,8.9c-2.1,1.1-4.4,1.7-6.7,1.9c-0.1,0-0.2,0.1-0.4,0.1c-0.7,0-1.4,0-2.1,0 c-0.2,0-0.5-0.1-0.7-0.1C11.6,37,6.6,33.5,3.8,27.1c-0.6-1.4-0.9-3-1.3-4.5c0-0.1,0-0.3,0-0.4c1.8,0,3.7,0,5.4,0 C8.3,23.3,8.6,24.5,9.1,25.6z"/>
</svg>