<!-- (c) Carrd Inc. All rights reserved. All logos and trademarks are property of their respective owners. -->
<svg xmlns="http://www.w3.org/2000/svg" id="icon">
<path d="M39.1,23c-1,2.2-2.8,3.5-5.1,4c-2.2,0.4-4.2,0-5.9-1.4c-0.5-0.4-0.9-0.8-1.3-1.2c0,2.9,0,5.8,0,8.7 c-0.7,0-1.2-0.3-1.6-0.9c-0.3-0.4-0.4-0.8-0.3-1.2c0-1.3,0-2.7,0-4c0-5.2,0-10.5,0-15.7c0-0.1,0-0.2,0-0.3c0.7,0,1.2,0.3,1.6,0.8 c0.4,0.5,0.4,1.1,0.4,1.7c0.3-0.4,0.6-0.7,1-1.1c1-0.9,2.2-1.4,3.6-1.6c1.7-0.2,3.4,0,4.9,0.9c1.7,0.9,2.7,2.3,3.3,4.1 C40.2,18.3,40.2,20.7,39.1,23z M37.5,16.3c-0.5-1.4-1.4-2.5-2.7-3.1c-1-0.5-2-0.6-3.1-0.5c-1.7,0.2-3.1,1-4,2.4 c-0.7,1.2-1,2.5-1,3.9c0.1,0.5,0.1,1.1,0.2,1.6c0.2,1.2,0.7,2.3,1.6,3.2c1.1,1.1,2.5,1.6,4,1.6c2.5,0,4.4-1.4,5.2-3.8 C38.1,19.8,38.1,18,37.5,16.3z M21,25.7c-0.5-0.6-0.7-1.4-0.7-2.2c0-2.1,0-4.2,0-6.3c0-0.5-0.1-1-0.3-1.5c-0.5-1-1.3-1.5-2.4-1.5 c-1.5-0.1-2.7,0.7-3.2,2.3c-0.3,0.8-0.4,1.6-0.4,2.5c0,2.5,0,5.1,0,7.6c0,0.1,0,0.2,0,0.2c-2.3,0.3-3.9-1.3-3.9-3c0-2.2,0-4.5,0-6.7 c0-0.5-0.1-1-0.3-1.4c-0.4-1-1.4-1.6-2.6-1.5c-1.4,0-2.4,0.9-3,2.3C4,17.2,3.9,18,3.9,18.8c0,2.6,0,5.2,0,7.8c0,0.1,0,0.2,0,0.2 c-2.2,0.3-3.6-1-3.9-2.6C0,24,0,23.8,0,23.6c0-4.1,0-8.2,0-12.2c0-0.1,0-0.1,0-0.3c0.3,0,0.6,0,0.9,0c0.4,0,0.8,0,1.2,0.1 c1,0.2,1.7,1.1,1.8,2.1c0,0,0,0.1,0,0.2c0.1-0.1,0.1-0.2,0.2-0.3c1-1.5,2.4-2.3,4.2-2.3c0.8,0,1.6,0.1,2.4,0.4 c1.3,0.5,2.2,1.3,2.7,2.6c0-0.1,0.1-0.1,0.1-0.2c1-1.6,2.5-2.5,4.3-2.8c1.3-0.2,2.6,0,3.9,0.7c0.5,0.3,0.9,0.6,1.3,1 c0.1,0.1,0.1,0.2,0.1,0.3c0,4.6,0,9.1,0,13.7c0,0.1,0,0.1,0,0.2C22.2,26.7,21.6,26.3,21,25.7z"/>
</svg>