<!-- (c) Carrd Inc. All rights reserved. All logos and trademarks are property of their respective owners. -->
<svg xmlns="http://www.w3.org/2000/svg" id="icon">
<path d="M39,36.3c-0.1,0.1-0.2,0.2-0.4,0.1l-12-5.3c-0.1,0-0.2,0-0.2,0l-12,5.3c-0.1,0-0.2,0-0.3,0 c-0.1-0.1-0.2-0.3-0.1-0.4l12.2-21.2c0,0,0.1-0.1,0.1-0.1c0.1-0.1,0.3,0,0.4,0.1L39,36.1C39,36.1,39,36.2,39,36.3z M13.8,27.1 c-0.1,0.1-0.3,0.2-0.4,0.1c0,0-0.1-0.1-0.1-0.1L1,5.9C1,5.8,1,5.6,1.1,5.6c0.1,0,0.2-0.1,0.3,0l12,5.3c0.1,0,0.2,0,0.2,0l12-5.3 c0.1-0.1,0.3,0,0.4,0.2c0,0.1,0,0.2,0,0.2L13.8,27.1z"/>
</svg>