<!-- (c) Carrd Inc. All rights reserved. All logos and trademarks are property of their respective owners. -->
<svg xmlns="http://www.w3.org/2000/svg" id="icon">
<path d="M29.6,40c-6.7,0-13.3,0-20,0c0-1,0-2.1,0-3.1c0-2.2,0-4.4,0-6.6c0-0.2,0-0.2-0.2-0.2c-0.8,0-1.6,0-2.3,0 c-0.3,0-0.3,0-0.3-0.3c0-1.7,0-3.5,0-5.2c0-0.1,0-0.2-0.2-0.2c-0.8,0-1.6,0-2.5,0c-0.1,0-0.2,0-0.2-0.2c0-2.7,0-5.4,0-8.1 c0-0.1,0-0.2,0-0.3c0.1,0,0.1,0,0.2,0c0.8,0,1.6,0,2.5,0c0.1,0,0.2,0,0.2-0.2c0-1.8,0-3.6,0-5.3c0-0.2,0.1-0.2,0.2-0.2 c0.8,0,1.6,0,2.5,0c0.1,0,0.2,0,0.2-0.2c0-1.5,0-3,0-4.5c0-1.8,0-3.6,0-5.4c6.7,0,13.3,0,20,0c0,0.1,0,0.1,0,0.2c0,3.1,0,6.1,0,9.2 c0,0.2,0,0.3,0,0.5c0,0.1,0,0.2,0.2,0.2c0.8,0,1.6,0,2.4,0c0.3,0,0.3,0,0.3,0.3c0,1.8,0,3.5,0,5.3c0,0.2,0.1,0.2,0.2,0.2 c0.8,0,1.7,0,2.5,0c0.2,0,0.2,0,0.2,0.2c0,0.8,0,1.5,0,2.3c0,0.1,0,0.2,0,0.4c0.1,0,0.3,0,0.4,0c0.8,0,1.5,0,2.3,0 c0.1,0,0.2,0.1,0.2,0.2c0,0.8,0,1.7,0,2.5c0,0.2,0,0.2-0.2,0.2c-0.8,0-1.6,0-2.5,0c-0.1,0-0.2,0-0.2,0.2c0,0.8,0,1.6,0,2.4 c0,0.2,0,0.2-0.2,0.2c-0.8,0-1.6,0-2.4,0c-0.1,0-0.2,0-0.2,0.2c0,1.7,0,3.4,0,5.1c0,0.5,0,0.5-0.5,0.5c-0.7,0-1.5,0-2.2,0 c-0.1,0-0.2,0-0.1,0.2c0,0.2,0,0.3,0,0.5c0,3,0,6.1,0,9.1C29.6,39.9,29.6,39.9,29.6,40z M9.6,30c1.9,0,3.8,0,5.7,0c0,1,0,1.9,0,2.8 c2.9,0,5.7,0,8.5,0c0-0.9,0-1.9,0-2.8c1.9,0,3.8,0,5.7,0c0-1.9,0-3.8,0-5.7c1,0,1.9,0,2.8,0c0-2.9,0-5.7,0-8.5c-0.9,0-1.9,0-2.8,0 c0-0.1,0-0.1,0-0.2c0-1.8,0-3.5,0-5.3c0-0.2,0-0.2-0.2-0.2c-1.8,0-3.5,0-5.3,0c-0.1,0-0.1,0-0.2,0c0-1,0-1.9,0-2.8c-1,0-1.9,0-2.9,0 c0,4.7,0,9.5,0,14.2c-0.9,0-1.9,0-2.8,0c0-4.7,0-9.5,0-14.2c-1,0-1.9,0-2.8,0c0,0.9,0,1.9,0,2.8c-1.9,0-3.8,0-5.7,0 c0,1.9,0,3.8,0,5.7c-0.9,0-1.9,0-2.8,0c0,2.9,0,5.7,0,8.5c0.9,0,1.9,0,2.8,0C9.6,26.2,9.6,28.1,9.6,30z"/>
</svg>