<!-- (c) Carrd Inc. All rights reserved. All logos and trademarks are property of their respective owners. -->
<svg xmlns="http://www.w3.org/2000/svg" id="icon">
<path d="M31.5,19.4L21,26c-0.6,0.4-1.4,0.4-2,0L8.6,19.4c-0.5-0.3-0.9-0.9-0.9-1.6v-3.5C7.9,7.9,13.1,2.8,19.5,2.5 C26.3,2.2,32,7.6,32.3,14.4h0.1v3.5C32.3,18.5,32,19.1,31.5,19.4z M27.5,14.4L27.5,14.4c0-4.2-3.4-7.6-7.5-7.6 c-4.1,0-7.5,3.4-7.5,7.6v2c0,0,0,0,0,0c0,0.4,0.4,0.8,0.8,0.8h13.4c0.4,0,0.8-0.4,0.8-0.8V14.4z M10.5,23.8l8.5,5.3 c0.6,0.4,1.4,0.4,2,0l8.5-5.3c0.6-0.3,1.3-0.3,1.8,0c0.6,0.3,0.9,0.9,0.9,1.6v10.3c0,1-0.8,1.8-1.8,1.8h-21c-1,0-1.8-0.8-1.8-1.8 V25.3c0-0.3,0.1-0.7,0.3-1C8.5,23.5,9.6,23.2,10.5,23.8z"/>
</svg>