<!-- (c) Carrd Inc. All rights reserved. All logos and trademarks are property of their respective owners. -->
<svg xmlns="http://www.w3.org/2000/svg" id="icon">
<path d="M34.9,34.1c-0.1,0.5-0.4,1-0.8,1.3c-0.2,0.2-0.4,0.4-0.7,0.5c-0.6,0.3-1.2,0.5-1.8,0.5c-7.7,0-15.5,0-23.2,0 c-0.5,0-1.1-0.1-1.6-0.4c-0.8-0.4-1.5-1.1-1.8-2C5,33.8,5,33.5,5,33.3C5,24.5,5,15.7,5,7c0-0.2,0-0.4,0-0.5c0-0.3,0.1-0.6,0.3-0.9 c0.3-0.7,1-1.3,1.7-1.6c0.5-0.2,1-0.3,1.5-0.3c7.7,0,15.4,0,23,0c0.6,0,1.1,0.1,1.6,0.3c0.4,0.2,0.7,0.4,1,0.7 c0.4,0.4,0.6,0.8,0.8,1.3C35,6.1,35,6.2,35,6.4v27C35,33.6,35,33.8,34.9,34.1z M7.4,22.4c1,0.7,2,1.4,3,1.9c0.3,0.2,0.6,0.3,1,0.5 c0.3,0.1,0.7,0.3,1,0.4c0.4,0.2,0.9,0.3,1.3,0.5c0.4,0.1,0.9,0.3,1.3,0.4c0.7,0.2,1.3,0.3,2,0.4c0.6,0.1,1.2,0.2,1.8,0.2 c0.3,0,0.6,0,0.9,0.1c0.5,0,0.9,0,1.4,0c0.7,0,1.5-0.1,2.2-0.2c0.8-0.1,1.5-0.3,2.3-0.4c0.5-0.1,1-0.3,1.4-0.4 c0.5-0.1,0.9-0.3,1.4-0.5c0.8-0.3,1.5-0.7,2.2-1.1c0.7-0.4,1.4-0.8,2.1-1.3c0-4,0-8,0-12c-2.2,0-4.3,0-6.5,0c0,0-0.1,0-0.1,0 c0,0.1,0,0.2,0,0.3c0,3.1,0,6.2,0,9.3c0,0.1,0,0.2,0,0.4c0,0.1-0.2,0.1-0.3,0.1c-0.6,0-1.2,0-1.8,0c-0.1,0-0.2,0-0.2-0.1 c-0.1-0.1-0.1-0.1-0.1-0.2c0-3.3,0-6.6,0-9.8c-2.4,0-4.9,0-7.3,0c0,0.3,0,0.6,0,0.9c0,0.3,0,0.5,0,0.8c0,0.3,0,0.7,0,1 c0,0.3,0,0.6,0,1c0,0.4,0,0.8,0,1.2c0,0.2,0,0.5,0,0.7c0,0.7,0,1.4,0,2.1c0,0.7,0,1.4,0,2.1c0,0.1,0,0.2,0,0.2 c-0.1,0.1-0.2,0.1-0.3,0.1c-0.6,0-1.2,0-1.8,0c-0.1,0-0.2,0-0.2-0.1C14,20.8,14,20.7,14,20.6c0-3.3,0-6.6,0-9.8c-2,0-4,0-6,0 c-0.2,0-0.4,0-0.6,0v0c0,0.1,0,0.3,0,0.4c0,3.6,0,7.2,0,10.9C7.4,22.2,7.3,22.3,7.4,22.4z M32.6,6.7c0-0.2-0.2-0.4-0.3-0.5 C32,6,31.7,5.9,31.3,6C23.8,6,16.4,6,8.9,6c-0.2,0-0.4,0-0.6,0C8,6,7.7,6.1,7.5,6.4C7.4,6.5,7.4,6.6,7.4,6.8c0,0.5,0,1.1,0,1.6h0 c8.4,0,16.8,0,25.3,0C32.6,7.8,32.6,7.3,32.6,6.7z M32.6,33.1c0-2.5,0-5,0-7.5c-0.3,0.1-0.5,0.3-0.8,0.4c-1.2,0.7-2.4,1.2-3.7,1.7 c-0.5,0.1-0.9,0.3-1.4,0.4c-0.7,0.2-1.4,0.4-2.1,0.5c-0.9,0.2-1.9,0.3-2.8,0.4c-0.1,0-0.3,0-0.4,0c-0.4,0-0.7,0-1.1,0 c-0.4,0-0.7,0-1.1,0c-0.3,0-0.6,0-0.9-0.1c-0.9-0.1-1.8-0.2-2.8-0.4c-0.5-0.1-1-0.2-1.5-0.4c-0.5-0.1-1-0.3-1.5-0.4 c-0.5-0.1-0.9-0.3-1.4-0.5c-0.4-0.1-0.7-0.3-1-0.5c-0.5-0.2-1-0.5-1.4-0.7c-0.3-0.2-0.6-0.4-0.9-0.5c-0.2-0.1-0.3-0.2-0.5-0.3 c0,2.6,0,5.2,0,7.8c0,0.2,0,0.4,0.1,0.5c0.2,0.3,0.7,0.4,1,0.4c7.7,0,15.3,0,23,0c0.3,0,0.5-0.1,0.8-0.2c0.1-0.1,0.3-0.2,0.3-0.3 C32.7,33.4,32.6,33.2,32.6,33.1z"/>
</svg>