<!-- (c) Carrd Inc. All rights reserved. All logos and trademarks are property of their respective owners. -->
<svg xmlns="http://www.w3.org/2000/svg" id="icon">
<path d="M20,38c-9.91,0.03-17.96-7.99-17.99-17.91V20c0-9.97,8.02-18,17.99-18s17.99,8.02,17.99,18C37.99,29.97,29.97,38,20,38z M20,30.87l1.35-1.35L20,24.35l-1.35,5.17L20,30.87z M18.28,30.8l-0.67,2.55l1.57-1.58L18.28,30.8L18.28,30.8z M21.72,30.8l-0.9,0.9 l1.57,1.58L21.72,30.8L21.72,30.8z M23,35.45l-3-3l-3,3c0.97,0.15,1.95,0.3,3,0.3S22.02,35.67,23,35.45L23,35.45z M20,4.25 C11.31,4.25,4.26,11.3,4.26,20c-0.01,6.7,4.23,12.67,10.57,14.85l3.37-12.52c-0.77-0.56-1.21-1.45-1.2-2.4c0-1.65,1.35-3,3-3 s3,1.35,3,3c0,0.97-0.45,1.8-1.2,2.4l3.37,12.52C31.51,32.67,35.75,26.7,35.74,20C35.74,11.3,28.69,4.25,20,4.25z M30.27,27.8 c-0.38,0.48-1.07,0.58-1.57,0.23c-0.47-0.31-0.6-0.94-0.29-1.41c0.02-0.03,0.04-0.06,0.07-0.09c0,0,2.02-2.7,2.02-6.52 s-2.02-6.52-2.02-6.52c-0.36-0.43-0.3-1.08,0.14-1.44c0.03-0.02,0.06-0.05,0.09-0.07c0.5-0.35,1.19-0.25,1.57,0.23 c0.15,0.15,2.47,3.22,2.47,7.8C32.74,24.57,30.42,27.65,30.27,27.8z M24.8,24.87c-0.45-0.45-0.37-1.27,0.08-1.73 c0,0,1.12-1.2,1.12-3.15c0-1.95-1.12-3.08-1.12-3.15c-0.45-0.45-0.45-1.2-0.08-1.73c0.35-0.45,1-0.54,1.45-0.19 c0.04,0.03,0.08,0.07,0.12,0.11c0.08,0.08,1.87,1.95,1.87,4.95s-1.8,4.87-1.87,4.95C25.92,25.4,25.25,25.33,24.8,24.87L24.8,24.87z M15.2,24.87c-0.45,0.45-1.12,0.52-1.58,0.08C13.55,24.8,11.76,23,11.76,20s1.8-4.8,1.87-4.95c0.45-0.45,1.2-0.45,1.58,0.08 c0.45,0.45,0.37,1.27-0.08,1.73c0,0.07-1.12,1.2-1.12,3.15c0,1.95,1.12,3.15,1.12,3.15C15.58,23.6,15.65,24.35,15.2,24.87 L15.2,24.87z M11.3,28.03c-0.5,0.35-1.19,0.25-1.57-0.22c-0.15-0.15-2.47-3.23-2.47-7.8s2.33-7.65,2.47-7.8 c0.38-0.48,1.07-0.58,1.57-0.23c0.47,0.31,0.6,0.94,0.29,1.41c-0.02,0.03-0.04,0.06-0.06,0.09c0,0-2.02,2.7-2.02,6.52 s2.02,6.52,2.02,6.52C11.9,26.97,11.76,27.65,11.3,28.03L11.3,28.03z"/>
</svg>