<!-- (c) Carrd Inc. All rights reserved. All logos and trademarks are property of their respective owners. -->
<svg xmlns="http://www.w3.org/2000/svg" id="icon">
<path d="M35.1,23.5c-0.3,1.7-1,3.2-1.8,4.7c0,0-0.1,0.1-0.2,0.2c-2.8-4.9-5.5-9.8-8.2-14.8c0.2,0,0.3,0,0.5,0 c2.8,0,5.6,0,8.4,0c0.3,0,0.5,0.1,0.6,0.4C35.6,17.1,35.8,20.3,35.1,23.5z M33.6,12.4c-5.5,0-10.9,0-16.4,0c0.1-0.2,0.2-0.4,0.3-0.5 c1.3-2.4,2.7-4.8,4-7.2c0.3-0.6,0.3-0.6,1-0.5C27,5,30.5,7.4,33,11.3c0.2,0.3,0.4,0.6,0.5,0.9C33.6,12.3,33.6,12.3,33.6,12.4z M11.6,17.8c-1.3-2.3-2.6-4.6-3.9-6.9c-0.2-0.3-0.2-0.5,0.1-0.8c2.6-3.3,6-5.4,10.2-6C18.8,4,19.5,4,20.2,4c0.1,0,0.2,0,0.3,0.1 c-2.8,5-5.5,9.8-8.3,14.8C12,18.4,11.8,18.1,11.6,17.8z M14.6,26.4c-2.8,0-5.5,0-8.3,0c-0.4,0-0.6-0.1-0.8-0.5 c-1.6-4.7-1.4-9.2,0.9-13.6c0.1-0.2,0.2-0.4,0.4-0.7c2.8,5,5.5,9.8,8.2,14.8C14.9,26.4,14.7,26.4,14.6,26.4z M22.5,28.3 c-1.4,2.4-2.7,4.9-4.1,7.3c-0.1,0.2-0.3,0.4-0.6,0.3c-5.1-0.9-8.8-3.6-11.3-8c0,0-0.1-0.1-0.1-0.2c0,0,0-0.1,0-0.1 c5.5,0,10.9,0,16.4,0C22.7,27.9,22.6,28.1,22.5,28.3z M28.4,22.3c1.3,2.3,2.5,4.6,3.8,6.9c0.2,0.3,0.1,0.5-0.1,0.7 c-1.9,2.4-4.2,4.2-7.2,5.3c-1.6,0.6-3.3,0.9-5,0.9c-0.1,0-0.3,0-0.5,0c2.8-5,5.5-9.9,8.3-14.8C28,21.6,28.2,22,28.4,22.3z"/>
</svg>