<!-- (c) Carrd Inc. All rights reserved. All logos and trademarks are property of their respective owners. -->
<svg xmlns="http://www.w3.org/2000/svg" id="icon">
<path d="M33.9,18.8c0.5-0.2,1-0.2,1.5,0.1c0.4,0.3,0.7,0.8,0.7,1.3c0.2,7.5-4.8,14.5-12.5,16.6 c-6,1.6-12.1-0.2-16.2-4.3c0,0,0,0-0.1-0.1c-2-2-3.5-4.5-4.3-7.5C0.7,16.1,6,6.9,15,4.5c1.6-0.4,3.2-0.6,4.8-0.6 c0.5,0,1,0.3,1.3,0.7c0.3,0.4,0.3,1,0.1,1.5c0,0,0,0,0,0c-0.3,0.6-0.9,1-1.5,1c-1.3,0-2.6,0.1-3.9,0.5c-5.6,1.5-9.4,6.2-10,11.6 c1.4-2.4,3.7-4.2,6.6-5c5.9-1.6,11.9,1.9,13.5,7.7c1.3,4.8-0.9,9.8-5,12.2c0.7-0.1,1.3-0.2,2-0.4c6.2-1.7,10.3-7.3,10.1-13.4 C33,19.7,33.3,19.1,33.9,18.8C33.9,18.8,33.9,18.8,33.9,18.8z M9.7,30.3c1.9,1.9,4.8,2.7,7.5,2c4.2-1.1,6.7-5.4,5.5-9.5 c-1.1-4.1-5.4-6.6-9.6-5.5c-4.2,1.1-6.7,5.4-5.5,9.5C8,28.1,8.7,29.3,9.7,30.3L9.7,30.3z M22.7,10.1C22.7,10,22.7,10,22.7,10.1 c0-4.1,3.3-7.4,7.4-7.4c4.1,0,7.4,3.3,7.4,7.3c0,2-0.8,3.8-2.1,5.1l0,0c0,0-0.1,0.1-0.1,0.1v0c-0.8,0.8-1.7,1.3-2.8,1.7l0,0 c-1.9,0.6-4.1,0.5-6.1-0.6C24.1,15,22.7,12.6,22.7,10.1z M33.8,12.1c-1.2,2-3.8,2.7-5.8,1.5c-2-1.2-2.7-3.7-1.5-5.7 c1.2-2,3.8-2.7,5.8-1.5C34.2,7.5,34.9,10.1,33.8,12.1z"/>
</svg>