<!-- (c) Carrd Inc. All rights reserved. All logos and trademarks are property of their respective owners. -->
<svg xmlns="http://www.w3.org/2000/svg" id="icon">
<path d="M0,27.9c0.7-1.1,1.3-2.4,2.2-3.3c3.4-3.6,8.9-4,13.1-1.1c2.3,1.6,4.5,3.3,6.8,4.9c2,1.4,4.3,2.3,6.8,2.4 c3.2,0.1,6.2-1.8,7-4.5c0.9-3.1,0.2-6.3-2.4-8.1c-1.9-1.4-4-1.7-6.2-0.6c-2.1,1.1-3.4,2.9-3.5,5.3c0,0.6,0,1.3,0,1.9 c-0.1,0.7-0.4,0.9-1,0.5c-0.8-0.5-1.6-1-2.4-1.6c-0.2-0.2-0.4-0.6-0.4-0.9c0-5.4,0-10.9,0-16.3c0-0.7,0.3-1,1-1c0.6,0,1.2,0,1.7,0 c1,0,1.2,0.3,1.2,1.3c0,1.6,0,3.2,0,4.7c0,0.8,0,1.5,0,2.3c0,1.2,0.1,1.2,1.1,0.7c0.9-0.4,1.8-0.9,2.7-1.1c3.9-1,8,0.7,10.4,4.1 c2.8,3.9,3,11.2-1.9,15c-2.3,1.8-4.9,2.4-7.8,2.3c-3.3-0.1-6.1-1.3-8.8-3.2c-2.2-1.5-4.3-3.1-6.5-4.6c-1.1-0.8-2.4-1.4-3.8-1.4 c-2-0.1-3.4,0.8-4.4,2.6c-0.4,0.6-0.8,0.9-1.5,0.9c-0.7,0-1.5,0-2.2,0c-0.4,0-0.7-0.2-1.1-0.3C0,28.3,0,28.1,0,27.9z"/>
</svg>