<!-- (c) Font Awesome (fontawesome.io, SIL OFL) -->
<svg xmlns="http://www.w3.org/2000/svg" id="icon">
<path d="M35.7,13c-1.6-2-3.8-3.5-6.5-4.7c-2.8-1.1-5.8-1.7-9-1.7s-6.3,0.6-9,1.7C8.3,9.4,6.1,11,4.5,13 c-1.6,2-2.4,4.1-2.4,6.5c0,2,0.6,3.9,1.8,5.7c1.2,1.8,2.9,3.2,5,4.4c-0.1,0.5-0.3,1-0.5,1.5c-0.2,0.5-0.4,0.9-0.5,1.2 c-0.2,0.3-0.4,0.7-0.7,1c-0.3,0.4-0.5,0.6-0.6,0.8c-0.1,0.2-0.4,0.4-0.7,0.8c-0.3,0.4-0.5,0.6-0.6,0.7c0,0-0.1,0.1-0.2,0.2 C5,35.8,5,35.8,5,35.8L4.8,36c-0.1,0.1-0.1,0.2-0.1,0.2c0,0,0,0.1,0,0.2c0,0.1,0,0.2,0,0.2v0c0.1,0.2,0.2,0.4,0.3,0.6 c0.2,0.1,0.3,0.2,0.5,0.2h0.1C6.6,37.3,7.3,37.2,8,37c3.5-0.9,6.6-2.5,9.2-4.9c1,0.1,2,0.2,2.9,0.2c3.3,0,6.3-0.6,9-1.7 c2.8-1.1,4.9-2.7,6.5-4.7c1.6-2,2.4-4.1,2.4-6.5C38.1,17.1,37.3,14.9,35.7,13z M33.5,24.6c-1.4,1.6-3.3,2.8-5.7,3.8 c-2.4,0.9-4.9,1.4-7.7,1.4c-0.8,0-1.7-0.1-2.6-0.2l-1.1-0.1l-0.9,0.8c-1.6,1.4-3.5,2.6-5.5,3.4c0.6-1.1,1.1-2.2,1.4-3.5l0.5-1.9 l-1.7-1c-1.7-1-3.1-2.2-4-3.5c-1-1.4-1.4-2.8-1.4-4.3c0-1.8,0.7-3.5,2.1-5.1c1.4-1.6,3.3-2.8,5.7-3.8s4.9-1.4,7.7-1.4 s5.3,0.5,7.7,1.4s4.3,2.2,5.7,3.8c1.4,1.6,2.1,3.3,2.1,5.1C35.6,21.3,34.9,23,33.5,24.6z" />
</svg>