<!-- (c) Carrd Inc. All rights reserved. All logos and trademarks are property of their respective owners. -->
<svg xmlns="http://www.w3.org/2000/svg" id="icon">
<path d="M38,18.9c0,0.7,0,1.5,0,2.2c-0.1,0.5-0.2,1-0.2,1.5c-1.3,8.6-8.4,14.9-17.2,15.3c-8.5,0.4-16.1-5.5-18.1-13.8 c-0.2-1-0.4-2-0.5-3c0-0.7,0-1.5,0-2.2c0.1-0.5,0.2-1,0.2-1.5C3.5,8.8,10.6,2.5,19.5,2.1c8.3-0.4,16,5.6,17.9,13.8 C37.7,16.9,37.8,17.9,38,18.9z M35.6,17.7c-0.2-1.5-0.5-2.6-1.2-3.9c-0.1-0.1-0.4-0.3-0.5-0.3c-0.5,0-1,0.1-1.5,0.1 c-1.8,0-3.6-0.1-5.4-0.1c-2.3-0.1-4.3-0.9-5.9-2.6c-1.5-1.5-2.9-3-4.8-4.1C14.7,6.1,13.4,6,12,6.6c-0.4,0.2-0.8,0.5-1.1,0.8 c-0.7,0.5-1.6,1-2.2,1.7c-0.9,1-1.7,2-2.3,3.2c-1.5,2.4-2,5.1-2,7.8c0,1.4,0.3,2.7,0.5,4.1c1.2-1,2.3-1.9,3.4-2.7 c2.5-1.9,5.1-3.6,8.1-4.6c1.3-0.4,2.7-0.7,4.1-0.8c1.6,0,3,0.7,4.3,1.5c1.8,1.1,3.7,1.7,5.7,1.5C32.2,19,34.1,18.2,35.6,17.7z M7.1,29.2c1.8-1.3,3.6-2.2,5.6-2.9c2-0.7,3.9-0.7,5.8,0.2c1.2,0.5,2.4,1,3.6,1.5c2.2,0.9,4.3,0.8,6.4-0.4c2.5-1.4,4.7-3.1,6.8-5 c0.1-0.1,0.3-0.3,0.3-0.5c0.1-1,0.1-1.7,0.2-2.8c-0.3,0.1-0.6,0.2-0.9,0.3c-2.2,0.8-4.2,1.5-6.5,1.1c-1.6-0.3-3.5-1.2-4.9-2 c-2.7-1.5-4.4-0.9-7.8,0.1c-0.1,0.1-0.3,0.1-0.4,0.2c-3.5,1.8-6.5,4.2-9.6,6.6c-0.1,0.1-0.2,0.2-0.3,0.3C6,27.1,6.4,28,7.1,29.2z M8.4,30.5c2.4,2.7,5.3,4.3,8.7,4.9c3.8,0.7,7.4,0.1,10.8-1.9c2.6-1.4,7.1-6.6,6.8-8.3c-0.1,0-0.1,0.1-0.2,0.1 c-2.1,1.7-4.3,3.3-6.8,4.5c-2.5,0.7-5,0.7-7.4-0.4c-3.1-1.7-4.9-1.9-7.3-1.3C11.2,28.6,9.9,29.5,8.4,30.5z"/>
</svg>