<!-- (c) Carrd Inc. All rights reserved. All logos and trademarks are property of their respective owners. -->
<svg xmlns="http://www.w3.org/2000/svg" id="icon">
<path d="M37.1,20.9L21.2,38.7c0,0,0,0,0,0c-0.2,0.4-0.6,0.6-1,0.6c-0.1,0-0.2,0-0.2,0c-0.4,0-0.8-0.2-1-0.6L2.9,20.9 c-0.5-0.5-0.5-1.3-0.1-1.9l4.6-6.9c0.3-0.4,0.8-0.7,1.3-0.7h22.6c0.1,0,0.1,0,0.2,0l0.6,0l0.4,0.5c0,0,0.1,0.1,0.1,0.1c0,0,0,0,0,0 l4.6,6.9C37.6,19.6,37.6,20.4,37.1,20.9z M33.6,21.2h-4.4l-4.7,10.2L33.6,21.2z M20,35.5l6.6-14.4H13.8L20,35.5z M15.8,31.8 l-4.6-10.5H6.4L15.8,31.8z M8.4,14.8l-2.7,4.1h1.6c0.1,0,0.2,0,0.3,0h2.5L8.4,14.8z M10.5,13.7l2.1,4.8l5.2-4.8H10.5z M15.8,18.8H25 l-4.7-4.2L15.8,18.8z M22.9,13.7l5.1,4.6l2.1-4.6H22.9z M31.9,15.3l-1.6,3.5h3.6c0.1,0,0.2,0,0.3,0h0.1L31.9,15.3z M26.7,7.4 c-0.2,0.3-0.5,0.5-0.8,0.5c-0.2,0-0.4,0-0.5-0.1c-0.5-0.3-0.6-0.9-0.3-1.4l1.9-3c0.3-0.5,0.9-0.6,1.4-0.3c0.5,0.3,0.6,0.9,0.3,1.4 L26.7,7.4z M19.9,5.6C19.9,5.6,19.9,5.6,19.9,5.6c-0.6,0-1-0.4-1-1l-0.1-3.5c0-0.5,0.4-1,1-1c0.5,0,1,0.4,1,1l0.1,3.5 C20.9,5.2,20.5,5.6,19.9,5.6z M14.3,7.8c-0.2,0.1-0.3,0.1-0.5,0.1c-0.3,0-0.7-0.2-0.8-0.5l-1.9-3c-0.3-0.5-0.1-1.1,0.3-1.4 c0.5-0.3,1.1-0.1,1.4,0.3l1.9,3C14.9,6.9,14.8,7.5,14.3,7.8z"/>
</svg>