<!-- (c) Carrd Inc. All rights reserved. All logos and trademarks are property of their respective owners. -->
<svg xmlns="http://www.w3.org/2000/svg" id="icon">
<path d="M38.5,28.6c0,0.1-3,11.4-14.6,11.4c-10,0-14.8-8.7-14.8-8.7c-0.7,0-1.4-0.1-2.1-0.3c-2.9-1.1-4.3-4.4-3.3-7.3 l-1.6-1.2C-4.1,17.7,13.6-4,19.9,0.9c0,0,1.5,1.2,1.5,1.2C23.7,0.7,25.9,0,27.7,0c1.3,0,2.4,0.4,3.1,1.2c1.6,1.8,1,5.1-1.2,8.5 c0.5,0.5,0.9,1.1,1.2,1.7c0.7,0.5,1.2,1.4,1.4,2.5c0.3,1.3,0.3,3.1,0.5,3.9c0.6,0.3,0.3,0.1,1,0.5c0.7,0.3,1.5,0.7,2.4,1.6 c1.6,0.4,2.2,2.1,1.3,3.2c0,0-0.1,0.2-0.3,0.3c0,0.1,0.3,0.6,0.6,1.6c0.7,0.2,1.2,0.6,1.5,1.1C39.5,27.2,38.5,28.6,38.5,28.6z M8.8,30c2.5,0,4.4-2.4,4-5c0,0-0.3,0.6-0.5,0.9v0l0,0c0.1-0.9-0.1-1.9-0.4-2.7c0,0-0.1,0.5-0.4,1.2v0v0c-0.2-2-1.1-2.5-1.1-2.5 c-0.5-0.2-1.1-0.4-1.6-0.4c-2.2,0-4.1,1.9-4.1,4.3C4.8,28.1,6.6,30,8.8,30z M21.5,3.2c0,0-2.2-1.9-2.2-1.9l-0.8,0.3 C15.5,1,9.1,5.9,5.2,12c-1.6,2.5-3.8,6.9-2.5,9c0.2,0.4,1.7,1.5,1.7,1.5c0.6-0.8,1.3-1.4,1.9-1.8l-0.1,0c1.4-4.8,5-9.6,8.8-12.8 c0.9-0.8,2.8-2.1,2.8-2.1L15.7,4l-0.2-1.1l2.9,2.4c0,0,0,0,0,0c-0.1,0.1-0.3,0.2-0.4,0.3c-0.3,0.2-0.6,0.5-0.9,0.8 c-0.4,0.4-0.8,0.8-1.2,1.2c-0.9,0.9-1.8,1.9-2.6,2.9c-1.4,1.8-2,2.6-2.9,4.4c0,0,5-5.9,6.2-7.2c2.3-2.3,6-4.8,6-4.8 c1.6-1,2.9-1.5,4-1.8C24.9,1.4,23,2.3,21.5,3.2z M28.6,8.7L28.6,8.7c-0.4-0.8-1.3-1.4-2.1-1.6c0.1,0.1,0.3,0.4,0.4,0.6 c-0.6-0.4-1.4-0.8-2.2-0.9c0,0,0.1,0.1,0.1,0.1C25,7,25.3,7.2,25.3,7.4c-0.8-0.3-1.8-0.5-2.6-0.3c0,0-0.1,0-0.1,0s0.1,0,0.1,0 c0.3,0.1,0.7,0.3,0.9,0.5c-1.4-0.2-3,0-3.8,0.5c0.1,0,0.1,0,0.2,0c0.3,0,0.9,0.1,1.2,0.2c-0.9,0.2-2.2,0.6-2.9,1.2 c0.1,0,0.8-0.1,1.1-0.1c-3.8,2.2-5.6,5.5-5.6,5.5l0,0c1.1-1.5,2.6-2.9,4.6-4.2C22.8,8,27.1,7.6,28.6,8.7C28.6,8.8,28.6,8.8,28.6,8.7 C28.6,8.8,28.6,8.7,28.6,8.7z M36.9,26.2c-0.3,0-0.6,0.1-0.6,0.1s0-1.4-0.6-2.4c-0.5,0.5-1.8,1.6-3.6,2.4c-1.6,0.8-3.8,1.5-6.6,1.6 l0,0c-0.8,0-1.2-0.1-1.5,0.8c0,0.1,0,0.2,0,0.3c3,0.9,7.7-0.9,8.2-1c0,0,0,0,0,0c0.3,0-2.5,1.8-6.5,1.8c-0.7,0-1.2-0.1-1.7-0.1 c0.2,0.7,0.8,1.1,1.5,1.2c0.6,0.1,1.2,0.1,1.2,0.1c5.4,0.2,9.9-4.1,10.1-4.3c0,0,0,0.1-0.1,0.1c-0.8,1.8-5.4,5-10,5l0,0 c-1.1,0-2.4-0.3-3-1.1c-1.1-1.3-0.5-3.5,1.2-3.6c0,0,0.4,0,0.6,0c4.2-0.1,8-1.7,10.7-4.9c0.4-0.5,0-1.1-0.8-1.1c0,0,0,0,0,0s0,0,0,0 c-1-1-1.8-1.4-2.5-1.8c-1.6-0.8-1.4-0.1-1.8-4c-0.1-1-0.3-2.5-1.2-3c-0.2-0.1-0.5-0.2-0.8-0.2c-0.3,0-0.4,0.1-0.5,0.1 c-0.5,0.1-0.8,0.4-1.1,0.7c-1.7,1.6-3,1.1-5.1,1.1c-1.9,0-3.6,1.3-3.9,3.3l0,0c-0.2,1.1-0.1,2.1,0.1,2.6c0,0-0.5-0.3-0.8-0.6 c0.3,1.9,2,3.1,2,3.1c-0.3,0.1-0.6,0-0.6,0c0,0,1,0.8,1.8,1c-0.2,0.1-1.3,1.2-1.9,2.7c-0.5,1.4-0.3,3.1-0.3,3.1l0.5-0.7 c0,0-0.3,1.5,0.3,3c0.2-0.4,0.6-1.2,0.6-1.2s-0.1,1.6,0.7,3c0-0.3,0.1-1.1,0.1-1.1s0.5,1.4,1.5,2.4c2,1.7,7.2,2.1,11.1-1.1 c3.1-2.5,3.7-5.4,3.7-5.5C38.1,27.1,37.9,26.2,36.9,26.2z M22.6,21.1c-0.1,0,0-0.2,0.2-0.4c0.2-0.2,0.3-0.3,0.5-0.3c0,0,0.1,0,0.1,0 c0.1,0,0.2-0.1,0.3-0.1c0.8-0.1,1.4,0.3,1.3,0.4c0,0.1-0.2,0-0.4,0c-0.5,0-1,0-1.6,0.3C22.8,21,22.7,21.1,22.6,21.1z M21.7,19.7 c-0.3,0.1-0.5,0.2-0.6,0.2c-0.2,0,0-0.3,0.4-0.6c0.7-0.6,1.8-0.8,2.6-0.5c0.4,0.1,0.8,0.4,1,0.7c0.1,0.1,0.1,0.2,0.1,0.3 c-0.1,0.1-0.3,0-0.7-0.2C23.6,19.3,22.9,19.2,21.7,19.7z M28.5,20c0.3,0.2,0.5,0.5,0.3,0.7C28.7,21,28.3,21,28,20.9 c-0.3-0.2-0.5-0.5-0.3-0.7C27.8,19.9,28.2,19.8,28.5,20z M29,16.1L29,16.1C29,16.1,29,16.1,29,16.1L29,16.1c0.5-0.2,1.1,1.1,1.2,2.2 c-0.4-0.2-0.8-0.3-1.3-0.2c-0.1-0.4-0.2-0.7-0.2-1C28.7,16.7,28.7,16.2,29,16.1z M30.2,19.2c0.2,0,0.4,0.3,0.3,0.6 c0,0.3-0.3,0.5-0.5,0.5c-0.2,0-0.4-0.3-0.3-0.6C29.8,19.4,30,19.2,30.2,19.2z M19.9,2.9l0.9,0.7c-0.2,0.1-0.4,0.3-0.6,0.4L19.9,2.9z M18,3.7l1.8,0.6c-0.2,0.2-0.4,0.3-0.6,0.5L18,3.7z M18.4,3.1l-0.2-0.6l0.3-0.8l0.4,1.6L18.4,3.1z M6.4,24.4 C6.4,24.4,6.4,24.4,6.4,24.4c0-0.1,0.1-0.1,0.1-0.2c0,0,0,0,0,0c0-0.1,0.1-0.1,0.1-0.2c0,0,0,0,0,0c0-0.1,0.1-0.1,0.1-0.2 c0,0,0,0,0,0c0,0,0.1-0.1,0.1-0.1c0,0,0,0,0.1-0.1c0,0,0.1-0.1,0.1-0.1c0,0,0,0,0.1-0.1c0,0,0.1-0.1,0.1-0.1c0,0,0.1,0,0.1-0.1 c0,0,0.1,0,0.1-0.1c0,0,0.1,0,0.1-0.1c0,0,0.1,0,0.1,0c0.1,0,0.2-0.1,0.2-0.1c0.1,0,0.2,0,0.2-0.1l0,0c0.1,0,0.6-0.1,1.1-0.1 c0.5,0.1,1,0.3,1.3,0.7h0l0,0v0c0.2,0.3,0.4,0.6,0.4,0.9h0c0,0,0,0,0,0h0c0,0.1-0.1,0.3-0.2,0.4c0,0-0.1,0-0.1,0 c-0.1-0.1,0-0.3-0.2-0.6c-0.3-0.4-0.9-0.8-1.8-0.6l0,0c-0.2,0-0.1,0-0.2,0.1c0,0,0,0-0.1,0c-0.1,0-0.1,0-0.1,0.1v0 c0,0-0.4,0.2-0.6,0.5c-0.4,0.4-0.5,1-0.5,1.6c0,0.5,0.2,0.8,0.2,0.9c0.1,0.3-0.2,0.3-0.4,0l0,0c0,0,0,0,0,0l0,0c0,0-0.1-0.1-0.1-0.1 c0,0,0,0,0,0c0,0,0,0,0-0.1c0,0,0,0,0-0.1c0,0,0,0,0,0c0,0,0-0.1,0-0.1c0,0,0,0,0,0c0,0,0-0.1,0-0.1c0,0,0,0,0,0c0,0,0-0.1,0-0.1 c0,0,0,0,0,0c0,0,0-0.1,0-0.1c0,0,0,0,0,0c0,0,0-0.1,0-0.1c0,0,0,0,0,0l0,0c0,0,0,0,0,0C6.2,25.4,6.2,24.9,6.4,24.4z M9.2,27.9 c0.8,0.1,1.2-0.3,1.3-0.8c0,0,0-0.1,0-0.2c0-0.1,0-0.2,0-0.2c-0.1-0.5-0.7-0.6-1-1c-0.3-0.4-0.3-0.8-0.1-1c0.3-0.2,0.6-0.2,0.6-0.1 c0,0-0.1,0.1-0.2,0.2c-0.1,0.1-0.2,0.2-0.1,0.4c0,0.1,0.1,0.1,0.1,0.2c0.3,0.2,1.1,0.4,1.3,1.3c0.2,1-0.5,1.8-1.4,1.8 c-0.6,0-0.9-0.4-0.9-0.4C9,27.8,9.1,27.9,9.2,27.9z"/>
</svg>