<!-- (c) Carrd Inc. All rights reserved. All logos and trademarks are property of their respective owners. -->
<svg xmlns="http://www.w3.org/2000/svg" id="icon">
<path d="M31.4,27.2c-0.6,0-1.2-0.1-1.7-0.2c-1.1,1.9-3.1,3.2-5.5,3.2c-1,0-1.9-0.2-2.8-0.6c-1.1,2.6-3.6,4.4-6.6,4.4 c-3.1,0-5.7-2-6.7-4.7c-0.5,0.1-0.9,0.1-1.4,0.1c-3.7,0-6.7-3-6.7-6.8c0-2.4,1.3-4.6,3.3-5.9c-0.4-1-0.6-2-0.6-3.1 c0-4.3,3.5-7.8,7.8-7.8c2.4,0,4.7,1.1,6.2,3.1c1.3-1.3,3.1-2.2,5.1-2.2c2.6,0,4.9,1.5,6.2,3.7c1.1-0.5,2.3-0.7,3.5-0.7 c4.8,0,8.6,3.9,8.6,8.7S36.1,27.2,31.4,27.2z M8.6,19.9c0-0.7-0.6-0.9-1.1-1.1l-0.1,0c-0.4-0.1-0.8-0.2-0.8-0.5v0 c0-0.2,0.2-0.4,0.5-0.4c0.4,0,0.7,0.1,1,0.3c0,0,0.1,0.1,0.1,0l0.2-0.5c0,0,0-0.1,0-0.1c-0.3-0.2-0.7-0.3-1.2-0.3l-0.1,0 c-0.8,0-1.3,0.5-1.3,1.1v0c0,0.7,0.6,0.9,1.1,1.1l0.1,0c0.4,0.1,0.7,0.2,0.7,0.5v0c0,0.3-0.2,0.4-0.6,0.4c-0.1,0-0.6,0-1.1-0.3 c-0.1,0-0.1-0.1-0.1-0.1c0,0-0.1,0-0.1,0l-0.2,0.5h0c0,0.1,0,0.1,0,0.1C5.9,20.7,6,20.7,6,20.8C6.4,21,6.8,21,7.2,21 C8.1,21,8.6,20.6,8.6,19.9L8.6,19.9z M12,20.7l0-2.1c0-0.5-0.1-0.8-0.4-1c-0.2-0.2-0.6-0.3-1.1-0.3c-0.2,0-0.4,0-0.6,0.1 c0,0-0.5,0.1-0.7,0.3c0,0,0,0,0,0.1l0.2,0.4c0,0.1,0.1,0,0.1,0s0,0,0,0c0.4-0.2,1-0.2,1-0.2c0.3,0,0.4,0.1,0.6,0.2 c0.1,0.1,0.2,0.2,0.2,0.6v0.1c-0.2,0-0.4,0-0.4,0c-0.1,0-0.2,0-0.4,0c-0.2,0-0.4,0-0.6,0.1c-0.2,0-0.3,0.1-0.5,0.2 c-0.1,0.1-0.3,0.2-0.3,0.4C9,19.5,9,19.7,9,19.9c0,0.2,0,0.4,0.1,0.5c0.1,0.1,0.2,0.3,0.3,0.4c0.1,0.1,0.3,0.2,0.5,0.2 c0.2,0,0.4,0.1,0.6,0.1c0.2,0,0.5,0,0.7-0.1c0.2,0,0.5-0.1,0.6-0.1C11.8,20.8,11.9,20.8,12,20.7C12,20.8,12,20.7,12,20.7z M13.5,15.9C13.5,15.9,13.5,15.8,13.5,15.9l-0.7-0.1c0,0-0.1,0-0.1,0.1v5c0,0,0,0.1,0.1,0.1h0.6c0,0,0.1,0,0.1-0.1V15.9z M17.3,18.3 c-0.1-0.2-0.2-0.4-0.3-0.5c-0.1-0.2-0.3-0.3-0.4-0.3c-0.2-0.1-0.4-0.1-0.7-0.1c-0.3,0-0.6,0-0.8,0.1c-0.2,0.1-0.4,0.2-0.5,0.4 c-0.1,0.2-0.3,0.4-0.3,0.6c-0.1,0.2-0.1,0.5-0.1,0.7c0,0.3,0,0.5,0.1,0.7c0.1,0.2,0.2,0.4,0.3,0.6c0.2,0.2,0.4,0.3,0.6,0.4 C15.4,21,15.7,21,16,21c0.7,0,1-0.2,1.2-0.2c0,0,0,0,0-0.1L17,20.2c0-0.1-0.1,0-0.1,0c-0.2,0.1-0.4,0.2-1,0.2 c-0.4,0-0.6-0.1-0.8-0.3c-0.2-0.2-0.3-0.4-0.3-0.8l2.3,0c0,0,0.1,0,0.1-0.1C17.3,19.2,17.4,18.8,17.3,18.3z M20.6,19.9 c0-0.7-0.6-0.9-1.1-1.1l-0.1,0c-0.4-0.1-0.8-0.2-0.8-0.5v0c0-0.2,0.2-0.4,0.5-0.4c0.4,0,0.7,0.1,1,0.3c0,0,0.1,0.1,0.1,0 c0,0,0.2-0.4,0.2-0.5c0,0,0-0.1,0-0.1c-0.3-0.2-0.7-0.3-1.2-0.3l-0.1,0c-0.8,0-1.3,0.5-1.3,1.1v0c0,0.7,0.6,0.9,1.1,1.1l0.1,0 c0.4,0.1,0.7,0.2,0.7,0.5v0c0,0.3-0.2,0.4-0.6,0.4c-0.1,0-0.6,0-1.1-0.3c-0.1,0-0.1-0.1-0.1-0.1c0,0-0.1,0-0.1,0l-0.2,0.5 c0,0.1,0,0.1,0,0.1c0.1,0.1,0.2,0.1,0.2,0.1c0.4,0.2,0.8,0.3,1.2,0.3C20.1,21,20.6,20.6,20.6,19.9L20.6,19.9z M23.8,15.8 c-0.1,0-0.1,0-0.2-0.1c-0.1,0-0.2,0-0.3,0c-0.4,0-0.7,0.1-1,0.4c-0.2,0.2-0.4,0.6-0.5,1.1l0,0.2h-0.5c0,0-0.1,0-0.1,0.1l-0.1,0.5 c0,0,0,0.1,0.1,0.1h0.5l-0.5,2.9c0,0.2-0.1,0.4-0.1,0.6c-0.1,0.1-0.1,0.3-0.2,0.3c-0.1,0.1-0.1,0.1-0.2,0.2c-0.1,0-0.2,0-0.3,0 c-0.1,0-0.1,0-0.2,0c-0.1,0-0.1,0-0.1,0c0,0-0.1,0-0.1,0c0,0-0.2,0.4-0.2,0.5c0,0,0,0.1,0,0.1c0.1,0,0.1,0,0.2,0.1 c0.1,0,0.2,0,0.3,0c0.2,0,0.4,0,0.6-0.1c0.2-0.1,0.3-0.2,0.4-0.3c0.1-0.1,0.2-0.3,0.3-0.5c0.1-0.3,0.2-0.5,0.2-0.8l0.5-3h0.8 c0,0,0.1,0,0.1-0.1l0.1-0.5c0,0,0-0.1-0.1-0.1h-0.7c0,0,0-0.3,0.1-0.5c0-0.1,0.1-0.2,0.2-0.2c0.1-0.1,0.1-0.1,0.2-0.1 c0.1,0,0.2,0,0.2,0c0.1,0,0.2,0,0.3,0c0.1,0,0.1,0,0.1,0L23.8,15.8C23.9,15.9,23.9,15.8,23.8,15.8z M26.7,18.4 c-0.1-0.2-0.2-0.4-0.3-0.6c-0.1-0.2-0.3-0.3-0.5-0.4c-0.2-0.1-0.5-0.1-0.7-0.1c-0.3,0-0.5,0-0.7,0.1c-0.2,0.1-0.4,0.2-0.5,0.4 c-0.1,0.2-0.2,0.4-0.3,0.6c-0.1,0.2-0.1,0.5-0.1,0.7c0,0.3,0,0.5,0.1,0.7c0.1,0.2,0.2,0.4,0.3,0.6c0.1,0.2,0.3,0.3,0.5,0.4 c0.2,0.1,0.5,0.1,0.7,0.1c0.3,0,0.5,0,0.7-0.1c0.2-0.1,0.4-0.2,0.5-0.4c0.1-0.2,0.2-0.4,0.3-0.6c0.1-0.2,0.1-0.5,0.1-0.7 C26.8,18.9,26.8,18.6,26.7,18.4z M29.5,17.4c0,0-0.2-0.1-0.4-0.1c-0.3,0-0.5,0-0.6,0.1c-0.1,0.1-0.3,0.2-0.4,0.3v-0.3 c0,0,0-0.1-0.1-0.1h-0.6c0,0-0.1,0-0.1,0.1v3.5c0,0,0,0.1,0.1,0.1h0.6c0,0,0,0,0,0c0,0,0.1,0,0.1-0.1v-1.7c0-0.2,0-0.5,0.1-0.6 c0-0.1,0.1-0.3,0.2-0.3c0.1-0.1,0.2-0.1,0.3-0.2c0.1,0,0.2,0,0.3,0c0.1,0,0.3,0,0.3,0c0,0,0.1,0,0.1-0.1 C29.4,17.8,29.5,17.5,29.5,17.4C29.6,17.4,29.6,17.4,29.5,17.4C29.6,17.4,29.6,17.4,29.5,17.4z M32.5,20.8l-0.2-0.5 c0-0.1-0.1,0-0.1,0c-0.1,0-0.2,0.1-0.3,0.1c-0.1,0-0.2,0-0.4,0c-0.3,0-0.6-0.1-0.8-0.3c-0.2-0.2-0.3-0.5-0.3-0.9 c0-0.4,0.1-0.7,0.3-0.9c0.2-0.2,0.4-0.3,0.8-0.3c0.3,0,0.5,0,0.7,0.1c0,0,0.1,0,0.1,0c0.1-0.2,0.1-0.3,0.2-0.5c0-0.1,0-0.1,0-0.1 c-0.1,0-0.3-0.1-0.5-0.1c-0.1,0-0.3,0-0.5,0c-0.3,0-0.5,0-0.8,0.1c-0.2,0.1-0.4,0.2-0.6,0.4c-0.1,0.2-0.3,0.4-0.3,0.6 c-0.1,0.2-0.1,0.5-0.1,0.7c0,0.6,0.2,1,0.5,1.4c0.3,0.3,0.8,0.5,1.4,0.5C31.8,21,32.2,20.9,32.5,20.8C32.5,20.8,32.5,20.8,32.5,20.8 z M35.8,18.3c-0.1-0.2-0.2-0.4-0.3-0.5c-0.1-0.2-0.3-0.3-0.4-0.3c-0.2-0.1-0.4-0.1-0.7-0.1c-0.3,0-0.6,0-0.8,0.1 c-0.2,0.1-0.4,0.2-0.5,0.4c-0.1,0.2-0.2,0.4-0.3,0.6c-0.1,0.2-0.1,0.5-0.1,0.7c0,0.3,0,0.5,0.1,0.7c0.1,0.2,0.2,0.4,0.3,0.6 c0.2,0.2,0.4,0.3,0.6,0.4C34,21,34.2,21,34.6,21c0.7,0,1-0.2,1.2-0.2c0,0,0.1,0,0-0.1l-0.2-0.4c0-0.1-0.1,0-0.1,0 c-0.2,0.1-0.4,0.2-1,0.2c-0.4,0-0.6-0.1-0.8-0.3c-0.2-0.2-0.3-0.4-0.3-0.8l2.3,0c0,0,0.1,0,0.1-0.1C35.9,19.2,36,18.8,35.8,18.3z M33.5,18.8c0-0.2,0.1-0.4,0.2-0.5c0.1-0.2,0.4-0.3,0.7-0.3c0.3,0,0.5,0.1,0.6,0.3c0.1,0.1,0.1,0.3,0.2,0.5H33.5L33.5,18.8z M25.1,20.4c-0.3,0-0.5-0.1-0.7-0.3c-0.1-0.2-0.2-0.5-0.2-0.9c0-0.4,0.1-0.7,0.2-0.9c0.1-0.2,0.4-0.3,0.7-0.3c0.3,0,0.5,0.1,0.7,0.3 c0.1,0.2,0.2,0.5,0.2,0.9c0,0.4-0.1,0.7-0.2,0.9C25.6,20.3,25.4,20.4,25.1,20.4z M14.9,18.8c0-0.2,0.1-0.4,0.2-0.5 c0.1-0.2,0.4-0.3,0.7-0.3c0.3,0,0.5,0.1,0.6,0.3c0.1,0.1,0.1,0.3,0.2,0.5H14.9L14.9,18.8z M9.9,20.3c-0.1-0.1-0.1-0.1-0.1-0.1 c0-0.1-0.1-0.2-0.1-0.3c0-0.2,0.1-0.4,0.2-0.5c0,0,0.2-0.2,0.7-0.2c0.3,0,0.6,0.1,0.6,0.1v1.1c0,0-0.3,0.1-0.6,0.1 C10.1,20.4,9.9,20.3,9.9,20.3z"/>
</svg>