<!-- (c) Font Awesome (fontawesome.io, SIL OFL) -->
<svg xmlns="http://www.w3.org/2000/svg" id="icon">
<path d="M35.2,9.6L24.8,20l10.4,10.4c0.2,0.2,0.4,0.5,0.4,0.9c0,0.3-0.1,0.6-0.4,0.9l-3.3,3.3c-0.2,0.2-0.5,0.4-0.9,0.4 s-0.6-0.1-0.9-0.4L15.6,20.9c-0.2-0.2-0.4-0.5-0.4-0.9c0-0.3,0.1-0.6,0.4-0.9L30.2,4.5c0.2-0.2,0.5-0.4,0.9-0.4s0.6,0.1,0.9,0.4 l3.3,3.3c0.2,0.2,0.4,0.5,0.4,0.9S35.4,9.3,35.2,9.6z M7.8,35.9h3.9c0.8,0,1.5-0.7,1.5-1.5V5.6c0-0.8-0.7-1.5-1.5-1.5H7.8 C7,4.1,6.3,4.8,6.3,5.6v28.8C6.3,35.2,7,35.9,7.8,35.9z"/>
</svg>