<!-- (c) Carrd Inc. All rights reserved. All logos and trademarks are property of their respective owners. -->
<svg xmlns="http://www.w3.org/2000/svg" id="icon">
<path d="M34.6,19.8v4c-1.4,0.3-2.7,0.5-4,0.5c-0.9,1.8-2,3.6-3.3,5.4c-1.3,1.8-2.6,3.3-3.6,4.3c-1.1,1.1-1.9,1.8-2.6,2.1 c-1.1,0.6-2.2,0.6-3.3-0.1c-0.4-0.2-0.8-0.5-1.2-0.9c-0.4-0.4-1-0.9-1.7-1.7c-0.7-0.8-1.4-1.6-2.1-2.6c-0.7-1-1.4-2.2-2.2-3.7 s-1.5-3.1-2.1-4.9C8,20.6,7.4,18.5,6.8,16s-1.1-5.1-1.4-7.8H11c0.3,2.9,0.8,5.6,1.4,8c0.6,2.4,1.3,4.5,2.1,6.4 c0.8,1.8,1.6,3.4,2.4,4.7c0.8,1.3,1.8,2.6,2.8,3.9c2.3-2.3,4.2-5,5.8-8.2c-1.9-1-3.4-2.4-4.5-4.4c-1.1-2-1.6-4.2-1.6-6.7 c0-2.6,0.7-4.7,2.1-6.3s3.3-2.5,5.7-2.5c2.4,0,4.2,0.7,5.5,2.1c1.3,1.4,1.9,3.4,1.9,6c0,2.1-0.4,4-1.2,5.7c-0.1,0-0.2,0-0.4,0.1 c-0.2,0-0.5,0-0.9,0c-0.4,0-0.9,0-1.3-0.1c-0.4-0.1-0.8-0.3-1.2-0.5c-0.4-0.3-0.8-0.6-1-1c0.4-1.4,0.6-2.6,0.6-3.7 c0-1.2-0.2-2-0.6-2.7c-0.4-0.6-0.9-0.9-1.6-0.9c-0.7,0-1.3,0.3-1.7,1c-0.4,0.7-0.6,1.6-0.6,2.8c0,2.5,0.7,4.5,2.1,5.9 c1.4,1.4,3.2,2.2,5.4,2.2C33,20,33.9,20,34.6,19.8L34.6,19.8z"/>
</svg>