<!-- (c) Carrd Inc. All rights reserved. All logos and trademarks are property of their respective owners. -->
<svg xmlns="http://www.w3.org/2000/svg" id="icon">
<path d="M11.7,21.6c0,0.4-0.2,0.8-0.5,1.1c-0.3,0.3-0.7,0.5-1.1,0.5c-0.4,0-0.8-0.2-1.1-0.5S8.5,22,8.5,21.6c0-0.4,0.2-0.8,0.5-1.1 c0.3-0.3,0.7-0.5,1.1-0.5c0.4,0,0.8,0.2,1.1,0.5C11.5,20.8,11.7,21.2,11.7,21.6z M31.3,21.6c0,0.4-0.2,0.8-0.5,1.1 c-0.3,0.3-0.7,0.5-1.1,0.5c-0.4,0-0.8-0.2-1.1-0.5c-0.3-0.3-0.5-0.7-0.5-1.1c0-0.4,0.2-0.8,0.5-1.1s0.7-0.5,1.1-0.5 c0.4,0,0.8,0.2,1.1,0.5C31.1,20.8,31.3,21.1,31.3,21.6z M13.6,21.6c0-0.9-0.3-1.7-1-2.3c-0.6-0.6-1.4-1-2.3-1c-0.9,0-1.7,0.3-2.3,1 s-1,1.4-1,2.3c0,0.9,0.3,1.7,1,2.3s1.4,1,2.3,1c0.9,0,1.7-0.3,2.3-1C13.3,23.3,13.6,22.5,13.6,21.6z M33.2,21.6c0-0.9-0.3-1.7-1-2.3 c-0.6-0.6-1.4-1-2.3-1c-0.9,0-1.7,0.3-2.3,1c-0.6,0.6-1,1.4-1,2.3c0,0.9,0.3,1.7,1,2.3c0.6,0.6,1.4,1,2.3,1c0.9,0,1.7-0.3,2.3-1 C32.9,23.3,33.2,22.5,33.2,21.6z M15.1,21.6c0,1.3-0.5,2.4-1.4,3.4c-0.9,0.9-2,1.4-3.3,1.4c-1.3,0-2.4-0.5-3.4-1.4 c-0.9-0.9-1.4-2-1.4-3.4c0-1.3,0.5-2.4,1.4-3.3s2-1.4,3.4-1.4c1.3,0,2.4,0.5,3.3,1.4C14.6,19.2,15.1,20.3,15.1,21.6z M34.7,21.6 c0,1.3-0.5,2.4-1.4,3.3c-0.9,0.9-2,1.4-3.4,1.4c-1.3,0-2.4-0.5-3.3-1.4c-0.9-0.9-1.4-2-1.4-3.3s0.5-2.4,1.4-3.3 c0.9-0.9,2-1.4,3.3-1.4c1.3,0,2.4,0.5,3.4,1.4C34.2,19.2,34.7,20.3,34.7,21.6z M18.3,21.6c0-2.2-0.8-4-2.3-5.6 c-1.5-1.5-3.4-2.3-5.6-2.3c-1.4,0-2.7,0.4-3.9,1.1c-1.2,0.7-2.2,1.7-2.9,2.9s-1.1,2.5-1.1,3.9c0,1.4,0.4,2.7,1.1,3.9 s1.7,2.2,2.9,2.9c1.2,0.7,2.5,1.1,3.9,1.1c2.2,0,4-0.8,5.6-2.3C17.5,25.6,18.3,23.8,18.3,21.6z M29.6,11.9c-2.9-1.3-6-1.9-9.5-1.9 c-3.6,0-6.9,0.6-9.7,1.9c1.3,0,2.6,0.3,3.8,0.8s2.2,1.2,3.1,2.1c0.9,0.9,1.6,1.9,2.1,3.1s0.8,2.5,0.8,3.8c0-1.3,0.2-2.5,0.7-3.7 c0.5-1.2,1.2-2.2,2-3.1c0.8-0.9,1.9-1.6,3-2.1S28.4,11.9,29.6,11.9L29.6,11.9z M37.8,21.6c0-2.2-0.8-4-2.3-5.6 c-1.5-1.5-3.4-2.3-5.5-2.3c-2.2,0-4,0.8-5.6,2.3s-2.3,3.4-2.3,5.6c0,2.2,0.8,4,2.3,5.6c1.5,1.5,3.4,2.3,5.6,2.3c2.2,0,4-0.8,5.5-2.3 C37,25.6,37.8,23.8,37.8,21.6z M33.3,12h6.5c-0.5,0.6-0.9,1.2-1.3,1.9c-0.4,0.7-0.6,1.4-0.7,1.9c1.2,1.7,1.9,3.6,1.9,5.7 c0,1.8-0.4,3.4-1.3,4.9c-0.9,1.5-2.1,2.7-3.6,3.5c-1.5,0.9-3.1,1.3-4.9,1.3c-1.5,0-2.9-0.3-4.2-1c-1.3-0.6-2.4-1.5-3.3-2.6 c-0.5,0.6-1.3,1.6-2.2,3c-0.1-0.2-0.4-0.7-0.9-1.4c-0.5-0.7-0.9-1.2-1.3-1.7c-0.9,1.1-2,2-3.3,2.6c-1.3,0.6-2.7,1-4.2,1 c-1.8,0-3.4-0.4-4.9-1.3C4,29.2,2.9,28,2,26.5c-0.9-1.5-1.3-3.1-1.3-4.9c0-2.1,0.6-4,1.9-5.7c-0.1-0.6-0.3-1.2-0.7-1.9 c-0.4-0.7-0.8-1.4-1.3-1.9h6.2c1.7-1.1,3.7-2,6-2.7s4.8-1,7.3-1c2.5,0,4.9,0.3,7.2,1C29.6,10,31.6,10.9,33.3,12L33.3,12z"/>
</svg>