<!-- (c) Carrd Inc. All rights reserved. -->
<svg xmlns="http://www.w3.org/2000/svg" id="icon">
<path d="M32.4,34.7c-0.3,0.3-0.7,0.5-1.1,0.5H9.1c-0.4,0-0.8-0.2-1.1-0.5c-0.3-0.3-0.5-0.7-0.5-1.1V6.4 C7.5,6,7.7,5.6,8,5.3C8.3,5,8.7,4.8,9.1,4.8h13.3l-0.1,9.3c0,0.4,0.2,0.8,0.5,1.1c0.3,0.3,0.7,0.5,1.1,0.5h9v17.9 C32.9,34,32.7,34.4,32.4,34.7z M16,23c-0.2-0.3-0.4-0.5-0.6-0.7c-0.3-0.2-0.6-0.3-0.9-0.4c-0.3-0.1-0.7-0.1-1.1-0.1h-2.6v7.1h1.9 v-2.2h0.8c0.4,0,0.7,0,1.1-0.1c0.3-0.1,0.6-0.2,0.9-0.4c0.3-0.2,0.5-0.5,0.6-0.8c0.2-0.3,0.2-0.7,0.2-1.1C16.2,23.7,16.1,23.3,16,23 z M23.4,23.7c-0.2-0.4-0.4-0.8-0.7-1.1c-0.3-0.3-0.7-0.5-1.2-0.6c-0.4-0.1-0.9-0.2-1.5-0.2h-2.1v7.1h2.2c0.5,0,1-0.1,1.4-0.2 c0.4-0.1,0.8-0.4,1.1-0.6c0.3-0.3,0.6-0.7,0.7-1.1c0.2-0.5,0.3-1,0.3-1.6C23.6,24.7,23.6,24.1,23.4,23.7z M30.1,21.8h-4.6v7.1h1.9 v-2.6h2.4v-1.6h-2.4v-1.4h2.7V21.8z M21.2,27c-0.2,0.2-0.4,0.3-0.6,0.3c-0.2,0.1-0.5,0.1-0.7,0.1h-0.1v-4.1h0.1c0.3,0,0.5,0,0.7,0.1 c0.2,0.1,0.4,0.2,0.6,0.3c0.2,0.1,0.3,0.3,0.4,0.6c0.1,0.3,0.1,0.6,0.1,1c0,0.4,0,0.8-0.1,1C21.5,26.6,21.4,26.8,21.2,27z M14.1,24.9c-0.2,0.2-0.5,0.3-0.8,0.3h-0.7v-1.9h0.6c0.4,0,0.6,0.1,0.8,0.2c0.2,0.1,0.3,0.4,0.3,0.7C14.4,24.5,14.3,24.7,14.1,24.9z M24.5,5.5c0.2,0.2,0.4,0.3,0.6,0.5l6.8,6.9c0.2,0.2,0.3,0.4,0.5,0.6l-7.9-0.1V5.5z"/>
</svg>