<!-- (c) Carrd Inc. All rights reserved. All logos and trademarks are property of their respective owners. -->
<svg xmlns="http://www.w3.org/2000/svg" id="icon">
<path d="M0.5,18.8c0-0.3,0-0.6,0-0.9c0.1-0.1,0.2-0.2,0.3-0.4c1.4-2.2,2.8-4.4,4.2-6.6C6.3,8.7,7.7,6.4,9,4.2 C9.3,3.9,9.5,3.6,10,3.4c0,0,0.1-0.1,0.1-0.1c0.2,0,0.5,0,0.7,0c0,0,0.1,0.1,0.1,0.1c0.5,0.1,0.7,0.5,1,0.9c0.3,0.5,0.5,0.9,0.8,1.3 c1.4,2.3,2.9,4.6,4.3,6.9c0.1,0.2,0.3,0.3,0.5,0.3c3.3,0,6.6,0,9.9-0.1c0.6,0,0.9,0.3,0.9,0.9c0,2.2,0,4.5,0,6.7 c0,0.5,0,0.5,0.5,0.5c1.1,0,2.2,0.2,3.2,0.6c1.7,0.7,3,1.8,4,3.4c0.7,1.1,1.2,2.3,1.3,3.6c0,0.2,0.1,0.4,0.2,0.5c0,0.4,0,0.9,0,1.3 c0,0.1-0.1,0.1-0.1,0.2c-0.2,0.7-0.3,1.4-0.5,2c-0.3,1.1-1,2.1-1.8,3c-1.6,1.7-3.6,2.7-6,2.9c-0.1,0-0.1,0.1-0.2,0.1 c-0.3,0-0.6,0-0.9,0c-0.1,0-0.2-0.1-0.3-0.1c-0.8-0.1-1.6-0.2-2.4-0.5c-1.1-0.4-2-1-2.9-1.8c-1.2-1.1-2-2.4-2.4-3.9 c-0.2-0.9-0.3-1.8-0.4-2.7c0-0.2-0.1-0.4-0.4-0.4c-2.4,0-4.8,0-7.2,0.1c-0.6,0-0.9-0.3-0.9-0.9c0-2.7,0-5.4,0.1-8 c0-0.5,0-0.5-0.5-0.5c-2.9,0-5.7,0-8.6,0c-0.7,0-1.3-0.3-1.6-1C0.6,18.9,0.5,18.8,0.5,18.8z M28.2,26.2 C28.3,26.2,28.3,26.2,28.2,26.2c0,0.7,0,1.5,0,2.2c0,0.6-0.3,0.9-0.9,0.9c-1.5,0-3,0-4.5-0.1c-0.3,0-0.5,0.1-0.4,0.4 c0.1,1.2,0.3,2.3,1,3.3c1.6,2.5,4.7,3.6,7.5,2.5c2-0.8,3.3-2.3,3.7-4.4c0.4-1.8,0.1-3.4-1-4.9c-1.2-1.7-2.9-2.5-4.9-2.6 c-0.4,0-0.5,0-0.5,0.4C28.2,24.7,28.2,25.4,28.2,26.2z M18.9,15.5c0.1,0.2,0.1,0.3,0.2,0.4c0.2,0.3,0.4,0.6,0.6,0.9 c0.2,0.4,0.6,0.8,0.7,1.2c0.3,1.1-0.5,2-1.5,2c-1.5,0-2.9,0-4.4,0c-0.4,0-0.4,0-0.4,0.4c0,2,0,3.9,0,5.9c0,0.4,0,0.4,0.4,0.4 c1.9,0,3.7,0,5.6,0c0.3,0,0.4-0.1,0.5-0.3c0.4-1.1,1.1-2,1.9-2.9c0.8-0.8,1.8-1.5,2.9-1.9c0.2-0.1,0.3-0.2,0.3-0.4 c0-1.8,0-3.5,0-5.3c0-0.3-0.1-0.4-0.4-0.4c-1.5,0-3,0-4.5,0C20.1,15.5,19.6,15.5,18.9,15.5z M7.7,17.2C7.7,17.2,7.7,17.2,7.7,17.2 c1.1,0,2.1,0,3.2,0c0.4,0,0.5,0,0.5-0.5c0-1,0-2,0-3c0-0.6,0.3-0.9,0.9-0.9c0.5,0,1,0,1.4,0c0.1,0,0.2,0,0.3-0.1 c0-0.1,0-0.2-0.1-0.3c-1.1-1.7-2.2-3.5-3.2-5.2c-0.1-0.2-0.3-0.2-0.4,0c-0.2,0.3-0.3,0.5-0.5,0.8c-1,1.6-2,3.2-3,4.8 c-0.8,1.3-1.7,2.7-2.5,4c-0.2,0.3-0.1,0.3,0.2,0.3C5.6,17.2,6.6,17.2,7.7,17.2z M15.3,17.3c0.4,0,0.7,0,1.1,0c0.3,0,0.4-0.1,0.2-0.4 c-0.2-0.4-0.5-0.8-0.8-1.2c-0.1-0.1-0.3-0.2-0.5-0.3c-0.4,0-0.7,0-1.1,0c-0.2,0-0.4,0.1-0.4,0.3c0,0.4,0,0.8,0,1.1 c0,0.2,0.1,0.3,0.3,0.3C14.7,17.3,15,17.3,15.3,17.3z M24.5,26.6C24.5,26.6,24.5,26.6,24.5,26.6c0.3,0,0.6,0,0.9,0 c0.1,0,0.3-0.2,0.3-0.3c0-0.6,0-1.2,0-1.8c0-0.2-0.1-0.3-0.3-0.1c-0.8,0.5-1.4,1.1-2,1.9c-0.1,0.2-0.1,0.3,0.2,0.3 C23.9,26.6,24.2,26.6,24.5,26.6z"/>
</svg>