<!-- (c) Carrd Inc. All rights reserved. All logos and trademarks are property of their respective owners. -->
<svg xmlns="http://www.w3.org/2000/svg" id="icon">
<path d="M18.29,37.46c-0.6-0.06-2.17-0.33-2.75-0.48c-5.03-1.28-9.3-4.72-11.55-9.32C2.75,25.14,2.24,22.88,2.24,20 c0-2.88,0.53-5.19,1.74-7.66c0.91-1.85,1.96-3.3,3.45-4.77c2.78-2.75,6.31-4.45,10.3-4.97c1.31-0.17,4.07-0.12,5.29,0.11 c2.54,0.46,4.81,1.36,6.85,2.72c4.24,2.82,6.99,7.13,7.71,12.08c0.15,1.06,0.24,3.27,0.14,3.45c-0.06,0.1-0.09,0-0.12-0.44 c-0.18-2.16-1.12-4.77-2.41-6.73c-3.93-5.94-11.25-8.46-18.04-6.21C11.91,9.33,7.97,13.75,6.89,19.1c-0.53,2.65-0.37,5.24,0.48,7.8 c1.51,4.51,5.12,8.12,9.7,9.69c1.08,0.37,2.47,0.68,3.38,0.75c1.1,0.09,0.82,0.17-0.53,0.16C19.19,37.49,18.45,37.48,18.29,37.46 L18.29,37.46z M22.05,35.28c-5.66-0.41-10.35-4.63-11.33-10.18c-0.18-1.01-0.21-2.9-0.07-3.83c0.85-5.52,5.11-9.71,10.66-10.49 c1.13-0.16,3.13-0.1,4.21,0.12c0.94,0.19,1.98,0.53,2.79,0.91l0.63,0.29l-0.6,0.28c-2.15,1.01-3.48,3.38-3.17,5.66 c0.31,2.27,1.89,4.06,4.15,4.7c0.81,0.23,2.06,0.23,2.87,0c1.05-0.3,1.88-0.79,2.63-1.56c0.25-0.26,0.48-0.45,0.5-0.41 c0.02,0.03,0.08,0.39,0.13,0.8c0.13,1,0.05,2.9-0.15,3.85c-0.64,3.02-2.26,5.56-4.73,7.44C28.24,34.62,25.14,35.5,22.05,35.28 L22.05,35.28z"/>
</svg>