<!-- (c) Carrd Inc. All rights reserved. All logos and trademarks are property of their respective owners. -->
<svg xmlns="http://www.w3.org/2000/svg" id="icon">
<path d="M31.8,35.7H8.5c-2.1,0-3.9-1.7-3.9-3.9V8.5c0-2.1,1.7-3.9,3.9-3.9h23.3c2.1,0,3.9,1.7,3.9,3.9v23.3 C35.7,34,34,35.7,31.8,35.7z M18.1,10.5c0-1-0.8-1.9-1.9-1.9h-5.7c-1,0-1.9,0.8-1.9,1.9v17.6c0,1,0.8,1.9,1.9,1.9h5.7 c1,0,1.9-0.8,1.9-1.9V10.5z M31.7,10.5c0-1-0.8-1.9-1.9-1.9H24c-1,0-1.9,0.8-1.9,1.9v9.9c0,1,0.8,1.9,1.9,1.9h5.7 c1,0,1.9-0.8,1.9-1.9V10.5z" />
</svg>