<!-- (c) Carrd Inc. All rights reserved. All logos and trademarks are property of their respective owners. -->
<svg xmlns="http://www.w3.org/2000/svg" id="icon">
<path d="M8.4,30.6c2.9,3.1,7,5,11.6,5c2.3,0,4.6-0.6,6.6-1.4L15.7,23.3L8.4,30.6z M15.7,16.8L7.4,25l-1.1-1.1l8.7-8.7l0,0L25.1,5.1 c-1.6-0.6-3.2-0.8-5-0.8c-8.8,0-15.8,7-15.8,15.7c0,3.6,1.1,6.8,3.1,9.5l8.2-8.2l0.6,0.6L28,33.6c0.2-0.1,0.4-0.2,0.7-0.4l-13-13 L7.7,28l-1.1-1.1l9-9l0.6,0.6l13.7,13.7c0.2-0.1,0.4-0.3,0.6-0.6L15.8,16.8H15.7z M31.7,30.5c2.5-2.8,4-6.5,4-10.5 c0-6.4-3.7-11.7-9-14.3l-9.9,9.8L31.7,30.5z M20.6,18.4l-1.1-1.1l7.8-7.8l1.1,1.1L20.6,18.4z M27.9,7.9L19,16.8l-1.1-1.1l8.9-8.9 L27.9,7.9z M20,39.5C9.3,39.5,0.5,30.7,0.5,20S9.3,0.5,20,0.5S39.5,9.3,39.5,20S30.7,39.5,20,39.5z M20,2.5 C10.3,2.5,2.5,10.3,2.5,20S10.3,37.5,20,37.5S37.5,29.7,37.5,20S29.7,2.5,20,2.5z"/>
</svg>