<!-- (c) Carrd Inc. All rights reserved. All logos and trademarks are property of their respective owners. -->
<svg xmlns="http://www.w3.org/2000/svg" id="icon">
<path d="M17.9,10.2c-0.1,0-0.3,0.1-0.3,0.2c-0.1,0.1-0.1,0.2-0.2,0.2c-0.1,0-0.1,0-0.1-0.1c0-0.2,0.1-0.3,0.4-0.3L17.9,10.2 L17.9,10.2z M19.6,10.5c-0.1,0-0.1,0-0.2-0.1c-0.1-0.1-0.2-0.1-0.4-0.1c0.3-0.1,0.5-0.1,0.6,0C19.7,10.4,19.7,10.5,19.6,10.5 L19.6,10.5z M12.6,19.1c-0.1,0-0.1,0-0.1,0.1c0,0.1-0.1,0.1-0.1,0.3c0,0.1-0.1,0.2-0.1,0.3c0,0.1-0.1,0.2-0.2,0.3 c-0.1,0.1-0.1,0.2,0,0.2c0.1,0,0.1,0,0.3-0.1c0.1-0.1,0.2-0.2,0.3-0.4c0,0,0-0.1,0-0.1c0-0.1,0-0.1,0-0.1c0,0,0-0.1,0-0.1 c0,0,0-0.1,0-0.1L12.6,19.1C12.7,19.2,12.7,19.2,12.6,19.1C12.6,19.1,12.6,19.1,12.6,19.1z M29.8,26.3c0-0.2-0.4-0.5-1.1-0.8 c0.1-0.2,0.1-0.4,0.2-0.6c0-0.2,0.1-0.3,0.1-0.5c0-0.2,0-0.3,0.1-0.4c0-0.1,0-0.3,0-0.5c0-0.2,0-0.3,0-0.4c0-0.1,0-0.2-0.1-0.4 c0-0.2-0.1-0.4-0.1-0.4c0,0,0-0.2-0.1-0.5s-0.1-0.5-0.1-0.5c-0.1-0.6-0.4-1.3-0.9-2.1c-0.5-0.7-1-1.2-1.4-1.5 c0.3,0.3,0.7,0.8,1.1,1.7c1.2,2.2,1.5,4,1.1,5.6c-0.1,0.5-0.5,0.8-1,0.8c-0.4,0.1-0.7-0.1-0.8-0.4c-0.1-0.3-0.2-0.9-0.2-1.7 c0-0.8-0.1-1.5-0.2-2.1c-0.1-0.5-0.3-1-0.4-1.4c-0.1-0.4-0.3-0.7-0.4-0.9c-0.1-0.2-0.2-0.4-0.3-0.5c-0.1-0.1-0.2-0.2-0.3-0.3 c-0.1-0.1-0.1-0.1-0.2-0.1c-0.2-0.8-0.4-1.5-0.6-2.1c-0.2-0.5-0.4-0.9-0.6-1.1c-0.2-0.2-0.3-0.4-0.5-0.7c-0.1-0.2-0.2-0.5-0.3-0.8 c-0.1-0.3,0-0.6,0.1-1.1c0.1-0.4,0.2-0.8,0.1-1c-0.1-0.2-0.4-0.4-0.9-0.5c-0.2,0-0.5-0.2-0.9-0.4s-0.6-0.3-0.7-0.3 c-0.1,0-0.2-0.2-0.2-0.5c0-0.3,0-0.7,0.2-1c0.1-0.3,0.4-0.5,0.7-0.5c0.5,0,0.8,0.2,1,0.6c0.2,0.4,0.2,0.8,0.1,1.2 c-0.1,0.3-0.2,0.4,0,0.5c0.1,0.1,0.3,0.1,0.6,0c0.2-0.1,0.3-0.3,0.3-0.7V9.2c-0.1-0.4-0.2-0.7-0.3-1c-0.1-0.3-0.3-0.5-0.4-0.6 c-0.2-0.1-0.3-0.2-0.5-0.3c-0.1-0.1-0.3-0.1-0.5-0.2c-1.4,0.1-2,1-1.8,2.7c0,0.2,0,0.3,0,0.3C19.4,10,19.2,9.9,19,9.9 c-0.3,0-0.5,0-0.7,0c-0.2,0-0.3,0-0.3-0.1C18,9,17.9,8.4,17.7,8c-0.2-0.4-0.5-0.7-0.9-0.7c-0.4,0-0.6,0.2-0.8,0.6 c-0.2,0.4-0.3,0.8-0.3,1.2c0,0.2,0,0.4,0.1,0.7c0.1,0.3,0.1,0.5,0.3,0.8c0.1,0.2,0.2,0.3,0.3,0.3c0.1,0,0.2-0.1,0.3-0.3 c0.1-0.1,0-0.2-0.1-0.2c-0.1,0-0.2-0.1-0.3-0.3c-0.1-0.2-0.2-0.4-0.2-0.7c0-0.3,0-0.5,0.2-0.7s0.4-0.3,0.7-0.3 c0.2,0,0.4,0.1,0.5,0.4s0.2,0.5,0.2,0.8c0,0.2,0,0.4,0,0.4c-0.3,0.2-0.5,0.4-0.6,0.6c-0.1,0.2-0.3,0.3-0.6,0.5s-0.4,0.2-0.4,0.3 c-0.2,0.2-0.3,0.4-0.3,0.5c0,0.2,0,0.3,0.2,0.4c0.2,0.1,0.4,0.2,0.5,0.4c0.1,0.2,0.3,0.3,0.3,0.4c0.1,0.1,0.2,0.2,0.4,0.3 c0.2,0.1,0.4,0.1,0.7,0.1c0.6,0,1.3-0.1,2-0.3c0,0,0.2-0.1,0.5-0.1c0.3-0.1,0.5-0.2,0.7-0.2c0.2-0.1,0.4-0.1,0.6-0.3 c0.2-0.1,0.4-0.2,0.4-0.4c0.1-0.2,0.3-0.2,0.4-0.2c0.1,0,0.1,0.1,0.1,0.2c0,0.1,0,0.2-0.1,0.2s-0.2,0.2-0.3,0.2 c-0.3,0.1-0.6,0.2-1.1,0.4c-0.5,0.2-0.8,0.3-0.9,0.4c-0.6,0.3-1.1,0.4-1.4,0.5c-0.3,0.1-0.9,0.1-1.6,0c-0.1,0-0.2,0-0.2,0 c0,0.1,0.1,0.2,0.3,0.4c0.3,0.3,0.8,0.5,1.3,0.4c0.2,0,0.5-0.1,0.7-0.1c0.3-0.1,0.5-0.2,0.7-0.3s0.5-0.2,0.7-0.4 c0.2-0.1,0.4-0.2,0.6-0.3c0.2-0.1,0.3-0.2,0.5-0.2c0.1-0.1,0.3-0.1,0.4-0.1c0.1,0,0.1,0.1,0.2,0.2c0,0,0,0.1,0,0.1 c0,0,0,0.1-0.1,0.1c0,0-0.1,0.1-0.1,0.1c0,0-0.1,0.1-0.2,0.1c-0.1,0-0.1,0.1-0.2,0.1c0,0-0.1,0.1-0.2,0.1s-0.2,0.1-0.2,0.1 c-0.4,0.2-0.8,0.5-1.4,0.9c-0.5,0.4-1,0.7-1.3,0.9c-0.4,0.2-0.7,0.2-1,0c-0.3-0.1-0.7-0.6-1.3-1.5C16,14,15.8,13.9,15.8,14 c0,0,0,0.1,0,0.2c0,0.3-0.1,0.7-0.3,1.1c-0.2,0.4-0.4,0.8-0.6,1.1c-0.2,0.3-0.3,0.7-0.4,1.2c-0.1,0.5,0,0.9,0.2,1.3 c-0.3,0.1-0.7,0.7-1.3,1.8c-0.5,1.1-0.8,2.1-1,2.8c0,0.2,0,0.7,0,1.4c0,0.7,0,1.1-0.1,1.2c-0.1,0.3-0.3,0.3-0.6,0.1 c-0.4-0.4-0.7-1-0.7-1.9c0-0.4,0-0.7,0.1-1.1c0.1-0.3,0-0.4,0-0.4L11,22.9c-0.5,0.9-0.4,2,0.2,3.3c0.1,0.2,0.2,0.3,0.5,0.6 c0.3,0.2,0.4,0.3,0.5,0.4c0.3,0.3,1,0.9,2.1,1.8s1.7,1.4,1.9,1.5c0.2,0.2,0.3,0.5,0.4,0.8c0,0.3-0.1,0.6-0.3,0.9 c-0.2,0.3-0.5,0.4-0.9,0.5c0.1,0.2,0.3,0.5,0.6,0.9c0.3,0.4,0.5,0.8,0.6,1.1c0.1,0.3,0.1,0.8,0.1,1.4c0.6-0.3,0.7-0.9,0.1-1.8 c-0.1-0.1-0.1-0.2-0.2-0.3c-0.1-0.1-0.2-0.2-0.2-0.2c0-0.1-0.1-0.1,0-0.1c0-0.1,0.1-0.1,0.3-0.2c0.1-0.1,0.3,0,0.4,0.1 c0.6,0.7,1.7,0.9,3.3,0.7c1.8-0.2,3-0.8,3.6-1.7c0.3-0.5,0.5-0.7,0.7-0.6c0.2,0.1,0.2,0.4,0.2,1c0,0.3-0.2,1-0.5,1.8 c-0.1,0.3-0.2,0.6-0.1,0.8c0,0.2,0.2,0.3,0.5,0.3c0-0.3,0.1-0.8,0.3-1.5s0.2-1.4,0.3-1.8c0-0.3,0-0.8-0.1-1.5 c-0.1-0.7-0.2-1.4-0.2-1.9c0-0.6,0.2-1.1,0.5-1.4c0.2-0.2,0.5-0.4,1-0.4c0-0.5,0.2-0.9,0.7-1.1c0.4-0.2,0.9-0.3,1.5-0.2 C29.1,25.9,29.5,26.1,29.8,26.3L29.8,26.3z M17.2,9.7c0-0.2,0-0.4-0.1-0.6C17,8.9,17,8.8,16.9,8.8c-0.1,0-0.2,0-0.2,0.1 c0,0.1,0.1,0.1,0.1,0.1c0.1,0,0.2,0.1,0.1,0.3C16.9,9.6,16.9,9.8,17.2,9.7C17.1,9.8,17.2,9.7,17.2,9.7L17.2,9.7z M25.6,13.7 c0-0.1-0.1-0.2-0.1-0.2c-0.1,0-0.1-0.1-0.3-0.1s-0.2-0.1-0.3-0.1c-0.1,0-0.1-0.1-0.2-0.2c-0.1-0.1-0.1-0.1-0.1-0.2 c0,0-0.1-0.1-0.1-0.1c0,0-0.1-0.1-0.1-0.1s0,0-0.1,0c-0.2,0.2-0.1,0.5,0.1,0.9c0.3,0.4,0.5,0.6,0.8,0.6c0.1,0,0.2,0,0.3-0.2 C25.6,13.9,25.6,13.8,25.6,13.7L25.6,13.7z M22,9.4c0-0.1,0-0.3-0.1-0.4c-0.1-0.1-0.1-0.2-0.2-0.3s-0.1-0.1-0.2-0.1 c-0.2,0-0.2,0.1-0.1,0.1l0.1,0c0.2,0.1,0.3,0.3,0.4,0.6C21.8,9.5,21.8,9.5,22,9.4L22,9.4z M23.1,4.7c0,0,0-0.1-0.1-0.1 c0,0-0.1-0.1-0.2-0.1c-0.1-0.1-0.2-0.1-0.2-0.1C22.5,4.1,22.3,4,22.2,4c-0.1,0-0.2,0.1-0.2,0.2c0,0.1,0,0.2,0,0.3c0,0.1,0,0.2,0,0.3 c0,0.1-0.1,0.1-0.1,0.2c-0.1,0.1-0.1,0.1-0.1,0.2c0,0,0,0.1,0.1,0.2c0.1,0,0.1,0,0.2,0c0.1,0,0.1-0.1,0.2-0.2 c0.1-0.1,0.2-0.1,0.3-0.2c0,0,0.1,0,0.2,0c0.1,0,0.2,0,0.3,0C23,4.8,23.1,4.8,23.1,4.7z M34.4,31.6c0.3,0.2,0.5,0.3,0.6,0.5 c0.1,0.2,0.2,0.3,0.2,0.5c0,0.2,0,0.3-0.1,0.5c0,0.1-0.2,0.3-0.3,0.4c-0.2,0.1-0.3,0.3-0.5,0.4s-0.4,0.2-0.6,0.4 c-0.2,0.1-0.5,0.2-0.6,0.3c-0.2,0.1-0.4,0.2-0.6,0.3c-0.3,0.1-0.4,0.2-0.5,0.3c-0.5,0.3-1.1,0.6-1.7,1.1c-0.6,0.5-1.1,0.9-1.5,1.3 c-0.2,0.2-0.7,0.3-1.4,0.4c-0.7,0-1.3-0.1-1.8-0.3c-0.2-0.1-0.4-0.3-0.6-0.5c-0.2-0.2-0.3-0.4-0.3-0.5c-0.1-0.1-0.2-0.3-0.4-0.4 c-0.2-0.1-0.5-0.2-0.9-0.2c-0.6,0-1.5,0-2.6,0c-0.3,0-0.6,0-1.1,0c-0.5,0-0.9,0-1.2,0.1c-0.6,0-1.1,0.1-1.6,0.3s-0.8,0.4-1.1,0.6 c-0.2,0.2-0.5,0.4-0.9,0.6c-0.3,0.2-0.7,0.2-1.1,0.2c-0.4,0-1.1-0.2-2.2-0.6c-1.1-0.4-2.1-0.7-2.9-0.9c-0.3-0.1-0.6-0.1-1-0.2 s-0.8-0.1-1-0.2c-0.2,0-0.5-0.1-0.8-0.2c-0.3-0.1-0.5-0.2-0.7-0.3c-0.2-0.1-0.3-0.2-0.3-0.4c-0.1-0.3-0.1-0.8,0.1-1.3 c0.2-0.6,0.3-0.9,0.4-1.1c0-0.2,0-0.5-0.1-0.8c-0.1-0.3-0.1-0.6-0.2-0.9c-0.1-0.2-0.1-0.5-0.1-0.7c0-0.2,0.1-0.4,0.2-0.5 c0.2-0.2,0.6-0.3,1.1-0.3c0.6,0,1-0.1,1.2-0.2c0.4-0.2,0.7-0.5,0.8-0.7c0.2-0.2,0.2-0.6,0.2-1c0.3,1,0.1,1.7-0.6,2.1 c-0.4,0.3-1,0.4-1.7,0.3c-0.5,0-0.7,0-0.9,0.2c-0.2,0.2-0.1,0.6,0.1,1.1c0,0.1,0.1,0.2,0.2,0.4C5.7,31.8,5.8,32,5.8,32 c0,0.1,0.1,0.2,0.1,0.3c0,0.1,0,0.3,0,0.4c0,0.2-0.1,0.5-0.3,1s-0.3,0.8-0.3,1c0,0.2,0.3,0.4,0.7,0.5c0.3,0.1,0.8,0.2,1.7,0.4 c0.9,0.2,1.5,0.3,2,0.4c0.3,0.1,0.8,0.2,1.5,0.4c0.7,0.2,1.2,0.4,1.7,0.5c0.4,0.1,0.8,0.1,1.1,0.1c0.6-0.1,1-0.3,1.3-0.6 c0.3-0.3,0.4-0.6,0.5-1c0-0.3,0-0.7-0.2-1.2c-0.1-0.4-0.2-0.8-0.4-1c-0.1-0.3-0.3-0.5-0.4-0.7c-1.6-2.5-2.8-4.2-3.4-4.9 c-0.9-1-1.7-1.3-2.3-0.8c-0.1,0.1-0.2,0-0.3-0.3c0-0.2-0.1-0.5,0-0.8c0-0.4,0.1-0.7,0.2-1s0.3-0.6,0.5-0.9c0.2-0.3,0.3-0.6,0.4-0.8 c0.1-0.3,0.3-0.8,0.5-1.4c0.2-0.7,0.4-1.2,0.6-1.6c0.1-0.4,0.3-0.8,0.6-1.2s0.5-0.8,0.8-1.1c1.5-1.9,2.3-3.2,2.5-3.9 c-0.2-1.5-0.3-3.6-0.3-6.2c0-1.2,0.1-2.2,0.5-3c0.3-0.8,1.1-1.5,2.1-2.1C17.8,2.1,18.5,2,19.3,2c0.7,0,1.4,0.1,2.1,0.3 s1.3,0.5,1.8,0.8c0.8,0.6,1.4,1.4,1.8,2.4c0.5,1.1,0.7,2.1,0.6,3c-0.1,1.3,0.1,2.7,0.6,4.3c0.5,1.5,1.3,3,2.7,4.4 c0.7,0.8,1.4,1.9,2,3.3c0.6,1.4,1,2.7,1.2,3.8c0.1,0.7,0.1,1.2,0.1,1.7c0,0.5-0.1,0.8-0.2,1.1c-0.1,0.3-0.3,0.4-0.4,0.4 c-0.1,0-0.3,0.2-0.5,0.4c-0.2,0.2-0.4,0.5-0.5,0.7c-0.2,0.2-0.5,0.5-0.8,0.7c-0.4,0.2-0.8,0.3-1.2,0.3c-0.2,0-0.5,0-0.6-0.1 c-0.2-0.1-0.3-0.1-0.5-0.3c-0.1-0.1-0.2-0.2-0.3-0.3c-0.1-0.1-0.1-0.2-0.2-0.4c-0.1-0.2-0.2-0.3-0.2-0.4c-0.3-0.5-0.6-0.7-0.8-0.6 c-0.3,0.1-0.4,0.4-0.6,1s-0.1,1.2,0.1,1.9c0.3,0.9,0.3,2.2,0,3.9c-0.1,0.9,0,1.5,0.4,2c0.4,0.5,0.9,0.7,1.5,0.7 c0.6,0,1.2-0.3,1.7-0.7c0.8-0.7,1.4-1.1,1.8-1.3c0.4-0.2,1.1-0.5,2.1-0.9c0.7-0.2,1.2-0.5,1.5-0.7c0.3-0.2,0.4-0.5,0.4-0.7 c-0.1-0.2-0.2-0.4-0.5-0.6c-0.3-0.2-0.6-0.3-1-0.5c-0.4-0.1-0.8-0.5-1-1c-0.2-0.5-0.3-1-0.3-1.5c0-0.5,0.1-0.8,0.3-1 c0,0.4,0.1,0.8,0.2,1.1c0.1,0.3,0.2,0.6,0.3,0.8c0.1,0.2,0.2,0.4,0.4,0.6s0.3,0.3,0.4,0.4c0.1,0.1,0.3,0.2,0.4,0.3 C34.3,31.5,34.4,31.6,34.4,31.6L34.4,31.6z"/>
</svg>