<!-- (c) Carrd Inc. All rights reserved. All logos and trademarks are property of their respective owners. -->
<svg xmlns="http://www.w3.org/2000/svg" id="icon">
<path d="M36.3,22.4C35.9,25,35,28,34.6,29.1c-0.2,0.7-0.4,1.3-0.6,1.8c-1.5,4.2-2.6,5.1-4,5.1c-0.2,0-2.4,0-4.6-0.6 c-2.1-0.6-4.2-1.8-4.2-4.1v-7.9c0-0.2,0-0.3-0.1-0.4c-0.2-0.5-0.7-0.6-1.1-0.6c-0.5,0-1.2,0.2-1.2,1v7.9c0,4.7-8.5,4.7-8.8,4.7 c-1.6,0-2.7-1-4.5-6.6c0-0.1-0.1-0.2-0.1-0.3c0-0.1,0-0.1-0.1-0.2c-0.5-1.6-1.8-6-1.8-8.9c0-3.7,5-9.7,6-10.8C11.8,6.5,16.3,2,20,2 c6.1,0,16.5,13.3,16.5,18C36.5,20.7,36.4,21.5,36.3,22.4z M21.9,7.1c-0.7-0.5-1.4-0.7-1.9-0.7c-0.9,0-3.7,1.6-7.3,5.7 c-2.1,2.4-3.6,4.7-4.3,6.2C8,19.1,7.8,19.7,7.8,20c0,0.7,0.1,1.7,0.3,2.7c0.4,2.2,1.3,4.9,2,6.8c0.3,0.8,0.6,1.5,0.8,2 c0.2,0,0.5,0,0.7-0.1c1-0.1,2.2-0.4,2.7-0.7c0,0,0.1,0,0.1,0v-7.4c0-1.7,0.7-3.1,1.9-4.1c0,0,0,0,0,0c0,0,0,0,0,0c0,0,0,0,0,0 c0,0,0,0,0,0c0.5-0.4,1-0.7,1.6-0.9c0.6-0.2,1.3-0.3,2-0.3c3.1,0,5.5,2.3,5.5,5.4v0v7.4c0,0,0,0,0,0s0,0,0,0 c0.4,0.2,1.3,0.5,2.2,0.6c0.5,0.1,0.9,0.1,1.3,0.2c0.3-0.5,0.6-1.3,0.9-2.1c0.6-1.7,1.3-3.9,1.8-5.9c0.3-1.4,0.5-2.6,0.5-3.5 c0-1.2-1.6-3.8-3.7-6.4C26.4,11,23.8,8.3,21.9,7.1z"/>
</svg>