<!-- (c) Carrd Inc. All rights reserved. All logos and trademarks are property of their respective owners. -->
<svg xmlns="http://www.w3.org/2000/svg" id="icon">
<path d="M35,35.7c-2.1,0-3.7-1.6-3.7-3.7c0-2,1.6-3.6,3.7-3.7c2,0.1,3.6,1.5,3.6,3.7C38.7,34,37.2,35.7,35,35.7z M26.6,20.9c1.6,1.9,2.1,4.1,1.8,6.5c-0.3,2.8-1.7,5-4.2,6.4c-2,1.1-4.1,1.5-6.4,1.5c-3.5,0-7,0-10.5,0c-0.1,0-0.2,0-0.4-0.1 c0-9.3,0-18.6,0-27.9c0-0.1,0-0.2,0.1-0.3c0.2-1.1,0.8-2,1.8-2.5c0.4-0.2,0.9-0.3,1.4-0.4c2.6,0,5.1,0,7.7,0c0.1,0,0.2,0,0.3,0 c1,0.1,2,0.2,2.9,0.4c1.6,0.4,3,1.1,4.1,2.3c1.4,1.4,2.1,3.2,2.1,5.2c0,2.4-0.8,4.5-2.7,6.1c-0.2,0.2-0.5,0.4-0.7,0.6 c0.2,0.1,0.3,0.2,0.4,0.2C25.1,19.7,25.9,20.2,26.6,20.9z M21.2,12.7c-0.1-1.7-1-3-2.7-3.2c-1.3-0.1-2.7-0.1-4,0 c-0.9,0-1.5,0.7-1.5,1.5c-0.1,1.9,0,3.9-0.1,5.8c0,0,0,0,0,0.1c0,0,0.1,0,0.1,0c1.6,0,3.1,0,4.7,0c1.7,0,2.9-0.9,3.3-2.6 C21.2,13.8,21.2,13.3,21.2,12.7z M22.3,25.4c-0.2-2.1-1.6-3.5-3.7-3.6c-1.3-0.1-2.6-0.1-3.9,0c-0.9,0-1.6,0.6-1.7,1.5 c0,0.3-0.1,0.6-0.1,0.8c0,1.9,0,3.8,0,5.7c0,0.1,0,0.2,0,0.4c0.5,0,0.9,0,1.3,0c1.5,0,3.1,0,4.6-0.1c1.6-0.1,2.7-0.9,3.2-2.4 C22.3,26.9,22.4,26.1,22.3,25.4z"/>
</svg>