<!-- (c) Carrd Inc. All rights reserved. All logos and trademarks are property of their respective owners. -->
<svg xmlns="http://www.w3.org/2000/svg" id="icon">
<path d="M5.2,12.7c0,4.8,0,9.6,0,14.3c-1.2,0-2.5,0-3.7,0c0-4.8,0-9.6,0-14.3C2.7,12.7,3.9,12.7,5.2,12.7z"/> <path d="M6.9,12.7c1.6,0,3.2,0,4.8,0c0.4,2.2,0.6,4.5,1,6.7c0.3-2.2,0.6-4.4,0.8-6.7c1.6,0,3.2,0,4.9,0c0,4.8,0,9.6,0,14.3 c-1.1,0-2.2,0-3.2,0c0-3.2,0-6.2,0-9.3c0-0.1,0-0.2,0-0.3c-0.3,2.4-0.6,4.8-1,7.2c-0.1,0.8-0.2,1.6-0.3,2.4c-0.8,0-1.5,0-2.3,0 c-0.4-3.1-0.9-6.3-1.4-9.4c0,3.1,0,6.3,0,9.4c-1.1,0-2.2,0-3.3,0C6.9,22.3,6.9,17.5,6.9,12.7L6.9,12.7z"/> <path d="M30.4,12.7c1.2,0,2.4,0,3.6,0c0,1.1,0,2.2,0,3.4c0,0,0,0,0.1,0c0.1-0.1,0.3-0.3,0.5-0.4c0.6-0.4,1.5-0.7,2.4-0.5 c0.5,0.1,1,0.4,1.3,0.8c0.3,0.4,0.4,0.9,0.4,1.6c0,2.3,0,4.5,0,6.8c-0.1,0.9-0.1,1.6-0.5,2c-0.4,0.5-0.9,0.8-1.7,0.9 c-0.2,0-0.3,0-0.5,0c-0.5,0-0.8-0.2-1.1-0.4c-0.3-0.2-0.5-0.4-0.7-0.6c0,0-0.1-0.1-0.1-0.1c-0.1,0.3-0.1,0.6-0.2,0.8 c-1.1,0-2.3,0-3.3,0C30.4,22.3,30.4,17.5,30.4,12.7L30.4,12.7z M34.4,17.2c-0.4,0-0.4,0.6-0.4,1c0,0.4,0,0.8,0,1c0,1.3,0,2.8,0,4.1 c0,0.6-0.1,1.6,0.3,1.8c0.1,0.1,0.5,0.1,0.6,0c0.2-0.1,0.2-0.4,0.2-0.8c0.1-1,0-2.1,0-3.1c0-1,0-2.1,0-3.1c0-0.3-0.1-0.7-0.2-0.8 C34.7,17.2,34.5,17.2,34.4,17.2C34.4,17.2,34.4,17.2,34.4,17.2L34.4,17.2z"/> <path d="M20.2,12.7c1.2,0,2.4,0,3.6,0c0,0,0,0,0,0c1.2,0,2.3,0,3.2,0.3c0.9,0.3,1.5,0.9,1.7,1.8c0.1,0.5,0.1,1,0.2,1.6 c0,0.6,0,1.1,0,1.7c0,1.2,0,2.3,0,3.5c0,1.2,0,2.4-0.1,3.4c-0.2,1-0.7,1.6-1.7,1.8c-1,0.2-2.2,0.2-3.3,0.2c-1.2,0-2.3,0-3.5,0 C20.2,22.3,20.2,17.5,20.2,12.7z M23.9,15.2c0,3.1,0,6.3,0,9.4c0.4,0,0.9-0.1,1-0.3c0.1-0.3,0.2-0.6,0.2-1c0-0.4,0-0.7,0-1.1 c0-1.9,0-4,0-5.8c0-0.4,0-0.8-0.2-1C24.8,15.2,24.3,15.2,23.9,15.2C24,15.2,23.9,15.2,23.9,15.2L23.9,15.2z"/>
</svg>