<!-- (c) Carrd Inc. All rights reserved. All logos and trademarks are property of their respective owners. -->
<svg xmlns="http://www.w3.org/2000/svg" id="icon">
<path d="M20,2C10.05,2,2,10.05,2,20s8.05,18,18,18s18-8.05,18-18S29.95,2,20,2z M14.26,21.39H7.62c-0.75,0-1.39-0.61-1.39-1.39 s0.61-1.39,1.39-1.39h6.64c0.75,0,1.39,0.61,1.39,1.39S15.02,21.39,14.26,21.39z M21.39,32.45c0,0.75-0.61,1.39-1.39,1.39 s-1.39-0.61-1.39-1.39V7.55c0-0.75,0.61-1.39,1.39-1.39s1.39,0.61,1.39,1.39V32.45z M32.41,21.39h-6.67c-0.75,0-1.39-0.61-1.39-1.39 s0.61-1.39,1.39-1.39h6.64c0.75,0,1.39,0.61,1.39,1.39S33.16,21.39,32.41,21.39z"/>
</svg>