<!-- (c) Carrd Inc. All rights reserved. All logos and trademarks are property of their respective owners. -->
<svg xmlns="http://www.w3.org/2000/svg" id="icon">
<path d="M26.7,33.4c4.8,0,8.7-3.9,8.7-8.8h0V7.6h2.1v17.1c0,6-4.8,10.9-10.8,10.9c-2.5,0-4.8-0.9-6.7-2.3 c-1.8,1.5-4.2,2.3-6.7,2.3c-6,0-10.9-4.9-10.9-10.9V7.6h2.1v17.1c0,4.8,3.9,8.8,8.8,8.8c1.9,0,3.8-0.6,5.2-1.7 c-1.6-1.9-2.7-4.4-2.7-7.1l0-14c0-2.3,1.8-4.1,4.1-4.1c2.3,0,4.1,1.9,4.1,4.1l0,14c0,2.7-1,5.2-2.6,7.1C23,32.8,24.8,33.4,26.7,33.4 z M17.9,24.6c0,2.2,0.8,4.1,2.1,5.7c1.3-1.5,2.1-3.5,2.1-5.7l0-14c0-1.1-0.9-2.1-2.1-2.1c-1.1,0-2.1,0.9-2.1,2.1L17.9,24.6z"/>
</svg>