<!-- (c) Carrd Inc. All rights reserved. All logos and trademarks are property of their respective owners. -->
<svg xmlns="http://www.w3.org/2000/svg" id="icon">
<path d="M39.7,25.2c-0.4,0.4-0.6,0.4-1.1,0c-1.6-1.6-3.3-3.3-4.9-4.9c-0.5-0.5-0.4-1,0.2-1.3c0.2-0.1,0.5,0,0.7,0.2 c1.8,1.8,3.5,3.5,5.3,5.3c0,0.1,0,0.2,0,0.3C39.9,24.9,39.8,25.1,39.7,25.2z M32.9,33.4c-0.2,0.1-0.5,0-0.7-0.2 c-1.7-1.7-3.4-3.3-5-5c-0.4-0.4-0.3-0.6,0-1c0.4-0.4,0.6-0.4,1,0c1.7,1.7,3.3,3.3,5,5c0.1,0.1,0.2,0.3,0.4,0.5 C33.3,33,33.2,33.3,32.9,33.4z M19.4,30c-1.6,0.7-3.2,1.3-4.8,1.9c-0.6,0.2-1.2,0.2-1.7-0.4C8.8,27.3,4.6,23.1,0.4,19 c-0.3-0.3-0.5-0.5-0.4-1c0-0.2,0.1-0.4,0.1-0.6c0.8-3,1.9-5.8,3.6-8.3C5.6,6.4,8,4.4,10.9,2.8c2.1-1.1,4.2-2,6.5-2.7 c0.6-0.2,1.1-0.1,1.6,0.4c4.2,4.2,8.3,8.4,12.5,12.5c0.4,0.4,0.5,0.9,0.4,1.4C30.1,21.6,26.3,27,19.4,30z M16.7,2.9 c-1.3,0.5-2.6,1-3.8,1.6c-4,1.9-7.1,4.9-8.9,9.1c-0.5,1.1-0.9,2.2-1.3,3.3c0,0,0.1,0.1,0.1,0.1c0.7-0.3,1.4-0.6,2.1-0.8 c2.5-1.1,4.9-2.3,6.9-4.2c2-1.9,3.4-4.2,4.4-6.7c0.3-0.8,0.6-1.6,0.9-2.5C16.9,2.8,16.8,2.8,16.7,2.9z M29.1,13.9 c-3.2-3.2-6.4-6.4-9.6-9.6c-0.1-0.1-0.2-0.2-0.3-0.3c-0.2,0.7-0.5,1.3-0.7,2c-1.1,2.9-2.6,5.5-4.9,7.6c-1.8,1.7-3.9,3-6.2,4.1 c-1.1,0.5-2.3,1-3.5,1.5c0.1,0.1,0.1,0.2,0.2,0.2c3.3,3.3,6.6,6.6,9.9,9.9c0.2,0.2,0.3,0.2,0.6,0.1c1.5-0.7,3.1-1.2,4.6-2 c2.7-1.3,5.1-3.1,6.9-5.6c1.6-2.2,2.5-4.7,3.3-7.3C29.4,14.3,29.3,14.1,29.1,13.9z M19.3,22.9c-0.6,0-1.3-0.3-1.9-0.8 c-0.3-0.2-0.3-0.5,0-0.7c1.3-1.3,2.6-2.6,3.9-3.9c0.3-0.3,0.5-0.3,0.7,0c0.9,0.9,1.1,2.4,0.6,3.6C22,22.1,20.8,22.9,19.3,22.9z M22.2,19.6c-1.5-0.1-2.9,1.4-2.7,2.7C20.7,22.5,22.3,21.1,22.2,19.6z M19.8,13.6c-0.9,0-1.5-0.7-1.5-1.5c0-0.9,0.7-1.5,1.5-1.5 c0.8,0,1.5,0.7,1.5,1.5C21.4,12.9,20.7,13.6,19.8,13.6z M11.7,21.3c-0.8,0-1.5-0.7-1.5-1.5c0-0.8,0.7-1.5,1.6-1.5 c0.8,0,1.6,0.8,1.5,1.6C13.2,20.7,12.5,21.4,11.7,21.3z M20.3,33.9c1.6,1.6,3.2,3.2,4.7,4.7c0.5,0.5,0.5,0.8-0.1,1.3 c-0.1,0-0.1,0.1-0.2,0.1c-0.1,0-0.2,0-0.3,0c-0.7-0.7-1.4-1.4-2.2-2.1c-1-1-2-2-3-3c-0.5-0.5-0.5-0.7-0.1-1.1 C19.6,33.4,19.9,33.4,20.3,33.9z"/>
</svg>