<!-- (c) Carrd Inc. All rights reserved. All logos and trademarks are property of their respective owners. -->
<svg xmlns="http://www.w3.org/2000/svg" id="icon">
<path d="M37.7,16.6c-0.3-1.6-0.8-3-1.5-4.4c-0.7-1.5-1.6-2.8-2.7-4c-1.2-1.4-2.6-2.6-4.2-3.5C26.6,3,23.4,2,20,2 c-2.5,0-4.9,0.5-7,1.4c-1.7,0.7-3.3,1.7-4.7,2.9C4.5,9.6,2,14.5,2,20c0,5.5,2.5,10.4,6.3,13.7c0.7,0.6,1.4,1.1,2.2,1.6 c2.8,1.7,6,2.7,9.5,2.7c2.5,0,4.9-0.5,7-1.4c1.7-0.7,3.3-1.7,4.7-2.9C35.5,30.4,38,25.5,38,20C38,18.9,37.9,17.7,37.7,16.6 L37.7,16.6z M8.3,31.4c-2.9-2.9-4.7-7-4.7-11.4s1.8-8.5,4.7-11.4V31.4z M27,20.1v14.7c-2.1,1-4.5,1.6-7,1.6c-2.6,0-5.1-0.6-7.4-1.7 l13.2-4.3v-4.9L13,29.6V5.2c2.1-1,4.5-1.6,7-1.6c2.6,0,5,0.6,7.2,1.7l-13,4.2v4.9l3.5-1.1v13.5l4.7-1.5V11.8l9.3-3l0.2,0 c1.1,1.2,2.1,2.5,2.8,4l-11.1,3.6v4.9L27,20.1z M31.7,31.4V18.6l4.4-1.4c0.2,0.9,0.3,1.9,0.3,2.8C36.3,24.5,34.6,28.5,31.7,31.4 L31.7,31.4z"/>
</svg>