<!-- (c) Carrd Inc. All rights reserved. All logos and trademarks are property of their respective owners. -->
<svg xmlns="http://www.w3.org/2000/svg" id="icon">
<path d="M33.4,27.8v1.4c0,1.2-0.4,2.3-1.2,3.1c-0.8,0.9-1.8,1.3-3,1.3h-1.2l-5.6,5.8v-5.8H10.8c-1.2,0-2.2-0.4-3-1.3 c-0.8-0.9-1.2-1.9-1.2-3.1v-1.4C6.5,27.8,33.4,27.8,33.4,27.8z M33.4,20.7v5.5H6.5v-5.5H33.4z M33.4,13.5v5.5H6.5v-5.5H33.4z M33.4,10.5V12H6.5v-1.5c0-1.2,0.4-2.3,1.2-3.1s1.8-1.3,3-1.3h18.4c1.2,0,2.2,0.4,3,1.3C33,8.2,33.4,9.3,33.4,10.5z"/>
</svg>