<!-- (c) Carrd Inc. All rights reserved. All logos and trademarks are property of their respective owners. -->
<svg xmlns="http://www.w3.org/2000/svg" id="icon">
<path d="M33.7,16.7c-0.4-0.2-0.7-0.3-1.1-0.5c-0.1,0.2-0.2,0.4-0.3,0.6c-3.4,5.9-6.8,11.7-10.3,17.6 c-0.1,0.2-0.2,0.3-0.4,0.3c-1.2,0.1-2.3,0.1-3.5,0c-1.8-0.2-3.5-0.7-5.1-1.5c-0.1,0-0.1-0.1-0.2-0.1C17.9,24.1,23,15.3,28.1,6.5 c3,1.9,5.1,4.5,6.3,7.9c0.1-0.1,0.1-0.2,0.1-0.2c0.8-1.3,1.5-2.6,2.3-3.9C37,10,37,10,37.3,10.1c0,0,0.1,0,0.1,0.1 C36.2,12.4,34.9,14.5,33.7,16.7z M12.8,33c-1.3,2.2-2.5,4.3-3.8,6.5c-0.2-0.1-0.3-0.2-0.5-0.3c0.8-1.4,1.7-2.9,2.5-4.3 c-0.2-0.2-0.4-0.3-0.7-0.5C8,32.8,6.3,30.6,5.1,28c-0.1-0.2,0-0.3,0-0.4c2.9-5,5.7-9.9,8.6-14.9c1-1.8,2-3.5,3-5.3 c0-0.1,0.1-0.1,0.1-0.2c-0.1-0.1-0.2-0.1-0.4-0.2c3.2-0.5,6.3-0.1,9.2,1.2c-4.6,8.1-9.2,16.2-13.9,24.3C12.1,32.6,12.4,32.8,12.8,33 z M19.7,0.7c0.2,0.2,0,0.2-0.1,0.3c-0.2,0.3-0.3,0.6-0.4,0.9c-0.5,0.9-1,1.8-1.5,2.7c-0.4,0.7-0.8,1.3-1.1,2c0,0.1-0.1,0.1-0.1,0.2 c-0.1,0-0.2-0.1-0.3-0.1c-0.1-0.1-0.2-0.1-0.3,0.1c-0.6,1-1.2,2.1-1.8,3.1c-2,3.4-3.9,6.8-5.9,10.1c-0.8,1.5-1.7,2.9-2.5,4.4 c0,0,0,0.1-0.1,0.2c-0.1-0.5-0.3-0.9-0.4-1.3c-0.5-1.8-0.6-3.7-0.4-5.6c0.3-2.5,1.1-4.8,2.6-6.9c1.5-2.3,3.6-4,6-5.2 c1.1-0.5,2.3-1,3.5-1.2c0.5-0.1,0.7-0.4,0.9-0.7c0.5-0.9,1.1-1.8,1.6-2.8c0.1-0.2,0.3-0.3,0.4-0.5c0,0,0.1,0,0.2,0 C19.8,0.6,19.7,0.7,19.7,0.7z M33.7,16.8c1.5,4.7,1.1,9.2-1.5,13.3c-2.4,3.8-5.8,6-10.1,6.9c0,0,0,0,0-0.1 C25.9,30.3,29.8,23.5,33.7,16.8C33.7,16.8,33.7,16.8,33.7,16.8z"/>
</svg>