<!-- (c) Carrd Inc. All rights reserved. All logos and trademarks are property of their respective owners. -->
<svg xmlns="http://www.w3.org/2000/svg" id="icon">
<path d="M40,13.4c0,0.3-0.1,0.3-0.3,0.3c-1.1,0.1-1.1,0.1-1.1-1c0-0.9,0-1.8,0-2.7c0-0.3-0.1-0.7-0.3-0.9 c-0.3-0.4-0.7-0.6-1.2-0.5c-0.5,0.1-0.8,0.5-0.9,0.9c-0.1,0.5-0.1,1-0.1,1.5c0,0.8,0,1.6,0,2.3c0,0.3-0.1,0.4-0.3,0.4 c-1.1,0.1-1.1,0.1-1.1-1.1c0-0.7,0-1.5,0-2.2c0-1,0-1.9,0-2.9c0-0.3,0.1-0.4,0.4-0.4c0.4,0.1,0.8-0.1,1.2,0.1c0.1,0.1,0.2,0,0.2-0.1 c1.8-0.7,3.5,0.4,3.6,2.3C40,10.9,40,12.2,40,13.4z M32.7,11c-0.3,0-0.6,0-0.9,0c0,0,0,0,0,0c-0.6,0-1.2,0-1.8,0 c-0.3,0-0.4,0.1-0.3,0.4c0.4,1.2,1.7,1.6,2.6,0.7c0.2-0.2,0.4-0.3,0.7-0.1c0,0,0.1,0,0.1,0.1c0.9,0.5,0.9,0.6,0.1,1.3 c-1.5,1.1-3.6,0.7-4.5-1C27.9,11,28,9.6,28.8,8.4c0.6-1,1.8-1.5,2.9-1.3c1.2,0.3,2.1,1.2,2.3,2.4C34.2,10.9,34.1,11,32.7,11z M32.3,9.3c-0.2-0.5-0.7-0.9-1.3-0.8c-0.6,0-1.1,0.4-1.3,0.9c-0.1,0.2,0,0.3,0.2,0.3c0.3,0,0.7,0,1,0c0.3,0,0.7,0,1,0 C32.3,9.7,32.4,9.6,32.3,9.3z M27.8,13.8c-1.5,0.4-2.8-0.6-2.8-2.2c0-0.8,0-1.6,0-2.5c0-0.3,0-0.6-0.4-0.5c-0.3,0-0.4-0.1-0.4-0.4 c0-0.2,0-0.4,0-0.6c0-0.4,0.1-0.6,0.5-0.5c0.2,0,0.3-0.1,0.3-0.3c0-0.1,0-0.2,0-0.3c0-1,0.2-1.2,1.3-1c0.1,0,0.2,0.1,0.2,0.2 c0,0.1,0,0.3,0,0.4c0,1,0,1,1,1.1c0.2,0,0.3,0.1,0.3,0.3c0,0.2,0,0.3,0,0.5c0,0.9,0.1,0.7-0.8,0.7c-0.4,0-0.6,0.1-0.5,0.6 c0,0.7,0,1.4,0,2.1c0,0.8,0.3,1,1.1,0.9c0.2,0,0.2,0,0.3,0.1c0.1,0.2,0.2,0.3,0.3,0.5C28.7,13.6,28.7,13.6,27.8,13.8z M23.2,13.8 c-0.4-0.1-0.8,0.1-1.1-0.1c0,0-0.2,0-0.2,0.1c-1.8,0.7-3.5-0.5-3.6-2.4c0-1.2,0-2.5,0-3.7c0-0.3,0.1-0.4,0.3-0.4 c1.1-0.1,1.1-0.1,1.1,1.1c0,0.9,0,1.8,0,2.7c0,0.8,0.5,1.4,1.2,1.4c0.7,0,1.2-0.6,1.2-1.4c0-1.1,0-2.2,0-3.3c0-0.3,0.1-0.4,0.4-0.4 c1.1,0,1.1,0,1.1,1.1c0,0.7,0,1.5,0,2.2c0,0,0,0,0,0c0,0.9,0,1.9,0,2.8C23.7,13.7,23.6,13.8,23.2,13.8z M15.5,10.2 c-0.1,0.4,0.5,0.7,0.8,1c0.7,0.8,1.3,1.6,2.1,2.5c-0.7,0-1.4,0-2,0c-0.2,0-0.3-0.2-0.4-0.4c-0.6-0.7-1.2-1.5-1.9-2.2 c0,0.7,0,1.4,0,2.1c0,0.3-0.1,0.4-0.4,0.4c-1.1,0-1.1,0-1.1-1.1c0-2.4,0-4.8,0-7.2c0-0.4,0.1-0.5,0.5-0.5c1,0,1,0,1,1 c0,1.1,0,2.2,0,3.3c0,0,0.1,0,0.1,0c0.5-0.6,1-1.2,1.4-1.8c0.2-0.2,0.3-0.3,0.6-0.3c0.5,0,1,0,1.7,0c-0.6,0.7-1.1,1.3-1.6,2 C16,9.5,15.6,9.9,15.5,10.2z M11.7,10.5c0,0.9,0,1.9,0,2.8c0,0.3-0.1,0.5-0.4,0.4c-0.4-0.1-0.8,0.2-1.1-0.2c-0.1-0.1-0.2,0-0.2,0.1 c-1.8,0.7-3.4-0.1-4-2C5.5,10,6.1,8.3,7.4,7.5C8.1,7,9,6.9,9.8,7.3c0.2,0.1,0.3,0.1,0.5,0c0.3-0.2,0.8-0.1,1.2,0 c0.3,0,0.2,0.3,0.2,0.4C11.7,8.6,11.7,9.6,11.7,10.5z M10.2,10c-0.1-0.7-0.6-1.3-1.2-1.4C8.5,8.5,8,8.8,7.7,9.3 c-0.4,0.7-0.4,1.8,0.1,2.5c0.6,0.8,1.6,0.8,2.1,0c0.3-0.4,0.4-0.8,0.4-1.3C10.2,10.4,10.2,10.2,10.2,10z M4.5,11.1 c0.7,0.8,1.3,1.7,2,2.7c-0.7,0-1.2,0-1.7,0c-0.2,0-0.3-0.1-0.4-0.3c-0.5-0.7-1-1.3-1.5-2c-0.2-0.3-0.9-0.4-1.2-0.3 c-0.2,0.1-0.1,0.2-0.1,0.4c0,0.6,0,1.1,0,1.7c0,0.4-0.1,0.4-0.4,0.4c-1.1,0-1.1,0-1.1-1.1c0-2.2,0-4.4,0-6.6c0-0.4,0.1-0.5,0.5-0.5 c0.9,0.1,1.8-0.1,2.6,0.1C4.3,5.9,5,6.6,5.3,7.6c0.3,1.1,0,2-0.7,2.8C4.3,10.6,4.2,10.8,4.5,11.1z M3.6,7.6C3.2,7.2,2.2,6.8,1.7,7.1 c-0.4,0.2-0.1,0.7-0.2,1c0,0.1,0,0.1,0,0.2c0,0.3,0,0.7,0,1c0,0.1,0,0.2,0.1,0.3c0.6,0.3,1.7-0.1,2-0.6C3.9,8.6,3.9,8,3.6,7.6z M0,19.3C0,19,0.1,19,0.4,19c0.6,0,1.1,0,1.7,0c0.4,0,0.5,0.1,0.5,0.5c0,2.6,0,5.3,0,7.9c0,0.2,0,0.3,0,0.5c0,0,0.1,0,0.1,0 c0.9-1.1,1.9-2.2,2.8-3.4c0.4-0.5,0.8-0.7,1.4-0.6c0.7,0.1,1.4,0,2.1,0c-0.2,0.4-0.5,0.7-0.8,1c-0.9,1.1-1.9,2.2-2.8,3.3 c-0.2,0.3-0.3,0.4,0,0.7c1.3,1.8,2.6,3.6,3.8,5.3c0.1,0.1,0.1,0.2,0.3,0.4c-0.7,0-1.3-0.1-1.9,0c-0.8,0.1-1.3-0.2-1.8-0.9 c-1-1.5-2-3-3.1-4.5c-0.2,0.1-0.1,0.3-0.1,0.4c0,1.5,0,3,0,4.5c0,0.4-0.1,0.5-0.5,0.5c-0.6,0-1.1,0-1.7,0c-0.3,0-0.4-0.1-0.4-0.4 C0,29.3,0,24.3,0,19.3z M9.2,29.1c0-0.9,0.1-1.8,0.5-2.7c0.8-2.1,2.7-3.1,5.1-2.8c1.7,0.2,2.9,1.2,3.4,2.8c0.7,2.1,0.7,4.2-0.3,6.2 c-0.7,1.4-1.9,2.1-3.5,2.2c-2.1,0.1-3.8-0.5-4.7-2.6c-0.4-0.8-0.5-1.7-0.5-2.6C9.2,29.5,9.2,29.4,9.2,29.1z M12,31 c0,0.2,0.1,0.5,0.2,0.7c0.3,0.9,0.9,1.4,1.8,1.4c0.9,0,1.5-0.5,1.8-1.4c0.5-1.6,0.5-3.3,0-4.9c-0.3-1-0.9-1.5-1.8-1.4 c-0.9,0-1.5,0.5-1.8,1.5c-0.2,0.8-0.2,1.6-0.3,2.5C11.9,29.8,11.9,30.4,12,31z M20.6,19c0.5,0,1,0,1.6,0c0.4,0,0.4,0.1,0.4,0.4 c0,1.7,0,3.5,0,5.2c0,0.1-0.1,0.3,0,0.4c0.1,0,0.2-0.1,0.2-0.1c1.6-2.1,4.7-1.7,5.7,0.7c0.9,2.3,0.9,4.6,0.1,6.9 c-0.5,1.4-1.7,2.2-3.2,2.4c-0.2,0-0.3,0.1-0.5,0.1c-0.3,0-0.6,0-0.8,0c-0.4-0.1-0.8-0.1-1.2-0.2c-1.7-0.5-2.5-1.7-2.8-3.4 c-0.1-0.5-0.1-1-0.1-1.5c0-3.4,0-6.9,0-10.3C20,19.1,20.1,18.9,20.6,19z M22.9,31.9c0.2,0.9,0.8,1.3,1.7,1.3c0.7,0,1.3-0.4,1.6-1.3 c0.3-0.9,0.4-1.8,0.3-3.1c0-0.7,0-1.7-0.5-2.7c-0.4-0.7-1.1-1.1-1.8-0.8c-0.6,0.2-0.9,0.6-1.1,1.2C22.4,28.2,22.5,30.1,22.9,31.9z M9.3,16.4C9,15.9,8.5,15.5,8.1,15c7.6,0,15.1,0,22.6,0c-0.2,0.2-0.4,0.1-0.6,0.2c-6.5,0.6-12.9,1.1-19.4,1.7 C10.1,16.9,9.7,16.8,9.3,16.4z M33.5,23.9c2.4-0.8,4.9,0,5.8,2c0.6,1.3,0.8,2.8,0.6,4.2c-0.1,0.6-0.2,1.1-0.3,1.7 c-0.6,1.7-1.7,2.8-3.4,3c-2.1,0.3-4-0.3-5-2.2c-0.6-1.1-0.7-2.2-0.7-3.6c0-1,0.2-2.3,0.9-3.4C31.9,24.7,32.6,24.2,33.5,23.9z M33.4,31.8c0.3,0.9,1,1.3,1.9,1.3c0.9,0,1.5-0.5,1.7-1.4c0.4-1.7,0.4-3.3,0-5c-0.3-1-0.9-1.4-1.8-1.4c-0.9,0-1.5,0.5-1.8,1.4 c-0.2,0.7-0.2,1.4-0.3,2.3C33.1,29.9,33.1,30.9,33.4,31.8z"/>
</svg>