<!-- (c) Carrd Inc. All rights reserved. All logos and trademarks are property of their respective owners. -->
<svg xmlns="http://www.w3.org/2000/svg" id="icon">
<path d="M38.2,12.5c-0.3,0.1-0.5,0.2-0.7,0.3l-0.2-0.5l0.2,0.5c-0.1,0.4-0.2,0.9-0.3,1.4L37,14.5c0,0.1-0.1,0.1-0.1,0.2 l-0.6,1.1l-0.5-1.7c-0.1-0.4-0.2-0.8-0.3-1.3c-0.3-0.1-0.5-0.2-0.7-0.3l-1.4-0.6l1.4-0.6c0.2-0.1,0.4-0.2,0.6-0.2 c0.2,0,0.2-0.1,0.2-0.2c0.1-0.4,0.2-0.8,0.3-1.1L36,9.4C36,9.3,36,9.3,36,9.2l0.6-1.2l0.7,2.3c0.1,0.2,0.1,0.4,0.2,0.7 c0.2,0.1,0.3,0.1,0.5,0.2l0.3,0.1c0.1,0,0.1,0.1,0.2,0.1l1.1,0.5L38.2,12.5z M33.9,15.8c-0.3,2.4-1.5,4.3-3.9,5.8 c0.1,0.2,0.2,0.3,0.3,0.5c0.2,0.4,0.5,0.7,0.9,0.8c0.5,0.1,0.8,0.5,1.1,0.9c1.5-1,3.2-0.8,4.3,0.6c0.4,0.5,0.6,1.1,0.6,1.8 c0.1,1.1-0.2,2.2-0.7,3.4c-0.3,0.6-0.7,1.4-1.2,2.1c-0.4,0.6-0.9,1.2-1.6,1.9c-0.6,0.6-1.3,1-2,1.2c-0.9,0.2-1.6-0.1-2.2-0.8 c-1.2,1.1-2.5,1.8-4.2,2.3c-0.2,0.1-0.2,0.1-0.3,0.2c-0.4,0.8-0.9,1.6-1.6,2.2c-0.7,0.7-1.5,1.1-2.3,1.3C21,40,20.7,40,20.5,40 c-0.8,0-1.5-0.3-2.1-0.8c-0.3-0.2-0.4-0.5-0.6-0.8l-0.1-0.1c-1.3,0.1-2.5-0.1-3.6-0.5c-1.1-0.4-2-0.9-2.8-1.6 c-0.5-0.4-0.8-0.9-1.1-1.3c0,0,0,0-0.2-0.1c-1-0.4-1.9-1-2.7-1.7c-0.6-0.5-1-1-1.4-1.5c-0.7-0.8-1.1-1.8-1.3-2.8 c-0.1-0.5,0-1,0.1-1.5c0.2-0.6,0.6-1,1.1-1.3c0.5-0.2,1.1-0.2,1.7,0c0.3,0.1,0.3,0.1,0.5,0C8,26.1,8.1,26,8.3,26 c-0.2-0.8,0-1.5,0.4-2.1c-0.8-0.5-1.4-1.3-1.6-2.3c-0.2-1-0.1-2,0.4-2.8c-1.4-0.9-2.1-2.3-2-4c0.1-1.7,0.9-3.1,2.3-3.9 c-1-2.2-0.8-4.3,0.8-6c1.4-1.5,3.2-2,5.2-1.4c0.6-1.9,2-3,3.9-3.4L18.3,0l1,0l0.4,0.1c0.3,0.1,0.5,0.1,0.7,0.2c1,0.3,1.9,1,2.6,1.9 c2.4,0.4,4.5,1.3,6.2,2.9c1.9,1.7,3,3.7,3.5,6.1c0,0.3,0.1,0.5,0.1,0.7c0,0,0,0.1,0.1,0.2C33.7,13.1,34.1,14.4,33.9,15.8z M31.6,13 c-0.2-0.2-0.4-0.4-0.4-0.8c-0.1-0.5-0.1-1.1-0.3-1.6c-0.6-2.1-1.8-3.8-3.6-5.2c-1.6-1.2-3.5-1.8-5.7-1.9c-0.8,0-1.6,0-2.5,0.1 c-1.2,0.2-2.4,0.5-3.5,1C14.3,5.4,13,6.3,12,7.5c-0.8,1-1.5,2.1-1.9,3.4c-0.6,1.7-0.8,3.4-0.7,5.4c0.1,0.9,0.2,1.7,0.5,2.5 c0.2,0.6,0.4,1.2,0.7,1.9l0.2,0.6c0.4,1.1,0.6,2.4,0.5,4c-0.1,0.8,0,1.6,0.1,2.5c0,0.2,0,0.5-0.1,0.7c-0.5,0.7-0.8,1.4-1,2.1 c-0.1,0.3-0.3,0.4-0.4,0.5c-0.1,0.1-0.3,0.1-0.6,0c-0.4-0.1-0.6-0.5-0.5-1c0-0.2,0.1-0.3,0.2-0.5l0-0.1c-0.6-0.2-1.1-0.5-1.4-0.7 c-0.4-0.3-0.7-0.6-0.6-1c-0.1-0.1-0.3-0.1-0.5,0c-0.2,0.1-0.2,0.3-0.3,0.4c-0.1,0.3-0.1,0.6,0,1c0.2,0.8,0.7,1.7,1.4,2.5 c0.7,0.8,1.6,1.4,2.8,1.9c0.3,0.1,0.8,0.4,1.1,0.9c0.2,0.3,0.5,0.6,0.8,0.9c0.8,0.6,1.7,1.1,2.7,1.4c0.6,0.2,1.3,0.3,1.9,0.3l0-0.2 c-0.1-0.3-0.1-0.6,0-0.8c0.1-0.1,0.2-0.3,0.5-0.4c0.1,0,0.1,0,0.2,0c0.2,0,0.3,0,0.4,0.1c0.2,0.1,0.3,0.3,0.4,0.6 c0.2,0.6,0.4,1.1,0.7,1.5c0.5,0.7,1.4,0.9,2.1,0.6c0.5-0.2,0.9-0.5,1.3-1c0.9-1,1.6-2.3,2-4c0.1-0.4,0.2-0.9,0.3-1.4 c0-0.2,0.1-0.4,0.1-0.7c0.1-0.7,0.1-1.4-0.1-2.1c-0.2-0.7-0.4-1.1-0.9-1.3c-0.9-0.5-1.8-0.5-2.8,0c-0.7,0.4-1.2,0.9-1.7,1.8 c-0.1,0.1-0.1,0.2-0.2,0.4c-0.1,0.1-0.1,0.3-0.2,0.4c-0.2,0.4-0.6,0.5-1,0.3c-0.4-0.2-0.5-0.6-0.4-0.9c0-0.1,0.1-0.3,0.2-0.4 l0.5-0.9c0,0-0.1,0-0.1,0c-0.5-0.2-0.9-0.1-1.3,0.1c-0.4,0.2-0.9,0.1-1.1-0.2c-0.2-0.4-0.1-0.8,0.3-1.1c0.1,0,0.1-0.1,0.2-0.1 c1-0.4,1.9-0.4,2.9,0.1c0.1,0,0.1,0,0.1,0.1l0,0l0.2-0.2c1.1-0.9,2.3-1.3,3.7-1.1c1.3,0.2,2.3,0.9,2.8,2.2c0.5,1.1,0.5,2.3,0.4,3.2 c-0.1,0.9-0.3,1.9-0.6,2.9c0.4-0.2,0.8-0.3,1.2-0.5c1.2-0.6,2.1-1.5,2.6-2.7c0.9-1.7,1.1-3.5,0.7-5.2c-0.3-1.3-0.9-2.6-1.8-3.6 c-0.9,0.4-1.8,0.6-2.7,0.7C25.3,23,25,22.6,25,22.3c0-0.4,0.2-0.8,0.8-0.8l0.1,0c0.2,0,0.5-0.1,0.7-0.1c2-0.4,3.5-1.3,4.7-2.8 c0.8-1.1,1.2-2.2,1.2-3.4v0C32.4,14.3,32.1,13.6,31.6,13z M30.6,32.7c0.1,0.3,0.3,0.4,0.5,0.5c0.3,0.1,0.7-0.1,0.9-0.3 c0.3-0.2,0.6-0.5,0.9-0.9c1.1-1.2,1.9-2.6,2.4-4.2c0.2-0.7,0.3-1.3,0.2-1.8c-0.1-0.5-0.4-1-0.8-1.2c-0.4-0.2-0.9-0.2-1.4,0.1 c-0.4,0.2-0.7,0.6-1.1,1c-0.1,0.1-0.2,0.2-0.3,0.3C32.4,28.5,31.9,30.7,30.6,32.7z M30.9,17L30.9,17c-1.2,1-2.7,1.7-4.7,2 c-0.5,0.1-1.1,0.2-1.5,0.2l-0.4,0c-1.5,0-2.7-0.2-3.8-0.7c-0.2-0.1-0.4-0.2-0.6-0.3l-0.2-0.1c-0.4-0.2-0.5-0.7-0.3-1 c0.1-0.2,0.3-0.3,0.5-0.4c0.2,0,0.4,0,0.6,0.2c0.5,0.3,1.1,0.6,1.8,0.7c0.8,0.1,1.7,0.2,2.6,0.1c1-0.1,2-0.3,2.9-0.7 c0.9-0.4,1.7-0.8,2.2-1.3c0.3-0.3,0.5-0.7,0.6-1c0.1-0.3,0.2-0.5,0.4-0.6c0.2-0.1,0.4-0.1,0.6-0.1c0.2,0,0.4,0.2,0.5,0.3 c0.1,0.2,0.1,0.5,0.1,0.7C32,15.8,31.5,16.5,30.9,17z M29.5,14.8c-0.2,0-0.4-0.1-0.7-0.2c-0.5-0.3-0.8-0.8-0.9-1.3 c-0.1-0.6,0.1-1.1,0.4-1.5c0.3-0.4,0.7-0.5,1-0.5c0.3,0,0.7,0.1,1,0.5c0.4,0.3,0.5,0.9,0.5,1.5c0,0.5-0.2,0.9-0.5,1.2 C30.1,14.6,29.8,14.8,29.5,14.8z M22.1,16.4L22.1,16.4L22.1,16.4c-1,0-1.8-0.8-1.8-1.8c0-0.5,0.2-1,0.5-1.3c0.3-0.3,0.8-0.5,1.2-0.5 c0,0,0,0,0,0c1,0,1.8,0.8,1.8,1.8c0,0.5-0.2,1-0.5,1.3C23,16.2,22.6,16.4,22.1,16.4z M20,20.1c0.6,0.2,0.9,0.6,1,1.3c0,0,0,0,0,0 c0.3,0,0.6,0,0.9,0c0.3,0,0.5,0.1,0.8,0.1c0.6,0.2,1,0.6,1.1,1.2c0,0.7-0.3,1.2-0.9,1.4c-0.2,0.1-0.5,0.2-0.7,0.2l0,0 c0,0.1-0.1,0.3-0.1,0.4c-0.3,0.9-1,1.5-1.9,1.6c-0.6,0.1-1.2,0-1.7-0.2c-0.3,0.2-0.7,0.3-1,0.4l-0.2,0.1c-0.1,0-0.2,0.1-0.3,0.1 c-0.3,0-0.6-0.2-0.7-0.5c-0.1-0.2-0.1-0.4,0-0.6c0.1-0.2,0.3-0.4,0.5-0.4c0.4-0.1,0.7-0.2,1-0.5c0.4-0.3,0.7-0.1,0.8-0.1 c0.5,0.2,0.8,0.2,1.2,0.2c0.3,0,0.5-0.2,0.6-0.3c0.2-0.2,0.2-0.5,0.2-0.7c0-0.1-0.1-0.4,0.2-0.7c0.2-0.2,0.5-0.3,0.7-0.3 c0,0,0,0,0.1,0c-0.2,0-0.5,0-0.7,0l-0.5,0c-0.2,0-0.5,0-0.7-0.3c-0.1-0.2-0.2-0.4-0.2-0.5c0,0,0,0.1-0.1,0.1 c-0.1,0.1-0.2,0.3-0.4,0.4c-0.2,0.1-0.2,0.2-0.3,0.3c-0.1,0.4-0.5,0.7-0.9,0.7l-0.3,0c-0.4,0-0.8,0.1-1.3,0c-0.5-0.1-1-0.5-1.3-1.1 c-0.2-0.3,0-0.7,0.2-0.9c0.2-0.2,0.6-0.3,1,0c0.1,0.1,0.1,0.2,0.2,0.2c0.2,0.3,0.5,0.4,1.1,0.3c0.2-0.3,0.4-0.5,0.7-0.7 c0.1-0.1,0.1-0.2,0.1-0.3c0.1-0.2,0.2-0.4,0.4-0.5C18.9,20.1,19.5,19.9,20,20.1z"/>
</svg>