<!-- (c) Carrd Inc. All rights reserved. All logos and trademarks are property of their respective owners. -->
<svg xmlns="http://www.w3.org/2000/svg" id="icon">
<path d="M32.5,35.2c-1.9,0-3.8,0-5.7,0c-1.8-2.7-3.7-5.4-5.5-8.1c-2.2-3.2-4.3-6.4-6.5-9.6c-0.1-0.1-0.2-0.3-0.4-0.4 c0,0-0.1,0-0.1,0.1c0,6,0,12.1,0,18.1c-2.3,0-4.5,0-6.8,0c0-10.1,0-20.2,0-30.3c0.1,0,0.2,0,0.2,0c1.8,0,3.5,0,5.3,0 c0.2,0,0.4,0.2,0.6,0.4c1.9,2.8,3.8,5.6,5.7,8.4c2,2.9,4,5.9,6,8.8c0.1,0.1,0.2,0.2,0.3,0.3c0,0,0.1,0,0.1-0.1c0-5.9,0-11.9,0-17.9 c2.3,0,4.5,0,6.8,0c0,0.2,0,0.4,0,0.6c0,9.7,0,19.4,0,29C32.5,34.7,32.5,35,32.5,35.2z"/>
</svg>