<!-- (c) Carrd Inc. All rights reserved. All logos and trademarks are property of their respective owners. -->
<svg xmlns="http://www.w3.org/2000/svg" id="icon">
<path d="M36.2,9.5c1.3,1.8,2.3,4,2.6,6.2c0.4,2.4,0.2,4.8-0.6,7.3c-0.7,2.2-2,4.2-3.9,6c-1.3,1.2-2.8,2.3-4.4,3.1 c0.8,2.1-0.2,4.4-2.3,5.2c-0.5,0.2-1,0.3-1.4,0.3c-2.2,0-3.9-1.7-4-3.8c-0.5,0-5,0-6-0.1c-0.1,2.2-2,4-4.2,3.9c-2.2-0.1-4-2-3.9-4.2 c0-0.4,0.1-0.8,0.2-1.1c-2.9-1-5.7-2.7-7.8-5.6c-0.7-0.9-0.5-2.2,0.4-2.9c0.4-0.3,0.8-0.4,1.2-0.4c1.4,0,1.9-0.5,2.3-1.2 c0.5-1.1,0.6-2.8,0.8-4.4c0.1-1,0.2-2.1,0.3-3.1c0.6-3.2,2.5-6.1,5.3-8.4c2.6-2,5.7-3.3,8.9-3.8c0.8-0.1,1.6-0.2,2.3-0.2 c2.8,0,5.5,0.7,8,1.9C32.5,5.6,34.6,7.4,36.2,9.5z M28.7,30.4c3.3-1.5,6.4-4.5,7.5-8c3.2-9.7-5-17.9-14.2-17.9c-0.7,0-1.4,0-2.1,0.1 C14.4,5.4,8.6,9.3,7.4,15.1C6.7,19,7.8,25.5,2,25.5c2,2.6,4.6,4.1,7.3,5c1.7-1.5,4.2-1.3,5.7,0.4c0.2,0.2,0.4,0.5,0.5,0.8 c1.1,0.1,6.2,0.1,6.9,0.1c1-2,3.5-2.8,5.5-1.8C28.2,30,28.5,30.2,28.7,30.4z M17.5,16.7c-1.1,0-2-0.9-2-2.1c0-1.1,0.9-2.1,2-2.1 c1.1,0,2,0.9,2,2.1C19.5,15.7,18.6,16.7,17.5,16.7z M26.6,16.7c-1.1,0-2-0.9-2-2.1c0-1.1,0.9-2.1,2-2.1c1.1,0,2,0.9,2,2.1 C28.6,15.7,27.7,16.7,26.6,16.7z M15,20.1c-0.1-0.6,0.2-1.1,0.8-1.2c0.6-0.1,1.1,0.2,1.2,0.8c0,0,0,0,0,0c0.3,1.7,2.3,3.5,5,3.4 c2.8-0.1,4.6-1.7,5-3.4c0.2-0.5,0.7-0.9,1.3-0.7c0.5,0.1,0.8,0.7,0.7,1.2c-0.3,1.3-1.2,2.5-2.4,3.4c-1.3,0.9-2.9,1.5-4.6,1.5l-0.2,0 C18.6,25.2,15.6,23,15,20.1L15,20.1z"/>
</svg>