<!-- (c) Font Awesome (fontawesome.io, SIL OFL) -->
<svg xmlns="http://www.w3.org/2000/svg" id="icon">
<path d="M39.9,18.7v2.5c0,0.7-0.2,1.3-0.6,1.8c-0.4,0.5-1,0.7-1.7,0.7H23.8l5.8,5.8c0.5,0.5,0.7,1.1,0.7,1.8c0,0.7-0.2,1.3-0.7,1.8 l-1.5,1.5c-0.5,0.5-1.1,0.7-1.8,0.7c-0.7,0-1.3-0.2-1.8-0.7L11.8,21.8c-0.5-0.5-0.7-1.1-0.7-1.8c0-0.7,0.2-1.3,0.7-1.8L24.5,5.4 c0.5-0.5,1.1-0.7,1.8-0.7c0.7,0,1.3,0.2,1.8,0.7l1.5,1.5c0.5,0.5,0.7,1.1,0.7,1.8s-0.2,1.3-0.7,1.8l-5.8,5.8h13.8 c0.7,0,1.2,0.2,1.7,0.7C39.7,17.5,39.9,18,39.9,18.7z M3.6,35.3h3.9c0.8,0,1.5-0.7,1.5-1.5V6.2c0-0.8-0.7-1.5-1.5-1.5H3.6 c-0.8,0-1.5,0.7-1.5,1.5v27.6C2.1,34.6,2.8,35.3,3.6,35.3z"/>
</svg>