<!-- (c) Carrd Inc. All rights reserved. All logos and trademarks are property of their respective owners. -->
<svg xmlns="http://www.w3.org/2000/svg" id="icon">
<path d="M40,29.7c0,0.5-0.8,1.2-1.4,1.2c-0.5,0-0.9-0.2-1.2-0.5c-0.8-0.7-1.7-1.4-2.5-2.1c-0.7-0.6-1.4-1.2-2.1-1.8 c-0.5-0.4-0.9-0.7-1.3-1.2c-0.6-0.7-0.9-1.4-0.9-2.3c0-1.1,0-4.7,0-5.5c0-1.2,0.3-2.3,1.1-3.3c0.2-0.3,0.6-0.5,0.9-0.8 c1-0.8,1.9-1.6,2.9-2.3c0.5-0.4,1-0.9,1.5-1.3c0.3-0.3,0.7-0.6,1-0.8c1-0.5,2.2,0.2,2.2,1.3C40,13.8,40,29,40,29.7z M28.7,28.6 c0,0.9-0.3,1.6-1,2.1c-0.3,0.2-0.7,0.4-1,0.4c-0.5,0.1-0.9,0.1-1.4,0.1c-5.5,0-11,0-16.5,0c-1,0-2,0-3-0.2c-1.3-0.2-2.4-0.6-3.4-1.5 c-0.9-0.8-1.6-1.7-2-2.8c-0.2-0.5-0.3-1.1-0.3-1.7C0,20.4,0,15.7,0,11.1c0-1.2,1-2.3,2.3-2.3c3.1,0,14.4,0,16.9,0c1,0,1.9,0,2.9,0.1 c0.8,0.1,1.5,0.1,2.2,0.4c0.7,0.3,1.4,0.7,2,1.2c1.3,1,2,2.3,2.2,3.9c0.1,0.6,0.2,1.2,0.2,1.7C28.7,20.3,28.7,24.4,28.7,28.6z"/>
</svg>