<!-- (c) Carrd Inc. All rights reserved. All logos and trademarks are property of their respective owners. -->
<svg xmlns="http://www.w3.org/2000/svg" id="icon">
<path d="M38,26.2c-0.3,0.6-0.6,1.2-0.8,1.8c-1.6,4.8-4.9,7.7-9.6,9.3c-0.9,0.3-1.9,0.6-2.8,0.8c-1,0.2-1.9,0.2-2.9,0.2 c-1,0-2-0.2-2.9-0.2c-1.4,0-2.6-0.3-3.7-1.1c-0.6-0.4-1.2-0.6-1.9-0.8c-1.3-0.3-2.5-0.6-3.8-1c-2.4-0.6-4-2.3-5.4-4.2 c-0.8-1.1-1.4-2.3-2.1-3.5c-0.3-0.6-0.5-1.2-0.8-1.8c-1-2-1-3.9-0.2-5.9c0.7-1.7,1.5-3.3,2.8-4.6c0.3-0.3,0.4-0.8,0.4-1.2 c0.9-5,3.6-8.6,8.5-10.4c0.3-0.1,0.7-0.3,1-0.5c2.7-1.5,5.4-1.6,8.3-0.6c1.5,0.5,3.1,0.8,4.5,1.4c2.6,1.2,5.2,2.5,7,4.8 c2.6,3.3,4.7,6.9,5.6,11c0.1,0.7,0.2,1.3,0.3,2C39.5,23.4,38.8,24.8,38,26.2z M34.6,30c-0.2,0-0.5,0-0.7,0c0,0,0,0,0,0 C34.1,30,34.4,30,34.6,30z M33.9,30C33.9,30,33.9,30,33.9,30C33.9,30,33.9,30,33.9,30c-0.1,0.2-0.1,0.3-0.1,0.5 C33.8,30.3,33.9,30.1,33.9,30z M3.4,23.9c0.4,0.8,0.8,1.6,1.3,2.5C2.4,24,2.7,21,3,18c-0.1,0.1-0.2,0.1-0.2,0.1 c-1.6,3.2-2.2,6.5,0,9.7c0.5,0.8,1,1.7,1.5,2.6c0.3,0.5,0.6,1,1,1.4c1.9,2,4.4,3.2,7.1,3.7c0.3,0.1,0.6,0,0.7,0 c-0.9-1.4-1.7-2.8-2.6-4.3c-0.1-0.2-0.3-0.4-0.4-0.5c-1.1-0.9-2.2-1.7-3.3-2.7c-0.5-0.4-0.9-0.9-1.2-1.3C4.8,25.9,4.2,24.9,3.4,23.9 C3.5,23.9,3.5,23.9,3.4,23.9z M3.8,18.7c-0.8,2.1,0.8,7.2,2.7,8.6C4.8,24.6,4,21.8,3.8,18.7z M20.4,2.9c-1.7,0.2-3.3,0.4-5,0.5 C13.7,3.7,12,4,10.7,5.3c-0.1,0.1-0.2,0.1-0.3,0.2C9.8,5.7,9.2,5.9,8.8,6.2c-1.5,1.3-2.5,2.8-3.4,4.6c-0.1,0.2-0.1,0.3-0.1,0.5 c-0.1,0.8-0.1,1.6-0.1,2.3c1.1-1.4,2.3-2.9,3.5-4.4c2.5-3.1,5.7-5.1,9.7-5.8c0.7-0.1,1.4-0.2,2.1-0.3C20.4,3.1,20.4,3,20.4,2.9z M8.6,10.8c1.6-1.3,3.1-2.7,4.7-4c1.6-1.4,3.2-2.5,5.3-3c-2.7,0-8.9,3.8-9.7,6c0.4-0.2,0.7-0.3,1-0.5c0,0,0,0.1,0.1,0.1 C9.5,9.9,9.1,10.4,8.6,10.8z M32.9,11.1c-1.5-1.9-3.4-3.2-5.7-3.9c-2.8-0.8-5.6-0.9-8.5-0.1c-4.3,1.1-8.4,2.6-11.4,6 c-0.4,0.4-0.8,0.7-1.2,1.1c-0.8,0.8-1.5,1.8-1.4,3c0.1,1,0.1,2,0.3,3c0.7,3.4,2.6,6.2,4.5,9.1c1.1,1.7,2.7,2.8,4.8,3.3 c0.1,0,0.2,0.1,0.3,0.1c0,0,0,0.1,0,0.1c-0.5-0.1-0.9-0.1-1.6-0.2c0.9,0.8,1.7,1.5,2.5,2.2c0.5,0.4,1,0.6,1.7,0.6c0.7-0.1,1.3,0,2,0 c4.1,0.5,7.8-0.7,11-3.2c1.9-1.5,3.3-3.5,4.4-5.9c-1,1-1.9,1.9-2.8,2.8c-2.5,2.6-5.6,3.9-9,4.7c-0.9,0.2-1.9,0.4-2.8,0 c0.3,0,0.7,0.1,1,0c2.1-0.4,4.2-0.7,6.2-1.8c3.1-1.6,5.6-4,7.8-6.7c0.5-0.6,0.8-1.3,1-2C36.8,18.7,35.7,14.7,32.9,11.1z M38.2,18.7 c-0.1,2.4-0.2,4.7-0.4,7C39.8,23.6,39.4,19.7,38.2,18.7z"/>
</svg>