<!-- (c) Carrd Inc. All rights reserved. All logos and trademarks are property of their respective owners. -->
<svg xmlns="http://www.w3.org/2000/svg" id="icon">
<path d="M15.8,7.1c0,0.6,0,1.1,0,1.6c0,5,0,10,0,15c0,1.7-0.6,3.3-1.8,4.5c-1.7,1.7-3.9,2.4-6.3,2c-2.5-0.4-4.4-1.8-5.3-4.3 c-1-2.6,0.1-5.5,2.1-7c1.5-1.2,3.3-1.6,5.2-1.5c0.4,0,0.6,0.3,0.7,0.6c0.2,0.6,0.3,1.3,0.5,1.9c0.1,0.5-0.3,0.9-0.9,0.9 c-0.5,0-1,0-1.5,0c-1.6,0-3,1.4-3.1,2.8c-0.1,1.5,1,2.7,2.7,3.1c1.5,0.4,3.4-0.4,3.9-1.7c0.2-0.4,0.3-0.9,0.3-1.3 c0-6.4,0-12.8,0-19.1c0-0.1,0-0.2,0-0.3c-0.1-1.6,0.8-2.1,2.3-1.5c4,1.6,8.1,3.1,12.1,4.6c2,0.8,4.1,1.5,6.1,2.3 c0.8,0.3,1.1,0.8,1.1,1.6c0,6.3,0,12.6,0,19c0,1.6-0.3,3.1-1.3,4.4c-1.1,1.4-2.6,2.3-4.4,2.5c-2.4,0.3-4.5-0.2-6.3-1.9 c-2.5-2.5-2.5-6.2-0.1-8.7c1.6-1.7,3.7-2.3,6-2.1c0.2,0,0.5,0.2,0.5,0.4c0.2,0.7,0.4,1.4,0.5,2c0.1,0.7-0.2,0.9-0.8,0.9 c-0.7,0-1.3,0-2,0.1c-1.2,0.2-2.6,1.4-2.5,3c0.1,0.9,0.5,1.7,1.2,2.2c1.5,1.1,3.5,1,4.9-0.3c0.6-0.5,0.9-1.2,0.8-2 c0-5.8,0-11.6,0-17.3c0-0.7-0.2-1-0.8-1.2c-2.7-1-5.4-2.1-8.2-3.1c-1.8-0.7-3.6-1.4-5.4-2.1C16.1,7.2,16,7.2,15.8,7.1z"/>
</svg>