<!-- (c) Carrd Inc. All rights reserved. All logos and trademarks are property of their respective owners. -->
<svg xmlns="http://www.w3.org/2000/svg" id="icon">
<path d="M32.6,27.4c-2.7,0-5-1.4-6.3-3.5c0.7-1.1,1.1-2.5,1.1-3.9c0-1.4-0.4-2.8-1.1-3.9c1.3-2.1,3.6-3.5,6.3-3.5 c4.1,0,7.4,3.3,7.4,7.4C40,24.1,36.7,27.4,32.6,27.4z M26.3,23.9C26.3,23.9,26.3,23.9,26.3,23.9C25,26,22.7,27.4,20,27.4 c-2.7,0-5-1.4-6.3-3.5c0,0,0,0,0-0.1c0.7-1.1,1.1-2.4,1.1-3.9v0c0-1.4-0.4-2.7-1.1-3.9c0,0,0,0,0-0.1c1.3-2.1,3.6-3.5,6.3-3.5 c2.7,0,5,1.4,6.3,3.5c0,0,0,0,0,0c-0.7,1.1-1.1,2.5-1.1,3.9C25.2,21.4,25.6,22.8,26.3,23.9z M13.7,23.9c-1.3,2.1-3.6,3.5-6.3,3.5 C3.3,27.4,0,24.1,0,20c0-4.1,3.3-7.4,7.4-7.4c2.7,0,5,1.4,6.3,3.5c0,0,0,0,0,0v0c-0.7,1.1-1.1,2.5-1.1,3.9 C12.6,21.4,13,22.8,13.7,23.9L13.7,23.9C13.7,23.9,13.7,23.9,13.7,23.9z"/>
</svg>