<!-- (c) Carrd Inc. All rights reserved. All logos and trademarks are property of their respective owners. -->
<svg xmlns="http://www.w3.org/2000/svg" id="icon">
<path d="M32.3,27.9c0,2.2,0,4.3,0,6.5c0,0.5,0,1-0.1,1.5c0,0.3-0.1,0.6-0.2,0.8c-0.3,0.6-0.6,1.2-1.1,1.7 c-0.2,0.2-0.4,0.3-0.6,0.5c-0.2,0.2-0.4,0.3-0.7,0.4c-0.1,0-0.1,0.1-0.2,0.1c-0.4,0.2-0.8,0.3-1.2,0.4C27.9,40,27.7,40,27.4,40 c-4.9,0-9.9,0-14.8,0c-0.4,0-0.7,0-1.1-0.2c-0.1,0-0.1,0-0.2-0.1c-0.2-0.1-0.3-0.1-0.5-0.2c-0.3-0.1-0.5-0.2-0.7-0.4 c-0.2-0.1-0.4-0.3-0.6-0.4c-0.5-0.4-0.8-0.8-1.1-1.3c-0.3-0.5-0.5-1.1-0.6-1.8c0-0.3-0.1-0.6-0.1-0.8c0-4.6,0-9.3,0-13.9 c0-0.5,0.1-0.9,0.3-1.4c0.1-0.2,0.2-0.4,0.3-0.6c0.2-0.3,0.4-0.6,0.6-0.9c0.2-0.3,0.5-0.6,0.9-0.9c0.2-0.1,0.4-0.3,0.6-0.4 c0.2-0.1,0.3-0.3,0.3-0.5c0-0.3,0-0.6,0-0.8c0-0.1,0-0.2,0-0.4c0-0.1,0.1-0.2,0.2-0.2c0.2,0,0.3,0,0.5,0c2.8,0,5.6,0,8.4,0 c2.9,0,5.9,0,8.8,0c0,0,0.1,0,0.1,0c0.2,0,0.3,0.1,0.3,0.3c0,0.3,0,0.6,0,0.9c0,0.2,0.1,0.4,0.3,0.5c0.5,0.2,1,0.6,1.4,1 c0.3,0.3,0.6,0.7,0.8,1.1c0.1,0.2,0.2,0.4,0.3,0.7c0.1,0.2,0.1,0.4,0.2,0.5c0.1,0.3,0.1,0.5,0.2,0.8c0,0.2,0,0.3,0.1,0.5 c0,0.2,0,0.3,0,0.5C32.3,23.8,32.3,25.8,32.3,27.9z M30,21.9c0-0.3,0-0.6-0.1-0.9c0-0.1,0-0.2,0-0.2c0-0.1-0.1-0.3-0.1-0.4 c0-0.1-0.1-0.3-0.2-0.4c-0.1-0.2-0.2-0.4-0.4-0.5c-0.2-0.3-0.4-0.5-0.7-0.6c-0.3-0.1-0.5-0.3-0.8-0.3c-0.2-0.1-0.4-0.1-0.6-0.1 c-0.3-0.1-0.5-0.2-0.4-0.6c0-0.1,0-0.2,0-0.4c0-0.2-0.1-0.2-0.3-0.2c-0.2,0-0.3,0-0.5,0c-1.5,0-3,0-4.4,0c-2.6,0-5.2,0-7.8,0 c-0.2,0-0.3,0-0.5,0c-0.1,0-0.2,0.1-0.2,0.2c0,0.1,0,0.3,0,0.4c0,0.2-0.1,0.4-0.3,0.5c-0.1,0-0.2,0.1-0.3,0.1 c-0.4,0.1-0.8,0.3-1.1,0.5c-0.4,0.3-0.6,0.6-0.9,1c-0.2,0.4-0.3,0.7-0.3,1.2c0,4.5,0,9.1,0,13.6c0,0.9,0.3,1.6,0.9,2.1 c0.5,0.4,1,0.8,1.7,0.8c0.2,0,0.4,0,0.6,0c2.3,0,4.6,0,6.9,0c0,0,0,0,0,0c2.4,0,4.8,0,7.2,0c0.2,0,0.5-0.1,0.7-0.1 c0.1,0,0.1-0.1,0.2-0.1c0.2-0.1,0.5-0.2,0.7-0.4c0.2-0.2,0.5-0.5,0.7-0.7c0.2-0.2,0.3-0.5,0.4-0.8c0.1-0.4,0.1-0.7,0.1-1.1 C30,30.3,30,26.1,30,21.9z M26.3,26.7c-0.1,0.6-0.3,1.1-0.6,1.6c-0.4,0.6-0.9,1.1-1.4,1.6c-1.3,1.3-2.6,2.6-3.9,3.9 c-0.1,0.1-0.1,0.1-0.2,0.2c-0.1,0.1-0.3,0.1-0.4,0c-1.3-1.3-2.6-2.6-3.9-4c-0.3-0.3-0.6-0.6-0.9-0.9c-0.3-0.3-0.6-0.6-0.8-1 c-0.2-0.4-0.4-0.8-0.5-1.2c-0.1-0.3-0.1-0.6-0.1-0.9c0-0.6,0.2-1.1,0.4-1.6c0.3-0.6,0.7-1,1.3-1.3c0.7-0.4,1.5-0.5,2.3-0.5 c0.3,0,0.5,0.2,0.8,0.2c0.5,0.2,1,0.5,1.4,0.9c0.2,0.2,0.3,0.2,0.5,0c0.3-0.2,0.6-0.4,0.9-0.6c0.7-0.4,1.5-0.6,2.3-0.5 c0.4,0,0.8,0.2,1.2,0.4c0.6,0.3,1,0.7,1.3,1.2c0.2,0.3,0.3,0.6,0.4,0.9c0.1,0.3,0.1,0.5,0.1,0.8C26.3,26.2,26.3,26.5,26.3,26.7z M28.5,13.5c-0.3,0.4-0.8,0.6-1.3,0.6c-4.9,0-9.7,0-14.6,0c-0.3,0-0.5-0.1-0.8-0.2c-0.3-0.1-0.6-0.4-0.7-0.7 C11,13,11,12.8,10.9,12.5c0-0.3,0.1-0.7,0.3-0.9c0.3-0.4,0.7-0.7,1.3-0.7c2.5,0,5,0,7.5,0c2.5,0,4.9,0,7.4,0c0.4,0,0.8,0.2,1.1,0.4 c0.3,0.3,0.5,0.7,0.5,1.1C28.9,12.8,28.8,13.2,28.5,13.5z M26.3,9.4c0,0.1-0.1,0.3-0.2,0.4C26,10,25.8,10,25.7,10 c-0.6,0-1.3,0-1.9,0c-0.3,0-0.6,0-0.9,0c0,0,0,0,0,0c-0.9,0-1.8,0-2.7,0c-0.2,0-0.3,0-0.5,0c-0.1,0-0.2-0.1-0.2-0.1 c-0.1-0.2-0.2-0.5-0.3-0.7c0-0.1,0-0.2-0.1-0.2C18.9,8.5,19,8.1,19,7.7c0-0.5,0.1-0.9,0.3-1.3c0.3-0.7,0.7-1.2,1.3-1.6 c0.2-0.2,0.5-0.3,0.8-0.4c0.1-0.1,0.3-0.1,0.5-0.1c0.4-0.1,0.7-0.2,1.1-0.2c0.5,0,1,0.1,1.4,0.3c0.4,0.2,0.7,0.4,1,0.7 c0.3,0.3,0.6,0.6,0.8,1c0.2,0.3,0.3,0.7,0.4,1c0.1,0.4,0.1,0.9,0,1.3C26.5,8.7,26.4,9.1,26.3,9.4z M21.7,3.4 c-0.2,0.1-0.4,0.1-0.6,0.2c-0.2,0.1-0.4,0.1-0.5,0.2c-0.4,0.1-0.7,0.3-1,0.6c-0.3,0.2-0.5,0.4-0.7,0.7c-0.3,0.4-0.5,0.8-0.7,1.2 c-0.2,0.7-0.3,1.4-0.2,2.1c0.1,0.3-0.1,0.4-0.4,0.4c-0.2,0-0.5,0-0.7,0c-0.4-0.1-0.8-0.2-1.2-0.4c-0.4-0.2-0.8-0.4-1.1-0.7 c-0.1-0.1-0.3-0.2-0.4-0.4c-0.1-0.1-0.1-0.2-0.2-0.3c-0.2-0.3-0.5-0.7-0.6-1.1c-0.2-0.5-0.3-1-0.2-1.6c0,0,0,0,0,0 c0-0.3,0-0.7,0.1-1c0.1-0.3,0.1-0.6,0.3-0.9c0.1-0.2,0.2-0.4,0.3-0.6c0.1-0.2,0.3-0.4,0.5-0.6c0.4-0.4,0.8-0.7,1.3-0.9 c0.5-0.2,1-0.4,1.5-0.4c0.5,0,1.1,0,1.6,0.1c0.3,0.1,0.6,0.2,0.9,0.4c0.4,0.2,0.7,0.4,0.9,0.7c0.2,0.2,0.4,0.5,0.6,0.8 c0.2,0.2,0.3,0.5,0.4,0.7c0.1,0.2,0.1,0.4,0.2,0.5C21.9,3.3,21.8,3.4,21.7,3.4z"/>
</svg>