<!-- (c) Carrd Inc. All rights reserved. All logos and trademarks are property of their respective owners. -->
<svg xmlns="http://www.w3.org/2000/svg" id="icon">
<path d="M33.9,28.4c-0.2,0.5-0.5,0.9-0.8,1.2l-7.3,7.2c-0.7,0.7-1.7,1.1-2.7,1.1h-5.3c-1,0-2-0.4-2.7-1.1l-7.3-7.2 c-0.4-0.4-0.6-0.8-0.8-1.2c-0.2-0.5-0.3-1-0.3-1.5V11c0-0.1,0-0.3,0.1-0.4c0.1-0.1,0.2-0.2,0.3-0.2c0.1-0.1,0.3-0.1,0.4,0 c0.1,0,0.3,0.1,0.3,0.2l5.6,5.6V0.7c0-0.1,0-0.3,0.1-0.4c0.1-0.1,0.2-0.2,0.3-0.2C14.1,0,14.2,0,14.3,0c0.1,0,0.3,0.1,0.3,0.2 l18.4,18.4h0c0.4,0.4,0.6,0.8,0.8,1.2c0.2,0.5,0.3,1,0.3,1.5V27C34.2,27.5,34.1,28,33.9,28.4z M27.5,23c0-0.1,0-0.3-0.1-0.4 c-0.1-0.1-0.1-0.3-0.2-0.4L25,20.1c-0.2-0.2-0.5-0.3-0.8-0.3c-0.3,0-0.6,0.1-0.8,0.3l-2.9,2.9l-2.9-2.9c-0.2-0.2-0.5-0.3-0.8-0.3 c-0.3,0-0.6,0.1-0.8,0.3l-2.1,2.1c-0.1,0.1-0.2,0.2-0.2,0.4c-0.1,0.1-0.1,0.3-0.1,0.4v2.2c0,0.3,0.1,0.6,0.3,0.8l5.8,5.9 c0.1,0.1,0.2,0.2,0.4,0.2c0.1,0.1,0.3,0.1,0.4,0.1c0.2,0,0.3,0,0.4-0.1c0.1-0.1,0.3-0.1,0.4-0.2l5.8-5.9c0.2-0.2,0.3-0.5,0.3-0.8V23 z"/>
</svg>