<!-- (c) Carrd Inc. All rights reserved. All logos and trademarks are property of their respective owners. -->
<svg xmlns="http://www.w3.org/2000/svg" id="icon">
<path d="M4,24.6c2.5,0,5.1,0,7.6,0c0,0.3,0,0.6,0.1,0.9c0.1,1.4,0.6,2,2,2.1c1.5,0.1,3,0.1,4.5,0.1c2.5,0,5.1,0,7.6-0.1 c0.4,0,0.9-0.1,1.3-0.2c0.5-0.1,0.8-0.4,0.9-0.9c0.1-0.7,0.1-1.3,0.1-2c0-0.5-0.4-0.8-0.9-1c-0.5-0.1-0.9-0.2-1.4-0.3 c-3.9-0.2-7.8-0.3-11.8-0.5c-1.7-0.1-3.3-0.1-4.9-0.4c-2.8-0.4-4.2-1.9-4.7-4.7c-0.4-2.3-0.3-4.6,0.2-6.9c0.6-2.6,2.3-4,4.8-4.4 c1.6-0.3,3.3-0.3,4.9-0.4c4.4-0.1,8.7-0.2,13.1,0.1c1.5,0.1,2.9,0.4,4.3,0.9c1.5,0.6,2.4,1.7,2.8,3.2c0.4,1.5,0.5,3.1,0.4,4.7 c-2.6,0-5.1,0-7.7,0c0-0.3-0.1-0.6-0.1-0.9c-0.1-1-0.6-1.6-1.6-1.7c-1-0.1-2-0.2-3.1-0.2c-2.7,0-5.3,0-8,0.1c-0.5,0-0.9,0.1-1.4,0.1 c-0.6,0.1-1,0.5-1.1,1.1c-0.1,0.5-0.1,1,0,1.5c0.1,0.6,0.6,1,1.3,1.1c1.6,0.1,3.3,0.2,4.9,0.3c3.3,0.2,6.6,0.3,9.9,0.4 c1.5,0.1,2.9,0.2,4.3,0.8c1.6,0.6,2.6,1.8,3,3.4c0.7,2.9,0.7,5.8-0.1,8.7c-0.7,2.4-2.5,3.6-4.8,3.8c-2.1,0.2-4.2,0.4-6.2,0.4 c-3.7,0-7.5,0-11.2-0.1c-1.7,0-3.4-0.3-5.1-0.8c-2.3-0.7-3.6-2.2-3.8-4.5C4,27.4,4,26.1,4,24.8C4,24.8,4,24.7,4,24.6z"/>
</svg>