<!-- (c) Carrd Inc. All rights reserved. All logos and trademarks are property of their respective owners. -->
<svg xmlns="http://www.w3.org/2000/svg" id="icon">
<path d="M35.5,30.9c-2,0-3.5-1.6-3.5-3.6c0-2,1.6-3.6,3.5-3.6c2,0,3.5,1.6,3.5,3.6C39,29.3,37.4,30.9,35.5,30.9z M34,12.4c-0.4,0.4-0.8,0.8-1.1,1.4c-0.3,0.5-0.6,1-0.8,1.6c-0.2,0.5-0.4,0.9-0.5,1.2l-4.9,14.3h-4.6l-3-9.2c-0.1-0.2-0.2-0.5-0.3-1 c-0.1-0.4-0.3-0.9-0.4-1.4c-0.1-0.5-0.3-1-0.4-1.5c-0.1-0.5-0.3-1-0.4-1.5h0c-0.1,0.6-0.2,1.3-0.4,2c-0.2,0.8-0.4,1.5-0.6,2.2 c-0.2,0.7-0.4,1.4-0.6,1.9c-0.2,0.6-0.3,1-0.4,1.2l-2.4,7.1H9l-5.2-15c-0.2-0.6-0.4-1-0.5-1.3c-0.1-0.3-0.2-0.6-0.3-0.9 c-0.1-0.2-0.1-0.5-0.2-0.7c0-0.2-0.1-0.4-0.1-0.7L1,12.4V9.1h10.3v2.8c-0.6,0-1,0.2-1.3,0.5c-0.2,0.3-0.4,0.7-0.4,1.2 c0,0.2,0,0.5,0.1,0.8c0.1,0.3,0.1,0.5,0.2,0.8l1.5,5.3c0.2,0.6,0.3,1.3,0.5,2c0.2,0.7,0.3,1.4,0.4,2.1h0c0.1-0.3,0.1-0.6,0.2-1 c0.1-0.3,0.1-0.7,0.2-1c0.1-0.4,0.2-0.8,0.3-1.2c0.1-0.4,0.2-0.9,0.4-1.5l3.2-10.9h4.7L24.7,21c0.2,0.6,0.3,1.3,0.5,2 c0.2,0.7,0.4,1.4,0.5,1.9h0c0.1-0.6,0.2-1.2,0.4-1.9c0.2-0.7,0.4-1.3,0.6-1.9l1.7-5.5c0.1-0.4,0.2-0.8,0.3-1.1 c0.1-0.3,0.2-0.6,0.3-0.9c0.1-0.3,0.2-0.5,0.3-0.8c0.1-0.2,0.2-0.5,0.3-0.7v0l-2.5,0.2V9.1h8.2v2.8C34.9,11.9,34.4,12,34,12.4z"/>
</svg>