<!-- (c) Carrd Inc. All rights reserved. All logos and trademarks are property of their respective owners. -->
<svg xmlns="http://www.w3.org/2000/svg" id="icon">
<path d="M0,8.34h6.07v16.3c0,2.58,1.18,4.12,2.11,4.78c-0.99,0.88-4.01,1.65-6.26-0.22C0.6,28.1,0,26.29,0,24.59V8.34z M37.96,21.88v-1.71h1.85v-6.01h-2.03c-0.78-3.61-3.99-6.31-7.84-6.31c-4.43,0-8.01,3.59-8.01,8.01v14.04 c1.26,0.18,2.76-0.02,4.04-1.08c1.33-1.1,1.93-2.91,1.93-4.61v-0.52h3.03v-6.01H27.9v-1.82h0.01c0-1.12,0.91-2.04,2.04-2.04 c1.12,0,2.04,0.91,2.04,2.04v6.02c0,4.43,3.59,8.01,8.02,8.01v-5.98C38.88,23.92,37.96,23,37.96,21.88z M14.96,14.16v8.82 c0,0.5-0.42,0.91-0.93,0.91s-0.93-0.41-0.93-0.91v-8.82H7.09v10.37c0,1.87,0.63,4.23,3.51,4.99c2.88,0.77,4.56-0.82,4.56-0.82 c-0.15,1.05-1.14,1.82-2.73,1.98c-1.2,0.12-2.74-0.27-3.51-0.6v5.5c1.96,0.58,4.03,0.76,6.05,0.37c3.68-0.71,6-3.79,6-7.88V14.16 H14.96z"/>
</svg>