<!-- (c) Carrd Inc. All rights reserved. All logos and trademarks are property of their respective owners. -->
<svg xmlns="http://www.w3.org/2000/svg" id="icon">
<path d="M22,40c-1.3,0-2.7,0-4,0c-3.8,0-7.6,0-11.4,0c0-0.8,0-1.7,0-2.5c0-0.3,0-0.6,0-0.9c0-0.1,0-0.1,0-0.2 c0.1-1.2,0.3-2.4,0.8-3.6c0.6-1.5,1.4-2.7,2.6-3.7c0.4-0.3,0.7-0.6,1.1-0.9c1.5-1.2,2.9-2.7,3.9-4.4c1.2-2,1.5-4.1,1.4-6.4 c-0.1,0-0.1,0-0.2,0c-1.2,0-2.5,0-3.7,0c-0.1,0-0.2,0-0.3-0.2c-0.4-0.7-0.6-1.5-0.6-2.4c0-0.2,0-0.2,0.2-0.3 c1.4-0.9,2.8-1.9,4.2-2.8c0.1,0,0.1-0.1,0.2-0.2c-0.1-0.1-0.1-0.1-0.2-0.2C14.2,10,13.4,8,13.6,5.7c0.3-2.7,2.2-4.9,4.9-5.5 c0.3-0.1,0.7-0.1,1-0.2c0.4,0,0.7,0,1.1,0c0.1,0,0.1,0,0.2,0c0.6,0.1,1.2,0.2,1.7,0.4c4.6,1.9,5.4,8,1.5,11.1c0,0-0.1,0.1-0.1,0.1 c0.1,0.1,0.1,0.1,0.2,0.1c1.4,0.9,2.8,1.9,4.3,2.8c0.1,0.1,0.2,0.2,0.2,0.3c0,0.8-0.3,1.6-0.6,2.4c-0.1,0.1-0.1,0.2-0.3,0.2 c-1.2,0-2.5,0-3.7,0c-0.1,0-0.1,0-0.2,0c0,0,0,0,0,0.1c0,0.3,0,0.6,0,0.9c0,1.9,0.4,3.8,1.4,5.4c0.9,1.6,2.2,3,3.7,4.2 c0.6,0.5,1.2,0.9,1.7,1.4c1.8,1.7,2.6,3.8,2.9,6.1c0.1,0.4,0.1,0.7,0.1,1.1c0,0.3,0,0.6,0,0.9c0,0.8,0,1.7,0,2.5 C29.6,40,25.8,40,22,40z M16,24.2c-0.6,1-1.3,2-2.1,2.9c-0.6,0.6-1.1,1.1-1.7,1.7c-0.3,0.3-0.6,0.5-0.8,0.7 c-0.6,0.5-1.2,0.9-1.6,1.5c-0.4,0.6-0.8,1.2-1.1,1.9c0,0,0,0,0,0c0.1,0,0.3,0.1,0.4,0.1c1.2,0.4,2.4,0.5,3.7,0.6c0.8,0,1.6,0,2.4,0 c0.7,0,1.4-0.2,2-0.5c0.3-0.2,0.7-0.3,0.9-0.6c0.3-0.3,0.4-0.7,0.6-1c0.3-1,0.5-1.9,0.7-2.9c0.2-0.8,0.3-1.6,0.5-2.4 c0.1-0.6,0.2-1.1,0.3-1.7c0.1-0.8,0.3-1.5,0.4-2.3c0.1-0.4-0.1-0.8-0.4-1.1c-0.8-0.5-1.8-0.8-2.7-1c-0.1,0.5-0.2,1-0.3,1.5 C16.8,22.5,16.5,23.4,16,24.2z M23.6,7.2c0.3-0.7,0.4-1.5,0.3-2.3c-0.2-0.9-0.5-1.7-1-2.5c-0.4-0.5-0.7-1-1.4-1.2 c-0.7-0.2-1.5-0.4-2.3-0.2c-0.8,0.2-1.5,0.4-2.2,0.9c-0.5,0.3-0.9,0.6-1.2,1.1c-0.5,0.7-0.9,1.4-1.1,2.2c-0.2,0.6-0.3,1.2-0.1,1.8 c0.2,0.8,0.4,1.5,0.8,2.2c0.3,0.5,0.6,0.9,1,1.3c0.4,0.3,0.8,0.7,0.7,1.3c0,0.1,0,0.1,0,0.2c0,0.1-0.1,0.2-0.1,0.3 c-0.4,0.5-0.9,0.8-1.5,1.1c-0.9,0.6-1.9,1.2-2.8,1.8c-0.1,0.1-0.1,0.1-0.1,0.2c0.1,0.4,0.2,0.7,0.3,1.1c2.9,0,5.9,0,8.8,0 c0.1-0.4,0.2-0.8,0.3-1.2c0-0.1,0-0.2,0-0.2c-0.2-0.3-0.4-0.5-0.7-0.8c-0.5-0.6-1.1-1.2-1.6-1.9c-0.1-0.1-0.2-0.3-0.2-0.5 c0-0.2,0-0.4,0-0.6c0-0.1,0-0.1,0.1-0.2c0.3-0.3,0.5-0.5,0.9-0.7c0.6-0.3,1.2-0.7,1.8-1.1C22.9,8.7,23.3,8,23.6,7.2z"/>
</svg>