<!-- (c) Carrd Inc. All rights reserved. All logos and trademarks are property of their respective owners. -->
<svg xmlns="http://www.w3.org/2000/svg" id="icon">
<path d="M4.5,34.2c1.1,0,2.3,0,3.4,0c0.3,0,0.7-0.2,0.9-0.4c0.6-0.6,1.3-1.3,1.8-2c1.5-2.1,2.8-4.3,3.7-6.7c0.2-0.5,0.2-0.9-0.1-1.4 c-2-3.7-1.6-7.4-0.2-11.1c1.9-4.9,5.8-7.9,10.6-9.7c1.5-0.6,3.1-0.8,4.7-1.1c0.2,0,0.4-0.1,0.6-0.1c1.9,0,3.7,0,5.6,0 c0,0.4,0,0.8,0,1.2C35.2,2.8,35,3,34.8,3c-0.8-0.1-1.6-0.4-2.4-0.4C31,2.4,29.8,2.6,29.1,4c-2,3.9-4.2,7.7-6.1,11.6 c-2.8,5.7-5.5,11.4-8.2,17.2c-0.2,0.4-0.3,0.9-0.5,1.5c1.2,0,2.3,0,3.6,0c0,0.8,0,1.6,0,2.3c-4.4,0-8.9,0-13.3,0 C4.5,35.7,4.5,34.9,4.5,34.2z M24.3,4.4c-1.9,0.6-3,1.8-4,3.1c-2,2.7-3.4,5.6-4.1,8.8c-0.3,1.4-0.5,2.9-0.7,4.3c0.1,0,0.2,0,0.2,0 C18.5,15.3,21.4,9.9,24.3,4.4z"/>
</svg>