<!-- (c) Carrd Inc. All rights reserved. All logos and trademarks are property of their respective owners. -->
<svg xmlns="http://www.w3.org/2000/svg" id="icon">
<path d="M33.9,31.9c0,0,0,0.1,0,0.1c0,0,0,0,0,0l0,0c-0.1,1.5-1.4,2.8-2.9,2.8v0h0c0,0,0,0,0,0c0,0,0,0,0,0H8.8v0 c-1.5-0.1-2.6-1.3-2.8-2.8l0,0v0c0,0,0,0,0,0c0-0.1,0-0.1,0-0.2L5,9.9h0c0,0,0,0,0-0.1c0-0.4,0.3-0.6,0.6-0.7h7C12.8,4.7,16,1,20,1 c4,0,7.2,3.6,7.4,8.2h6.9h0c0.4,0,0.6,0.3,0.6,0.7c0,0,0,0,0,0L33.9,31.9z M20,3c-2.9,0-5.3,2.7-5.4,6.2h10.7C25.3,5.8,22.9,3,20,3z M26,25.3c-0.1-1.3-0.8-2.2-1.8-3c-1.1-0.8-2.4-1.4-3.7-1.8c-0.9-0.3-1.8-0.6-2.5-1.1c-0.9-0.6-1.2-1.6-0.9-2.4 c0.3-0.7,0.9-1.2,1.7-1.4c1.1-0.3,2.2-0.2,3.3,0.2c0.5,0.2,1,0.5,1.5,0.7c0.5,0.3,0.8,0.2,1.2-0.3c0.1-0.2,0.2-0.4,0.4-0.5 c0.4-0.6,0.3-0.9-0.3-1.3c-1.6-1-3.3-1.5-5.1-1.4c-1.2,0-2.3,0.4-3.3,1.1c-1.8,1.2-2.4,3.4-1.6,5.3c0.5,1.2,1.5,2,2.7,2.6 c0.9,0.4,1.8,0.7,2.7,1.1c0.8,0.3,1.6,0.6,2.3,1.1c1.5,1.2,1.3,3.1-0.4,3.9c-1.2,0.5-2.4,0.5-3.6,0.2c-1-0.3-2-0.8-2.8-1.5 c-0.4-0.3-0.8-0.3-1.1,0.2c-0.3,0.4-0.5,0.8-0.8,1.1c0,0.1,0,0.1,0,0.2c0.2,0.5,0.7,0.7,1.1,1c1.3,0.9,2.8,1.4,4.4,1.6 c0.1,0,0.2,0,0.2,0.1c0.5,0,0.9,0,1.4,0c0.2,0,0.4-0.1,0.7-0.1c1.3-0.3,2.5-0.8,3.4-1.9C25.8,27.9,26.1,26.6,26,25.3z"/>
</svg>