<!-- (c) Carrd Inc. All rights reserved. All logos and trademarks are property of their respective owners. -->
<svg xmlns="http://www.w3.org/2000/svg" id="icon">
<path d="M24.8,35.5c-6.4,0-12.9,0-19.3,0c0-2.4,0-4.7,0-7.1c1.5,0,2.9,0,4.4,0c0-5.6,0-11.2,0-16.8c-1.5,0-2.9,0-4.4,0 c0-2.4,0-4.7,0-7.1c6.4,0,12.7,0,19.1,0c0.4,0.1,0.8,0.2,1.3,0.3c3.2,0.9,5.8,2.6,7.7,5.4c2,2.9,2.8,6.1,3,9.5c0.1,2-0.3,4.1-0.9,6 c-1.6,4.8-4.8,8.1-9.7,9.5C25.5,35.3,25.2,35.4,24.8,35.5z M18.5,11.6c0,5.6,0,11.2,0,16.8c1,0,2,0,3,0c0.6,0,1.2-0.1,1.7-0.4 c0.4-0.2,0.8-0.5,1.1-0.8c0.9-0.9,1.5-2.1,1.8-3.3c0.5-1.9,0.6-3.9,0.4-5.9c-0.2-1.3-0.5-2.5-1.1-3.6c-0.6-1.2-1.5-2.1-2.7-2.6 c-0.2-0.1-0.4-0.2-0.6-0.2C20.9,11.6,19.7,11.6,18.5,11.6z"/>
</svg>