<!-- (c) Carrd Inc. All rights reserved. All logos and trademarks are property of their respective owners. -->
<svg xmlns="http://www.w3.org/2000/svg" id="icon">
<path d="M20,36c-8.8,0-16-7.2-16-16S11.2,4,20,4s16,7.2,16,16S28.8,36,20,36z M28.6,21.1c-0.5-0.1-1,0.2-1.1,0.6 c-0.5,2-1.6,3.5-3,4.5c-1.4,1-3,1.5-4.7,1.5c-1.6,0-3.2-0.5-4.5-1.4c-1.3-1-2.3-2.4-2.8-4.4c-0.1-0.5-0.6-0.8-1.1-0.7 c-0.5,0.1-0.8,0.6-0.7,1.1c0.6,2.4,1.9,4.2,3.5,5.4c1.6,1.2,3.6,1.8,5.6,1.8c2,0,4-0.6,5.7-1.8c1.7-1.2,3-3.1,3.7-5.5 C29.4,21.7,29.1,21.2,28.6,21.1z"/>
</svg>