<!-- (c) Carrd Inc. All rights reserved. -->
<svg xmlns="http://www.w3.org/2000/svg" id="icon">
<path d="M10.5,19.9c0-0.3,0.1-0.3,0.1-0.4L23.3,6.7c0.1-0.1,0.1-0.1,0.4-0.1s0.3,0.1,0.4,0.1l1.5,1.5c0.1,0.1,0.1,0.1,0.1,0.4 S25.6,8.9,25.6,9l-9.2,9.2h22.4c0.1,0,0.2,0,0.2,0l0,0c0.1,0.1,0.1,0.2,0.1,0.4v2.5c0,0.2-0.1,0.4-0.1,0.5c0,0-0.1,0-0.2,0H16.4 l9.2,9.2c0.1,0.1,0.1,0.1,0.1,0.4s-0.1,0.3-0.1,0.4l-1.5,1.5c-0.1,0.1-0.1,0.1-0.4,0.1s-0.3-0.1-0.4-0.1L10.6,20.3 C10.6,20.2,10.5,20.2,10.5,19.9z M5.6,33.2h2.2c0.4,0,0.7-0.3,0.7-0.7V7.3c0-0.4-0.3-0.7-0.7-0.7H5.6C5.2,6.6,5,6.9,5,7.3v25.3 C4.9,32.9,5.2,33.2,5.6,33.2z"/>
</svg>