<!-- (c) Carrd Inc. All rights reserved. All logos and trademarks are property of their respective owners. -->
<svg xmlns="http://www.w3.org/2000/svg" id="icon">
<path d="M14.4,21.6H19V23c0,1.2-0.2,2-0.5,2.6c-0.4,0.7-1.1,1.2-2.3,1.5c-1.1,0.2-3,0.4-5.7,0.4c-2.8,0-4.9-0.1-6-0.2 c-1.2-0.1-2.2-0.3-2.7-0.6c-0.5-0.3-1-0.6-1.2-1.2c-0.2-0.4-0.4-1.2-0.5-1.9v-3.6c0-1.7,0-2.9,0.1-3.7c0.1-0.7,0.2-1.3,0.3-1.7 c0.4-1,1.3-1.5,2.5-1.8c1.3-0.3,3.9-0.4,7.8-0.4c1.9,0,3.3,0,4.2,0.1c0.9,0.1,1.6,0.2,2,0.5c0.6,0.3,1.2,0.7,1.4,1.4 c0.3,0.6,0.4,1.5,0.4,2.7v0.7h-4.5c0-0.5,0-0.8-0.1-1c0-0.2-0.1-0.3-0.2-0.4c-0.2-0.1-0.6-0.2-1.3-0.3c-0.8-0.1-1.7-0.1-3.2-0.1 c-1.4,0-2.4,0-2.9,0.1c-0.5,0-1,0.1-1.2,0.3c-0.2,0.2-0.4,0.5-0.5,1.1c-0.1,0.5-0.2,1.3-0.2,2.4c0,1.1,0,1.9,0.1,2.3 c0.1,0.4,0.3,0.7,0.5,1c0.2,0.2,0.6,0.3,1.2,0.4c0.5,0.1,1.5,0.1,2.9,0.1c1.7,0,2.9,0,3.5-0.1c0.5-0.1,1-0.2,1.2-0.4 C14.3,23.1,14.4,22.5,14.4,21.6z M29.6,19H40v0.4c0,2.1-0.1,3.6-0.2,4.7c-0.2,1.7-1.2,2.7-2.9,3.1c-0.8,0.1-1.6,0.2-2.6,0.3 c-1,0-2.5,0.1-4.5,0.1c-2.6,0-4.3-0.1-5.4-0.2c-1.1-0.1-1.9-0.4-2.5-0.8c-0.4-0.3-0.8-0.6-1-1.1c-0.2-0.4-0.4-1.1-0.4-1.7 c-0.1-0.6-0.1-2-0.1-3.9c0-1.4,0-2.3,0.1-3.1c0.1-0.6,0.2-1.3,0.4-1.8c0.4-1.2,1.3-1.8,2.7-2c1.5-0.2,3.9-0.4,7-0.4 c1.8,0,3.3,0,4.4,0.1c1.1,0.1,1.9,0.2,2.7,0.4c1.2,0.3,1.8,1.2,2,2.3c0.1,0.5,0.2,1.4,0.2,2.4h-4.5c0-0.4,0-0.7-0.1-0.8 c0-0.1-0.1-0.3-0.3-0.4c-0.2-0.2-0.8-0.3-1.6-0.3c-0.8,0-1.8-0.1-3.3-0.1c-1.5,0-2.7,0-3.3,0.1c-0.6,0.1-1.1,0.2-1.4,0.4 c-0.2,0.2-0.4,0.5-0.5,1c0.1,0.4,0,1.2,0,2.2c0,1.3,0,2.1,0.1,2.5c0.1,0.5,0.2,0.8,0.5,1.1c0.2,0.2,0.5,0.3,1,0.3 c0.4,0,1.6,0.1,3.8,0.1c2,0,3.3,0,3.8-0.1c0.4,0,0.8-0.1,1.1-0.2c0.2-0.1,0.3-0.2,0.4-0.4c0.1-0.2,0.1-0.5,0.1-1v-0.4h-5.9V19z"/>
</svg>