<!-- (c) Carrd Inc. All rights reserved. All logos and trademarks are property of their respective owners. -->
<svg xmlns="http://www.w3.org/2000/svg" id="icon">
<path d="M26.9,37H12.8c-0.7,0-1.4-0.2-2.1-0.5C10,36.2,9.4,35.9,9,35.4c-0.9-1-1.3-2.6-1.4-4.6v-11c0-2,0.5-3.5,1.4-4.6 c0.5-0.4,1-0.8,1.7-1.1c0.7-0.3,1.4-0.5,2.1-0.5h14.1c3.6,0,5.5,2,5.5,6V31C32.3,35,30.5,37,26.9,37z M28.6,12.3 c-0.8-4-4.3-6.9-8.6-6.9c-4.2,0-7.7,3-8.6,6.9c-0.5,0.1-0.9,0.3-1.4,0.5c-0.7,0.3-1.3,0.7-1.8,1.2c0-0.6,0-1.1,0-1.7 C8.5,6,13.7,1,20,1c6.1,0,11.2,4.7,11.7,10.7c0.1,0.7,0.1,1.4,0.1,2.2C30.9,13.1,29.9,12.6,28.6,12.3z"/>
</svg>