<!-- (c) Carrd Inc. All rights reserved. All logos and trademarks are property of their respective owners. -->
<svg xmlns="http://www.w3.org/2000/svg" id="icon">
<path d="M38.7,28.4c-0.7,0-1.3-0.6-1.3-1.3c0-0.7,0.6-1.3,1.3-1.3c0.7,0,1.3,0.6,1.3,1.3C40,27.9,39.4,28.4,38.7,28.4z M31.5,25.4c0,0.9,0.7,1.4,1.6,1.4c0.7,0,1.1-0.2,1.3-0.6h2.2c-0.2,1.4-1.6,2.3-3.5,2.3c-2.4,0-3.8-1.4-3.8-3.7 c0-2.3,1.5-3.7,3.8-3.7c2.2,0,3.6,1.4,3.6,3.3c0,0.4,0,0.6-0.1,1H31.5z M33,22.6c-1,0-1.5,0.6-1.5,1.4h3C34.5,23.1,34,22.6,33,22.6z M25.2,12.1h2.2v5h3.2v2.1h-5.4V12.1z M26.4,22.7c0.2-1,1.1-1.6,1.9-1.6c0.3,0,0.4,0,0.6,0.1l0,2.1c-0.3,0-0.4,0-0.7,0 c-1.2,0-1.8,0.8-1.8,2.3v2.7h-2.2v-7h2.2V22.7z M18.7,12.1h2.2v5H24v2.1h-5.4V12.1z M20.7,22.3v-1h2.2v7h-2.2v-1 c-0.4,0.7-1.2,1.2-2.2,1.2c-2.1,0-3.3-1.6-3.3-3.7c0-2.1,1.3-3.7,3.3-3.7C19.5,21.1,20.3,21.6,20.7,22.3z M17.4,24.8 c0,1.1,0.6,1.9,1.7,1.9c1.1,0,1.7-0.8,1.7-1.9c0-1-0.6-1.8-1.7-1.8C18.1,23,17.4,23.7,17.4,24.8z M17.4,19.2h-2.2v-7h2.2V19.2z M16.3,11.1c-0.7,0-1.3-0.6-1.3-1.3c0-0.7,0.6-1.3,1.3-1.3c0.7,0,1.3,0.6,1.3,1.3C17.6,10.5,17,11.1,16.3,11.1z M11.6,19.2l-2.1-3.1 v3.1H7.3v-7h2.2v3l2.2-3h2.6l-2.7,3.3l2.7,3.7H11.6z M3.3,28.5c-2,0-3.3-0.9-3.3-2.3h2.3c0,0.4,0.4,0.7,0.9,0.7 c0.4,0,0.7-0.2,0.7-0.6c0-0.3-0.2-0.5-0.6-0.7l-1.4-0.4c-1.1-0.3-1.7-1-1.7-2.1c0-1.3,1.2-2.2,3-2.2c2,0,3.1,0.8,3.1,2.2h0v0H4v0 c0-0.5-0.4-0.7-0.8-0.6c-0.3,0-0.6,0.2-0.6,0.5c0,0.3,0.2,0.5,0.6,0.6l1.4,0.4c1.1,0.3,1.8,1,1.8,2C6.3,27.6,5.1,28.5,3.3,28.5z M3.2,14.6L4.6,15c1.1,0.3,1.8,1,1.8,2c0,1.5-1.2,2.3-3,2.3c-2,0-3.3-0.9-3.3-2.3h2.3c0,0.4,0.4,0.7,0.9,0.7c0.4,0,0.7-0.2,0.7-0.6 c0-0.3-0.2-0.5-0.6-0.7l-1.4-0.4c-1.1-0.3-1.7-1-1.7-2.1c0-1.3,1.2-2.2,3-2.2c2,0,3.1,0.8,3.1,2.2h0v0H4v0c0-0.5-0.4-0.7-0.8-0.6 c-0.3,0-0.6,0.2-0.6,0.5C2.6,14.3,2.8,14.5,3.2,14.6z M9.5,23.8h2.6v-2.5h2.2v7h-2.2v-2.5H9.5v2.5H7.3v-7h2.2V23.8z"/>
</svg>