<!-- (c) Carrd Inc. All rights reserved. All logos and trademarks are property of their respective owners. -->
<svg xmlns="http://www.w3.org/2000/svg" id="icon">
<path d="M25.6,32.6c-0.6-3.4-1.6-6.8-2.9-10.4h0l0,0c-0.2,0.1-0.5,0.2-0.9,0.3c-0.4,0.1-1.1,0.5-2.1,1c-1,0.5-2,1.1-2.9,1.7 c-0.9,0.6-1.8,1.4-2.7,2.4c-0.9,1-1.7,2-2.1,3.1l-0.3-0.2c2.6,2.1,5.5,3.1,8.7,3.1C22.1,33.7,23.8,33.3,25.6,32.6L25.6,32.6z M21.7,19.9c-0.3-0.7-0.7-1.5-1.1-2.3c-4.3,1.3-9,1.9-14,1.9c0,0.1,0,0.2,0,0.4c0,1.7,0.3,3.4,0.9,4.9s1.5,3,2.6,4.2 c0.7-1.2,1.6-2.4,2.6-3.5s2-1.9,3-2.6s1.9-1.2,2.7-1.7c0.9-0.5,1.5-0.8,2.1-1l0.8-0.3c0.1,0,0.1,0,0.3-0.1 C21.5,20,21.6,20,21.7,19.9L21.7,19.9z M19.5,15.5c-1.7-3-3.4-5.6-5.1-7.9c-1.9,0.9-3.5,2.2-4.9,3.9s-2.2,3.6-2.7,5.7 C11,17.2,15.2,16.6,19.5,15.5L19.5,15.5z M33.7,22.2c-2.9-0.8-5.8-1-8.5-0.6c1.2,3.3,2.1,6.6,2.7,9.8c1.5-1,2.8-2.4,3.9-4 C32.8,25.8,33.4,24.1,33.7,22.2z M16.9,6.7C16.9,6.7,16.9,6.7,16.9,6.7C16.9,6.7,16.9,6.7,16.9,6.7z M29.2,9.7 c-2.6-2.3-5.6-3.4-9-3.4c-1.1,0-2.1,0.1-3.2,0.4c1.8,2.4,3.5,5,5.1,8c1-0.4,1.9-0.8,2.7-1.3c0.8-0.5,1.5-0.9,2-1.3s0.9-0.8,1.4-1.2 s0.7-0.7,0.8-0.8L29.2,9.7z M33.9,19.9c0-3.2-1.1-6.1-3.1-8.6l0,0c-0.1,0.2-0.3,0.3-0.4,0.5c-0.1,0.2-0.4,0.5-0.9,0.9 c-0.5,0.4-1,0.9-1.5,1.3c-0.5,0.4-1.2,0.8-2.1,1.4c-0.9,0.5-1.8,1-2.7,1.3c0.3,0.7,0.7,1.4,0.9,2c0,0.1,0.1,0.2,0.1,0.4 c0.1,0.2,0.1,0.3,0.2,0.3c0.5-0.1,1-0.1,1.6-0.1c0.5,0,1,0,1.5,0c0.5,0,1,0,1.4,0s0.9,0,1.3,0.1c0.4,0,0.8,0.1,1.2,0.1 c0.4,0,0.7,0.1,1,0.1c0.3,0,0.6,0.1,0.8,0.1c0.2,0,0.4,0.1,0.5,0.1L33.9,19.9z M36.2,20c0,2.9-0.7,5.6-2.1,8 c-1.4,2.5-3.4,4.4-5.8,5.8s-5.1,2.1-8,2.1c-2.9,0-5.6-0.7-8-2.1S7.8,30.5,6.3,28s-2.1-5.1-2.1-8s0.7-5.6,2.1-8s3.4-4.4,5.8-5.8 s5.1-2.1,8-2.1c2.9,0,5.6,0.7,8,2.1s4.4,3.4,5.8,5.8C35.5,14.4,36.2,17.1,36.2,20z"/>
</svg>