<!-- (c) Carrd Inc. All rights reserved. All logos and trademarks are property of their respective owners. -->
<svg xmlns="http://www.w3.org/2000/svg" id="icon">
<path d="M31.5,22.6c-1.3,1.6-2.6,3-3.8,4.4l-1.1,1.2v2.3c0,3.2-0.3,5.2-1.1,6.7c-1.2,2.3-2.9,2.8-4.1,2.8 c-1.8,0-3.2-1.4-3.2-3.2c0-2.3,1.8-4.2,4-6.8c0.4-0.4,0.8-0.9,1.1-1.3c0.4-0.4,0.7-0.9,1.1-1.3c0-1.6,0-3.3,0-4.7 c-0.6,1-1.3,2-1.9,2.8c-1.5,1.9-3.6,4.1-7,4.1c-3.3,0-7.3-2.6-7.4-10.1c-0.1-5.3,1.8-10.4,5.2-14C15.4,3.2,18,2,20.7,2 c3.7,0,6.1,2.7,6.1,6.9c0,4.2-2.5,7-4.6,9.5c-0.2,0.2-0.5,0.4-0.8,0.4c-0.3,0-0.5-0.1-0.7-0.2c-0.2-0.2-0.4-0.5-0.4-0.8 c0-0.3,0.1-0.6,0.2-0.8c2-2.4,4-4.5,4-8c0-2.2-0.7-4.7-3.8-4.7c-2,0-4.1,1-5.8,2.8c-3,3.1-4.6,7.7-4.6,12.5c0.1,4.8,2.1,7.9,5.2,7.9 c2.1,0,3.6-1.2,5.2-3.2c1.8-2.2,3.4-5.4,3.6-6.1v0l0.1-0.1c0.2-0.4,0.6-0.6,1-0.6l0.2,0c0.6,0.2,0.9,0.6,0.9,1.1V25 c0.4-0.5,0.9-1,1.4-1.6c1.8-2.1,2.5-2.9,2.7-3.1c0.2-0.1,0.4-0.2,0.6-0.2c0.3,0,0.5,0.1,0.7,0.3c0.2,0.2,0.3,0.5,0.3,0.8 C32.3,21.9,31.7,22.4,31.5,22.6z M21.4,37.8c0.9,0,1.5-0.5,2.1-1.5c0.6-1.2,1-3,1-5.6c-0.3,0.3-0.5,0.6-0.7,0.9 c-2,2.3-3.3,3.8-3.3,5.1C20.4,37.1,20.6,37.8,21.4,37.8z"/>
</svg>