<!-- (c) Font Awesome (fontawesome.io, SIL OFL) -->
<svg xmlns="http://www.w3.org/2000/svg" id="icon">
<path d="M0.7,17c0.5-0.5,1-0.7,1.7-0.7h13.8l-5.8-5.8C9.9,10,9.7,9.4,9.7,8.7s0.2-1.3,0.7-1.8l1.5-1.5c0.5-0.5,1.1-0.7,1.8-0.7 c0.7,0,1.3,0.2,1.8,0.7l12.7,12.8c0.5,0.5,0.7,1.1,0.7,1.8c0,0.7-0.2,1.3-0.7,1.8L15.5,34.6c-0.5,0.5-1.1,0.7-1.8,0.7 c-0.7,0-1.3-0.2-1.8-0.7l-1.5-1.5c-0.5-0.5-0.7-1.1-0.7-1.8c0-0.7,0.2-1.3,0.7-1.8l5.8-5.8H2.4c-0.7,0-1.3-0.2-1.7-0.7 c-0.4-0.5-0.6-1.1-0.6-1.8v-2.5C0.1,18,0.3,17.5,0.7,17z M36.4,4.7h-3.9c-0.8,0-1.5,0.7-1.5,1.5v27.6c0,0.8,0.7,1.5,1.5,1.5h3.9 c0.8,0,1.5-0.7,1.5-1.5V6.2C37.9,5.4,37.2,4.7,36.4,4.7z"/>
</svg>