<!-- (c) Carrd Inc. All rights reserved. All logos and trademarks are property of their respective owners. -->
<svg xmlns="http://www.w3.org/2000/svg" id="icon">
<path d="M39.2,18.5C37.8,21.2,35,21,33.9,21c-3.3,8.3-10.5,12.3-19.2,12.3C2.8,33.3,2,23,2.5,20.2h25.4 c1.7,0,3-0.6,3.4-0.9c-0.5-0.6-0.8-1.5-0.9-2.3c-0.1-1.2,0.2-2.6,0.9-3.8l0.4-0.5l0.5,0.4c1.4,1.1,2.2,2.4,2.3,4 c1.5-0.4,3.6-0.2,4.5,0.3l0.5,0.4L39.2,18.5z M23.5,15.6h3.9v3.6h-3.9V15.6z M18.9,15.6h3.9v3.6h-3.9V15.6z M18.9,11.3h3.9V15h-3.9 V11.3z M18.9,7h3.9v3.6h-3.9V7z M14.2,15.6h3.9v3.6h-3.9V15.6z M14.2,11.3h3.9V15h-3.9V11.3z M9.6,15.6h3.9v3.6H9.6V15.6z M9.6,11.3 h3.9V15H9.6V11.3z M5,15.6h3.9v3.6H5V15.6z"/>
</svg>