<!-- (c) Carrd Inc. All rights reserved. All logos and trademarks are property of their respective owners. -->
<svg xmlns="http://www.w3.org/2000/svg" id="icon">
<path d="M37.1,23.8c-0.3-1.5-1.3-2.4-2.7-2.7c-0.7-0.1-1.4-0.1-2.1-0.1c-1.7,0-3.4-0.3-5.1-0.9c-2.1-0.7-3.8-0.1-5.3,1.4 c-0.8,0.8-1.3,1.8-1.6,2.9c-0.2,0.7-0.1,1.4,0.2,2.1c0.8,2,1,4,1,6.1c0,0.6,0,1.2,0.1,1.7c0.3,1.3,1.5,2.2,2.8,2.3 c0.2,0,0.5,0,0.7,0.1c-5.1,1.7-13.1,1-18.6-5.7C1.2,24.5,1.2,15.6,6.3,9.1C11.5,2.6,20.6,0.6,28,4.4C35.6,8.4,38.7,16.6,37.1,23.8z M19.7,22.5c0-0.3-0.1-0.6-0.1-0.9c-0.5-2.3-3.4-5-6.5-4.8c-2.1,0.2-3.3,1.7-2.8,3.8c0.6,2.7,4,5.2,6.7,4.8 C18.6,25.2,19.7,24.1,19.7,22.5z M20.2,9.8c-1.3,0-2.3,0.7-2.8,1.8c-0.4,1-0.4,2.1,0,3.1c0.8,2.2,2.2,3.8,4.5,4.4 c1.7,0.5,3.2-0.4,3.7-2c0.2-0.7,0.2-1.4,0.1-2.1c-0.3-1.6-1.2-2.9-2.5-4C22.4,10.3,21.4,9.8,20.2,9.8z M17.2,33.5 c0.7,0,1.4-0.2,2-0.7c0.6-0.5,0.9-1.1,0.8-1.9c-0.1-1.1-0.6-1.9-1.4-2.6c-1-0.9-2.2-1.3-3.5-1.4c-0.7,0-1.4,0.1-2,0.4 c-1.3,0.7-1.6,2.2-0.7,3.5C13.5,32.6,15.1,33.4,17.2,33.5z M27.3,14.6c0,0.4,0,0.7,0.1,1c0.3,1.9,1.4,3.2,3.1,3.9 c1.2,0.6,2.6,0,3-1.2c0.2-0.5,0.3-1,0.3-1.6c0-2.1-1-3.7-2.8-4.8c-1.5-0.9-3.2-0.1-3.6,1.6C27.3,13.9,27.3,14.2,27.3,14.6z"/>
</svg>