<!-- (c) Carrd Inc. All rights reserved. All logos and trademarks are property of their respective owners. -->
<svg xmlns="http://www.w3.org/2000/svg" id="icon">
<path d="M16.9,19.9c0.4,1.8,0.8,3.4,1.2,5.1c-3.3,0-6.4,0-9.6,0c0-1.7,0-3.3,0-5C11.2,19.9,14,20.1,16.9,19.9 c-0.4-1.8-0.8-3.3-1.2-5c0.6,0,1.2,0,1.7,0c5.2,0,10.4,0,15.7,0c0.6,0,1,0.1,1.1,0.7c0.4,1.4,0.9,2.7,1.4,4.3 C29.2,19.9,23.1,19.9,16.9,19.9z M14.5,9.9C14.5,9.9,14.5,9.9,14.5,9.9C14.5,9.9,14.5,9.9,14.5,9.9L14.5,9.9z M14.5,9.9 C14.5,9.9,14.5,9.9,14.5,9.9C14.5,9.9,14.5,9.9,14.5,9.9C14.5,9.9,14.5,9.9,14.5,9.9z M15.6,14.9c-2.3,0-4.7,0-7.1,0 c0-1.1,0-2.3,0-3.4c0-1.9-0.2-1.6,1.6-1.6c1.5,0,2.9,0,4.4,0c0.4,1.6,0.7,3.1,1.1,4.7C15.6,14.7,15.6,14.8,15.6,14.9z M14.1,8.5 c-0.3-1.1-0.5-2.1-0.8-3.2c2.4,0,4.8,0,7.3,0c2.2,0,4.4,0.4,6.5,1.3c1.5,0.7,2.9,1.6,4,2.8c0.1,0.1,0.1,0.2,0.3,0.4 c-5.7,0-11.3,0-16.8,0C14.3,9.4,14.2,9,14.1,8.5z M13.2,5.4C13.2,5.4,13.2,5.3,13.2,5.4C13.2,5.3,13.3,5.3,13.2,5.4 C13.3,5.3,13.3,5.4,13.2,5.4C13.3,5.4,13.2,5.4,13.2,5.4C13.2,5.4,13.2,5.4,13.2,5.4z M8.5,1c1.1,0,2.3,0,3.4,0 c0.1,0,0.3,0.2,0.4,0.4c0.3,1.3,0.6,2.6,0.9,4c-1.5,0-3.1,0-4.7,0C8.5,3.9,8.5,2.5,8.5,1z M8.7,30.1c0.8,0,1.5,0,2.2,0 c2.5,0,5,0,7.5,0c0.8,0,0.9-0.2,0.7-0.9c-0.3-1.3-0.7-2.6-1-4c5.8,0,11.4,0,17.4,0c-0.5,1.6-1,3-1.5,4.5c-0.1,0.2-0.6,0.4-0.9,0.4 c-4.2,0-8.4,0-12.6,0c-1,0-1,0.1-0.8,1c0.3,1.1,0.5,2.3,0.8,3.4c-0.2,0-0.4,0-0.6,0c-3.5,0-6.9,0-10.4,0c-0.6,0-0.8-0.2-0.8-0.8 C8.7,32.6,8.7,31.4,8.7,30.1z M21.6,39c-0.4-1.5-0.7-2.9-1.1-4.4c3.7,0,7.3,0,11.1,0C28.8,37.4,25.5,39,21.6,39z"/>
</svg>