<!-- (c) Carrd Inc. All rights reserved. All logos and trademarks are property of their respective owners. -->
<svg xmlns="http://www.w3.org/2000/svg" id="icon">
<path d="M26.7,39c-4.5,0-8.9,0-13.4,0c-0.1-0.4-0.1-0.8-0.2-1.3c-0.2-1.5-0.5-3.1-0.7-4.6c-0.2-1-0.3-1.9-0.4-2.9 c0-0.2-0.1-0.3-0.3-0.3c-0.3,0-0.6,0-0.9,0c-0.1,0-0.2-0.1-0.2-0.2c-0.1-0.5-0.2-0.9-0.3-1.4c-0.3-1.7-0.6-3.3-0.9-5 c-0.3-1.8-0.6-3.6-1-5.4c0-0.1,0-0.2,0-0.3c0.6,0,1.1,0,1.6,0c0-0.1,0-0.1,0-0.2c-0.1-0.4-0.1-0.8-0.2-1.2c-0.2-1.5-0.5-3.1-0.7-4.6 C8.9,11,8.9,11,8.3,11c0,0-0.1,0-0.1,0c-0.2,0-0.3,0-0.3-0.3c0-1.1,0-2.2,0-3.3c0-0.1,0-0.2,0-0.3c0.1,0,0.2,0,0.3,0 c0.7,0,1.4,0,2.1,0c0.2,0,0.3-0.1,0.4-0.3c0.6-1.3,1.1-2.6,1.7-3.9c5,0,10.1,0,15.1,0c0,0,0,0.1,0,0.1c0.6,1.3,1.1,2.6,1.7,3.8 c0.1,0.2,0.2,0.2,0.4,0.2c0.8,0,1.5,0,2.3,0c0.1,0,0.2,0,0.3,0c0,1.2,0,2.4,0,3.6c0,0.1-0.1,0.1-0.2,0.2c-0.3,0-0.5,0-0.8,0 c-0.1,0-0.2,0-0.2,0.2c-0.1,0.4-0.1,0.7-0.2,1.1c-0.2,1.4-0.4,2.7-0.6,4.1c-0.1,0.4-0.1,0.9-0.2,1.3c0.5,0,1,0,1.6,0 c0,0.2-0.1,0.3-0.1,0.5c-0.3,1.6-0.6,3.3-0.9,4.9c-0.4,2.2-0.8,4.5-1.2,6.7c0,0.1-0.1,0.2-0.2,0.2c-0.3,0-0.6,0-0.8,0 c-0.2,0-0.3,0-0.3,0.3c-0.1,0.8-0.2,1.5-0.4,2.3c-0.2,1.4-0.4,2.8-0.7,4.2C26.9,37.5,26.8,38.2,26.7,39z M30.1,18.9 c-6.8,0-13.6,0-20.3,0c0,0.1,0,0.1,0,0.2c0.3,1.4,0.5,2.9,0.8,4.3c0.3,1.7,0.6,3.4,0.9,5.1c0,0.2,0.1,0.3,0.3,0.3 c1.7,0,3.4,0,5.1-0.1c1.7,0,3.3,0,5,0c2.1,0,4.2,0,6.3,0.1c0.2,0,0.2-0.1,0.3-0.2c0.3-1.4,0.5-2.9,0.8-4.3c0.2-1.4,0.5-2.8,0.7-4.1 C30,19.8,30,19.4,30.1,18.9z M27.8,6.9c0-0.1,0-0.1-0.1-0.2c-0.3-0.7-0.6-1.5-1-2.2c-0.1-0.2-0.2-0.3-0.4-0.3c-0.3,0-0.5,0-0.8,0 c-4,0-8.1,0-12.1,0c-0.2,0-0.3,0.1-0.4,0.3c-0.2,0.6-0.5,1.2-0.7,1.7c-0.1,0.2-0.2,0.4-0.3,0.7C17.3,6.9,22.5,6.9,27.8,6.9z M9.1,9.8c0.1,0,0.3,0,0.4,0c7,0,14.1,0,21.1,0c0.1,0,0.1,0,0.2,0c0.2,0,0.2-0.1,0.2-0.2c0-0.3,0-0.5,0-0.8c0-0.4,0-0.4-0.4-0.4 c-7,0-14.1,0-21.1,0c-0.1,0-0.2,0-0.2,0c-0.1,0-0.1,0.1-0.1,0.1C9.1,9,9.1,9.4,9.1,9.8z"/>
</svg>