<!-- (c) Carrd Inc. All rights reserved. All logos and trademarks are property of their respective owners. -->
<svg xmlns="http://www.w3.org/2000/svg" id="icon">
<path d="M40,19.2H23.4c0.4-3.7,3.7-6.3,7.3-5.8c1.7,0.2,3.2,1,4.3,2.3l2.4-2.4c-3.7-4.2-10-4.5-14.1-0.8c-1.9,1.7-3.1,4.1-3.3,6.7 H20c-0.4-5.6-5.2-9.7-10.7-9.3c-2.6,0.2-5,1.4-6.7,3.3L5,15.7c2.4-2.8,6.5-3.2,9.3-0.8c1.3,1.1,2.1,2.6,2.3,4.3H0c0,0.3,0,0.5,0,0.8 c0,5.6,4.5,10.1,10,10.1c4.6,0,8.7-3.2,9.7-7.8h0.5c1.3,5.4,6.6,8.8,12,7.5c4.5-1.1,7.7-5.2,7.7-9.8C40,19.7,40,19.5,40,19.2z M10,26.7c-2.8,0-5.2-1.7-6.2-4.4h12.4C15.2,24.9,12.8,26.7,10,26.7z M30,26.7c-2.8,0-5.2-1.7-6.2-4.4h12.4 C35.2,24.9,32.8,26.7,30,26.7L30,26.7z"/>
</svg>