<!-- (c) Carrd Inc. All rights reserved. All logos and trademarks are property of their respective owners. -->
<svg xmlns="http://www.w3.org/2000/svg" id="icon">
<path d="M35.5,32.1c0,0.2,0,0.4-0.1,0.6c-0.1,0.6-0.4,1.1-0.9,1.4c-0.2,0.1-0.3,0.2-0.5,0.2c-1.2,0.5-2.4,1-3.7,1.5 c-3.1,1.3-6.2,2.6-9.3,3.9c-0.2,0.1-0.4,0.1-0.6,0.2c0,0-0.1,0-0.1,0c-0.2,0-0.4,0-0.5,0c0,0,0,0,0,0c-0.2,0-0.4-0.1-0.6-0.2 c-0.2-0.1-0.4-0.2-0.5-0.2c-4.2-1.7-8.3-3.5-12.5-5.2c-0.3-0.1-0.6-0.3-0.8-0.5c-0.3-0.2-0.4-0.5-0.5-0.8c-0.1-0.3-0.1-0.5-0.1-0.8 c0-0.1,0-0.2,0-0.3c0-8.5,0-17,0-25.5c0-0.1,0-0.2,0-0.3c0-0.2,0.1-0.5,0.1-0.7c0.2-0.6,0.6-1.1,1.2-1.3C6.1,4.1,6.3,4.1,6.6,4 C6.7,4,6.8,4,7,4c8.7,0,17.4,0,26.1,0c0,0,0.1,0,0.1,0c0.3,0,0.5,0.1,0.8,0.1c0.6,0.2,1.1,0.6,1.3,1.2c0.1,0.3,0.2,0.6,0.2,0.9 c0,0.1,0,0.1,0,0.2c0,8.5,0,17,0,25.5C35.5,32,35.5,32.1,35.5,32.1z M13.5,34.7C13.6,34.7,13.6,34.7,13.5,34.7 c2.1,0.7,4.2,1.4,6.3,2.2c0.1,0,0.1,0,0.2,0c2.1-0.7,4.3-1.4,6.4-2.1c0,0,0.1,0,0.1,0c0,0,0,0,0,0c0,0-0.1,0-0.1,0 C22.1,34.6,17.8,34.6,13.5,34.7C13.5,34.6,13.5,34.6,13.5,34.7C13.5,34.6,13.5,34.6,13.5,34.7z M8.1,29.9c0.3,0.6,0.8,1,1.5,1.3 c0.4,0.1,0.9,0.1,1.3,0.1c0.5-0.1,1-0.3,1.4-0.6c0.1-0.1,0.1-0.1,0.1-0.2c0-0.6,0-1.2,0-1.8c0,0,0-0.1,0-0.1c-0.1,0-2,0-2.1,0 c0,0.3,0,0.6,0,0.9c0.3,0,0.6,0,0.9,0c0,0,0,0.1,0,0.1c0,0.1,0,0.2,0,0.3c0,0.1,0,0.1-0.1,0.2c-0.4,0.2-0.7,0.2-1.1,0.1 c-0.3-0.1-0.6-0.3-0.7-0.7c-0.1-0.3-0.1-0.5-0.1-0.8c0.1-0.5,0.4-0.9,0.9-1c0.4-0.1,0.8,0,1.1,0.2c0.1,0.1,0.2,0.1,0.3,0.2 c0.2-0.3,0.5-0.6,0.7-0.9c-0.3-0.3-0.6-0.5-1-0.5c-0.7-0.2-1.3-0.2-1.9,0.1c-0.5,0.2-0.8,0.6-1.1,1C7.8,28.5,7.8,29.2,8.1,29.9z M13.2,20.8c-1,0-1.9,0-2.8,0c0-0.3,0-4.5,0-4.6c0.3,0,0.6,0,0.9,0c0.3,0,0.6,0,0.9,0c0.3,0,0.6,0,0.9,0c0-0.7,0-1.4,0-2.1 c-0.5,0-0.9,0-1.3,0c-0.5,0-0.9,0-1.3,0c0-0.1,0-4.2,0-4.3c0.9,0,1.9,0,2.8,0c0-0.1,0-2,0-2.1c-0.3,0-5,0-5.1,0c0,5,0,10.1,0,15.1 c1.7,0,3.4,0,5.2,0C13.2,22.2,13.2,21.5,13.2,20.8z M13,30.9c0,0.1-0.1,0.2-0.1,0.3c0.4,0,0.8,0,1.3,0c0.1-0.3,0.2-0.6,0.3-0.8 c0.6,0,1.2,0,1.8,0c0.1,0.3,0.2,0.6,0.3,0.9c0.4,0,0.8,0,1.3,0c0,0,0,0,0-0.1c-0.2-0.5-0.4-1.1-0.7-1.6c-0.3-0.7-0.6-1.4-0.9-2.1 c-0.1-0.3-0.2-0.5-0.3-0.8c0-0.1-0.1-0.1-0.1-0.1c-0.3,0-0.7,0-1,0c-0.1,0-0.1,0-0.1,0.1c0,0.1-0.1,0.1-0.1,0.2 c-0.2,0.6-0.5,1.1-0.7,1.7C13.6,29.3,13.3,30.1,13,30.9z M20.7,11.2c0-0.3,0-0.6,0-0.8c0-0.3,0-0.6-0.1-0.9 c-0.2-0.8-0.8-1.4-1.6-1.6c-0.4-0.1-0.7-0.1-1.1-0.1c-1.2,0-2.3,0-3.5,0c0,0-0.1,0-0.1,0c0,0.2,0,15.1,0,15.2c0.2,0,2.2,0,2.3,0 c0-1.8,0-3.6,0-5.5c0.1,0,0.1,0,0.1,0c0.4,0,0.8,0,1.3,0c0.3,0,0.6,0,0.9-0.1c0.9-0.2,1.5-0.8,1.7-1.7c0.1-0.3,0.1-0.7,0.1-1 C20.7,13.5,20.7,12.3,20.7,11.2z M19.7,26.6c-0.4,0-0.9,0-1.3,0c0,1.5,0,3.1,0,4.6c0.4,0,0.8,0,1.2,0c0,0,0,0,0,0c0,0,0,0,0,0 c0-0.8,0-1.7,0-2.5c0,0,0,0,0,0c0,0,0,0,0,0c0,0,0,0,0,0c0,0,0,0,0,0c0.4,0.6,0.8,1.2,1.2,1.8c0.4-0.6,0.8-1.2,1.2-1.8c0,0,0,0,0,0 c0,0.9,0,1.8,0,2.7c0.4,0,0.8,0,1.2,0c0-0.2,0-4.5,0-4.6c-0.4,0-0.8,0-1.3,0c-0.4,0.6-0.7,1.2-1.1,1.8C20.4,27.8,20,27.2,19.7,26.6z M24.1,7.7c-0.8,0-1.5,0-2.3,0c0,5.1,0,10.1,0,15.2c0.8,0,1.5,0,2.3,0C24.1,17.8,24.1,12.8,24.1,7.7z M24.1,31.2c0.2,0,3.6,0,3.6,0 c0-0.2,0-0.9,0-1c-0.8,0-1.6,0-2.4,0c0-0.3,0-0.5,0-0.8c0.2,0,0.4,0,0.5,0c0.2,0,0.4,0,0.5,0c0.2,0,0.4,0,0.6,0c0.2,0,0.4,0,0.5,0 c0-0.3,0-0.6,0-1c-0.7,0-1.4,0-2.2,0c0-0.3,0-0.5,0-0.7c0.4,0,0.8,0,1.2,0c0.4,0,0.8,0,1.2,0c0-0.4,0-0.7,0-1c-0.2,0-3.5,0-3.6,0 C24.1,28.1,24.1,29.7,24.1,31.2z M32,16.8c0,0,0-0.1,0-0.1c-0.8,0-1.5,0-2.3,0c0,0.1,0,0.1,0,0.1c0,1.1,0,2.1,0,3.2 c0,0.1,0,0.2,0,0.2c0,0.4-0.3,0.7-0.7,0.7c-0.3,0-0.5,0-0.8,0c-0.4,0-0.6-0.3-0.7-0.7c0-0.1,0-0.2,0-0.3c0-3.1,0-6.3,0-9.4 c0-0.1,0-0.2,0-0.3c0-0.4,0.3-0.6,0.6-0.6c0.2,0,0.4,0,0.6,0c0.1,0,0.2,0,0.3,0c0.3,0,0.5,0.2,0.6,0.5c0,0.1,0,0.3,0,0.4 c0,0.9,0,1.8,0,2.8c0,0,0,0.1,0,0.1c0.2,0,2.2,0,2.3,0c0,0,0,0,0-0.1c0-1.1,0-2.1,0-3.2c0-0.3,0-0.6-0.1-0.9 c-0.2-0.8-0.8-1.4-1.6-1.6c-0.3-0.1-0.6-0.1-0.9-0.1c-0.5,0-0.9,0-1.4,0c-0.3,0-0.6,0-0.8,0.1c-0.9,0.2-1.5,0.8-1.7,1.7 c-0.1,0.3-0.1,0.7-0.1,1c0,3.3,0,6.5,0,9.8c0,0.1,0,0.1,0,0.2c0,0.3,0.1,0.6,0.1,0.9c0.2,0.7,0.7,1.2,1.4,1.5 c0.3,0.1,0.6,0.2,0.9,0.2c0.6,0,1.1,0,1.7,0c0.3,0,0.6,0,0.9-0.1c0.9-0.2,1.4-0.7,1.7-1.6c0.1-0.3,0.1-0.7,0.1-1 C32,19.1,32,18,32,16.8z M32.1,29.7c0-0.4-0.2-0.7-0.5-0.9c-0.2-0.1-0.3-0.2-0.5-0.3c-0.3-0.1-0.5-0.1-0.8-0.2 c-0.1,0-0.3-0.1-0.4-0.1c-0.1,0-0.1-0.1-0.2-0.1c-0.2-0.2-0.1-0.4,0.2-0.5c0.1,0,0.2,0,0.4,0c0.4,0,0.7,0.2,1,0.4 c0,0,0.1,0.1,0.1,0.1c0.2-0.3,0.4-0.6,0.6-0.9c-0.2-0.1-0.4-0.3-0.6-0.4c-0.3-0.1-0.7-0.2-1-0.2c-0.3,0-0.6,0-0.9,0.1 c-0.3,0.1-0.5,0.2-0.7,0.4c-0.3,0.3-0.4,0.7-0.4,1.1c0,0.4,0.2,0.8,0.6,1c0.1,0.1,0.3,0.2,0.4,0.2c0.3,0.1,0.6,0.2,0.9,0.2 c0.1,0,0.3,0.1,0.4,0.2c0.1,0.1,0.2,0.2,0.2,0.3c0,0.1-0.1,0.2-0.2,0.3c-0.1,0-0.2,0-0.4,0c-0.4,0-0.8-0.1-1.1-0.4 c-0.1-0.1-0.2-0.1-0.3-0.2c-0.2,0.3-0.4,0.5-0.7,0.8c0,0,0.1,0.1,0.1,0.1c0.4,0.3,0.8,0.5,1.3,0.6c0.5,0.1,1,0.1,1.5-0.1 c0.3-0.1,0.5-0.3,0.7-0.5C32,30.3,32.1,30,32.1,29.7z M18.4,14.7c-0.1,0.4-0.3,0.6-0.7,0.6c-0.3,0-0.7,0-1,0c0,0,0,0,0,0 c0-1.9,0-3.7,0-5.6c0,0,0.1,0,0.1,0c0.3,0,0.5,0,0.8,0c0.1,0,0.2,0,0.3,0c0.3,0.1,0.5,0.3,0.6,0.6c0,0.1,0,0.2,0,0.3 c0,1.3,0,2.6,0,3.8C18.4,14.6,18.4,14.7,18.4,14.7z M15.8,29.4c-0.3,0-0.7,0-1,0c0-0.1,0.3-1,0.5-1.3C15.4,28.1,15.8,29.2,15.8,29.4 z"/>
</svg>