<!-- (c) Carrd Inc. All rights reserved. All logos and trademarks are property of their respective owners. -->
<svg xmlns="http://www.w3.org/2000/svg" id="icon">
<path d="M22.6,16.9c3.6,0,7.2,0,10.8,0c0.3,0,0.6,0,1,0c0.7,0,1.1,0.5,1.1,1c0,0.2-0.2,0.6-0.4,0.8c-0.5,0.5-1,0.9-1.5,1.4 c-0.8,0.7-1.7,1.5-2.5,2.2c-0.7,0.6-1.3,1.1-2,1.7c-1.1,1-2.3,2-3.4,2.9c-1.3,1.2-2.6,2.3-4,3.5c-0.7,0.6-1.5,1.2-2.2,1.8 c-1,0.8-1.9,1.7-2.9,2.5c-1,0.9-2.1,1.8-3.1,2.7c-0.4,0.3-0.8,0.7-1.2,1c-0.2,0.2-0.6,0.2-0.9,0c-0.1-0.1-0.2-0.2-0.3-0.3 c-0.4-0.3-0.5-0.9-0.3-1.3c0.4-0.7,0.8-1.5,1.2-2.3c0.4-0.8,0.8-1.6,1.2-2.4c0.6-1.2,1.2-2.3,1.8-3.5c0.4-0.8,0.8-1.6,1.2-2.4 c0.5-1,1-2,1.5-3c0.1-0.2,0-0.3-0.2-0.3c-0.4,0-0.8,0-1.1,0c-3.6,0-7.2,0-10.8,0c-0.7,0-1.2-0.5-1.1-1.2c0-0.4,0.3-0.6,0.6-0.9 c0.7-0.6,1.5-1.2,2.2-1.9c1-0.8,1.9-1.7,2.9-2.5c0.8-0.7,1.6-1.4,2.4-2.1c1-0.9,2.1-1.8,3.1-2.7c1.1-0.9,2.1-1.9,3.2-2.8 c0.8-0.7,1.7-1.4,2.5-2.1c0.9-0.8,1.7-1.5,2.6-2.3c1.2-1.1,2.5-2.1,3.7-3.1c0.3-0.2,0.6-0.2,0.9,0c0.3,0.2,0.7,0.4,0.7,0.8 c0,0.2,0,0.5-0.1,0.7c-0.3,0.7-0.7,1.3-1,2c-0.6,1.1-1.2,2.2-1.7,3.3c-0.7,1.4-1.5,2.9-2.2,4.3c-0.5,1-1,1.9-1.5,2.9 c-0.2,0.3-0.4,0.7-0.5,1c-0.1,0.2-0.1,0.2,0.1,0.3C22.4,16.9,22.5,16.9,22.6,16.9C22.6,16.9,22.6,16.9,22.6,16.9z"/>
</svg>