<!-- (c) Carrd Inc. All rights reserved. All logos and trademarks are property of their respective owners. -->
<svg xmlns="http://www.w3.org/2000/svg" id="icon">
<path d="M33.8,30.1c-2.5,2.7-7,7.1-7.2,7.2c-0.6,0.5-1.3,0.9-2.1,0.9c-0.8,0-1.6-0.3-2.2-0.9c-1.2-1.3-1.1-3.1,0.1-4.3 c0.1-0.1,4.6-4.3,6.9-6.9c1.1-1.3,1.6-2.8,1.6-4.5c-0.1-1.7-0.9-3.4-2.4-4.5c-1.9-1.6-5.5-2-7.8,0.1c-1.3,1.3-3,3-3.1,3.1 c-1.2,1.3-3.1,1.3-4.3,0.2c-1.3-1.2-1.3-3.1-0.2-4.3c0.1-0.1,1.9-2,3.5-3.4c4.3-3.9,11.5-4,15.9-0.2c2.7,2.3,4.2,5.4,4.5,8.8 C37.2,24.5,36.1,27.7,33.8,30.1 M15.4,30.4c-2.8,0-5.7-0.9-7.9-2.8c-2.7-2.3-4.2-5.4-4.5-8.8C2.8,15.5,4,12.4,6.2,9.8 c2.5-2.7,7-7.1,7.2-7.2c1.3-1.2,3.1-1.1,4.3,0.1C18.9,4,18.8,5.8,17.6,7c-0.1,0.1-4.6,4.3-6.9,6.9c-1.1,1.3-1.6,2.8-1.6,4.5 c0.1,1.7,0.9,3.4,2.4,4.5c1.9,1.6,5.5,2,7.8-0.1c1.3-1.3,3-3,3.1-3.1c1.2-1.3,3.1-1.3,4.3-0.2c1.3,1.2,1.3,3.1,0.2,4.3 c-0.1,0.1-1.9,2-3.5,3.4C21.2,29.4,18.3,30.4,15.4,30.4"/>
</svg>