<!-- (c) Carrd Inc. All rights reserved. All logos and trademarks are property of their respective owners. -->
<svg xmlns="http://www.w3.org/2000/svg" id="icon">
<path d="M39.6,14.3c-1,1.8-1.9,3.7-3,5.5c-0.7,1.1-1,2.3-0.9,3.6c0.1,0.9,0,1.9,0,2.8c0,0.5-0.2,0.7-0.8,0.7 c-0.6,0-0.8-0.2-0.8-0.7c0-1.4,0-2.8,0-4.2c0-0.3-0.1-0.6-0.2-0.8c-1.2-2.3-2.4-4.5-3.6-6.8c-0.3-0.6-0.1-1.1,0.7-1.2 c0.4,0,0.6,0.2,0.8,0.5c0.8,1.7,1.7,3.3,2.6,5c0.2,0.4,0.4,0.9,0.7,1.3c0.6-1.1,1.1-2.1,1.6-3.2c0.5-1,1.1-2.1,1.6-3.1 c0.3-0.5,0.6-0.6,1.1-0.4C39.8,13.4,39.9,13.8,39.6,14.3z M28.9,14.6c-0.9,0-1.9,0-2.9,0c0,0.2,0,0.4,0,0.6c0,3.6,0,7.3,0,10.9 c0,0.6-0.2,0.8-0.8,0.8c-0.6,0-0.8-0.2-0.8-0.8c0-1.8,0-3.6,0-5.4c0-1.9,0-3.7,0-5.6c0-0.2,0-0.3,0-0.6c-1,0-1.9,0-2.9,0 c-0.5,0-0.7-0.2-0.7-0.7c0-0.5,0.2-0.7,0.7-0.7c2.5,0,4.9,0,7.4,0c0.5,0,0.7,0.2,0.7,0.7C29.5,14.3,29.3,14.6,28.9,14.6z M16,27 c-0.6,0-1.2,0-1.8-0.1c-1.7-0.4-2.6-1.5-2.7-3.3c0-0.1,0-0.2,0-0.3c0-1.1,0-2.2,0-3.3c0-1,0-2,0-3c0-2.4,1.4-3.9,3.9-3.9 c0.5,0,1,0,1.5,0.1c1.7,0.4,2.7,1.7,2.7,3.4c0,2.2,0,4.4,0,6.7C19.5,25.5,18.1,26.9,16,27z M18,16.9c0-0.9-0.4-1.8-1.3-2.2 c-1.9-0.8-3.5,0.3-3.6,2.3c0,1,0,1.9,0,2.9c0,0,0,0,0,0c0,1,0,2.1,0,3.1c0,0.8,0.2,1.5,0.9,1.9c0.9,0.6,1.8,0.6,2.8,0.2 c0.9-0.4,1.2-1.2,1.2-2.1C18,21.1,18,19,18,16.9z M9.3,26.8c-0.5,0.2-0.9,0-1-0.5c-0.2-0.7-0.5-1.5-0.7-2.2 c-0.1-0.3-0.2-0.4-0.5-0.4c-0.7,0-1.4,0-2.1,0c-0.6,0-1.3,0-1.9,0c-0.4,0-0.6,0.1-0.7,0.5c-0.2,0.7-0.4,1.4-0.6,2.1 c-0.2,0.5-0.5,0.6-1,0.5c-0.5-0.2-0.7-0.4-0.5-0.9c1.3-4.1,2.5-8.2,3.8-12.2c0.2-0.5,0.4-0.6,1-0.6c0.6,0,0.9,0.1,1,0.6 c1.3,4.1,2.5,8.1,3.8,12.2C10,26.4,9.9,26.7,9.3,26.8z M5.1,15.7c0,0-0.1,0-0.1,0c-0.7,2.2-1.3,4.5-2,6.8c1.4,0,2.7,0,4.1,0 C6.5,20.1,5.8,17.9,5.1,15.7z"/>
</svg>