<!-- (c) Carrd Inc. All rights reserved. All logos and trademarks are property of their respective owners. -->
<svg xmlns="http://www.w3.org/2000/svg" id="icon">
<path d="M39.5,20c0.2,5-1.5,9.3-4.7,12.9c-3.9,4.4-8.9,6.7-14.9,6.6c-5.2,0-9.7-1.9-13.4-5.4C2.2,30,0.2,24.8,0.5,18.8 C0.8,14.3,2.4,10.3,5.5,7c4.2-4.7,9.6-6.8,15.9-6.5c2.8,0.1,5.5,1,8,2.3c2.5,1.3,4.6,3.1,6.2,5.3C38.2,11.7,39.7,15.6,39.5,20z M19.4,37c5.7,0,9.9-1.9,13.2-5.5c3.4-3.7,4.8-8.1,4.4-13c-0.4-4.5-2.3-8.2-5.6-11.1C28.1,4.5,24.3,3,20,3 c-9.3,0.1-16.9,7.6-16.9,17c0,5,1.9,9.2,5.6,12.6C11.9,35.5,15.7,37,19.4,37z M17.7,16c-2.4,0-4.7,0-7.1,0c0-1.5,0-3.1,0-4.6 c6.3,0,12.6,0,19,0c0,0.7,0,1.3,0,1.9c0,0.7,0,1.4,0,2c0,0.5-0.2,0.6-0.6,0.6c-2,0-4,0-6,0c-0.5,0-0.7,0.1-0.7,0.7 c0,5.1,0,10.3,0,15.4c0,0.2,0,0.4,0,0.7c-1.5,0-3,0-4.6,0C17.7,27.2,17.7,21.6,17.7,16z"/>
</svg>