<!-- (c) Carrd Inc. All rights reserved. All logos and trademarks are property of their respective owners. -->
<svg xmlns="http://www.w3.org/2000/svg" id="icon">
<path d="M37.8,9.2c0,0-0.1,0.4-0.8,1c-0.7,0.6-1,2.4-1,2.4s-3.6,8.6-5.4,12.9L29.5,29c0.1,1-0.1,1.6-0.1,1.6 s-0.3,1.4-0.8,1.6l-0.5,1.2c0,0.8,0.1,1.6,0.1,1.6s-0.5,0-1.2,0.4c-0.7,0.4-0.5,1.1-1,1.4s-0.4-0.6-0.4-0.6s0.5-1,0.9-1.6l-0.9-1.5 c-0.4-0.3-1.1-0.8-0.8-1.1c0.1,0,0.1-0.1,0.1-0.2l-1.4-2.8l-0.3-0.3l0.1-0.3l-0.9-1.9C22.2,26.4,22,26,22,25.8c0,0,0,0,0-0.1 l-0.5-1.1c-0.2,0.2-0.5,0.5-0.7,0.7c-0.4,0.4-0.7,1.1-1,1.6c-0.3,0.4,0,1,0,1v1c0,0-0.2,0.4-0.6,1.2c-0.4,0.8-1,1.8-1,1.8l-1,1.4 l-0.6,1.8l-2,2.4L14,36.2l-1.2-2.4l-1-2.6l-1-1.6l-0.4-1.8L9.6,26l-0.4-0.6v-0.6l-0.7-1.5L7.8,22v-0.4l-1-2L6,18.2l-0.1-0.7 l-2.2-6.1l-0.1-0.2L3,9.4L2,6.8l3.2-0.2l1.2-0.2l2.2-0.2l1.2-0.4L10,4.4c0,0,1.1,1,1.4,1.4C11.7,6.2,11.6,7,11.6,7l0.8-0.4L13,7.2 c0,0-1,0.4-1.4,1C11.2,8.8,12,9.4,12.4,11c0.4,1.6,1.2,3.2,1.2,3.2s0.2,1.6,0.4,2.4s0.8,0.9,1,1.2c0.2,0.3-0.1,1,0,1.8 c0.1,0.8,2.5,8.2,3,8c0.5-0.2,1.9-2.4,2.2-2.8c0.3-0.4,0.6-1.3,0.6-1.6c0-0.3-0.2-0.8-0.2-0.8l-1.4-2.6c0,0,1.1-1.9,1.6-2.6 c0.5-0.7,0.6-1.4,0.6-1.4s0.4-0.8,0.7-1.2c0.3-0.5,0.9-1,0.9-1c0,0,0.5,1.4,0.6,1.8c0.1,0.4,0.6,1.2,1,2c0.2,0.5,0.9,2.4,1.4,3.6 c0.5,1.2,2.6,6.2,2.6,6.2l6.2-13.6c0,0-0.2-0.9-0.4-1.2c-0.2-0.3,0.1-1.2,0-1.6c-0.1-0.4-0.6-1.2-0.6-1.2s-0.1-1.4,0-1.8 C33.9,7.1,36.2,7,36.2,7L38,6.4L37.8,9.2z M10.4,27l0.6,1.6l0.4-0.6l-0.2-1l0.4-0.2l1.8-1V24L11,25c0,0-0.5,0.4-0.6,0.8 S10.4,27,10.4,27z M9.2,24.4L9.2,24.4L9.2,24.4L9.2,24.4z M9.4,24l0.6-0.4l0.8-0.4c0,0,1-0.9,1.2-1c0.2-0.1,0.2-1.2,0.2-1.2l-1-0.2 L10,21.4L9,22L9.4,24z M10.8,16.4c0,0,0.3,0.5,0.6,0.4c0.3,0,0.6-0.4,0.6-0.4v-0.6c0,0-0.6-0.1-0.8,0C11,15.9,10.8,16.4,10.8,16.4z M11.2,15.2L11,14.6c0,0-0.7-0.2-1.2-0.2c-0.5,0.1-0.4,1-0.4,1l1,0.2L11.2,15.2z M7.3,18.6l0.2,0.6c0.1,0.2,0.2,0.3,0.3,0.4 c0.3,0.2,1,0,1,0l1.4-0.8l0.4-1.6h-2l-1.4,1.2C7.2,18.4,7.2,18.5,7.3,18.6z M5,7.8C4.9,7.3,5.1,7.5,4.4,7.4S2.8,7.6,2.8,7.6 s0.1,1,0.6,1c0.5,0,1.2,0,1.2,0S5.1,8.3,5,7.8z M5,11.6c0,0-0.3,0.1-0.2,0.6c0.1,0.4,0.5,0.4,0.8,0.4c0.3,0,0.5-0.4,0.4-0.8 C5.9,11.4,5,11.6,5,11.6z M8.2,9.4c0,0-0.1-0.6-1-0.2s-1.6,1.2-1.6,1.2s0.5,0.8,0.8,0.8c0.3,0,1-0.2,1-0.2s0.7-0.2,0.8-0.6 C8.3,10,8.2,9.4,8.2,9.4z M6,13.4c0,0-0.2,1.3,0,1.8s1.2,1.2,1.2,1.2s0.6-0.5,1-0.8c0.4-0.3,1-2,1-2L6,13.4z M11,9.4 c-0.2-0.3-0.8-0.2-0.8-0.2l-1.4,1.4c0,0,0.3,0.6,0.6,0.6c0.3-0.1,1-0.4,1.4-0.6C11.2,10.4,11.2,9.7,11,9.4z M12.2,12.8 c0,0-0.4-0.2-0.8,0c-0.4,0.2-0.6,0.8-0.6,0.8l0.6,0.4c0,0,0.3,0.1,0.6,0s0.6-0.6,0.6-0.6L12.2,12.8z M12.8,17.2 c-0.7,0-1.2,0.6-1.2,0.6l-0.2,0.8l0.6,0.6l1-0.4c0,0,0.4,0.1,0.4-0.6C13.4,17.5,13.5,17.2,12.8,17.2z M14,21.6c0,0-0.5-0.2-0.8-0.2 s-0.6,0.8-0.6,0.8l0.4,1l0.6-0.4l0.8-0.6L14,21.6z M13.8,27.8C13,27.9,12,29.2,12,29.2s-0.4,0.6-0.4,0.8c0,0.2,0.6,0.4,0.6,0.4 l1.4-0.6c0,0,0.3-0.4,0.2-0.6s1-1,1-1S14.6,27.7,13.8,27.8z M14.4,31.2c-0.4-0.3-0.8,0.2-0.8,0.2L13,30.6v1.2c0,0,0.2,0.5,0.4,1 c0.2,0.5,0.8-0.2,0.8-0.2l0.6-0.4C14.8,32.2,14.8,31.5,14.4,31.2z M15.6,33.8c-0.1-0.4-0.4-0.8-0.8-0.8s-0.5,0.3-0.8,0.4 c-0.3,0.1-0.1,0.6,0,1c0.1,0.3,0.6,0.8,0.6,0.8s0.6,0,1,0C16,35.2,15.7,34.2,15.6,33.8z M22.2,19c-0.1-0.5-0.4-1-0.4-1L21,18.8 l-0.2,0.6c0,0,0.2,0.8,0.6,1s0.6-0.2,0.6-0.2S22.3,19.5,22.2,19z M24,23.6l-0.4-1c0,0-0.6,0.9-0.6,1.4c0,0.4,0,1.6,0,1.6l0.4,1 c0,0,0.4-0.5,0.6-1.2S24,23.6,24,23.6z M25.6,27L25,25c0,0-0.4,0.5-0.6,1.2c-0.2,0.7,0,2.4,0,2.4l0.4,0.6l0.8-0.6V27z M26.4,25 l-0.6,1c0,0,0.1,1.1,0.4,1.2c0.3,0.1,0.6,0,0.6,0s0.2-0.4,0.2-1C27,25.6,26.4,25,26.4,25z M27,29.8c-0.2-0.7-0.8-0.6-0.8-0.6 l-0.4,1.2c0,0,0,1.3,0.4,1.4c0.4,0.1,0.8-0.2,0.8-0.2S27.2,30.5,27,29.8z M36.2,8.6c0,0-0.4-0.4-0.8-0.2C35,8.6,34.8,9,34.8,9 s0,0.6,0,0.8c0,0.2,0.6,0.6,0.6,0.6s0.4-0.6,0.6-0.8C36.2,9.4,36.2,8.6,36.2,8.6z"/>
</svg>