<!-- (c) Font Awesome (fontawesome.io, SIL OFL) -->
<svg xmlns="http://www.w3.org/2000/svg" id="icon">
<path d="M32.4,32.6h-5.1v-5.1h5.1V32.6z M26.2,32.6h-5.7v-5.1h5.7V32.6z M32.4,26.3h-5.1v-5.7h5.1V26.3z M26.2,26.3h-5.7v-5.7h5.7 V26.3z M32.4,19.6h-5.1v-5.1h5.1V19.6z M19.4,32.6h-5.7v-5.1h5.7V32.6z M26.2,19.6h-5.7v-5.1h5.7V19.6z M12.6,32.6H7.6v-5.1h5.1 V32.6z M19.4,26.3h-5.7v-5.7h5.7V26.3z M25.7,11.1V6c0-0.2,0.1-0.3,0.2-0.4c0.1-0.1,0.2-0.2,0.4-0.2h1.1c0.2,0,0.3,0.1,0.4,0.2 c0.1,0.1,0.2,0.2,0.2,0.4v5.1c0,0.2-0.1,0.3-0.2,0.4c-0.1,0.1-0.2,0.2-0.4,0.2h-1.1c-0.2,0-0.3-0.1-0.4-0.2 C25.7,11.4,25.7,11.2,25.7,11.1z M12.6,26.3H7.6v-5.7h5.1V26.3z M19.4,19.6h-5.7v-5.1h5.7V19.6z M12.6,19.6H7.6v-5.1h5.1V19.6z M12.1,11.1V6c0-0.2,0.1-0.3,0.2-0.4c0.1-0.1,0.2-0.2,0.4-0.2h1.1c0.2,0,0.3,0.1,0.4,0.2c0.1,0.1,0.2,0.2,0.2,0.4v5.1 c0,0.2-0.1,0.3-0.2,0.4c-0.1,0.1-0.2,0.2-0.4,0.2h-1.1c-0.2,0-0.3-0.1-0.4-0.2C12.1,11.4,12.1,11.2,12.1,11.1z M5.3,9.9v22.6 c0,0.6,0.2,1.1,0.7,1.6c0.4,0.4,1,0.7,1.6,0.7h24.9c0.6,0,1.1-0.2,1.6-0.7c0.4-0.4,0.7-1,0.7-1.6V9.9c0-0.6-0.2-1.1-0.7-1.6 c-0.4-0.4-1-0.7-1.6-0.7h-2.3V6c0-0.8-0.3-1.4-0.8-2s-1.2-0.8-2-0.8h-1.1c-0.8,0-1.4,0.3-2,0.8c-0.6,0.6-0.8,1.2-0.8,2v1.7h-6.8V6 c0-0.8-0.3-1.4-0.8-2s-1.2-0.8-2-0.8h-1.1c-0.8,0-1.4,0.3-2,0.8c-0.6,0.6-0.8,1.2-0.8,2v1.7H7.6C6.9,7.7,6.4,7.9,6,8.3 C5.5,8.8,5.3,9.3,5.3,9.9z" />
</svg>