<!-- (c) Carrd Inc. All rights reserved. All logos and trademarks are property of their respective owners. -->
<svg xmlns="http://www.w3.org/2000/svg" id="icon">
<path d="M39.1,26.3c-3.6,0-7.3,0-10.9,0c-0.6,0-0.8-0.3-0.8-0.8c0-3.7,0-7.3,0-11c0-0.6,0.2-0.8,0.8-0.8 c1.8,0,3.6,0,5.5,0c1.8,0,3.6,0,5.5,0c0.7,0,0.9,0.2,0.9,0.8c0,3.6,0,7.3,0,10.9C40,26.1,39.8,26.3,39.1,26.3z M19.7,26.7 c-3.8,0-6.7-3.1-6.7-6.9c0-3.6,3.1-6.6,6.8-6.6c3.7,0.1,6.7,3.1,6.6,6.8C26.4,23.8,23.4,26.8,19.7,26.7z M13.7,26.3 c-2.2,0-4.4,0-6.6,0c-2.2,0-4.4,0-6.6,0c-0.6,0-0.7-0.2-0.4-0.7c2.2-3.8,4.4-7.6,6.6-11.4c0.3-0.5,0.5-0.5,0.8,0 c2.2,3.8,4.4,7.6,6.6,11.4C14.5,26.1,14.4,26.3,13.7,26.3z"/>
</svg>