<!-- (c) Carrd Inc. All rights reserved. All logos and trademarks are property of their respective owners. -->
<svg xmlns="http://www.w3.org/2000/svg" id="icon">
<path d="M3,14.5h11.1l1.5,1.3c0.1,0.1,0.1,0.1,0.1,0.1l0,0c0.1,0,0.1,0,0.1-0.1l3.9-4.3c0.1-0.1,0.1-0.1,0.1-0.2 c-0.1-0.1-0.1-0.1-0.2-0.1H5.2c-0.6-0.1-1.2,0.1-1.7,0.4c-0.4,0.4-0.8,1-0.8,2.1v0.5C2.8,14.4,2.9,14.5,3,14.5L3,14.5L3,14.5L3,14.5 z M39.8,11.4H24l-0.1,0.1L21,14.1c-0.1,0.1-0.1,0.2,0,0.3c0.1,0.1,0.1,0.1,0.1,0.1h12.7l0.7,0.9c0.1,0.1,0.2,0.1,0.3,0.1l5.1-3.7 c0.1-0.1,0.1-0.2,0-0.3C39.9,11.4,39.9,11.4,39.8,11.4L39.8,11.4L39.8,11.4z M34.5,28.2c-0.4,0.1-0.9,0.1-1.3,0.1 c-3.7-0.1-6.8-3-7.1-6.7c-0.1-0.5-0.1-0.9-0.1-1.4c0-1.2,0.1-2.5,0.3-3.7c0-0.1,0-0.1-0.1-0.2c-0.1-0.1-0.1-0.1-0.2-0.1h-5.6 c-0.1,0-0.2,0.1-0.2,0.1c-0.5,1.4-0.7,2.9-0.7,4.5c0,1.2,0.2,1.8,0.6,3.3c1.1,3.4,5.1,6.6,8.4,6.6c4.9,0,6.1-1.7,6.2-2.3 C34.8,28.3,34.7,28.2,34.5,28.2L34.5,28.2L34.5,28.2L34.5,28.2z M10.8,16.4l-0.2-0.1H4.3c-0.1,0-0.2,0.1-0.2,0.2 c0,0.1,0,0.1,0.1,0.1c0,0,8.6,10,8.8,10.2c0,0,0,0.1,0.1,0.1L13,27H7.9c-0.7,0-1.5-0.2-2.1-0.7c-0.2-0.2-0.4-0.4-0.6-0.7 c-0.1,0-0.1,0-0.2,0s-0.1,0-0.2,0.1L0,30.1C0,30.1,0,30.3,0,30.4s0.1,0.1,0.1,0.1H18c1,0,1.7-1.1,1.8-2.1c0-0.4-0.1-0.9-0.4-1.2 C18.6,26.2,10.8,16.4,10.8,16.4z"/>
</svg>