<!-- (c) Carrd Inc. All rights reserved. All logos and trademarks are property of their respective owners. -->
<svg xmlns="http://www.w3.org/2000/svg" id="icon">
<path d="M23,3.6c-1.6-1.7-4.3-1.7-6-0.1c0,0,0,0-0.1,0.1L1.7,19.2c-1.7,1.7-1.7,4.5,0,6.2l10.9,11.2c0.8,0.7,1.7,1.1,2.8,1.1h9.1 c1.1,0,2.2-0.5,3-1.3l10.7-10.9c1.7-1.7,1.7-4.5,0-6.2L23,3.6L23,3.6z M22.6,32.1l-1.5,1.6c-0.1,0.1-0.3,0.2-0.4,0.2h-1.3 c-0.1,0-0.3-0.1-0.4-0.2l-1.6-1.6c-0.2-0.2-0.2-0.6,0-0.9l2.2-2.2c0.2-0.2,0.6-0.2,0.9,0c0,0,0,0,0,0l2.2,2.2 C22.8,31.5,22.8,31.9,22.6,32.1z M22.6,22.8L16.5,29c-0.1,0.1-0.3,0.2-0.4,0.2h-1.3c-0.1,0-0.3-0.1-0.4-0.2l-1.5-1.6 c-0.2-0.2-0.2-0.6,0-0.9l6.7-6.9c0.2-0.2,0.6-0.2,0.9,0c0,0,0,0,0,0l2.2,2.2C22.8,22.1,22.8,22.5,22.6,22.8L22.6,22.8z M22.6,13.4 L12,24.3c-0.1,0.1-0.3,0.2-0.4,0.2h-1.3c-0.1,0-0.3-0.1-0.4-0.2l-1.5-1.6c-0.2-0.2-0.2-0.6,0-0.9l11.3-11.6c0.2-0.2,0.6-0.2,0.9,0 c0,0,0,0,0,0l2.2,2.2C22.8,12.8,22.8,13.2,22.6,13.4z"/>
</svg>