<!-- (c) Carrd Inc. All rights reserved. All logos and trademarks are property of their respective owners. -->
<svg xmlns="http://www.w3.org/2000/svg" id="icon">
<path d="M22.5,3.5h-5.1c-4.4,0-8.5,1.7-11.6,4.8C2.7,11.4,1,15.6,1,20c0,4.4,1.7,8.6,4.8,11.6s7.3,4.8,11.6,4.8h5.1 c4.4,0,8.5-1.7,11.6-4.8C37.3,28.6,39,24.4,39,20c0-4.4-1.7-8.6-4.8-11.7C31.1,5.3,26.9,3.5,22.5,3.5z M3,20c0-3.8,1.5-7.5,4.2-10.2 c2.7-2.7,6.4-4.2,10.2-4.2c0.8,0,1.6,0.1,2.4,0.2c3.4,0.6,6.4,2.3,8.6,4.9c2.2,2.6,3.4,5.9,3.4,9.3c0,2.2-0.8,4.3-2.2,6 c-1.4,1.7-3.4,2.8-5.5,3.2c1.4-1.1,2.6-2.4,3.4-4c0.8-1.6,1.2-3.3,1.2-5.1c0-2.5-0.8-5-2.4-6.9c-1.5-2-3.7-3.4-6.1-4 c-0.9-0.2-1.9-0.4-2.8-0.4c-3,0-5.9,1.2-8,3.3c-2.1,2.1-3.3,5-3.3,8c0,2.8,0.7,5.5,2,8c1.3,2.4,3.3,4.5,5.6,6 c-3.1-0.8-5.8-2.6-7.7-5.1C4.1,26.3,3.1,23.2,3,20L3,20z M20,11.1c1.9,0.6,3.6,1.7,4.8,3.3C26,16,26.7,18,26.7,20c0,2-0.7,4-1.9,5.6 c-1.2,1.6-2.9,2.8-4.8,3.3c-1.9-0.6-3.6-1.7-4.8-3.3S13.3,22,13.3,20c0-2,0.6-4,1.9-5.6C16.4,12.8,18.1,11.7,20,11.1z M22.5,34.4 L22.5,34.4c-0.8,0-1.6-0.1-2.4-0.2c-3.3-0.5-6.3-2.2-8.4-4.7c-2.2-2.5-3.4-5.7-3.5-9c0-0.2,0-0.3,0-0.5c0-2.2,0.8-4.3,2.2-6 c1.4-1.7,3.4-2.8,5.5-3.2c-1.4,1-2.6,2.4-3.4,4s-1.2,3.3-1.2,5.1c0,2.5,0.8,5,2.4,6.9c1.5,2,3.7,3.4,6.1,4c0.9,0.2,1.9,0.4,2.8,0.4 c3,0,5.9-1.2,8-3.3s3.3-5,3.3-8c0-2.8-0.7-5.5-2-8c-1.3-2.4-3.3-4.5-5.6-6c3.1,0.8,5.8,2.6,7.7,5.1c1.9,2.5,3,5.6,3,8.8 c0,1.9-0.4,3.8-1.1,5.5c-0.7,1.7-1.8,3.3-3.1,4.7c-1.3,1.3-2.9,2.4-4.7,3.1C26.3,34,24.4,34.4,22.5,34.4z"/>
</svg>