<!-- (c) Carrd Inc. All rights reserved. All logos and trademarks are property of their respective owners. -->
<svg xmlns="http://www.w3.org/2000/svg" id="icon">
<path d="M23.7,29.7c-1.9,0-3.5-1.6-3.5-3.5c0-1.9,1.6-3.5,3.5-3.5c1.9,0,3.5,1.6,3.5,3.5C27.2,28.1,25.6,29.7,23.7,29.7 z M23.7,24.4c-1,0-1.8,0.8-1.8,1.8c0,1,0.8,1.8,1.8,1.8c1,0,1.8-0.8,1.8-1.8C25.5,25.2,24.7,24.4,23.7,24.4z M18.4,13.8 c0,1.9-1.6,3.5-3.5,3.5c-1.9,0-3.5-1.6-3.5-3.5c0-1.9,1.6-3.5,3.5-3.5C16.8,10.3,18.4,11.8,18.4,13.8z M13.1,13.8 c0,1,0.8,1.8,1.8,1.8s1.8-0.8,1.8-1.8c0-1-0.8-1.8-1.8-1.8S13.1,12.8,13.1,13.8z M30.9,16.9L8.1,24.7c-0.8,0.3-1.4,1.1-1.4,1.9v6.6 h19.6c1.8,0,3.6-0.7,4.9-2c1.3-1.3,2-3,2-4.9c0-1.3-0.4-2.6-1.1-3.7c-0.7-1.1-1.7-2-2.8-2.5C28.9,20,28.8,19.5,29,19 c0.2-0.3,0.5-0.5,0.8-0.5c0.1,0,0.3,0,0.4,0.1c1.4,0.7,2.7,1.8,3.5,3.2c0.9,1.4,1.3,3,1.3,4.6c0,2.3-0.9,4.5-2.5,6.1 c-1.6,1.6-3.8,2.5-6.1,2.5h0H5.9C5.4,35,5,34.6,5,34.1v-7.4c0-1.6,1-3.1,2.6-3.6l22.7-7.8c1.8-0.6,3-2.3,3-4.1c0-2.4-2-4.4-4.4-4.4 H6.8v14.5c0,0.5-0.4,0.9-0.9,0.9c-0.5,0-0.9-0.4-0.9-0.9V5.9C5,5.4,5.4,5,5.9,5h23c3.4,0,6.1,2.8,6.1,6.1 C35,13.8,33.3,16.1,30.9,16.9z"/>
</svg>