<!-- (c) Carrd Inc. All rights reserved. All logos and trademarks are property of their respective owners. -->
<svg xmlns="http://www.w3.org/2000/svg" id="icon">
<path d="M31.4,20.8c-0.2,0-0.3-0.2-0.4-0.3c-0.1-0.5,0.2-0.6,0.4-0.6c0.2,0,0.4,0.1,0.4,0.4 C31.8,20.6,31.6,20.8,31.4,20.8z M35.3,36c-0.8,0.9-1.8,1.3-2.9,1.5c-0.6,0.1-1.3,0.2-2,0.1c-1.3-0.2-1.9-0.9-2.1-2.2 c-0.1-0.8-0.1-1.5-0.2-2.3c-0.2-1.7-0.7-3.4-2-4.6c-0.7-0.7-1.6-0.8-2.5-0.7c-0.1,0-0.2,0.2-0.2,0.3c0,0.9,0.1,1.8,0.1,2.7 c-0.1,1.7-0.3,3.5-1.2,5c-0.6,1-1.4,1.7-2.4,2.2c-1.4,0.7-2.8,1.2-4.3,1.5c-0.5,0.1-1.1,0.1-1.6,0.1c-1,0-1.9-0.1-2.7-0.6 c-1.2-0.7-1.7-1.9-1.9-3.2c-0.1-1,0.1-1.8,0.9-2.4c0.6-0.5,1.3-0.7,2-0.8c0.6-0.1,1.1-0.1,1.7-0.1c1,0,2.7-1,2.8-2.5 c0.1-0.7-0.1-1.4-0.5-2c-0.9-1.7-1.9-3.3-2.8-5c-0.2-0.3-0.3-0.6-0.5-0.8c-0.1-0.1-0.3-0.2-0.5-0.2c-1.8,0.6-3.6,1.5-5.2,2.7 c-1,0.8-2.2,1.5-3.4,2c-2,0.8-3.6-0.5-3.8-2.3c-0.2-1.9,0.7-3.3,2.2-4.3c1.1-0.7,2.2-1.4,3.4-1.9c1.3-0.6,2.7-1.1,4.1-1.7 c0.4-0.2,0.8-0.4,1.2-0.5c0.3-0.1,0.3-0.3,0.2-0.5c-0.4-1.5-0.9-3.1-1.2-4.6c-0.4-1.8-0.4-3.7,0.5-5.4c0.6-1.2,1.5-2,2.6-2.6 c1.1-0.6,2.2-1.1,3.4-1.3c1.5-0.3,3-0.3,4.4,0.5c1.2,0.7,1.9,1.9,2.3,3.2c0.6,1.8,1,3.7,1.6,5.5c0,0.1,0.1,0.3,0.1,0.4 c0.1,0.3,0.3,0.4,0.6,0.4c1.3-0.1,2.2-0.8,2.7-1.9c0.5-1,0.8-2,1.2-3c0.3-0.9,0.6-1.9,1.1-2.7c0.8-1.1,2.3-1.4,3.5-0.9 c1.6,0.7,2.1,2.2,1.9,3.8c-0.3,2.6-1.4,4.9-3.1,6.9c-1.4,1.7-2.9,3.2-4.5,4.8c-0.7,0.7-0.6,1.6,0.1,2.1c1.6,1.2,3.1,2.7,4.3,4.3 c0.7,1,1.1,2.1,1.5,3.2c0.4,1,0.8,2.1,1.1,3.1c0.3,0.9,0.5,1.9,0.7,2.9C36.1,34.8,35.8,35.4,35.3,36z M22.5,8.2 c-0.2-1.2-0.6-2.4-1.3-3.5c-0.6-0.9-1.4-1.3-2.5-1.4c-0.6,0.1-1.3,0.2-1.9,0.4c-1.3,0.4-2.3,1.2-2.9,2.4c-0.4,0.9-0.4,1.9-0.2,2.8 c0.1,0.8,0.4,1.5,0.8,2.1c0.8,1,1.8,1.2,3,1c1.3-0.2,2.6-0.8,3.7-1.5C22.2,10.1,22.7,9.3,22.5,8.2z M21,9.5 c-0.2-0.1-0.3-0.3-0.3-0.5c0.1-0.4,0-0.8-0.1-1.2c-0.1-0.3,0-0.4,0.2-0.5c0.2-0.1,0.5-0.1,0.6,0.2c0.1,0.3,0.2,0.7,0.3,1 c-0.1,0.3-0.1,0.6-0.2,0.8C21.4,9.4,21.1,9.5,21,9.5z M20.5,6c-0.1,0.1-0.4,0.1-0.5,0c-0.2-0.3-0.4-0.6-0.5-0.9 c-0.1-0.3,0.3-0.5,0.5-0.3c0.3,0.2,0.5,0.6,0.7,0.8C20.6,5.8,20.6,6,20.5,6z M34.5,14.2c0.2,0.3,0.3,0.6,0.5,0.8 c0.2,0.2,0.6,0.2,0.9,0.3c0,0,0,0.1,0.1,0.1c-0.7,0.2-1.1,0.6-1,1.4c-0.1,0-0.1,0-0.2,0c-0.1-0.3-0.2-0.6-0.5-0.8 c-0.2-0.2-0.6-0.2-0.9-0.3c0.7-0.2,1-0.6,0.9-1.3C34.4,14.2,34.4,14.2,34.5,14.2z M25.6,5.4C25.7,5.2,25.9,5,26,5 c0.1,0,0.3,0.2,0.5,0.4c-0.3,0.2-0.4,0.4-0.6,0.3C25.8,5.7,25.7,5.5,25.6,5.4z M6.2,7.5c0-0.1,0.1-0.1,0.2-0.2 c0.1,0.1,0.2,0.2,0.2,0.3c0,0.1-0.1,0.1-0.2,0.3C6.3,7.7,6.2,7.6,6.2,7.5z M3.2,15.4c0-0.1,0.3-0.4,0.4-0.4c0.2,0,0.3,0.2,0.6,0.4 c-0.3,0.2-0.4,0.4-0.6,0.4C3.4,15.8,3.1,15.7,3.2,15.4z M8.1,28.1c-0.2,0.1-0.4,0.2-0.4,0.2c-0.1,0-0.2-0.2-0.3-0.3 c0.1-0.1,0.2-0.2,0.3-0.2C7.8,27.8,7.9,27.9,8.1,28.1z M24.6,34.9c0.1,0,0.2,0.2,0.5,0.3c-0.2,0.1-0.3,0.3-0.5,0.3 c-0.1,0-0.3-0.2-0.3-0.3C24.3,35.1,24.4,34.9,24.6,34.9z"/>
</svg>