<!-- (c) Carrd Inc. All rights reserved. All logos and trademarks are property of their respective owners. -->
<svg xmlns="http://www.w3.org/2000/svg" id="icon">
<path d="M31.1,13.4c-2.4,0-4.4-2-4.4-4.4V4.5h8.9v8.9H31.1z M31.1,15.6h4.4v8.9h-4.4c-2.4,0-4.4-2-4.4-4.4 C26.6,17.6,28.6,15.6,31.1,15.6z M31.1,26.6h4.4v8.9h-8.9v-4.4C26.6,28.6,28.6,26.6,31.1,26.6z M15.6,31.1c0-2.4,2-4.4,4.4-4.4 s4.4,2,4.4,4.4v4.4h-8.9V31.1z M20,24.4c-2.4,0-4.4-2-4.4-4.4c0-2.4,2-4.4,4.4-4.4c2.4,0,4.4,2,4.4,4.4C24.4,22.4,22.4,24.4,20,24.4 z M20,13.4c-2.4,0-4.4-2-4.4-4.4V4.5h8.9v4.4C24.4,11.4,22.4,13.4,20,13.4z M4.5,26.6h4.4c2.4,0,4.4,2,4.4,4.4v4.4H4.5V26.6z M8.9,24.4H4.5v-8.9h4.4c2.4,0,4.4,2,4.4,4.4C13.4,22.4,11.4,24.4,8.9,24.4z M8.9,13.4H4.5V4.5h8.9v4.4 C13.4,11.4,11.4,13.4,8.9,13.4z"/>
</svg>