<!-- (c) Carrd Inc. All rights reserved. All logos and trademarks are property of their respective owners. -->
<svg xmlns="http://www.w3.org/2000/svg" id="icon">
<path d="M31,7.7c-1.8-0.8-3.5-1.5-5.2-2.2c0.7-1.8,1.5-3.5,2.2-5.3c1.8,0.7,3.5,1.5,5.2,2.2C32.5,4.1,31.8,5.9,31,7.7z M26.6,10.8c1.5,0,2.9,0,4.5,0c0,0.2,0,0.4,0,0.6c0,6.9,0,13.9,0,20.8c0,0.5-0.1,0.6-0.6,0.6c-1.2,0-2.5,0-3.7,0 c-0.5,0-0.7-0.2-0.7-0.7c0-3.8,0-7.7,0-11.5c0-0.1,0-0.2-0.1-0.3c-0.6,1-1.1,2-1.7,3.1c-0.9,1.6-1.8,3.3-2.7,4.9 c-0.2,0.3-0.4,0.4-0.7,0.4c-0.7,0-1.3,0-2,0c-0.5,0-0.7-0.2-0.9-0.6c-1.4-2.6-2.8-5.1-4.3-7.7c0,0-0.1-0.1-0.2-0.2 c0,0.3,0,0.4,0,0.6c0,3.8,0,7.5,0,11.3c0,0.4-0.1,0.6-0.6,0.5c-1.3,0-2.5,0-3.8,0c-0.3,0-0.5-0.1-0.5-0.4c0-7.1,0-14.2,0-21.3 c0-0.1,0-0.1,0-0.3c1.6,0,3.1,0,4.6,0c0.2,0,0.4,0.2,0.4,0.4c1.8,3.4,3.5,6.8,5.3,10.1c0.1,0.3,0.3,0.6,0.4,0.8 c0.1,0.1,0.2,0.2,0.3,0.3c0.1-0.1,0.2-0.2,0.3-0.3c1.4-2.7,2.8-5.4,4.2-8.1c0.5-0.9,1-1.9,1.5-2.8C26,10.9,26.2,10.8,26.6,10.8z"/>
</svg>