<!-- (c) Carrd Inc. All rights reserved. All logos and trademarks are property of their respective owners. -->
<svg xmlns="http://www.w3.org/2000/svg" id="icon">
<path d="M40,20.3c0-2.8-1.4-5.1-4-5.1c-2.6,0-4.2,2.2-4.2,5.1c0,3.3,1.9,5,4.6,5c1.3,0,2.3-0.3,3.1-0.7v-2.2 c-0.8,0.4-1.6,0.6-2.7,0.6c-1.1,0-2-0.4-2.2-1.7H40C40,21.1,40,20.5,40,20.3z M34.5,19.2c0-1.3,0.8-1.8,1.5-1.8 c0.7,0,1.4,0.5,1.4,1.8H34.5L34.5,19.2z M27.5,15.2c-1.1,0-1.8,0.5-2.2,0.9l-0.1-0.7h-2.4v13l2.8-0.6l0-3.1c0.4,0.3,1,0.7,2,0.7 c2,0,3.8-1.6,3.8-5.1C31.2,16.9,29.4,15.2,27.5,15.2L27.5,15.2z M26.8,22.8c-0.7,0-1-0.2-1.3-0.5l0-4.1c0.3-0.3,0.7-0.5,1.3-0.5 c1,0,1.7,1.1,1.7,2.6C28.5,21.7,27.8,22.8,26.8,22.8z M18.9,14.5l2.8-0.6v-2.3l-2.8,0.6V14.5z M18.9,15.4h2.8v9.7h-2.8V15.4z M15.9,16.2l-0.2-0.8h-2.4v9.7h2.8v-6.6c0.7-0.9,1.8-0.7,2.1-0.6v-2.6C17.8,15.2,16.5,15,15.9,16.2L15.9,16.2z M10.3,13l-2.7,0.6 l0,8.9c0,1.6,1.2,2.9,2.9,2.9c0.9,0,1.6-0.2,1.9-0.4v-2.3c-0.4,0.1-2.1,0.7-2.1-1v-3.9h2.1v-2.4h-2.1L10.3,13z M2.8,18.2 c0-0.4,0.4-0.6,0.9-0.6c0.8,0,1.9,0.3,2.8,0.7v-2.6c-0.9-0.4-1.8-0.5-2.8-0.5c-2.3,0-3.8,1.2-3.8,3.1c0,3.1,4.2,2.6,4.2,3.9 c0,0.5-0.4,0.7-1.1,0.7c-0.9,0-2.1-0.4-3-0.9v2.6c1,0.4,2.1,0.6,3,0.6c2.3,0,3.9-1.1,3.9-3.1C7,18.9,2.8,19.4,2.8,18.2L2.8,18.2z"/>
</svg>