<!-- (c) Carrd Inc. All rights reserved. All logos and trademarks are property of their respective owners. -->
<svg xmlns="http://www.w3.org/2000/svg" id="icon">
<path d="M36.5,32.8c-1.6,1.6-3.8,2.7-6.3,2.7H9.8c-2.6,0-4.8-1.1-6.3-2.7C1.9,31.2,1,29,1,26.7c0-1.5,0.4-3,1.2-4.4 L12.4,6.9l0,0l0,0l0,0c1.7-2.9,4.5-4.4,7.4-4.4c3,0,6,1.4,7.8,4.4l0,0l0,0l0,0l0,0l0,0l10.2,15.5c0.8,1.4,1.2,2.9,1.2,4.4 C39,29,38.1,31.2,36.5,32.8z M13.5,17.3c-3,0-5.4,2.9-5.4,6.6c0,3.6,2.4,6.6,5.4,6.6s5.4-2.9,5.4-6.6C18.9,20.3,16.5,17.3,13.5,17.3 z M26.1,17.3c-3,0-5.4,2.9-5.4,6.6c0,3.6,2.4,6.6,5.4,6.6s5.4-2.9,5.4-6.6C31.5,20.3,29.1,17.3,26.1,17.3z M25.3,24.5 c-1.3,0-2.4-1.1-2.4-2.4c0-1.3,1.1-2.4,2.4-2.4c1.3,0,2.4,1.1,2.4,2.4C27.7,23.4,26.7,24.5,25.3,24.5z M12.9,24.5 c-1.3,0-2.4-1.1-2.4-2.4c0-1.3,1.1-2.4,2.4-2.4s2.4,1.1,2.4,2.4C15.3,23.4,14.2,24.5,12.9,24.5z"/>
</svg>