<!-- (c) Carrd Inc. All rights reserved. All logos and trademarks are property of their respective owners. -->
<svg xmlns="http://www.w3.org/2000/svg" id="icon">
<path d="M34.9,33.5c-1.8-1.8-3.7-3.7-5.5-5.5c-0.1-0.1-0.2-0.3-0.2-0.5c0-1.3,0-2.6,0-3.9c0-0.5-0.1-0.6-0.6-0.6 c-1.3,0-2.6,0-3.8,0c-0.3,0-0.4-0.1-0.6-0.3c-1.8-1.8-3.6-3.6-5.4-5.4c-0.1-0.1-0.2-0.2-0.3-0.3c0.2,0,0.3,0,0.5,0 c3.2,0,6.3,0,9.5,0c0.7,0,0.7,0,0.7-0.7c0-0.8,0-1.6,0-2.4c0-1.9-1.3-3.2-3.2-3.2c-4.5,0-9,0-13.5,0c-0.3,0-0.5-0.1-0.7-0.3 c-1.8-1.8-3.6-3.6-5.4-5.4C6.4,5,6.3,4.9,6.2,4.8c7.2,0,14.5,0,21.7,0c0.1,0,0.2,0.1,0.2,0.1c3.3,0.4,5.5,2.1,6.6,5.2 c0.2,0.6,0.3,1.3,0.4,2c0,7.2,0,14.5,0,21.7C35.1,33.7,35,33.6,34.9,33.5z M10.6,11.4c0.1,0.1,0.2,0.4,0.2,0.6c0,1.5,0,3,0,4.4 c0,0.5,0.1,0.6,0.6,0.6c1.5,0,2.9,0,4.4,0c0.3,0,0.4,0.1,0.6,0.3c1.8,1.8,3.6,3.6,5.4,5.4c0.1,0.1,0.2,0.2,0.3,0.3 c-0.2,0-0.4,0-0.5,0c-3.4,0-6.7,0-10.1,0c-0.7,0-0.7,0-0.7,0.7c0,0.8,0,1.6,0,2.4c0,2,1.3,3.2,3.2,3.2c4.7,0,9.4,0,14,0 c0.3,0,0.4,0.1,0.6,0.3c1.8,1.8,3.6,3.6,5.4,5.4c0.1,0.1,0.1,0.2,0.2,0.3c-7.4,0-14.8,0-22.2,0c-0.1,0-0.2-0.1-0.2-0.1 c-3.3-0.4-5.5-2.1-6.6-5.2c-0.2-0.6-0.3-1.3-0.4-2c0-7.4,0-14.8,0-22.2C4.9,5.8,5,5.9,5.1,5.9C7,7.8,8.8,9.6,10.6,11.4z"/>
</svg>