<!-- (c) Carrd Inc. All rights reserved. All logos and trademarks are property of their respective owners. -->
<svg xmlns="http://www.w3.org/2000/svg" id="icon">
<path d="M38.9,21.8c-0.1,1.7-0.4,3.4-1,5c-0.9,2.5-2.2,4.6-4.1,6.4c-1.2,1.2-2.6,2.2-4.1,3c0,0-0.1,0-0.2,0 c0-0.1,0.1-0.1,0.1-0.2c1.1-1.2,2.2-2.4,3.1-3.7c0.3-0.5,0.7-1.1,1-1.6c0.6-1.1,1-2.3,1.1-3.6c0.2-1.7,0.3-3.4,0.2-5.1 c-0.2-3.6-1-7.1-2.9-10.2c-1.5-2.5-3.7-4.4-6.3-5.7c-1.4-0.7-2.9-1-4.5-0.9c-1.6,0-3.1,0.2-4.7,0.5c-0.1,0-0.1,0-0.2,0 c1-0.6,2.1-1,3.2-1.3c0.9-0.3,1.9-0.5,2.8-0.6c1.2-0.2,2.4-0.1,3.7,0c2.4,0.3,4.6,1.2,6.6,2.7c2.3,1.7,3.9,4,5,6.6 c0.5,1.2,0.7,2.4,0.9,3.7c0.1,0.7,0.1,1.5,0.2,2.2c0,0.1,0,0.1,0,0.2c0,0.5,0,1.1,0,1.6C39,21.1,38.9,21.5,38.9,21.8z M24.4,2.8 C23,2.5,21.5,2.5,20,2.7c-0.8,0.1-1.5,0.4-2.2,0.7c-4,1.7-7.3,4.1-9.8,7.7c-1.4,2-2.3,4.3-2.8,6.7C5.1,19.1,5,20.4,5,21.7 c0.1,1.6,0.6,3.1,1.4,4.4c0.8,1.3,1.6,2.6,2.5,3.8C8.9,30,9,30.1,9,30.2c-1-0.7-1.8-1.5-2.7-2.4c-2-2.1-3.4-4.6-4-7.4 c-1-4.6-0.1-8.9,2.6-12.7c1.1-1.6,2.5-2.7,4.1-3.8c2-1.4,4.2-2.4,6.6-3c0.8-0.2,1.5-0.2,2.3-0.3c0.1,0,0.2,0,0.3,0 c0.4,0,0.7,0,1.1,0c0.3,0,0.5,0.1,0.8,0.1C21.8,0.7,23.5,1.2,25,2C26,2.4,27,3,27.9,3.6c0,0,0.1,0,0.1,0.1c0,0-0.1,0-0.1,0 C26.7,3.4,25.6,3,24.4,2.8z M29.3,17.8c0.9,0.2,1.4,0.8,1.5,1.6c0.3,1.6-0.2,3-1.3,4.1c-0.4,0.4-0.8,0.6-1.2,0.9 c-0.4,0.3-0.9,0.4-1.4,0.4c-0.2,0-0.5,0-0.7-0.1c-0.9-0.2-1.4-0.8-1.6-1.7c-0.2-0.8,0-1.6,0.3-2.4c0.6-1.3,1.5-2.2,2.7-2.7 C28.2,17.7,28.8,17.7,29.3,17.8z M23.8,10.8c0.6-0.5,1.4-0.6,2.2-0.5c0.9,0.1,1.4,0.7,1.7,1.5c0.6,1.7,0.2,3.2-0.8,4.6 c-0.5,0.7-1,1.2-1.8,1.6c-1.1,0.6-2.4,0.3-3-0.7c-0.4-0.6-0.6-1.2-0.6-1.8c0-0.1,0-0.2,0-0.3C21.6,13.4,22.3,11.9,23.8,10.8z M10.9,21.2c-0.9-0.6-1.4-1.4-1.7-2.4c-0.1-0.5-0.2-1-0.3-1.4c0,0,0,0,0.1,0c0-0.9,0.2-1.8,0.7-2.6c0.6-0.9,1.7-1.2,2.6-0.7 c0.7,0.4,1.2,0.9,1.5,1.6c0.7,1.4,1,2.8,0.4,4.4c-0.1,0.2-0.2,0.4-0.3,0.6C13.1,21.7,11.9,21.9,10.9,21.2z M18.9,16.3 c-0.8,0.5-1.7,0.5-2.5,0c-0.8-0.6-1.3-1.4-1.5-2.4c-0.3-1.3-0.2-2.6,0.4-3.8c0.4-0.9,1-1.5,2-1.8c0.5-0.1,1,0,1.5,0.3 c0.8,0.5,1.3,1.3,1.5,2.2c0.1,0.6,0.2,1.2,0.2,1.5c0,1.2-0.2,2.1-0.6,3C19.7,15.7,19.3,16.1,18.9,16.3z M22.9,22.6 c1.2,1.8,1.9,3.9,2.3,6c0,0,0,0.1,0,0.1c0,0.2,0,0.5,0.1,0.8c0,0.3-0.1,0.6-0.2,1c-0.2,0.7-0.8,1.2-1.6,1.3 c-0.9,0.1-1.7-0.2-2.4-0.7c-0.3-0.2-0.6-0.5-0.9-0.7c-1.1-0.9-2.5-1.3-3.9-1.2c-0.8,0-1.6,0.1-2.4,0.2c-1.1,0.1-2.1-0.2-2.8-1 c-0.1-0.1-0.2-0.3-0.3-0.5c-0.2-0.8-0.1-1.5,0.3-2.2c1-1.9,2.4-3.5,4.2-4.6c0.8-0.5,1.6-0.7,2.5-0.8c1-0.1,1.9,0,2.8,0.4 C21.5,21,22.3,21.7,22.9,22.6z M5.8,28.9c1.7,1.6,3.6,2.9,5.7,3.9c2,1,4,1.6,6.1,2c3,0.5,5.9,0,8.8-1c2.4-0.9,4.4-2.4,5.8-4.6 c0.8-1.2,1.5-2.4,2.3-3.6c0-0.1,0.1-0.1,0.1-0.2c-0.2,1.4-0.7,2.6-1.2,3.9c-1,2.5-2.5,4.6-4.5,6.3c-2.3,2-5,3.3-8,3.7 c-0.6,0.1-1.1,0.1-1.7,0.2c-0.1,0-0.2,0-0.2,0c-0.4,0-0.8,0-1.2,0c-0.1,0-0.1,0-0.2,0c-0.5,0-1-0.1-1.5-0.1 c-0.8-0.1-1.7-0.2-2.5-0.5c-2.6-1-4.9-2.4-7-4.2c-1.1-1-2.2-2.1-3-3.4C2.2,29,1.3,26.6,1.1,24c0-0.3-0.1-0.6-0.1-0.9 c0-0.5,0-1,0-1.4c0-0.4,0.1-0.9,0.1-1.3c0.1-0.6,0.1-1.2,0.2-1.8c0,0,0,0,0.1,0c0.1,0.3,0.1,0.7,0.2,1C1.8,21.4,2.2,23.3,3,25 C3.6,26.6,4.6,27.8,5.8,28.9z"/>
</svg>