<!-- (c) Carrd Inc. All rights reserved. -->
<svg xmlns="http://www.w3.org/2000/svg" id="icon">
<path d="M31.8,11.4c0.3,0.3,0.6,0.7,0.8,1.3s0.3,1,0.3,1.5v19.1c0,0.4-0.2,0.8-0.5,1.1c-0.3,0.3-0.7,0.5-1.1,0.5H9.1 c-0.4,0-0.8-0.2-1.1-0.5c-0.3-0.3-0.5-0.7-0.5-1.1V6.7c0-0.4,0.2-0.8,0.5-1.1c0.3-0.3,0.7-0.5,1.1-0.5h14.9c0.4,0,0.9,0.1,1.5,0.3 c0.5,0.2,1,0.5,1.3,0.8L31.8,11.4z M24.5,7.4v6.2h6.2c-0.1-0.3-0.2-0.5-0.4-0.7l-5.2-5.2C25,7.6,24.8,7.5,24.5,7.4z M30.8,32.7v-17 h-6.9c-0.4,0-0.8-0.2-1.1-0.5c-0.3-0.3-0.5-0.7-0.5-1.1V7.3H9.6v25.5L30.8,32.7L30.8,32.7z"/>
</svg>