<!-- (c) Carrd Inc. All rights reserved. All logos and trademarks are property of their respective owners. -->
<svg xmlns="http://www.w3.org/2000/svg" id="icon">
<path d="M35,20.5c0,2.9-0.6,5.5-1.8,7.7c-1.2,2.2-2.9,4-5.1,5.2c-2.2,1.2-4.8,2-7.7,2c-2.1,0-4-0.4-6-1.2c-2-0.9-3.5-1.8-4.9-3.3 c-1.3-1.5-2.4-2.9-3.3-4.9C5.4,24.1,5,22.1,5,20s0.4-4,1.2-6S8,10.5,9.5,9.1s2.9-2.4,4.9-3.3c1.8-0.9,3.9-1.2,6-1.2 c3.9,0,7.3,1.3,10.2,4l-4.1,4c-1.6-1.6-3.7-2.3-6.1-2.3c-1.7,0-3.3,0.5-4.8,1.3c-1.5,0.9-2.6,2.1-3.4,3.5s-1.2,3-1.2,4.9 c0,1.8,0.4,3.4,1.2,4.9s2,2.7,3.4,3.5c1.5,0.9,3,1.3,4.8,1.3c1.1,0,2.2-0.1,3.2-0.5c1-0.4,1.7-0.7,2.4-1.2c0.6-0.5,1.2-1,1.6-1.6 c0.5-0.6,0.9-1.2,1-1.7c0.2-0.5,0.4-1.1,0.5-1.6h-8.7V18h14.4C34.9,18.8,35,19.6,35,20.5L35,20.5z"/>
</svg>