<!-- (c) Carrd Inc. All rights reserved. All logos and trademarks are property of their respective owners. -->
<svg xmlns="http://www.w3.org/2000/svg" id="icon">
<path d="M20,33.3L0,20.9v-3.4l20,12.4l20-12.4v3.4L20,33.3z M25.8,23.2L23,24.9c-1.3-1.9-3.2-3-5.4-3 c-1.3,0-2.5,0.4-3.6,1.2c1.3-1.8,3.5-3,5.9-3C22.5,20.1,24.6,21.3,25.8,23.2z M9.7,19.7c-0.2,0.1-0.3,0.2-0.5,0.4 c2.3-3.5,6.2-5.8,10.7-5.8c4.5,0,8.5,2.3,10.8,5.7l-2.9,1.9C23.5,16.1,15.4,15,9.7,19.7z M32.6,18.9C26.4,10.3,14.7,8.6,6.5,15 c-0.8,0.6-1.5,1.4-2.1,2.1C7.7,12,13.5,8.7,20,8.7c6.5,0,12.3,3.4,15.7,8.4L32.6,18.9L32.6,18.9z"/>
</svg>