<!-- (c) Carrd Inc. All rights reserved. All logos and trademarks are property of their respective owners. -->
<svg xmlns="http://www.w3.org/2000/svg" id="icon">
<path d="M27.2,8.5c-1.7-1.1-3.4-1.5-5-2.6c-1-0.7-2.4-2.3-3.6-3.7c-0.2,2.2-0.9,3.2-1.7,3.8c-1.7,1.3-2.7,1.7-4.1,2.5 c-1.2,0.6-7.8,4.5-7.8,12.9S12.1,36.1,20,36.1c7.9,0,14.7-5.7,14.7-14.3S28.3,9.2,27.2,8.5L27.2,8.5z M24.6,28.8 c0.5,0,1.1,0,1.5,0.3s0.6,0.8,0.7,1.2c0.1,0.3,0,0.5-0.3,0.7c-0.2,0.1-0.3,0.1-0.5-0.4c-0.2-0.4-0.4-0.9-1.6-0.9s-1.5,0.4-2.1,0.9 c-0.6,0.5-0.7,0.6-0.9,0.4s-0.1-0.5,0.2-0.8c0.4-0.3,0.9-0.8,1.5-1.1C23.8,28.7,24,28.8,24.6,28.8L24.6,28.8L24.6,28.8z M19.2,32.5 c0.6,0.5,1.6,0.9,3.7,0.9s3.5-0.6,4.2-1.1c0.3-0.2,0.4,0,0.5,0.1c0,0.1,0.1,0.3-0.1,0.6c-0.2,0.2-1.7,1.2-3.4,1.4 c-1.8,0.2-4.1,0.3-5.6-1c-0.2-0.2-0.2-0.6,0-0.7c0.2-0.1,0.3-0.2,0.5-0.2C19.1,32.4,19.1,32.4,19.2,32.5L19.2,32.5L19.2,32.5z M11.5,26.5c0-2.5,2.4-4.9,5.4-5c3.8,0,6.4,3.8,8.4,3.8c1.6,0,4.7-3.2,6.3-3.2c1.6,0,2.1,1.7,2.1,2.7c0,1-0.3,2.8-1.1,4 c-0.8,1.1-1.3,1.6-2.2,1.5c-1.2-0.1-3.5-3.8-5-3.8c-1.9-0.1-6,3.9-9.2,3.9c-1.9,0-2.5-0.3-3.2-0.7C11.9,29,11.4,28,11.5,26.5 L11.5,26.5L11.5,26.5z"/>
</svg>