<!-- (c) Carrd Inc. All rights reserved. All logos and trademarks are property of their respective owners. -->
<svg xmlns="http://www.w3.org/2000/svg" id="icon">
<path d="M25,33.1c0-3.2,0-6.3,0-9.5c-3.3,0-6.7,0-10.1,0c0,0.2,0,0.3,0,0.5c0,3.2,0,6.5,0,9.7c0,0.9-0.2,1.1-1.1,1.1 c-1.7,0-3.4,0-5.2,0c-0.6,0-0.9-0.3-0.9-0.9c0-3.8,0-7.7,0-11.5c0-5,0-10,0-15c0-0.2,0-0.3,0-0.5c-0.4,0-0.7,0-1,0 c-0.4,0-0.7-0.1-0.8-0.5c-0.1-0.3,0-0.7,0.3-0.9c0.7-0.7,1.4-1.3,2.1-2C9.1,2.8,10,2,10.8,1.3c0.4-0.4,0.8-0.4,1.2,0 c1.5,1.4,3.1,2.9,4.6,4.3c0.3,0.2,0.3,0.5,0.2,0.9c-0.1,0.3-0.4,0.5-0.8,0.5c-0.3,0-0.7,0-1,0c0,3.2,0,6.3,0,9.5c3.3,0,6.7,0,10.1,0 c0-0.2,0-0.3,0-0.5c0-3.2,0-6.5,0-9.7c0-0.2,0-0.3,0-0.5c0.1-0.4,0.3-0.6,0.8-0.6c1.8,0,3.7,0,5.5,0c0.5,0,0.8,0.3,0.8,0.7 c0,0.1,0,0.2,0,0.3c0,8.8,0,17.6,0,26.3c0,0.2,0,0.3,0,0.5c0.4,0,0.7,0,1.1,0c0.4,0,0.6,0.1,0.8,0.5c0.1,0.3,0,0.6-0.2,0.9 c-0.7,0.7-1.5,1.4-2.2,2c-0.8,0.8-1.6,1.5-2.5,2.3c-0.4,0.3-0.7,0.3-1.1,0c-1.6-1.4-3.1-2.9-4.6-4.3c-0.3-0.2-0.4-0.5-0.2-0.9 c0.1-0.3,0.4-0.5,0.8-0.5C24.3,33.1,24.7,33.1,25,33.1z"/>
</svg>