<!-- (c) Carrd Inc. All rights reserved. All logos and trademarks are property of their respective owners. -->
<svg xmlns="http://www.w3.org/2000/svg" id="icon">
<path d="M33.4,26.4c-2.5,5.7-7.7,8.7-13.3,8.7C9.5,34.6,6.4,22.3,13.5,17.8l0.3,0.3c-0.1,0.2-0.5,0.5-1.2,1.8 c-0.8,1.6-1,3.2-0.9,4.1c0.6,8.6,12.6,10.3,16.7,1.8c5.3-11.7-8.7-23.5-21.1-14.4L7,11.2c3.3-5.1,9.6-7.4,15.7-5.9 C32.1,7.7,37.1,17.4,33.4,26.4z M23.5,26.3c-0.9,1.2-2.3,2.1-3.9,2.1c-2.6,0-4.8-2.1-4.8-4.8c0-2.5,2-4.6,4.4-4.8v0 c1.5-0.1,3,0.8,3.7,2.1c0.7,1.5,0.5,3.3-0.7,4.5C22.6,25.7,23,26,23.5,26.3L23.5,26.3z M6.8,23.1c-0.2,1.9-0.1,2.5-0.1,2.7L6.3,26 c-0.2-0.3-0.6-1.4-0.7-2.9C5.1,17.4,9,12.4,14.8,11.4c5.4-0.8,10.5,2.5,11.7,7.2l-0.4,0.2c-0.1-0.1-0.3-0.5-1.2-1.3 C18.4,10.9,8.3,13.9,6.8,23.1z M37.5,20C37.1,1.3,12.4-5.6,2.8,11.9c0.4,0.3,1,0.7,1.4,1C3.5,14.4,3,16,2.8,17.5 c-0.2,1-0.3,2.1-0.3,3.1c0,9.7,7.8,17.5,17.5,17.5c9.7,0,17.5-7.8,17.5-17.5C37.5,20.4,37.5,20.2,37.5,20"/>
</svg>