<!-- (c) Carrd Inc. All rights reserved. All logos and trademarks are property of their respective owners. -->
<svg xmlns="http://www.w3.org/2000/svg" id="icon">
<path d="M22.1,16.1v-2.3c0-0.5-0.2-1-0.6-1.4c-0.4-0.4-0.9-0.6-1.4-0.6s-1,0.2-1.4,0.6c-0.4,0.4-0.6,0.9-0.6,1.4v11.8 c0,2.3-0.8,4.2-2.4,5.8c-1.6,1.6-3.6,2.4-5.9,2.4c-2.3,0-4.2-0.8-5.9-2.4c-1.6-1.6-2.4-3.6-2.4-5.9v-5.1h6.3v5.1 c0,0.6,0.2,1,0.6,1.4c0.4,0.4,0.9,0.6,1.4,0.6s1-0.2,1.4-0.6c0.4-0.4,0.6-0.8,0.6-1.4v-12c0-2.2,0.8-4.1,2.4-5.6s3.6-2.3,5.8-2.3 c2.3,0,4.2,0.8,5.8,2.4s2.4,3.5,2.4,5.7v2.6l-3.8,1.1L22.1,16.1z M32.3,20.4h6.3v5.1c0,2.3-0.8,4.2-2.4,5.9s-3.6,2.4-5.9,2.4 c-2.3,0-4.2-0.8-5.9-2.4c-1.6-1.6-2.4-3.5-2.4-5.8v-5.2l2.5,1.2l3.8-1.1v5.2c0,0.5,0.2,1,0.6,1.4c0.4,0.4,0.9,0.6,1.4,0.6 c0.5,0,1-0.2,1.4-0.6c0.4-0.4,0.6-0.8,0.6-1.4L32.3,20.4L32.3,20.4z"/>
</svg>