<!-- (c) Carrd Inc. All rights reserved. All logos and trademarks are property of their respective owners. -->
<svg xmlns="http://www.w3.org/2000/svg" id="icon">
<path d="M40,23.8c-0.1,3-1.5,5.3-4,7c-1.5,1-3.2,1.5-4.9,1.5c-1.5,0-2.9-0.1-4.3-0.8c-0.4-0.2-0.9-0.4-1.3-0.7 c-1.2,2.1-2.9,3.5-5.4,3.4c-2.5,0-4.2-1.3-5.5-3.5c0,0-0.1,0.1-0.2,0.1c-1.5,0.9-3,1.3-4.7,1.3c-1.4,0-2.8-0.1-4.1-0.7 c-3-1.3-4.8-3.6-5.4-6.8C0,24.3,0,23.9,0,23.4c0-1.8,0-3.5,0-5.3c0-3.3,1.5-5.8,4.2-7.5c0.2-0.1,0.2-0.2,0.3-0.4 c0.1-0.7,0.4-1.4,0.7-2c0.5-0.9,1.6-1.1,2.4-0.3C7.7,8.1,7.8,8.2,8,8.4c0.2-0.7,0.4-1.4,0.7-2C8.8,6.2,9,6.1,9.2,5.9 c0.5-0.4,1.2-0.3,1.7,0.2c1,1,1.9,2,2.9,3.1c1.1,1.2,2.1,2.3,3.2,3.5c0.2,0.2,0.5,0.4,0.8,0.5c1.7,0.7,3.3,0.6,5-0.3 c0.1-0.1,0.2-0.2,0.3-0.3c2-2.1,4-4.3,6-6.4c0.4-0.4,0.8-0.6,1.4-0.5c0.4,0.1,0.6,0.3,0.8,0.6c0.3,0.6,0.6,1.1,0.7,1.8 c0,0.1,0,0.1,0.1,0.2c0.2-0.2,0.3-0.4,0.5-0.5c0.7-0.7,1.8-0.6,2.3,0.3c0.4,0.7,0.6,1.4,0.8,2.1c0,0.1,0.1,0.2,0.2,0.3 c2.2,1.4,3.6,3.4,4.1,6C39.9,17,40,17.5,40,18C40,19.9,40,21.8,40,23.8z M38.7,18.1c0-0.5,0-1-0.1-1.5c-0.5-2.4-1.9-4.1-4-5.3 c-0.2-0.1-0.2-0.2-0.2-0.4c0-0.7-0.2-1.4-0.6-2.1c-0.2-0.3-0.2-0.3-0.4-0.1c-0.5,0.5-0.9,1-1.4,1.5c-0.1,0.1-0.1,0.1-0.2,0.1 c-0.3,0-0.6,0-0.9,0c0.1-1.3,0-2.4-0.7-3.5C30,7.1,30,7.1,29.9,7.2c-2,2.1-4,4.3-6,6.4c-0.1,0.1-0.2,0.2-0.3,0.3 c-1.9,1.2-3.9,1.4-6.1,0.6C17,14.3,16.4,14,16,13.6c-2-2.1-4-4.3-6-6.4C10,7.1,10,7.1,9.9,7c-0.7,1.1-0.8,2.3-0.7,3.5 c-0.3,0-0.5,0-0.8,0c-0.1,0-0.2,0-0.3-0.1c-0.5-0.5-1-1-1.4-1.6c-0.2-0.2-0.2-0.2-0.4,0c-0.3,0.6-0.6,1.3-0.6,2 c0,0.3-0.1,0.5-0.4,0.6c-2.6,1.5-3.9,3.7-4,6.7c0,1.8,0,3.5,0,5.3c0.1,3.1,1.6,5.4,4.3,6.8c1.3,0.7,2.7,0.8,4.2,0.8 c1.7-0.1,3.2-0.6,4.5-1.6c0.3-0.2,0.5-0.4,0.8-0.6c0.1,0.2,0.2,0.5,0.2,0.7c0.3,1,0.8,1.8,1.6,2.4c1.2,0.9,2.5,1.4,4,1 c1.8-0.4,2.9-1.6,3.5-3.3c0.1-0.3,0.2-0.5,0.3-0.8c0.1,0.1,0.3,0.2,0.4,0.3c0.6,0.5,1.2,0.9,1.9,1.2c1.7,0.8,3.4,0.9,5.2,0.6 c3.7-0.6,6.4-3.8,6.4-7.5C38.7,21.6,38.7,19.9,38.7,18.1z M36.3,23.3c-0.1,2.6-2.2,4.9-4.8,5.4c-3.3,0.6-6.3-1.5-7-4.7 c-0.1-0.3-0.1-0.7-0.1-1.1c0-1.2,0-2.4,0-3.6c0-2.8,2-5.1,4.7-5.7c3.3-0.7,6.7,1.6,7.1,5c0.1,0.9,0.1,1.7,0.1,2.6c0,0,0,0,0,0 C36.3,21.9,36.3,22.6,36.3,23.3z M32.3,19.7c0-1.4-1-2.6-2.4-2.8c-0.6-0.1-1.2,0-1.7,0.3c1.1,1.3,0.1,3.2-1.5,3.1c0,0.1,0,0.1,0,0.2 c0,0.7,0,1.5,0,2.2c0,0.3,0,0.5,0.1,0.8c0.4,1.3,1.6,2.2,3,2.1c1.4-0.2,2.5-1.3,2.5-2.7C32.3,21.7,32.3,20.7,32.3,19.7z M24.1,27.7 c-1.3,0.2-2.6,0.5-3.9,0.7c-0.4,0.1-0.8,0-1.1-0.1c-1.1-0.2-2.2-0.4-3.3-0.6c-0.3,0-0.3-0.1-0.2-0.4c0.1-0.4,0.3-0.9,0.5-1.3 c0.7-1.3,1.9-1.9,3.3-2.2c0.1,0,0.2,0,0.4,0c0.1,0,0.2,0,0.4,0c2,0,3.9,1.4,4.3,3.4c0,0,0,0.1,0,0.1C24.5,27.6,24.5,27.6,24.1,27.7z M15.4,21.2c0,0.7,0,1.5,0,2.2c-0.1,2.6-2.2,4.9-4.7,5.4c-3.3,0.6-6.4-1.5-7-4.8c-0.1-0.3-0.1-0.7-0.1-1c0-1.2,0-2.4,0-3.6 c0-2.9,2.2-5.4,5-5.8c3.2-0.5,6.2,1.7,6.8,4.9c0.1,0.4,0.1,0.7,0.1,1.1C15.5,20,15.5,20.6,15.4,21.2C15.5,21.2,15.5,21.2,15.4,21.2z M13.3,19.6c0-1.2-0.8-2.3-2-2.6c-0.7-0.2-1.3-0.2-2,0.1c0.6,0.7,0.8,1.4,0.4,2.2c-0.4,0.8-1.1,1-2,0.9c0,0.9,0,1.8,0,2.7 c0,0.1,0,0.2,0,0.2c0.2,1.4,1.5,2.5,3,2.4c1.4-0.1,2.6-1.3,2.6-2.7C13.3,21.7,13.3,20.7,13.3,19.6z M19.8,29.1 c0.4,0,0.8-0.1,1.2-0.1c0.7-0.1,1.4-0.2,2.1-0.4c0,0,0.1,0,0.1,0c0,1.3-1.2,3-3.2,3c-1.9,0-3.1-1.6-3.2-3c0.7,0.1,1.3,0.2,2,0.3 C19.1,29,19.5,29.1,19.8,29.1z"/>
</svg>