<!-- (c) Carrd Inc. All rights reserved. All logos and trademarks are property of their respective owners. -->
<svg xmlns="http://www.w3.org/2000/svg" id="icon">
<path d="M32.7,31.7c-2.6,1.6-5.1,3.2-7.7,4.8c-0.5,0.3-0.8,0.3-1.4,0c-2.6-1.7-5.2-3.3-7.8-5c-0.5-0.3-0.8-0.3-1.3,0 c-2.5,1.6-5,3.2-7.6,4.8c-0.3,0.2-0.5,0.3-1,0.5c0-0.5,0-0.8,0-1.2c0-8.1,0-16.3,0-24.4c0-0.7,0.2-1.1,0.8-1.6 c2.8-2,5.6-4.1,8.4-6.2c3,2.3,6,4.5,9.1,6.8c3-2.3,6-4.5,9.1-6.8c0,0.5,0.1,0.8,0.1,1.2c0,8.5,0,17,0,25.5 C33.5,30.9,33.3,31.3,32.7,31.7z M24.2,12.9c0-0.3-0.2-0.8-0.5-1c-1.9-1.5-3.8-2.9-5.7-4.3c-0.9-0.6-1.7-1.3-2.6-1.9 c-0.1,0.2-0.1,0.2-0.1,0.3c0,7.6,0,15.1,0,22.7c0,0.3,0.3,0.7,0.6,0.9c1.9,1.3,3.9,2.5,5.9,3.7c0.8,0.5,1.5,1,2.4,1.5 c0-0.2,0.1-0.4,0.1-0.5C24.3,27.2,24.3,20.1,24.2,12.9z" />
</svg>