<!-- (c) Carrd Inc. All rights reserved. All logos and trademarks are property of their respective owners. -->
<svg xmlns="http://www.w3.org/2000/svg" id="icon">
<path d="M34.1,23.6c-2,0-3.5-1.7-3.5-3.6c0-2,1.7-3.6,3.5-3.6c1.9,0,3.4,1.5,3.5,3.6C37.7,22.1,36.1,23.6,34.1,23.6z M26.7,23.3c-1.8,0-3.2-1.4-3.2-3.2c0-1.8,1.4-3.2,3.2-3.2c1.8,0,3.2,1.4,3.2,3.2C29.9,21.9,28.5,23.3,26.7,23.3z M26.7,15.7 c-1.6,0-3-1.4-3-3.1c0-1.6,1.4-3.1,3-3.1c1.6,0,3,1.4,3,3.1C29.8,14.2,28.4,15.7,26.7,15.7z M19.5,22.9c-1.5,0-2.8-1.3-2.8-2.8 c0-1.5,1.3-2.8,2.8-2.8c1.5,0,2.8,1.3,2.8,2.8C22.4,21.6,21,22.9,19.5,22.9z M19.5,15.3c-1.5,0-2.7-1.2-2.7-2.7s1.2-2.7,2.7-2.7 c1.5,0,2.7,1.2,2.7,2.7S21,15.3,19.5,15.3z M19.5,7.8c-1.4,0-2.6-1.2-2.6-2.6c0-1.4,1.2-2.6,2.6-2.6c1.4,0,2.6,1.2,2.6,2.6 C22.1,6.6,20.9,7.8,19.5,7.8z M12.2,22.6c-1.4,0-2.5-1.1-2.5-2.5c0-1.4,1.1-2.5,2.5-2.5s2.5,1.1,2.5,2.5 C14.7,21.5,13.6,22.6,12.2,22.6z M12.2,14.9c-1.3,0-2.3-1.1-2.3-2.3s1-2.3,2.3-2.3s2.3,1.1,2.3,2.3S13.5,14.9,12.2,14.9z M4.9,22.2 c-1.2,0-2.1-1-2.1-2.1c0-1.2,1-2.1,2.1-2.1s2.1,1,2.1,2.1C7.1,21.2,6.1,22.2,4.9,22.2z M12.2,25c1.3,0,2.3,1.1,2.3,2.3 c0,1.3-1.1,2.3-2.3,2.3c-1.3,0-2.3-1.1-2.3-2.3C9.9,26.1,10.9,25,12.2,25z M19.5,24.7c1.5,0,2.7,1.3,2.7,2.7c0,1.5-1.2,2.7-2.7,2.7 c-1.5,0-2.7-1.2-2.7-2.7C16.8,25.8,18,24.7,19.5,24.7z M19.5,32.2c1.4,0,2.6,1.2,2.6,2.6c0,1.4-1.2,2.6-2.6,2.6 c-1.4,0-2.6-1.2-2.6-2.6C16.9,33.4,18.1,32.2,19.5,32.2z M26.7,24.3c1.6,0,3,1.4,3,3.1c0,1.6-1.4,3.1-3,3.1c-1.6,0-3-1.4-3-3.1 C23.7,25.7,25.1,24.3,26.7,24.3z" />
</svg>