<!-- (c) Carrd Inc. All rights reserved. All logos and trademarks are property of their respective owners. -->
<svg xmlns="http://www.w3.org/2000/svg" id="icon">
<path d="M20,38c-9.9,0-18-8.1-18-18S10.1,2,20,2s18,8.1,18,18S29.9,38,20,38z M20,3.6C10.9,3.6,3.6,10.9,3.6,20 c0,9.1,7.4,16.4,16.4,16.4c0.1,0,0.3,0,0.4,0c0,0,0.1,0,0.1,0c0.1,0,0.2,0,0.3,0c0,0,0.1,0,0.1,0c0.1,0,0.2,0,0.3,0c0,0,0.1,0,0.1,0 c0.1,0,0.2,0,0.3,0c0,0,0.1,0,0.1,0c0.1,0,0.2,0,0.3,0c0,0,0,0,0.1,0c0.1,0,0.2,0,0.4,0c0,0,0,0,0,0c0.1,0,0.2,0,0.4-0.1 c0,0,0,0,0,0c6.1-1.1,11-5.5,12.8-11.3c0,0,0,0,0,0c0-0.1,0.1-0.3,0.1-0.4c0,0,0,0,0,0c0-0.1,0.1-0.2,0.1-0.4c0,0,0,0,0,0 c0-0.1,0.1-0.2,0.1-0.4c0,0,0,0,0-0.1c0-0.1,0.1-0.2,0.1-0.3c0,0,0,0,0-0.1c0-0.1,0-0.2,0.1-0.3c0,0,0-0.1,0-0.1 c0-0.1,0-0.2,0.1-0.3c0,0,0-0.1,0-0.1c0-0.1,0-0.2,0-0.3c0,0,0-0.1,0-0.1c0-0.1,0-0.2,0-0.3c0,0,0-0.1,0-0.1c0-0.1,0-0.2,0-0.3 c0-0.1,0-0.1,0-0.2c0-0.1,0-0.2,0-0.3c0-0.1,0-0.1,0-0.2c0-0.1,0-0.2,0-0.2c0-0.1,0-0.1,0-0.2c0-0.1,0-0.2,0-0.2v0 C36.4,10.9,29.1,3.6,20,3.6z M34.3,20.9c-0.1-0.2-0.2-0.4-0.3-0.5c-0.1-0.2-0.2-0.3-0.4-0.5c-0.1-0.1-0.2-0.3-0.4-0.4 c-0.1-0.1-0.3-0.3-0.4-0.4c-0.1-0.1-0.3-0.2-0.4-0.3c-0.1-0.1-0.3-0.2-0.4-0.3c-0.1-0.1-0.3-0.2-0.4-0.3c-0.1-0.1-0.3-0.2-0.4-0.3 c-0.2-0.1-0.3-0.2-0.5-0.2c-0.2-0.1-0.3-0.1-0.5-0.2c-0.2-0.1-0.3-0.1-0.5-0.2c-0.2,0-0.3-0.1-0.5-0.1c-0.2,0-0.3-0.1-0.5-0.1 c-0.2,0-0.3,0-0.5-0.1c-0.2,0-0.4,0-0.5,0c-2.7,0-5.1,1.5-6.4,3.8c-0.4,0.7-0.6,1.4-0.8,2.2c-0.2,0.9-0.2,1.8,0,2.7 c0.1,0.4,0.2,0.8,0.3,1.2c0.1,0.2,0.2,0.4,0.2,0.6c0,0.1,0.1,0.2,0.1,0.3c0,0,0,0,0,0.1c0,0,0,0,0,0.1c0,0-0.1,0.1-0.1,0.1 c-0.6,0.9-1.3,1.7-2.2,2.3c-1.2,0.9-2.6,1.4-4,1.7c-0.8,0.1-1.6,0.1-2.5,0c-0.9-0.1-1.7-0.3-2.5-0.7c0.2,0.1,0.4,0.1,0.5,0.2 c0.3,0.1,0.6,0.1,0.9,0.1c1.6,0.2,3.2-0.2,4.6-1c0.7-0.4,1.3-0.9,1.8-1.5c0.9-1.1,1.5-2.4,1.7-3.8c0.1-0.7,0.1-1.5,0-2.2 c-0.5-3.3-3.3-5.8-6.6-6.2c-0.2,0-0.4,0-0.5,0c-0.1,0-0.2,0-0.3,0c0,0,0,0,0,0c0,0,0,0,0,0c0,0,0,0,0-0.1c0,0,0-0.1-0.1-0.1 c-2.1-4.4-0.3-9.7,4-12c-0.1,0.1-0.2,0.1-0.3,0.2c-0.2,0.1-0.4,0.3-0.6,0.4C15,5.7,14.8,5.8,14.6,6c-0.2,0.2-0.3,0.3-0.5,0.5 c-0.1,0.2-0.3,0.3-0.4,0.5c-0.1,0.2-0.2,0.4-0.4,0.6c-0.1,0.2-0.2,0.4-0.3,0.6C13.1,8.5,13,8.6,13,8.9c-0.1,0.2-0.1,0.4-0.2,0.6 c0,0.2-0.1,0.4-0.1,0.6c0,0.2,0,0.4-0.1,0.6c-0.1,1.9,0.6,3.8,1.8,5.2c0.5,0.5,1,1,1.7,1.4c0.1,0,0.1,0.1,0.2,0.1 c3.5,2,8,0.8,10.1-2.7c0.1,0,0.2,0,0.3,0c1.2,0.1,2.5,0.5,3.6,1c1.1,0.6,2,1.4,2.8,2.3c1,1.3,1.7,2.8,1.9,4.5 c-0.1-0.3-0.2-0.6-0.3-0.9C34.6,21.4,34.4,21.2,34.3,20.9z"/>
</svg>