<!-- (c) Carrd Inc. All rights reserved. All logos and trademarks are property of their respective owners. -->
<svg xmlns="http://www.w3.org/2000/svg" id="icon">
<path d="M15.4,28c0.3-0.5,0.4-0.9,0.2-1.4c-0.1-0.5-0.4-0.8-0.9-1c-0.5-0.2-1-0.2-1.5,0c-0.5,0.2-1,0.5-1.2,1 c-0.3,0.5-0.4,0.9-0.3,1.4c0.1,0.5,0.4,0.8,0.9,1c0.5,0.2,1,0.2,1.5,0.1C14.7,28.8,15.1,28.5,15.4,28L15.4,28z M17.4,25.5 c0.1-0.2,0.1-0.4,0.1-0.5c-0.1-0.2-0.2-0.3-0.4-0.4c-0.2-0.1-0.4-0.1-0.6,0c-0.2,0.1-0.3,0.2-0.4,0.4c-0.2,0.4-0.1,0.7,0.3,0.9 c0.2,0.1,0.4,0.1,0.6,0C17.1,25.8,17.3,25.7,17.4,25.5L17.4,25.5z M21,27.7c-0.6,1.4-1.7,2.4-3.3,3.1c-1.6,0.7-3.1,0.7-4.6,0.2 c-1.5-0.5-2.5-1.3-3-2.6c-0.6-1.3-0.5-2.6,0.1-3.9c0.6-1.3,1.7-2.2,3.1-2.9c1.4-0.6,2.9-0.8,4.4-0.4c1.5,0.4,2.6,1.2,3.3,2.5 C21.6,25,21.6,26.4,21,27.7L21,27.7z M27.4,24.4c-0.1-1.3-0.7-2.5-1.8-3.5c-1.1-1-2.5-1.8-4.3-2.3c-1.8-0.5-3.7-0.6-5.7-0.4 c-3.1,0.3-5.6,1.3-7.6,2.9S5,24.6,5.2,26.6c0.1,1.3,0.7,2.5,1.8,3.5s2.5,1.8,4.3,2.3S15,33,17,32.8c3.1-0.3,5.6-1.3,7.6-2.9 C26.7,28.3,27.6,26.4,27.4,24.4z M33.8,24.5c0,0.9-0.3,1.9-0.8,2.9c-0.5,1-1.3,1.9-2.3,2.8c-1,0.9-2.2,1.7-3.5,2.4 c-1.3,0.7-2.9,1.3-4.7,1.7C20.8,34.8,19,35,17,35s-3.8-0.2-5.7-0.7c-1.8-0.5-3.5-1.1-5-1.9s-2.6-1.9-3.5-3.1 c-0.9-1.3-1.3-2.6-1.3-4.1c0-1.6,0.5-3.3,1.4-5.1s2.3-3.6,4.1-5.3c2.3-2.3,4.7-4,7.1-4.9S18.1,9,19.2,10c0.9,0.9,1,2.3,0.4,4.3 c-0.1,0.2-0.1,0.3,0,0.4c0,0.1,0.1,0.1,0.2,0.1c0.1,0,0.2,0,0.3,0s0.2,0,0.3-0.1l0.1,0c1.9-0.8,3.6-1.2,5.1-1.2s2.5,0.4,3.2,1.3 c0.6,0.9,0.6,2.1,0,3.7c0,0.2-0.1,0.3-0.1,0.4c0,0.1,0,0.2,0.1,0.3c0.1,0.1,0.2,0.1,0.2,0.2c0.1,0,0.2,0.1,0.4,0.1 c0.8,0.2,1.5,0.6,2.1,1c0.6,0.4,1.2,1,1.7,1.7C33.6,22.8,33.8,23.6,33.8,24.5L33.8,24.5z M32.3,11.6c0.6,0.6,1,1.4,1.1,2.2 c0.2,0.8,0.1,1.7-0.1,2.4c-0.1,0.3-0.3,0.6-0.6,0.7c-0.3,0.2-0.6,0.2-0.9,0.1c-0.3-0.1-0.6-0.3-0.7-0.6c-0.2-0.3-0.2-0.6-0.1-0.9 c0.3-0.9,0.1-1.6-0.5-2.3c-0.6-0.7-1.3-0.9-2.2-0.7c-0.3,0.1-0.6,0-0.9-0.2c-0.3-0.2-0.5-0.4-0.5-0.8c-0.1-0.3,0-0.6,0.2-0.9 c0.2-0.3,0.4-0.5,0.8-0.5c0.8-0.2,1.6-0.1,2.5,0.1C31,10.5,31.7,11,32.3,11.6L32.3,11.6z M36,8.2c1.2,1.3,2,2.9,2.3,4.6 s0.3,3.4-0.3,5c-0.1,0.4-0.4,0.6-0.7,0.8c-0.3,0.2-0.7,0.2-1.1,0.1c-0.4-0.1-0.6-0.4-0.8-0.7c-0.2-0.3-0.2-0.7-0.1-1.1 c0.4-1.1,0.5-2.3,0.2-3.6c-0.2-1.2-0.8-2.3-1.7-3.3c-0.9-1-1.9-1.6-3.1-2c-1.2-0.4-2.4-0.4-3.6-0.2c-0.4,0.1-0.7,0-1.1-0.2 c-0.3-0.2-0.5-0.5-0.6-0.9s0-0.7,0.2-1.1c0.2-0.3,0.5-0.5,0.9-0.6c1.7-0.4,3.4-0.3,5,0.2C33.4,6,34.8,6.9,36,8.2L36,8.2z"/>
</svg>