<!-- (c) Carrd Inc. All rights reserved. All logos and trademarks are property of their respective owners. -->
<svg xmlns="http://www.w3.org/2000/svg" id="icon">
<path d="M15.9,40c-0.8-3.9-1.6-5.5-2.4-9.2c-4.2,0.8-8,0-11.5-2.7c0.9-1.9,1.7-3.9,2.6-5.9c-1.5-0.8-2.6-2-3.2-3.5 c-1.3-3.4-0.1-7,3-9.1C8.5,7,12.7,6.8,17.1,8.4c0.6,0.2,1,0.2,1.4-0.3c3.8-4.2,10.2-5.3,14.6-2.5c1.5,0.9,2.7,2.3,4.1,3.5 c-2.1,1.6-4,3.1-5.9,4.6c-0.5,0.4-0.8-0.1-1-0.4c-1.1-2-4.9-1.7-5.9,0.9c-0.5,1.4-0.4,2.7,0.5,3.9c0.8,1.1,1.9,1.6,3.3,1.4 c1.6-0.2,2.4-1.4,2.9-2.7c0.4-1,0.8-1.1,1.8-0.9c2,0.6,4,1,6,1.5c0.1,0,0.1,0.1,0.1,0.1c-1.2,5-3.5,9-10.4,10.1 c0.8,3.7,1.6,5.4,2.4,9.3c-3.1-1.8-6.1-3.5-9.1-5.2C20,34.4,18,37.1,15.9,40z M5,26c3.4,2.3,9.7,1.8,12.8-1c1.2-1.1,1.8-2.4,1.7-4 c0-0.2,0-0.5,0-0.9c3.2,3.8,7,4.6,11.4,3c2.5-0.9,4-2.7,4.8-5.3c-1.2-0.3-2.2-0.5-3.2-0.8c-1.8,3.5-4.9,4.5-8,2.8 c-2.9-1.7-3.9-6-2.1-8.9c1.9-2.9,5.2-3.3,8.5-0.9c0.8-0.7,1.7-1.4,2.6-2C31,5.4,27.7,4.6,24.1,6C18.8,8,17,12.1,18.2,17.6 c-1.9-1.4-4-1.6-6.1-1.6c-1.3,0-2.6-0.1-3.9-0.3c-1.2-0.2-1.6-1.5-0.8-2.4c0.4-0.4,1-0.9,1.6-0.9c1.4-0.2,2.8-0.2,4.2-0.1 c0.8,0,1.5,0.4,2.3,0.7c0.3-1.1,0.6-2.1,1-3.3C15.3,9.3,14.2,9,13,8.9C10.1,8.6,7.3,9,5,11.1c-1.5,1.3-2.1,3.1-1.6,5.1 c0.5,1.9,1.8,3,3.7,3.3c1.5,0.3,3,0.2,4.5,0.4c1,0.1,1.9,0.1,2.9,0.3c1.1,0.3,1.6,1.3,0.9,2.3c-0.3,0.5-0.8,1-1.3,1.1 c-1.1,0.3-2.2,0.6-3.3,0.6c-1.5-0.1-3-0.6-4.6-0.9C5.9,24,5.4,25,5,26z"/>
</svg>