<!-- (c) Carrd Inc. All rights reserved. All logos and trademarks are property of their respective owners. -->
<svg xmlns="http://www.w3.org/2000/svg" id="icon">
<path d="M36.9,29.7c-0.6,0.5-1.2,1-1.7,1.4c-0.7,0.6-1.5,1.2-2.2,1.8c-0.6,0.5-1.2,1-1.8,1.5c-0.7,0.6-1.4,1.2-2.1,1.8 c-0.3,0.2-0.5,0.4-0.7,0.7c0,0-0.1,0-0.1,0c-0.1-0.1-0.2-0.1-0.3-0.2c-0.6-0.2-1.3-0.4-1.9-0.6c-0.5-0.2-1.1-0.4-1.6-0.6 c-0.5-0.2-1.1-0.3-1.6-0.5c-0.5-0.2-1-0.3-1.4-0.5c-0.7-0.2-1.5-0.5-2.2-0.7c-0.6-0.2-1.1-0.4-1.7-0.6c-0.5-0.2-1.1-0.3-1.6-0.5 c-0.3-0.1-0.5-0.2-0.8-0.3c-0.3-0.1-0.4-0.1-0.4,0.3c0,1.1,0,2.2,0,3.3c0,0.2,0,0.4,0,0.6c0,0.1,0,0.1,0,0.2c-0.1,0-0.1-0.1-0.1-0.1 c-0.5-0.6-1-1.3-1.6-1.9c-0.4-0.5-0.8-0.9-1.2-1.4c-0.7-0.8-1.4-1.7-2.1-2.5c-0.6-0.7-1.1-1.4-1.7-2.1c-0.6-0.7-1.1-1.3-1.7-2 c-0.5-0.5-0.9-1-1.4-1.6c0,0-0.1-0.1,0-0.2c0,0,0.1-0.1,0.2-0.1c0.3,0,0.6,0.1,0.8,0.1c0.5,0.1,0.9,0.1,1.4,0.2 c0.6,0.1,1.2,0.2,1.8,0.3c0.8,0.1,1.7,0.2,2.5,0.3c0.2,0,0.5,0.1,0.7,0.1c0.6,0.1,1.1,0.2,1.7,0.2c0.6,0.1,1.2,0.2,1.8,0.2 c0.5,0.1,1.1,0.1,1.6,0.2c0.6,0.1,1.2,0.2,1.8,0.3c0.8,0.1,1.5,0.2,2.3,0.3c0.3,0,0.7,0.1,1,0.2c0.4,0.1,0.9,0.1,1.3,0.2 c0.6,0.1,1.2,0.2,1.8,0.3c0.5,0.1,1,0.1,1.4,0.2c0.3,0,0.5,0.1,0.8,0.1c0.2,0,0.3-0.1,0.3-0.3c0-0.2,0-0.4,0-0.6 c0-5.8,0-11.6,0-17.4c0-0.3,0-0.6,0-0.9C28.4,9,28.7,9,29,8.9c0,0,0.1,0,0.1,0c0.6-0.1,1.2-0.2,1.8-0.3c0.6-0.1,1.2-0.2,1.7-0.3 C33.3,8.2,34,8,34.7,7.9c0.6-0.1,1.2-0.2,1.7-0.3c0.2,0,0.3-0.1,0.5-0.1c0,7.4,0,14.7,0,22.1C37,29.7,36.9,29.7,36.9,29.7z M24.9,9.6c-0.6,0.1-1.1,0.2-1.7,0.3c-0.7,0.1-1.5,0.3-2.2,0.4c-0.6,0.1-1.1,0.2-1.7,0.4c-0.5,0.1-1,0.2-1.6,0.3 c-0.7,0.1-1.4,0.3-2,0.4c-0.5,0.1-1,0.2-1.6,0.3c-0.2,0-0.4,0.1-0.6,0.1c-0.7,0.1-1.3,0.2-2,0.4c-0.6,0.1-1.3,0.3-1.9,0.4 c-0.9,0.2-1.9,0.3-2.8,0.5c-0.4,0.1-0.9,0.2-1.3,0.3c-0.1,0-0.3,0-0.4,0c-0.3,0-0.3,0.1-0.3,0.4c0,3.5,0,7,0,10.4c0,0.3,0,0.6,0,0.9 c-0.5-0.1-0.9-0.1-1.3-0.2c-0.7-0.1-1.3-0.3-2-0.4c-0.2,0-0.3-0.1-0.3-0.4c0-3,0-5.9,0-8.9c0-0.3,0-0.5,0-0.8c0-0.2,0.2-0.4,0.3-0.6 c0.5-0.7,1-1.3,1.5-2c0.6-0.7,1.1-1.5,1.7-2.2c0.2-0.3,0.5-0.3,0.8-0.4C5.9,9,6.4,8.8,7,8.6c0.5-0.2,0.9-0.4,1.4-0.5 C8.7,8,8.9,7.8,9.2,7.7c0.5-0.2,1-0.4,1.5-0.6c0.5-0.2,0.9-0.4,1.4-0.6c0.2-0.1,0.5-0.2,0.7-0.3c0.4-0.2,0.9-0.3,1.3-0.5 c0.5-0.2,1-0.4,1.5-0.6c0.4-0.1,0.7-0.3,1.1-0.4C16.9,4.8,17,4.7,17,4.4c0-1,0-2.1,0-3.1c0-0.1,0-0.2,0.1-0.2c0.1,0,0.2,0,0.2,0.1 c0.4,0.3,0.7,0.5,1.1,0.8c0.5,0.4,1,0.7,1.5,1.1c0.4,0.3,0.8,0.6,1.2,0.9c0.4,0.3,0.8,0.6,1.2,0.9C23,5.2,23.5,5.6,24,6 c0.5,0.4,1,0.7,1.5,1.1c0.7,0.5,1.3,1,2,1.5c0.1,0.1,0.3,0.2,0.4,0.3c-0.1,0.1-0.2,0.1-0.3,0.1C26.7,9.2,25.8,9.4,24.9,9.6z"/>
</svg>