<!-- (c) Carrd Inc. All rights reserved. All logos and trademarks are property of their respective owners. -->
<svg xmlns="http://www.w3.org/2000/svg" id="icon">
<path d="M33.4,26.7c-0.5,1.7-1.4,3.4-2.5,5.1c-1.8,2.7-3.5,4-5.3,4c-0.7,0-1.6-0.2-2.9-0.7c-1.2-0.4-2.2-0.7-3.1-0.7 c-0.8,0-1.8,0.2-2.9,0.7c-1.1,0.5-2,0.7-2.7,0.7c-2.1,0-4.1-1.8-6.2-5.3c-2-3.6-3-7-3-10.4c0-3.1,0.8-5.7,2.3-7.7c1.5-2,3.5-3,5.8-3 c1,0,2.2,0.2,3.6,0.6c1.4,0.4,2.4,0.6,2.8,0.6c0.6,0,1.6-0.2,2.9-0.7c1.4-0.5,2.6-0.7,3.6-0.7c1.6,0,3.1,0.4,4.4,1.3 c0.7,0.5,1.4,1.2,2.1,2.1c-1.1,0.9-1.9,1.7-2.3,2.4c-0.9,1.3-1.3,2.7-1.3,4.3c0,1.7,0.5,3.2,1.4,4.6C31.1,25.4,32.2,26.3,33.4,26.7 L33.4,26.7z M25.7,2.5c0,0.8-0.2,1.8-0.6,2.8c-0.4,1-1,2-1.9,2.8c-0.7,0.7-1.5,1.2-2.2,1.5c-0.5,0.2-1.2,0.3-2.1,0.3 c0-2,0.6-3.8,1.6-5.3c1-1.5,2.7-2.5,5.1-3c0,0,0,0.1,0.1,0.2c0,0.1,0,0.2,0.1,0.2c0,0.1,0,0.1,0,0.2S25.7,2.5,25.7,2.5L25.7,2.5z"/>
</svg>