<!-- (c) Carrd Inc. All rights reserved. All logos and trademarks are property of their respective owners. -->
<svg xmlns="http://www.w3.org/2000/svg" id="icon">
<path d="M36.8,31.5c-0.1,0.5-0.3,1.1-0.5,1.6c-0.4,1.3-1.2,2.2-2.5,2.7c-1.9,0.9-3.9,1.2-6,1.4 c-5.3,0.5-10.5,0.5-15.8,0C10,37,7.9,36.6,6,35.8c-1.1-0.5-1.9-1.3-2.2-2.4c-0.4-1.7-1-3.5-1.1-5.3c-0.3-3.9-0.4-7.8,0.4-11.7 c0.2-0.8,0.4-1.7,0.7-2.5C4.2,12.8,5,12,6.1,11.5c1.9-0.8,3.8-1.1,5.8-1.3c0.9-0.1,1.9-0.2,3-0.3c-0.9-0.5-1.6-0.9-2.3-1.3 c-2-1.2-4-2.3-6.1-3.5C6,4.7,5.7,4.1,6,3.4c0.2-0.4,0.7-0.8,1.2-1C7.5,2.3,8,2.6,8.3,2.8C12,4.9,15.7,7,19.3,9.1 c0.5,0.3,0.9,0.3,1.3,0c3.6-2.1,7.3-4.2,10.9-6.3c0.6-0.3,1.2-0.5,1.7,0c0.3,0.4,0.5,1,0.5,1.5c0,0.4-0.5,0.8-0.9,1 c-2.3,1.4-4.7,2.7-7,4.1c-0.2,0.1-0.5,0.3-0.8,0.5c1.6,0.2,3,0.2,4.4,0.5c1.5,0.3,3,0.7,4.4,1.2c1.2,0.4,2.1,1.3,2.4,2.6 c0.5,1.9,0.9,3.8,1.1,5.8C37.6,23.8,37.6,27.7,36.8,31.5z M33.2,17.3c-0.2-1.8-1.5-2.9-3.3-3.1c-2.6-0.3-5.3-0.6-7.9-0.7 c-3.9-0.2-7.8,0-11.7,0.7c-2.4,0.4-3.3,1.3-3.7,3.7c-0.7,3.7-0.6,7.4-0.1,11c0.4,3,1.4,4.1,4.3,4.4c3.1,0.3,6.2,0.5,9.9,0.8 c2.9-0.3,6.4-0.7,9.8-1.1c1.4-0.2,2.4-1.1,2.6-2.5c0.3-1.7,0.7-3.5,0.7-5.3C33.7,22.6,33.5,20,33.2,17.3z M28.4,25.6 c-1.8,0.1-3.5-1.6-3.4-3.6c0.1-1.9,1.5-3.3,3.5-3.3c2,0,3.5,1.5,3.5,3.5C32,24.2,30.4,25.7,28.4,25.6z M21.7,30.4 c-5.1-0.1-6.4-3.2-6.4-3.2c-0.1-0.1,4.6,1.8,8.6,1.1c0.7-0.1,1.3-0.2,1.3-0.2S24.3,30.5,21.7,30.4z M11.6,25.6c-2,0-3.4-1.4-3.4-3.4 c0-2,1.4-3.5,3.4-3.5c2,0,3.6,1.5,3.6,3.5C15.1,24.2,13.6,25.6,11.6,25.6z"/>
</svg>