<!-- (c) Carrd Inc. All rights reserved. All logos and trademarks are property of their respective owners. -->
<svg xmlns="http://www.w3.org/2000/svg" id="icon">
<path d="M27.9,15.8h-1.5c-0.1,0-0.1,0.1-0.1,0.1v3.2h-1.5v-3.2c0-0.1-0.1-0.1-0.1-0.1h-1.5c-0.1,0-0.1,0.1-0.1,0.1V24 c0,0.1,0.1,0.1,0.1,0.1h1.5c0.1,0,0.1-0.1,0.1-0.1v-3.3h1.5V24c0,0.1,0.1,0.1,0.1,0.1h1.5c0.1,0,0.1-0.1,0.1-0.1v-8.2 C28,15.8,28,15.8,27.9,15.8 M16.2,15.8h-1.5c-0.1,0-0.1,0-0.1,0.1v5.8c0,0.3-0.1,0.5-0.2,0.7c-0.1,0.2-0.3,0.2-0.5,0.2 c-0.2,0-0.4-0.1-0.5-0.2c-0.1-0.2-0.2-0.4-0.2-0.7v-5.8c0-0.1-0.1-0.1-0.1-0.1h-1.5c-0.1,0-0.1,0-0.1,0.1v5.8c0,0.8,0.2,1.5,0.6,1.9 c0.5,0.5,1.1,0.7,1.8,0.7c0.8,0,1.4-0.3,1.8-0.7c0.5-0.5,0.6-1.1,0.6-1.9v-5.8C16.3,15.8,16.3,15.8,16.2,15.8 M2.4,15.6 c-0.8,0-1.4,0.3-1.8,0.7C0.2,16.8,0,17.5,0,18.3v3.5c0,0.8,0.2,1.5,0.6,1.9c0.5,0.5,1.1,0.7,1.8,0.7c0.8,0,1.4-0.3,1.8-0.7 c0.5-0.5,0.6-1.1,0.6-1.9v-1.9c0-0.1-0.1-0.2-0.2-0.2H2.5c-0.1,0-0.2,0.1-0.2,0.2v1.4c0,0.1,0.1,0.2,0.2,0.2h0.5v0.3 c0,0.3-0.1,0.5-0.2,0.7c-0.1,0.2-0.3,0.2-0.5,0.2c-0.2,0-0.4-0.1-0.5-0.2c-0.1-0.2-0.2-0.4-0.2-0.7v-3.4c0-0.3,0.1-0.5,0.2-0.7 c0.1-0.2,0.3-0.2,0.5-0.2c0.2,0,0.4,0.1,0.5,0.2C3,17.8,3.1,18,3.1,18.3v0.3c0,0.1,0.1,0.1,0.1,0.1h1.5c0.1,0,0.1,0,0.1-0.1v-0.3 c0-0.8-0.2-1.5-0.6-1.9C3.8,15.9,3.1,15.6,2.4,15.6 M20.4,22.3c-0.1,0.2-0.3,0.2-0.5,0.2H19v-1.8h0.8c0.2,0,0.4,0.1,0.5,0.2 c0.1,0.2,0.2,0.4,0.2,0.6C20.6,21.9,20.5,22.1,20.4,22.3z M19,17.5h0.8c0.2,0,0.4,0,0.5,0.2c0.1,0.1,0.2,0.3,0.2,0.6 c0,0.3,0,0.5-0.2,0.6c-0.1,0.1-0.3,0.2-0.5,0.2h-0.8L19,17.5L19,17.5z M21.4,19.9c0.3-0.3,0.7-0.8,0.7-1.6c0-0.9-0.3-1.4-0.6-1.7 c-0.5-0.5-1.1-0.8-1.8-0.8h-2.3c-0.1,0-0.1,0.1-0.1,0.1v8.2c0,0.1,0.1,0.1,0.1,0.1h2.4c0.8,0,1.5-0.3,1.9-0.9 c0.3-0.3,0.5-0.9,0.5-1.7C22.3,20.6,21.7,20,21.4,19.9L21.4,19.9z M8.7,19.1c-0.1,0.2-0.3,0.3-0.6,0.3H7.4v-1.8h0.7 c0.3,0,0.5,0.1,0.6,0.3c0.2,0.2,0.2,0.4,0.2,0.7C8.9,18.7,8.9,18.9,8.7,19.1L8.7,19.1z M9.6,20.6c0.2-0.1,0.3-0.2,0.4-0.4 c0.3-0.3,0.7-0.9,0.7-1.8c0-0.9-0.3-1.5-0.7-1.8c-0.4-0.5-1-0.8-1.8-0.8H5.9c-0.1,0-0.1,0.1-0.1,0.1V24c0,0.1,0.1,0.1,0.1,0.1h1.5 c0.1,0,0.1-0.1,0.1-0.1v-3H8l0.9,3.1c0,0,0.1,0.1,0.1,0.1h1.5c0,0,0.1,0,0.1,0c0,0,0-0.1,0-0.1L9.6,20.6L9.6,20.6z M38,22.3 c-0.1,0.2-0.3,0.2-0.5,0.2h-0.8v-1.8h0.8c0.2,0,0.4,0.1,0.5,0.2c0.1,0.2,0.2,0.4,0.2,0.6C38.2,21.9,38.1,22.1,38,22.3L38,22.3z M36.7,17.5h0.8c0.2,0,0.4,0,0.5,0.2c0.1,0.1,0.2,0.3,0.2,0.6c0,0.3,0,0.5-0.2,0.6c-0.1,0.1-0.3,0.2-0.5,0.2h-0.8L36.7,17.5 L36.7,17.5z M39.1,19.9c0.3-0.3,0.7-0.8,0.7-1.6c0-0.9-0.3-1.4-0.6-1.7c-0.5-0.5-1.1-0.8-1.8-0.8h-2.3c-0.1,0-0.1,0.1-0.1,0.1v8.2 c0,0.1,0.1,0.1,0.1,0.1h2.4c0.8,0,1.5-0.3,1.9-0.9c0.3-0.3,0.5-0.9,0.5-1.7C39.9,20.6,39.3,20,39.1,19.9L39.1,19.9z M33.8,15.8h-1.5 c-0.1,0-0.1,0-0.1,0.1v5.8c0,0.3-0.1,0.5-0.2,0.7c-0.1,0.2-0.3,0.2-0.5,0.2c-0.2,0-0.4-0.1-0.5-0.2c-0.1-0.2-0.2-0.4-0.2-0.7v-5.8 c0-0.1-0.1-0.1-0.1-0.1h-1.5c-0.1,0-0.1,0-0.1,0.1v5.8c0,0.8,0.2,1.5,0.6,1.9c0.5,0.5,1.1,0.7,1.8,0.7c0.8,0,1.4-0.3,1.8-0.7 c0.5-0.5,0.6-1.1,0.6-1.9v-5.8C33.9,15.8,33.8,15.8,33.8,15.8"/>
</svg>