<!-- (c) Carrd Inc. All rights reserved. All logos and trademarks are property of their respective owners. -->
<svg xmlns="http://www.w3.org/2000/svg" id="icon">
<path d="M32.6,24.9L40,20l-7.4-4.9c-0.4-1-0.9-2-1.6-2.9l1.4-4.7L27.7,9c-0.9-0.6-1.9-1.2-2.9-1.6L20,0l-4.9,7.4 c-1,0.4-2,0.9-2.9,1.6L7.6,7.6L9,12.2c-0.6,0.9-1.2,1.9-1.6,2.9L0,20l7.4,4.9c0.4,1,0.9,2,1.6,2.9l-1.4,4.7l4.7-1.4 c0.9,0.6,1.9,1.2,2.9,1.6L20,40l4.9-7.4c1-0.4,2-0.9,2.9-1.6l4.7,1.4L31,27.7C31.7,26.9,32.2,25.9,32.6,24.9z M20,31.6 c-6.4,0-11.6-5.2-11.6-11.6S13.6,8.4,20,8.4S31.6,13.6,31.6,20l0,0C31.6,26.4,26.4,31.6,20,31.6L20,31.6L20,31.6z M26.8,20.4 c-0.1,0.3,0.1,0.4,0.2,0.6c0,0.4,0,0.8-0.2,1.2c-0.1,0.4-0.2,0.8-0.4,1.2c-0.2,0.3-0.4,0.6-0.6,0.9c-0.1,0.4-0.2,0.8-0.4,1.1 c-0.3,0.3-0.6,0.5-0.9,0.7c-0.3,0.2-0.4,0.6-0.7,0.8c-0.3,0.2-0.7,0.4-1.1,0.6c-0.4,0.2-0.8,0.2-1.2,0.3c-0.4,0.1-0.8,0.2-1.3,0.3 c-0.5,0.1-0.9,0.1-1.3,0.1c-0.4,0.1-0.7,0.4-1.2,0.3c-0.4-0.1-0.7-0.3-1.1-0.3c-0.4-0.1-0.7-0.1-1.1-0.3c-0.3-0.1-0.7-0.2-1.1-0.3 c-0.4-0.1-0.7-0.3-0.9-0.7h0.1c0.1-0.4,1.2-0.4,1.5-0.6c0.6-0.3,1.2-0.2,1.8-0.6c0.2-0.1,0.3-0.3,0.5-0.4c0.2-0.1,0.4-0.2,0.7-0.2 c0.4-0.1,0.9-0.2,1.4-0.4c0.4-0.2,0.8-0.4,1.2-0.6c0.3-0.2,0.6-0.4,0.9-0.7c0.3-0.2,0.6-0.5,0.9-0.8c0.2-0.3,0.4-0.7,0.6-1 c0.3-0.3,0.7-0.3,0.6-0.8c-0.1-0.5-0.2-0.9-0.1-1.3c0.1-0.8,0.2-1.9-0.4-2.6c-0.3-0.3-0.5-0.7-0.8-1c-0.1-0.2-0.2-0.3-0.2-0.5 c0-0.3,0.1-0.4-0.2-0.4c-0.2,0-0.4,0.1-0.6,0.1c-0.2,0-0.4-0.1-0.7-0.1c-0.5,0-1,0-1.5,0.1c-0.4,0.1-0.8,0.3-1.2,0.5 c-0.3,0.2-0.6,0.6-0.9,0.8c-0.2,0.1-0.4,0.2-0.5,0.3c-0.1,0.2-0.1,0.4-0.1,0.6c-0.1,0.4-0.1,0.9,0,1.4c0.2,0.7,0.7,1.8,1.7,1.4 c0.8-0.4-0.8-1.6-0.1-2.1c0.5-0.2,0.9-0.2,1.3-0.1c0.5,0,0.9,0.2,1.3,0.3c0.4,0.2,0.2,0.7,0.4,1.1c0.3,0.3,0.4,0.8,0.4,1.2 c-0.1,0.8-0.5,1.6-1.2,2.1c-0.4,0.2-0.8,0.1-1.2,0.2c-0.4,0.1-0.7,0.4-1.1,0.4c-0.2-0.1-0.4-0.1-0.6-0.2c-0.2-0.1-0.4-0.1-0.6,0 c-0.4,0-0.5-0.5-0.9-0.6c0-0.3-0.6-0.7-0.8-0.9c-0.3-0.4-0.6-0.8-0.8-1.1c-0.3-0.3-0.5-0.7-0.7-1c-0.2-0.3-0.1-0.8-0.2-1.2 c-0.1-0.2-0.1-0.4-0.2-0.6c0-0.2,0-0.4,0-0.7c0-0.4-0.2-0.7-0.2-1.2c0-0.3,0.1-0.3,0.3-0.4c0.2-0.1,0.3-0.3,0.5-0.4 c0.3-0.2,0.7-0.4,0.9-0.8c0.1-0.2,0.3-0.3,0.4-0.5c0.1-0.2,0.2-0.3,0.3-0.4c0.3-0.3,0.7-0.5,1.1-0.8c0.8-0.6,1.5-1.1,2.5-0.8 c0.5,0.1,0.7-0.2,1.2-0.2c0.4-0.1,0.7,0.3,1.1,0.4c0.3,0.1,0.8,0.2,1.2,0.4c0.4,0.2,0.8,0.4,1.2,0.6c0.8,0.3,1.1,1,1.7,1.6 c0.4,0.5,1.4,1.3,1.1,2h0.1c0.1,0.2,0.1,0.5,0.2,0.8c0.1,0.3,0.2,0.6,0.2,0.8c0.1,0.6,0.5,1.1,0.4,1.6 C27.2,19.9,27.1,20.1,26.8,20.4z"/>
</svg>