<!-- (c) Carrd Inc. All rights reserved. All logos and trademarks are property of their respective owners. -->
<svg xmlns="http://www.w3.org/2000/svg" id="icon">
<path d="M36,22l-1.9,1.9l0,0L19.8,38.2L5.3,23.7l0,0L3.6,22c-3.5-3.9-3.5-9.7,0-13.6C7.4,4.3,13.8,4,18,7.7l1.9,1.9l0,0 l0,0l1.9-1.9c2-2,4.6-3,7.2-3c2.6,0,5.2,1,7.2,3C40,11.7,40,18.1,36,22z M11.4,9.6H6.7c-0.7,0-1.2,0.5-1.2,1.2v4.7 c0,0.7,0.5,1.2,1.2,1.2h4.8c0.7,0,1.2-0.5,1.2-1.2l0-4.7C12.7,10.1,12.1,9.6,11.4,9.6z M35.1,8.8c-1.7-1.7-3.9-2.5-6.1-2.5 s-4.4,0.8-6.1,2.5l-2.1,2.1L33,23l2.1-2.1C38.5,17.6,38.5,12.1,35.1,8.8z"/>
</svg>