<!-- (c) Carrd Inc. All rights reserved. All logos and trademarks are property of their respective owners. -->
<svg xmlns="http://www.w3.org/2000/svg" id="icon">
<path d="M15.5,15.6c-5.5,0-10,4.5-10,10c0,5.5,4.5,10,10,10c5.5,0,10-4.5,10-10C25.4,20,21,15.6,15.5,15.6z M18.3,19.8 c1.6,0,2.9,1.3,2.9,2.9c0,1.6-1.3,2.9-2.9,2.9c-1.6,0-2.9-1.3-2.9-2.9C15.4,21.1,16.7,19.8,18.3,19.8z M15.5,8.5v3.6 c7.4,0,13.4,6,13.4,13.4l0,0h3.6C32.5,16.1,24.9,8.5,15.5,8.5L15.5,8.5z M15.5,1v3.6c5.6,0,10.8,2.2,14.8,6.1c4,4,6.1,9.2,6.1,14.8 l0,0H40c0-6.6-2.6-12.7-7.2-17.3C28.2,3.6,22,1,15.5,1L15.5,1z"/>
</svg>