<!-- (c) Carrd Inc. All rights reserved. All logos and trademarks are property of their respective owners. -->
<svg xmlns="http://www.w3.org/2000/svg" id="icon">
<path d="M32.7,36.3c-0.6,0.3-1.1,0.6-1.7,1c-0.8,0.4-1.6,0.8-2.4,1.1c-0.8,0.3-1.7,0.6-2.6,0.8 c-0.6,0.1-1.3,0.3-1.9,0.4c-0.4,0.1-0.8,0.1-1.2,0.2c-0.5,0.1-1,0.1-1.4,0.1c-0.2,0-0.3,0-0.5,0c0,0-0.1,0-0.1,0c-0.7,0-1.4,0-2.1,0 c0,0-0.1,0-0.1,0c-0.5,0-0.9-0.1-1.4-0.1c-0.5-0.1-1-0.1-1.5-0.2c-0.5-0.1-1-0.2-1.5-0.3c-0.8-0.2-1.6-0.4-2.4-0.7 c-0.6-0.2-1.3-0.5-1.9-0.8c-0.4-0.1-0.7-0.3-1.1-0.5c-0.7-0.4-1.3-0.7-2-1.1c-0.3-0.2-0.5-0.4-0.8-0.5c0,0-0.1,0-0.1-0.1 c0.2,0,0.5-0.1,0.7-0.1c0.4-0.1,0.7-0.5,0.7-0.9c0.1-0.6-0.3-1-0.7-1.4c-0.1-0.1-0.3-0.2-0.4-0.3c0.7,0,1.3,0.1,2,0.3 c1,0.2,1.9,0.6,2.8,1c1.1,0.5,2.3,0.8,3.5,1c0.6,0.1,1.3,0.1,1.9-0.1c0.4-0.1,0.6-0.3,0.9-0.6c0.2-0.2,0.2-0.7,0-1 c-0.1-0.1-0.2-0.3-0.3-0.4c-0.1-0.1-0.3-0.2-0.4-0.3c0.3,0,0.5,0.1,0.8,0.1c1,0.2,2,0.5,3,0.8c0.5,0.2,1,0.4,1.5,0.6 c0.8,0.4,1.7,0.7,2.6,0.9c0.7,0.1,1.4,0.2,2.1,0.1c0.5-0.1,0.8-0.4,0.9-0.7c0.1-0.5-0.1-0.9-0.4-1.2c-0.3-0.3-0.6-0.6-1-0.8 c0,0,0,0-0.1-0.1c1.2,0.1,2.2,0.4,3.3,0.8c1,0.4,2,0.9,2.9,1.4c0.5,0.3,1.1,0.6,1.7,0.7c0,0,0.1,0,0.1,0 C33.5,35.8,33.1,36.1,32.7,36.3z M32.5,33.6c-0.1,0.1-0.2,0.2-0.3,0.1c-0.5-0.3-1-0.6-1.6-0.9c-0.7-0.4-1.5-0.6-2.4-0.8 c-0.8-0.2-1.7-0.3-2.5-0.3c-0.5,0-1.1,0-1.6,0c-0.3,0-0.6,0.1-1,0.1c-0.2,0-0.3,0.2-0.3,0.4c0,0.2,0.1,0.3,0.3,0.3 c0.6,0.3,1.3,0.5,1.9,0.8c0.3,0.1,0.6,0.3,0.8,0.5c0.2,0.1,0.4,0.3,0.4,0.6c-0.2,0-0.4,0-0.6,0c-0.7-0.1-1.4-0.3-2-0.5 c-1.1-0.4-2.1-0.8-3.2-1.2c-1.7-0.7-3.4-1-5.2-1c-0.6,0-1.1,0.1-1.6,0.3c-0.1,0.1-0.3,0.2-0.3,0.3c-0.1,0.2,0.1,0.3,0.3,0.4 c0.7,0.2,1.4,0.5,2.1,0.7c0.2,0.1,0.4,0.2,0.6,0.3c0.2,0.1,0.2,0.3-0.1,0.4c0,0,0,0-0.1,0c-0.4,0.1-0.8,0.1-1.2,0.1 c-0.7-0.1-1.3-0.2-1.9-0.4c-0.1,0-0.2-0.1-0.2-0.2c0,0,0-0.1,0-0.1c-0.2-0.5-0.4-0.9-0.6-1.4c-0.2-0.4-0.4-0.7-0.8-1 c-0.2-0.2-0.4-0.3-0.7-0.3c-0.3,0-0.6,0-0.8,0.1c-0.1-0.2-0.2-0.5-0.2-0.7c-0.1-0.4-0.3-0.8-0.6-1.2c-0.5-0.6-1-0.9-1.6-1.4 c0,0,0,0,0,0c-0.2-0.1-0.5-0.2-0.7-0.4c-1.2-0.6-2.4-1.3-3.6-1.9c0,0,0,0,0-0.1c0,0,0.1,0,0.1,0c0.4,0.1,0.7,0.3,1.1,0.4 c1.7,0.7,3.4,1.3,5.1,2c0.2,0.1,0.4,0.2,0.7,0.3c0.1-0.3,0.3-0.6,0.4-0.9c0,0,0.1,0,0.1,0c0.6,0.2,1.1,0.4,1.7,0.5 c0.7,0.2,1.3,0.4,2,0.6c0.3,0.1,0.4,0,0.5-0.2c0.1-0.2,0.3-0.4,0.4-0.6c0-0.1,0.1-0.1,0.1-0.1c0.3,0.1,0.7,0.2,1,0.3 c0.4,0.1,0.7,0.2,1.1,0.4c0.2,0,0.2,0,0.2-0.1c0-0.2,0-0.5,0.1-0.7c0-0.3,0.1-0.6,0.1-0.9c0-0.3,0.1-0.5,0.1-0.8 c-1.9-0.1-3.8,0-5.5,1c0.1-0.8,0.2-1.6,0.3-2.4c0-0.3,0.1-0.6,0.1-0.9c0-0.1-0.2-0.3-0.3-0.3c-0.5,0-1-0.1-1.4-0.1 c-1.1,0-2.2,0-3.3,0.2c-0.8,0.1-1.5,0.3-2.3,0.5c-0.2,0.1-0.4,0.1-0.6,0.2c0.8-1.1,10.8-10.7,11.5-11.1c0,0,0,0.1-0.1,0.1 c-0.4,0.6-0.8,1.2-1.2,1.8c-0.9,1.4-1.7,2.9-2.3,4.4c-0.4,1-0.6,2-0.4,3.1c0,0.2,0.2,0.3,0.3,0.3c0.2,0,0.3-0.1,0.4-0.3 c0.2-0.9,0.5-1.8,0.9-2.7c0.7-1.7,1.5-3.2,2.7-4.6c0.2-0.2,0.4-0.4,0.6-0.6c0.4-0.3,0.9-0.5,1.4-0.6c0.2,0,0.4-0.1,0.7-0.1 c0-0.3,0-0.7,0.1-1c-0.2,0-0.3,0-0.4,0.1c-0.1-0.2-0.1-0.3-0.2-0.5c-0.4-1.4-0.4-2.7,0.2-4.1c0.3-0.7,0.7-1.4,1.1-2 c0-0.1,0.1-0.1,0.1-0.2c0-0.3,0.1-0.7,0.1-1c0.1-0.5,0.1-0.8,0.2-1.3c0-0.3,0-0.3,0.1-0.6c0-0.1,0-0.1,0-0.2 c-0.3-0.2-0.7-0.3-1.1-0.3c-0.2,0-0.5,0-0.7,0c-0.2,0-0.5,0-0.7,0c-0.1,0-0.3,0-0.4,0c0,0,0,0,0-0.1c0,0,0.1,0,0.1-0.1 c0.2-0.2,0.5-0.4,0.7-0.6c0.1-0.1,0.1-0.2,0-0.3c-0.2-0.2-0.3-0.4-0.5-0.6C18,0.4,18,0.3,17.9,0.1c0.1,0,0.1,0,0.1,0 c0.6,0.1,1.3,0.1,1.9,0.2c0.3,0,0.7,0,1,0c0.1,0,0.2-0.1,0.2-0.2c0,0,0-0.1,0-0.1c0.1,0,0.1,0,0.2,0c0.1,0,0.1,0.1,0.2,0.1 c-0.2,1.9-0.4,3.1-0.7,5c1.7,0.1,3.4,0.2,5.1,0.3C26,4.3,26,3.5,26.1,2.4c0.1,0,0.2,0,0.3,0c0.1,0,0.1,0,0.1,0.2 c0,0.7-0.1,1.1-0.1,1.8c0,0.2,0,0.5-0.1,0.7c0,0.1,0,0.3,0,0.4c0.1,0,0.1,0,0.2,0c0.1,0,0.1,0,0.2,0c-0.1,0.1-0.1,0.2-0.2,0.3 C26.1,6.7,26,7.6,26,8.6c0,0.1,0.1,0.3,0.2,0.3c0.1,0,0.2,0,0.3-0.1c0.1-0.1,0.1-0.2,0.2-0.2c0.2-0.3,0.5-0.5,0.8-0.6 c0.6-0.2,1.1-0.3,1.7-0.3c0.1,0,0.1,0,0.2,0c0-1.2,0.1-1.8,0.1-3c0.1,0,0.2,0,0.3-0.1c-0.1,1.3-0.1,1.9-0.2,3.1 c0.8,0.1,1.6,0.2,2.4,0.4c0,0,0,0,0,0c0,0-0.1,0.1-0.1,0.1c-0.5,0.5-0.7,1.1-0.8,1.7c-0.1,0.9,0,1.7,0.3,2.5c0,0,0,0.1,0,0.1 c-0.4-0.2-0.7-0.4-1.1-0.5c-0.2-0.1-0.5-0.2-0.7-0.3c-0.1,0-0.2,0-0.2,0.1c0,0.3,0,0.7-0.1,1c1,0.2,1.9,0.6,2.7,1.2 c-0.1,0.1-0.2,0.2-0.3,0.3c-0.4,0.4-0.6,0.8-0.8,1.4c-0.3,0.9-0.2,1.8,0,2.6c0,0.2,0.1,0.4,0.1,0.6c-0.1,0-0.1,0-0.1-0.1 c-0.5-0.3-1-0.6-1.5-0.8c-0.1,0-0.1,0-0.2,0c0,0,0,0,0,0c0,0.4,0,0.8,0,1.2c0,0,0.1,0.1,0.1,0.1c0.4,0.1,0.9,0.1,1.3,0.2 c0.2,0,0.5,0.2,0.7-0.1c0.1,0.2,0.4,0.3,0.6,0.3c0,0,0,0,0,0c0,0,0,0,0,0.1c-1.1,1.3-1.6,2.8-1.4,4.5c0.1,0.9,0.4,1.8,0.8,2.6 c0.1,0.2,0.2,0.4,0.4,0.7c-0.9-0.3-1.7-0.7-2.6-0.9c-0.1,0.6-0.1,1.1-0.1,1.7c0.1,0,0.2-0.1,0.2-0.1c0.1,0,0.2-0.1,0.3-0.1 c0.2,0,0.4,0.1,0.6,0.1c0.6,0.1,1.3,0.2,1.9,0.3c0.2,0,0.3,0.1,0.5,0.1c-0.1,0.1-0.1,0.1-0.2,0.2c0,0-0.1,0.1-0.1,0.1 c0,0.2,0,0.3,0,0.5c0.1,0.6,0.2,1.2,0.3,1.7c0.1,0.6,0.2,1.1,0.1,1.7C32.6,33.2,32.5,33.4,32.5,33.6z M25.8,27.9c0,0.3,0,0.6,0,0.8 c0,0.3,0.1,0.4,0.4,0.4c0.1,0,0.2,0,0.3,0c0.4,0,0.8,0.1,1.1,0.1c0.1,0,0.1,0,0.2,0c0.2-0.1,0.5-0.3,0.7-0.4c0,0,0.1-0.1,0.1-0.1 c0-0.2,0-0.3,0-0.5c0-0.4,0-0.8,0-1.2c-0.7-0.2-1.5-0.3-2.3-0.2c-0.3,0-0.6,0.1-0.8,0.2c0,0-0.1,0.1-0.1,0.1c0,0.2-0.1,0.4-0.1,0.7 C25.4,27.9,25.6,27.9,25.8,27.9z M25.3,19.7c0,0,0-0.1,0-0.2c0-0.3,0-0.6,0-0.9c0,0,0,0,0,0c0,0-0.1,0-0.1,0.1 c0-0.1-0.1-0.3-0.1-0.4c-0.1-0.4-0.1-0.8-0.2-1.2c0-0.2-0.2-0.3-0.3-0.3c-0.1,0-0.3,0.1-0.3,0.2c-0.1,0.2-0.1,0.4-0.2,0.6 c-0.2,0.9-0.4,1.9-0.4,2.8c0,0.6,0,1.2,0,1.8c0,0.6,0.1,1.1,0.2,1.6c0,0.1,0,0.2,0.1,0.3c0.1,0.1,0.2,0.1,0.3,0.1 c0.1-0.1,0.2-0.1,0.2-0.3c0-0.2,0-0.5,0-0.7c0-0.6,0.1-1.1,0.2-1.7C24.8,20.9,25,20.3,25.3,19.7z M18.6,25.9c-0.1,0-0.1,0-0.1,0.1 c0,0.2,0,0.5-0.1,0.7c-0.1,0.5-0.1,1-0.2,1.5c0,0,0,0.1,0,0.1c0.1,0,0.3,0,0.3,0c0.1-0.2,0.3-0.3,0.4-0.5c0.8,0.1,1.6,0.3,2.4,0.4 c0.6,0.1,1.3,0.2,1.9,0.2c0.2,0,0.3,0,0.5-0.2c0.1-0.1,0.1-0.2,0.2-0.3c0.1-0.1,0.1-0.1,0.2-0.1c0.1,0,0.3,0,0.5,0 c0-0.1,0-0.1,0-0.2c0,0,0-0.1-0.1-0.1c-0.7-0.3-1.4-0.5-2.1-0.7C21.2,26.3,19.9,26.1,18.6,25.9z M25.6,12.8 c-0.4-0.1-0.8-0.2-1.1-0.3c-0.8-0.2-1.6-0.3-2.4-0.3c-0.6,0-1.3,0-1.9,0c0,0-0.1,0-0.1,0.1c0,0.3-0.1,0.7-0.1,1 c1.9-0.1,3.8,0.2,5.6,0.5C25.6,13.5,25.6,13.1,25.6,12.8z M29.2,12.9c0-0.4,0.1-0.8,0.1-1.2c-0.3,0-0.7-0.1-1-0.1 c-0.6-0.1-1.2-0.1-1.8,0.1c-0.1,0-0.3,0.2-0.3,0.3c0,0.2,0,0.3,0,0.5c0,0.2,0,0.3,0.1,0.5c-0.1,0-0.2,0-0.3,0c0,0.3,0,0.6,0,0.9 c0,0,0,0.1,0,0.1c0.1,0,0.2,0,0.3,0c0.3-0.2,0.5-0.4,0.8-0.6c0.5-0.2,0.9-0.5,1.4-0.5C28.8,12.8,29,12.9,29.2,12.9z M28.9,18 c0-0.1,0-0.1-0.1-0.1c-0.5-0.1-0.9-0.1-1.4-0.1c-0.6,0-1.1,0.2-1.6,0.4c0,0-0.1,0.1-0.1,0.2c0,0.2,0,0.4,0,0.6c0,0.1,0,0.3,0,0.5 c1.1-0.3,2.1-0.2,3.2-0.1C28.9,18.9,28.9,18.4,28.9,18z M18.8,5.8c-0.1,0.2-0.3,0.4-0.4,0.6c-0.3,0.5-0.4,1-0.5,1.5 c0,0.5-0.1,1-0.1,1.5c0,0.2,0,0.4,0.1,0.6c0,0.1,0,0.1-0.1,0.2c-0.8,0.6-1.6,1.3-2.4,1.9c-0.7,0.5-1.3,1.1-2,1.6 c-0.4,0.4-0.9,0.7-1.3,1.1c-0.1-0.7-0.1-1.3-0.1-2c0.1-1.2,0.4-2.3,0.9-3.4c0.4-0.7,0.8-1.4,1.3-1.9c0.9-0.9,2-1.6,3.3-1.8 C18,5.7,18.4,5.7,18.8,5.8z"/>
</svg>