<!-- (c) Carrd Inc. All rights reserved. All logos and trademarks are property of their respective owners. -->
<svg xmlns="http://www.w3.org/2000/svg" id="icon">
<path d="M20.9,0c0.4,0,0.8,0.4,0.8,0.8c0,0.4-0.4,0.8-0.8,0.8c-0.4,0-0.8-0.4-0.8-0.8C20.1,0.4,20.4,0,20.9,0z M16.9,1.6 c0.9,0,1.6,0.7,1.6,1.6c0,0.9-0.7,1.6-1.6,1.6c-0.9,0-1.6-0.7-1.6-1.6C15.3,2.3,16,1.6,16.9,1.6z M32.2,32.3 c-0.8,1.2-1.7,1.7-3.6,1.7H11.4c-1.9,0-2.8-0.6-3.6-1.7c-1.1-1.6-0.2-3.3-0.2-3.3l7.5-14.6c0.1-0.1,0.1-0.2,0.1-0.4 c0-0.1,0-0.1,0-0.2c0.1-0.4-0.1-0.9-0.4-1.2l-2-2.2c-0.2-0.2-0.2-0.4-0.2-0.5c0-0.1-0.1-1.8-0.1-2c0-0.2,0-0.4,0.3-0.7 c0.3-0.3,0.8-0.3,0.8-0.3h12.7c0,0,0.6,0,0.8,0.3c0.3,0.3,0.3,0.5,0.3,0.7c0,0.2-0.1,1.9-0.1,2c0,0.1-0.1,0.3-0.2,0.5 c-0.1,0.1-1.7,1.8-2.2,2.3c0,0,0,0,0,0c-0.1,0.1-0.2,0.2-0.3,0.2c0,0-0.1,0-0.1,0h-7.5c-0.2,0-0.3,0-0.4,0.2 c-0.2,0.2-0.1,0.5-0.1,0.5s0.5,0.9,1.1,2.2c1.6,3.1,4.3,8.4,4.3,8.4c0.1,0.1,0.1,0.3,0.1,0.4c0,0.5-0.4,0.9-0.9,0.9 c-2.6,0-4.1,1.4-4.1,3c0,1.7,1.9,3,4.2,3c2.3,0,4.1-1.3,4.2-3c0,0,0-0.5-0.2-1.2c-0.1-0.2-5.5-10.7-5.5-10.7s-0.1-0.3,0.1-0.5 c0.2-0.2,0.5-0.3,0.5-0.3H25c0.4,0,0.7,0.2,0.9,0.5l6.5,12.6C32.4,28.9,33.3,30.6,32.2,32.3z"/>
</svg>