<!-- (c) Carrd Inc. All rights reserved. All logos and trademarks are property of their respective owners. -->
<svg xmlns="http://www.w3.org/2000/svg" id="icon">
<path d="M39.8,24.4c-0.5,0-0.9,0-1.4,0c-0.2,0-0.1,0-0.1-0.2c0-0.5,0-1,0-1.5c0-0.1,0-0.1,0.1-0.1c0.5,0,1,0,1.5,0 c0,0,0.1,0,0.1,0c0,0,0,0,0,0.1c0,0.5,0,1,0,1.6c0,0,0,0.1,0,0.1C39.9,24.3,39.9,24.4,39.8,24.4z M37.3,24.4c-0.5,0-1.1,0-1.6,0 c-0.1,0-0.1,0-0.1-0.1c0-1.4,0-2.9,0-4.3c0,0,0,0,0,0c0-1.4,0-2.9,0-4.3c0-0.1,0-0.1,0.1-0.1c0.5,0,1.1,0,1.6,0c0.1,0,0.1,0,0.1,0.1 c0,2.4,0,4.8,0,7.2c0,0.5,0,1,0,1.5C37.4,24.3,37.4,24.4,37.3,24.4z M34.6,24.4c-0.5,0-1,0-1.5,0c-0.1,0-0.1,0-0.1-0.1 c0-0.3,0-0.5,0-0.8c0,0,0-0.1,0-0.1c0,0,0,0-0.1,0.1c-0.2,0.4-0.5,0.6-0.9,0.8c-0.4,0.2-0.9,0.2-1.3,0.2c-0.7-0.1-1.2-0.4-1.6-1 c-0.2-0.4-0.3-0.8-0.2-1.2c0.1-0.4,0.2-0.7,0.5-0.9c0.2-0.2,0.5-0.4,0.8-0.5c0.3-0.1,0.6-0.2,1-0.2c0.4,0,0.8,0,1.1-0.1 c0.2,0,0.4,0,0.5,0c0.1,0,0.1,0,0.1-0.1c0-0.2,0-0.4,0-0.6c0-0.3-0.2-0.4-0.4-0.6c-0.4-0.2-0.9-0.2-1.3,0c-0.2,0.1-0.3,0.3-0.4,0.5 c0,0.1,0,0.1-0.1,0.1c-0.5,0-1,0-1.4,0c-0.1,0-0.1,0-0.1-0.1c0-0.3,0.1-0.5,0.2-0.7c0.2-0.3,0.4-0.6,0.7-0.8 c0.3-0.2,0.7-0.4,1.1-0.4c0.2,0,0.4,0,0.5,0c0.2,0,0.5,0,0.7,0c0.5,0.1,0.9,0.2,1.3,0.5c0.3,0.2,0.6,0.6,0.7,1 c0.1,0.2,0.1,0.4,0.1,0.6c0,0.7,0,1.4,0,2.1c0,0,0,0,0,0C34.7,22.8,34.7,23.5,34.6,24.4C34.7,24.3,34.7,24.4,34.6,24.4z M32.9,21.6 c-0.1,0-0.1,0-0.2,0c-0.3,0-0.6,0-0.9,0.1c-0.2,0-0.5,0.1-0.7,0.2c-0.3,0.2-0.5,0.6-0.3,0.9c0.1,0.3,0.4,0.4,0.7,0.4 c0.3,0,0.6,0,0.9-0.1c0.3-0.1,0.5-0.3,0.6-0.6c0.1-0.2,0.1-0.3,0.1-0.5C33,21.8,33,21.8,32.9,21.6C33,21.6,33,21.6,32.9,21.6z M28.3,21.7c-1.4,0-2.7,0-4.1,0c-0.1,0-0.1,0-0.1,0.1c0.1,0.4,0.3,0.7,0.6,0.9c0.3,0.2,0.6,0.3,1,0.3c0.2,0,0.5,0,0.7,0 c0.2-0.1,0.4-0.1,0.6-0.2c0.1-0.1,0.3-0.1,0.4-0.2c0.1,0,0.1,0,0.1,0c0.1,0.2,0.1,0.3,0.2,0.5c0.1,0.2,0.2,0.4,0.2,0.6 c0.1,0.1,0.1,0.2-0.1,0.2c-0.2,0.2-0.5,0.3-0.8,0.4c-0.2,0.1-0.5,0.1-0.7,0.2c0,0,0,0-0.1,0c-0.3,0-0.7,0-1,0c0,0-0.1,0-0.1,0 c-0.3-0.1-0.5-0.1-0.8-0.2c-0.4-0.1-0.7-0.3-1-0.5c-0.4-0.3-0.6-0.7-0.8-1.1c-0.1-0.2-0.2-0.5-0.2-0.7c-0.1-0.4-0.1-0.8,0-1.3 c0-0.3,0.1-0.6,0.2-0.9c0.2-0.4,0.4-0.8,0.7-1.1c0.3-0.3,0.6-0.5,1-0.6c0.5-0.2,1-0.2,1.4-0.2c0.4,0,0.8,0.1,1.1,0.3 c0.4,0.2,0.7,0.5,0.9,0.8c0.2,0.3,0.3,0.5,0.4,0.8c0.1,0.2,0.1,0.5,0.2,0.7c0,0.4,0,0.7,0.1,1.1C28.4,21.7,28.4,21.7,28.3,21.7z M26.8,20.5c-0.1-0.2-0.1-0.4-0.2-0.6c-0.2-0.3-0.5-0.5-0.9-0.6c-0.1,0-0.3,0-0.5,0c-0.4,0-0.6,0.2-0.8,0.6 c-0.1,0.2-0.2,0.4-0.2,0.6c0,0.1,0,0.1,0.1,0.1c0.4,0,0.8,0,1.2,0c0,0,0,0,0,0c0.3,0,0.6,0,0.9,0C26.5,20.6,26.6,20.6,26.8,20.5 C26.8,20.6,26.8,20.6,26.8,20.5z M21.9,24.4c-0.4,0-0.7,0-1.1,0c-0.2,0-0.4,0-0.5,0c-0.1,0-0.1,0-0.1-0.1c-0.2-0.4-0.4-0.8-0.7-1.2 c-0.2-0.4-0.5-0.9-0.7-1.3c-0.1-0.2-0.3-0.4-0.4-0.7c0-0.1-0.1-0.1-0.2-0.1c-0.3,0-0.5,0-0.8,0c-0.2,0-0.4,0-0.6,0 c-0.1,0-0.1,0-0.1,0.1c0,1.1,0,2.1,0,3.2c0,0.1,0,0.1-0.1,0.1c-0.5,0-1,0-1.5,0c-0.1,0-0.1,0-0.1-0.1c0-1.4,0-2.9,0-4.3 c0-1.4,0-2.9,0-4.3c0-0.1,0-0.1,0.1-0.1c0.9,0,1.9,0,2.8,0c0.4,0,0.9,0.1,1.3,0.2c0.5,0.1,0.9,0.3,1.2,0.6c0.4,0.3,0.6,0.7,0.7,1.1 c0.1,0.4,0.1,0.8,0.1,1.3c-0.1,0.5-0.3,0.9-0.6,1.2c-0.2,0.2-0.5,0.4-0.7,0.6c-0.2,0.1-0.2,0.1-0.1,0.3c0.4,0.8,0.9,1.5,1.3,2.3 C21.5,23.5,21.7,23.9,21.9,24.4C21.9,24.3,22,24.3,21.9,24.4C21.9,24.4,21.9,24.4,21.9,24.4z M19.4,17.8c-0.1-0.2-0.2-0.4-0.3-0.5 C18.8,17,18.4,17,18,16.9c-0.4,0-0.8,0-1.1,0c-0.1,0-0.1,0-0.1,0.1c0,0.4,0,0.8,0,1.2c0,0.4,0,0.8,0,1.2c0,0.1,0,0.1,0.1,0.1 c0.4,0,0.7,0,1.1,0c0.3,0,0.7-0.1,1-0.2c0.4-0.2,0.6-0.4,0.6-0.8C19.5,18.3,19.5,18.1,19.4,17.8z M13.7,21.7c-1.3,0-2.6,0-3.9,0 c-0.1,0-0.1,0-0.2,0c-0.1,0-0.1,0-0.1,0.1c0.1,0.3,0.2,0.5,0.4,0.8c0.3,0.3,0.7,0.5,1.2,0.5c0.2,0,0.5,0,0.7,0 c0.2-0.1,0.4-0.1,0.6-0.2c0.1-0.1,0.3-0.1,0.4-0.2c0.1,0,0.1,0,0.1,0c0.1,0.2,0.1,0.3,0.2,0.5c0.1,0.2,0.2,0.4,0.2,0.6 c0.1,0.1,0.1,0.2-0.1,0.2c-0.2,0.2-0.5,0.3-0.8,0.4c-0.2,0.1-0.5,0.1-0.7,0.2c0,0,0,0-0.1,0c-0.3,0-0.7,0-1,0c0,0-0.1,0-0.1,0 c-0.3-0.1-0.5-0.1-0.8-0.2c-0.4-0.1-0.7-0.3-1-0.5c-0.4-0.3-0.6-0.7-0.8-1.1c-0.1-0.2-0.2-0.5-0.2-0.8c-0.1-0.4-0.1-0.8,0-1.2 c0-0.3,0.1-0.6,0.2-0.9c0.2-0.4,0.4-0.8,0.7-1.1c0.3-0.3,0.7-0.5,1-0.6c0.5-0.2,1-0.2,1.4-0.2c0.4,0,0.8,0.1,1.1,0.3 c0.4,0.2,0.7,0.5,0.9,0.8c0.2,0.3,0.3,0.5,0.4,0.8c0.1,0.3,0.1,0.5,0.2,0.8C13.7,20.9,13.7,21.3,13.7,21.7 C13.7,21.7,13.7,21.7,13.7,21.7z M12.1,20.5c-0.1-0.2-0.1-0.4-0.2-0.6c-0.2-0.3-0.4-0.5-0.8-0.6c-0.2,0-0.4,0-0.5,0 c-0.4,0.1-0.6,0.3-0.8,0.6c-0.1,0.2-0.2,0.4-0.2,0.6c0,0.1,0,0.1,0.1,0.1c0.4,0,0.8,0,1.2,0c0,0,0,0,0,0c0.3,0,0.7,0,1,0 C11.9,20.6,12,20.6,12.1,20.5C12.1,20.6,12.1,20.6,12.1,20.5z M5.7,23.8c-0.4,0.3-0.9,0.5-1.4,0.5c-0.2,0-0.4,0-0.6,0 c-1.2,0-2.4,0-3.6,0c-0.1,0-0.1,0-0.1-0.1c0-0.7,0-1.3,0-2c0-0.8,0-1.5,0-2.3c0,0,0,0,0,0c0-1.4,0-2.7,0-4.1c0-0.1,0-0.2,0-0.3 c0-0.1,0-0.1,0.1-0.1c0.1,0,0.2,0,0.2,0c1,0,2,0,3,0c0.4,0,0.8,0,1.2,0.2C5,15.8,5.4,16,5.7,16.3C5.9,16.5,6,16.7,6.1,17 c0.1,0.3,0.1,0.7,0.1,1c0,0.4-0.1,0.8-0.4,1.1c-0.1,0.1-0.2,0.2-0.3,0.3c-0.1,0.1-0.1,0.1,0,0.1c0.4,0.2,0.7,0.5,0.9,0.8 c0.2,0.3,0.3,0.6,0.3,1c0.1,0.5,0,1-0.2,1.5C6.4,23.2,6.1,23.6,5.7,23.8z M4.4,17.7c0-0.3-0.2-0.5-0.4-0.6c-0.2-0.1-0.5-0.2-0.7-0.2 c-0.5,0-1,0-1.4,0c-0.1,0-0.1,0-0.1,0.1c0,0.3,0,0.7,0,1c0,0.3,0,0.6,0,1c0,0.1,0,0.1,0.1,0.1c0.4,0,0.8,0,1.2,0 c0.3,0,0.6,0,0.8-0.2c0.2-0.1,0.4-0.2,0.5-0.5C4.5,18.2,4.4,18,4.4,17.7z M5,21.4c0-0.2-0.1-0.4-0.3-0.5c-0.2-0.2-0.6-0.4-0.9-0.4 c-0.7,0-1.3,0-2,0c-0.1,0-0.1,0-0.1,0.1c0,0.4,0,0.8,0,1.1c0,0.4,0,0.8,0,1.1c0,0.1,0,0.1,0.1,0.1c0.6,0,1.2,0,1.9,0 c0.3,0,0.6-0.1,0.9-0.3C4.8,22.5,4.9,22.3,5,22C5,21.8,5,21.6,5,21.4z"/>
</svg>