<!-- (c) Carrd Inc. All rights reserved. All logos and trademarks are property of their respective owners. -->
<svg xmlns="http://www.w3.org/2000/svg" id="icon">
<path d="M36.6,19.5l-2-3l1.5-2.2h4L36.6,19.5z M31.9,25.5h-4l3.7-5.5l-3.7-5.6h4l3.7,5.6L31.9,25.5z M29.2,20.1 c0,0.4,0,0.5-0.1,0.9h-8.3c0.1,1.3,1.1,2.1,2.4,2.1c0.8,0,1.3-0.2,2-0.9c0.1-0.1,0.2-0.2,0.2-0.2h3.4c-1,2.4-3.1,3.8-5.4,3.8 c-3.2,0-5.8-2.6-5.8-5.9c0-3.3,2.4-6,5.8-6S29.2,16.6,29.2,20.1L29.2,20.1z M23.4,16.8c-1.3,0-2.2,0.7-2.5,1.9h5 C25.7,17.6,24.7,16.8,23.4,16.8z M17.9,24.2c0,0,0.1,0.1,0.1,0.1c-0.5,0.9-1.2,1.5-2.1,1.5c-0.7,0-1.4-0.4-1.9-1 c-0.6-0.7-0.9-1.5-0.9-2.4V10.7h3.3l0,9C16.4,21,16.6,22.5,17.9,24.2z M6.7,25.8c-1.4,0-2.4-0.4-3.3-1.4v2.1c0,0.8-0.2,1.6-0.9,2.2 c-0.8,0.7-2,0.5-2.2,0.4c-0.1,0-0.2-0.1-0.2-0.1V14.4h3.1v1.2C4,14.5,5,14,6.6,14c3.2,0,5.4,2.5,5.4,6C12.1,23.3,9.7,25.8,6.7,25.8z M6,17.1c-1.5,0-2.8,1.2-2.8,2.8c0,1.6,1.2,2.9,2.8,2.9c1.6,0,2.8-1.3,2.8-2.8C8.8,18.3,7.5,17.1,6,17.1z M38.6,23.4 c0.6,0.8,1.1,1.2,1.1,1.2c-0.3,0.3-1,1.2-2,1.3c-1,0-1.8-0.5-2.5-1.5c0,0-0.7-1-0.7-1l2-3C36.6,20.5,37.8,22.4,38.6,23.4z M34.6,23.3L34.6,23.3C34.6,23.3,34.6,23.3,34.6,23.3L34.6,23.3z"/>
</svg>