<!-- (c) Carrd Inc. All rights reserved. All logos and trademarks are property of their respective owners. -->
<svg xmlns="http://www.w3.org/2000/svg" id="icon">
<path d="M34.9,36h-4.8c-0.6,0-1.1-0.5-1.1-1.1v-4.8c0-0.6,0.5-1.1,1.1-1.1h4.8c0.6,0,1.1,0.5,1.1,1.1v4.8 C36,35.5,35.5,36,34.9,36z M35.3,30.3c0-0.3-0.3-0.6-0.6-0.6h-4.4c-0.3,0-0.6,0.3-0.6,0.6v4.4c0,0.3,0.3,0.6,0.6,0.6h4.4 c0.3,0,0.6-0.3,0.6-0.6V30.3z M34.9,27.7h-4.8c-0.6,0-1.1-0.5-1.1-1.1v-4.8c0-0.6,0.5-1.1,1.1-1.1h4.8c0.6,0,1.1,0.5,1.1,1.1v4.8 C36,27.2,35.5,27.7,34.9,27.7z M35.3,22c0-0.3-0.3-0.6-0.6-0.6h-4.4c-0.3,0-0.6,0.3-0.6,0.6v4.4c0,0.3,0.3,0.6,0.6,0.6h4.4 c0.3,0,0.6-0.3,0.6-0.6V22z M34.9,19.4h-4.8c-0.6,0-1.1-0.5-1.1-1.1v-4.8c0-0.6,0.5-1.1,1.1-1.1h4.8c0.6,0,1.1,0.5,1.1,1.1v4.8 C36,18.9,35.5,19.4,34.9,19.4z M34.9,11h-4.8c-0.6,0-1.1-0.5-1.1-1.1V5.1C29,4.5,29.4,4,30.1,4h4.8C35.5,4,36,4.5,36,5.1v4.8 C36,10.6,35.5,11,34.9,11z M35.3,5.3c0-0.3-0.3-0.6-0.6-0.6h-4.4c-0.3,0-0.6,0.3-0.6,0.6v4.4c0,0.3,0.3,0.6,0.6,0.6h4.4 c0.3,0,0.6-0.3,0.6-0.6V5.3z M26.6,36h-4.8c-0.6,0-1.1-0.5-1.1-1.1v-4.8c0-0.6,0.5-1.1,1.1-1.1h4.8c0.6,0,1.1,0.5,1.1,1.1v4.8 C27.7,35.5,27.2,36,26.6,36z M26.6,27.7h-4.8c-0.6,0-1.1-0.5-1.1-1.1v-4.8c0-0.6,0.5-1.1,1.1-1.1h4.8c0.6,0,1.1,0.5,1.1,1.1v4.8 C27.7,27.2,27.2,27.7,26.6,27.7z M27,22c0-0.3-0.3-0.6-0.6-0.6H22c-0.3,0-0.6,0.3-0.6,0.6v4.4c0,0.3,0.3,0.6,0.6,0.6h4.4 c0.3,0,0.6-0.3,0.6-0.6V22z M26.6,19.4h-4.8c-0.6,0-1.1-0.5-1.1-1.1v-4.8c0-0.6,0.5-1.1,1.1-1.1h4.8c0.6,0,1.1,0.5,1.1,1.1v4.8 C27.7,18.9,27.2,19.4,26.6,19.4z M26.6,11h-4.8c-0.6,0-1.1-0.5-1.1-1.1V5.1c0-0.6,0.5-1.1,1.1-1.1h4.8c0.6,0,1.1,0.5,1.1,1.1v4.8 C27.7,10.6,27.2,11,26.6,11z M27,5.3c0-0.3-0.3-0.6-0.6-0.6H22c-0.3,0-0.6,0.3-0.6,0.6v4.4c0,0.3,0.3,0.6,0.6,0.6h4.4 c0.3,0,0.6-0.3,0.6-0.6V5.3z M18.3,36h-4.8c-0.6,0-1.1-0.5-1.1-1.1v-4.8c0-0.6,0.5-1.1,1.1-1.1h4.8c0.6,0,1.1,0.5,1.1,1.1v4.8 C19.4,35.5,18.9,36,18.3,36z M18.3,27.7h-4.8c-0.6,0-1.1-0.5-1.1-1.1v-4.8c0-0.6,0.5-1.1,1.1-1.1h4.8c0.6,0,1.1,0.5,1.1,1.1v4.8 C19.4,27.2,18.9,27.7,18.3,27.7z M18.3,19.4h-4.8c-0.6,0-1.1-0.5-1.1-1.1v-4.8c0-0.6,0.5-1.1,1.1-1.1h4.8c0.6,0,1.1,0.5,1.1,1.1v4.8 C19.4,18.9,18.9,19.4,18.3,19.4z M18.3,11h-4.8c-0.6,0-1.1-0.5-1.1-1.1V5.1c0-0.6,0.5-1.1,1.1-1.1h4.8c0.6,0,1.1,0.5,1.1,1.1v4.8 C19.4,10.6,18.9,11,18.3,11z M9.9,36H5.1C4.5,36,4,35.5,4,34.9v-4.8C4,29.4,4.5,29,5.1,29h4.8c0.6,0,1.1,0.5,1.1,1.1v4.8 C11,35.5,10.6,36,9.9,36z M9.9,27.7H5.1c-0.6,0-1.1-0.5-1.1-1.1v-4.8c0-0.6,0.5-1.1,1.1-1.1h4.8c0.6,0,1.1,0.5,1.1,1.1v4.8 C11,27.2,10.6,27.7,9.9,27.7z M9.9,19.4H5.1c-0.6,0-1.1-0.5-1.1-1.1v-4.8c0-0.6,0.5-1.1,1.1-1.1h4.8c0.6,0,1.1,0.5,1.1,1.1v4.8 C11,18.9,10.6,19.4,9.9,19.4z M9.9,11H5.1C4.5,11,4,10.6,4,9.9V5.1C4,4.5,4.5,4,5.1,4h4.8C10.6,4,11,4.5,11,5.1v4.8 C11,10.6,10.6,11,9.9,11z"/>
</svg>