<!-- (c) Carrd Inc. All rights reserved. All logos and trademarks are property of their respective owners. -->
<svg xmlns="http://www.w3.org/2000/svg" id="icon">
<path d="M34.3,10.5h-8.7v2.1h8.7V10.5z M30,17.8c-1.1,0-1.8,0.3-2.5,0.9c-0.7,0.6-1,1.4-1.1,2.4h7C33.3,18.8,32.1,17.8,30,17.8 L30,17.8z M30.3,27.8c0.8,0,1.4-0.2,2.1-0.6c0.7-0.4,1.2-0.9,1.3-1.5h3.7c-1.2,3.6-3.6,5.3-7.3,5.3c-2.4,0-4.4-0.8-5.9-2.3 c-1.4-1.5-2.2-3.5-2.2-6c0-2.4,0.8-4.3,2.2-6c1.4-1.6,3.5-2.4,5.8-2.4c1.5,0,3,0.4,4.1,1.2s2,1.8,2.6,3.1s0.9,2.7,0.9,4.2 c0,0.2,0,0.5,0,0.8H26.4c0,1.2,0.3,2.2,1,3S29,27.8,30.3,27.8z M7.4,26.9h5.1c2.3,0,3.6-1,3.6-2.9c0-2-1.2-3.1-3.5-3.1H7.4V26.9z M7.4,17.7h4.8c0.9,0,1.6-0.2,2.1-0.7c0.5-0.5,0.8-1.1,0.8-1.9c0-1.6-1.1-2.5-3.3-2.5H7.4C7.4,12.7,7.4,17.7,7.4,17.7z M2.6,9h10.2 c1,0,1.9,0.1,2.7,0.3c0.8,0.2,1.5,0.4,2.2,0.8c0.7,0.4,1.2,1,1.5,1.6c0.4,0.8,0.6,1.6,0.6,2.7c0,2.1-1,3.6-3,4.5 c1.3,0.4,2.3,1.1,3,2c0.7,1,1,2.1,1,3.5c0,0.9-0.1,1.6-0.4,2.3c-0.3,0.7-0.7,1.2-1.2,1.7s-1.1,0.9-1.7,1.2c-0.7,0.3-1.3,0.6-2.1,0.8 c-0.7,0.2-1.4,0.2-2.3,0.2H2.6V9L2.6,9z"/>
</svg>