<!-- (c) Carrd Inc. All rights reserved. All logos and trademarks are property of their respective owners. -->
<svg xmlns="http://www.w3.org/2000/svg" id="icon">
<path d="M20,32.1c-1.6,0-3-0.4-4.2-1.1c-1.2-0.7-2.1-1.7-2.7-2.9c-0.6-1.2-1.1-2.5-1.4-3.8c-0.3-1.4-0.4-2.9-0.4-4.4 c0-1.2,0.1-2.3,0.2-3.3c0.2-1.1,0.4-2.1,0.8-3.2c0.4-1.1,0.9-2,1.6-2.8c0.7-0.8,1.5-1.5,2.5-2c1-0.5,2.2-0.8,3.6-0.8 c1.6,0,3,0.4,4.2,1.1c1.2,0.7,2.1,1.7,2.7,2.9c0.6,1.2,1.1,2.5,1.4,3.8c0.3,1.3,0.4,2.8,0.4,4.4c0,1.2-0.1,2.3-0.2,3.3 c-0.2,1.1-0.5,2.2-0.9,3.2c-0.4,1.1-0.9,2-1.6,2.8c-0.6,0.8-1.5,1.5-2.5,2C22.5,31.9,21.3,32.1,20,32.1z M23.1,23.2 c0.8-0.8,1.3-2,1.3-3.2c0-1.2-0.4-2.3-1.3-3.2c-0.8-0.9-1.9-1.3-3.1-1.3c-1.2,0-2.3,0.4-3.1,1.3c-0.8,0.8-1.3,2-1.3,3.2 c0,1.2,0.4,2.3,1.3,3.2c0.8,0.9,1.9,1.3,3.1,1.3C21.2,24.5,22.3,24.1,23.1,23.2z M20,38.2c9.7,0,17.5-8.1,17.5-18.2S29.7,1.8,20,1.8 C10.3,1.8,2.5,10,2.5,20S10.3,38.2,20,38.2z" />
</svg>
