<!-- (c) Carrd Inc. All rights reserved. All logos and trademarks are property of their respective owners. -->
<svg xmlns="http://www.w3.org/2000/svg" id="icon">
<path d="M38.1,26c-1.3,2.3-2.6,4.6-3.9,6.9c-0.5,0.9-1.1,1.9-1.6,2.8c0,0,0,0.1,0,0.1c0,0.1-0.1,0.1-0.1,0.1 c0,0-0.1,0-0.1,0c-7.6,0-15.2,0-22.8,0c-0.1,0-0.1,0-0.2,0c0-0.1,0-0.1,0.1-0.1c1.9-3.4,3.9-6.7,5.8-10.1c0.1-0.1,0.1-0.1,0.2-0.1 c2.2,0,4.4,0,6.5,0c5.4,0,10.7,0,16.1,0c0.1,0,0.2,0,0.3,0C38.3,25.8,38.2,25.9,38.1,26z M37.3,23.9c-3.9,0-7.7,0-11.6,0 c-0.1,0-0.2,0-0.2-0.1c-1.8-3-3.5-6.1-5.3-9.1c-2-3.5-4.1-7-6.1-10.6c0,0,0-0.1-0.1-0.1c0.1,0,0.1,0,0.2,0c3.9,0,7.7,0,11.6,0 c0,0,0.1,0,0.1,0C26,4,26,4,26,4.1c0.1,0.2,0.2,0.4,0.3,0.6c2,3.4,3.9,6.9,5.9,10.3c1.7,2.9,3.4,5.9,5.1,8.8c0,0,0,0.1,0.1,0.1 C37.4,23.9,37.3,23.9,37.3,23.9z M19,15.8C19,15.9,19,15.9,19,15.8C19,16,19,16,19,16.1c-0.2,0.3-0.4,0.7-0.6,1 c-0.9,1.6-1.9,3.2-2.8,4.8c-0.7,1.2-1.4,2.4-2,3.5c-2,3.5-4,6.9-6,10.4c0,0.1-0.1,0.1-0.1,0.2c-0.1-0.2-0.2-0.4-0.3-0.6 c-1.6-2.9-3.2-5.7-4.8-8.6c-0.2-0.4-0.4-0.8-0.7-1.2c-0.1-0.1,0-0.2,0-0.2c0.9-1.6,1.8-3.2,2.7-4.7c1.1-2,2.3-4,3.4-6 c1.1-1.9,2.2-3.9,3.3-5.8c0.6-1.1,1.2-2.1,1.8-3.2c0,0,0-0.1,0.1-0.1c0.1,0,0.1,0.1,0.1,0.1c0.5,0.9,1,1.8,1.6,2.7 C16.1,10.9,17.5,13.4,19,15.8z"/>
</svg>