<!-- (c) Font Awesome (fontawesome.io, SIL OFL) -->
<svg xmlns="http://www.w3.org/2000/svg" id="icon">
<path d="M4.3,8.7c0-0.4,0.2-0.7,0.4-0.9L8,4.5c0.3-0.3,0.5-0.4,0.9-0.4s0.7,0.2,0.9,0.4l14.6,14.6c0.3,0.3,0.4,0.6,0.4,0.9 c0,0.4-0.2,0.7-0.4,0.9L9.9,35.5c-0.3,0.3-0.5,0.4-0.9,0.4s-0.7-0.2-0.9-0.4l-3.3-3.3c-0.3-0.3-0.4-0.6-0.4-0.9 c0-0.4,0.2-0.7,0.4-0.9L15.2,20L4.8,9.6C4.6,9.3,4.3,9.1,4.3,8.7z M32.2,4.1h-3.9c-0.8,0-1.5,0.7-1.5,1.5v28.8 c0,0.8,0.7,1.5,1.5,1.5h3.9c0.8,0,1.5-0.7,1.5-1.5V5.6C33.7,4.8,33,4.1,32.2,4.1z"/>
</svg>