<!-- (c) Carrd Inc. All rights reserved. All logos and trademarks are property of their respective owners. -->
<svg xmlns="http://www.w3.org/2000/svg" id="icon">
<path d="M20.9,35.2c-6,0-12,0-17.9,0c0-0.1,0-0.2,0-0.3c0.3-2.5,0.5-5,0.8-7.4c0.1-1.4,0.3-2.7,0.4-4.1c0.2-2.4,0.4-4.8,0.6-7.2 c0.2-1.9,0.4-3.9,0.6-5.8c0-0.1,0-0.3,0.1-0.4c0.8-1.5,1.6-2.9,2.4-4.4C8,5.4,8,5.4,8.2,5.6c1.2,1.1,2.5,2.3,3.7,3.4 c0.1,0.1,0.3,0.2,0.4,0.1c0.3,0,0.6-0.1,0.9-0.1c1-0.1,1.9-0.2,2.9-0.3c0.2,0,0.3-0.1,0.4-0.2C17.3,7.3,18,6.2,18.7,5 c0.1-0.2,0.2-0.2,0.3,0c1,1.1,1.9,2.3,2.9,3.4c0.1,0.1,0.2,0.2,0.4,0.2c1.1,0,2.3-0.1,3.4-0.1c2.9-0.1,5.8-0.1,8.6-0.2 c0.1,0,0.2-0.1,0.3-0.2c0.2-0.4,0.4-0.8,0.6-1.2c0.1-0.1,0.1-0.2,0.3-0.2c0.7,0.1,1.3,0.2,2,0.3c0.7,0.1,1.4,0.2,2.2,0.3 c0.3,0,0.3,0,0.3,0.3c0,1.2-0.1,2.4-0.1,3.6c0,1.1,0,2.3-0.1,3.4c0,0.2-0.1,0.3-0.2,0.3c-0.2,0-0.3,0.1-0.5,0.2 c-0.7,0.2-1.4,0.4-2.1,0.7c-0.7,0.2-1.4,0.5-2.2,0.7c-0.8,0.3-1.7,0.5-2.5,0.8c-0.8,0.3-1.7,0.5-2.5,0.8c-1,0.3-1.9,0.6-2.9,0.9 c-1,0.3-1.9,0.6-2.9,0.9c-0.1,0-0.2,0.1-0.2,0.2c0,0.1,0,0.2-0.1,0.3c-0.1,0.8-0.3,1.6-0.4,2.4c-0.1,0.8-0.3,1.5-0.4,2.3 c-0.2,1-0.4,2-0.6,3.1c-0.2,1.2-0.5,2.4-0.7,3.6C21.3,33,21.1,34.1,20.9,35.2z M8.6,8.9C8.5,9,8.5,9,8.4,9.1 C8,9.9,7.5,10.8,7.1,11.6C7,11.8,7,11.9,7.2,12c0.7,0.7,1.4,1.3,2.1,2c0.2,0.2,0.2,0.2,0.3,0c0.5-0.8,0.9-1.6,1.4-2.4 c0.1-0.2,0.1-0.3-0.1-0.4C10.3,10.5,9.5,9.8,8.7,9C8.7,9,8.6,9,8.6,8.9z M19.2,8.3c0,0-0.1,0.1-0.1,0.1c-0.5,0.8-1,1.6-1.4,2.3 c-0.1,0.1-0.1,0.2,0,0.3c0.5,0.6,1.1,1.3,1.6,1.9c0.1,0.2,0.2,0.2,0.3,0c0.5-0.7,1-1.5,1.5-2.2c0.1-0.1,0.1-0.2,0-0.3 c-0.6-0.7-1.2-1.4-1.7-2C19.3,8.4,19.2,8.4,19.2,8.3z M23.4,17.1c0.1-0.1,0.1-0.2,0.1-0.2c0.4-0.9,0.9-1.8,1.3-2.7 c0.1-0.1,0.1-0.2,0.1-0.4c-0.1,0-0.3,0-0.4,0c-0.8,0.1-1.6,0.2-2.4,0.4c-0.3,0-0.3,0.1-0.2,0.3c0.3,0.6,0.6,1.2,1,1.8 C23.1,16.6,23.2,16.8,23.4,17.1z M37.4,14.6c0.1-0.1,0.1-0.1,0.1-0.2c0.5-0.9,0.9-1.9,1.3-2.8c0-0.1,0.1-0.2,0.1-0.3 c-0.1,0-0.2,0-0.3,0c-0.8,0.1-1.5,0.2-2.3,0.4c-0.2,0-0.2,0.1-0.2,0.3c0.3,0.7,0.6,1.4,1,2.1C37.2,14.2,37.3,14.4,37.4,14.6z M28.2,16.2c0.1-0.1,0.1-0.1,0.1-0.1c0.5-1,1-2,1.4-3c0.1-0.1,0-0.2-0.1-0.2c-0.8,0.1-1.7,0.3-2.5,0.4c-0.2,0-0.2,0.1-0.1,0.3 c0.3,0.7,0.7,1.5,1,2.2C28.1,15.9,28.1,16.1,28.2,16.2z M33,15.4c0.1-0.1,0.1-0.2,0.2-0.3c0.3-0.5,0.5-1.1,0.8-1.6 c0.2-0.4,0.4-0.8,0.6-1.3c0-0.1,0-0.1,0-0.2c0,0-0.1,0-0.2,0c-0.2,0-0.3,0.1-0.5,0.1c-0.7,0.1-1.3,0.2-2,0.3c-0.2,0-0.2,0.1-0.1,0.3 c0.3,0.7,0.6,1.4,1,2.1C32.8,15,32.9,15.2,33,15.4z"/>
</svg>