<!-- (c) Carrd Inc. All rights reserved. All logos and trademarks are property of their respective owners. -->
<svg xmlns="http://www.w3.org/2000/svg" id="icon">
<path d="M39.1,14.3c0,0-0.1,0.1-0.2,0.1c-0.8,0-1.7-0.1-2.5-0.1c-0.6,0-1.2-0.1-1.8-0.1c-0.2,0-0.4-0.1-0.6-0.2 c-0.5-0.2-0.9-0.3-1.4-0.3c-0.3,0-0.5,0-0.8,0c0,0,0,0,0-0.1c0.1,0,0.1,0,0.2,0c0.4,0,0.8,0,1.2,0c0.4,0,0.8-0.2,1.1-0.3 c0.4-0.1,0.9-0.2,1.4-0.2c1.4,0,2.7-0.1,4.1-0.1c0.1,0,0.1,0,0.3,0C39.7,13.5,39.4,13.9,39.1,14.3z M33.6,14.8 c0.1,0,0.2-0.1,0.4-0.1c1.5,0,3.1,0,4.6-0.1c0.1,0,0.1,0,0.2,0c-0.1,0.1-0.1,0.2-0.2,0.3c-0.2,0.3-0.4,0.6-0.6,0.9 c0,0-0.1,0.1-0.2,0.1c-0.6,0-1.2-0.1-1.8-0.1c-0.7,0-1.5,0-2.2-0.1c-0.3,0-0.6-0.1-0.9-0.3c-0.3-0.1-0.6-0.2-1-0.2 c-0.4,0-0.7,0-1.1,0c-0.2,0-0.3,0.1-0.3,0.2c0,0.1,0,0.2,0,0.4c0,0-0.1,0.1-0.1,0.1c-0.6,0-1.3-0.1-1.9-0.1c-1.1,0-2.1-0.1-3.2-0.1 c-0.4,0-0.8-0.1-1.2-0.4c-0.3-0.2-0.6-0.2-0.9-0.2c-0.3,0-0.7,0-1,0c-0.2,0-0.3,0.1-0.3,0.3c0,0.1,0,0.1,0,0.2 c0,0.1-0.1,0.2-0.3,0.2c-0.4,0-0.8,0-1.2,0c-0.7,0-1.5-0.1-2.2-0.1c-0.2,0-0.4-0.1-0.6-0.2c-0.6-0.3-1.3-0.3-1.9-0.3 c-0.1,0-0.2,0-0.2,0c0,0,0,0,0-0.1c0.1,0,0.1,0,0.2,0c0.5,0,0.9,0,1.4-0.1c0.3-0.1,0.5-0.2,0.8-0.3c0.2-0.1,0.5-0.1,0.7-0.1 c1.2,0,2.4,0,3.6-0.1c0,0,0,0,0.1,0c0,0.1,0,0.2-0.1,0.3c0,0.1,0,0.2,0.2,0.2c0.5,0,1,0,1.6,0c0.4,0,0.7-0.2,1.1-0.3 c0.2,0,0.3-0.1,0.5-0.1c1.7,0,3.5,0,5.2-0.1c0.1,0,0.1,0,0.2,0c0,0.1,0,0.2-0.1,0.3c0,0.2,0,0.2,0.2,0.2c0.5,0,1,0,1.5,0 C32.8,15.1,33.2,14.9,33.6,14.8z M30.7,14.4c-0.9,0-1.8-0.1-2.7-0.1c-0.6,0-1.2,0-1.8-0.1c-0.3,0-0.5-0.1-0.8-0.2 c-0.2-0.1-0.5-0.2-0.7-0.3c-0.1,0-0.2-0.1-0.3-0.1c-0.4,0-0.8,0-1.3,0c0,0-0.1,0-0.1-0.1c0.1,0,0.2,0,0.3,0c0.3,0,0.6,0,0.9,0 c0.4,0,0.8-0.1,1.2-0.2c0.4-0.2,0.9-0.2,1.4-0.2c1.2,0,2.4-0.1,3.6-0.1c0.2,0,0.4,0,0.7,0c-0.1,0.4-0.1,0.8-0.2,1.3 C30.8,14.3,30.8,14.4,30.7,14.4z M22.1,14.1c0,0-0.1,0.1-0.1,0.1c-0.8,0-1.7-0.1-2.5-0.1c-0.3,0-0.5,0-0.8,0c-0.6,0-1-0.2-1.5-0.4 c-0.1,0-0.3-0.1-0.4-0.1c-0.5,0-0.9,0-1.4,0c0,0,0,0-0.1-0.1c0,0,0.1,0,0.1,0c0.2,0,0.3,0,0.5,0c0.7,0.1,1.4-0.1,2.1-0.4 c0.4-0.1,0.8-0.2,1.2-0.2c0.9,0,1.9-0.1,2.8-0.1c0.1,0,0.2,0,0.4-0.1c0,0.1,0,0.3-0.1,0.4C22.3,13.5,22.2,13.8,22.1,14.1z M16.6,16.6c0.3-0.1,0.7-0.2,1-0.3c0.1,0,0.3-0.1,0.4-0.1c0.8,0,1.5,0,2.3-0.1c0.5,0,0.9,0,1.4,0c0,0,0.1,0,0.1,0 c0,0.1,0,0.2-0.1,0.3c-0.1,0.3,0,0.3,0.2,0.3c0.7,0.1,1.3-0.2,1.9-0.4c0.2-0.1,0.3-0.1,0.5-0.1c1.9,0,3.8,0,5.7,0c0.1,0,0.3,0,0.5,0 c0,0.1,0,0.2-0.1,0.3c-0.1,0.2,0,0.3,0.2,0.3c0.5,0,1-0.1,1.5-0.3c0.3-0.2,0.7-0.2,1.1-0.2c1.5,0,2.9,0,4.4-0.1c0.1,0,0.1,0,0.2,0 c-0.2,0.3-0.4,0.5-0.5,0.8c-0.2,0.4-0.4,0.5-0.9,0.5c-0.9-0.1-1.9,0-2.8-0.1c-0.7,0-1.4-0.2-2-0.4c-0.3-0.1-0.7-0.1-1-0.1 c0,0-0.1,0.1-0.1,0.2c-0.1,0.4-0.1,0.4-0.5,0.4c-0.4,0-0.8,0-1.1,0c-0.9,0-1.7,0-2.6-0.1c-0.7,0-1.4,0-2.1-0.1 c-0.4-0.1-0.8-0.2-1.2-0.4c-0.3-0.1-0.7-0.1-1-0.1c-0.1,0-0.2,0.1-0.2,0.2c-0.1,0.4-0.1,0.4-0.5,0.4c-1,0-1.9-0.1-2.9-0.2 c-0.6,0-1.1-0.2-1.6-0.4c-0.1,0-0.2,0-0.3-0.1c-0.5,0-1,0-1.5-0.1c0,0,0,0,0-0.1c0.1,0,0.1,0,0.2,0C15.5,16.7,16.1,16.8,16.6,16.6z M14.3,15.5c-0.1,0.4-0.2,0.7-0.3,1.1c-0.1,0.1-0.2,0.3-0.3,0.4c-0.8,0.7-1.7,1.4-2.5,2.1c-0.6,0.5-1.3,1.1-1.9,1.6 c-0.9,0.8-1.8,1.5-2.7,2.3c-0.4,0.4-0.9,0.7-1.3,1.1c-0.1,0-0.1,0.1-0.2,0.2c2.6,0,5.1,0,7.6,0c-0.1,0.3-0.2,0.6-0.2,1 c-0.1,0.6-0.3,1.1-0.5,1.7c0,0.2-0.1,0.2-0.3,0.2c-0.2,0-0.3,0-0.5,0c-3.5,0-7.1,0-10.6,0c-0.2,0-0.5,0-0.7,0 c0.2-0.8,0.5-1.6,0.6-2.4c0.1-0.4,0.3-0.6,0.6-0.9c0.7-0.6,1.3-1.1,2-1.7C4.6,21,6,19.8,7.4,18.6c0.9-0.8,1.8-1.5,2.7-2.3 c0.1-0.1,0.2-0.1,0.3-0.2c0,0,0.1-0.1,0.1-0.2c0,0-0.1-0.1-0.1-0.1c-2.2,0-4.3,0-6.5,0c0,0-0.1,0-0.2,0c0.1-0.5,0.2-0.9,0.4-1.4 c0.1-0.4,0.2-0.8,0.4-1.3c0-0.1,0.1-0.1,0.2-0.1c1.3,0,2.6,0,3.9,0c2.1,0,4.3,0,6.4,0c0,0,0.1,0,0.1,0c-0.1,0.3-0.1,0.6-0.2,0.9 C14.6,14.5,14.5,15,14.3,15.5z M13.5,26.2c0.5,0,0.9,0,1.4,0c0.3,0,0.6-0.1,0.9-0.2c0.4-0.1,0.8-0.2,1.3-0.2c1.5,0,2.9-0.1,4.4-0.1 c0.2,0,0.4,0,0.7,0c0,0,0,0.1-0.1,0.2c-0.2,0.4-0.4,0.7-0.7,1.1c0,0.1-0.2,0.1-0.2,0.1c-0.8,0-1.6,0-2.4,0c-0.7,0-1.4-0.1-2.1-0.1 c-0.5,0-1-0.3-1.5-0.4c-0.2-0.1-0.5-0.1-0.8-0.1c-0.4,0-0.8,0-1.1,0c0,0,0-0.1,0-0.1C13.4,26.2,13.5,26.2,13.5,26.2z M20.9,25.4 c-0.8,0-1.5,0-2.3,0c-0.7,0-1.4,0-2.1-0.1c-0.3,0-0.5-0.1-0.8-0.3c-0.4-0.2-0.8-0.2-1.2-0.2c-0.3,0-0.6,0-0.9,0c0,0-0.1,0-0.1-0.1 c0.1,0,0.2,0,0.3,0c0.4,0,0.8,0,1.2,0c0.1,0,0.3,0,0.4-0.1c0.7-0.3,1.5-0.3,2.2-0.3c1.1,0,2.2-0.1,3.2-0.1c0.7,0,1.4,0,2.1,0 c0,0.1-0.1,0.2-0.2,0.3c0,0.1-0.1,0.2-0.1,0.2c0,0.1,0.1,0.1,0.2,0.1c0.4,0,0.7,0,1.1,0c0.4-0.1,0.8-0.2,1.2-0.3 c0.2,0,0.3-0.1,0.5-0.1c1.1,0,2.2,0,3.3,0c1,0,2.1,0,3.1,0c0.1,0,0.1,0,0.2,0c-0.1,0.2-0.2,0.3-0.3,0.5c-0.5,0.7-1,1.4-1.5,2.1 c-0.1,0.2-0.2,0.3-0.5,0.3C28.8,27.1,27.4,27,26,27c-0.6,0-1.1-0.2-1.6-0.4c-0.3-0.1-0.6-0.1-1-0.2c-0.3,0-0.7,0-1,0c0,0,0,0,0-0.1 c0.1,0,0.3,0,0.4,0c0.8,0.1,1.6-0.1,2.3-0.3c0.3-0.1,0.7-0.1,1.1-0.2c1,0,2,0,3.1,0c0.6,0,1.2,0,1.7,0c0.1,0,0.2,0,0.3-0.1 c0,0,0,0,0-0.1c0,0-0.1,0-0.1,0c-1.1-0.1-2.3-0.2-3.5-0.2c-0.7,0-1.4-0.1-2.2-0.1c-0.2,0-0.5-0.1-0.7-0.2c-0.5-0.2-0.9-0.4-1.5-0.3 c0,0-0.1,0-0.1,0c-0.4-0.1-0.8,0-0.9,0.5c-0.1,0.2-0.2,0.1-0.4,0.1C21.6,25.4,21.3,25.4,20.9,25.4z M30.6,23.9c-1.1,0-2.2,0-3.3-0.1 c-0.5,0-1,0-1.5-0.1c-0.4-0.1-0.7-0.3-1.1-0.4c-0.3-0.1-0.6-0.1-0.9-0.1c-0.1,0-0.2,0.1-0.2,0.2c-0.2,0.3-0.4,0.5-0.8,0.4 c-1-0.1-2-0.1-3.1-0.1c-0.9,0-1.8,0-2.6-0.1c-0.4,0-0.7-0.1-1.1-0.3c-0.6-0.3-1.3-0.2-1.9-0.2c-0.1,0-0.1,0-0.2,0c0.2,0,0.3,0,0.5,0 c0.4,0,0.8,0,1.1,0c0.3,0,0.6-0.1,0.9-0.2c0.6-0.2,1.2-0.2,1.8-0.2c1.2,0,2.4,0,3.6,0c0.7,0,1.4,0,2.1,0c0.1,0,0.2,0,0.3,0 c-0.1,0.1-0.2,0.3-0.2,0.4c0,0-0.1,0.1-0.1,0.2c0,0,0.1,0.1,0.2,0.1c0.4,0,0.7,0,1.1-0.1c0.7-0.3,1.3-0.3,2-0.3c1.8,0,3.5,0,5.3,0 c0.4,0,0.8,0,1.2,0c0,0-0.1,0.1-0.1,0.2c-0.2,0.3-0.5,0.7-0.7,1c-0.1,0.1-0.1,0.1-0.3,0.1C31.8,23.9,31.2,23.9,30.6,23.9z M32.7,22.3c-0.7,0-1.4,0-2.1,0c-1.3,0-2.5-0.1-3.8-0.1c-0.6,0-1.1-0.2-1.6-0.4c-0.1-0.1-0.3-0.1-0.5-0.1c-0.1,0-0.2,0-0.3,0.1 c0,0,0,0,0,0.1c-0.1,0.3-0.3,0.4-0.6,0.4c-1.1,0-2.2-0.1-3.2-0.1c-1.2,0-2.3-0.1-3.5-0.1c-0.2,0-0.5-0.1-0.7-0.2 c-0.4-0.2-0.8-0.3-1.2-0.3c-0.3,0-0.7,0-1,0c0,0,0.1,0,0.1,0c0.1,0,0.3,0,0.4,0c0.8,0,1.5,0,2.2-0.3C17,21,17.4,21,17.7,21 c0.9,0,1.9,0,2.8,0c1.3,0,2.7,0,4,0c0.1,0,0.3,0,0.5,0c-0.1,0.1-0.1,0.2-0.2,0.4c0,0.1,0,0.2-0.1,0.2c0.1,0,0.2,0,0.2,0 c0.4-0.1,0.9-0.3,1.3-0.4c0.2,0,0.4,0,0.6,0c0.6,0,1.2,0,1.8,0c1.1,0,2.2,0,3.2,0c0.8,0,1.6,0,2.4,0c0.1,0,0.2,0,0.3,0 c0,0.1-0.1,0.2-0.1,0.2c-0.2,0.3-0.5,0.7-0.7,1c0,0.1-0.2,0.1-0.2,0.1C33.3,22.3,33,22.3,32.7,22.3z M34.1,20.7 c-0.9-0.1-1.8-0.1-2.7-0.1c-0.5,0-1-0.1-1.5-0.2c-0.2-0.1-0.3,0-0.3,0.2c0,0.2-0.1,0.3-0.3,0.2c-0.8-0.1-1.6-0.1-2.4-0.2 c-0.4-0.1-0.8-0.2-1.3-0.3c-0.2-0.1-0.3-0.1-0.4,0.1c0,0.1-0.1,0.1-0.1,0.2c-0.1,0.1-0.2,0.2-0.4,0.2c-0.4-0.1-0.7-0.1-1.1-0.1 c-0.6,0-1.1-0.1-1.7-0.1c-0.3,0-0.5-0.1-0.7-0.2c-0.2-0.1-0.3,0-0.3,0.2c0,0.2-0.1,0.3-0.3,0.3c-0.7-0.1-1.5-0.1-2.2-0.1 c-0.9-0.1-1.7-0.2-2.5-0.5C15.7,20,15.4,20,15.2,20c-0.3,0-0.5,0-0.8,0c0,0,0.1,0,0.1,0c0.3,0,0.6,0,0.9,0c0.5,0,0.9-0.2,1.4-0.3 c0.4-0.1,0.8-0.2,1.3-0.2c0.9-0.1,1.9-0.1,2.8-0.1c0.1,0,0.1-0.1,0.2-0.1c-0.1,0-0.1-0.1-0.2-0.1c-0.7,0-1.3,0-2-0.1 c-0.5,0-1.1-0.1-1.6-0.2c-0.2,0-0.3-0.1-0.5-0.2c-0.4-0.2-0.8-0.2-1.2-0.2c-0.3,0-0.6,0-0.9,0c0,0,0,0,0-0.1c0.1,0,0.1,0,0.2,0 c0.5,0,1,0,1.5-0.1c0.3,0,0.6-0.2,0.9-0.3c0.5-0.2,1-0.2,1.5-0.2c0.9,0,1.9,0,2.8,0c0,0,0,0,0.1,0c0,0.1,0,0.2,0,0.3 c0,0.2,0.1,0.3,0.2,0.2c0.3-0.1,0.7-0.2,1-0.3c0.1,0,0.2-0.1,0.4-0.1c0.7,0,1.3,0,2-0.1c0.9,0,1.7,0,2.6,0c0.8,0,1.6,0,2.4,0 c0,0,0.1,0,0.1,0c0,0.1-0.1,0.2-0.1,0.3c0,0.2,0.1,0.2,0.2,0.2c0.4-0.1,0.8-0.3,1.2-0.4c0.2,0,0.3-0.1,0.5-0.1c1,0,2-0.1,3-0.1 c0.5,0,1.1,0,1.6,0c0,0.1-0.1,0.1-0.1,0.2c-0.2,0.3-0.4,0.5-0.5,0.8c-0.1,0.2-0.2,0.3-0.5,0.2c-0.5-0.1-0.9,0-1.4,0 c-0.8,0-1.6,0-2.4-0.1c-0.4-0.1-0.9-0.3-1.3-0.4c-0.3-0.1-0.4-0.1-0.4,0.2c0,0.1,0,0.1,0,0.2c0,0.1-0.1,0.1-0.1,0.1 c-0.9,0-1.8,0-2.7,0c-1.2,0-2.4-0.1-3.7-0.1c-0.5,0-1-0.1-1.4-0.4c-0.1-0.1-0.3-0.1-0.5-0.2c-0.1,0-0.2,0-0.2,0.2 c-0.1,0.3-0.1,0.6-0.2,1c0,0.2,0,0.2,0.2,0.1c0.3-0.1,0.7-0.3,1-0.3c0.6-0.1,1.2-0.1,1.7-0.1c0.6,0,1.2,0,1.8,0 c-0.1,0.1-0.1,0.2-0.2,0.3c0,0,0,0.1,0,0.1c0,0,0.1,0,0.1,0c0.7-0.3,1.4-0.2,2.2-0.3c0.5,0,1,0,1.6,0c0.1,0,0.1,0,0.2,0 c0,0.4,0,0.4,0.4,0.2c0.3-0.1,0.6-0.2,0.8-0.2c1.4,0,2.8,0,4.2-0.1c0.1,0,0.2,0,0.4,0c-0.2,0.3-0.4,0.5-0.5,0.8 C34.9,20.7,34.6,20.8,34.1,20.7z"/>
</svg>