<!-- (c) Carrd Inc. All rights reserved. All logos and trademarks are property of their respective owners. -->
<svg xmlns="http://www.w3.org/2000/svg" id="icon">
<path d="M38.8,18.8c-0.1,0.2-0.2,0.5-0.2,0.7c-0.1,0.3-0.1,0.6-0.1,0.9c0,0.1-0.1,0.2-0.1,0.3c0,0.1-0.1,0.1-0.2,0 c-0.1-0.1-0.1-0.1-0.2-0.2c-0.2-0.3-0.3-0.6-0.3-0.9c0-0.1,0-0.1,0-0.2c0.2-0.2,0.2-0.5,0.3-0.7c0.1-0.3,0.3-0.4,0.5-0.5 c0.1,0,0.2,0.1,0.2,0.1c0,0,0.1,0,0.1,0.1c0,0.1,0,0.1,0,0.2C38.8,18.7,38.8,18.8,38.8,18.8z M34.3,25.6c0.2,0.1,0.4,0.2,0.6,0.2 c0.2,0,0.4,0,0.6,0c0.3,0,0.6-0.1,0.8-0.2c0.4-0.2,0.7-0.5,0.9-0.9c0.1-0.3,0.2-0.6,0.4-0.9c0.1-0.2,0.1-0.4,0.2-0.7 c0-0.2,0.1-0.3,0.1-0.5c0.1,0,0.2,0,0.2,0.1c0,0.1,0,0.1,0,0.2c0,0.2,0.1,0.5,0.1,0.7c0,0.2,0.1,0.4,0.1,0.6 c0.1,0.3,0.1,0.5,0.3,0.7c0.1,0.1,0.1,0.2,0.1,0.3c0,0.2,0,0.3,0,0.5c0,0.1-0.1,0.1-0.1,0.2c-0.4,0.2-0.8,0.4-1.2,0.7 c-0.3,0.2-0.5,0.4-0.7,0.6c-0.3,0.3-0.6,0.6-1,0.8c-0.3,0.2-0.5,0.4-0.7,0.6c-0.1,0.2-0.3,0.3-0.3,0.6c0,0.1,0,0.2-0.1,0.3 c-0.1,0.4-0.4,0.6-0.7,0.8c-0.3,0.2-0.6,0.3-1,0.2c-0.2,0-0.3,0-0.4,0.1c-0.2,0.1-0.3,0.3-0.4,0.4c-0.1,0.1-0.2,0.3-0.3,0.4 c-0.1,0.3-0.1,0.6-0.2,0.8c0,0.2-0.1,0.4,0,0.7c0.1,0.2,0.1,0.4,0.1,0.5c0,0.2,0.1,0.4,0.1,0.6c0,0.2,0,0.3-0.2,0.3 c-0.2,0.1-0.5,0.1-0.7,0.2c-0.3,0.1-0.7,0.2-1,0.3c-0.5,0.2-1,0.4-1.4,0.8c-0.3,0.2-0.5,0.5-0.8,0.8c-0.2,0.4-0.4,0.7-0.5,1.1 C27,38,27,38.4,26.9,38.8c0,0.1-0.1,0.1-0.1,0.2c0,0,0,0,0,0c0,0,0,0,0,0c-0.1,0-0.3-0.1-0.4-0.1c-0.3-0.1-0.5-0.2-0.8-0.3 c-0.1-0.1-0.3-0.1-0.4,0c0,0-0.1,0-0.1,0c-0.1-0.1-0.2-0.2-0.2-0.3c-0.2-0.5-0.6-0.8-1-1.1c-0.4-0.3-0.9-0.5-1.4-0.6 c0,0-0.1,0-0.1,0c-0.2,0-0.4,0.1-0.7,0.1c-0.5,0.2-1,0.5-1.2,1c-0.1,0.2-0.2,0.4-0.3,0.6c-0.1,0.3-0.3,0.4-0.6,0.5 c-0.5,0.1-1-0.1-1.5-0.4c-0.3-0.2-0.7-0.4-1-0.6c-0.1-0.1-0.3-0.1-0.5-0.1c-0.3,0-0.5,0.1-0.7,0.2c-0.5,0.3-0.9,0.5-1.4,0.7 c-0.2,0.1-0.4,0.1-0.7,0.2c-0.2,0-0.3-0.1-0.4-0.2c0-0.3-0.1-0.6-0.1-0.8c0-0.3-0.1-0.5-0.2-0.7c-0.3-0.4-0.6-0.6-1-0.9 c-0.3-0.2-0.7-0.4-1-0.5c-0.4-0.2-0.7-0.3-1.1-0.4c-0.3-0.1-0.6-0.1-0.9-0.2c-0.3-0.1-0.6-0.1-1-0.1c-0.2,0-0.3,0-0.5,0 c-0.3,0-0.6-0.1-0.9-0.1c-0.2,0-0.4,0-0.5-0.2c-0.1-0.1-0.2-0.2-0.1-0.4c0-0.1,0.1-0.2,0.3-0.2c0.4-0.1,0.8-0.3,0.9-0.7 c0.1-0.3,0.2-0.6,0.1-0.9c0-0.4-0.1-0.7-0.2-1.1c-0.2-0.5-0.4-0.9-0.8-1.3c-0.4-0.3-0.8-0.5-1.3-0.5c-0.1,0-0.2,0-0.2-0.1 c-0.2-0.2-0.4-0.4-0.5-0.6c-0.4-0.4-0.7-0.9-1-1.4c-0.2-0.4-0.4-0.7-0.5-1.2c0,0,0-0.1,0-0.1c0,0,0,0,0,0c0-0.1,0.1-0.1,0.2-0.1 c0.2,0,0.5,0,0.7,0c0.4,0,0.9-0.1,1.2-0.3c0.3-0.1,0.5-0.3,0.7-0.6C5.9,24.5,6,23.9,6,23.3c0-0.4,0-0.9-0.1-1.3 c-0.1-0.4-0.2-0.8-0.4-1.1c0-0.1,0-0.1,0-0.2c0.1-0.1,0.1-0.2,0.1-0.3c0-0.2,0.1-0.4,0-0.5c-0.1-0.1-0.2-0.3-0.4-0.4 c-0.2-0.1-0.5-0.3-0.7-0.4c-0.2-0.1-0.3-0.2-0.3-0.4c0-0.2,0-0.5,0.2-0.6C4.6,18,4.8,17.9,5,17.7c0.3-0.2,0.6-0.5,0.8-0.8 c0.3-0.4,0.2-0.9-0.2-1.1c-0.2-0.1-0.4-0.2-0.7-0.2c-0.2,0-0.5-0.1-0.7,0c-0.1,0-0.2,0-0.2-0.1c0-0.1-0.1-0.3-0.1-0.4 c0-0.3,0.1-0.6,0.2-0.8c0-0.1,0-0.1,0-0.2c-0.1-0.1-0.1-0.2-0.2-0.3c-0.1-0.2-0.2-0.4-0.2-0.6c0-0.2,0.1-0.3,0.3-0.2 c0.2,0.1,0.4,0.3,0.7,0.4C5,13.7,5.4,13.9,6,14c0.4,0.1,0.7,0.1,1-0.1c0.5-0.2,0.9-0.6,1.2-1c0.2-0.3,0.3-0.5,0.5-0.8 c0.1-0.1,0.1-0.1,0.2,0c0.1,0.1,0.2,0.1,0.3,0.2c0.2,0.1,0.4,0.2,0.6,0.3c0.3,0,0.5-0.1,0.6-0.3c0.1-0.1,0.1-0.3,0-0.5 c-0.1-0.1-0.1-0.1-0.2-0.2c-0.1-0.1-0.2-0.2-0.2-0.3c0-0.1,0-0.2,0-0.3c0-0.2,0.1-0.4,0-0.7C9.8,9.8,9.5,9.4,9.1,9.2 C8.9,9.1,8.9,9,8.8,8.9C8.7,8.7,8.7,8.5,8.6,8.3C8.6,8,8.7,7.9,8.9,7.9c0.2,0,0.5,0,0.7,0.1c0.1,0,0.3,0,0.4-0.1 c0.2-0.2,0.4-0.4,0.5-0.6c0.2-0.4,0.4-0.7,0.6-1.1c0.3-0.6,0.8-1.2,1.3-1.7c0,0,0.1-0.1,0.2-0.1c0.2,0,0.4,0.4,0.4,0.6 c0,0.2,0,0.5,0,0.7c0,0.3,0.3,0.6,0.6,0.6c0.3,0.1,0.6,0.1,0.8,0.1c0.1,0,0.2,0,0.2,0.1C15,6.6,15,6.9,15,7.1c0,0.1-0.1,0.2-0.2,0.3 c-0.3,0.2-0.7,0.3-0.9,0.7c-0.1,0.2-0.1,0.5,0,0.7c0.2,0.2,0.4,0.4,0.7,0.5c0.4,0.1,0.7,0.3,1.1,0.4c0.3,0.1,0.6,0,0.9-0.2 c0.3-0.2,0.5-0.5,0.7-0.8c0.3-0.4,0.5-0.9,0.6-1.3c0.1-0.3,0.2-0.7,0.3-1c0.1-0.3,0.2-0.5,0.4-0.7c0.3-0.3,0.7-0.3,1.1-0.2 c0.4,0.1,0.9,0.2,1.3,0.3c0.2,0.1,0.4,0.1,0.6,0.1c0.4-0.1,0.8-0.2,1.2-0.4c0.3-0.1,0.5-0.3,0.7-0.4c0.4-0.3,0.6-0.7,0.8-1.1 c0.3-0.5,0.6-0.9,1-1.3c0.2-0.2,0.3-0.1,0.5,0c0.1,0.1,0.3,0.2,0.4,0.2C26.4,2.9,26.6,3,26.8,3c0.4,0,0.7-0.1,1.1-0.2 c0.5-0.2,0.9-0.5,1.2-0.9c0.1-0.1,0.3-0.2,0.5-0.1c0.1,0.1,0.3,0.1,0.4,0.2c0.5,0.2,1.1,0.1,1.6-0.1c0.3-0.2,0.6-0.4,0.8-0.7 c0.3-0.3,0.5-0.6,0.8-0.9c0.1-0.1,0.1-0.1,0.2-0.2c0,0,0,0,0,0c0.2,0,0.2,0.1,0.2,0.3c0,0.2,0,0.5,0,0.7c0,0.2,0,0.5-0.1,0.7 c0,0.3-0.1,0.5-0.2,0.7C33.1,2.8,33,3,32.8,3.3c-0.4,0.4-0.8,0.8-1,1.2c-0.2,0.3-0.4,0.7-0.6,1C31,5.8,30.9,6,30.6,6 c-0.3,0-0.5,0-0.8,0c-0.3,0-0.5,0.1-0.7,0.4c0,0-0.1,0.1-0.1,0c-0.2-0.1-0.5-0.2-0.7-0.2c-0.2,0-0.3,0-0.5,0c-0.3,0-0.5,0.2-0.8,0.4 c-0.1,0-0.1,0.1-0.2,0.1c-0.1,0-0.3,0-0.4-0.1c-0.4-0.1-0.7-0.3-1.1-0.4c-0.3,0-0.5,0-0.8,0.1c-0.3,0.1-0.6,0.3-0.9,0.6 c-0.2,0.2-0.3,0.3-0.5,0.5c-0.2,0.3-0.2,0.6-0.2,1c0,0.2,0,0.4,0,0.6c0.1,0.4,0.2,0.7,0.4,1c0.1,0.1,0.2,0.2,0.2,0.2 c0.2,0.1,0.4,0.1,0.7,0.1c0.2,0,0.4,0,0.6,0.1c0.2,0.1,0.4,0.2,0.6,0.3c0.1,0.1,0.2,0.1,0.3,0c0.1,0,0.2-0.1,0.2-0.1 c0.3-0.2,0.5-0.4,0.9-0.4c0-0.2,0-0.3,0-0.5c0-0.2,0-0.4,0.1-0.5c0.1-0.1,0.2-0.2,0.3-0.1c0.1,0.1,0.2,0.1,0.3,0.2 c0.2,0.2,0.2,0.3,0.2,0.5c0,0.2,0,0.4-0.1,0.6c0,0,0,0.1,0,0.1c0,0.1,0.1,0.1,0.1,0.2c0.1,0.2,0.2,0.4,0.3,0.6 c0.1,0.2,0.3,0.4,0.5,0.5c0.1,0.1,0.2,0.1,0.3,0.1c0.2,0,0.5-0.2,0.7-0.3c0.2-0.2,0.3-0.4,0.3-0.7c0-0.1,0.1-0.2,0.1-0.3 c0.3,0.1,0.5,0.1,0.8,0.2c0.3,0.1,0.6,0,0.9,0c0.3,0,0.6-0.1,0.7,0.2c0,0,0,0,0,0c0.2,0.3,0.6,0.4,0.9,0.3c0.2-0.1,0.5-0.1,0.7-0.1 c0,0,0.1-0.1,0.1-0.1c0-0.2,0.1-0.4,0.1-0.6c0-0.2,0.1-0.3,0.3-0.4c0.1-0.1,0.1-0.2,0.1-0.3c0-0.1,0-0.3-0.1-0.4 c-0.1-0.3,0-0.5,0.1-0.7c0,0,0.1-0.1,0.1-0.1c0.2,0,0.4,0,0.6,0c0.1,0,0.3,0.1,0.4,0.1c0.1,0,0.1,0,0.1,0c0.1-0.1,0.3-0.3,0.4-0.4 c0.3-0.3,0.6-0.5,0.9-0.8c0,0,0.1,0,0.1,0c0,0,0.1,0.1,0.1,0.1c0,0.2,0,0.3,0,0.5c0,0.2,0,0.4-0.1,0.5c-0.1,0.1-0.1,0.2-0.1,0.3 c0,0.2,0,0.4-0.1,0.6c0,0,0,0.1,0,0.1c-0.1,0-0.2,0-0.2,0c-0.3,0-0.6,0.1-0.9,0.3c-0.3,0.2-0.5,0.4-0.8,0.7c-0.2,0.2-0.1,0.4,0,0.5 c0.2,0.2,0.3,0.2,0.6,0.2c0,0.1,0,0.2,0,0.3c0,0.2-0.1,0.4-0.3,0.5c-0.2,0.1-0.4,0.1-0.6,0.2c-0.5,0.1-0.9,0.3-1.2,0.7 c-0.3,0.4-0.4,0.8-0.5,1.2c0,0.3,0.1,0.7,0.3,0.9c0.2,0.2,0.4,0.5,0.6,0.7c0.2,0.2,0.4,0.4,0.5,0.7c0.1,0.1,0.1,0.2,0.1,0.3 c0,0.2-0.1,0.2-0.3,0.3c-0.2,0.1-0.4,0.1-0.6,0.2c-0.1,0-0.2,0.1-0.2,0.2c0,0.1,0,0.2,0,0.3c0.1,0.2,0.2,0.3,0.4,0.3 c0.1,0,0.2,0,0.3,0c0.1,0,0.2,0.1,0.2,0.2c0,0.1,0,0.2,0,0.4c0,0.2,0,0.4-0.2,0.5c-0.2,0.3-0.3,0.6-0.4,0.9 c-0.1,0.3-0.1,0.5-0.1,0.8c-0.1,0-0.3,0.1-0.4,0.1c-0.3,0.1-0.3,0.5-0.3,0.7c0,0.1,0,0.1,0,0.2c-0.3-0.1-0.4,0-0.4,0.3 c0,0.1,0,0.2,0,0.4c0,0.2,0.1,0.4,0.2,0.6c0,0.1,0.1,0.1,0.2,0.1c0.1,0,0.2,0.1,0.2,0.2c0,0.1,0,0.3,0,0.4c0,0.4,0.1,0.8,0.4,1.1 C33.9,25.3,34.1,25.4,34.3,25.6z M30.9,23.2c0-0.4-0.1-0.7-0.1-1.1c0-0.3-0.1-0.5-0.1-0.8c-0.1-0.5-0.2-0.9-0.3-1.4 c-0.1-0.4-0.3-0.8-0.4-1.2c-0.3-0.8-0.7-1.6-1.2-2.3c-0.2-0.3-0.5-0.6-0.8-0.9c-0.3-0.3-0.6-0.6-0.9-0.8c-0.4-0.3-0.7-0.6-1.1-0.8 c-0.8-0.5-1.6-0.9-2.5-1.2c-0.6-0.2-1.3-0.4-1.9-0.5c-0.4-0.1-0.8-0.1-1.2-0.2c-0.4,0-0.7,0-1.2-0.1c-0.3,0-0.7,0.1-1,0.1 c-0.4,0.1-0.8,0.1-1.2,0.2c-0.6,0.2-1.2,0.4-1.7,0.6c-0.6,0.3-1.1,0.6-1.7,0.9c-0.7,0.4-1.3,1-1.9,1.5c-0.3,0.3-0.5,0.6-0.8,0.9 c-0.4,0.5-0.8,1-1.1,1.6c-0.2,0.4-0.4,0.9-0.6,1.3C9.1,19.6,9,20,8.9,20.4c-0.1,0.4-0.2,0.8-0.2,1.3c0,0.4-0.1,0.7-0.1,1.1 c0,0.4,0,0.9,0,1.3c0,0.4,0.1,0.8,0.1,1.2c0.1,0.5,0.2,1,0.4,1.4c0.2,0.6,0.5,1.2,0.8,1.8c0.2,0.4,0.5,0.8,0.8,1.2 c0.3,0.4,0.6,0.8,1,1.1c0.1,0.1,0.3,0.3,0.4,0.4c0.3,0.3,0.6,0.5,0.9,0.8c0.3,0.3,0.7,0.5,1.1,0.7c0.4,0.3,0.9,0.5,1.4,0.7 c0.4,0.2,0.9,0.3,1.4,0.5c0.3,0.1,0.5,0.2,0.8,0.2c0.3,0.1,0.6,0.1,0.9,0.1c0.3,0,0.6,0.1,0.9,0.1c0.3,0,0.5,0,0.8,0 c0.2,0,0.4,0,0.6,0c0.3,0,0.6-0.1,0.9-0.2c0.4-0.1,0.8-0.2,1.2-0.3c0.6-0.2,1.1-0.4,1.7-0.7c0.6-0.3,1.2-0.6,1.8-1 c0.5-0.4,1.1-0.8,1.5-1.3c0.3-0.3,0.6-0.6,0.9-1c0.4-0.5,0.7-1,1-1.6c0.3-0.6,0.6-1.3,0.8-1.9c0.1-0.3,0.2-0.5,0.2-0.8 c0.1-0.3,0.1-0.7,0.1-1C30.9,24.1,30.9,23.7,30.9,23.2z"/>
</svg>