<!-- (c) Carrd Inc. All rights reserved. All logos and trademarks are property of their respective owners. -->
<svg xmlns="http://www.w3.org/2000/svg" id="icon">
<path d="M20.1,27.2v2.5c0,3.9-0.1,5.9-0.1,6.1c-0.2,0.4-0.5,0.7-1,0.8c-0.7,0.1-1.9-0.1-3.6-0.8s-2.8-1.2-3.3-1.8 c-0.2-0.2-0.3-0.4-0.3-0.7c0-0.2,0-0.3,0.1-0.5c0.1-0.1,0.3-0.4,0.7-0.9c0.4-0.5,1.6-1.9,3.6-4.3c0,0,0.4-0.5,1.2-1.4 c0.2-0.3,0.5-0.4,0.8-0.5s0.7-0.1,1,0.1c0.3,0.1,0.6,0.3,0.8,0.6C20,26.6,20.1,26.9,20.1,27.2L20.1,27.2z M17.1,22.1 c0,0.7-0.4,1.2-1,1.4l-2.4,0.8C10,25.5,8,26.1,7.8,26.1c-0.5,0-0.8-0.3-1.1-0.7c-0.2-0.3-0.3-0.8-0.3-1.5c-0.1-1-0.1-2.1,0-3.3 c0.1-1.2,0.3-2,0.6-2.5c0.3-0.5,0.7-0.7,1.1-0.6c0.2,0,1.5,0.5,4.1,1.5c0.9,0.4,1.7,0.7,2.3,0.9l1.7,0.7c0.3,0.1,0.5,0.3,0.7,0.6 C17,21.5,17.1,21.8,17.1,22.1z M33.7,28.1c-0.1,0.7-0.7,1.8-1.8,3.2c-1.1,1.4-2,2.3-2.7,2.5c-0.5,0.2-0.9,0.1-1.3-0.1 c-0.2-0.1-1.4-2.1-3.7-5.8l-0.9-1.5C23,26.2,23,25.8,23,25.5c0-0.3,0.2-0.6,0.4-0.9c0.5-0.6,1-0.7,1.7-0.5c0,0,0.8,0.3,2.4,0.8 c2.7,0.9,4.3,1.4,4.9,1.6c0.5,0.2,0.8,0.3,0.9,0.4C33.6,27.2,33.8,27.6,33.7,28.1L33.7,28.1z M20.2,15.4c0.1,1.4-0.3,2.2-1.1,2.4 c-0.8,0.2-1.5-0.2-2.3-1.4l-7.6-12C9.1,4,9.3,3.6,9.6,3.2c0.5-0.6,1.9-1.2,4.2-1.8s3.7-0.8,4.5-0.6c0.5,0.1,0.9,0.4,1,0.9 c0,0.2,0.2,2.3,0.4,6.1C20,11.6,20.1,14.2,20.2,15.4z M33.5,17.6c0,0.5-0.1,0.9-0.5,1.2c-0.2,0.1-2.4,0.7-6.6,1.7 c-0.9,0.2-1.5,0.4-1.8,0.5l0,0c-0.3,0.1-0.6,0.1-0.9-0.1c-0.3-0.1-0.6-0.3-0.7-0.6c-0.4-0.6-0.4-1.2,0-1.7c0,0,0.5-0.7,1.5-2 c1.7-2.3,2.7-3.7,3-4.1c0.3-0.4,0.6-0.7,0.7-0.8c0.4-0.3,0.8-0.3,1.3,0c0.6,0.3,1.5,1.2,2.5,2.7C32.9,15.6,33.4,16.8,33.5,17.6 L33.5,17.6L33.5,17.6z"/>
</svg>