<!-- (c) Carrd Inc. All rights reserved. All logos and trademarks are property of their respective owners. -->
<svg xmlns="http://www.w3.org/2000/svg" id="icon">
<path d="M32.2,6.3C32,6.1,31.8,6,31.5,6H8.4C8.2,6,7.9,6.1,7.7,6.3C7.5,6.4,7.4,6.7,7.4,7v2.3c0,0.3,0.1,0.6,0.3,0.8 c0.2,0.2,0.5,0.3,0.8,0.3h9.4v28.5c0,0.3,0.1,0.6,0.3,0.8c0.2,0.2,0.5,0.3,0.7,0.3h2.3c0.3,0,0.6-0.1,0.8-0.3 c0.2-0.2,0.3-0.5,0.3-0.7V10.4h9.4c0.3,0,0.6-0.1,0.8-0.4c0.2-0.2,0.3-0.5,0.3-0.8V7C32.6,6.7,32.5,6.4,32.2,6.3z"/>
</svg>