<!-- (c) Carrd Inc. All rights reserved. All logos and trademarks are property of their respective owners. -->
<svg xmlns="http://www.w3.org/2000/svg" id="icon">
<path d="M3.3,7.7c11.2,0,22.3,0,33.5,0c0,2.2-0.1,4.4-0.4,6.7c-8.5,0-17.1,0-25.6,0c0,0.3,0,0.7,0.1,1c0.3,2.5,0.8,4.9,1.9,7.1 c1.4,2.8,3.2,5.1,5.8,6.9c0.4,0.3,0.9,0.5,1.3,0.7c0.1,0,0.2,0,0.3,0c2.4-1.2,4.4-2.9,5.9-5.1c0,0,0-0.1,0.1-0.1c-0.1,0-0.2,0-0.3,0 c-2,0-4.1,0-6.1,0c-0.2,0-0.3-0.1-0.4-0.2c-1.6-1.5-2.6-3.4-3.1-5.6C16.1,18.6,16,18.3,16,18c6.6,0,13.2,0,19.8,0 c-0.1,0.5-0.2,1-0.3,1.4c-1,3.5-2.4,6.9-4.6,9.8c-2.7,3.7-6.3,6.4-10.6,8.1c-0.1,0-0.3,0.1-0.4,0c-3.4-1.4-6.4-3.4-8.9-6.1 c-1.6-1.7-2.8-3.6-3.9-5.6c-1.4-2.6-2.2-5.3-2.8-8.2c-0.4-2.2-0.7-4.4-0.8-6.7c-0.1-1-0.1-2-0.1-3C3.2,7.8,3.3,7.7,3.3,7.7z"/>
</svg>