<!-- (c) Font Awesome (fontawesome.io, SIL OFL) -->
<svg xmlns="http://www.w3.org/2000/svg" id="icon">
<path d="M37.7,14l-11.4-1.7L21.1,2c-0.3-0.6-0.7-0.9-1.1-0.9S19.2,1.4,18.9,2l-5.1,10.4L2.3,14c-0.8,0.1-1.3,0.5-1.3,1 c0,0.3,0.2,0.7,0.6,1.1l8.3,8.1L8,35.6c0,0.2,0,0.4,0,0.5c0,0.3,0.1,0.6,0.2,0.8c0.2,0.2,0.4,0.3,0.7,0.3c0.3,0,0.6-0.1,0.9-0.3 L20,31.5l10.2,5.4c0.3,0.2,0.6,0.3,0.9,0.3c0.3,0,0.5-0.1,0.7-0.3c0.2-0.2,0.2-0.5,0.2-0.8c0-0.2,0-0.3,0-0.5l-2-11.4l8.3-8.1 c0.4-0.4,0.6-0.8,0.6-1.1C38.9,14.5,38.5,14.2,37.7,14z"/>
</svg>