<!-- (c) Carrd Inc. All rights reserved. All logos and trademarks are property of their respective owners. -->
<svg xmlns="http://www.w3.org/2000/svg" id="icon">
<path d="M20,38c-9.4,0-17-7.6-17-17V9.1V6.3V5.4C3,4.6,3.6,4,4.4,4h1H9h10.9v0c0,0,0.1,0,0.1,0c9.4,0,17,7.6,17,17 C37,30.4,29.4,38,20,38z M20.2,9.1C13.7,9,8.4,14.2,8.3,20.8C8.3,27.3,13.5,32.6,20,32.7c6.5,0.1,11.9-5.2,11.9-11.7 C32,14.5,26.8,9.1,20.2,9.1z M20,29.5c-4.7,0-8.5-3.9-8.5-8.6c0-4.7,3.9-8.5,8.6-8.5c4.7,0,8.5,3.9,8.5,8.6 C28.6,25.8,24.7,29.6,20,29.5z M20.2,16.7c-2.4,0-4.3,1.9-4.4,4.3c0,2.4,1.9,4.3,4.3,4.4c2.4,0,4.3-1.9,4.4-4.3 C24.5,18.6,22.5,16.7,20.2,16.7z"/>
</svg>