<!-- (c) Carrd Inc. All rights reserved. All logos and trademarks are property of their respective owners. -->
<svg xmlns="http://www.w3.org/2000/svg" id="icon">
<path d="M26.7,11.2l2-2.9c-2.7-1.8-5.9-2.7-9.2-2.6c-1.6,0-3.2,0.3-4.7,0.9c-0.5,0.2-0.9,0.5-1.4,0.8 c-1.5,1.1-2.3,2.4-2.3,3.9c0,0.9,0.4,1.3,1.1,1.3c0.3,0,0.7-0.1,1-0.2c0.4-0.1,0.8-0.1,1.3-0.2c1.1,0,2.1,0.5,2.9,1.2 c0.9,0.8,1.4,2.1,1.4,3.3c0,1.3-0.5,2.6-1.4,3.5c-1,1-2.4,1.5-3.9,1.5c-1.8,0.1-3.6-0.7-4.7-2.1v0c-1.2-1.4-1.8-3.4-1.9-5.9 c0-0.1,0-0.3,0-0.4v-0.1C6.9,7,12.1,2.5,19.5,2.5c4.6-0.1,9,1.4,12.6,4.3l1.2,0.9l-3.8,5.3L26.7,11.2z M12.8,27.8l-2.5,2.9 c3.1,2.3,6.9,3.5,10.8,3.5c4.6,0,7.8-1.7,9.1-4.8c0.1-0.3,0.1-0.6,0.1-0.9c0-0.9-0.4-1.3-1.1-1.3c-0.3,0-0.7,0.1-1,0.2 c-0.4,0.1-0.8,0.1-1.3,0.2c-1.1,0-2.2-0.5-2.9-1.2c-0.9-0.8-1.4-2-1.4-3.3c0-1.3,0.5-2.6,1.4-3.5c1-1,2.4-1.5,3.9-1.5l0,0 c1.8-0.1,3.6,0.7,4.7,2.1c1.2,1.4,1.8,3.4,1.8,5.9c0,3.5-1.1,6.2-3.3,8.2c-2.3,2-5.2,3.1-8.3,3.2c-0.6,0.1-1.1,0.1-1.7,0.1 c-5.3,0-10.4-1.9-14.3-5.3l-1.2-1l4.5-5.3L12.8,27.8z"/>
</svg>