<!-- (c) Carrd Inc. All rights reserved. All logos and trademarks are property of their respective owners. -->
<svg xmlns="http://www.w3.org/2000/svg" id="icon">
<path d="M27,22.9c-1.6,0.8-2.9,2.1-3.7,3.7l-3.7-0.8c1.3-2.9,3.7-5.2,6.6-6.6L27,22.9z M10.5,2.1l3.5,3.5 c-3.6,1.5-6.4,4.3-8.1,7.8L2.5,10C4.5,6.8,7.2,4.1,10.5,2.1z M36,20.1c0,8.7-7.1,15.8-15.8,15.8c-8.7,0-15.8-7.1-15.8-15.8 c0-2.4,0.5-4.7,1.5-6.7l13,13l4.8,1.1l5.4,1.2l-1.2-5.4l-1.1-4.8c0,0,0,0,0,0L13.9,5.6c1.9-0.8,4-1.3,6.2-1.3 C28.9,4.3,36,11.4,36,20.1z" />
</svg>