<!-- (c) Carrd Inc. All rights reserved. All logos and trademarks are property of their respective owners. -->
<svg xmlns="http://www.w3.org/2000/svg" id="icon">
<path d="M36.9,33.7c0.3,0.6-0.1,1.3-0.8,1.3l-8.9,0l-8.8,0l-7.1,0c-0.7,0-1.1-0.7-0.8-1.3l3.4-5.8 c0.2-0.3,0.5-0.4,0.8-0.4l8,0c0.6,0,1-0.6,0.9-1.1c0-0.1,0-0.1-0.1-0.2l-0.7-1.2l-3.7-6.3c-0.3-0.5-1.1-0.6-1.5-0.1 c0,0,0,0.1-0.1,0.1l-0.5,0.9l-3.6,6.1c-0.2,0.3-0.5,0.4-0.8,0.4l-6.8,0c-0.7,0-1.1-0.7-0.8-1.3l3.6-6.2l8.9-15.1 c0.3-0.6,1.2-0.6,1.5,0l4.7,8l4.1,7.1L36.9,33.7z"/>
</svg>