<!-- (c) Carrd Inc. All rights reserved. All logos and trademarks are property of their respective owners. -->
<svg xmlns="http://www.w3.org/2000/svg" id="icon">
<path d="M37.5,20.7c-0.4,9.1-7.7,16.4-16.8,16.7c-2.8,0.1-5.9-0.7-7.2-1.2c-1.5-0.7-2.1-1.8-2.4-2.8 c-0.2-0.8-0.1-1.8,0.1-2.5c0.4-1.3,0.8-2.7,1.3-4.3c0.6-2,1.3-4.1,2-6.5c0.3-0.9,1.5-1.2,2.1-0.4l1.6,2.2c0.6,0.8,1.2,1.6,1.8,2.4 c0.3,0.4,0.6,0.8,0.9,1.2c0,0,1.4,1.8,2.3,2.4c0.5,0.2,0.9,0.4,1.4,0.5c1,0.2,2,0,2.9-0.4c0.9-0.4,1.6-1.1,2.1-2 c0.2-0.3,0.5-1.5,0.6-1.7c1.1-3.6,2.1-6.9,3-9.8l0.2-0.7c0.4-1.5,2.5-1.6,3.1-0.1C37.2,16,37.6,18.3,37.5,20.7z M26.6,21.6 c-0.4,1-1.8,1.1-2.3,0.2v0l-1.6-2.5c-1.1-1.7-2.1-3.4-3.2-5c0,0-0.5-0.8-0.6-0.8c-0.3-0.4-0.8-0.8-1.2-1.1c-0.9-0.6-2.1-0.9-3.2-0.8 c-1.1,0-2.2,0.5-3,1.2c-0.2,0.2-0.4,0.4-0.6,0.6C10.4,13.7,9.9,15,9.9,15c-1.4,3.5-3.8,9.7-3.8,9.7c-0.6,1.5-2.5,1.5-3,0 c-0.4-1.6-0.7-3.6-0.6-5.3c0.2-4.5,2.2-8.9,5.4-12c3.1-2.9,7.2-4.7,11.5-4.8c2.7-0.1,5.2,0.4,7.5,1.4c0.8,0.4,1.6,0.9,1.8,1.2 c1.1,0.9,1.7,1.9,2,2.8c0.3,1.1,0.1,2.2-0.2,3.1C30.5,11.4,27.5,19.1,26.6,21.6z"/>
</svg>