<!-- (c) Carrd Inc. All rights reserved. All logos and trademarks are property of their respective owners. -->
<svg xmlns="http://www.w3.org/2000/svg" id="icon">
<path d="M37.5,23.6c-1.3-0.4-2.6-0.7-3.9-1c-0.3-0.1-0.6,0-1,0c-0.2,0-0.3,0.1-0.2,0.3c0.4,1,1.2,1.8,2.2,2.3 c0.6,0.3,1.3,0.5,1.9,0.7c0.3,0.1,0.6,0.2,0.8,0.3c0.1,0,0.1,0.1,0.2,0.2c-0.1,0.1-0.1,0.1-0.2,0.2c-0.4,0.1-0.9,0.2-1.3,0.2 c-1.6,0.1-3.1,0.3-4.5,1.1c-0.4,0.2-0.7,0.4-1.1,0.6c-0.1,0-0.1,0.1-0.2,0.2c-0.3-0.4-0.7-0.9-1.1-1.4c-0.5-0.7-1-1.4-1.5-2 c-0.1-0.2-0.2-0.3-0.1-0.5c0.2-1,0.4-2,0.6-3c0.2-1.2,0.5-2.4,0.7-3.5c0.1-0.5,0.2-1,0.3-1.6c0-0.1,0-0.1,0.1-0.2 c1.4-0.6,2.7-1.4,4.1-2.1c0.2-0.1,0.4-0.1,0.6,0c0.8,0.4,0.8,1.5,0.3,2c-0.4,0.4-0.8,0.9-1.2,1.3c-0.8,0.7-0.5,2.1,0.5,2.5 c0.3,0.1,0.6,0.2,0.9,0.4c0,0,2.1,0.2,2.4,0.2c0.5,0.1,0.9,0.1,1.4,0.1c0.3,0,0.6,0.1,0.9,0.2c0.4,0.1,0.6,0.4,0.9,0.7 c0,0.4,0,0.8,0,1.1C39.5,23.8,38.4,23.9,37.5,23.6z M37.6,9.4c-0.3,0.1-0.5,0.3-0.8,0.4c-0.1,0-0.2,0-0.3,0c-0.3,0-0.4-0.1-0.3-0.4 c0-0.5,0.1-1.1,0.1-1.6c0.4,0,0.7,0.1,1,0.5c0.2,0.2,0.3,0.5,0.5,0.7C37.8,9.1,37.8,9.3,37.6,9.4z M35,10c-0.1,0.4-0.2,0.8-0.4,1.2 c-0.4,1-1.1,1.9-2,2.5c-1,0.6-2,1.2-3,1.6c-0.6,0.2-1.2,0.4-1.9,0.3c-0.5-0.1-0.9-0.3-1.3-0.5c-0.6-0.4-1.1-1-1.5-1.6 c-0.4-0.6-0.4-1.3-0.3-2c0.1-0.4,0.1-0.9,0.3-1.3c0.4-1.2,1-2.1,2.1-2.7c0.6-0.3,1.3-0.4,2-0.6c1.1-0.4,2.1-1,2.9-1.8 c0.8-0.9,1.4-1.9,1.8-3c0-0.1,0-0.2,0.1-0.3c0.1,0,0.2,0,0.3,0c0.2,0.7,0.5,1.5,0.7,2.2c0.3,1.1,0.5,2.1,0.5,3.2 c0,0.6-0.1,1.1-0.2,1.7C35.1,9.2,35.1,9.6,35,10z M29.1,5.8c-0.5,0.2-0.9,0.4-1.4,0.5c-0.9,0.3-1.7,0.8-2.3,1.4 C25,8.1,24.8,8.6,24.5,9c-0.2,0.2-0.3,0.5-0.5,0.8c-0.3-0.1-0.5-0.2-0.8-0.3c-1.2-0.6-2.4-1.1-3.6-1.7c-0.4-0.2-0.8-0.2-1.2,0 c-0.9,0.5-1.8,0.9-2.8,1.4c-0.1,0-0.1,0.1-0.2,0.1c-1.7-2.1-3.4-4.2-5.1-6.3c0.4-0.2,0.7-0.1,1.1-0.1c0.8,0.2,1.2,0.8,1.4,1.5 c0.2,0.6,0.7,1.3,0.9,1.4c0.2,0.1,0.7,0.1,0.9,0.1c0.2-0.1,0-0.1,0.4-0.4c0.3-0.2,0.5-0.5,0.6-0.9c0.1-0.4,0.1-0.4,0.5-0.3 c0.4,0,0.6,0.3,0.9,0.5c0.6,0.5,1.2,0.9,1.8,1.3C18.9,6,19,6,19,5.9c0,0,0.1-0.2,0-0.2C19,5.3,18.9,5,19,4.6 c0.1-0.4,0.3-0.6,0.6-0.8C20,3.6,20.5,3.5,21,3.6c0.9,0.2,1.1,0.7,1,1.6c0,0.2-0.1,0.4-0.2,0.6c0,0.1,0,0.3,0.1,0.4 c0.3,0.4,0.8,0.5,1.3,0.6c0.3,0.1,0.6,0.1,0.9,0.2c0.2,0.1,0.3,0.1,0.4-0.1c0-0.1,0.1-0.1,0.1-0.1c0.2-0.3,0.3-0.4,0.6-0.1 c0.2,0.2,0.3,0.1,0.4-0.1c0.1-0.4,0.1-0.7,0.1-1.1c0-0.6-0.1-1.2,0-1.8c0.2-0.7,1-1.4,1.6-1.3c0.2,0,0.5,0,0.7,0 c1,0,1.7,0.7,1.8,1.7c0,0.6-0.1,1.1-0.5,1.6C29.3,5.7,29.2,5.8,29.1,5.8z M19.4,15.4c0.1,0.2,0,0.2,0,0.3c-0.7,0.8-1.3,1.6-2,2.3 c-0.5,0.6-1.1,1.2-1.6,1.9c-0.4-0.6-0.9-1.1-1.3-1.6c-1.7-2.1-3.3-4.2-5-6.3c-1.3-1.7-2.6-3.4-3.9-5c-0.2-0.2-0.1-0.5,0-0.7 c0.2-0.4,0.1-0.7-0.1-1C5.3,5,5.2,4.7,5.1,4.4C4.8,3.6,5,3.2,5.5,2.8c0.2-0.2,0.4-0.3,0.6-0.5C6.4,2,6.9,2.1,7.3,2.1 c0.1,0,0.3,0.2,0.4,0.3C8,2.7,8.4,3,8.7,3.3c0.2,0.2,0.4,0.1,0.6,0c0.2-0.1,0.3-0.1,0.5,0.1c2.5,3.1,5,6.2,7.5,9.4 C17.9,13.7,18.6,14.5,19.4,15.4z M8.1,11.7c0.2,0.3,0.3,0.6,0.3,1c0.1,0.7,0.2,1.3,0.3,2c0.2,1.1,0.4,2.2,0.6,3.2 c0.2,1.1,0.4,2.2,0.6,3.3c0.2,1.1,0.4,2.1,0.6,3.2c0.1,0.5,0.3,1,0.4,1.6c0,0.1,0,0.2,0,0.3c-0.8,1.2-1.7,2.3-2.6,3.6 c-0.2-0.5-0.4-0.9-0.6-1.3c-0.1-0.3-0.2-0.5-0.3-0.8c-0.1-0.3-0.3-0.4-0.6-0.4c-0.5,0-1,0.1-1.5,0.3c-0.6,0.3-1.1,0.6-1.7,0.9 c-0.5,0.2-1,0.5-1.6,0.3c-0.8-0.3-1.2-1.1-1.1-1.9c0.1-0.8,0.7-1,1.3-1.2c0.7-0.2,1.5-0.3,2.2-0.4c0.2,0,0.4-0.2,0.6-0.3 c0.2-0.1,0.3-0.3,0.2-0.5c-0.4-0.9-1-1.6-1.9-1.8c-0.5-0.1-1.1-0.1-1.6-0.1c-0.6,0-1.1,0-1.7,0c-0.1,0-0.2-0.1-0.2-0.1 c0-0.1,0-0.1,0-0.2c1.2-0.4,2.3-0.7,3.5-1.1c0.4-0.2,0.9-0.3,1.3-0.6c0.3-0.2,0.4-0.5,0.2-0.8c-0.1-0.3-0.4-0.5-0.7-0.5 c-0.6,0-1.2,0-1.8,0c-0.4,0-0.7,0-1.1,0c-0.6,0-1-0.1-1.3-0.7c-0.1-0.1-0.1-0.2-0.2-0.3c0-0.1,0-0.2,0-0.4c0.1,0,0.2,0,0.3,0 c0.6,0,1.3,0,1.9,0c0.5,0,1-0.2,1.5-0.4c0.2-0.1,0.2-0.3,0.2-0.5c-0.1-0.7-0.5-1.1-1.1-1.4c-0.4-0.3-0.7-0.7-1-1.1 c-0.5-0.7,0-1.7,0.9-1.9c0,0,0.1,0,0.2,0c0.4,0,0.8,0,1.3,0c0.4,0,0.7-0.1,1.1,0c0.3,0,0.4-0.2,0.5-0.4c0.1-0.2,0-0.3-0.1-0.5 c-0.3-0.5-0.7-0.8-1.2-1.1c-1-0.6-2-1.1-2.9-1.7C0.9,8.5,0.4,8,0.2,7.3C0.1,6.5,0.5,5.5,1.6,5.5c0.7,0,1.2,0.3,1.7,0.7 c1.2,0.9,2.1,2,3,3.2C6.9,10.1,7.5,10.9,8.1,11.7z M7.6,32.3c2-2.9,4.1-5.7,6.1-8.5c1.4-2,3-3.9,4.6-5.7c0.5-0.6,1-1.2,1.6-1.8 c1-1.1,2.1-2,3.4-2.7c0.4-0.2,0.5-0.2,0.8,0.1c0.3,0.4,0.7,0.8,1,1.1c0.5,0.5,1,0.8,1.6,1.1c0.2,0.1,0.4,0.2,0.5,0.3 c0.1,0.2,0.1,0.4,0,0.6c-0.3,1.2-0.9,2.3-1.6,3.2c-0.6,0.8-1.3,1.5-2,2.3c-1.4,1.5-2.8,3-4.2,4.5c-0.7,0.7-1.4,1.5-2.2,2.2 c-0.8,0.6-1.5,1.3-2.2,1.9c-0.9,0.8-1.9,1.6-2.7,2.5c-1.4,1.4-3.1,2.5-4.6,3.7c-1.2,0.9-2.5,1.8-3.8,2.7C3.7,40,3.5,40,3.2,40.1 C3.1,40,2.9,40,2.8,39.9c-0.1-0.2-0.1-0.4,0-0.6C4.4,37,6,34.6,7.6,32.3z M15.7,31.6c0.1,0,0.2,0,0.3,0c0.6,0.5,1.7,1.6,2.3,2.2 c0.2,0.2,0.2,0.3,0,0.4c-0.4,0.3-0.7,0.5-1.1,0.8c-0.1,0-0.2,0.1-0.2,0.1c-0.5,0-1.3-0.7-1.6-1c-0.1-0.1-0.1-0.1-0.2-0.2 c-0.2-0.3-0.3-0.3-0.6-0.1c-0.6,0.3-0.7,0.3-0.8-0.4c0-0.1,0-0.1,0.1-0.2C14.5,32.7,15.1,32.2,15.7,31.6z M22.1,31.8 c0.3-0.2,0.5-0.5,0.8-0.7c0.1-0.1,0.2-0.2,0.3-0.3c0.7,0.9,1.5,1.9,2.2,2.8c-0.4,0.4-0.8,0.8-1.2,1.2c-0.2,0.2-0.2,0.4-0.1,0.6 c0.4,0.9,0.7,1.7,1,2.6c0.3,1,0,1.6-0.9,2.1c-0.1,0.1-0.2,0.1-0.4,0.1c0,0,0,0-0.1,0c-0.1,0-0.2,0-0.3,0c-0.9,0.1-1.5-0.5-1.7-1.2 c-0.1-0.5-0.2-1-0.3-1.6c0-0.4-0.1-0.8-0.1-1.2c0-0.9-0.3-1.5-1-2c-0.1-0.1-0.2-0.2-0.4-0.3c-0.1-0.1-0.2-0.2,0-0.3 C20.8,33,21.5,32.4,22.1,31.8z M22.9,29.1c-0.6-0.7-1.2-1.5-1.8-2.2c-0.1-0.1-0.1-0.1-0.2-0.2c1.3-1.4,2.6-2.8,3.8-4.1 c1.4,1.9,2.8,3.9,4.2,5.8c1.8,2.5,3.7,5,5.5,7.5c0.2,0.3,0.3,0.6,0.3,0.9c0.1,0.7,0.1,1.3,0.1,2c0,0.3,0.1,0.6,0.1,1 c0,0.2,0,0.5-0.2,0.6c-0.3,0-0.5,0-0.8,0c-0.7-0.3-1.4-0.6-2.2-0.8c-0.6-0.2-1.1-0.4-1.5-0.8c-0.3-0.3-0.6-0.7-0.9-1.1 c-0.7-0.9-1.4-1.8-2.1-2.7c-1.1-1.4-2.2-2.8-3.3-4.2C23.7,30.1,23.3,29.6,22.9,29.1z M34.9,34.8c-1.3-1.7-2.6-3.5-3.8-5.2 c0,0,0,0,0-0.1c1.2,0.9,2.6,1.3,3.9,2c0.5,0.3,1,0.5,1.3,1.1c0.4,0.9-0.1,2.1-1.1,2.3C35.1,34.9,35,34.9,34.9,34.8z"/>
</svg>