<!-- (c) Carrd Inc. All rights reserved. All logos and trademarks are property of their respective owners. -->
<svg xmlns="http://www.w3.org/2000/svg" id="icon">
<path d="M19.8,39.7c-1,0-2.5-0.4-2.5-0.4l-0.2-0.8c0,0-0.5-0.4-0.8-0.6c-0.3-0.2-0.6-0.8-0.6-0.8l-0.2-0.6c0,0-0.4,0-0.4-0.6 c0-0.2,0.4-0.2,0.4-0.4c0-0.3-0.1-0.4-0.2-0.4c-0.3-0.1-0.3-0.6,0-0.8c0.2-0.1,0.2-0.2,0.2-0.4S15,33.5,15,33.1s0.4-0.3,0.4-0.6 c0-0.5-0.4-0.4-0.4-0.8c0-0.4,0.2-0.3,0.2-0.6c0-0.2-0.1-0.6-0.2-0.8c-0.1-0.3-0.2-0.6-0.2-0.6H25c0,0-0.1,0.3-0.2,0.6 c-0.1,0.1-0.2,0.6-0.2,0.8c0,0.3,0.2,0.2,0.2,0.6c0,0.4-0.4,0.3-0.4,0.8c0,0.3,0.4,0.2,0.4,0.6c0,0.4-0.4,0.4-0.4,0.6 c0,0.2,0,0.3,0.2,0.4c0.3,0.2,0.3,0.7,0,0.8c-0.1,0-0.2,0.1-0.2,0.4c0,0.2,0.4,0.2,0.4,0.4c0,0.6-0.4,0.6-0.4,0.6L24.2,37 c0,0-0.3,0.6-0.6,0.8c-0.3,0.2-0.8,0.6-0.8,0.6l-0.2,0.8c0,0-1.4,0.4-2.5,0.4H19.8z" /> <path d="M24.8,28.5h-9.6L15,28.3c-1.1-0.9-1.4-2.3-1.5-3.5c-0.1-0.7-0.2-1.5-0.4-2c-0.3-0.6-0.7-1.2-1.1-1.9 c-0.4-0.6-0.8-1.2-1.1-1.9c-2-3.7-2.6-9.6,0.8-13.4c3-3.3,7.1-4.7,11.1-3.7c3.7,0.9,6.9,4.2,7.8,8.1c0.6,2.9,0.4,5.5-0.8,8.1 c-0.4,0.9-1,1.8-1.6,2.6c-0.4,0.7-0.8,1.4-1.2,2c-0.3,0.5-0.3,1.2-0.4,2c-0.1,1.2-0.3,2.6-1.5,3.5L24.8,28.5z M15.9,26.7h8.2 c0.4-0.5,0.5-1.4,0.6-2.2c0.1-0.8,0.2-1.8,0.6-2.6l0,0c0.4-0.7,0.8-1.5,1.4-2.2c0.5-0.8,1-1.6,1.5-2.4c1-2.2,1.2-4.5,0.7-7 c-0.7-3.3-3.3-6-6.6-6.8c-3.5-0.8-6.9,0.3-9.5,3.1c-2.8,3.2-2.3,8.1-0.6,11.3c0.3,0.6,0.7,1.1,1.1,1.8c0.4,0.6,0.8,1.4,1.2,2.1 c0.4,0.8,0.5,1.7,0.6,2.5C15.4,25.4,15.4,26.2,15.9,26.7z" />
</svg>