<!-- (c) Carrd Inc. All rights reserved. All logos and trademarks are property of their respective owners. -->
<svg xmlns="http://www.w3.org/2000/svg" id="icon">
<path d="M16.6,18.8c1.1,0,1.8,0.4,2.4,1.1c0.1,0.1,0.2,0.2,0.4,0.1l1.7-1.5c0.1-0.1,0.1-0.3,0-0.4c-1-1.3-2.6-2.1-4.5-2.1 c-2.6,0-4.6,1.3-5.4,3.6c-0.3,0.8-0.4,1.9-0.4,3.3s0.1,2.4,0.4,3.3c0.8,2.4,2.8,3.6,5.4,3.6c1.9,0,3.5-0.8,4.5-2 c0.1-0.1,0.1-0.3,0-0.4l-1.7-1.5c-0.1-0.1-0.3-0.1-0.4,0c-0.6,0.7-1.3,1.1-2.4,1.1c-1.2,0-2.1-0.6-2.4-1.7c-0.2-0.7-0.3-1.5-0.3-2.5 s0.1-1.8,0.3-2.4C14.6,19.3,15.5,18.8,16.6,18.8z M38.6,33h-9.2c-0.2,0-0.3,0.1-0.3,0.3v2.5c0,0.2,0.1,0.3,0.3,0.3h9.2 c0.2,0,0.3-0.1,0.3-0.3v-2.5C38.9,33.1,38.8,33,38.6,33z M26.8,4.1L26.8,4.1c0,0-0.1-0.1-0.2-0.1H5.8c0,0,0,0-0.1,0c0,0,0,0,0,0 c0,0,0,0,0,0c0,0,0,0,0,0c-0.1,0-0.2,0.1-0.2,0.2v31.5c0,0.1,0,0.2,0.1,0.2c0,0,0,0,0,0v0c0,0,0.1,0,0.2,0h20.8c0.1,0,0.2,0,0.2-0.1 c0,0,0.1-0.1,0.1-0.2V4.3C26.8,4.2,26.8,4.1,26.8,4.1C26.8,4.1,26.8,4.1,26.8,4.1L26.8,4.1z M23.8,32.7c0,0.1-0.1,0.2-0.2,0.2 c0,0,0,0,0,0c0,0,0,0,0,0c0,0,0,0,0,0c0,0,0,0-0.1,0L8.8,33c0,0,0,0-0.1,0c0,0,0,0,0,0c0,0,0,0,0,0c0,0,0,0,0,0 c-0.1,0-0.2-0.1-0.2-0.2V7.3c0-0.1,0.1-0.2,0.2-0.2c0,0,0,0,0,0c0,0,0,0,0.1,0c0,0,0,0,0.1,0h14.7c0,0,0,0,0.1,0c0,0,0,0,0,0 c0,0,0,0,0,0c0,0,0,0,0,0c0.1,0,0.2,0.1,0.2,0.2L23.8,32.7L23.8,32.7z"/>
</svg>