<!-- (c) Carrd Inc. All rights reserved. All logos and trademarks are property of their respective owners. -->
<svg xmlns="http://www.w3.org/2000/svg" id="icon">
<path d="M36.2,36.7C36.2,36.7,36.2,36.8,36.2,36.7l-0.7,0.7c0,0,0,0,0,0l0,0l-0.1,0c-1,0.1-2.2,0.1-3.3-0.2h0 c-1.2-0.3-2.5-0.8-3.7-1.4l0,0c-2.5,1.3-5.2,2-8.2,2c-2,0-4-0.3-5.8-1c-0.8,0.8-1.4,1.2-2,1.6h0c-1,0.7-2,1.2-3,1.5c0,0,0,0-0.1,0 c-1.3,0-4.3-2.2-6.1-3.8c0,0,0,0,0,0l-0.7-0.7c0,0,0,0,0,0l0,0l0-0.1c-0.1-1-0.1-2.2,0.2-3.3v0c0.4-1.3,0.9-2.6,1.5-4 C2.7,25.5,2,22.8,2,19.9c0-1.9,0.3-3.7,0.8-5.4c-0.7-0.7-1.1-1.3-1.4-1.8v0c-0.7-1-1.2-2-1.5-3c0,0,0,0,0-0.1c0-1.3,2.2-4.3,3.8-6.1 l0.7-0.7c0,0,0,0,0,0.1l0.1-0.1l0.1,0c1-0.1,2.2-0.1,3.3,0.2h0c1.1,0.3,2.2,0.7,3.3,1.2C14,2.6,16.9,1.8,20,1.8c2.1,0,4,0.3,5.9,1 c0.7-0.6,1.3-1,1.7-1.3h0c1-0.7,2-1.2,3-1.5c0,0,0,0,0.1,0c1.3,0,4.3,2.2,6.1,3.8c0,0,0,0,0,0l0.7,0.7c0,0,0,0,0,0l0,0l0,0.1 c0.1,1,0.1,2.2-0.2,3.3v0c-0.3,1.2-0.8,2.4-1.3,3.6l0,0c1.2,2.4,1.9,5.2,1.9,8.2c0,2-0.3,4-1,5.8c0.7,0.7,1.1,1.3,1.4,1.8v0 c0.7,1,1.2,2,1.5,3c0,0,0,0,0,0.1C40,32,37.9,35,36.2,36.7z M4.1,35.3L4.1,35.3c1.2-0.2,2.5-1,3.8-2.1c-1.1-1-2.1-2.1-2.9-3.4 c-0.3,0.7-0.5,1.4-0.7,2.1v0C4,33.1,4,34.3,4.1,35.3z M9.6,5.2C9.1,5,8.6,4.9,8.1,4.7h0C6.9,4.5,5.7,4.4,4.7,4.5l-0.1,0 C4.9,5.6,5.5,6.8,6.5,8C7.4,6.9,8.4,6,9.6,5.2L9.6,5.2z M35.6,8.1L35.6,8.1c0.3-1.2,0.3-2.3,0.2-3.4l0-0.1c-1.1,0.3-2.3,1-3.5,2 c1.1,1,2,2.1,2.8,3.2C35.2,9.2,35.4,8.7,35.6,8.1z M30.9,7.8c-0.9,0.9-1.8,1.9-2.6,3.1c-0.6,0.8-1,1.5-1.5,2.6l2.4,1.3l-7.9,3 L19,9.3l2.1,1.1c1.3-2.9,2.4-4.8,3.5-6.1c-1.4-0.4-3-0.6-4.5-0.6c-4.9,0-9.4,2.2-12.3,5.7c0.9,1,2,1.9,3.2,2.7 c0.8,0.6,1.6,1,2.6,1.5l1.3-2.4l3,7.9l-8.4,2.3l1.1-2.1c-2.8-1.2-4.7-2.4-6.1-3.4c-0.3,1.3-0.5,2.7-0.5,4.1c0,4.8,2.1,9.1,5.4,12.1 c0.8-0.8,1.6-1.8,2.4-2.8c0.6-0.8,1-1.5,1.5-2.6l-2.4-1.3l7.8-3l2.3,8.4l-2.1-1.1c-1.2,2.7-2.3,4.5-3.3,5.8c1.4,0.4,2.9,0.6,4.5,0.6 c4.8,0,9.1-2.1,12.1-5.4c-0.9-0.9-1.9-1.7-3-2.5c-0.8-0.6-1.6-1-2.6-1.5L25.3,29l-3-7.8l8.4-2.3L29.6,21c2.8,1.2,4.7,2.4,6,3.4 c0.4-1.4,0.6-2.9,0.6-4.5C36.3,15.1,34.2,10.8,30.9,7.8z M30.1,34.8L30.1,34.8c0.6,0.2,1.2,0.4,1.9,0.6h0c1.2,0.3,2.3,0.3,3.3,0.2 l0.1,0c-0.3-1.2-1-2.4-2-3.6C32.4,33.1,31.3,34,30.1,34.8z"/>
</svg>