<!-- (c) Carrd Inc. All rights reserved. All logos and trademarks are property of their respective owners. -->
<svg xmlns="http://www.w3.org/2000/svg" id="icon">
<path d="M38,27.1h-7.3l-1.2-7.3l-4.3,7.3h-0.8c-0.5-0.8-0.7-2.1-0.7-2.8c0-1.3,0.1-2.5,0.1-4.1c0-2.1-0.6-3.2-2.3-3.6v-0.1 c3.5-0.5,5.1-2.8,5.1-6.1c0-4.7-3.1-5.7-7.1-5.7H8.6L4,26.6h5.8l1.7-8h3.9c2.1,0,2.9,1,2.9,2.9c0,1.5-0.2,2.6-0.2,3.8 c0,0.4,0.1,1.4,0.4,1.8l4.2,4.4L19,39.3l7.7-4.6l5.7,4.4l-1.1-7.3L38,27.1L38,27.1z M17,14.5h-4.6l1.1-5.3h4.3 c1.5,0,3.1,0.4,3.1,2.3C20.9,13.9,19.1,14.5,17,14.5 M27,32.7l-4.3,2.6l2-4.2l-2.4-2.5h3.9l2.5-4.2l0.7,4.3h3.9L29.7,31l0.6,4.3 L27,32.7L27,32.7z"/>
</svg>