<!-- (c) Carrd Inc. All rights reserved. All logos and trademarks are property of their respective owners. -->
<svg xmlns="http://www.w3.org/2000/svg" id="icon">
<path d="M4.3,13.9c0-0.1,0.1-0.2,0.1-0.3c0.4-1.5,1.4-2.4,2.9-2.4c1.2,0,2.4,0,3.7,0c0.2,0,0.5,0,0.7,0c0.1-0.9-0.1-1.2-1-1.2 c-1.6,0-3.2,0-4.8,0c-0.2,0-0.5,0-0.7,0c0-0.9,0-1.7,0-2.6c0.1,0,0.2-0.1,0.4-0.1c1.9,0,3.9,0,5.8,0c2.6,0,3.9,1.1,4,3.7 c0.2,2.1,0.1,4.2,0.1,6.2c0,0.2,0,0.5,0,0.8c-0.3,0-0.5,0-0.7,0c-2.1,0-4.3,0-6.4,0c-2.5,0-3.1-0.5-4-2.7 C4.3,14.8,4.3,14.3,4.3,13.9z M11.8,13.7c-1.1,0-2.1,0-3.2,0c-0.5,0-0.7,0.3-0.7,0.8c0,0.5,0.2,0.8,0.7,0.9c1.1,0,2.1,0,3.2,0 C11.8,14.8,11.8,14.3,11.8,13.7z M21.3,35.4c0-4.9,0-9.7,0-14.6c0.2,0,0.5,0,0.7,0c2.5,0,5.1,0,7.6,0c0.4,0,0.8,0,1.2,0.1 c2.7,0.4,4.1,3.3,2.8,5.7c-0.3,0.6-0.9,1-1.3,1.5c2,0.8,2.9,2.8,2.2,5c-0.5,1.4-1.8,2.3-3.6,2.4c-2.1,0.1-4.3,0-6.4,0 C23.4,35.4,22.4,35.4,21.3,35.4z M24.9,32.4c1.6,0,3.2,0,4.7,0c0.9,0,1.3-0.5,1.3-1.4c0-0.9-0.4-1.4-1.3-1.4c-1.4,0-2.7,0-4.1,0 c-0.2,0-0.4,0-0.6,0.1C24.9,30.5,24.9,31.4,24.9,32.4z M24.9,26.5c1.4,0,2.8,0,4.1,0c0.9,0,1.2-0.5,1.2-1.4c0-0.9-0.4-1.3-1.3-1.3 c-1.2,0-2.4,0-3.5,0c-0.2,0-0.4,0-0.5,0C24.9,24.7,24.9,25.6,24.9,26.5z M5.2,35.4c0-4.9,0-9.7,0-14.6c0.2,0,0.3,0,0.5,0 c2.3,0,4.6,0,6.8,0c0.6,0,1.1,0.1,1.7,0.2c2.7,0.6,4.2,2.1,4.7,4.8c0.3,1.7,0.3,3.4-0.1,5.1c-0.6,2.3-2,3.7-4.3,4.2 C11.3,35.7,8.3,35.3,5.2,35.4z M8.8,32.2c1.3,0,2.5,0.1,3.8,0c1.6-0.2,2.3-1,2.5-2.5c0.1-1.2,0.1-2.1-0.1-3.3 c-0.1-1.1-1.1-2.1-2.1-2.3c-1.4-0.2-2.6,0-4.1-0.2C8.8,26.9,8.8,29.4,8.8,32.2z M28.2,18c-1.1,0-2.3,0-3.5,0c0-1.2,0-2.4,0-3.6 c0-0.9,0-1.8,0-2.7c0-1.1-0.5-1.6-1.6-1.6c-0.8,0-1.5,0-2.3,0c0,2.6,0,5.3,0,8c-1.2,0-2.4,0-3.6,0c0-3.5,0-7,0-10.6 c0.1,0,0.2-0.1,0.4-0.1c2.2,0,4.5,0,6.7,0c0.6,0,1.2,0.1,1.7,0.3c1.4,0.4,2.1,1.5,2.2,2.8C28.2,12.9,28.2,15.4,28.2,18z M30.3,7.3 c1.2,0,2.3,0,3.5,0c0,3.5,0,7.1,0,10.7c-1.1,0-2.3,0-3.5,0C30.3,14.4,30.3,10.9,30.3,7.3z M30.3,6.1c0-0.9,0-1.8,0-2.7 c1.2,0,2.3,0,3.5,0c0,0.9,0,1.7,0,2.7C32.7,6.1,31.5,6.1,30.3,6.1z"/>
</svg>