<!-- (c) Carrd Inc. All rights reserved. All logos and trademarks are property of their respective owners. -->
<svg xmlns="http://www.w3.org/2000/svg" id="icon">
<path d="M39.4,24.2c-0.9,0.2-1.8,0.2-2.6,0c-0.2-0.1-0.3-0.2-0.4-0.4c-0.2-0.4-0.4-0.4-0.6-0.1 c-0.2,0.3-0.5,0.5-0.9,0.5c-0.6,0-1.2,0.2-1.8,0.1c-0.2,0-0.4,0-0.6-0.3c-0.3-0.4-0.1-0.9,0.3-0.8c0.1,0,0.2,0,0.4,0 c0.4-0.1,0.5-0.3,0.4-0.6c-0.2-0.5-0.1-0.9,0.1-1.3c0.3-0.7,0-1.9-0.7-2.3c-0.3-0.2-0.4-0.4-0.3-0.7c0.5-0.2,1.1-0.2,1.6,0.1 c0.5,0.4,0.7,0.3,1.1-0.1c0.7-0.5,1.4-0.8,2.2-0.3c0.2,0.1,0.5,0.1,0.7,0.2c-0.1,0.3,0,0.7,0.1,1c0.1,0.2,0,0.5,0,0.7 c0,0.2-0.1,0.4,0,0.5c0.3,0.4,0.2,0.9,0.3,1.4c0.1,0.5,0.5,0.9,0.9,1.2C40.2,23.6,40.1,24,39.4,24.2z M37.4,19.5 c0-0.6-0.4-0.8-0.9-0.5c-0.8,0.3-1.3,1.1-1.9,1.6c-0.2,0.1-0.2,0.4-0.1,0.5c0.2,0.4,0,0.8,0.1,1.2c-0.1,0.2-0.1,0.4,0.2,0.5 c0.4,0.2,0.8,0.4,1.3,0.5c0.4,0.1,0.7,0,1.1-0.2c0.2-0.1,0.5-0.4,0.4-0.7C37.4,21.4,37.4,20.5,37.4,19.5z M37.7,12.2 c0,0.1-0.1,0.3-0.2,0.3c-0.6,0-1,0.5-1.6,0.6c-0.8,0.2-1.8-0.4-2-1.1c-0.2-1-0.3-2.1-0.1-3.1c0.1-0.4,0-0.7-0.1-1 c-0.2-0.5-0.4-0.6-0.9-0.6c-0.3,0-0.7,0-1,0c-0.2,0-0.4,0-0.4-0.3c0-0.2,0.1-0.4,0.3-0.4c0.4-0.1,0.8-0.3,1.2-0.3 c0.7,0,0.9-0.2,0.9-0.9c0-0.2,0-0.5,0-0.7c0-0.2,0.1-0.5,0.4-0.5c0.2-0.1,0.3,0.2,0.4,0.3c0.3,0.3,0.2,0.7,0.4,1 c-0.1,0.2-0.3,0.1-0.4,0.4c0,0,0.1,0.1,0.1,0.1c0.6,0.4,1.3,0.5,1.9,0.4c0.4,0,0.6,0.1,0.8,0.4c0.2,0.3,0.2,0.6-0.2,0.7 c-0.2,0.1-0.4,0.1-0.5,0c-0.4-0.3-0.8,0-1.2,0.1c-0.2,0-0.3,0.1-0.3,0.3c-0.1,0.8-0.5,1.6-0.1,2.5c0,0.1,0.1,0.2,0.1,0.3 c0.2,0.4,0.4,0.4,0.8,0.2c0.3-0.2,0.6-0.4,0.8-0.8c0.1-0.3,0.4-0.3,0.6-0.1c0.2,0.3,0.4,0.5,0.6,0.8c0.2,0.2,0.1,0.4,0,0.6 C37.8,11.6,37.7,11.9,37.7,12.2z M30.2,31.3c-0.7,0-1.3-0.2-2,0c-0.4,0.1-0.9,0.1-1.4,0.1c-0.7,0-0.7,0.1-0.6,0.8 c0.2,1.1,0.9,1.5,1.8,1.8c0.7,0.2,1.1,0,1.5-0.4c0.4-0.4,0.8-0.8,1.5-1c0,0.7-0.2,1.3-0.7,1.6c-0.7,0.4-1.5,0.8-2.3,0.5 c-0.5-0.2-1.1-0.5-1.5-0.8c-0.7-0.5-1.3-1.3-1.1-2.3c0.1-0.6,0.1-1.3,0.1-1.9c0.1-0.8,0.7-1.4,1.5-1.8c1-0.5,2-0.5,3,0 c0.8,0.4,1.5,1.6,1.4,2.5C31.2,31.1,30.7,31.3,30.2,31.3z M29.8,29.2C29.8,29.1,29.8,29.1,29.8,29.2c-0.3-0.7-0.8-0.9-1.6-1 c-0.2-0.1-0.5,0.2-0.8,0.4c-0.8,0.4-1.3,0.9-1.6,1.7c-0.1,0.5,0,0.7,0.5,0.6c0.3,0,0.6-0.1,0.9,0c0.4,0.1,0.8,0,1.2-0.1 c0.2-0.1,0.3-0.1,0.5-0.1c0.5,0,0.9-0.3,1.2-0.6C30.5,29.7,29.9,29.5,29.8,29.2z M30.2,20.6c-1.2-0.1-2.3,0-3.5,0.1 c-0.7,0-0.9,0.3-0.7,1c0.2,1,0.9,1.4,1.8,1.7c0.6,0.2,1,0,1.4-0.3c0.4-0.3,0.8-0.8,1.4-0.9c0.1,0.8-0.2,1.4-0.9,1.7 c-0.4,0.2-0.8,0.4-1.3,0.4c-0.4,0-0.9,0-1.2-0.4c-0.1-0.1-0.3-0.3-0.5-0.3c-0.9-0.1-1.2-0.8-1.6-1.4c-0.3-0.6-0.5-1.2,0-1.8 c0.1-0.1,0.1-0.2,0-0.4c-0.4-1.2,0.7-2.5,2-2.8c0.9-0.2,1.7-0.1,2.4,0.3c0.9,0.5,1.4,1.3,1.4,2.4C31.1,20.3,30.8,20.7,30.2,20.6z M30,19c-0.1-0.3-0.3-0.5-0.4-0.7c-0.4-0.6-1.2-0.9-1.8-0.6c-0.8,0.4-1.7,0.8-2,1.9c0,0.2-0.2,0.4-0.1,0.6c0.2,0.2,0.4,0.2,0.6,0.2 c0.2-0.1,0.5-0.1,0.7,0c0.9-0.1,1.9-0.2,2.8-0.7C30.1,19.4,30.1,19.2,30,19z M28.3,10.5c0.4,0.2,0.3,0.7,0.6,1 c0.2,0.2,0.3,0.4,0.6,0.5c0.4,0.1,0.7,0.3,1.1,0.5c-0.6,0.5-1.1,0.8-1.9,0.7c-0.7,0-1.4-0.1-2.1-0.2c-0.1,0-0.3-0.1-0.4,0 c-0.7,0.4-1.5,0.1-2.3,0.2c-0.4,0-1-0.3-1-0.5c0.1-0.4,0.5-0.6,0.9-0.6c0.4-0.1,0.7-0.2,0.9-0.6c0.1-0.2,0.3-0.3,0.4-0.4 c0.5-0.3,0.6-0.8,0.8-1.3c0.2-0.5-0.3-0.7-0.5-1.1c0,0-0.1,0-0.1-0.1c-0.5-0.6-1-1.2-2-1.1c-0.2,0-0.3-0.2-0.3-0.5 c0-0.2,0.1-0.4,0.4-0.4c0.3,0,0.6-0.1,0.8-0.3c0.1,0,0.2-0.1,0.3-0.1c0.6,0.3,1.3,0,1.8,0.4c0.2,0.2,0.4,0.1,0.7,0 c0.4-0.2,0.8-0.3,1.3-0.2c0.2,0,0.4,0,0.5-0.1c0.4-0.2,0.7,0,1,0.1C30,6.6,30.1,6.8,30.1,7c0,0.2-0.1,0.4-0.4,0.4 c-0.7,0.2-1.2,0.5-1.4,1.2c0,0.1-0.1,0.1-0.1,0.2c-0.1,0.2-0.5,0.4-0.4,0.6C28,9.8,28,10.3,28.3,10.5z M26.2,11.7 c-0.1,0-0.1,0.2,0,0.2c0.3,0.2,0.4,0.6,0.7,0.8c0.3-0.3-0.1-0.5,0-0.8c0.1-0.2,0.3,0.1,0.4-0.1c0-0.2-0.1-0.3-0.1-0.4 c0-0.1-0.1-0.2-0.2-0.2C26.7,11.4,26.5,11.6,26.2,11.7z M26.8,7.2c-0.4,0-0.3,0.4-0.4,0.6C26.4,8,26.6,8.1,26.7,8 C27,8,27.3,8,27.4,7.8C27.4,7.5,27.1,7.2,26.8,7.2z M23.7,17.7c0.3,0.5,0.3,0.7-0.3,0.8c-0.9,0.2-1.4,0.7-1.4,1.6c0,0.1,0,0.2,0,0.2 c-0.4,0.3-0.3,0.7-0.2,1.1c0,0.2,0,0.4-0.2,0.6c-0.1,0.1-0.2,0.3-0.2,0.5c0,0.3-0.1,0.5-0.4,0.6c-0.2,0.1-0.3,0.2-0.3,0.4 c0,0.3-0.3,0.4-0.5,0.6c-0.3,0.2-0.6,0.1-0.8-0.2c-0.2-0.4-0.4-0.8-0.4-1.3c0-0.3,0-0.5-0.2-0.8c-0.5-0.7-0.8-1.6-1-2.4 c-0.2-0.6-0.7-0.8-1.2-1c-0.1,0-0.3,0-0.4-0.1c-0.1-0.1-0.2-0.3-0.1-0.5c0.1-0.2,0.2-0.3,0.4-0.2c0.9,0.3,1.8-0.1,2.6,0.1 c0.2,0.1,0.4,0.1,0.5,0.3c-0.2,0.3-0.5,0.5-0.7,0.8c-0.3,0.4-0.3,0.8,0.1,1.2c0.1,0.1,0.2,0.2,0.3,0.3c0.1,0.1,0.2,0.1,0.3,0.2 c0,0.1-0.2,0.2-0.2,0.3c0.1,0.2,0.7,0.3,0.8,0.1c0.1-0.2,0.3-0.4,0.3-0.6c0-0.1,0.1-0.2,0.2-0.2c0.7-0.4,0.7-1.1,0-1.5 c-0.5-0.3-0.5-0.3-0.4-0.9c0.4-0.1,0.9-0.1,1.4-0.1c0.4,0,0.8,0,1.2-0.1C23.3,17.4,23.5,17.4,23.7,17.7z M21,9.5 c-0.1,0-0.3-0.1-0.4,0c-0.1,0-0.2,0.1-0.2,0.1c-0.9-0.4-1.8,0.1-2.7,0.1c-0.7,0-0.8,0.2-0.7,0.9c0.2,1.1,1.3,1.8,2.4,1.8 c0.4,0,0.6-0.3,0.9-0.5c0.4-0.3,0.7-0.7,1.3-0.9c0.2,0.6-0.1,1.3-0.6,1.5c-0.5,0.2-1,0.5-1.6,0.6c-0.4,0-0.8-0.1-1.1-0.4 c-0.2-0.1-0.3-0.3-0.5-0.3c-1.1-0.4-1.8-1.2-1.8-2.4c0-0.7,0.1-1.4,0.2-2c0.1-0.6,0.5-1.1,1-1.5C17.6,6.2,18.3,6,19,5.9 c0.7,0,1.4,0.2,2,0.7c0.6,0.5,0.9,1.2,1,2C22.1,9.3,21.6,9.7,21,9.5z M20.9,7.9c-0.2-0.3-0.3-0.6-0.5-0.9c-0.4-0.5-1.2-0.8-1.7-0.5 c-0.9,0.4-1.6,1-2,1.9c-0.2,0.5,0,0.7,0.5,0.7c0.5,0,0.9-0.1,1.3,0c0.9-0.1,1.7-0.3,2.4-0.7C21.1,8.3,21,8.1,20.9,7.9z M15.3,34.8 c-0.3,0-0.7,0.1-1,0.1c-0.5,0.1-0.9-0.2-1.3-0.4c-0.3-0.2-0.6-0.2-0.9,0c-0.8,0.5-1.6,0.4-2.5,0C8.9,34,8.9,33.4,9,32.6 C9,32,9,31.5,9.2,31c0.1-0.1,0-0.2-0.1-0.4C9.1,30.4,9,30.1,9,29.9c0-0.5-0.2-0.8-0.7-0.8c-0.4,0-0.4-0.3-0.4-0.6 C7.8,28.1,8,28,8.3,28c0.3,0,0.5,0,0.8,0c0.5,0,0.9,0.5,0.8,1c-0.1,0.5,0,1-0.2,1.5c0,0.1-0.1,0.2,0,0.2c0.4,0.7,0.2,1.4,0.2,2 c0,0.5,0.2,0.7,0.6,0.9c0.4,0.2,0.6,0,0.9-0.2c0.7-0.4,1.1-1.1,1.6-1.6c0.1-0.1,0.2-0.3,0.2-0.5c0-0.4,0-0.7,0-1.1 c0-0.7-0.4-1.1-1.1-1.1c-0.2,0-0.4,0.1-0.5,0c-0.2-0.7-0.1-0.8,0.6-0.9c0.2,0,0.4-0.1,0.5-0.1c0.6-0.2,1.2,0.2,1.3,0.9 c0.2,1.3,0.1,2.5,0.2,3.8c0,0.5,0.3,0.9,0.8,1.1c0.2,0,0.3,0.1,0.4,0.2c0.1,0.1,0.2,0.3,0.2,0.4C15.6,34.7,15.5,34.7,15.3,34.8z M14.7,24.1c-0.6,0.1-1.1,0.3-1.7-0.1c-0.4-0.3-0.8-0.2-1.2,0c-0.7,0.4-1.4,0.4-2.1-0.1c-0.2-0.2-0.4-0.4-0.6-0.6 c-0.5-0.5-0.7-1.1-0.6-1.8c0.1-0.3,0-0.5,0-0.8c-0.1-0.9,0-1.7,0.5-2.4c0.4-0.6,1-0.9,1.8-0.9c0.2,0,0.5,0,0.7,0c0,0,0,0,0,0 c0.3,0,0.6,0,0.9,0c0.3,0,0.4-0.2,0.3-0.5c-0.2-0.6-0.5-0.9-1.1-1c-0.3-0.1-0.5-0.2-0.8-0.3c-0.1,0-0.2-0.1-0.2-0.3 c0-0.1,0.1-0.2,0.2-0.2c0.6-0.1,1.2-0.4,1.9-0.3c0.4,0.1,0.7,0.2,0.7,0.6c0,0.7,0.2,1.4-0.1,2.1c0,0.1,0,0.2,0,0.3 c0.2,1.2,0.5,2.4,0.1,3.6c-0.1,0.2,0,0.4,0.2,0.6c0.1,0.1,0.2,0.2,0.2,0.4c0,0.5,0,0.6,0.5,0.6c0.1,0,0.3,0,0.4,0 c0.2,0,0.4,0.1,0.4,0.4C15.1,23.9,15,24.1,14.7,24.1z M12.9,20.5c-0.1-0.6-0.5-1.4-1.3-2c-0.3-0.2-0.8-0.3-1.1-0.1 c-0.5,0.3-0.8,1-1.1,1.5c-0.1,0.1-0.1,0.3-0.1,0.4c-0.3,0.7,0,2,0.7,2.4c0.4,0.2,0.8,0.3,1.2,0.4c0.2,0,0.4,0,0.6-0.2 C12.3,22.4,12.9,21.8,12.9,20.5z M14.6,12.3c0,0.1-0.2,0.2-0.3,0.2c-0.4,0.1-0.7,0.2-1.1,0.4c-0.8,0.4-1.8,0-2.2-0.5 c-0.3-0.4-0.3-0.9-0.4-1.3c-0.1-0.3,0-0.6-0.2-0.8c-0.1-0.2-0.1-0.5,0-0.7c0.2-0.5,0.3-1.1,0.1-1.7c-0.1-0.5-0.4-0.7-0.9-0.7 c-0.4,0-0.7,0-1.1,0c-0.2,0-0.4-0.1-0.4-0.3c0-0.2,0.1-0.4,0.3-0.4c0.4-0.1,0.8-0.3,1.3-0.3c0.6,0,0.7-0.1,0.8-0.6 c0.1-0.3,0.1-0.5,0-0.8c0-0.2,0-0.4,0.1-0.5C11,4,11.1,4,11.3,4.3c0.2,0.3,0.2,0.7,0.4,1c0.1,0.2-0.2,0.2-0.3,0.4 c0.6,0.6,1.3,0.5,2,0.5c0.4,0,0.7,0.1,0.9,0.5c0.1,0.2,0.1,0.4-0.1,0.5c-0.3,0.2-0.6,0.2-0.8,0.1c-0.4-0.2-0.8,0.1-1.2,0.1 c-0.1,0-0.2,0.1-0.2,0.3c-0.2,0.9-0.5,1.8,0,2.7c0.2,0.5,0.4,0.6,0.9,0.2c0.2-0.2,0.4-0.3,0.6-0.6c0.2-0.4,0.6-0.5,0.8-0.1 c0.2,0.2,0.2,0.5,0.5,0.7c0.2,0.1,0.1,0.3,0.1,0.5C14.8,11.5,14.7,11.9,14.6,12.3z M5.7,24.3c-0.2,0-0.3-0.1-0.5-0.3 c-0.4-0.3-0.8-0.3-1.2-0.1c-1.1,0.6-2.3,0.6-3.3-0.2c-0.6-0.4-0.8-1.6-0.5-2.3c0.2-0.4,0.3-0.8,0.9-1c0.3-0.1,0.3-0.3-0.1-0.5 c-0.7-0.5-0.6-1-0.4-1.5c0.1-0.3,0.3-0.6,0.6-0.8c0.7-0.3,1.3-0.8,2.2-0.7c0.3,0,0.7,0.1,1.1,0.2c0.6,0.2,1.1,0.5,1.4,1.1 c0.3,0.6,0.3,1.1,0.3,1.8c-0.1,0.6-0.1,1.1-0.2,1.7c-0.1,0.4,0.4,0.8,0.8,0.7c0.5-0.1,0.8,0.2,0.7,0.7C7.3,23.7,6.4,24.3,5.7,24.3z M1.5,21.9c-0.1,0.1-0.2,0.3-0.1,0.4c0.3,0.3,0.6,0.6,1,0.6c0.3,0,0.6-0.1,0.9,0c0.4,0,1.5-0.9,1.5-1.3c0-0.4-0.3-0.9-0.6-0.8 c-0.5,0.2-1,0.2-1.4,0.3C2.2,21.3,1.8,21.6,1.5,21.9z M4.6,18.7c-0.2-0.1-0.4-0.3-0.5-0.4c-0.5-0.3-1-0.5-1.6-0.2 c-0.4,0.2-0.7,0.6-0.6,1.1c-0.1,0.8,0.1,1,0.8,0.8c0.6-0.1,1.2-0.3,1.8-0.4c0.2,0,0.3-0.2,0.4-0.4C5,18.9,4.8,18.8,4.6,18.7z M1.8,11.6c0.9-0.5,1.9-0.9,2.8-1.4C4.8,10.1,5,10,5.1,9.8C4.8,9.5,4.3,9.3,3.9,9.1C3.2,8.7,2.5,8.3,1.8,7.9 C1.6,7.8,1.3,7.2,1.5,6.8C3.1,7.5,5,8.9,6.6,9.9C5,10.8,3.1,12,1.5,12.7C1.3,12.3,1.5,11.7,1.8,11.6z M0.3,28.3 C0.7,28.1,1,28,1.5,28c0.8,0,0.9-0.1,0.9-0.9c0-0.3-0.1-0.6,0.1-0.9c0.2-0.4,0.4-0.5,0.7-0.1c0.1,0.1,0.2,0.2,0.2,0.4 c0,0.3,0.1,0.5,0.3,0.6c-0.1,0.2-0.4,0-0.4,0.3C3.6,27.7,4,28,4.5,28c0.3,0,0.6,0,0.9,0c0.1,0,0.3,0,0.4,0.1 c0.2,0.2,0.5,0.4,0.4,0.7c-0.1,0.3-0.4,0.3-0.7,0.3c-0.4,0-0.8-0.1-1.2,0c-0.4,0.1-0.6,0.3-0.6,0.7c0,0.5-0.3,1.1-0.1,1.6 c0.1,0.5,0.1,1,0.7,1.2c0.3-0.3,0.9-0.4,1.1-1c0.1-0.3,0.5-0.3,0.7,0c0.4,0.6,0.8,1.1,0.4,1.9c-0.2,0.4-0.3,0.6-0.7,0.7 c-0.5,0.1-0.8,0.5-1.3,0.6c-0.8,0.1-1.6-0.5-1.9-1.3c-0.3-1-0.3-2.1-0.1-3.2c0.1-0.4,0-0.8-0.2-1.1C2.1,29,1.9,28.9,1.5,29 c-0.4,0-0.7,0-1.1,0c-0.2,0-0.4,0-0.4-0.2C0,28.6,0.1,28.4,0.3,28.3z M17.2,33.9c0.4,0,0.7-0.2,1.1-0.3c0.7-0.2,0.7-0.2,0.8-1 c0.1-1,0-2,0.1-2.9c0.1-0.4-0.2-0.7-0.7-0.7c-0.3,0-0.7,0-1,0c-0.3,0-0.5-0.1-0.5-0.4c0-0.3,0.2-0.5,0.5-0.5c0.2,0,0.5,0,0.8,0 c0.5,0,1,0,1.5,0.2c0.5,0.2,0.9,0.1,1.4-0.1c0.9-0.4,1.8-0.4,2.6,0.2c0.3,0.2,0.5,0.5,0.4,0.9c0,0.1,0,0.2,0,0.4 c0.1,0.7-0.5,1.2-1.2,1.1c-0.3-0.1-0.4-0.3-0.5-0.5c-0.2-0.4-0.5-0.5-0.9-0.5c-0.4,0-0.6,0-0.9,0.4c-0.5,0.5-0.6,1-0.6,1.6 c0,0.3-0.2,0.7,0.3,0.9c0.1,0,0.1,0.1,0.1,0.2c0.1,0.5,0.1,0.5,0.7,0.5c0.1,0,0.2,0,0.3,0.1c0.2,0.2,0.3,0.5,0.5,0.7 c0.2,0.2,0.1,0.3-0.1,0.5c-0.5,0.2-0.9,0.4-1.5,0.3c-0.3-0.1-0.6-0.1-0.9,0c-0.6,0.1-1.1,0-1.7,0c-0.4,0-0.6-0.2-1-0.3 c-0.1,0-0.2-0.1-0.1-0.3C16.8,34,17,33.9,17.2,33.9z M32.9,32c0.1,0.1,0.3,0.1,0.3,0.3c0.2,0.4,0.5,0.3,0.8,0.1 c0,0.8,0.6,1.1,1.5,1.4c0.4,0.1,0.8-0.2,1-0.6c0.2-0.3,0-1-0.3-1.2C36.2,32,36.1,32,36.1,32c-0.3,0.4-0.6,0.2-1,0 c-0.1-0.1-0.2,0-0.3,0.1c-0.2,0.2-0.5,0.2-0.8,0.3c-0.2-0.5-0.3-1.1-0.9-1.3c-0.2-0.1-0.6-1.6-0.6-1.8c0.1-0.2,0.2-0.3,0.4-0.5 c0.3-0.2,0.6-0.3,0.8-0.6c0.1-0.1,0.2-0.1,0.3-0.1c0.7,0.1,1.4,0,2.1,0.3c0.4,0.2,0.9,0.3,1.3,0.1c0.3,0.6,0.2,1.3,0.4,1.9 c-0.5,0.6,0,1.1,0.2,1.6c0.2,0.6,0.3,1.1,0,1.7c-0.4,0.7-1.1,1-1.8,1.1c-0.9,0.1-1.7,0-2.4-0.5c-0.3-0.2-0.4-0.1-0.6,0.1 c-0.3,0.2-0.5,0.2-0.6-0.2c0-0.1,0-0.1,0-0.2c0.1-0.6,0-1.1-0.1-1.6C32.4,32,32.6,31.9,32.9,32z M36.8,30.1 c-0.1-0.1-0.3-0.2-0.3-0.4c-0.1-0.3-0.3-0.4-0.5-0.4c-0.3,0-0.6-0.1-1-0.2c-0.7-0.3-1.4,0-1.7,0.7c-0.1,0.3,0,0.5,0.3,0.6 c0.4,0,0.7,0.2,1.1,0.4c0.2,0.1,0.4,0.2,0.7,0.1c0.3-0.1,0.8,0,1.2-0.1C37,30.7,37.1,30.4,36.8,30.1z"/>
</svg>