<!-- (c) Carrd Inc. All rights reserved. All logos and trademarks are property of their respective owners. -->
<svg xmlns="http://www.w3.org/2000/svg" id="icon">
<path d="M12.9,37.2c0-0.5,0.1-1,0.1-1.5c-0.3,0-0.5,0-0.8,0c-1.1,0-2.1,0-3.2-0.1c-1.4-0.2-2.8-0.5-4.1-1.1c-1.7-0.8-3-2-3.9-3.7 c-0.4-0.8-0.8-1.6-0.9-2.5c-0.2-1.3-0.1-2.5,0.4-3.8c0.5-1.1,1.1-2,1.9-2.9c1.2-1.3,2.6-2.3,4.2-3.1c1.2-0.6,2.5-1.1,3.9-1.5 c0.3-0.1,0.6-0.1,1-0.2c-0.1-0.1-0.2-0.2-0.3-0.3c-1.5-1.2-2.8-2.7-3.7-4.4c-0.7-1.2-1.1-2.5-1.4-3.8c0,0,0-0.1,0-0.1 C6.9,7.7,7.8,7,8.8,6.6c0.3-0.1,0.6-0.2,0.9-0.2c0,0,0,0,0,0c0,0.2,0,0.4,0.1,0.7c0.3,2,0.7,4,1.6,5.8c0.4,0.9,1,1.7,1.7,2.5 c0.1,0.1,0.1,0.1,0.2,0.2c0-0.1,0-0.1,0-0.1c0.5-2,1.4-3.8,2.5-5.4c1.1-1.6,2.6-2.9,4.3-3.8c1.1-0.6,2.3-1,3.5-1.2 c1-0.2,2-0.3,3-0.3c3.3,0,6.2,1,8.8,3.1c1.9,1.5,3.2,3.4,4,5.7c0.4,1.2,0.6,2.4,0.5,3.7c-0.1,2-0.7,3.8-1.9,5.4 c-0.7,1-1.6,1.9-2.4,2.8c-1.1,1.2-2.3,2.3-3.5,3.3c-0.7,0.5-1.4,1-2.1,1.6c-0.3,0.2-0.5,0.5-0.8,0.7c-1.4,1.1-2.8,2-4.4,2.8 c-2.7,1.4-5.5,2.3-8.4,2.9c-1,0.2-2.1,0.3-3.1,0.4C13.1,37.2,13,37.2,12.9,37.2z M6.5,20.4C6.5,20.4,6.5,20.4,6.5,20.4 c0.6,0.9,1.2,1.8,1.7,2.6c2,3,4.1,6.1,6.1,9.1c0.7,1,1.4,2,2,3.1c0,0.1,0.1,0.1,0.1,0.1c0.3-0.1,0.5-0.1,0.8-0.2 c1.2-0.3,2.4-0.6,3.6-1.1c0.1,0,0.1,0,0.1-0.1c0-0.3,0-0.6,0-0.9c0-1.1,0-2.1,0-3.2c0-1.3,0-2.6,0-3.9c0-0.6,0-1.2,0-1.7 c0-1.1,0-2.2,0-3.3c0,0,0-0.1,0-0.1c0,0,0.1,0,0.1,0.1c0.9,1.4,1.9,2.9,2.8,4.3c1,1.6,2.1,3.2,3.1,4.8c0.1,0.2,0.3,0.4,0.5,0.7 c0.3-0.2,0.5-0.4,0.8-0.6c0.3-0.2,0.6-0.5,0.9-0.7c1.3-0.9,2.6-1.9,3.8-3c0,0,0.1-0.1,0.1-0.1c0-0.8,0.1-1.6,0.1-2.4 c0-0.9,0.1-1.8,0.1-2.7c0-0.9,0.1-1.9,0.1-2.8c0-0.7,0-1.5,0.1-2.2c0-1.1,0.1-2.2,0.1-3.3c0-0.9,0.1-1.8,0.1-2.7 c0-0.5,0-1.1,0.1-1.6c0-0.1,0-0.1-0.1-0.1c0,0-0.1,0-0.1,0c-1.4,0.4-2.8,0.8-4.2,1.2c-0.1,0-0.1,0.1-0.1,0.1c0,1,0,1.9,0,2.9 c0,1,0,2.1,0,3.1c0,1.1,0,2.1,0,3.2c0,1.3,0,2.5,0,3.8c0,0.3,0,0.6,0,0.9c0,0.7,0,1.5,0,2.2c0,0,0,0.1,0,0.1c0-0.1-0.1-0.1-0.1-0.1 c-1.8-2.7-3.6-5.5-5.3-8.2c-1.2-1.9-2.4-3.7-3.6-5.6c0-0.1-0.1-0.1-0.1-0.1c-0.8,0.2-1.6,0.5-2.4,0.7c-0.1,0-0.1,0-0.1,0.1 c0,0.3,0,0.6,0,0.9c0,0.8,0,1.7,0,2.5c0,0.9,0,1.7,0,2.6c0,0.8,0,1.7,0,2.5c0,1,0,2,0,3c0,0.7,0,1.4,0,2.2c0,0.9,0,1.8,0,2.7 c0,0.1,0,0.1,0,0.2c0,0-0.1-0.1-0.1-0.1c-2.2-3.5-4.5-6.9-6.7-10.4c-0.1-0.1-0.1-0.1-0.2-0.1c-1.2,0.3-2.3,0.8-3.4,1.4 C6.9,20.2,6.7,20.3,6.5,20.4z"/>
</svg>