<!-- (c) Carrd Inc. All rights reserved. All logos and trademarks are property of their respective owners. -->
<svg xmlns="http://www.w3.org/2000/svg" id="icon">
<path d="M3.4,18c0-0.3,0-0.6,0-0.9c0.1-0.5,0.1-1,0.2-1.4C4.5,9.5,9.8,5.5,13.7,4.5c2.7-0.7,5.5-0.8,8.2-0.5 c3.4,0.3,6.7,1.2,9.9,2.6c0.1,0.1,0.2,0.1,0.4,0.2c-2,0.8-3.7,1.9-4.5,4c0.2,0.1,0.4,0.1,0.5,0.2c4.8,2.2,7.6,5.9,8.1,11.2 c0.4,4-0.9,7.5-3.7,10.3c-2.2,2.3-4.8,3.9-8,4.4c-2.4,0.4-4.7,0.4-7.1,0.1c-4.1-0.5-7.9-1.8-11.5-3.8c-0.1-0.1-0.2-0.1-0.4-0.2 c0.6-0.2,1.1-0.4,1.6-0.6c1.4-0.6,2.5-1.5,3.2-2.9c0.3-0.6,0.3-0.6-0.3-0.9c-3.5-2-5.7-4.9-6.5-8.8C3.6,19.3,3.5,18.7,3.4,18z M12.1,32.5C12.1,32.5,12.2,32.5,12.1,32.5c3.2,1.3,6.5,1.9,9.9,1.7c2.1-0.1,4-0.7,5.8-1.7c4.4-2.5,5.9-7.2,4.9-11.3 c-1.4-5.6-7.1-8.8-12.7-7.1c-5.1,1.6-8,6.8-6.6,11.9c0.1,0.5,0.3,0.9,0.5,1.4c0.6,1.1,0.5,2.1-0.2,3C13.2,31.1,12.7,31.8,12.1,32.5z "/>
</svg>