<!-- (c) Carrd Inc. All rights reserved. All logos and trademarks are property of their respective owners. -->
<svg xmlns="http://www.w3.org/2000/svg" id="icon">
<path d="M34.8,6.5c-0.3-0.2-0.6-0.2-0.9-0.1L25,10.7L6.1,1.6C5.8,1.5,5.5,1.5,5.2,1.7C4.9,1.8,4.7,2.1,4.7,2.5v22.7 c0,0.4,0.2,0.8,0.6,0.9l9.8,4.1v8.6c0,0.3,0.2,0.7,0.5,0.8c0.2,0.1,0.3,0.2,0.5,0.2c0.1,0,0.3,0,0.4-0.1l18.2-8.7 c0.3-0.2,0.6-0.5,0.6-0.9V7.3C35.3,7,35.1,6.6,34.8,6.5z M6.7,24.6V4l16.1,7.7l-3.8,1.8l-8.4-3.8c-0.5-0.2-1.1,0-1.3,0.5 c-0.2,0.5,0,1.1,0.5,1.3l6.9,3.2l-1,0.5c-0.3,0.2-0.6,0.5-0.6,0.9v0.8L10.4,15c-0.5-0.2-1.1,0-1.3,0.5c-0.2,0.5,0,1.1,0.5,1.3 l5.4,2.2v3.1l-4.6-1.9c-0.5-0.2-1.1,0-1.3,0.5c-0.2,0.5,0,1.1,0.5,1.3l5.4,2.2v3.9L6.7,24.6z M33.3,29.4L17,37.2V23.5c0,0,0,0,0,0 v-5.2c0,0,0,0,0,0v-1.6l16.3-7.8V29.4z M19.6,20.7c-0.2-0.5,0-1.1,0.5-1.3l9.5-4.6c0.5-0.2,1.1,0,1.3,0.5c0.2,0.5,0,1.1-0.5,1.3 l-9.5,4.6c-0.1,0.1-0.3,0.1-0.4,0.1C20.1,21.2,19.7,21,19.6,20.7z M19.6,25.9c-0.2-0.5,0-1.1,0.5-1.3l9.5-4.6c0.5-0.2,1.1,0,1.3,0.5 c0.2,0.5,0,1.1-0.5,1.3l-9.5,4.6c-0.1,0.1-0.3,0.1-0.4,0.1C20.1,26.5,19.7,26.3,19.6,25.9z M19.6,31.2c-0.2-0.5,0-1.1,0.5-1.3 l9.5-4.6c0.5-0.2,1.1,0,1.3,0.5c0.2,0.5,0,1.1-0.5,1.3l-9.5,4.6c-0.1,0.1-0.3,0.1-0.4,0.1C20.1,31.7,19.7,31.5,19.6,31.2z"/>
</svg>