<!-- (c) Carrd Inc. All rights reserved. -->
<svg xmlns="http://www.w3.org/2000/svg" id="icon">
<path d="M26.9,6.7l9.2,2.9l-1.8,4.1h-3.4h-2.1v2.2v18.1H20h-8.7V15.9v-2.2H9.2H5.8l-1.8-4l9.1-3c1.1,2.8,3.6,4.4,6.8,4.4H20h0.1 C23.3,11.1,25.8,9.6,26.9,6.7 M26.1,4.2c-0.5,0-0.7,0.4-0.9,0.9c0,0,0,0-0.1,0.1c-0.5,1.7-1.7,3.8-5,3.8H20h-0.1 c-3.3,0-4.6-2.1-5-3.8l-0.1-0.1c-0.1-0.5-0.4-0.9-0.9-0.9c0,0-0.1,0-0.2,0L1,8.4l3.3,7.5h4.8v18.7c0,1,0.6,1.6,1.6,1.6H20l0,0l0,0 h9.2c1,0,1.6-0.6,1.6-1.6V15.9h4.8L39,8.4L26.3,4.2C26.2,4.2,26.1,4.2,26.1,4.2L26.1,4.2z"/>
</svg>