<!-- (c) Carrd Inc. All rights reserved. All logos and trademarks are property of their respective owners. -->
<svg xmlns="http://www.w3.org/2000/svg" id="icon">
<path d="M39.9,14.5c-0.8,0-1.6,0.1-2.3,0.3c-0.5,0.1-1,0.3-1.4,0.6c-1.2,0.7-2.3,1.8-2.7,3.1c0,0.1-0.1,0.2-0.1,0.2 c0,0.2-0.1,0.2-0.1,0.3c-0.1,0.6-0.6,4.2-2,6.7c-0.5,1-1.1,2-1.9,3c-0.7,0.9-1.5,1.9-2.5,2.6c-0.5,0.3-1.1,0.7-1.7,1 c-0.6,0.2-1.3,0.3-2,0.2c-0.7-0.1-1.2-0.3-1.8-0.5c-0.5-0.2-0.8-0.3-1.2-0.3h-0.1c-0.5,0-1,0.2-1.6,0.4c-0.6,0.2-1.1,0.4-1.8,0.5 c-0.6,0.1-1.4,0.1-2-0.2c-0.6-0.2-1.2-0.6-1.7-1c-1-0.7-1.8-1.6-2.5-2.6c-0.7-1-1.4-2-1.9-3c-1.1-2.2-1.6-4.4-2-6.7 c0-0.1-0.1-0.2-0.1-0.3c0-0.1-0.1-0.2-0.1-0.2c-0.6-2.4-3.3-3.7-5.6-4H0.1c-0.1,0-0.1-0.1-0.1-0.1v-0.6c0-0.1,0.1-0.2,0.1-0.2 c2.2-0.3,4.2,0.2,5.9,1.4c0,0.1,0.1,0.1,0.1,0.1c0.2,0.1,0.3,0.3,0.5,0.4l0.3,0.3c0-0.2,0.1-0.4,0.1-0.6c0.1-0.3,0.1-0.5,0.2-0.7 c0.2-0.5,0.5-1,0.7-1.4c0.6-0.9,1.4-1.6,2.3-2c0.9-0.4,1.8-0.5,2.6-0.5c1.8,0,3.7,1.2,4.4,1.7c0.1,0.1,0.1,0.2,0.1,0.3v0.7 c0,0.1-0.1,0.2-0.2,0.1c-1.1-0.5-2.7-1.3-4.2-1.2c-0.6,0.1-1.3,0.2-1.9,0.5c-2.1,1.1-2.5,3.9-2.5,6.1v0.5c0.1,1.9,0.6,3.9,1.5,5.8 c0.4,1,0.9,2,1.5,2.9s1.3,1.8,2.2,2.5c0.8,0.7,1.8,1.2,2.9,1.1c0.6-0.1,1.1-0.3,1.6-0.5c0.5-0.1,1-0.3,1.5-0.4h0.1 c0.7-0.1,1.4,0.2,1.9,0.4c0.5,0.2,1.1,0.4,1.6,0.5c1.1,0.1,2-0.3,2.9-1.1c0.8-0.7,1.5-1.6,2.2-2.5c0.6-0.9,1.1-1.9,1.5-2.9 c0.8-1.9,1.3-4.3,1.4-5.8c0.2-2,0-4.5-1.6-5.9c-1.4-1.1-3-1.2-4.6-0.8c-0.7,0.2-1.8,0.5-2.8,1c-0.1,0.1-0.2,0-0.2-0.1v-0.8 c0-0.1,0.1-0.2,0.2-0.3c0.9-0.6,2.7-1.5,4.5-1.6c1-0.1,2,0.1,2.9,0.5c0.9,0.4,1.8,1.1,2.3,2c0.3,0.5,0.6,0.9,0.7,1.4 c0.1,0.3,0.2,0.5,0.2,0.7c0,0.2,0.1,0.4,0.1,0.6l0.3-0.3c0.4-0.4,0.8-0.7,1.3-1c0.8-0.5,1.7-0.8,2.6-1c0.5-0.1,0.9-0.1,1.4-0.1h0.7 c0.2,0,0.5,0.1,0.6,0.1c0,0,0.1,0,0.1,0.1v0.6C40,14.4,39.9,14.5,39.9,14.5z M33.9,13.1c-0.5-0.1-0.8-0.7-0.8-1.5 c0.1-0.8,0.6-1.5,1.2-1.4c0.6,0.1,0.9,0.7,0.8,1.5C35,12.5,34.5,13.1,33.9,13.1z M21.2,12.4c-0.1,1.2-0.1,2.4,0,2.7 c0.1,0.1-0.1,0.2-0.2,0.2h-1.8c-0.1,0-0.2-0.1-0.2-0.1c-0.2-0.4-0.6-1.7-0.7-2.7c-0.1-0.7-0.1-2-0.1-2.9c0-0.1,0.1-0.2,0.2-0.2h3.3 c0.1,0,0.2,0.2,0.2,0.3C21.8,10,21.3,11.1,21.2,12.4z M6.1,13.1c-0.6,0.1-1.1-0.6-1.2-1.4c-0.1-0.8,0.2-1.5,0.8-1.5 c0.6-0.1,1.1,0.6,1.2,1.4C7,12.3,6.7,13,6.1,13.1z"/>
</svg>