<!-- (c) Carrd Inc. All rights reserved. All logos and trademarks are property of their respective owners. -->
<svg xmlns="http://www.w3.org/2000/svg" id="icon">
<path d="M35.3,16c-0.1,0.2-0.2,0.3-0.2,0.5c0.1,0.7,0.1,1.3,0.1,2c0,0.1-0.1,0.3-0.2,0.4c-1.8,2.1-4,3.7-6.5,4.6 c-0.1,0-0.1,0-0.2,0.1c0,0-0.1,0-0.1,0c0.1-0.4,0.2-0.8,0.3-1.3c0.4-1.5,0.5-3.1,0.3-4.7c0-0.2-0.1-0.3-0.3-0.5 c-1.7-0.9-2.8-2.4-3.1-4.3c-0.2-1-0.1-1.9,0.3-2.9c0.1-0.2,0.1-0.4-0.1-0.6c-2.4-3-5.4-4.8-9.2-5.6c-0.1,0-0.2-0.1-0.3-0.1 c0,0,0-0.1,0-0.1c0.1,0,0.2-0.1,0.2-0.1c4.7-1,8.9-0.2,12.8,2.7c0.2,0.1,0.4,0.2,0.6,0.1c3.3-0.8,6.6,1.3,7.1,4.7 C37.2,12.9,36.7,14.6,35.3,16z M20.5,8.6c-0.2,0.1-0.4,0.1-0.6,0.2C18.1,9.2,16.5,9.9,15,11c-0.3,0.2-0.4,0.4-0.4,0.7 c0.2,2.9-1.9,5.3-4.4,5.8c-0.6,0.1-0.8,0.4-1,0.9c-0.5,1.4-0.8,2.9-0.9,4.4c-0.1,1.9,0.2,3.8,0.8,5.7c0,0.1,0.1,0.3,0.1,0.4 c0,0,0,0-0.1,0c-0.1,0-0.1-0.1-0.2-0.2c-2-2.1-3.3-4.6-3.9-7.5c-0.3-1.3-0.3-2.6-0.3-3.8c0-0.3,0-0.5,0.1-0.8c0.1-0.3,0-0.5-0.2-0.8 c-1.5-1.7-2-3.6-1.3-5.8C4,7.9,5.6,6.7,7.8,6.2C8.6,6,9.4,6.1,10.3,6.3c0.2,0.1,0.3,0,0.5-0.1c0.5-0.4,1-0.7,1.6-1.1 c0.2-0.2,0.5-0.2,0.7-0.1c2.7,0.5,5.1,1.6,7.2,3.3C20.3,8.4,20.4,8.4,20.5,8.6z M11.4,22.8c0.1,0.1,0.2,0.1,0.3,0.2 c1.3,1.4,2.9,2.5,4.6,3.3c0.2,0.1,0.4,0.1,0.6,0c2.5-1.6,5.7-1.1,7.6,1.1c0.1,0.2,0.3,0.2,0.5,0.2c3.2-0.5,6-1.9,8.4-4.1 c0.3-0.3,0.6-0.7,1-1c0.1-0.1,0.1-0.1,0.2-0.2c0,0,0.1,0,0.1,0.1c0,0.2-0.1,0.3-0.1,0.5c-1.4,4.3-4.2,7.5-8.4,9.4 c-0.3,0.1-0.5,0.3-0.6,0.6c-0.8,2.3-2.4,3.8-4.9,4.1c-3,0.4-5.5-1.6-6.2-4.1c-0.1-0.3-0.2-0.4-0.4-0.5c-0.6-0.3-1.1-0.5-1.7-0.8 c-0.2-0.1-0.3-0.3-0.4-0.4c-0.5-1.3-0.8-2.7-0.9-4.1c-0.1-1.3-0.1-2.6,0.2-3.8C11.3,23,11.3,22.9,11.4,22.8z"/>
</svg>