<!-- (c) Carrd Inc. All rights reserved. All logos and trademarks are property of their respective owners. -->
<svg xmlns="http://www.w3.org/2000/svg" id="icon">
<path d="M24,28.6c-1.2,1.1-2.5,2-4,2.5c-1.5-0.5-2.9-1.4-4-2.5H24z M12.4,12.4c-1.6-1.3-3.5-2.4-5.6-3v12.6v0.5 c0,7.3,5.9,13.2,13.2,13.2c7.3,0,13.2-5.9,13.2-13.2V22V9.5c-2.1,0.6-4,1.6-5.6,2.9c-2.2-1.5-4.8-2.4-7.6-2.4 C17.1,10,14.5,10.9,12.4,12.4z M12.4,8.6c2.3-1.2,4.8-1.8,7.6-1.8c2.7,0,5.3,0.7,7.6,1.8c0.5-0.3,1.1-0.6,1.7-0.9 c-2.4-2.3-5.7-3.6-9.2-3.6c-3.5,0-6.8,1.4-9.3,3.6C11.3,8,11.9,8.3,12.4,8.6z M7.6,6.5c3-3.4,7.5-5.6,12.4-5.6 c4.9,0,9.4,2.1,12.4,5.6c1.3-0.3,2.6-0.6,4-0.6v5.6c2.1,1.3,3.5,3.7,3.5,6.4c0,2.7-1.4,5.1-3.5,6.4l0,0.2c-0.9,8.3-8,14.6-16.5,14.6 S4.4,32.6,3.5,24.4C1.4,23,0,20.6,0,17.9c0-2.7,1.4-5.1,3.5-6.4V5.9C4.9,5.9,6.3,6.1,7.6,6.5z M24.1,22.6c2.2-0.3,5.9-0.2,5.9-0.2 c-0.1,0.7,0,2.6-2.1,3.8c-0.3,0.2-1.2,0.5-2,0.5c-2,0.1-4.9,0.1-4.9,0.1C21.4,24.5,22.3,22.8,24.1,22.6z M15.8,22.6 c1.8,0.2,2.7,1.9,3.2,4.3c0,0-2.9,0-4.9-0.1c-0.8,0-1.7-0.3-2-0.5C9.9,25,10,23,9.9,22.4C9.9,22.4,13.6,22.4,15.8,22.6z M23.9,33.1 c-1.1,0.7-2.4,1.1-3.9,1.1c-1.4,0-2.8-0.4-3.9-1.1c0,0,0.1-0.4,0.3-0.8c0.3-0.4,0.5-0.5,0.5-0.5c0.9,0.3,2,0.4,3.1,0.4 c1.1,0,2.1-0.2,3.1-0.4c0,0,0.3,0.2,0.6,0.6C23.8,32.8,23.9,33.1,23.9,33.1z M37,3.9c0.4,0,0.7,0.3,0.7,0.7c0,0.4-0.3,0.7-0.7,0.7 c-0.4,0-0.7-0.3-0.7-0.7C36.3,4.1,36.6,3.9,37,3.9z M37,5.1c0.3,0,0.5-0.2,0.5-0.5C37.5,4.2,37.2,4,37,4s-0.5,0.2-0.5,0.5 C36.5,4.9,36.7,5.1,37,5.1z M36.7,4.2H37c0.2,0,0.3,0.1,0.3,0.2c0,0.1-0.1,0.2-0.2,0.2l0.2,0.3h-0.1L37,4.6h-0.1v0.3h-0.2L36.7,4.2 L36.7,4.2z M36.9,4.5H37c0.1,0,0.2,0,0.2-0.1c0-0.1-0.1-0.1-0.2-0.1h-0.1V4.5z"/>
</svg>