<!-- (c) Carrd Inc. All rights reserved. All logos and trademarks are property of their respective owners. -->
<svg xmlns="http://www.w3.org/2000/svg" id="icon">
<path d="M31.4,24.8l0.3-0.6c1-2,1.6-4.2,1.6-6.5c0-2.7-0.9-5.4-2.4-7.7c-1.5-2.3-3.7-4-6.3-5c-2.5-1-5.3-1.3-8-0.7 c-2.7,0.5-5.2,1.9-7.1,3.8c-1.9,1.9-3.2,4.4-3.8,7.1c-0.5,2.7-0.2,5.5,0.8,8c1.1,2.5,2.8,4.7,5.1,6.2c2.3,1.5,5,2.3,7.7,2.3h3.9 l-4.6,4.6l3.8,3.8l11.1-11l-2.9-2.9C30.9,25.7,31.1,25.2,31.4,24.8z M27.3,20.4l-0.1,0.3c-0.2,0.5-0.4,1-0.6,1.5L22.5,18l-3.8,3.8 l4.6,4.6h-3.9c-4.7,0-8.3-3.8-8.3-8.7c0-4.9,3.7-8.7,8.3-8.7c4.7,0,8.3,3.8,8.3,8.7C27.7,18.6,27.6,19.5,27.3,20.4L27.3,20.4z"/>
</svg>