<!-- (c) Carrd Inc. All rights reserved. All logos and trademarks are property of their respective owners. -->
<svg xmlns="http://www.w3.org/2000/svg" id="icon">
<path d="M18.8,4.1c4.6-0.4,7.9,1.8,10.1,4.4c2,2.3,4,6.4,3.1,11c-0.8,3.8-2.9,6.9-4.8,9.7c-1,1.4-2,2.7-3.3,4 c-1.1,1.1-2.7,3-4.2,3.1c-1.6,0-3.7-2.4-4.6-3.3c-2.7-2.7-4.7-5.7-6.5-9.3c-0.9-1.8-1.7-3.9-1.7-6.2C6.8,11.8,10,7.6,13.8,5.5 C15.3,4.8,16.9,4.2,18.8,4.1L18.8,4.1z M20.3,24.2c3.9-0.3,6.9-3.4,6.9-7.5c0-5-4.3-8.6-9.4-7.5c1.2,0.5,2,1.8,1.7,3.4 c-0.6,3.2-6.1,3.2-6-0.5C9.3,17.4,13.9,24.7,20.3,24.2L20.3,24.2z"/>
</svg>