<!-- (c) Carrd Inc. All rights reserved. All logos and trademarks are property of their respective owners. -->
<svg xmlns="http://www.w3.org/2000/svg" id="icon">
<path d="M29.5,34.4c-0.8,0-1.6,0-2.4,0c-0.1,0-0.1,0-0.2,0c-0.7,0-1.3-0.1-2-0.1c-0.8-0.1-1.5-0.1-2.3-0.2c-0.8-0.1-1.6-0.2-2.4-0.4 c-1.3-0.2-2.6-0.5-3.9-0.8c-2.7-0.6-5.3-1.5-7.9-2.5c-1.8-0.7-3.5-1.6-5-2.7c-0.9-0.7-1.8-1.5-2.4-2.5c-0.5-0.8-0.7-1.7-0.4-2.7 c0.2-0.7,0.5-1.2,1.1-1.6c0.2-0.2,0.5-0.3,0.7-0.5c0,0-0.1,0-0.1-0.1c-0.6-0.6-1.2-1.2-1.6-2c-0.6-1.3-0.4-2.6,0.6-3.6 c0.3-0.3,0.6-0.5,1-0.7c-0.1-0.1-0.1-0.1-0.2-0.2c-0.6-0.5-1-1.1-1.4-1.8c-0.3-0.6-0.5-1.2-0.4-1.9c0.1-0.8,0.6-1.5,1.2-2 c0.7-0.6,1.6-1,2.4-1.3c1.4-0.5,2.9-0.7,4.4-0.9c0.7-0.1,1.5-0.1,2.2-0.1c0.1,0,0.2,0,0.3,0c0.3,0,0.6,0,0.9,0c0.1,0,0.1,0,0.2,0 c1.2,0.1,2.5,0.1,3.7,0.2c0.8,0.1,1.6,0.2,2.4,0.3c1,0.1,1.9,0.3,2.9,0.5c1.6,0.3,3.1,0.7,4.6,1.1c1.9,0.5,3.8,1.2,5.6,1.9 c2,0.9,3.9,1.8,5.6,3.2c0.7,0.6,1.4,1.3,1.9,2.1c0.5,0.8,0.7,1.7,0.4,2.7c-0.2,0.7-0.6,1.3-1.2,1.7c-0.2,0.1-0.4,0.3-0.6,0.4 c0.1,0.1,0.2,0.2,0.3,0.3c0.5,0.5,1,1,1.3,1.7c0.4,0.7,0.5,1.5,0.3,2.3c-0.2,0.7-0.6,1.3-1.2,1.7c-0.2,0.1-0.4,0.3-0.6,0.4 c0.1,0.1,0.2,0.2,0.3,0.3c0.5,0.5,1,1.1,1.3,1.8c0.4,0.9,0.5,1.9,0,2.8c-0.4,0.7-1,1.2-1.6,1.6c-0.8,0.5-1.8,0.8-2.7,1.1 c-1,0.3-2.1,0.4-3.1,0.5c-0.7,0.1-1.4,0.1-2,0.1C29.6,34.3,29.5,34.4,29.5,34.4z M12,7.1c-0.8,0-1.5,0-2.3,0.1 C9,7.2,8.3,7.3,7.5,7.4C6.7,7.5,5.8,7.6,5,7.9C4.1,8.2,3.3,8.5,2.6,9.1C2,9.6,1.8,10.3,2.1,11c0.3,0.8,0.9,1.3,1.4,1.9 C3.8,13.1,4,13.1,4.3,13c1.3-0.5,2.7-0.7,4.1-0.8c0.8-0.1,1.7-0.1,2.5-0.1c0.9,0,1.8,0,2.7,0c0,0,0.1,0,0.1-0.1 c0.1-0.4,0.4-0.6,0.8-0.8c0.8-0.4,1.6-0.5,2.5-0.6c0.9,0,1.8,0,2.8,0.1c0.9,0.1,1.8,0.3,2.6,0.6c1.2,0.4,2.3,0.8,3.3,1.6 c0.4,0.3,0.8,0.7,0.9,1.3c0,0.1,0.1,0.1,0.2,0.1c1.5,0.5,3,1,4.5,1.6c1.8,0.7,3.5,1.6,5.1,2.7c0,0,0.1,0,0.2,0 c0.3-0.2,0.6-0.4,0.9-0.6c0.6-0.6,0.8-1.2,0.6-1.9c-0.2-0.6-0.6-1.1-1-1.5c-0.7-0.7-1.5-1.3-2.3-1.8c-1.5-0.9-3-1.7-4.6-2.3 c-1.9-0.8-3.9-1.4-5.9-1.9C22.8,8.3,21.4,8,20,7.8c-0.9-0.2-1.8-0.3-2.8-0.4c-0.8-0.1-1.6-0.2-2.4-0.2C13.9,7.1,12.9,7.1,12,7.1z M36.1,26.9c-0.1,0-0.2,0.1-0.3,0.1c-1.2,0.4-2.5,0.7-3.7,0.8c-0.7,0.1-1.4,0.2-2.1,0.2c-1.1,0.1-2.2,0.1-3.3-0.1 c-0.3,0-0.3,0-0.4,0.2c-0.3,0.4-0.7,0.7-1.1,0.9c-0.6,0.2-1.2,0.3-1.8,0.3c-0.9,0-1.8,0.1-2.7-0.1c-1-0.1-1.9-0.3-2.8-0.6 c-1.2-0.4-2.3-0.8-3.3-1.6c-0.5-0.4-0.9-0.8-1-1.3c0-0.1-0.1-0.1-0.2-0.2c-1-0.3-2-0.7-3.1-1c-1.3-0.4-2.5-1-3.7-1.6 c-1-0.5-2-1.1-2.9-1.7c0,0-0.1,0-0.1,0c-0.3,0.2-0.7,0.4-1,0.7C2,22.4,1.8,23,2,23.7c0.1,0.5,0.4,0.9,0.7,1.2c0.6,0.7,1.2,1.2,2,1.7 c1.1,0.8,2.3,1.4,3.5,2c2,0.9,4,1.7,6.1,2.3c1.4,0.4,2.8,0.8,4.3,1c1.1,0.2,2.2,0.4,3.3,0.6c0.6,0.1,1.3,0.1,2,0.2 c0.7,0.1,1.4,0.1,2.1,0.2c0.8,0,1.7,0.1,2.5,0c0.8,0,1.5,0,2.3-0.1c0.7,0,1.3-0.1,2-0.2c0.9-0.1,1.8-0.3,2.6-0.6 c0.8-0.3,1.5-0.6,2.1-1.1c0.6-0.6,0.8-1.3,0.4-2C37.4,28,36.8,27.4,36.1,26.9z M34.7,19.3C34.7,19.3,34.7,19.3,34.7,19.3 c-0.5-0.4-1.1-0.7-1.6-1c-1.5-0.8-3.1-1.5-4.8-2.1c-0.7-0.2-1.5-0.5-2.2-0.7c-0.1,0-0.2,0-0.2,0.1c-0.2,0.2-0.5,0.3-0.7,0.4 c-0.7,0.3-1.5,0.3-2.3,0.3c-0.7,0-1.5,0-2.2-0.1c-0.5,0-1-0.2-1.6-0.3c-1.2-0.3-2.4-0.7-3.6-1.3c-0.5-0.3-1.1-0.6-1.4-1.1 c-0.2-0.2-0.3-0.2-0.5-0.2c-0.8,0-1.6,0-2.4,0c-0.7,0-1.4,0-2.1,0.1c-0.6,0.1-1.2,0.1-1.8,0.2C6.6,13.9,6,14,5.3,14.1 c0.1,0.1,0.2,0.1,0.2,0.2c1,0.6,2,1.2,3.1,1.6c1.7,0.8,3.4,1.4,5.2,1.9c0.2,0,0.3,0.1,0.4-0.1c0.1-0.1,0.2-0.1,0.2-0.1 c0.8-0.4,1.7-0.5,2.6-0.6c1.1-0.1,2.3,0.1,3.4,0.3c1.3,0.2,2.5,0.6,3.7,1.1c0.7,0.3,1.4,0.7,1.9,1.3c0.1,0.1,0.2,0.1,0.3,0.1 c1,0,2,0,3,0c0.7,0,1.3,0,2-0.1c0.6,0,1.1-0.1,1.7-0.2C33.5,19.6,34.1,19.4,34.7,19.3z M34.6,25.9C34.6,25.8,34.5,25.8,34.6,25.9 c-1.2-0.8-2.5-1.4-3.7-2c-1.6-0.7-3.2-1.3-4.8-1.7c-0.1,0-0.1,0-0.2,0c-0.3,0.2-0.6,0.4-0.9,0.5c-0.6,0.2-1.2,0.3-1.8,0.3 c-0.8,0-1.6,0-2.4-0.1c-0.5,0-1-0.2-1.4-0.3c-1.3-0.3-2.5-0.6-3.6-1.2c-0.7-0.3-1.3-0.7-1.8-1.3c0,0-0.1,0-0.1,0 c-0.7,0-1.4-0.1-2.1-0.1c-0.6,0-1.2,0-1.8,0c-0.6,0-1.1,0-1.7,0.1c-0.7,0.1-1.4,0.2-2.1,0.3c-0.3,0-0.5,0.1-0.8,0.2c0,0,0,0,0,0.1 c0.1,0.1,0.2,0.1,0.3,0.2c1.1,0.7,2.3,1.3,3.6,1.8c1.5,0.7,3.1,1.2,4.7,1.6c0.1,0,0.1,0,0.2,0c0.2-0.1,0.4-0.3,0.7-0.4 c0.7-0.3,1.4-0.4,2.1-0.4c1.2-0.1,2.4,0,3.5,0.2c1.2,0.2,2.3,0.5,3.3,1c0.9,0.4,1.7,0.8,2.4,1.6c0,0,0.1,0,0.1,0c0.2,0,0.5,0,0.7,0 c0.9,0,1.8,0,2.7,0c0.7,0,1.4-0.1,2.1-0.1c0.6-0.1,1.1-0.1,1.7-0.2C33.7,26,34.2,25.9,34.6,25.9z M28.7,21.4c0.1,0,0.1,0,0.1,0 c1.8,0.6,3.5,1.3,5.2,2.2c0.7,0.4,1.4,0.8,2,1.2c0.3,0.2,0.6,0.2,0.9,0c0,0,0.1,0,0.1-0.1c0.2-0.2,0.3-0.4,0.5-0.6 c0.6-0.6,0.7-1.4,0.3-2.1c-0.4-0.8-1-1.4-1.7-1.9c0,0-0.1,0-0.1,0c-1.1,0.4-2.2,0.7-3.4,0.8c-0.7,0.1-1.3,0.2-2,0.2 C30,21.3,29.4,21.3,28.7,21.4z M11.3,18.6c-0.1,0-0.1,0-0.1-0.1c-0.4-0.2-0.9-0.3-1.3-0.5c-2.1-0.8-4.2-1.8-6.1-3.1 c-0.1,0-0.1-0.1-0.2,0C3.3,15,3,15.1,2.8,15.3c-0.8,0.6-1.1,1.3-0.7,2.3c0.3,0.8,0.9,1.4,1.6,2c0.1,0.1,0.1,0.1,0.2,0 c0.8-0.3,1.6-0.5,2.4-0.6c0.6-0.1,1.1-0.2,1.7-0.2c0.4-0.1,0.9-0.1,1.4-0.1C10,18.6,10.6,18.6,11.3,18.6z M22.8,28 c0.3,0,0.8-0.1,1.3-0.1c0.3,0,0.5-0.2,0.8-0.3c0.2-0.1,0.2-0.2,0-0.3c-0.1-0.1-0.2-0.2-0.3-0.3c-0.5-0.4-1.1-0.7-1.7-0.9 c-1.2-0.5-2.4-0.8-3.7-1c-0.6-0.1-1.3-0.1-1.9-0.2c-0.4,0-0.8,0-1.2,0.1c-0.3,0-0.7,0.1-1,0.3c-0.3,0.1-0.3,0.2-0.1,0.4 c0.1,0.1,0.1,0.2,0.2,0.2c0.4,0.2,0.7,0.5,1.1,0.7C18.4,27.5,20.5,27.9,22.8,28z M25.1,14.5c-0.1-0.3-0.3-0.4-0.5-0.6 c-0.6-0.5-1.3-0.8-2.1-1.1c-1-0.4-2.1-0.7-3.1-0.8c-0.5-0.1-1-0.1-1.5-0.2c-0.7,0-1.4,0-2,0.1c-0.3,0.1-0.6,0.2-0.9,0.3 c-0.1,0-0.1,0.1,0,0.2c0.2,0.2,0.3,0.3,0.5,0.5c0.7,0.5,1.5,0.8,2.3,1.1c0.9,0.3,1.8,0.5,2.7,0.7c0.6,0.1,1.1,0.1,1.7,0.2 c0.8,0.1,1.6,0,2.4-0.1C24.7,14.8,24.9,14.7,25.1,14.5z M17.3,18.4C17.3,18.4,17.3,18.4,17.3,18.4c-0.3,0-0.6,0-0.9,0.1 c-0.4,0.1-0.8,0.1-1.2,0.2c-0.4,0.1-0.4,0.3-0.1,0.6c0,0,0.1,0.1,0.1,0.1c0.5,0.4,1,0.7,1.6,0.9c1.5,0.6,3.2,0.9,4.8,1.1 c0.8,0.1,1.6,0.1,2.4-0.1c0.3-0.1,0.7-0.1,0.9-0.3c0.1-0.1,0.1-0.2,0-0.2c-0.1-0.1-0.2-0.2-0.3-0.3c-0.4-0.4-1-0.6-1.5-0.8 c-1.2-0.5-2.5-0.9-3.8-1C18.7,18.5,18,18.5,17.3,18.4z"/>
</svg>