<!-- (c) Carrd Inc. All rights reserved. All logos and trademarks are property of their respective owners. -->
<svg xmlns="http://www.w3.org/2000/svg" id="icon">
<path d="M34.1,31.3H31c-1.6,0-2.9-1.3-2.9-2.9v-10c0-1.6,1.3-2.9,2.9-2.9h3.1c1.6,0,2.9,1.3,2.9,2.9v10 C37,30,35.7,31.3,34.1,31.3z M21.4,31.3h-3.1c-1.6,0-2.9-1.3-2.9-2.9V7.6c0-1.6,1.3-2.9,2.9-2.9h3.1c1.6,0,2.9,1.3,2.9,2.9v20.7 C24.4,30,23.1,31.3,21.4,31.3z M9,31.3H5.9C4.3,31.3,3,30,3,28.4V15.5c0-1.6,1.3-2.9,2.9-2.9H9c1.6,0,2.9,1.3,2.9,2.9v12.9 C12,30,10.6,31.3,9,31.3z"/>
</svg>