<!-- (c) Carrd Inc. All rights reserved. All logos and trademarks are property of their respective owners. -->
<svg xmlns="http://www.w3.org/2000/svg" id="icon">
<path d="M36.3,13.7c-1.8,6.9-3.7,13.8-5.5,20.7c-0.5,2-1.8,3.2-3.8,3.6c-0.8,0.2-1.5,0-2.3-0.2 c-6-1.6-11.9-3.2-17.9-4.8c-2.5-0.7-4-3.3-3.3-5.8c1.8-6.8,3.6-13.5,5.4-20.3C9,6.2,9.2,5.6,9.4,5.1c0.7-1.7,2-2.7,3.8-3 c0.8-0.1,1.6,0.1,2.4,0.3C21.4,3.9,27.2,5.4,33.1,7c1.7,0.5,2.8,1.5,3.4,3.1c0.2,0.5,0.2,1,0.2,1.6C36.7,12.3,36.5,13,36.3,13.7z M32.6,9.3c-6-1.6-11.9-3.2-17.9-4.8c-0.3-0.1-0.6-0.1-0.9-0.2c-1.1,0-2,0.7-2.3,1.8c-0.9,3.3-1.7,6.5-2.6,9.8 c-1.1,3.9-2.1,7.9-3.2,11.8c-0.4,1.3,0.4,2.6,1.7,3c6,1.6,12.1,3.2,18.1,4.9c1.4,0.4,2.6-0.4,3-1.7c0.4-1.5,0.8-3,1.2-4.5 c1.5-5.7,3-11.3,4.6-17C34.6,10.9,33.9,9.7,32.6,9.3z M29.1,15.5c-0.2,0-0.5,0-0.7,0c-4-1.1-7.9-2.1-11.9-3.2 c-0.6-0.2-1.1-0.3-1.7-0.5c-0.6-0.2-0.9-0.6-0.9-1.2c0-0.8,0.7-1.3,1.5-1.1c1.8,0.5,3.7,1,5.5,1.5c2.7,0.7,5.4,1.4,8.1,2.2 c0.6,0.2,0.9,0.6,0.9,1.2C30,14.9,29.6,15.4,29.1,15.5z M17.5,16.3c3.4,0.9,6.7,1.8,10.1,2.7c0.6,0.2,0.9,0.6,0.9,1.2 c0,0.6-0.4,1-0.9,1.1c-0.1,0-0.2,0-0.2,0c0,0,0,0,0,0c-0.3-0.1-0.6-0.1-0.9-0.2c-4.3-1.2-8.6-2.3-12.9-3.5c-0.9-0.2-1.2-1.1-0.8-1.7 c0.3-0.5,0.8-0.7,1.4-0.6C15.1,15.6,16.3,16,17.5,16.3z M21.2,24.6c-0.2,0.6-0.8,1-1.5,0.8c-2.6-0.7-5.2-1.4-7.9-2.1 c-0.6-0.2-0.9-0.6-0.9-1.2c0-0.8,0.7-1.3,1.5-1.1c2.6,0.7,5.3,1.4,7.9,2.1C21,23.3,21.4,24,21.2,24.6z"/>
</svg>