<!-- (c) Carrd Inc. All rights reserved. All logos and trademarks are property of their respective owners. -->
<svg xmlns="http://www.w3.org/2000/svg" id="icon">
<path d="M24.8,35.7c-6.8,0-13.5,0-20.3,0c0.7-0.8,1.5-1.5,2.1-2.3C7,33,7.2,32.5,7.2,32c0-3.1,0.1-6.2,0-9.2c0-0.5-0.3-1.2-0.6-1.6 c-0.9-1.3-2-2.6-3.1-4.1c1.4,0,2.5,0,3.7,0c0-3.3,0-6.5,0-9.7c0-0.3-0.2-0.6-0.4-0.8C6.1,5.9,5.3,5.1,4.5,4.3c6.5,0,13.1,0,19.6,0 C25,4.5,26,4.5,26.9,4.7c2.3,0.5,4.6,1.2,6.4,2.9c2.3,2.2,3,6.7,0.8,9.1c-0.9,1-1.9,1.8-3.2,2.2c-0.3,0.1-0.5,0.2-0.9,0.4 c0.6,0.2,1,0.4,1.3,0.5c1.8,0.8,3.5,1.7,4.5,3.5c1,1.8,0.7,3.8,0.5,5.8c-0.1,1.2-0.7,2.3-1.6,3.2c-1.6,1.6-3.6,2.3-5.8,2.8 C27.6,35.4,26.2,35.5,24.8,35.7z M16.2,22.3c0,2.7,0,5.2,0,7.8c1.5,0,3,0,4.4,0c1.4,0,2.7,0,4.1-0.2c1.6-0.2,2.5-1.3,2.5-3 c0-0.5,0-1,0-1.6c0-0.8-0.3-1.5-1-1.9c-0.6-0.4-1.3-0.8-1.9-0.8C21.6,22.4,19,22.3,16.2,22.3z M16.2,10.2c0,2.3,0,4.6,0,6.9 c2.4,0,4.7,0.1,7,0c1.1,0,2.3-0.5,2.7-1.6c0.8-2.7,0.4-4.9-2.7-5.2C21,10,18.6,10.2,16.2,10.2z"/>
</svg>