<!-- (c) Carrd Inc. All rights reserved. All logos and trademarks are property of their respective owners. -->
<svg xmlns="http://www.w3.org/2000/svg" id="icon">
<path d="M36,0.9c0,0-0.1,0.1-0.1,0.1c-0.1,0.4-0.2,0.9-0.4,1.3c0,0.1-0.1,0.1-0.1,0.2c-0.1,0.1-0.2,0.2-0.2,0.3 c0,0.3-0.2,0.5-0.3,0.7c-0.1,0.1-0.1,0.3-0.1,0.4c-0.1,0.2-0.1,0.3-0.2,0.5c-0.1,0.3-0.2,0.5-0.2,0.8c0,0.1-0.1,0.1-0.1,0.2 c-0.1,0.1-0.1,0.3-0.2,0.4C34,6,34,6.1,34,6.1c-0.1,0.1-0.1,0.3-0.2,0.5c0,0.2-0.1,0.4-0.2,0.6c0,0.1-0.1,0.2-0.1,0.3 c-0.1,0.1-0.1,0.3-0.2,0.4C33.1,8.2,33,8.6,32.9,9c0,0.2-0.2,0.5-0.3,0.7c-0.1,0.4-0.3,0.7-0.4,1.1c-0.1,0.4-0.3,0.7-0.4,1.1 c-0.1,0.2-0.1,0.4-0.2,0.6c0,0.1-0.1,0.2-0.2,0.3c0,0.1,0,0.2,0,0.3c0.1,0,0.2,0,0.3,0c0.1,0,0.1-0.1,0.2-0.1c0.2-0.1,0.3,0,0.3,0.2 c0,0.4-0.2,0.8-0.4,1.1c-0.1,0.1-0.2,0.2-0.2,0.4c0,0,0,0,0,0.1c-0.3,0.2-0.3,0.5-0.4,0.7c-0.1,0.1-0.1,0.3-0.2,0.4 c-0.1,0.1-0.2,0.3-0.2,0.4c-0.1,0.1-0.1,0.3,0,0.4c0,0,0.1-0.1,0.1-0.1c0,0,0.1,0,0.1,0c0,0.1,0,0.1,0,0.1c-0.2,0.1-0.3,0.3-0.5,0.4 c-0.1,0.1-0.1,0.1-0.2,0.2c-0.3,0.2-0.4,0.6-0.6,0.9c-0.2,0.4-0.4,0.9-0.6,1.3c0,0.1,0,0.2-0.1,0.3c0,0.2-0.1,0.3-0.1,0.5 c0,0,0,0,0,0.1c0,0.1,0,0.2,0,0.3c0.1,0,0.2-0.1,0.2-0.1c0.1-0.1,0.1-0.3,0.2-0.4c0,0,0-0.1,0-0.1c0-0.1-0.1-0.2,0-0.2 c0.1-0.2,0.2-0.4,0.4-0.5c0.2-0.1,0.3,0,0.3,0.2c0,0.1,0,0.3-0.1,0.4c0,0.1-0.1,0.1-0.1,0.1c0.1,0.3-0.1,0.6-0.1,0.9 c0,0.1,0,0.2,0.1,0.2c0,0,0.2,0,0.2,0c0.1-0.1,0.2-0.2,0.3-0.4c0,0,0.1-0.1,0.1-0.1c0.4-0.2,0.7-0.7,1-1c0.1-0.1,0.2-0.1,0.3-0.2 c0.1,0,0.2-0.1,0.3-0.1c0.3-0.2,0.5-0.4,0.8-0.7c0.2-0.2,0.4-0.4,0.6-0.5c0.1-0.1,0.2-0.1,0.3-0.1c0.1,0,0.2,0,0.3-0.1 c0.3-0.2,0.5-0.2,0.7,0c0.1,0.1,0.1,0,0.2-0.1c0.1-0.6,0.1-1.1,0-1.7c-0.1-0.3-0.2-0.6-0.5-0.8c-0.3-0.3-0.7-0.3-1.1-0.2 c-0.5,0.1-0.9,0.4-1.3,0.6c-0.1,0-0.1,0.2-0.2,0.2c-0.2,0.1-0.4,0.3-0.6,0.4c-0.1,0-0.2,0-0.3,0c0-0.1,0-0.2,0-0.2 c0.1-0.1,0.1-0.2,0.2-0.3c0,0,0.1-0.1,0.2-0.1c0.2,0,0.4-0.1,0.6-0.3c0.2-0.1,0.3-0.3,0.4-0.5c0.1-0.1,0.2-0.2,0.3-0.2 c0.3,0,0.6,0,1-0.2c0,0,0.1,0,0.1,0c0.3,0.1,0.7,0.2,1,0.2c0.1,0,0.2,0.1,0.2,0.2c0,0.1,0,0.1,0.1,0.2c0.2,0.1,0.2,0.2,0.2,0.3 c0.1,0.3,0.2,0.6,0.3,0.9c0.2,0.4,0.3,0.8,0.1,1.3c0,0,0,0.1,0,0.1c0.1,0.2,0,0.4-0.1,0.6c-0.2,0.2-0.1,0.5-0.2,0.7 c0,0.2,0,0.4-0.1,0.6c-0.1,0.3-0.2,0.7-0.3,1c0,0.1-0.1,0.2-0.1,0.2c-0.1,0.2-0.1,0.3-0.1,0.5c0,0.1-0.1,0.2-0.1,0.2 c-0.1,0.1-0.1,0.2-0.1,0.3c0.1,0.1,0,0.2,0,0.3c-0.1,0.3-0.2,0.7-0.3,1c-0.1,0.2-0.1,0.5-0.3,0.6c-0.2,0.2-0.2,0.4-0.3,0.6 c-0.1,0.3-0.3,0.5-0.4,0.8c0,0-0.1,0.1,0,0.1c0.1,0.3-0.1,0.5-0.2,0.8c-0.1,0.2-0.2,0.5-0.3,0.7c0,0.1,0,0.1-0.1,0.2 c-0.4,0.2-0.4,0.7-0.6,1c-0.1,0.1-0.2,0.3-0.3,0.4c-0.1,0.1-0.3,0.3-0.3,0.5c-0.1,0.2-0.2,0.5-0.3,0.7c0,0.1-0.1,0.1-0.1,0.1 C31,29.8,31,29.9,31,30c0,0.1-0.1,0.2-0.1,0.3c-0.1,0.1-0.1,0.3-0.2,0.4c-0.1,0.2-0.2,0.3-0.4,0.5c-0.1,0.1-0.1,0.2-0.1,0.3 c0,0.2-0.1,0.3-0.2,0.4c-0.1,0.1-0.2,0.3-0.2,0.4c0,0.1-0.1,0.2-0.2,0.2c-0.2,0.2-0.4,0.4-0.4,0.7c0,0.2-0.2,0.4-0.3,0.5 c-0.1,0.2-0.2,0.3-0.3,0.5c-0.1,0.2-0.2,0.4-0.3,0.5c-0.1,0.2-0.2,0.4-0.3,0.6c-0.1,0.1-0.2,0.2-0.3,0.3c-0.2,0.1-0.3,0.3-0.4,0.4 c-0.1,0.2-0.1,0.3-0.2,0.5c0,0.1-0.1,0.1-0.1,0.2c-0.4,0.3-0.7,0.7-1,1.1c-0.4,0.5-0.7,0.9-1.1,1.4c-0.1,0.1-0.2,0.2-0.3,0.3 c-0.1,0.1-0.2,0.2-0.2,0.3c0,0.1-0.1,0.1-0.2,0.1c0-0.1-0.1-0.1-0.1-0.2c0-0.3-0.3-0.5-0.6-0.5c-0.3,0-0.6,0-0.9,0 c-0.5,0-0.7-0.3-0.7-0.7c0-2.5,0-4.9,0-7.4c0-0.5-0.3-0.8-0.8-0.8c-1.4,0-2.8,0-4.2,0c-0.4,0-0.7,0.3-0.7,0.7c0,0.5,0,1,0,1.6 c0,0.3,0.3,0.6,0.6,0.6c0.3,0,0.7,0,1,0c0.4,0,0.7,0.3,0.7,0.7c0,0.8,0,1.5,0,2.3c0,0.8,0,1.5,0,2.3c0,0.5-0.2,0.8-0.8,0.8 c-0.2,0-0.4,0-0.5,0c-0.2,0-0.3,0-0.3-0.2c-0.1-0.2-0.2-0.3-0.3-0.5c-0.1-0.1-0.2-0.2-0.3-0.3c-0.6-0.4-1.3-0.9-1.9-1.3 c-0.2-0.2-0.5-0.4-0.7-0.6c-0.1-0.2-0.3-0.4-0.5-0.5c-0.3-0.2-0.6-0.5-0.9-0.7c-0.2-0.2-0.4-0.4-0.7-0.6c-0.1-0.1-0.2-0.1-0.3-0.1 c-0.2,0-0.4-0.1-0.5-0.3c0,0-0.1-0.1-0.1-0.1c-0.2,0-0.2-0.1-0.2-0.3c0-0.1-0.1-0.2-0.2-0.1c-0.2,0.1-0.3-0.1-0.4-0.2 c-0.1-0.2-0.2-0.2-0.4-0.2c0,0-0.1,0-0.1-0.1c-0.1-0.2-0.3-0.3-0.5-0.4c-0.1,0-0.2-0.1-0.3-0.2c-0.1,0-0.1-0.1-0.1-0.1 c-0.2-0.1-0.3-0.3-0.3-0.5c0-0.2-0.1-0.3-0.3-0.3c-0.2,0.1-0.4-0.1-0.5-0.3c0-0.1-0.1-0.1-0.1-0.1C7.1,31.2,7,31.1,7,31 c0-0.1,0-0.2-0.1-0.3c0,0-0.1,0-0.1-0.1c-0.2-0.2-0.3-0.4-0.5-0.6c-0.1-0.2-0.3-0.3-0.5-0.2c-0.2,0-0.3-0.1-0.3-0.3 c0-0.1-0.1-0.2-0.2-0.3c-0.1-0.2-0.2-0.1-0.3-0.2c-0.2-0.1-0.4-0.3-0.5-0.4c0,0,0-0.1,0-0.2c0-0.1,0-0.2-0.1-0.2 c-0.2,0-0.4-0.2-0.4-0.4c0-0.1-0.1-0.2-0.2-0.3c0,0-0.2-0.1-0.2,0c-0.1,0.1-0.2,0.1-0.3-0.1c-0.1-0.1-0.2-0.2-0.3-0.3 C3,27,2.9,26.8,2.6,26.6c-0.1-0.1-0.2-0.3-0.3-0.4c0,0,0,0,0,0C2.3,26,2.2,25.9,2,25.9c-0.1-0.1-0.3-0.2-0.4-0.3 c-0.2-0.2-0.1-0.5,0.1-0.6c0.2-0.1,0.4-0.1,0.6-0.2c0.2-0.1,0.4,0,0.6,0.1C3,24.9,3.1,24.9,3.3,25c0.1,0,0.2,0,0.3,0.1 c0.2,0.1,0.5,0.1,0.7,0.2c0.1,0,0.1,0.1,0.2,0.1c0.1,0.1,0.2,0.1,0.3,0.2c0.1,0,0.1,0.1,0.2,0.2c0,0.1,0,0.2,0.1,0.2 c0.1,0.2,0.1,0.2,0.2,0c0,0,0.1-0.1,0.2-0.1c0.1,0,0.1,0.1,0.2,0.1c0.1,0.2,0.1,0.2,0.3,0.1c0,0,0.1,0,0.1,0c0.1,0,0.1,0,0.2-0.1 c0-0.1,0-0.1-0.1-0.2c0-0.1-0.1-0.1-0.1-0.1c0-0.1,0-0.2,0.1-0.2c0.3-0.1,0.5-0.1,0.8-0.2c0.2,0,0.4,0.1,0.4,0.3c0,0,0,0.1,0.1,0.1 c0.2,0.2,0.4,0.4,0.8,0.5c0.1,0,0.3,0.2,0.4,0.3c0,0,0.1,0,0.1,0.1c0-0.1,0-0.1,0-0.2c0,0,0-0.1,0-0.1c-0.3-0.3-0.4-0.7-0.6-1 c-0.1-0.3-0.3-0.5-0.5-0.7c0-0.1-0.1-0.1-0.1-0.2c-0.1-0.3-0.3-0.6-0.4-0.8c-0.3-0.5-0.5-0.9-0.8-1.4c-0.2-0.3-0.4-0.7-0.6-1 c-0.4-0.6-0.7-1.3-1.1-1.9c-0.2-0.3-0.4-0.6-0.6-1c-0.1-0.1-0.1-0.3-0.1-0.4c-0.2-0.3-0.3-0.5-0.5-0.7c-0.1-0.2-0.2-0.4-0.1-0.7 c0-0.1,0.1-0.1,0.2-0.1c0.5,0,0.8,0.3,1,0.7c0,0,0,0.1,0.1,0.1c0.2,0.2,0.3,0.4,0.5,0.6c0.3,0.4,0.7,0.7,1,1.1 c0.1,0.1,0.3,0.3,0.4,0.4c0.1,0.1,0.1,0.3,0.2,0.5c0.3-0.1,0.3,0.2,0.5,0.4c0,0,0.1,0.1,0.2,0.1c0-0.1,0-0.1,0-0.2 c-0.1-0.4-0.2-0.8-0.3-1.2c-0.1-0.3-0.1-0.6-0.1-1c-0.1-0.4-0.1-0.9-0.3-1.2c0,0,0-0.1,0-0.2c0-0.2,0.1-0.4,0.2-0.6c0,0,0-0.1,0-0.1 c0-0.3-0.1-0.6-0.1-0.9c0-0.2,0-0.4,0-0.5c0-0.3-0.1-0.5-0.2-0.7c0-0.1,0-0.2-0.1-0.3c0-0.1,0-0.3,0-0.4c0-0.2,0-0.4,0-0.5 c0,0,0-0.1,0-0.1c0.1-0.1,0.1-0.2,0-0.3c0,0,0-0.2,0-0.2c0.1-0.1,0.1-0.2,0-0.3c-0.1-0.1-0.1-0.2-0.1-0.3c0-0.2,0.1-0.4,0.2-0.5 c0.1-0.2,0.2-0.4,0.1-0.6c0-0.1,0-0.3,0.2-0.3c0.1,0,0.1-0.2,0-0.2C6.6,9.4,6.6,9.3,6.7,9.2C6.8,9,7,8.8,7.1,8.7c0,0,0.1,0,0.2,0 c0.2-0.1,0.4-0.1,0.5-0.2c0.2-0.1,0.5-0.1,0.7,0c0.1,0,0.1,0.1,0.2,0.1c0.1,0,0.1,0,0.2,0.1c0.2,0.1,0.4,0.3,0.6,0.5 c0.2,0.4,0.5,0.8,0.8,1.2c0.1,0.2,0.2,0.4,0.3,0.5c0.1,0.1,0.1,0.2,0.2,0.3c0.2,0.1,0.3,0.3,0.4,0.5c0.1,0.2,0.2,0.4,0.3,0.6 c0.1,0.1,0.1,0.3,0.2,0.4c0,0.1,0.1,0.1,0.1,0.2c0.2,0.3,0.4,0.6,0.6,0.9c0.2,0.4,0.4,0.7,0.6,1.1c0,0,0.1,0.1,0.1,0.1 c0,0.2,0.1,0.3,0.2,0.4c0,0,0.1,0.1,0.1,0.2c-0.1,0.2,0,0.2,0.1,0.3c0.2,0.2,0.3,0.4,0.3,0.7c0,0.1,0,0.1,0.1,0.2 c0.2,0.2,0.3,0.4,0.4,0.6c0.1,0.1,0.1,0.3,0.1,0.4c0,0.1,0.1,0.3,0.2,0.4c0.1,0.2,0.2,0.3,0.2,0.5c0,0.1,0.1,0.2,0,0.4 c0,0,0.1,0.1,0.1,0.1c0,0,0.1,0.1,0.1,0.1c0.2,0.5,0.4,0.9,0.6,1.4c0,0.1,0.1,0.1,0.1,0.2c0,0.4,0.3,0.7,0.4,1 c0.3,0.5,0.6,1.1,0.9,1.6c0.2,0.3,0.4,0.7,0.6,1c0,0,0.1,0.1,0.1,0.1c0-0.1,0.1-0.1,0-0.2c-0.1-0.3-0.2-0.7-0.1-1.1 c0.1-0.6,0-1.1-0.1-1.7c0-0.1,0-0.1,0-0.2c0-0.3,0.1-0.4,0.4-0.3c0.1,0,0.1,0,0.2,0c0.2-0.2,0.4-0.1,0.6,0.1 c0.1,0.1,0.1,0.1,0.2,0.2c0.1,0.1,0.1,0.1,0.2,0c0.1-0.2,0.1-0.3,0.2-0.5c0.3-0.3,0.3-0.7,0.4-1c0.1-0.2,0.2-0.4,0.4-0.6 c0-0.1,0.1-0.2,0.1-0.3c0.2-0.5,0.4-0.9,0.7-1.3c0.1-0.1,0.1-0.2,0.1-0.2c0-0.1,0.1-0.3,0.1-0.4c0.3-0.4,0.5-0.8,0.8-1.2 c0,0,0,0,0,0c0.2-0.6,0.7-1,1-1.5c0.1-0.1,0.2-0.3,0.2-0.5c0,0,0-0.1,0.1-0.1c0.4-0.5,0.7-1.1,1.1-1.6c0.1-0.1,0.2-0.2,0.2-0.3 c0.1-0.1,0.1-0.1,0.1-0.2c0-0.2,0.2-0.4,0.4-0.5c0.3-0.3,0.5-0.6,0.7-0.8c0.1-0.2,0.2-0.3,0.5-0.5c0.2-0.1,0.2-0.3,0.4-0.4 c0.1-0.1,0.3-0.3,0.4-0.4c0.1-0.1,0.3-0.3,0.3-0.5c0.1-0.2,0.2-0.3,0.3-0.3c0.5-0.2,0.8-0.5,1.2-0.7c0.1-0.1,0.2-0.2,0.3-0.4 c0,0,0-0.1,0.1-0.1c0.3-0.3,0.3-0.7,0.6-1c0.3-0.4,0.6-0.8,0.9-1.2c0.1-0.2,0.3-0.4,0.5-0.5c0,0,0.1-0.1,0.1-0.1 c0.1-0.3,0.3-0.5,0.5-0.7c0.1-0.1,0.3-0.2,0.3-0.4c0.1-0.3,0.3-0.5,0.5-0.8C32.8,2.1,32.8,2,32.8,2c0.1-0.1,0.2-0.2,0.2-0.3 c0,0,0.1-0.1,0.1-0.1c0.1-0.2,0.3-0.4,0.5-0.5c0.2-0.1,0.4-0.3,0.5-0.6c0.1-0.2,0.3-0.3,0.6-0.4C34.9,0.1,35,0,35,0 c0.1,0,0.2,0,0.4,0c0,0,0.1,0.1,0.1,0.1c0.2,0,0.3,0.1,0.5,0.1C36,0.5,36,0.7,36,0.9z M24.8,19.8c0,0.1,0,0.3,0,0.4 c-0.1,0.3-0.2,0.6-0.2,1c0,0.2-0.1,0.4-0.2,0.6c-0.1,0.1-0.1,0.2-0.3,0.1c-0.1-0.1,0-0.2,0-0.3c0,0,0-0.1,0-0.1c0,0-0.1,0-0.1,0 c-0.1,0-0.2,0.1-0.1,0.2c0.1,0.2,0,0.3-0.2,0.4c0,0-0.1,0.1-0.1,0.1c-0.1,0.2-0.1,0.4-0.2,0.6c0,0.1-0.1,0.2-0.1,0.3 c-0.1,0.2-0.2,0.4-0.2,0.5c0,0.3,0,0.5-0.2,0.7c-0.2,0.3-0.3,0.5-0.3,0.9c0,0.3-0.2,0.6-0.3,0.8c0,0.1,0,0.1,0,0.2 c0,0,0.1,0.1,0.2,0.1c0,0,0.1-0.1,0.1-0.1c0.1-0.2,0.1-0.5,0.2-0.7c0.1-0.2,0.2-0.5,0.3-0.7c0.1-0.3,0.3-0.6,0.4-0.9 c0-0.1,0-0.1,0-0.2c-0.1-0.2,0-0.3,0.1-0.5c0.1-0.2,0.2-0.3,0.4-0.5c0,0,0-0.1,0.1-0.1c0.2-0.1,0.3-0.3,0.4-0.4 c0.2-0.2,0.3-0.5,0.5-0.7c0.2-0.3,0.5-0.6,0.7-1c0.1-0.2,0.2-0.3,0.1-0.5c0-0.1,0-0.2,0-0.2c0.1-0.3,0.1-0.4-0.2-0.5 c-0.2-0.1-0.3-0.3-0.2-0.5c0.1-0.1,0.2-0.2,0.2-0.2c0.1-0.1,0.2-0.1,0.3-0.1c0.1,0,0.1,0.2,0.2,0.3c0,0.1,0,0.2,0.1,0.4 c0,0,0.1,0.1,0.1,0.1c0,0,0.1-0.1,0.1-0.1c0.1-0.2,0.1-0.3,0.2-0.5c0.3-0.5,0.5-1,0.6-1.6c0-0.1,0.1-0.2-0.1-0.3c0,0-0.1-0.1,0-0.2 c0,0,0.1-0.1,0.1-0.1c0,0,0.1,0,0.1,0c0.2,0.1,0.3,0,0.3-0.2c0-0.1,0-0.1,0-0.2c0-0.3,0.1-0.5,0.2-0.8c0.1-0.3,0.3-0.6,0.4-0.9 c0-0.1,0-0.1,0.1-0.2c0.1-0.2,0.3-0.3,0.3-0.5c0,0,0-0.1,0-0.1c0.1-0.2,0.2-0.3,0.2-0.5c0.1-0.5,0.6-0.9,0.6-1.5 c0.2-0.2,0.3-0.4,0.3-0.7c0.2-0.2,0.3-0.5,0.3-0.9c0,0,0,0,0,0c0.1-0.3,0.3-0.6,0.4-0.9c0,0,0-0.1,0-0.1c0-0.3,0-0.6,0-0.9 c0-0.4-0.2-0.7-0.6-0.6c-0.1,0-0.2,0.1-0.2,0.2c-0.1,0.1-0.1,0.3-0.2,0.5C29.3,8.5,29,8.6,29,9c0,0,0,0,0,0 c-0.2,0.4-0.5,0.7-0.7,1.1c0,0.1-0.1,0.1-0.1,0.2c-0.1,0.1-0.1,0.3-0.2,0.4c-0.1,0.1-0.2,0.3-0.3,0.4c-0.1,0.1-0.1,0.2-0.2,0.3 c-0.1,0.2-0.3,0.5-0.4,0.7c-0.2,0.3-0.3,0.8-0.6,1.1c0,0,0,0.1,0,0.1c0,0.1-0.1,0.2-0.1,0.3c-0.1,0.1-0.2,0.2-0.2,0.3 c-0.2,0.4-0.4,0.8-0.6,1.2c-0.1,0.1-0.1,0.2-0.1,0.3c-0.1,0.4-0.3,0.7-0.5,1.1c-0.1,0.2-0.3,0.5-0.5,0.7c-0.1,0.1-0.2,0.3-0.3,0.4 c-0.1,0.1-0.1,0.2-0.1,0.3c0,0.1,0,0.2-0.1,0.3c-0.1,0.2-0.3,0.5-0.4,0.7c-0.1,0.3-0.3,0.6-0.4,0.8c-0.1,0.3-0.3,0.6-0.4,0.8 c-0.2,0.3-0.3,0.7-0.4,1c0,0.1-0.1,0.2-0.1,0.2c-0.2,0.3-0.4,0.5-0.4,0.9c0,0,0,0.1,0,0.1c-0.1,0.3-0.2,0.5-0.3,0.8 c-0.1,0.2-0.1,0.5,0,0.7c0.1,0.2,0.2,0.5,0.1,0.8c0,0.1,0,0.3,0,0.5c0,0,0.1,0.1,0.1,0.1c0,0,0.1-0.1,0.1-0.1c0-0.1,0-0.1,0.1-0.2 c0.2-0.5,0.4-0.9,0.6-1.4c0,0,0,0,0,0c0.1-0.4,0.2-0.8,0.4-1.2c0.1-0.2,0.1-0.4,0.2-0.6c0.1-0.3,0.2-0.5,0.3-0.8 c0.1-0.2,0.1-0.5,0.2-0.7c0-0.1,0.1-0.2,0.2-0.3c0.1-0.1,0.2-0.3,0.2-0.4c0.1-0.3,0.2-0.6,0.4-0.8c0.1-0.1,0.2-0.1,0.2-0.1 c0.1,0,0.2,0,0.4,0.1c0,0.1-0.1,0.2-0.2,0.3c-0.2,0.1-0.3,0.4-0.4,0.6c0,0,0,0.1,0,0.2C24.5,20,24.6,19.8,24.8,19.8z M27.2,18.5 C27.2,18.6,27.2,18.6,27.2,18.5c0.2,0,0.3-0.1,0.3-0.2c0.1-0.2,0.2-0.4,0.4-0.5c0.1,0,0.1-0.2,0.2-0.2c0.1-0.1,0.2-0.3,0.3-0.4 c0.3-0.4,0.7-0.7,0.9-1.2c0,0,0,0,0,0c0.3-0.2,0.4-0.5,0.5-0.9c0.1-0.2,0.2-0.4,0.3-0.6c0.1-0.2,0.2-0.3,0.2-0.5 c0.1-0.6,0.3-1.1,0.6-1.6c0.2-0.3,0.3-0.7,0.4-1.1c0-0.1,0.1-0.2,0.1-0.2c0.1-0.1,0.1-0.2,0.2-0.4c0.1-0.2,0.1-0.4,0.2-0.7 c0.1-0.4,0.4-0.8,0.4-1.3c0-0.1,0-0.1,0.1-0.2c0.2-0.2,0.3-0.4,0.3-0.7c0-0.1,0.1-0.2,0.1-0.3c0.2-0.2,0.3-0.4,0.3-0.7 c0-0.3,0.1-0.6,0.3-0.8c0.1-0.1,0.2-0.2,0.2-0.4c0-0.2,0.1-0.4,0.1-0.6c0.1-0.3,0.2-0.7,0.4-1c0.2-0.4,0.4-0.8,0.5-1.2 c0.1-0.1,0.1-0.3,0.1-0.4c0-0.2,0-0.5,0.2-0.7C35,1.7,35,1.5,35,1.3C35,1.1,35,1,35.1,0.9c0,0,0-0.1,0-0.1c0,0-0.1,0-0.1,0 c-0.2,0.1-0.5,0.2-0.6,0.4c-0.1,0.1-0.2,0.2-0.3,0.3c-0.2,0.2-0.4,0.4-0.6,0.6c-0.1,0.1-0.2,0.2-0.2,0.3c0,0.1,0,0.2-0.1,0.2 c0,0.1,0,0.2-0.1,0.3c-0.2,0.2-0.4,0.5-0.6,0.8c-0.1,0.2-0.3,0.2-0.3,0.4c0,0.1-0.1,0.1-0.1,0.1c-0.1,0.1-0.1,0.2-0.2,0.3 c-0.1,0.2-0.3,0.4-0.4,0.6c-0.1,0.1-0.3,0.2-0.2,0.4c0,0-0.1,0.1-0.1,0.1C31,5.6,31,5.7,30.9,5.9c0,0,0,0.1-0.1,0.1 c-0.2,0.3-0.4,0.6-0.5,0.9c0,0,0,0.1,0,0.2c0.2,0.2,0.4,0.4,0.6,0.7C31,7.7,31.1,7.9,31,8c-0.1,0.4-0.1,0.7-0.1,1.1 c0,0.2,0,0.4-0.1,0.5c-0.1,0.3-0.3,0.5-0.3,0.8c0,0.1,0,0.1-0.1,0.2c-0.1,0.3-0.3,0.5-0.2,0.8c0,0.1,0,0.2-0.1,0.3 c-0.2,0.2-0.3,0.5-0.3,0.8c0,0.1,0,0.2-0.1,0.3c-0.1,0.3-0.3,0.5-0.4,0.8c-0.2,0.4-0.4,0.9-0.6,1.3c-0.1,0.4-0.3,0.7-0.6,1 c0,0-0.1,0.1-0.1,0.1c0,0.2-0.1,0.5-0.1,0.7c0,0.2-0.1,0.3-0.2,0.4c-0.1,0.1-0.2,0.2-0.2,0.4c0,0.1-0.1,0.3-0.2,0.4 C27.3,18.2,27.3,18.3,27.2,18.5z M24.3,38.3c0,0.1,0.1,0.1,0.1,0.1c0,0,0.1,0,0.1-0.1c0.1-0.1,0.3-0.3,0.4-0.4 c0.3-0.4,0.7-0.8,0.9-1.2c0.4-0.6,0.8-1.2,1.3-1.8c0.3-0.4,0.5-0.8,0.7-1.2c0.1-0.2,0.3-0.5,0.4-0.7c0.6-0.7,1-1.5,1.4-2.3 c0.2-0.4,0.4-0.7,0.6-1.1c0.1-0.2,0.3-0.4,0.4-0.6c0.3-0.7,0.6-1.4,1.1-1.9c0,0,0-0.1,0.1-0.1c0.2-0.5,0.5-1,0.7-1.5 c0.2-0.3,0.3-0.7,0.5-1c0.1-0.3,0.2-0.6,0.3-0.9c0-0.1,0.1-0.2,0.1-0.3c0.1-0.2,0.2-0.4,0.3-0.6c0.1-0.2,0.2-0.4,0.2-0.5 c0.1-0.5,0.3-1,0.4-1.4c0.1-0.3,0.2-0.6,0.3-0.9c0,0,0-0.1-0.1-0.1c0,0-0.1,0-0.1,0.1c-0.1,0.1-0.1,0.2-0.2,0.3 c-0.2,0.3-0.3,0.6-0.5,0.9c-0.1,0.2-0.4,0.4-0.4,0.7c0,0-0.1,0.1-0.1,0.1c-0.2,0.3-0.4,0.6-0.6,0.8c-0.2,0.3-0.4,0.6-0.6,0.9 c-0.1,0.1-0.1,0.3-0.2,0.4c-0.1,0.2-0.2,0.4-0.3,0.6c-0.1,0.2-0.4,0.4-0.4,0.7c0,0-0.1,0.1-0.1,0.1c-0.1,0.1-0.2,0.2-0.2,0.4 c-0.2,0.4-0.4,0.8-0.6,1.2c-0.2,0.3-0.4,0.7-0.6,1c-0.2,0.3-0.4,0.6-0.5,0.9c-0.1,0.1-0.1,0.3-0.2,0.4c-0.2,0.2-0.3,0.3-0.3,0.6 c0,0,0,0,0,0c-0.2,0.3-0.3,0.5-0.5,0.8c-0.1,0.2-0.2,0.4-0.3,0.6c-0.1,0.2-0.2,0.4-0.3,0.6c-0.1,0.2-0.2,0.4-0.4,0.6 c0,0-0.1,0.1-0.1,0.1c-0.2,0.4-0.4,0.8-0.6,1.1c0,0.1-0.1,0.1-0.1,0.2c0.1,0.2,0,0.3-0.1,0.4c-0.2,0.3-0.5,0.5-0.5,0.9 c0,0.1-0.1,0.1-0.1,0.2c0,0.1-0.1,0.2-0.1,0.3c0,0.2-0.1,0.3-0.2,0.4c-0.1,0.1-0.2,0.1-0.3,0.2c-0.3,0.3-0.3,0.8-0.5,1.2 c0,0,0,0,0,0.1c0,0.1-0.1,0.3-0.1,0.4C24.5,38,24.4,38.1,24.3,38.3z M7.4,8.9C7.4,9,7.3,9.1,7.2,9.1c-0.1,0.1,0,0.2,0,0.3 c0,0,0,0.1,0,0.2C7.1,9.7,7,9.8,7,10c0,0.3,0,0.5-0.1,0.8c-0.1,0.2-0.1,0.3,0,0.5c0,0,0,0.1,0,0.2c0,0.3,0,0.6-0.1,1c0,0,0,0,0,0.1 c0,0.1,0,0.3,0,0.4c0,0,0,0.1,0,0.1c0,0.1,0.1,0.2,0.1,0.3c0,0.2,0,0.3,0,0.5c0,0.2,0,0.5,0,0.7c0,0.2,0.1,0.3,0.2,0.2 c0.4-0.2,0.7-0.2,1.1-0.1c0.2,0,0.4,0.1,0.5,0c0,0,0.1,0,0.1,0c0.2,0.1,0.4,0.2,0.6,0.3C9.9,14.9,10,15,10.1,15 c0.2,0.1,0.3,0.1,0.4,0.3c0,0,0.1,0.1,0.2,0.1c0.1,0,0.2,0.1,0.2,0.1c0.2,0.2,0.3,0.4,0.6,0.5c0,0,0.1,0,0.1,0.1 c0.1,0.2,0.3,0.3,0.5,0.4c0,0,0.1,0,0.1,0.1c0.2,0.1,0.3,0.3,0.3,0.5c0,0.1,0.1,0.1,0.1,0.2c0.3,0.1,0.4,0.3,0.5,0.5 c0,0.1,0.1,0.2,0.1,0.2c0.2,0.1,0.3,0.2,0.4,0.3c0,0,0.1,0.1,0.1,0.1c0-0.1,0-0.1,0-0.2c0-0.1-0.1-0.1-0.1-0.2 c-0.1-0.2-0.1-0.4-0.2-0.6c-0.3-0.5-0.5-1.1-0.8-1.6c-0.1-0.2-0.2-0.5-0.4-0.7c0,0,0-0.1,0-0.1c0.1-0.2-0.1-0.3-0.1-0.4 c-0.1-0.2-0.3-0.4-0.4-0.7c-0.2-0.4-0.3-0.7-0.6-1C11,13,11,12.9,11,12.8c-0.1-0.2-0.1-0.3-0.2-0.5c-0.1-0.1-0.2-0.2-0.2-0.4 c0,0,0-0.1-0.1-0.1c-0.1-0.1-0.3-0.2-0.4-0.4c-0.2-0.3-0.4-0.7-0.7-1c-0.1-0.2-0.3-0.3-0.5-0.5c-0.3-0.3-0.5-0.8-1-0.8 c0,0,0,0-0.1,0C7.7,9,7.6,9,7.4,8.9z M27.2,30.6C27.2,30.6,27.3,30.6,27.2,30.6c0-0.3,0.3-0.4,0.4-0.6c0.2-0.3,0.3-0.6,0.5-0.9 c0.4-0.7,0.7-1.3,1.1-2c0.2-0.4,0.4-0.7,0.6-1.1c0,0,0-0.1,0-0.1c0,0-0.1,0-0.1,0c-0.1,0.1-0.2,0.1-0.3,0.2c-0.1,0.1-0.2,0.1-0.3,0 c-0.1-0.1,0-0.2,0.1-0.3c0.4-0.3,0.7-0.8,1.1-1c0.1-0.1,0.2-0.1,0.3-0.1c0.1,0,0.2,0,0.2-0.1c0.1-0.2,0.2-0.4,0.3-0.6 c0.2-0.4,0.4-0.8,0.7-1.1c0,0,0.1-0.1,0.1-0.2c0-0.1,0.1-0.2,0.1-0.2c0-0.1,0.1-0.2,0.2-0.2c0.3-0.4,0.5-0.8,0.8-1.2 c0.2-0.2,0.3-0.5,0.5-0.7c0.1-0.2,0.2-0.4,0.3-0.5c0.1-0.2,0.2-0.3,0.3-0.5c0,0,0-0.1,0-0.2c0,0-0.1,0-0.2,0 c-0.2,0.1-0.3,0.1-0.5,0.2c-0.4,0.2-0.7,0.5-1.1,0.7c-0.3,0.2-0.6,0.5-0.9,0.8c-0.2,0.3-0.5,0.5-0.8,0.8c-0.1,0.1-0.3,0.2-0.4,0.3 c-0.2,0.4-0.5,0.7-0.9,1.1c-0.2,0.2-0.3,0.3-0.5,0.5c-0.1,0.1-0.2,0.3-0.2,0.4c-0.1,0.2-0.1,0.3-0.2,0.5c-0.2,0.4-0.3,0.8-0.5,1.2 c-0.1,0.3-0.3,0.6-0.4,1c-0.1,0.1-0.1,0.3-0.2,0.4c-0.1,0.3-0.2,0.5-0.2,0.8c0,0.1,0,0.2-0.1,0.3c0,0.2,0,0.4-0.3,0.5 c0.1,0.2,0.1,0.2,0,0.5c0,0.1,0,0.1,0,0.2c0,0,0.1,0.1,0.1,0.1c0.2,0,0.2,0,0.2,0.3c0,0,0,0.1,0,0.1c0.1,0,0.1-0.1,0.1-0.1 c0.1,0,0.1,0,0.2,0.1c0,0,0,0.1,0,0.1c-0.1,0.2-0.3,0.3-0.5,0.3c-0.1,0.3-0.5,0.6-0.5,1c0.1,0,0.1,0,0.2-0.1 c0.1-0.1,0.1-0.2,0.2-0.3C26.9,30.4,27,30.4,27.2,30.6C27.2,30.6,27.2,30.6,27.2,30.6z M3.1,26.1c0.3-0.1,0.4-0.1,0.5,0.2 c0,0.1,0.1,0.2,0.2,0.3c0.1,0.1,0.2,0.2,0.3,0.3c0.3,0.3,0.5,0.7,0.9,0.9c0,0,0,0,0.1,0.1c0.2,0.2,0.3,0.4,0.5,0.5 c0.3,0.2,0.6,0.5,0.7,0.8c0,0.1,0.1,0.1,0.1,0.1c0.5,0.4,1,0.8,1.4,1.3C7.9,30.8,8,31,8.1,31.1c0.2,0.2,0.5,0.4,0.7,0.6 c0.3,0.3,0.7,0.6,1,0.9c0.1,0,0.1,0.1,0.2,0.1c0-0.1,0-0.1,0-0.2c-0.1-0.2-0.3-0.4-0.5-0.6c-0.2-0.2-0.4-0.4-0.5-0.6 c-0.1-0.2-0.3-0.4-0.5-0.6c0,0-0.1-0.1-0.1-0.1c-0.1-0.2,0-0.6,0.2-0.7c0.1,0,0.2,0,0.3,0c0.1,0.1,0.2,0.3,0.2,0.4 c0,0.2,0.1,0.2,0.2,0.3c0.1,0.1,0.1,0.1,0.2,0.2c0.2,0.3,0.5,0.5,0.7,0.8c0.2,0.3,0.4,0.5,0.6,0.8c0.1,0.1,0.2,0.3,0.3,0.4 c0.2,0.2,0.4,0.4,0.6,0.6c0.1,0.1,0.1,0.2,0.2,0.2c0.2,0.2,0.4,0.3,0.6,0.4c0.2,0.3,0.5,0.6,0.8,0.8c0.2,0.1,0.5,0.3,0.8,0.4 c0.1,0,0.1,0,0.2,0c0-0.1,0-0.1-0.1-0.2c-0.1-0.2-0.3-0.4-0.4-0.6c-0.4-0.5-0.8-1.1-1.2-1.6c-0.4-0.6-1-1-1.3-1.6 c-0.2-0.4-0.6-0.6-0.9-1c-0.2-0.2-0.3-0.3-0.5-0.5c-0.1-0.1-0.1-0.2-0.1-0.2c-0.1-0.2-0.2-0.4-0.4-0.4c-0.1,0-0.1-0.1-0.2-0.2 C9,29,9,29,8.9,28.9c-0.1-0.1-0.2-0.1-0.3-0.2c-0.1-0.1-0.3-0.2-0.4-0.3c-0.1-0.1-0.3-0.2-0.4-0.2c-0.1,0-0.2,0-0.3,0.1 c0.1,0.1,0.2,0.2,0.3,0.2c0,0,0.1,0,0.1,0c0,0,0.1,0,0.1,0.1c-0.1,0.1-0.2,0.1-0.2,0.2c0,0.1,0.1,0.1,0.1,0.2c0,0,0,0.1,0.1,0.2 c0.1,0.2,0.2,0.4,0.3,0.5c0,0,0.1,0.1,0.1,0.1c0,0,0,0.1,0,0.2c0,0-0.1,0-0.2,0C8.1,30,8,29.9,7.9,29.8c-0.3-0.4-0.6-0.8-0.8-1.3 c0,0,0,0,0-0.1C7,28.2,7,27.9,6.7,27.7c0,0,0,0,0,0c0-0.2-0.2-0.3-0.3-0.4c-0.2-0.1-0.3-0.2-0.5-0.3c-0.3-0.3-0.5-0.6-1-0.6 c-0.3,0-0.5-0.1-0.8-0.2c-0.3-0.1-0.5-0.3-0.8-0.4c-0.1,0-0.2,0-0.2,0C3.1,25.9,3.1,26,3.1,26.1z M27.8,9.1C27.8,9,27.8,9,27.8,9.1 c-0.1,0-0.2,0.1-0.3,0.2c-0.5,0.5-0.9,1.2-1.4,1.7c0,0,0,0,0,0c-0.4,0.5-0.7,1-1.1,1.6c-0.5,0.8-1.1,1.6-1.6,2.5 c-0.2,0.3-0.3,0.6-0.5,0.8c-0.1,0.2-0.3,0.3-0.3,0.5c-0.2,0.6-0.5,1.2-0.9,1.8c-0.1,0.2-0.2,0.4-0.3,0.6c-0.2,0.4-0.3,0.7-0.5,1.1 c-0.1,0.2-0.2,0.4-0.2,0.6c0,0.1,0,0.1-0.1,0.2c-0.2,0.5-0.4,0.9-0.6,1.3c-0.1,0.2-0.1,0.5,0,0.7c0.1,0.3,0.3,0.5,0.3,0.9 c0,0.1,0,0.2,0.2,0.1c0.1-0.1,0.2-0.3,0.2-0.4c-0.1-0.2,0-0.3,0.2-0.4c0.1-0.1,0.2-0.1,0.1-0.3c0-0.2,0-0.3,0.2-0.4 c0.1-0.1,0.1-0.1,0-0.2c-0.1-0.1-0.1-0.2,0.1-0.3c0,0,0.1-0.1,0.1-0.1c0-0.2,0.1-0.3,0.3-0.4c0.1-0.1,0.2-0.2,0.2-0.4 c0-0.2,0-0.5,0.2-0.7c0.1-0.1,0.1-0.4,0.3-0.5c0-0.3,0.2-0.5,0.5-0.7c0.2-0.2,0.4-0.4,0.2-0.7c0-0.1,0-0.2,0.1-0.2 c0.3,0,0.3,0,0.3-0.3c0-0.1,0-0.2,0-0.2c-0.1-0.3-0.1-0.5,0.1-0.8c0.3-0.4,0.5-0.9,0.8-1.3c0.1-0.2,0.3-0.3,0.3-0.6 c0,0,0-0.1,0.1-0.1c0.2-0.2,0.4-0.5,0.4-0.8c0-0.2,0.1-0.4,0.3-0.6c0.1-0.1,0.1-0.2,0.2-0.3c0.1-0.1,0.1-0.3,0.2-0.4 c0.2-0.3,0.4-0.6,0.5-0.9c0-0.1,0.1-0.1,0.2-0.1c0.1-0.1,0.1-0.1,0.2-0.2c0.1-0.1,0.1-0.3,0.2-0.4c0.1-0.3,0.4-0.4,0.4-0.7 c0,0,0.1-0.1,0.1-0.1C27.5,9.7,27.6,9.4,27.8,9.1z M11.9,25.2c-0.1-0.2-0.1-0.3-0.2-0.5c-0.2-0.2-0.3-0.5-0.3-0.8 c0-0.3-0.1-0.5-0.2-0.7c-0.2-0.5-0.5-1-0.7-1.5c0-0.1-0.1-0.2,0-0.2c0.1-0.2,0-0.2-0.1-0.3c-0.2-0.1-0.3-0.2-0.3-0.3 c-0.2-0.4-0.4-0.9-0.6-1.3c-0.1-0.3-0.3-0.6-0.4-0.9c-0.2-0.5-0.3-0.9-0.5-1.4c0-0.1,0-0.2,0-0.3c0.1-0.1,0.2-0.3,0.4-0.4 c0.2-0.2,0.2-0.3,0.1-0.5c-0.1-0.2-0.1-0.4-0.1-0.6c0-0.1-0.1-0.2-0.1-0.2c-0.1-0.2-0.3-0.1-0.5-0.2c-0.2-0.1-0.5-0.1-0.7,0 c-0.2,0.1-0.4,0.3-0.3,0.6c0.1,0.3,0.1,0.6,0.2,1c0,0.1,0,0.1,0,0.2c0,0.1,0,0.3,0.1,0.4c0,0.1,0.1,0.2,0.1,0.2 c0.1,0.3,0.1,0.5,0.2,0.8c0.1,0.3,0.2,0.5,0.3,0.8c0,0.1,0.1,0.2,0,0.3c0,0.5,0.1,0.9,0.3,1.4c0,0.1,0,0.1,0,0.2 c-0.1,0.2,0,0.4,0.1,0.5c0.1,0.1,0.1,0.3,0.1,0.4c0,0.2,0,0.3,0.2,0.4c0.1,0.1,0.2,0.3,0.3,0.4c0,0.1,0.1,0.1,0.1,0.2 c0.2,0.2,0.4,0.3,0.5,0.5c0.1,0.2,0.5,0.2,0.5,0.5c0,0,0.1,0.1,0.1,0.1c0.2,0.1,0.3,0.2,0.4,0.4c0.1,0.1,0.3,0.2,0.3,0.4 c0,0.1,0.1,0.1,0.1,0.2C11.3,25.1,11.5,25.2,11.9,25.2z M17.1,29.1C17.1,29,17.1,29,17.1,29.1c0.1-0.1,0.1-0.2,0.1-0.2 c0-0.1,0-0.2,0-0.2c0-0.3,0-0.6,0-0.9c-0.1-0.4-0.2-0.8-0.3-1.2c0,0,0-0.1,0-0.1c-0.2-0.3-0.2-0.8-0.4-1.1c-0.1-0.1-0.2-0.3-0.2-0.4 c-0.1-0.2-0.2-0.3-0.3-0.5c-0.1-0.1-0.1-0.3-0.2-0.4c-0.3-0.5-0.6-0.9-0.9-1.4c-0.5-0.9-1.2-1.6-1.9-2.4c-0.3-0.3-0.6-0.6-0.9-0.8 c0,0-0.1,0-0.2-0.1c0,0.1,0,0.1,0,0.2c0.1,0.2,0.1,0.3,0.2,0.5c0.1,0.1,0.2,0.3,0.2,0.4c0,0.1,0.1,0.1,0.1,0.2 c0,0.2,0.1,0.3,0.2,0.5c0,0,0,0.1,0.1,0.2c0.1,0.1,0.1,0.3,0.2,0.4c0.1,0.2,0.3,0.3,0.2,0.6c0,0.1,0,0.3,0.1,0.4 c0.4,0.4,0.6,0.9,0.7,1.5c0,0.2,0.1,0.4,0.3,0.6c0,0,0,0.1,0.1,0.1c0.1,0.3,0.3,0.5,0.4,0.8c0.4,0.6,0.9,1.1,1.2,1.7 c0.1,0.2,0.3,0.3,0.4,0.5c0.3,0.4,0.6,0.8,0.8,1.2C16.9,28.9,17,29,17.1,29.1z M19.9,25.6c-1.1-0.1-2.1,1-2,2c0,1,0.9,2,2,2 c1.1,0,2.1-0.9,2-2.1C21.9,26.5,20.9,25.5,19.9,25.6z M14.6,32.4C14.6,32.4,14.7,32.4,14.6,32.4c0-0.1-0.1-0.2-0.1-0.3 c-0.1-0.1-0.1-0.2-0.1-0.3c0-0.1,0-0.2,0-0.4c0-0.1-0.1-0.3-0.2-0.4c-0.1-0.3-0.3-0.6-0.4-0.8c-0.2-0.3-0.4-0.6-0.6-1 c-0.1-0.3-0.3-0.5-0.5-0.7c-0.1-0.1-0.2-0.2-0.2-0.4c-0.1-0.5-0.5-0.8-0.8-1.2c-0.3-0.4-0.6-0.7-0.8-1.2c-0.1-0.1-0.2-0.2-0.2-0.3 c-0.1-0.2-0.2-0.3-0.4-0.5c-0.1-0.1-0.2-0.2-0.2-0.3c0,0,0,0-0.1,0c0,0.1,0,0.1,0,0.2c0.2,0.3,0.3,0.7,0.5,1 c0.3,0.6,0.5,1.1,0.8,1.7c0.1,0.2,0.2,0.5,0.3,0.6c0.2,0.2,0.3,0.5,0.4,0.7c0.1,0.1,0.1,0.2,0.2,0.2c0.1,0,0.2,0.1,0.3,0.3 c0,0.1,0.1,0.2,0.1,0.2c0.2,0.2,0.4,0.5,0.4,0.8c0,0.1,0.1,0.1,0.1,0.2c0.2,0.1,0.5,0.3,0.5,0.5c0,0.1,0.1,0.1,0.2,0.1 c0,0,0.1,0.1,0.1,0.1c-0.1,0.1-0.2,0.3-0.3,0.4c-0.1,0.1-0.2,0.2-0.1,0.3c0.1,0.2,0.2,0.4,0.4,0.7c0.3,0.5,0.8,0.9,1.2,1.3 c0,0,0.1,0,0.2,0.1c0,0,0,0,0,0c-0.1-0.3-0.2-0.5-0.4-0.8c0,0-0.1,0-0.1,0c-0.1,0-0.2,0-0.2-0.1c0-0.1,0-0.2,0.1-0.3 c0,0,0.1-0.1,0.1-0.1c0-0.1-0.1-0.2-0.1-0.2c-0.1,0.1-0.1,0.1-0.2,0.2c0,0,0,0,0,0.1c-0.1,0.1-0.2,0.1-0.2,0c0-0.1-0.1-0.2,0-0.2 c0-0.1,0.1-0.1,0.2-0.1C14.5,32.4,14.6,32.4,14.6,32.4z M23.4,29.1c0,0.1,0.1,0.1,0.1,0.1c0,0,0.1,0,0.1-0.1c0,0,0-0.1,0.1-0.2 c0.1-0.1,0.1-0.3,0.2-0.4c0.2-0.3,0.4-0.5,0.7-0.7c0,0,0.1-0.1,0.1-0.1c0-0.3,0.2-0.6,0.3-0.8c0.1-0.2,0.2-0.4,0.2-0.6 c0-0.1,0-0.2,0.1-0.2c0.3-0.5,0.5-1,0.7-1.6c0.2-0.4,0.4-0.9,0.6-1.3c0-0.1,0.1-0.1,0.1-0.2c0.2-0.4,0.3-0.9,0.6-1.3 c0.1-0.2,0.1-0.5,0.2-0.7c0,0,0-0.1,0-0.1c0,0-0.1,0-0.1,0.1c-0.3,0.5-0.6,0.9-0.8,1.4c-0.3,0.5-0.6,1-0.8,1.5 c-0.1,0.1-0.2,0.2-0.2,0.3c0,0.2-0.1,0.4-0.2,0.6c-0.2,0.3-0.3,0.7-0.5,1c-0.1,0.1-0.1,0.2-0.2,0.3c-0.1,0.3-0.2,0.6-0.3,0.9 c-0.2,0.4-0.4,0.8-0.6,1.3C23.6,28.5,23.5,28.8,23.4,29.1z M7.1,27c0,0,0.1,0,0.1,0c0.2-0.1,0.3,0,0.4,0.1c0,0.1,0.1,0.1,0.1,0.2 c0.3,0.2,0.5,0.4,0.8,0.6c0.1,0.1,0.2,0.3,0.3,0.4c0,0,0.1,0,0.1,0c0.1,0,0.2,0,0.3,0.1c0.1,0.1,0.2,0.2,0.3,0.3 c0.1,0.1,0.2,0.2,0.3,0.3c0,0,0.1,0,0.1,0c0,0,0-0.1,0-0.1c0-0.1-0.1-0.1-0.1-0.2c-0.2-0.3-0.5-0.6-0.6-1c0,0,0-0.1-0.1-0.1 c-0.3-0.1-0.5-0.4-0.8-0.5c0,0-0.1,0-0.1-0.1c-0.6-0.5-1.1-0.9-1.8-1.1c0,0-0.1,0-0.1,0c0,0-0.1,0-0.1,0.1c0,0,0,0.1,0,0.1 c0.1,0.1,0.2,0.2,0.3,0.3c0,0.1,0.1,0.1,0.1,0.2c0.1,0.1,0.1,0.1,0.1,0.2C6.9,26.9,7,27,7.1,27z M6.1,20.5c-0.1,0.2,0,0.3,0.1,0.4 c0.1,0.1,0.2,0.3,0.2,0.5c0,0.1,0,0.2,0.2,0.2c0.2,0,0.2,0.1,0.3,0.3C7,22,7.1,22.2,7.2,22.5c0.1,0.1,0.2,0.2,0.3,0.4 c0.1,0.3,0.3,0.5,0.4,0.7c0.1,0.2,0.2,0.4,0.3,0.5c0.1,0.1,0.1,0.1,0.1,0.3c0,0.1,0.1,0.1,0.1,0.2c0-0.1,0.1-0.1,0.1-0.2 c-0.1-0.2-0.2-0.5-0.2-0.7c-0.1-0.3-0.2-0.6-0.3-1c0-0.2-0.1-0.4-0.3-0.5c-0.3-0.4-0.7-0.7-1-1.1C6.6,20.8,6.4,20.6,6.1,20.5z M10.6,16.4c0,0-0.1,0.1-0.1,0.1c0,0.1,0,0.2,0.1,0.3c0.1,0.1,0.2,0.2,0.2,0.4c0,0,0,0.1,0.1,0.1c0.1,0.1,0.3,0.2,0.4,0.4 c0,0,0.1,0,0.1,0c0.1,0.1,0.2,0.2,0.4,0.2c0.1,0.1,0.3,0.2,0.4,0.3c0.1,0.1,0.3,0.3,0.4,0.4c0.1,0.1,0.2,0.2,0.2,0.3 c0.1,0.1,0.2,0.1,0.3,0.2c0.1,0.1,0.2,0.3,0.4,0.4c0,0,0.1,0,0.2,0c0-0.1,0-0.2-0.1-0.2c-0.1-0.1-0.1-0.1-0.2-0.2 c-0.2-0.3-0.4-0.5-0.7-0.8c-0.1-0.1-0.2-0.3-0.4-0.4c-0.2-0.1-0.3-0.3-0.4-0.5c-0.1-0.2-0.3-0.5-0.6-0.6c-0.1-0.1-0.2-0.2-0.3-0.3 C11,16.5,10.8,16.5,10.6,16.4z M23.2,26.2c0-0.1,0.1-0.1,0.1-0.2c0-0.1,0.1-0.2,0.1-0.3c0.1-0.3,0.2-0.5,0.3-0.8 c0-0.1,0-0.1,0.1-0.2c0.1-0.4,0.3-0.7,0.4-1.1c0-0.1,0.1-0.1,0.1-0.2c0.2-0.3,0.3-0.6,0.5-0.8c0-0.1,0-0.2,0-0.3 c-0.1,0-0.2,0.1-0.2,0.1c0,0,0,0,0,0.1c-0.1,0.2-0.3,0.4-0.4,0.7c-0.1,0.3-0.3,0.5-0.4,0.8c-0.2,0.4-0.3,0.8-0.4,1.3 C23.2,25.6,22.9,25.9,23.2,26.2z M14.6,26.8c-0.1,0-0.1,0.1-0.1,0.3c0.1,0.1,0.1,0.2,0.2,0.3c0.3,0.5,0.6,0.9,1,1.4 c0.2,0.3,0.4,0.5,0.6,0.8c0,0,0.1,0,0.1,0.1c0,0,0-0.1,0-0.1c-0.2-0.3-0.4-0.6-0.6-0.9c-0.1-0.1-0.2-0.3-0.3-0.4 C15.3,27.7,15,27.3,14.6,26.8C14.7,26.9,14.7,26.9,14.6,26.8z M15.4,30.8C15.4,30.8,15.5,30.8,15.4,30.8c0.1-0.1,0.1-0.1,0.1-0.2 c-0.1-0.2-0.2-0.4-0.2-0.6c-0.2-0.6-0.6-1.2-1-1.7c0,0-0.1,0-0.2-0.1c0,0.1,0,0.1,0,0.2c0.1,0.3,0.3,0.5,0.4,0.8 C14.8,29.7,15.1,30.3,15.4,30.8z M28.3,22.5C28.3,22.5,28.3,22.5,28.3,22.5c0,0.1,0,0.1,0.1,0.2c0-0.1,0.1-0.1,0.1-0.2 c0,0,0.1-0.1,0.1-0.1c0.2-0.3,0.3-0.5,0.5-0.8c0-0.1,0-0.1,0-0.2c-0.1,0-0.1,0.1-0.2,0.1c-0.1,0.2-0.3,0.4-0.4,0.6 c0,0-0.1,0.1-0.1,0.2C28.3,22.3,28.3,22.4,28.3,22.5z M26.1,21.2c0.3-0.2,0.4-0.5,0.6-0.8c0.1-0.2,0.2-0.3,0.3-0.5 c0.1-0.2,0.2-0.3,0.4-0.5c0,0,0-0.1,0-0.2c-0.1,0.1-0.1,0.2-0.2,0.3c-0.2,0.3-0.4,0.5-0.6,0.8c-0.1,0.2-0.2,0.3-0.3,0.5 C26.1,20.8,26,20.9,26.1,21.2z M24.4,31.8c-0.1,0-0.1,0-0.1,0c-0.1,0.2-0.3,0.3-0.4,0.5c-0.1,0.2-0.1,0.4-0.1,0.7c0,0,0,0.1,0.1,0.1 c0,0,0.1,0,0.1-0.1c0.2-0.3,0.3-0.7,0.5-1C24.3,31.9,24.3,31.8,24.4,31.8z M16.9,37.9c-0.1-0.1-0.1-0.2-0.2-0.2 c-0.2-0.1-0.3-0.2-0.5-0.3c0,0-0.1,0-0.2,0c0,0.1,0,0.1,0,0.2c0.2,0.2,0.4,0.3,0.6,0.5C16.8,38.1,16.9,38,16.9,37.9z M22.4,37.7 c0,0.1,0.1,0.2,0.1,0.3c0.1,0.1,0.1,0.1,0.2,0c0.1-0.2,0.1-0.3,0.2-0.5c0,0,0-0.1-0.1-0.2C22.6,37.2,22.4,37.4,22.4,37.7z M24.4,33.6c0.1-0.1,0.2-0.2,0.3-0.3c0.1-0.1,0.2-0.4,0.1-0.5c0,0-0.1-0.1-0.1-0.1C24.5,33,24.5,33.3,24.4,33.6 C24.3,33.5,24.4,33.6,24.4,33.6z M25.9,30.2c0,0.1-0.1,0.1-0.1,0.1c-0.1,0.1-0.1,0.3-0.2,0.4c0,0-0.1,0.1-0.1,0.1c0,0.1,0,0.1,0,0.2 c0.1,0,0.1,0,0.2,0c0.1-0.1,0.3-0.5,0.2-0.6C26,30.3,26,30.2,25.9,30.2z M24.2,20.6c-0.2,0-0.4,0.3-0.4,0.4c0,0,0.1,0,0.1,0 c0.1,0,0.2,0,0.2-0.1c0.1,0,0.1-0.1,0.1-0.2C24.4,20.7,24.3,20.6,24.2,20.6z M25.3,31.8c-0.2,0.2-0.4,0.6-0.4,0.6 c0.1-0.1,0.2-0.2,0.4-0.3C25.4,32,25.4,31.9,25.3,31.8z M25.4,33.7C25.4,33.7,25.4,33.7,25.4,33.7c0.1-0.2,0.2-0.4,0.3-0.6 c0,0,0-0.1,0-0.1c0,0,0-0.1-0.1-0.1c0,0-0.1,0-0.1,0.1c-0.1,0.2-0.1,0.4-0.2,0.6C25.3,33.6,25.4,33.7,25.4,33.7z M29.1,21.3 c0.2-0.1,0.3-0.3,0.4-0.4c0,0,0-0.1,0-0.1c0,0-0.1,0-0.1,0C29.2,20.8,29,21.1,29.1,21.3z M24,34.2c0.3-0.2,0.4-0.3,0.2-0.6 C24.1,33.8,24.1,34.1,24,34.2z M26.5,29.4C26.5,29.4,26.4,29.3,26.5,29.4c-0.2,0.1-0.3,0.1-0.3,0.3c0,0,0,0.1,0.1,0.1 c0,0,0.1-0.1,0.1-0.1c0-0.1,0.1-0.1,0.1-0.2C26.4,29.5,26.5,29.4,26.5,29.4z M18.7,22.7c-0.1-0.1-0.1-0.1-0.1-0.2 c-0.1,0.1-0.1,0.1-0.1,0.2c0,0.1,0.1,0.1,0.1,0.2C18.6,22.8,18.7,22.8,18.7,22.7z M11.9,25.3c-0.1,0.2,0,0.4,0.1,0.4 c0,0,0.1,0,0.1,0c0,0,0-0.1,0-0.1C12.1,25.5,12,25.4,11.9,25.3z M5.9,20.4C5.9,20.3,6,20.3,5.9,20.4c0-0.2,0-0.3-0.1-0.3 c0,0-0.1,0.1-0.1,0.1C5.8,20.2,5.8,20.3,5.9,20.4z M12.5,27c0-0.1-0.1-0.4-0.2-0.4c0,0-0.1,0-0.1,0c0,0,0,0.1,0,0.1 C12.3,26.8,12.4,26.9,12.5,27z M13.4,31.3c-0.1,0-0.1-0.1-0.2-0.1c0,0-0.1,0-0.1,0.1c0,0,0.1,0.1,0.1,0.1 C13.3,31.4,13.3,31.4,13.4,31.3z M23.1,34.4c-0.1-0.1-0.1-0.1-0.1-0.2c0,0-0.1,0.1-0.1,0.1c0,0.1,0,0.1,0.1,0.2 C23,34.5,23,34.4,23.1,34.4z M24,34.3c-0.1,0.1-0.1,0.1-0.1,0.3c0,0,0,0,0.1,0.1C24,34.6,24,34.5,24,34.3C24,34.4,24,34.4,24,34.3z M25.9,32.3C25.9,32.3,25.9,32.3,25.9,32.3c0.1-0.1,0.1-0.1,0.1-0.2c0,0-0.1,0-0.1,0C25.9,32.2,25.9,32.2,25.9,32.3z M23.1,26.5 c0-0.1,0.1-0.1,0.1-0.2c0,0,0-0.1-0.1-0.1c0,0-0.1,0.1-0.1,0.1C23,26.4,23,26.4,23.1,26.5z"/>
</svg>