<!-- (c) Carrd Inc. All rights reserved. All logos and trademarks are property of their respective owners. -->
<svg xmlns="http://www.w3.org/2000/svg" id="icon">
<path d="M38.1,18.1c0,1.3,0,2.5,0,3.8c-0.1,0.5-0.2,0.9-0.3,1.4c-0.8,4.1-2.7,7.5-5.8,10.3c-1.3,1.2-2.8,2.2-4.4,2.9 c-1.1-1.8-2.4-3.2-4-4.5c-1.5-1.3-2.9-3-4.4-4.3c-0.2-0.1-0.6,0-0.9,0c-1.6-0.1-3-0.4-4.4-1.1c-1.4-0.8-2.4-2-3.3-3.4 c0.1,1.4,0.1,2.9,0.5,4.3c0.8,3,2.9,5.2,5.2,7.2c1.3,1.2,2.6,2.3,4,3.5c-0.9,0-1.9,0-2.8,0c-0.5-0.1-1.1-0.2-1.6-0.3 c-5.8-1.4-10-4.9-12.5-10.4c-0.9-2-1.3-4.2-1.5-6.4c0-0.6,0-1.3,0-1.9c0.4-1.9,0.7-3.8,1.3-5.6c1-2.9,2.9-5.2,5.1-7.2 c1.2-1.1,2.5-2,3.9-2.4c1.4,1.5,2.6,3,4,4.3c1.2,1.2,2.6,2.2,3.9,3.4c0.8,0.7,1.3,1.7,2.8,1.4c0,0,0,0,0.1,0c2.7,0.7,4.8,2.2,6,4.7 c0.1,0.2,0.2,0.3,0.3,0.5c0.1,0,0.1,0,0.2-0.1c-0.1-1.5-0.1-3-0.4-4.4C28.6,10.9,27,8.8,25.1,7c-1.5-1.4-3-2.6-4.5-3.9 c-0.4-0.3-0.6-0.7-0.9-1.1c0.9,0,1.8,0,2.7,0c0.6,0.1,1.2,0.3,1.7,0.4c6.9,1.8,11.4,6.1,13.4,12.9C37.7,16.2,37.9,17.2,38.1,18.1z M29.3,26.9c-0.1-1.6-0.1-3.1-0.2-4.6c-0.2-2.4-1-4.6-2.7-6.2c-2.5-2.4-5.6-2.5-8.8-2.1c-0.1,0-0.3,0.2-0.3,0.3c0,1.5-0.3,3,0.4,4.5 c0.5,0.9,0.9,1.2,2,1.2c1-0.1,2.1,0,2.7,1c0.4,0.7,0.6,1.5,0.7,2.3c0.1,1.2,0,2.4,0,3.7C25.2,26.9,27.1,26.9,29.3,26.9z M11.1,13.1 c0,1.4-0.1,2.8,0,4.2c0.1,1.4,0.2,2.7,0.5,4.1c0.3,1.6,1.2,3,2.6,3.8c1.2,0.7,2.5,1.3,4,1.1c1-0.1,2,0.1,3,0.1 c0.4,0,0.6-0.2,0.6-0.6c0-0.7,0-1.5,0-2.2c0-1.6-0.1-2.6-2.4-2.4c-1.5,0.1-2.6-0.7-3-2.2c-0.3-1.3-0.4-2.7-0.5-4.1 c0-0.6,0.1-1.2,0.2-1.8C14.4,13.1,12.8,13.1,11.1,13.1z"/>
</svg>