<!-- (c) Carrd Inc. All rights reserved. All logos and trademarks are property of their respective owners. -->
<svg xmlns="http://www.w3.org/2000/svg" id="icon">
<path d="M37.5,31.5c0,0.3,0,0.6-0.3,0.8c-0.3,0.2-0.6,0-0.9-0.2c-1-0.7-2.1-1.3-3.2-1.7c-2.9-1-5.7-1.1-8.4,0.4 c-1.9,1-3.3,2.5-4,4.6c0,0,0,0.1,0,0.1c0,0,0,0-0.1,0.1c0-0.2,0-0.3,0-0.5c0-6.8,0-13.5,0-20.3c0-1.1,0.1-2.2,0.3-3.3 c0.3-1.5,1.3-2.7,2.6-3.5c1.4-1,2.9-1.5,4.6-1.6c2.9-0.2,5.5,0.4,8,2.1c1.1,0.7,1.6,1.6,1.6,2.9C37.5,18.1,37.5,24.8,37.5,31.5z M18.2,33.2c-1.5-2.1-3.6-3.2-6.1-3.5c-3-0.3-5.7,0.5-8.1,2.2c-0.2,0.2-0.5,0.3-0.8,0.4c-0.3,0.1-0.5-0.1-0.6-0.4 c0-0.2-0.1-0.4-0.1-0.7c0-6.5,0-13.1,0-19.6c0-1.5,0.6-2.6,1.9-3.4c1.9-1.2,4-1.8,6.2-1.9c2.3-0.1,4.4,0.4,6.2,1.8 c1.8,1.3,2.6,3.2,2.6,5.4c0,7.2,0,14.5,0,21.7c0,0.1,0,0.2,0,0.2C19.1,34.7,18.7,33.9,18.2,33.2z"/>
</svg>