<!-- (c) Carrd Inc. All rights reserved. All logos and trademarks are property of their respective owners. -->
<svg xmlns="http://www.w3.org/2000/svg" id="icon">
<path d="M40,14.8c-0.2,0.4-0.3,0.9-0.5,1.3c-0.3,0.7-0.6,1.4-0.9,2.2c-0.3,0.8-0.6,1.6-0.9,2.4 c-0.2,0.6-0.5,1.2-0.7,1.8c-0.4,0.9-0.7,1.8-1.1,2.7c0,0-0.1,0.1-0.1,0.1c-0.7,0-1.3,0-2,0c-0.1,0-0.1,0-0.1-0.1 c-0.2-0.6-0.4-1.2-0.7-1.8c-0.2-0.5-0.4-1-0.6-1.5c-0.2-0.6-0.4-1.2-0.7-1.7c-0.1-0.3-0.2-0.6-0.3-0.9c-0.7,2-1.5,4-2.2,6 c-0.3,0-0.6,0-0.9,0c-0.4,0-0.8,0-1.2,0c0,0-0.1,0-0.1-0.1c-0.2-0.5-0.4-1-0.6-1.5c-0.3-0.6-0.5-1.3-0.7-1.9 c-0.2-0.6-0.4-1.1-0.7-1.7c-0.3-0.6-0.5-1.3-0.7-1.9c-0.2-0.4-0.3-0.9-0.5-1.3c-0.3-0.6-0.5-1.3-0.8-1.9c0-0.1-0.1-0.2-0.1-0.3 c0.1,0,0.1,0,0.1,0c0.8,0,1.7,0,2.5,0c0.2,0,0.2,0,0.3,0.2c0.2,0.6,0.4,1.2,0.7,1.8c0.3,0.7,0.5,1.3,0.8,2c0.3,0.7,0.5,1.3,0.8,2 c0.2-0.6,0.4-1.1,0.6-1.7c0.2-0.5,0.4-1,0.5-1.5c0.2-0.6,0.5-1.2,0.7-1.8c0.1-0.3,0.2-0.6,0.3-0.9c0,0,0-0.1,0.1-0.1 c0.7,0,1.5,0,2.2,0c0,0,0.1,0,0.1,0.1c0.1,0.3,0.2,0.7,0.4,1c0.2,0.5,0.4,1,0.5,1.5c0.2,0.7,0.5,1.3,0.7,2c0.2,0.5,0.4,1,0.5,1.5 c0-0.1,0.1-0.2,0.1-0.4c0.2-0.4,0.3-0.8,0.5-1.3c0.2-0.5,0.4-0.9,0.5-1.4c0.2-0.4,0.3-0.8,0.5-1.2c0.2-0.5,0.4-1.1,0.6-1.6 c0-0.1,0.1-0.1,0.2-0.1C38.2,14.7,39.1,14.7,40,14.8C40,14.8,40,14.8,40,14.8C40,14.8,40,14.8,40,14.8z M23.7,19.8 c0,0.3,0.1,0.6,0.1,1c0,0.5-0.1,1-0.2,1.5c-0.1,0.4-0.3,0.8-0.5,1.2c-0.2,0.3-0.4,0.7-0.6,1c-0.2,0.2-0.3,0.4-0.5,0.5 c-0.2,0.2-0.4,0.4-0.7,0.4c0,0,0,0,0,0c-0.1,0-0.3,0-0.4,0c0,0-0.1,0-0.1,0c-0.2,0-0.4-0.2-0.6-0.3c-0.4-0.3-0.8-0.5-1.3-0.6 c-0.3-0.1-0.7-0.2-1.1-0.2c-0.3,0-0.5,0-0.8,0.1c-0.4,0-0.8,0.2-1.2,0.4c-0.3,0.1-0.5,0.3-0.8,0.5c-0.2,0.1-0.3,0.1-0.5,0.2 c-0.1,0-0.3,0-0.4,0c0,0,0,0,0,0c-0.3,0-0.6-0.3-0.8-0.5c-0.1-0.1-0.3-0.3-0.4-0.4c-0.2-0.3-0.4-0.6-0.6-1c-0.3-0.5-0.5-1-0.6-1.6 c-0.1-0.3-0.1-0.6-0.1-0.9c0-0.4,0-0.8,0-1.2c0-0.3,0.1-0.5,0.1-0.8c0.1-0.5,0.3-1,0.6-1.5c0.2-0.4,0.5-0.9,0.9-1.2 c0.2-0.2,0.4-0.4,0.7-0.6c0.5-0.4,1.1-0.8,1.8-1c0.4-0.1,0.8-0.3,1.3-0.3c0.1,0,0.2,0,0.2,0c0.3,0,0.7,0,1,0c0.1,0,0.2,0,0.3,0 c0.3,0.1,0.6,0.1,0.9,0.2c0.4,0.1,0.7,0.3,1.1,0.4c0.4,0.2,0.8,0.4,1.1,0.7c0.2,0.1,0.3,0.3,0.5,0.4c0.3,0.4,0.7,0.7,0.9,1.2 c0.3,0.4,0.5,0.9,0.6,1.3C23.5,19.1,23.6,19.5,23.7,19.8z M20.6,19.9c-0.1-0.6-0.4-1.1-0.8-1.5c-0.2-0.2-0.3-0.3-0.5-0.4 c-0.5-0.3-1-0.5-1.6-0.5c-0.2,0-0.5,0-0.7,0.1c-0.8,0.2-1.4,0.6-1.9,1.3c-0.4,0.5-0.5,1.1-0.5,1.8c0,0.1,0,0.2,0,0.3 c0,0.4,0.1,0.8,0.3,1.1c0.2,0.4,0.5,0.7,0.8,1c0.5,0.4,1.1,0.6,1.7,0.7c0.3,0,0.6,0,0.8-0.1c0.8-0.1,1.4-0.6,1.9-1.2 c0.3-0.5,0.5-1,0.5-1.6C20.7,20.5,20.7,20.2,20.6,19.9z M10.4,25.3c-1,0-1.9,0-2.8,0c0,0,0-0.1,0-0.1c0-1.9,0-3.8,0-5.7 c0-0.3,0-0.5-0.1-0.8c-0.1-0.4-0.3-0.8-0.6-1.1c-0.4-0.3-0.8-0.5-1.3-0.5c-0.3,0-0.6,0-0.8,0.1c-0.7,0.1-1.2,0.5-1.7,1 c-0.1,0.1-0.2,0.3-0.2,0.5c0,2.2,0,4.3,0,6.5c0,0,0,0.1,0,0.1c-1,0-1.9,0-2.8,0c0-3.5,0-7,0-10.5c0.9,0,1.8,0,2.7,0 c0,0.3,0,0.5,0,0.8c0,0,0,0,0.1,0c0.3-0.3,0.7-0.5,1.1-0.7c0.3-0.1,0.6-0.2,1-0.3c0.1,0,0.2,0,0.3-0.1c0.3,0,0.6,0,0.9,0 c0.2,0,0.4,0.1,0.6,0.1c0.5,0.1,1,0.3,1.5,0.6c0.4,0.2,0.7,0.5,1,0.9c0.2,0.2,0.4,0.5,0.6,0.8c0.2,0.5,0.4,0.9,0.5,1.5 c0,0.4,0.1,0.8,0.1,1.1c0,1.9,0,3.8,0,5.7C10.4,25.2,10.4,25.2,10.4,25.3z"/>
</svg>