<!-- (c) Carrd Inc. All rights reserved. All logos and trademarks are property of their respective owners. -->
<svg xmlns="http://www.w3.org/2000/svg" id="icon">
<path d="M34.8,30c-0.6,1.3-1.7,2.3-2.9,2.9c-1.4,0.7-3.3,0.7-7,0.7H15c-2.1,0-3.2,0-4-0.4c-0.7-0.4-1.3-0.9-1.7-1.7 c-0.4-0.8-0.4-1.9-0.4-4v-6.1c0-3.7,0-5.6,0.7-7c0.6-1.3,1.7-2.3,2.9-2.9c1.4-0.7,3.3-0.7,7-0.7h5.3c3.7,0,5.6,0,7,0.7 c1.3,0.6,2.3,1.7,2.9,2.9c0.7,1.4,0.7,3.3,0.7,7V23C35.5,26.7,35.5,28.6,34.8,30z M22.2,22.2c0-1-0.9-1.9-1.9-1.9s-1.9,0.9-1.9,1.9 V26c0,1,0.9,1.9,1.9,1.9s1.9-0.9,1.9-1.9V22.2z M29.8,22.2c0-1-0.9-1.9-1.9-1.9c-1,0-1.9,0.9-1.9,1.9V26c0,1,0.9,1.9,1.9,1.9 c1,0,1.9-0.9,1.9-1.9V22.2z M13.9,7.2c-0.6,0.1-1,0.2-1.4,0.3c-3.3,1-5.8,3.6-6.9,6.9c-0.1,0.4-0.2,0.9-0.3,1.4 c-0.1,1-1.1,1.8-2.1,1.7c-1-0.1-1.8-1.1-1.7-2.1c0.1-0.7,0.2-1.4,0.4-2.1c1.4-4.5,4.9-8,9.4-9.4c0.7-0.2,1.4-0.3,2.1-0.4 c1-0.1,2,0.6,2.1,1.7C15.7,6.1,14.9,7.1,13.9,7.2z"/>
</svg>