<!-- (c) Carrd Inc. All rights reserved. All logos and trademarks are property of their respective owners. -->
<svg xmlns="http://www.w3.org/2000/svg" id="icon">
<path d="M16.4,7.2c0.3-0.1,0.4-0.3,0.5-0.5c0.2-0.1,0.3-0.3,0.5-0.4c0.1-0.1,0.2-0.2,0.3-0.2c0.1-0.1,0.2-0.1,0.3-0.2 c0.1-0.1,0.2-0.2,0.3-0.3c0.1,0,0.1-0.1,0.2-0.1c0.1,0,0.2-0.1,0.2-0.1c0,0,0.1-0.1,0.1-0.1c0.1-0.1,0.2-0.1,0.2-0.2 c0.1,0,0.2-0.1,0.3-0.1c0.1-0.1,0.2-0.1,0.3-0.2c0,0,0,0,0,0c0.1,0,0.2-0.1,0.3-0.1c0.1,0,0.2-0.1,0.3-0.2c0,0,0,0,0,0 c0.1,0,0.3-0.1,0.4-0.1c0,0,0.1,0,0.1,0c0,0,0,0,0.1,0c0.2,0,0.3-0.1,0.5-0.1c0.1,0,0.3-0.1,0.4-0.1c0,0,0.1,0,0.1,0 c0.1,0,0.1,0,0.2-0.1c0,0,0.1,0,0.1,0c0.2,0,0.5,0,0.7,0C23.2,4,23.5,4,23.7,4c0.1,0,0.1,0,0.2,0c0,0,0,0,0.1,0c0.3,0,0.5,0,0.8,0 c0.1,0,0.1,0,0.2,0.1c0,0,0.1,0,0.1,0c0.1,0,0.2,0,0.3,0c0.2,0.1,0.4,0,0.5,0.1c0,0,0.1,0,0.1,0c0,0,0.1,0,0.1,0.1c0,0,0,0,0,0 c0.1,0,0.2,0,0.3,0.1c0.1,0.1,0.2,0.1,0.4,0.1c0.1,0,0.2,0.1,0.3,0.2c0.1,0,0.1,0.1,0.2,0.1C27.3,5,27.4,5,27.4,5 c0.1,0,0.1,0.1,0.2,0.1c0.1,0,0.1,0.1,0.2,0.1c0.1,0.1,0.2,0.2,0.4,0.3c0.1,0.1,0.2,0.1,0.3,0.2c0.1,0.1,0.2,0.1,0.3,0.2 c0.1,0.1,0.2,0.2,0.3,0.2c0.1,0.1,0.1,0.1,0.2,0.2c0.1,0.1,0.2,0.2,0.3,0.3c0.3,0.3,0.5,0.6,0.7,0.9c0.1,0.1,0.2,0.3,0.3,0.4 c0.1,0.1,0.1,0.3,0.2,0.4c0,0,0.1,0.1,0.1,0.1C31,8.7,31.1,8.9,31.2,9c0,0,0,0,0,0c0,0.1,0.1,0.2,0.1,0.3c0,0.1,0.1,0.2,0.1,0.3 c0,0,0,0.1,0.1,0.1c0,0.1,0.1,0.1,0.1,0.2c0,0,0,0.1,0,0.1c0,0.1,0,0.1,0.1,0.2c0,0,0,0.1,0,0.1c0,0.1,0,0.2,0.1,0.2c0,0,0,0,0,0 c0,0.2,0.1,0.4,0.1,0.6c0,0,0,0.1,0,0.1c0,0.1,0,0.1,0,0.2c0,0.2,0,0.3,0.1,0.5c0.1,0.2,0,0.4,0,0.7c0,0.2,0,0.3,0,0.5 c0.1,0.4,0,0.9,0.1,1.3c0,0.1,0,0.1,0,0.2c0,0,0,0.1,0,0.1c0,0.3,0,0.6,0,1c0,0.1,0,0.1-0.1,0.2c0,0,0,0.1,0,0.1c0,0.1,0,0.2,0,0.3 c0,0.1,0,0.1-0.1,0.2c0,0,0,0,0,0.1c0,0.2,0,0.4-0.1,0.6c0,0.1,0,0.2-0.1,0.4c0,0,0,0.1,0,0.2c0,0,0,0.1,0,0.1 c-0.1,0.1,0,0.2-0.1,0.3c-0.1,0.1,0,0.3-0.2,0.4c0,0,0,0,0,0.1c0,0,0,0.1,0,0.1c-0.1,0.1,0,0.3-0.2,0.4c0,0,0,0,0,0 c0,0.1-0.1,0.3-0.1,0.4c0,0.1-0.1,0.2-0.2,0.3c0,0.1-0.1,0.2-0.1,0.2c-0.1,0.1-0.1,0.3-0.2,0.4c-0.1,0.1-0.1,0.3-0.2,0.4 c0,0.1-0.1,0.2-0.1,0.2c0,0.1-0.1,0.1-0.1,0.2c-0.1,0.2-0.2,0.4-0.4,0.5c-0.1,0.2-0.2,0.3-0.3,0.5c-0.1,0.1-0.1,0.1-0.2,0.2 c-0.1,0.2-0.3,0.4-0.5,0.5c-0.2,0.2-0.4,0.5-0.7,0.7c-0.1,0.1-0.3,0.3-0.4,0.4c-0.2,0.1-0.3,0.3-0.5,0.4c-0.1,0.1-0.2,0.1-0.3,0.2 c-0.1,0.1-0.2,0.2-0.3,0.2c-0.1,0.1-0.2,0.1-0.2,0.1c-0.1,0-0.1,0.1-0.2,0.1c-0.1,0.1-0.2,0.1-0.3,0.2c-0.1,0-0.1,0.1-0.2,0.1 c-0.1,0-0.2,0.1-0.3,0.2c0,0,0,0,0,0c-0.1,0-0.2,0.1-0.3,0.1c0,0,0,0-0.1,0c0,0,0,0,0,0c-0.1,0-0.2,0.1-0.4,0.1c0,0-0.1,0-0.1,0 c0,0-0.1,0-0.1,0c-0.1,0-0.1,0-0.2,0.1c0,0-0.1,0-0.1,0c-0.1,0-0.1,0-0.2,0.1c0,0,0,0-0.1,0c-0.1,0-0.2,0-0.3,0.1 c-0.1,0-0.2,0-0.3,0c0,0-0.1,0-0.1,0.1c0,0-0.1,0-0.1,0c-0.1,0-0.3,0-0.4,0.1c-0.1,0.1-0.3,0-0.4,0c-0.1,0-0.3,0-0.4,0.1 c-0.1,0-0.3,0-0.5,0c-0.4,0-0.8,0-1.2,0c-0.1,0-0.2-0.1-0.4-0.1c-0.2,0-0.3,0-0.5,0c-0.1,0-0.1,0-0.2-0.1c0,0-0.1,0-0.1,0 c-0.1,0-0.2,0-0.3,0c-0.1-0.1-0.3,0-0.4-0.1c-0.1,0-0.3,0-0.4-0.1c-0.1-0.1-0.3,0-0.3-0.1c-0.1-0.1-0.3,0-0.4-0.2c0,0,0,0,0,0 c-0.1,0-0.3-0.1-0.4-0.1c-0.1,0-0.2-0.1-0.3-0.1c0,0-0.1,0-0.1,0.1c0,0.1,0,0.1,0,0.2c0,1.2,0,2.3,0,3.5c0,0,0,0.1,0,0.1 c0,0,0,0.1,0,0.1c0,0.6,0,1.3,0,1.9c0,1.5,0,2.9,0,4.4c0,0,0,0.1,0,0.1c0.1,0.1,0.1,0.3,0.1,0.4c0,0.1,0,0.2,0,0.3 c0,0.1,0,0.2,0.1,0.3c0,0,0,0.1,0,0.1c0,0.1,0,0.2,0.1,0.3c0,0,0,0,0,0c0,0.1,0.1,0.2,0.2,0.4c0.1,0.2,0.2,0.2,0.3,0.3c0,0,0,0,0,0 c0.2,0,0.3,0.1,0.5,0.1c0.6,0,1.3,0,1.9,0c0.1,0,0.1,0,0.2,0c0.2,0,0.3,0.1,0.3,0.3c0,0.4,0,0.8,0,1.3c0,0.1-0.1,0.2-0.2,0.2 c-0.3,0-0.7,0-1,0c-0.1,0-0.2,0-0.3,0c-0.1,0-0.1,0-0.2,0c0,0-0.1,0-0.1,0c-1,0-1.9,0-2.9,0c-0.1,0-0.1,0-0.2-0.1c0,0-0.1,0-0.1,0 c-0.8,0-1.7,0-2.5,0c0,0-0.1,0-0.1,0c-0.1,0.1-0.3,0.1-0.4,0.1c-0.9,0-1.7,0-2.6,0c0,0-0.1,0-0.1,0c0,0-0.1,0-0.1,0 c-0.4,0-0.9,0-1.3,0c-0.2,0-0.3,0-0.3-0.3c0-0.4,0-0.9,0-1.3c0-0.1,0.1-0.2,0.2-0.2c0.6,0,1.3,0,1.9,0c0.2,0,0.4,0,0.5-0.1 c0.2-0.1,0.3-0.2,0.4-0.4c0-0.1,0.1-0.2,0.1-0.3c0,0,0,0,0,0c0-0.2,0.1-0.3,0.1-0.5c0-0.2,0-0.3,0-0.5c0-0.1,0-0.2,0.1-0.3 c0,0,0-0.1,0-0.1c0-2.1,0-4.1,0-6.2c0-6,0-12,0-18c0-0.2,0-0.4,0-0.6c0-0.1,0-0.2-0.1-0.3c0,0,0-0.1,0-0.2c0-0.1,0-0.1-0.1-0.2 c0,0,0-0.1,0-0.1c0-0.1-0.1-0.1-0.1-0.2c0-0.1-0.2-0.2-0.2-0.4c-0.1-0.1-0.1-0.2-0.2-0.3c-0.1-0.1-0.3-0.2-0.4-0.4 c-0.1,0-0.1-0.1-0.2-0.1c-0.1,0-0.1-0.1-0.2-0.1C9.6,9,9.5,9,9.5,9c-0.1,0-0.2-0.1-0.3-0.1C9.1,8.8,9,8.7,9,8.7c0,0,0,0,0,0 c-0.1,0-0.2-0.1-0.3-0.2c-0.1,0-0.2-0.1-0.3-0.1C8.2,8.3,8.2,8.2,8,8.1C7.9,8.1,7.9,7.9,7.9,7.8c0-0.2,0-0.4,0-0.6 c0-0.1,0.1-0.1,0.1-0.2C8.1,7,8.2,7,8.3,7c0.1-0.1,0.2-0.1,0.3-0.1c0.1,0,0.2-0.1,0.3-0.2c0,0,0,0,0,0c0.1,0,0.2-0.1,0.3-0.1 c0.1,0,0.2-0.1,0.3-0.2c0,0,0,0,0,0c0.1,0,0.2-0.1,0.3-0.1c0.1,0,0.2-0.1,0.3-0.2c0.1,0,0.1-0.1,0.2-0.1c0.1,0,0.2-0.1,0.3-0.1 c0.1,0,0.2-0.1,0.3-0.2c0,0,0.1,0,0.1,0c0,0,0.1,0,0.1-0.1c0,0,0,0,0,0c0.1,0,0.2-0.1,0.3-0.1c0.1,0,0.2-0.1,0.3-0.2c0,0,0,0,0,0 c0.1,0,0.2-0.1,0.3-0.1c0.1,0,0.2-0.1,0.3-0.2c0,0,0,0,0,0c0.1,0,0.2-0.1,0.3-0.1c0.1,0,0.2-0.1,0.3-0.2c0,0,0,0,0,0 c0.1,0,0.2-0.1,0.3-0.1c0.1,0,0.2-0.1,0.3-0.1c0,0,0,0,0,0c0.1,0,0.2-0.1,0.3-0.1c0.1,0,0.2-0.1,0.3-0.2c0,0,0,0,0,0 c0.1,0,0.1,0,0.2-0.1c0.1-0.1,0.3-0.1,0.5-0.1c0.1,0,0.2,0,0.2-0.1c0.1,0,0.2-0.1,0.4,0C15.9,4.2,16,4.4,16,4.6c0,0.1,0,0.2,0.1,0.3 c0,0,0,0.1,0,0.1c0,0.1,0,0.3,0,0.4c0,0,0,0,0,0c0.1,0.2,0.1,0.4,0.1,0.6c0,0,0,0.1,0,0.1c0,0,0,0.1,0,0.1c0,0.1,0,0.2,0,0.3 c0,0.1,0,0.2,0.1,0.2c0,0,0,0.1,0,0.2C16.4,7.1,16.4,7.2,16.4,7.2z M21.7,24.6c0.2,0,0.4,0,0.6,0c0,0,0.1,0,0.1,0 c0.1,0,0.1-0.1,0.2-0.1c0.1,0,0.3,0,0.4-0.1c0,0,0,0,0.1,0c0.1,0,0.3-0.1,0.4-0.1c0.1,0,0.1-0.1,0.2-0.1c0.1-0.1,0.2-0.1,0.3-0.2 c0.1-0.1,0.3-0.1,0.4-0.2c0.1-0.1,0.2-0.1,0.3-0.2c0.1-0.1,0.3-0.2,0.4-0.3c0.1-0.1,0.2-0.3,0.3-0.4c0.1-0.1,0.2-0.3,0.3-0.4 c0.1-0.1,0.2-0.3,0.3-0.4c0,0,0,0,0,0c0.1-0.1,0.1-0.2,0.2-0.3c0-0.1,0.1-0.2,0.1-0.3c0-0.1,0.1-0.2,0.1-0.3c0-0.1,0.1-0.2,0.1-0.3 c0.1-0.2,0.1-0.4,0.2-0.6c0-0.1,0.1-0.3,0.1-0.4c0-0.1,0-0.2,0-0.3c0.1-0.1,0.1-0.2,0.1-0.4c0-0.1,0-0.1,0-0.2c0,0,0-0.1,0-0.1 c0-0.2,0-0.3,0-0.5c0-0.1,0.1-0.1,0.1-0.2c0-0.2,0-0.3,0-0.5c0-0.8,0-1.7,0-2.5c0,0,0-0.1,0-0.1c0,0,0-0.1-0.1-0.1 c0-0.2,0-0.3,0-0.5c0-0.1,0-0.2-0.1-0.3c0,0,0-0.1,0-0.1c0-0.1,0-0.3,0-0.4c-0.1-0.1,0-0.3-0.1-0.4c0-0.1,0-0.2,0-0.2 c0,0,0-0.1,0-0.1c0-0.1,0-0.2,0-0.2c-0.1-0.1-0.1-0.2-0.1-0.2c0-0.1,0-0.1,0-0.2c0,0,0-0.1-0.1-0.1c0-0.2-0.1-0.3-0.1-0.5 c0,0,0,0,0,0c-0.1-0.1-0.1-0.1-0.1-0.2c0,0,0-0.1,0-0.1c-0.1-0.1-0.1-0.2-0.2-0.4c0-0.1-0.1-0.2-0.1-0.3c0,0,0,0,0,0 c-0.1-0.1-0.1-0.2-0.2-0.3c0-0.1-0.1-0.2-0.1-0.3c0,0,0,0,0,0c0-0.1-0.1-0.2-0.1-0.2c0-0.1-0.1-0.2-0.1-0.3 c-0.1-0.1-0.2-0.2-0.2-0.3C25,9.3,24.9,9.1,24.9,9c-0.2-0.2-0.3-0.4-0.5-0.6c-0.1-0.1-0.3-0.2-0.4-0.4c-0.1-0.1-0.2-0.2-0.3-0.3 c-0.1,0-0.1-0.1-0.2-0.1c-0.1,0-0.1-0.1-0.2-0.1c-0.1,0-0.2-0.1-0.2-0.1c-0.1-0.1-0.2-0.1-0.4-0.2c0,0,0,0,0,0 c-0.1-0.1-0.2-0.1-0.3-0.1C22.2,7.1,22.1,7,22,7c-0.2,0-0.4-0.1-0.6-0.1c-0.4,0-0.9-0.1-1.3,0.1c-0.2,0-0.3,0-0.5,0.1 c-0.1,0.1-0.2,0-0.3,0.1c-0.1,0.1-0.2,0.1-0.3,0.1c-0.1,0.1-0.3,0.1-0.4,0.2c-0.1,0.1-0.2,0.1-0.3,0.1c-0.1,0-0.1,0.1-0.2,0.1 c-0.1,0-0.1,0.1-0.2,0.2C17.8,7.9,17.7,8,17.6,8c-0.1,0.1-0.3,0.2-0.4,0.3c-0.1,0.1-0.3,0.3-0.4,0.4c-0.1,0.1-0.1,0.2-0.2,0.3 c-0.1,0.1-0.1,0.2-0.1,0.3c0,3.3,0,6.6,0,10c0,0.3,0,0.6,0,1c0,0.3-0.1,0.6,0.1,1c0,0.1,0,0.2,0,0.3c0,0,0,0,0,0.1 c0,0.1,0.1,0.1,0.1,0.2c0,0,0,0.1,0,0.1c0,0.1,0.1,0.2,0.1,0.3c0.1,0.1,0.1,0.3,0.2,0.4c0.1,0.1,0.1,0.2,0.2,0.3 c0.2,0.2,0.4,0.4,0.6,0.5c0.2,0.1,0.3,0.2,0.5,0.3c0.1,0.1,0.2,0.2,0.4,0.2c0.1,0.1,0.2,0.1,0.3,0.1c0,0,0,0,0,0 c0.1,0.1,0.2,0.1,0.3,0.1c0.1,0,0.2,0,0.3,0.1c0.2,0.1,0.3,0.1,0.5,0.1c0.1,0,0.2,0,0.2,0c0.1,0.1,0.2,0.1,0.3,0.1 c0.1,0,0.2,0,0.2,0c0,0,0.1,0,0.1,0c0.1,0.1,0.2,0.1,0.2,0.1C21.3,24.6,21.5,24.6,21.7,24.6z"/>
</svg>