<!-- (c) Carrd Inc. All rights reserved. All logos and trademarks are property of their respective owners. -->
<svg xmlns="http://www.w3.org/2000/svg" id="icon">
<path d="M36.1,26.6c-2.3,3.2-5.1,5.7-8.3,7.9c-2.3,1.7-4.8,3.1-7.4,4.3c-0.2,0.1-0.5,0.1-0.7,0c-5-2.4-9.6-5.5-13.4-9.5 c-2.2-2.4-4.1-5-5-8.2c-1-3.3-1.1-6.6,0.5-9.8c1.5-3.2,4.1-5,7.6-5.3c4.2-0.3,7.5,1.4,10.3,4.3c0.5,0.5,0.5,0.5,1,0 c1.9-1.9,4-3.3,6.6-4C32.1,5,37,7.5,38.8,12.5c0.2,0.7,0.4,1.3,0.6,2c0.1,0.7,0.2,1.4,0.2,1.8C39.5,20.4,38.2,23.6,36.1,26.6z M21.8,17.2c-1.2,0-2.3,0-3.5,0c-0.5,0-0.8,0.2-0.9,0.7c-0.3,1-0.5,1.9-0.8,2.9c-0.3,1-0.6,1.9-0.9,3c-0.1-0.2-0.1-0.3-0.1-0.4 c-0.9-3.2-1.8-6.4-2.7-9.6c-0.2-0.8-0.3-0.9-1.1-0.9c-0.9,0-1.9,0-2.8,0c-0.6,0-0.7,0.1-0.6,0.8c0.5,1.6,0.9,3.2,1.4,4.8 c1.1,3.8,2.2,7.6,3.3,11.4c0.1,0.5,0.4,0.7,0.9,0.7c1.2,0,2.5,0,3.7,0c0.4,0,0.7-0.2,0.8-0.6c0.2-0.8,0.4-1.5,0.7-2.3 c0.3-1,0.6-2.1,0.9-3.1c0,0,0.1,0,0.1,0c0,0.1,0.1,0.2,0.1,0.4c0.5,1.7,0.9,3.3,1.4,5c0.1,0.3,0.2,0.6,0.6,0.6c1.2,0,2.3,0,3.5,0 c0.3,0,0.4-0.2,0.4-0.5c0-0.1-0.1-0.3-0.1-0.4c-1.1-3.9-2.3-7.9-3.4-11.8C22.5,17.4,22.3,17.2,21.8,17.2z M26,17.9 c-0.4,1.4-0.8,2.8-1.2,4.2c-0.1,0.3-0.1,0.7,0,1c0.6,2.1,1.2,4.2,1.8,6.4c0,0.2,0.1,0.3,0.2,0.5c0.1,0,0.1,0,0.2,0 c0.1-0.1,0.1-0.3,0.2-0.4c1.1-3.9,2.2-7.7,3.3-11.6c0.2-0.5,0-0.7-0.5-0.7c-1,0-2,0-3,0C26.4,17.2,26.1,17.4,26,17.9z M31.3,12.9 c-1.1,0-2.2,0-3.3,0c-0.3,0-0.6,0.2-0.7,0.5c-0.2,0.8-0.5,1.7-0.7,2.5c-0.1,0.4,0,0.6,0.4,0.6c0.5,0,1.1,0,1.6,0c0,0,0,0,0,0 c0.5,0,1.1,0,1.6,0c0.4,0,0.6-0.2,0.7-0.6c0.2-0.8,0.5-1.7,0.7-2.5C31.8,13.1,31.7,12.9,31.3,12.9z" />
</svg>