<!-- (c) Carrd Inc. All rights reserved. All logos and trademarks are property of their respective owners. -->
<svg xmlns="http://www.w3.org/2000/svg" id="icon">
<path d="M33.2,31.8l-11.1,5.6c-1.3,0.8-2.5,0.8-3.9,0.1L6.9,31.9c-1.1-0.5-2-1.8-2-3.1V14.1c0-1.4,0.7-2.4,2-3.3L21.6,0 v5.5L33.3,11c1.2,0.6,1.9,2.1,1.9,3.5v13.6C35.2,29.5,34.6,31.1,33.2,31.8z M15.9,12.8c0-0.2-0.2-0.4-0.4-0.4h-4.1 c-0.2,0-0.4,0.2-0.4,0.4v16.8c0,0.2,0.2,0.4,0.4,0.4h4.1c0.2,0,0.4-0.2,0.4-0.4V12.8z M30.4,29.4l-8.3-8.4l0,0l8.1-8 c0,0,0.5-0.6-0.5-0.6c-1,0-2.1,0-3.2,0c-1.4,0-2,0.3-2.8,1L16,20.9V21v0.4l7.9,7.8c0.7,0.5,1.7,0.8,2.5,0.8c0.4,0,3,0,3.4,0 C30.8,30,30.4,29.4,30.4,29.4z"/>
</svg>