<!-- (c) Carrd Inc. All rights reserved. All logos and trademarks are property of their respective owners. -->
<svg xmlns="http://www.w3.org/2000/svg" id="icon">
<path d="M14.6,5c0,0.3,0.1,0.6,0.1,0.9c0,0.1-0.1,0.1-0.1,0.2c-1.1,0.4-2.1,0.9-3.1,1.5c-2,1.3-3.7,3-5,5c-0.8,1.2-1.4,2.6-1.8,4 c-0.1,0.2-0.1,0.4-0.1,0.5c0,0.1,0,0.2,0.1,0.2c0.6,0,0.9,0.4,1.2,0.8c0.2,0.2,0.4,0.6,0.4,0.9c0,0.2,0,0.5,0,0.7c0,0.1,0,0.1,0,0.2 c-0.1,0.2-0.1,0.3-0.1,0.4c0.5,0.3,0.8,0.6,1.2,0.8c0,0,0.1,0.1,0.1,0.2c0.2,0.4,0.5,0.9,0.7,1.3c0.1,0.1,0.1,0.2,0.1,0.3 c0,0.5,0,0.9,0,1.4c0,0.1,0.1,0.2,0.2,0.2c0.6,0.2,1.1,0.4,1.6,0.8c0.5,0.5,1.1,1,1.6,1.6c0,0,0.1,0,0.1-0.1 c0.4-0.3,0.7-0.5,1.1-0.8c0.5-0.5,1.2-0.6,1.8-0.7c0.2,0,0.4,0,0.6,0c0.4-0.1,0.8,0,1.2,0.3c0.3,0.2,0.5,0.3,0.8,0.5 c0.3,0.2,0.5,0.1,0.6-0.3c0.3-1.2,0.5-2.4,0.8-3.6c0.1-0.4,0.2-0.8,0.3-1.3c0-0.1,0-0.1,0-0.2c-0.4-0.9-0.8-1.8-1.3-2.7 c-0.1-0.1-0.1-0.2-0.3-0.2c-0.1,0-0.1,0.2-0.1,0.3c-0.1,2-0.1,4.1-0.1,6.1c0,0.1,0,0.1,0,0.2c-0.1-0.8-0.3-1.7-0.4-2.5 c-0.2-1.5-0.5-3-0.7-4.6c0-0.2,0-0.4,0.1-0.5c0.6-0.8,1.2-1.6,1.7-2.4c0.1-0.2,0.1-0.5,0.1-0.7c0-0.4-0.1-0.7-0.1-1.1 c-0.1-1.1-0.2-2.1-0.4-3.2C17.2,8,17,6.5,16.8,5c0-0.1,0-0.1,0-0.2c-0.1-0.6-0.1-0.6,0.3-1.1c0.6-0.8,1.3-1.6,1.9-2.4 c0.3-0.4,0.7-0.8,1-1.3c0.3,0.4,0.6,0.7,0.8,1.1c0.6,0.7,1.2,1.5,1.8,2.2c0.2,0.3,0.5,0.6,0.7,0.9c0,0.1,0.1,0.1,0.1,0.2 c-0.1,0.9-0.2,1.7-0.3,2.6c-0.1,1-0.3,2-0.4,3c-0.1,0.6-0.1,1.2-0.2,1.8c-0.1,0.8-0.2,1.5-0.3,2.3c0,0.2-0.1,0.5,0.1,0.7 c0.6,0.8,1.1,1.5,1.7,2.3c0.1,0.1,0.1,0.3,0.1,0.4c-0.2,1.3-0.4,2.7-0.6,4c-0.2,1-0.3,2-0.5,3c0-0.1,0-0.2,0-0.3 c0-2.1-0.1-4.2-0.1-6.3c0-0.1,0-0.2-0.1-0.2c-0.1,0-0.2,0-0.3,0.2c-0.4,1-0.8,2.1-1.2,3.1c0,0.1,0,0.3,0,0.4 c0.2,0.9,0.4,1.8,0.6,2.6c0.3,1.1,0.5,2.3,0.8,3.4c0,0.1,0.1,0.3,0.2,0.4c0.4-0.5,0.8-0.9,1.2-1.3c0.1-0.1,0.2-0.2,0.3-0.2 c0.8-0.3,1.6-0.5,2.4-0.8c0.1,0,0.2,0,0.3,0c0.6,0.2,1.2,0.3,1.8,0.5c0.2,0.1,0.4,0.3,0.7,0.4c0.1,0.1,0.3,0.1,0.4,0.1 c0.4,0,0.8-0.1,1.1-0.2c0.3-0.1,0.4-0.2,0.4-0.5c0.1-0.7,0.1-1.5,0.2-2.2c0-0.1,0-0.2,0.1-0.2c0.4-0.4,0.7-0.9,1.1-1.3 c0.4-0.3,0.9-0.5,1.3-0.8c0.1,0,0.2-0.1,0.2-0.2c0.1-0.4,0.1-0.8,0.2-1.3c0-0.2,0.1-0.3,0.2-0.5c0.2-0.2,0.4-0.5,0.6-0.7 c0.1-0.1,0.2-0.2,0.2-0.2c0.2,0,0.2-0.2,0.2-0.3c-0.1-0.6-0.3-1.2-0.4-1.8c-0.7-2.3-1.8-4.3-3.4-6c-1.7-1.8-3.6-3.2-5.9-4.1 C25.3,6,25.3,6,25.3,5.4c0-0.1,0-0.3,0.1-0.4c6.5,2,12,8.8,11.5,16.9c-0.5,9.3-8.4,16.5-17.8,16.1C10.7,37.6,3.3,30.7,3,21.6 C2.8,13,8.7,6.8,14.6,5z"/>
</svg>