<!-- (c) Carrd Inc. All rights reserved. All logos and trademarks are property of their respective owners. -->
<svg xmlns="http://www.w3.org/2000/svg" id="icon">
<path d="M12.2,23.6c-1.8-0.1-3.4-0.8-4.6-2C4.3,18.4,5,12.9,9.1,10.7c3.3-1.8,6.7-3.5,10-5.3c1.6-0.9,3.3-1.7,4.9-2.6 c2.7-1.3,5.3-1.1,7.6,0.7c3.9,3,3.4,9-0.9,11.4c-0.9,0.5-1.8,0.9-2.7,1.4c-0.1,0-0.1,0.1-0.2,0.1c0.5,0.1,1,0.1,1.4,0.3 c2.7,0.7,4.8,3,5.2,5.8c0.4,2.8-1,5.6-3.6,6.9c-3.4,1.8-6.8,3.6-10.3,5.4c-1.7,0.9-3.3,1.8-5,2.6c-4.1,2-9-0.5-9.8-5 c-0.5-2.9,0.9-5.8,3.5-7.2c0.9-0.5,1.8-0.9,2.7-1.4C12,23.7,12.1,23.7,12.2,23.6z M16.1,14.5c0,3.7,0,7.4,0,11.1c3-1.9,6-3.7,9-5.5 C22.1,18.2,19.1,16.3,16.1,14.5z"/>
</svg>