<!-- (c) Carrd Inc. All rights reserved. All logos and trademarks are property of their respective owners. -->
<svg xmlns="http://www.w3.org/2000/svg" id="icon">
<path d="M35.4,26.3c-1.6,1-3.8,1.2-5.5,0.3c-1.8-1-2.9-2.9-2.9-5.5v-3.5l-0.4,0.6l-4.3,6.7C21,27,19.5,27.3,18.6,27 c-0.9-0.3-2.1-1.2-2.1-3.8v-5.5l-7.8,12c5.6,6.1,15.2,6.6,21.4,1c0.7-0.6,1.7-0.5,2.3,0.1c0.8,0.6,0.6,1.7,0,2.3 c-3.5,3.1-7.9,4.7-12.6,4.7C9.8,37.9,1.5,29.8,1.5,20S9.8,2.1,19.9,2.1C30.2,2.1,38.5,10,38.5,20C38.5,22.7,37.5,25,35.4,26.3z M19.9,5.3C11.6,5.3,4.9,11.9,4.9,20c0,2.4,0.5,4.7,1.8,6.9l8.7-13.4c1-1.5,2.1-1.7,2.9-1.4c1,0.3,1.7,1.3,1.7,3.1v7.3l3.9-6 c0.6-1,2.3-3.6,4.5-2.9c1.3,0.4,2.1,1.7,2.1,3.7V21c0,1.3,0.4,2.2,1.2,2.6c0.6,0.4,1.3,0.3,1.9-0.1h0.1c1-0.5,1.6-1.8,1.6-3.5 C35.3,11.9,28.2,5.3,19.9,5.3z"/>
</svg>