<!-- (c) Carrd Inc. All rights reserved. All logos and trademarks are property of their respective owners. -->
<svg xmlns="http://www.w3.org/2000/svg" id="icon">
<path d="M26.3,13.9c-1.3,0-2.3,1-2.3,2.3c0,1.8,0.7,3.4,1.8,4.7c0.5,0.5,1,1,1.6,1.4c0.4-0.5,0.7-1.1,0.9-1.7c0.3-0.9,0.5-1.9,0.5-3 c0-0.6-0.1-1.2-0.2-1.8c0,0,0-0.1,0-0.1C28.3,14.6,27.4,13.9,26.3,13.9L26.3,13.9z M11.9,20.5c0.2,0.6,0.5,1.2,0.9,1.7 c0.6-0.4,1.1-0.8,1.6-1.4c1.1-1.3,1.8-2.9,1.8-4.7c0-1.3-1-2.3-2.3-2.3c-1.1,0-2,0.7-2.3,1.7c0,0,0,0.1,0,0.1 c-0.1,0.6-0.2,1.2-0.2,1.8C11.4,18.6,11.6,19.6,11.9,20.5L11.9,20.5z M37.8,19.4l2.2,1.1c-1.6,3.2-4.9,5.3-8.7,5.3 c-1.1,0-2.2-0.2-3.2-0.5c-2,2-4.8,3.3-8,3.3c-3.1,0-5.9-1.3-8-3.3c-1,0.3-2.1,0.5-3.2,0.5c-4,0-7.4-2.4-8.9-5.7l2.3-1 c1.1,2.5,3.7,4.3,6.7,4.3c0.5,0,1.1-0.1,1.6-0.2c-1-1.7-1.6-3.6-1.6-5.6c0-0.8,0.1-1.6,0.2-2.3c0-0.1,0-0.2,0.1-0.3 c0.5-2,2.4-3.5,4.6-3.5c0,0,0.1,0,0.1,0c0.1,0,0.3,0,0.4,0c2.4,0.3,4.3,2.3,4.3,4.7c0,3.3-1.7,6.2-4.2,7.9c1.5,1.3,3.5,2,5.6,2 c2.1,0,4.1-0.8,5.6-2c-2.5-1.7-4.2-4.6-4.2-7.9c0-2.4,1.9-4.5,4.3-4.7c0.1,0,0.3,0,0.4,0c0,0,0.1,0,0.1,0c2.2,0,4.1,1.5,4.6,3.5 c0,0.1,0.1,0.2,0.1,0.3c0.2,0.7,0.2,1.5,0.2,2.3c0,2.1-0.6,4-1.6,5.6c0.5,0.1,1,0.2,1.6,0.2C34.1,23.4,36.6,21.7,37.8,19.4 L37.8,19.4z"/>
</svg>