<!-- (c) Carrd Inc. All rights reserved. All logos and trademarks are property of their respective owners. -->
<svg xmlns="http://www.w3.org/2000/svg" id="icon">
<path d="M34.6,14.5l-0.4-0.3c-1.7-1.2-4.2-0.9-5.4,0.8L16.6,31c-1.2,1.7-0.9,4.2,0.8,5.4l0.4,0.3c1.7,1.2,4.2,0.9,5.4-0.8l12.1-16 C36.7,18.1,36.3,15.7,34.6,14.5z M16.5,21.7L11.3,15c-1.2-1.7-3.7-2.1-5.4-0.8l-0.4,0.3c-1.7,1.2-2.1,3.7-0.8,5.4l5.6,7.1l3,3.7 l2.6-3.5C17.3,25.4,17.8,23.5,16.5,21.7z M20,13c2.9,0,5.2-2.4,5.2-5.3S22.8,2.5,20,2.5s-5.2,2.4-5.2,5.3S17.1,13,20,13z"/>
</svg>