<!-- (c) Carrd Inc. All rights reserved. All logos and trademarks are property of their respective owners. -->
<svg xmlns="http://www.w3.org/2000/svg" id="icon">
<path d="M31.5,12.3v17.4c0,1.5-1.2,2.7-2.7,2.7h-5.5v4.8c0,1.5-1.2,2.8-2.8,2.8h-1.1c-1.5,0-2.8-1.2-2.8-2.8v-4.8l0,0 h-5.5c-1.5,0-2.7-1.2-2.7-2.7v-4.1v0V12C8.5,6.5,13.7,2,20,2c1.8,0,3.4,0.4,4.9,1l0,0c3.8,1.6,6.5,5.2,6.5,9.2L31.5,12.3L31.5,12.3z M30.1,11.6c0-3-2-5.5-4.8-6.7l0,0l-1.3-0.5l-14,19.3V24v0.1V29c0,1.1,0.9,2,2,2h5.8l12.3-17V11.6L30.1,11.6L30.1,11.6z"/>
</svg>