<!-- (c) Carrd Inc. All rights reserved. All logos and trademarks are property of their respective owners. -->
<svg xmlns="http://www.w3.org/2000/svg" id="icon">
<path d="M35,14c-2.2,0-4-1.8-4-4s1.8-4,4-4c2.2,0,4,1.8,4,4S37.2,14,35,14z M27.1,22.9c-0.3,0.3-0.6,0.6-1,0.8 c-0.4,0.2-0.8,0.3-1.3,0.3c-1-0.1-1.9-0.5-2.6-1.3C21.5,22,21.1,21,21.1,20c0-1,0.4-2,1.1-2.7c0.7-0.7,1.6-1.2,2.6-1.3 c0.4,0,0.9,0.1,1.3,0.3c0.4,0.2,0.7,0.4,1,0.8v-0.8H29v7.5h-1.9V22.9z M26.7,18.9c-0.2-0.3-0.5-0.6-0.9-0.8 c-0.4-0.2-0.8-0.2-1.2-0.1c-0.4,0.1-0.8,0.3-1,0.6c-0.3,0.3-0.5,0.7-0.6,1c-0.1,0.4,0,0.8,0.1,1.2c0.2,0.4,0.4,0.7,0.8,0.9 c0.3,0.2,0.7,0.3,1.1,0.3c0.5,0,1.1-0.2,1.4-0.6c0.4-0.4,0.6-0.9,0.6-1.4C27.1,19.6,26.9,19.2,26.7,18.9z M25,12.8 c-1.6,0-2.8-1.3-2.8-2.8s1.3-2.8,2.8-2.8s2.8,1.3,2.8,2.8S26.6,12.8,25,12.8z M16.5,13.7C15.8,14,15,14,14.2,13.9 c-0.8-0.2-1.5-0.5-2-1.1c-0.6-0.6-0.9-1.3-1.1-2C10.9,10,11,9.2,11.3,8.5c0.3-0.7,0.8-1.3,1.5-1.8C13.4,6.2,14.2,6,15,6 c0.5,0,1,0.1,1.5,0.3c0.5,0.2,0.9,0.5,1.3,0.9c0.4,0.4,0.7,0.8,0.9,1.3c0.2,0.5,0.3,1,0.3,1.5c0,0.8-0.2,1.6-0.7,2.2 C17.9,12.9,17.2,13.4,16.5,13.7z M16.7,8.8c-0.2-0.3-0.5-0.6-0.9-0.8C15.4,7.9,15,7.9,14.6,8c-0.4,0.1-0.8,0.3-1,0.6 c-0.3,0.3-0.5,0.7-0.6,1c-0.1,0.4,0,0.8,0.1,1.2c0.2,0.4,0.4,0.7,0.8,0.9c0.3,0.2,0.7,0.3,1.1,0.3c0.5,0,1.1-0.2,1.4-0.6 C16.8,11,17,10.5,17,10C17,9.6,16.9,9.2,16.7,8.8z M5,34c-2.2,0-4-1.8-4-4s1.8-4,4-4s4,1.8,4,4S7.2,34,5,34z M7.8,20 c0,1.6-1.3,2.8-2.8,2.8c-1.6,0-2.8-1.3-2.8-2.8c0-1.6,1.3-2.8,2.8-2.8C6.5,17.1,7.8,18.4,7.8,20z M1.8,6.3h1.9v5.6h4.5v1.9H1.8V6.3z M12.9,17.1c0.4-0.4,0.8-0.7,1.3-0.9c0.5-0.2,1-0.3,1.6-0.3c0.9,0,1.9,0.3,2.6,0.9l-0.8,1.7c-0.5-0.5-1.1-0.7-1.7-0.7 c-0.3,0-0.6,0-0.8,0.1c-0.3,0.1-0.5,0.2-0.7,0.4c-0.2,0.2-0.4,0.4-0.5,0.7c-0.1,0.3-0.2,0.5-0.2,0.8c0,0.3,0.1,0.6,0.2,0.8 c0.1,0.3,0.3,0.5,0.5,0.7c0.2,0.2,0.5,0.3,0.7,0.4c0.3,0.1,0.6,0.1,0.8,0.1c0.6,0,1.3-0.2,1.7-0.7l0.8,1.7c-0.7,0.6-1.6,0.9-2.6,0.9 c-0.5,0-1.1-0.1-1.6-0.3c-0.5-0.2-1-0.5-1.3-0.9c-0.4-0.4-0.7-0.8-0.9-1.3c-0.2-0.5-0.3-1-0.3-1.6c0-0.5,0.1-1.1,0.3-1.6 C12.2,17.9,12.5,17.5,12.9,17.1z M15,27.2c1.6,0,2.8,1.3,2.8,2.8c0,1.6-1.3,2.8-2.8,2.8s-2.8-1.3-2.8-2.8 C12.1,28.4,13.4,27.2,15,27.2z M23.8,31.8h4.4v1.9h-6.4v-7.4h2V31.8z M32.2,20c0-1.6,1.3-2.8,2.8-2.8c1.6,0,2.8,1.3,2.8,2.8 c0,1.6-1.3,2.8-2.8,2.8C33.5,22.8,32.2,21.6,32.2,20z M34.9,32.2c0.9,0,1.5-0.2,1.5-0.6c0-0.3-0.3-0.5-1.3-0.6 c-2.8-0.5-3.3-1.3-3.3-2.6c0-1.2,1.3-2.3,3.3-2.3c1,0,2,0.2,2.9,0.7l-0.5,1.7c-0.7-0.4-1.5-0.6-2.4-0.6c-0.8,0-1.3,0.1-1.3,0.5 c0,0.5,0.8,0.5,1.6,0.7c2.5,0.4,3,1.4,3,2.4c0,1.5-1.2,2.6-3.3,2.6c-1.2,0-2.5-0.4-3.5-1.1l0.6-1.8C33,31.7,33.9,32.1,34.9,32.2z"/>
</svg>