<!-- (c) Carrd Inc. All rights reserved. All logos and trademarks are property of their respective owners. -->
<svg xmlns="http://www.w3.org/2000/svg" id="icon">
<path d="M24.8,36.8c0.7,0,1.4-0.1,1.9-0.3v-1.1c-1.5,0-3-1-4-2.2c-1.8-2-4.3-5.2-6.3-8.8c3.3-0.8,5.8-3.9,5.8-7.1 c0-4.6-3.6-6.8-8.3-6.8c-2.4,0-4.4,0.1-6.2,0.1c-1.7,0-3.3,0-4.3,0v1.2L5,12.2c1.1,0.2,1.7,0.7,1.7,3.3v16.3C6.7,34.3,6,34.8,5,35 l-1.6,0.3v1.2c1.1,0,3.1-0.1,5-0.1c1.9,0,4.3,0.1,5.3,0.1v-1.2L11.5,35c-1.1-0.2-1.7-0.7-1.7-3.3v-6.9c1,0.1,1.9,0.1,3.2,0.1 c2.5,4.5,4.9,7.9,6.3,9.5C20.5,35.9,22.4,36.8,24.8,36.8z M12.8,23.1c-1.4,0-2,0-3-0.1V12.6c1-0.1,2.2-0.1,3.3-0.1 c3.5,0,5.5,1.8,5.5,5.1C18.7,20.9,16.5,23.1,12.8,23.1z M25.4,12.6c0-0.2-0.1-0.5-0.1-0.8c0-0.3-0.1-0.6-0.1-1c0-0.4,0-0.9,0-1.5 s0-1.1,0-1.5c0-0.4,0-0.8,0.1-1c0-0.3,0.1-0.5,0.1-0.8c0-0.2,0.1-0.4,0.2-0.6c0.4-1.1,0.9-1.9,1.8-2.4c0.8-0.5,1.8-0.8,3-0.8 c0.6,0,1.2,0.1,1.6,0.2c0.5,0.1,0.9,0.3,1.3,0.6c0.4,0.3,0.7,0.5,1,0.9c0.3,0.3,0.5,0.7,0.7,1.1c0.1,0.1,0,0.2-0.1,0.3l-1.5,0.6 c-0.1,0.1-0.2,0-0.3-0.1c-0.3-0.6-0.6-1-1.1-1.3C31.5,4.1,31.1,4,30.3,4c-0.8,0-1.1,0.2-1.6,0.5S27.8,5.3,27.6,6 c0,0.1-0.1,0.3-0.1,0.4s-0.1,0.4-0.1,0.7c0,0.3,0,0.6-0.1,0.9c0,0.4,0,0.8,0,1.4c0,0.5,0,1,0,1.4c0,0.4,0,0.7,0.1,0.9 c0,0.3,0.1,0.5,0.1,0.7s0.1,0.3,0.1,0.4c0.2,0.7,0.5,1,1,1.3c0.4,0.3,1,0.5,1.7,0.5c0.7,0,1.4-0.2,1.8-0.5c0.4-0.3,0.8-0.7,0.9-1.3 c0.1-0.2,0.2-0.5,0.2-0.9c0.1-0.4,0.1-0.7,0.1-1.2c0-0.1,0-0.1-0.1-0.1h-2.4c-0.1,0-0.2-0.1-0.2-0.2V9c0-0.1,0.1-0.2,0.2-0.2h4.4 c0.1,0,0.2,0.1,0.2,0.2v1.2c0,0.6,0,1.2-0.1,1.7c-0.1,0.5-0.1,1-0.3,1.3c-0.3,1.1-0.9,1.8-1.7,2.4c-0.8,0.6-1.9,0.9-3,0.9 c-1.2,0-2.2-0.3-3-0.8c-0.8-0.5-1.4-1.4-1.8-2.4C25.5,13.1,25.5,12.9,25.4,12.6L25.4,12.6z"/>
</svg>