<!-- (c) Carrd Inc. All rights reserved. All logos and trademarks are property of their respective owners. -->
<svg xmlns="http://www.w3.org/2000/svg" id="icon">
<path d="M39.8,24.1c-0.4,0.9-1.4,1.4-2.4,1.2c-0.9-0.2-1.8-0.7-1.8-2c0-0.8,0-1.7,0-2.5c0-0.8,0.8-1.6,1.7-1.7 c1-0.2,1.9,0.3,2.4,1.1c0.1,0.2,0.2,0.5,0.3,0.7c0,0.8,0,1.7,0,2.5C39.9,23.6,39.9,23.9,39.8,24.1z M30.1,27.3 c-1.1-0.3-1.7-1-1.7-2.2c0-2.7,0-5.5,0-8.2c0-1,0.8-2,1.8-2.1c1.2-0.2,2.3,0.5,2.6,1.5c0,0.1,0,0.3,0,0.4c0,1.4,0,2.9,0,4.3 c0,1.4,0,2.8,0,4.2C32.9,26.6,31.5,27.6,30.1,27.3z M25.7,25.8c0,1.1-0.7,1.9-1.8,2.1c-1,0.2-2.1-0.4-2.5-1.3 c-0.1-0.2-0.1-0.5-0.1-0.8c0-1.3,0-2.6,0-3.9c0-0.6-0.4-1.2-1-1.3c-0.7-0.1-1.4,0.1-1.6,0.7c-0.1,0.2-0.1,0.4-0.1,0.5 c0,1.2,0,2.4,0,3.6c0,1.2-1,2.3-2.4,2.1c-1.3-0.1-2-1-2.1-2.3c0-1.6,0-3.2,0-4.8c0-0.6-0.3-1-0.8-1.2c-0.6-0.2-1.2-0.1-1.6,0.4 c-0.2,0.2-0.3,0.6-0.3,0.9c0,3.3,0,6.7,0,10c0,1.1-0.6,1.9-1.6,2.2c-1.1,0.3-2.1-0.1-2.6-1.1c-0.2-0.3-0.2-0.7-0.2-1 c0-2.4,0-4.9,0-7.3c0-0.7-0.6-1.3-1.3-1.3c-0.7,0-1.4,0.5-1.4,1.3c0,0.5,0,1-0.3,1.5c-0.5,0.8-1.4,1.3-2.3,1.1 c-0.8-0.1-1.7-0.8-1.8-1.8C0.1,24,0,24,0,23.9c0,0,0-0.1,0-0.1c0-1.3,0-2.7,0-4c0-1,0-1.9,0-2.9c0-0.1,0.1-0.1,0.1-0.2 c0.2-1,1-1.7,2.1-1.7c1,0,1.9,0.5,2.2,1.6c0.1,0.4,0.1,0.7,0.1,1.1c0,0.7,0.6,1.2,1.4,1.2c0.8,0,1.3-0.5,1.3-1.2c0-1.5,0-3,0-4.5 c0-0.3,0-0.5,0.1-0.8c0.2-0.9,1.2-1.6,2.2-1.6c1.1,0.1,2,0.8,2.1,1.8c0.1,0.7,0.1,1.5,0.1,2.2c0,0.8,0.6,1.3,1.3,1.3 c0.7,0,1.3-0.5,1.3-1.3c0-1.7,0-3.5,0-5.2c0-0.8,0.3-1.5,1-2c0.3-0.2,0.6-0.3,0.9-0.4c0.2,0,0.4,0,0.6,0c0.3,0.1,0.5,0.2,0.8,0.3 c0.7,0.4,1.1,1,1.1,1.9c0,2.3,0,4.5,0,6.8c0,0.7,0.6,1.3,1.3,1.3c0.8,0,1.4-0.5,1.4-1.3c0-1.6,0-3.3,0-4.9c0-1.3,1-2.2,2.3-2.1 c1.2,0.1,2.1,1.1,2.1,2.3C25.7,16.2,25.7,21,25.7,25.8z"/>
</svg>