<!-- (c) Carrd Inc. All rights reserved. All logos and trademarks are property of their respective owners. -->
<svg xmlns="http://www.w3.org/2000/svg" id="icon">
<path d="M35.7,13c-0.2,4.6-3.6,8.4-8.1,9.3c-0.5,0.1-1.1,0.2-1.6,0.2c0-1.3,0-2.5,0-3.7c0.5-0.1,1-0.2,1.5-0.4 c2.5-0.9,4-2.6,4.4-5.2c0.5-3.4-1.9-6.5-5.2-7c-3.4-0.5-6.5,1.6-7.3,4.9c-0.1,0.4-0.1,0.8-0.1,1.2c0,5.2,0,10.3,0,15.5 c0,0.1,0,0.2,0,0.3c-1.2,0-2.5,0-3.7,0c0-0.1,0-0.2,0-0.3c0-5.1-0.1-10.3,0-15.4c0.1-4.2,2-7.2,5.8-9c3.9-1.9,8.5-1,11.5,2.1 C34.8,7.6,35.8,10.1,35.7,13z M13.4,33.7c3.4,0.6,6.6-1.6,7.3-5c0.1-0.4,0.1-0.8,0.1-1.2c0-5.1,0-10.3,0-15.4c0-0.1,0-0.2,0-0.3 c1.2,0,2.5,0,3.8,0c0,0.1,0,0.2,0,0.3c0,5.1,0,10.3,0,15.4c0,3.8-1.8,6.7-5.1,8.7c-1.9,1.1-3.9,1.5-6.1,1.3c-4.5-0.5-8-3.9-8.8-8 c-1.1-5.4,2.4-10.5,7.7-11.7c0.6-0.1,1.1-0.2,1.8-0.3c0,1.3,0,2.5,0,3.7c-0.3,0.1-0.7,0.1-1,0.2c-2.6,0.5-4.6,2.7-4.9,5.3 C7.7,30.1,10,33.1,13.4,33.7z"/>
</svg>