<!-- (c) Carrd Inc. All rights reserved. All logos and trademarks are property of their respective owners. -->
<svg xmlns="http://www.w3.org/2000/svg" id="icon">
<path d="M25.6,7.8c0-0.8,0-1.6,0-2.4c0-0.2,0.1-0.3,0.3-0.3c1.6,0,3.3,0,4.9,0c0.3,0,0.4,0,0.4,0.4c0,2.5,0,5.1,0,7.6 c0,0.1,0,0.1,0,0.2c0,0.1,0,0.2,0.1,0.3c0.2,0.2,0.4,0.4,0.6,0.6c0.2,0.2,0.4,0.4,0.6,0.6c0.2,0.2,0.4,0.4,0.6,0.6 c0.1,0.1,0.2,0.2,0.3,0.3c0.4,0.3,0.7,0.7,1.1,1c0.2,0.2,0.4,0.4,0.6,0.6c0.3,0.3,0.6,0.5,0.8,0.8c0.2,0.2,0.4,0.4,0.5,0.5 c0.2,0.2,0.4,0.4,0.7,0.6c0.2,0.2,0.4,0.5,0.6,0.7c0.3,0.3,0.3,0.4-0.1,0.6c-0.1,0.1-0.2,0.1-0.3,0.1c-1.5,0-3,0-4.5,0 c-0.1,0-0.2,0-0.3,0c0,0.1,0,0.2,0,0.3c0,5.3,0,10.7,0,16c0,0.4,0,0.4-0.4,0.4c-7.9,0-15.8,0-23.6,0c-0.5,0-0.5-0.1-0.5-0.5 c0-5.2,0-10.4,0-15.6c0-0.1,0-0.2,0-0.2c0-0.4,0-0.4-0.3-0.4c-1.4,0-2.8,0-4.2,0c-0.4,0-0.7-0.1-1-0.4c0.3-0.3,0.5-0.7,0.8-1 c0.4-0.5,0.9-0.9,1.3-1.3c0.3-0.4,0.7-0.7,1-1.1c0.3-0.3,0.7-0.7,1-1c0.4-0.4,0.7-0.8,1.1-1.1c0.3-0.3,0.7-0.7,1.1-1 c0.3-0.3,0.5-0.6,0.8-0.8c0.2-0.2,0.4-0.4,0.6-0.6c0.3-0.3,0.5-0.6,0.8-0.9c0.2-0.2,0.4-0.3,0.5-0.5c0.2-0.2,0.4-0.5,0.6-0.7 c0.2-0.2,0.4-0.3,0.6-0.5c0.2-0.2,0.4-0.4,0.6-0.6c0.2-0.2,0.4-0.4,0.6-0.6c0.2-0.2,0.4-0.4,0.6-0.6c0.2-0.2,0.4-0.4,0.6-0.6 c0.1-0.1,0.2-0.3,0.4-0.4c0.2-0.2,0.4-0.4,0.6-0.5c0.1-0.1,0.2-0.2,0.3-0.4c0.1-0.1,0.2-0.2,0.3-0.2c0.2-0.2,0.4-0.4,0.6-0.5 c0.2-0.2,0.4-0.4,0.6-0.6c0.2-0.2,0.4-0.4,0.7-0.6c0.2-0.2,0.4-0.4,0.6-0.6c0.1-0.1,0.2-0.2,0.4-0.3C19.3,3.1,19.4,3,19.5,3 c0.1-0.1,0.2-0.2,0.3-0.3c0.1-0.1,0.4-0.1,0.5,0C20.6,2.8,20.8,3,21,3.2c0.5,0.5,1,1,1.5,1.6c0.4,0.4,0.8,0.8,1.2,1.2 c0.3,0.3,0.6,0.6,0.8,0.9c0.3,0.3,0.5,0.5,0.8,0.8C25.4,7.7,25.5,7.7,25.6,7.8z M13,25.4c0.1,0,0.2,0,0.3,0c0.8,0,1.6,0,2.4,0 c0.3,0,0.4,0.2,0.5,0.5c0,0.2,0,0.5,0,0.7c0,0.5,0,1,0,1.6c0,0.9,0,1.9,0,2.8c0,0.7,0,1.3,0,2c0,0.7,0,1.5,0,2.2c0,0,0,0.1,0,0.1 c-0.1,0.3,0,0.3,0.2,0.3c0.5,0,1.1,0,1.6,0c0.4,0,0.4,0,0.3-0.4c0-0.1,0-0.1,0-0.2c0-3,0-6,0-9c0-0.1,0-0.1,0-0.2 c0-0.3,0.1-0.4,0.5-0.4c0.7,0,1.4,0,2.1,0c0.4,0,0.5,0,0.5,0.5c0,3.1,0,6.2,0,9.4c0,0.1,0,0.2,0,0.3c0.5,0,1.1,0,1.6,0 c0.2,0,0.3,0,0.4-0.1c0.1,0,0-0.2,0-0.4c0-1.5,0-3.1,0-4.6c0-0.3,0.1-0.3,0.3-0.3c1.3,0,2.6,0,3.9,0c0.2,0,0.3,0.1,0.3,0.3 c0,1.6,0,3.2,0,4.8c0,0.1,0,0.2,0,0.3c0.7,0,1.3,0,1.9,0c0.2,0,0.2-0.1,0.2-0.2c0-0.1,0-0.3,0-0.4c0-3.4,0-6.8,0-10.2 c0-0.2,0-0.4,0-0.7c0-0.1-0.1-0.2-0.1-0.2c-0.6,0-1.3,0-1.9,0c0,0.1,0,0.2,0,0.3c0,1.4,0,2.7,0,4.1c0,0.2-0.1,0.3-0.3,0.3 c-1.3,0-2.6,0-3.9,0c-0.3,0-0.3-0.1-0.3-0.3c0-1.3,0-2.6,0-3.9c0-0.1,0-0.1,0-0.2c0.1-0.3,0.1-0.3-0.3-0.3c-3.2,0-6.5,0-9.7,0 c-0.1,0-0.2,0-0.3,0C13,24.4,13,24.9,13,25.4z"/>
</svg>