<!-- (c) Carrd Inc. All rights reserved. All logos and trademarks are property of their respective owners. -->
<svg xmlns="http://www.w3.org/2000/svg" id="icon">
<path d="M3,21.1c0-0.7,0-1.4,0-2.1c0.1-0.2,0.1-0.4,0.2-0.6c0.2-1.1,0.7-2.2,1.4-3.1C5.3,14.5,6,13.7,6.7,13 c2.4-2.4,4.8-4.8,7.2-7.2c1-1,2.1-1.9,3.6-2.3C18,3.3,18.5,3.2,18.9,3c0.7,0,1.4,0,2.1,0c0.2,0.1,0.4,0.2,0.6,0.2 c1.1,0.2,2,0.6,2.9,1.3c0.8,0.7,1.6,1.4,2.4,2.2c1.3,1.2,2.5,2.5,3.7,3.7c1.2,1.2,2.5,2.5,3.7,3.7c1.4,1.3,2.3,2.9,2.5,4.8 c0,0.4,0.1,0.8,0.1,1.1c0,0,0,0.1,0,0.1c0,0.2-0.1,0.3-0.1,0.5c-0.1,1.6-0.7,3.1-1.8,4.3c-1,1.1-2,2.1-3.1,3.2 c-1.3,1.3-2.5,2.5-3.8,3.8c-1,0.9-1.9,1.9-2.9,2.8c-1.7,1.7-3.8,2.4-6.2,2.2c-1.7-0.2-3.2-0.8-4.4-1.9c-0.8-0.7-1.6-1.6-2.4-2.3 c-1.3-1.3-2.5-2.5-3.8-3.8c-1.1-1.1-2.2-2.2-3.3-3.3c-0.8-0.8-1.5-1.8-1.9-2.9C3.3,22.2,3.2,21.6,3,21.1z M25.6,20 c0.1-3.1-2.5-5.6-5.6-5.6c-3.1,0-5.5,2.5-5.6,5.5c-0.1,3.1,2.5,5.7,5.6,5.7C23,25.6,25.7,23,25.6,20z"/>
</svg>