<!-- (c) Carrd Inc. All rights reserved. All logos and trademarks are property of their respective owners. -->
<svg xmlns="http://www.w3.org/2000/svg" id="icon">
<path d="M30.2,33.2H4.8c-1.3,0-2.3-1-2.3-2.4V15.1c0-4.9,3-8.4,7.3-8.4h25.4c1.3,0,2.3,1,2.3,2.4v15.8 C37.5,29.8,34.5,33.2,30.2,33.2z M35.5,9.1c0-0.2-0.1-0.4-0.4-0.4l-25.4,0c-3.2,0-5.3,2.5-5.3,6.4v15.8c0,0.2,0.2,0.4,0.4,0.4h25.4 c3.2,0,5.3-2.5,5.3-6.4V9.1z M30.2,27.3c-1.3,0-2.3-1.1-2.3-2.4c0-1.3,1-2.4,2.3-2.4c1.3,0,2.3,1.1,2.3,2.4 C32.5,26.2,31.5,27.3,30.2,27.3z M11,15.9h18v2.4H11V15.9z"/>
</svg>