<!-- (c) Carrd Inc. All rights reserved. All logos and trademarks are property of their respective owners. -->
<svg xmlns="http://www.w3.org/2000/svg" id="icon">
<path d="M0.5,19c0,0,0.8-0.1,1.2,0.2c0.3,0.4,0.1,1.2-0.3,1.2c-0.5,0-0.9,0.1-1.2-0.2c-0.3-0.3-0.2-0.8,0.1-1 C0.3,19.1,0.4,19,0.5,19 M9.6,24.4c-0.1,0-0.2,0-0.3-0.1c-0.6-0.9-0.8-3.9-1.1-4.1c-0.3-0.2-1.3,1.7-3.4,1.5C4,21.6,3.1,21,2.6,20.6 c0-0.7,0.1-2.3,1.3-1.8c0.8,0.3,2.1,1.2,3.3-0.4c1.3-1.7,2-1.2,2.4-0.9c0.4,0.4,0.1,2.3,0.8,1.8c0.6-0.5,3.2-3.9,3.2-3.9 s2-2.1,2.3,0.1c0.3,2.2,1.6,4.7,1.9,4.6c0.3-0.1,4.4-8.7,4.9-9.3c0.6-0.6,2.5-0.5,2.4,0.9c-0.1,1.4-0.3,10.3-0.3,10.3 s-0.2,2.5,0.1,1.2c0.2-0.6,0.3-1.1,0.5-1.6c1-3.4,2.7-9.1,3.5-12l0.5-1.8c0-0.2,0.1-0.4,0.2-0.5c0.1-0.3,0.1-0.4,0.1-0.5 c0-0.1,0.1-0.2,0.3-0.3c0.1-0.1,0.3-0.1,0.5-0.1c0.5,0,1.1,0,1.6,0.2c0.2,0,0.3,0.1,0.5,0.2l0,0l0,0c0.1,0,0.1,0.1,0.2,0.2l0,0 c0,0,0.1,0.1,0.1,0.1c0.3,0.5,0.5,1.3,0.3,2.9c-0.5,3.8-0.8,11.7-0.8,11.7s-0.1,0.4,0.7-1.3c0-0.1,0.1-0.1,0.1-0.2 c0.1,0,0.1-0.1,0.1-0.1c0.5-0.6,1.7-0.9,2.5-0.9c0.4,0,0.7,0.1,0.8,0.3c0.3,0.5,0.1,2.6,0.1,2.6c-0.7,0.1-2.1,0.5-2.5,0.6 c-0.5,0.1-1.2,3.4-2.2,3c-1-0.3-3.3-1.8-3.3-2c0-0.2,0.2-2.4,0.2-2.9l0-0.1l0,0c0-0.4,0-0.6-0.2-0.2c-0.2,0.4-0.9,2.8-1.7,5.5 c-0.1,0.2-1.6,5.2-1.8,5.8c-0.2,0.7-0.4,1.2-0.6,1.5c-0.2,0.3-0.5,0.5-0.9,0.4c-1-0.3-2.3-1.8-2.3-2.1c0-2,0.1-13-0.4-12.1 c-0.5,0.9-4.2,7.5-4.2,7.5c-0.1,0-0.1,0-0.2,0c-0.3,0-0.7-0.1-0.8-0.4c0,0,0,0,0,0c0,0,0,0,0-0.1c0-0.2-0.1-0.4-0.1-0.5 c-0.2-0.6-0.4-1.5-0.7-2.3c-0.4-1.5-0.9-3-0.9-3.2c-0.1-0.3-0.3-0.2-0.5,0C12.9,20.9,11.2,24.2,9.6,24.4"/>
</svg>