<!-- (c) Carrd Inc. All rights reserved. All logos and trademarks are property of their respective owners. -->
<svg xmlns="http://www.w3.org/2000/svg" id="icon">
<path d="M34.7,28.1H25v0l-0.8,0l0,0H25V15.7v0c0-0.4-0.3-0.8-0.8-0.8H11.9V5.3c0-0.4,0.3-0.8,0.8-0.8h22.1 c0.4,0,0.8,0.3,0.8,0.8v22C35.5,27.7,35.2,28.1,34.7,28.1z M24.3,15c0.4,0,0.8,0.3,0.8,0.8C25,15.3,24.7,15,24.3,15z M11.9,15.8 c0,6.8,5.5,12.3,12.3,12.3c0,0,0,0,0,0l0.8,0v6.7c0,0.4-0.3,0.8-0.8,0.8h-19c-0.4,0-0.8-0.3-0.8-0.8v-19c0-0.4,0.3-0.8,0.8-0.8h6.7 L11.9,15.8z"/>
</svg>