<!-- (c) Font Awesome (fontawesome.io, SIL OFL) -->
<svg xmlns="http://www.w3.org/2000/svg" id="icon">
<path d="M3.3,16.9c0.1,0.1,0.3,0.2,0.5,0.2h4.4c0.3,0,0.6-0.2,0.7-0.5c0.6-1.5,1-2.4,1.2-2.7c1.1-1.7,2.5-3.1,4.2-4.1S18,8.3,20,8.3 c1.5,0,2.9,0.3,4.3,0.8s2.6,1.3,3.7,2.3l-3.1,3.1c-0.3,0.3-0.4,0.6-0.4,1c0,0.4,0.1,0.7,0.4,1c0.3,0.3,0.6,0.4,1,0.4H36 c0.4,0,0.7-0.1,1-0.4c0.3-0.3,0.4-0.6,0.4-1V5.4c0-0.4-0.1-0.7-0.4-1C36.8,4.1,36.4,4,36,4c-0.4,0-0.7,0.1-1,0.4l-2.9,2.9 c-1.6-1.5-3.5-2.7-5.5-3.6s-4.2-1.3-6.4-1.3c-4.2,0-7.8,1.3-10.9,3.8s-5.1,5.8-6.1,9.9c0,0,0,0.1,0,0.2C3.1,16.6,3.1,16.7,3.3,16.9z M2.9,35.6C3.2,35.9,3.6,36,4,36s0.7-0.1,1-0.4l3-2.9c1.6,1.5,3.5,2.7,5.6,3.6s4.3,1.3,6.5,1.3c4.2,0,7.8-1.3,10.9-3.8 s5.2-5.8,6.2-9.9v-0.2c0-0.2-0.1-0.4-0.2-0.5s-0.3-0.2-0.5-0.2h-4.5c-0.3,0-0.6,0.2-0.7,0.5c-0.6,1.5-1,2.4-1.2,2.7 c-1.1,1.7-2.5,3.1-4.2,4.1c-1.8,1-3.7,1.5-5.7,1.5c-3.1,0-5.7-1-8-3.1l3.1-3.1c0.3-0.3,0.4-0.6,0.4-1s-0.1-0.7-0.4-1 c-0.3-0.3-0.6-0.4-1-0.4H4c-0.4,0-0.7,0.1-1,0.4s-0.4,0.6-0.4,1v10.2C2.5,35,2.6,35.3,2.9,35.6z"/>
</svg>