<!-- (c) Carrd Inc. All rights reserved. All logos and trademarks are property of their respective owners. -->
<svg xmlns="http://www.w3.org/2000/svg" id="icon">
<path d="M19.6,38C9.7,37.8,1.8,29.6,2,19.6C2.2,9.7,10.4,1.8,20.4,2c9.9,0.2,17.8,8.4,17.6,18.4 C37.8,30.3,29.6,38.2,19.6,38z M19.7,35.7c4.2,0.1,8.1-1.5,11-4.1l-7.7-8c-0.1,0.1-2.9-4.8-2.9-4.8s-3,4.7-3.1,4.6l-8,7.7 C11.7,33.9,15.5,35.6,19.7,35.7z M20.3,4.3C11.6,4.1,4.4,11,4.3,19.7c-0.1,3.7,1.1,7.1,3.2,9.8l8.2-7.9c-0.2-0.5-0.3-1.1-0.3-1.7 c0.1-2.6,2.2-4.6,4.7-4.5c2.6,0.1,4.6,2.2,4.5,4.7c0,0.6-0.1,1.2-0.4,1.7l7.9,8.2c2.2-2.6,3.5-6,3.6-9.7C35.9,11.6,29,4.4,20.3,4.3z "/>
</svg>