<!-- (c) Carrd Inc. All rights reserved. All logos and trademarks are property of their respective owners. -->
<svg xmlns="http://www.w3.org/2000/svg" id="icon">
<path d="M27.4,13.5l0.7-3.7c0.1-0.3,0-0.5-0.2-0.8c-0.2-0.2-0.4-0.3-0.7-0.3H13.6c-0.3,0-0.5,0.1-0.7,0.3c-0.2,0.2-0.3,0.5-0.3,0.7 v21.1c0,0.1,0,0.1,0.1,0l5.6-6.7c0.3-0.3,0.5-0.5,0.7-0.6c0.2-0.1,0.5-0.1,0.9-0.1h4.6c0.3,0,0.5-0.1,0.7-0.3 c0.2-0.2,0.3-0.4,0.3-0.6c0.3-1.7,0.5-2.9,0.7-3.7c0.1-0.3,0-0.5-0.2-0.8c-0.2-0.2-0.4-0.4-0.7-0.4h-5.6c-0.4,0-0.7-0.1-0.9-0.4 c-0.2-0.2-0.4-0.5-0.4-0.9v-0.8c0-0.4,0.1-0.7,0.4-0.9c0.2-0.2,0.5-0.4,0.9-0.4h6.6c0.2,0,0.5-0.1,0.7-0.3 C27.2,13.9,27.3,13.7,27.4,13.5L27.4,13.5z M31.7,9.2c-0.2,0.9-0.5,2.6-1,5.1c-0.5,2.5-0.9,4.7-1.3,6.7s-0.6,3.1-0.7,3.3 c-0.1,0.3-0.1,0.5-0.2,0.6s-0.1,0.3-0.3,0.6c-0.1,0.3-0.3,0.5-0.5,0.6s-0.4,0.3-0.7,0.4c-0.3,0.1-0.7,0.2-1.1,0.2h-5.2 c-0.2,0-0.3,0.1-0.4,0.2c-0.1,0.1-2.8,3.3-8.1,9.5C11.9,36.8,11.5,37,11,37c-0.5,0-0.8,0-0.9-0.1C9.4,36.6,9.1,36,9.1,35v-27 c0-0.7,0.2-1.4,0.7-2s1.3-0.9,2.3-0.9h17c1.2,0,2,0.3,2.4,1S32,7.9,31.7,9.2L31.7,9.2z M31.7,9.2l-3,15.1c0.1-0.2,0.3-1.3,0.7-3.3 c0.4-2,0.8-4.2,1.3-6.7C31.2,11.9,31.5,10.2,31.7,9.2z"/>
</svg>