<!-- (c) Carrd Inc. All rights reserved. All logos and trademarks are property of their respective owners. -->
<svg xmlns="http://www.w3.org/2000/svg" id="icon">
<path d="M27.8,33.6c-2.3,1.3-4.9,1.9-7.5,1.9c-2.7,0-5.2-0.6-7.5-1.9c1.9-1.2,3.5-2.6,4.8-4.3c1.3-1.7,2.2-3.5,2.7-5.5 c0.5,2,1.4,3.8,2.7,5.5S25.9,32.4,27.8,33.6L27.8,33.6z M17.6,4.3v9.9c0,3.4-0.9,6.6-2.6,9.4s-4,4.9-6.8,6.3 C5.8,27,4.5,23.6,4.5,19.8c0-2.6,0.6-4.9,1.7-7.2S9,8.6,11,7.1S15.2,4.7,17.6,4.3z M36,19.8c0,3.8-1.2,7.2-3.7,10.2 c-2.8-1.4-5-3.4-6.8-6.3c-1.7-2.8-2.6-6-2.6-9.4V4.3c2.4,0.4,4.7,1.3,6.7,2.8s3.6,3.3,4.7,5.5S36,17.3,36,19.8z"/>
</svg>