<!-- (c) Carrd Inc. All rights reserved. All logos and trademarks are property of their respective owners. -->
<svg xmlns="http://www.w3.org/2000/svg" id="icon">
<path d="M32.3,32.4c-3.1,3.1-7.4,5.2-12.2,5.2c-5,0-9.2-2.2-12.2-5.2h0c-2.8-2.8-5.1-6.7-5.2-12.1c0,0,0,0,0,0 c0-3,1.1-6.7,2.4-8.9c1.8-3,5.3-6.2,9.4-7.6c1.5-0.5,3.3-0.7,5-0.8c0.2,0,0.4,0,0.6,0c7.7,0,13,4.6,15.5,10.1c1,2.2,1.6,4.6,1.6,7.1 C37.5,25.6,35.2,29.6,32.3,32.4z M9.3,11.9c0.2-0.3,0.4-0.6,0.7-0.8c0.2-0.2,0.4-0.5,0.6-0.8C10,9.8,9.6,9.2,9.1,8.7 C8.8,9.1,8.5,9.3,8.2,9.6c-0.3,0.3-0.6,0.6-0.7,1C8.1,11.1,8.6,11.5,9.3,11.9z M7.6,14.7c0.3-0.6,0.7-1.2,1-1.8 c-0.3-0.2-0.6-0.5-0.9-0.7c-0.3-0.2-0.6-0.4-1-0.6c-0.2,0.4-0.4,0.8-0.6,1.1c-0.2,0.4-0.4,0.7-0.5,1.1C6.2,14.2,6.8,14.5,7.6,14.7z M6,27.7c0.1,0.2,0.2,0.5,0.4,0.7c0.1,0.2,0.2,0.3,0.3,0.4c0.6-0.4,1.2-0.8,1.9-1.3c0-0.1-0.1-0.2-0.2-0.3c-0.1-0.1-0.2-0.3-0.3-0.6 c-0.1-0.1-0.1-0.1-0.2-0.2c-0.1-0.1-0.1-0.2-0.1-0.3c-0.1-0.2-0.1-0.3-0.2-0.4c0,0,0,0,0,0c-0.7,0.3-1.4,0.5-2.1,0.8 C5.6,26.9,5.8,27.3,6,27.7L6,27.7z M11.1,33.5c0.3,0.3,0.7,0.5,1.1,0.6c0.3-0.7,0.7-1.3,1-2c-0.5-0.4-1-0.8-1.7-1.1 c-0.2,0.3-0.5,0.6-0.8,0.9c-0.3,0.3-0.5,0.5-0.7,0.8C10.5,32.9,10.8,33.2,11.1,33.5L11.1,33.5z M19.4,36.2c0.1,0,0.1,0,0.2,0 c0-0.7,0-1.5,0-2.2c-0.4,0-0.7-0.1-1-0.1c-0.3-0.1-0.6-0.1-1-0.1c-0.2,0.8-0.4,1.4-0.5,2.2C17.7,36.1,18.5,36.2,19.4,36.2z M32.7,25.8c-0.3,0.6-0.6,1.2-0.9,1.8c0.7,0.4,1.2,0.9,1.8,1.3v0c0.5-0.7,0.9-1.3,1.2-2.2C34.1,26.3,33.4,26,32.7,25.8z M33.7,22.6 c-0.2,0.7-0.4,1.3-0.5,1.9c0.7,0.3,1.3,0.6,2.1,0.8v0c0.2-0.8,0.5-1.6,0.6-2.4C35.2,22.7,34.4,22.7,33.7,22.6z M28.8,9.6L28.8,9.6 C29,9.3,29.3,9,29.6,8.7c0.3-0.3,0.5-0.5,0.7-0.9c-0.6-0.5-1.3-1-2.1-1.4c-0.3,0.7-0.7,1.4-1,2C27.8,8.8,28.3,9.2,28.8,9.6z M20.8,6.5c0.7,0.1,1.4,0.1,2,0.3l0,0c0.3-0.7,0.4-1.4,0.6-2.2c-0.7-0.2-1.5-0.3-2.4-0.3c0,0-0.1,0-0.1,0C20.8,5,20.8,5.8,20.8,6.5z M20.8,7.8c0,0.8,0,1.6,0,2.3c1.2,0.1,2.2,0.4,3.1,0.7v0c0.1-0.4,0.3-0.7,0.5-1.1c0.2-0.3,0.4-0.7,0.5-1C23.7,8.3,22.4,7.9,20.8,7.8 z M27.6,33c0.2,0.3,0.4,0.6,0.5,1c0.8-0.4,1.5-0.8,2.1-1.5c-0.3-0.3-0.5-0.6-0.7-0.9c-0.2-0.3-0.5-0.6-0.8-0.8 c-0.5,0.4-0.9,0.8-1.5,1.1C27.2,32.4,27.4,32.7,27.6,33L27.6,33z M25.1,11.4c1,0.6,1.7,1.4,2.6,1.9v0c0.6-0.5,1.2-0.9,1.7-1.4 c-0.9-1-2-1.9-3.3-2.6C25.7,9.9,25.5,10.7,25.1,11.4z M29.3,13.7c-0.3,0.2-0.6,0.5-0.8,0.8c0.5,0.9,1,1.8,1.4,2.9 c0.7-0.1,1.4-0.4,2.2-0.5c-0.4-1.5-1-2.8-1.9-3.8C29.9,13.3,29.6,13.5,29.3,13.7z M29.8,23.1c-0.3,1-0.7,2-1.3,2.8 c0.4,0.6,1.1,1,1.8,1.5c0.8-1,1.4-2.3,1.8-3.8C31.3,23.4,30.6,23.2,29.8,23.1z M30.1,21.8c0.8,0.1,1.5,0.4,2.2,0.5 c0.1-0.6,0.2-1.4,0.2-2.1c0-0.7-0.1-1.5-0.2-2.1c-0.8,0.1-1.5,0.3-2.2,0.5c0.1,0.5,0.1,1.1,0.1,1.6C30.2,20.8,30.2,21.3,30.1,21.8z M25.9,32.7c-0.3,0.2-0.6,0.3-0.9,0.4c-0.3,0.1-0.6,0.2-0.9,0.3c0.2,0.7,0.3,1.5,0.6,2.2h0c0.9-0.2,1.6-0.5,2.3-0.9 C26.7,34,26.3,33.3,25.9,32.7z M26,31.1c1.4-0.6,2.5-1.5,3.4-2.7c-0.6-0.5-1.2-0.9-1.8-1.4c-0.7,0.9-1.7,1.4-2.5,2.1 C25.5,29.8,25.8,30.5,26,31.1z M26,7.8L26,7.8c0.4-0.7,0.8-1.3,1-2c-0.8-0.3-1.5-0.7-2.4-0.9c-0.1,0.8-0.4,1.5-0.5,2.2 C24.8,7.3,25.4,7.6,26,7.8z M32,29.2c-0.3-0.2-0.6-0.4-1-0.6c-0.4,0.5-0.8,1-1.2,1.4c0.4,0.6,0.9,1.1,1.5,1.7h0 c0.6-0.7,1.3-1.2,1.7-1.9C32.6,29.7,32.3,29.4,32,29.2z M23.3,35.9c-0.1-0.4-0.2-0.8-0.2-1.2c-0.1-0.4-0.2-0.7-0.3-1 c-0.6,0.2-1.3,0.2-1.9,0.3c0,0.7,0,1.5,0,2.2c0.1,0,0.1,0,0.2,0l0,0C21.9,36.2,22.6,36.1,23.3,35.9z M20.7,31.9c0,0.3,0,0.6,0.1,0.8 c1.6-0.1,2.9-0.5,4.1-0.9c-0.3-0.8-0.6-1.5-1-2.1c-0.9,0.4-2.1,0.6-3.1,0.8c0,0.1,0,0.1,0,0.2C20.7,31.1,20.7,31.5,20.7,31.9z M29,20.3c0-1.2-0.2-2.6-0.8-3.9c-0.3-0.5-0.7-1.2-1-1.5c-1.4-1.9-3.9-3.4-7-3.4c-0.4,0-0.8,0-1.3,0.1c-2.3,0.3-4.3,1.5-5.5,2.9 c-1.1,1.2-1.9,2.9-2.1,4.8v0c0,0.3,0,0.6,0,0.9c0,3,1.4,5.4,3,6.8c0.6,0.5,1.4,1,2,1.3c1.2,0.6,2.5,0.8,3.7,0.8 c2.2,0,4.3-0.8,5.9-2.2c1.6-1.4,2.8-3.4,3-5.7C29,20.9,29,20.6,29,20.3z M15.4,8.7c0.3,0.7,0.6,1.4,0.9,2.1v0 c0.5-0.1,0.9-0.2,1.4-0.4c0.5-0.1,1-0.3,1.7-0.3c0-0.8,0-1.5,0-2.3C17.9,7.9,16.6,8.3,15.4,8.7z M11.7,12.6c0.3,0.2,0.6,0.4,0.9,0.7 c0.9-0.6,1.6-1.4,2.6-2c-0.1-0.3-0.3-0.6-0.4-0.9c-0.2-0.3-0.4-0.7-0.5-1.1c0,0,0,0,0,0c0,0,0,0,0,0C13,10.1,11.7,10.8,11,12 C11.2,12.2,11.4,12.4,11.7,12.6z M10.9,26.8c0.3-0.2,0.6-0.5,0.9-0.7c-0.6-1-0.9-2.1-1.5-3c-0.6,0.2-1.4,0.4-2.1,0.5 c0.3,1.6,1,2.7,1.7,3.9v0C10.3,27.2,10.6,27,10.9,26.8z M10.5,17.3c0.4-1,0.8-2,1.4-2.9c-0.6-0.5-1.2-1-1.8-1.4 c-0.8,1.1-1.4,2.3-1.8,3.8C9,17,9.7,17.2,10.5,17.3z M12.6,27c-0.7,0.5-1.3,0.9-1.8,1.5c0.9,1.1,2,1.9,3.3,2.6 c0.3-0.7,0.7-1.3,1-2.1C14.3,28.5,13.3,27.9,12.6,27z M15.3,31.8c1.2,0.4,2.5,0.8,4.1,0.9c0-0.8,0-1.6,0-2.3 c-1.2-0.1-2.2-0.4-3.1-0.7c-0.2,0.4-0.4,0.7-0.6,1C15.6,31,15.4,31.3,15.3,31.8z M10.1,18.5c-0.8-0.1-1.5-0.4-2.2-0.5 c-0.1,0.7-0.2,1.5-0.2,2.3l0,0c0,0.7,0.1,1.4,0.2,2c0.8-0.2,1.6-0.3,2.2-0.5c-0.1-0.4-0.1-0.9-0.1-1.4C10,19.7,10.1,19.1,10.1,18.5z M14.4,32.7c-0.4,0.7-0.8,1.3-1.1,2c0.8,0.4,1.5,0.7,2.4,0.9c0.1-0.4,0.2-0.8,0.3-1.1c0.1-0.4,0.2-0.7,0.2-1.1 C15.6,33.2,15,33,14.4,32.7z M9.2,28.6c-0.3,0.3-0.6,0.5-0.9,0.6c-0.3,0.2-0.6,0.4-0.8,0.6c0.4,0.7,1.1,1.3,1.7,1.9h0 c0.4-0.6,0.9-1.1,1.4-1.6C10.2,29.6,9.7,29,9.2,28.6z M10.9,8.7L10.9,8.7c0.2,0.3,0.5,0.6,0.8,0.8c0.3-0.3,0.6-0.4,0.9-0.6 c0.3-0.2,0.5-0.4,0.8-0.6c-0.4-0.6-0.7-1.3-1-1.9c-0.8,0.4-1.5,0.8-2.1,1.5C10.4,8.1,10.6,8.4,10.9,8.7z M16.3,7.1 c0-0.4-0.1-0.9-0.2-1.2c-0.1-0.2-0.1-0.5-0.2-0.7c-0.1-0.2-0.1-0.3-0.2-0.3c-0.9,0.2-1.6,0.5-2.3,0.9c0.3,0.7,0.7,1.4,1.1,2 C15,7.5,15.5,7.2,16.3,7.1z M19.6,6.5c0-0.7,0-1.5,0-2.2c-0.1,0-0.1,0-0.2,0c-0.9,0-1.7,0.1-2.3,0.3c0.1,0.8,0.3,1.4,0.5,2.2 c0.4,0,0.7-0.1,1-0.1C18.8,6.6,19.2,6.5,19.6,6.5z M30.5,11.2L30.5,11.2c0.2,0.3,0.4,0.5,0.6,0.7c0.6-0.5,1.2-0.9,1.8-1.2 c-0.4-0.8-1-1.4-1.8-1.9c-0.4,0.6-1,1.1-1.4,1.6C30,10.7,30.3,11,30.5,11.2z M34.9,13.9c-0.4-0.8-0.7-1.6-1.2-2.2 c-0.3,0.3-0.7,0.4-1,0.6c-0.4,0.2-0.7,0.4-0.8,0.7c0.3,0.5,0.6,1.1,0.9,1.7c0.4-0.1,0.8-0.3,1.2-0.4C34.3,14.3,34.6,14.1,34.9,13.9z M35.9,17.7c-0.1-0.9-0.4-1.7-0.6-2.5c-0.7,0.3-1.4,0.6-2.1,0.8c0.1,0.7,0.3,1.3,0.5,2c0,0,0,0,0,0v0C34.5,18,35.1,17.8,35.9,17.7z M36.1,19c-0.4,0-0.7,0.1-1.1,0.1c-0.4,0.1-0.7,0.1-1.1,0.1c0,0.7,0,1.3,0,2c0.7,0.1,1.5,0.2,2.2,0.3c0-0.4,0-0.8,0-1.1 C36.1,20,36.1,19.6,36.1,19z M6.6,17.9L6.6,17.9C6.8,17.3,7,16.7,7.1,16c-0.7-0.3-1.3-0.6-2.1-0.8c-0.2,0.8-0.5,1.6-0.6,2.5 C5.1,17.8,5.9,17.8,6.6,17.9z M4.2,21.5c0.1,0,0.1,0,0.2,0c0.6,0,1.4-0.2,2-0.2h0c0-0.7,0-1.4,0-2C5.7,19.1,5,19,4.2,18.9 c0,0.5,0,1,0,1.4C4.2,20.7,4.2,21.1,4.2,21.5z M7.1,24.5c-0.1-0.7-0.3-1.3-0.5-2c-0.8,0.1-1.5,0.2-2.2,0.3c0.1,0.9,0.4,1.6,0.6,2.5 v0C5.8,25.1,6.4,24.8,7.1,24.5z M20.7,30.6C20.7,30.6,20.7,30.6,20.7,30.6C20.7,30.6,20.7,30.6,20.7,30.6L20.7,30.6z"/>
</svg>