<!-- (c) Carrd Inc. All rights reserved. All logos and trademarks are property of their respective owners. -->
<svg xmlns="http://www.w3.org/2000/svg" id="icon">
<path d="M28.2,30.2c-4.7,0,2.5-26.7,2.5-26.7l-4.9,0c0,0-2,6.3-3.3,13.3h-4.2c0.1-1.4,0.2-2.9,0.1-4.3 c-0.2-11.5-6.9-9.4-9.9-6.7C5.7,8.2,3.3,13,3.3,16.7c0.5,0,2.3,0,2.3,0S7,9.8,11.8,9.8c4.7,0-2.6,26.7-2.6,26.7l4.9,0 c0,0,2.5-7.2,3.8-15.1l4,0c-0.2,2.1-0.3,4.3-0.3,6.5c0.2,11.5,6.9,9,9.9,6.4c3-2.6,5.3-8.2,5.2-10.9c0,0-2.3,0-2.3,0 C34.4,23.5,32.9,30.2,28.2,30.2z"/>
</svg>