<!-- (c) Carrd Inc. All rights reserved. All logos and trademarks are property of their respective owners. -->
<svg xmlns="http://www.w3.org/2000/svg" id="icon">
<path d="M39.8,7.9C39.4,8.5,39,9,38.4,9.4c0.1,0,0.2,0,0.2-0.1c0.1,0,0.2-0.1,0.3-0.1c-0.6,0.7-1.3,1.2-2,1.6 c-0.6,0.3-1.2,0.5-1.8,0.6c0.1,0,0.3,0,0.4,0c0,0-2.8,1.7-2.6,2.7c0,0.3,0.3,0.5,0.6,0.6c0.5,0.1,1.1,0.3,1.7,0.3 c-0.3,0.2-1.1,0.6-1.5,0.5c0.2,0.2,0.5,0.3,0.8,0.4c-0.4,0.1-0.8,0-1.2-0.1c0,0,0.5,0.6,0.4,0.9c-0.1-0.1-0.3-0.2-0.4-0.3 c-1-0.5-1.3-0.6-2.8-0.6c-2.3-0.1-3.5-0.9-3.5-0.9c-0.3-0.2-0.7-0.3-1.1-0.4c-0.3-0.1-0.5-0.1-0.8-0.1h-0.3c0.2-0.2,0.4-0.4,0.6-0.6 c0.2-0.2,0.4-0.4,0.7-0.6c0,0-0.3-0.6-2.4-1.3c-0.7-0.3-2.7-0.5-3.2-0.9c-0.8-0.4-1.4-1.3-1.7-2.3c-0.1-0.2-0.1-0.5-0.1-0.7 c0.2,0.4,0.4,0.7,0.7,0.9c0.1,0.1,0.1,0.1,0.2,0.2c-0.1-0.1-0.2-0.1-0.2-0.2c0,0,0,0,0-0.1c-0.1-0.2-0.2-0.5-0.2-0.7 c0,0.1,0.7,1,0.9,1.1c0,0-0.3-0.3-0.2-0.7c0.6,0.8,1.4,1.4,2.2,1.8c1.4,0.6,1.5,0.7,1.5,0.7c0.9,0.4,1.6,0.6,2.6,0.7 c0.4,0.1,0.7,0.3,0.9,0.7c0.1,0.1,0.3,0.2,0.4,0.2c0.7-0.1,1.4-0.1,2.1,0.1c0,0,2.1-2.5,5-3c-0.1,0,4.1-1,5.3-2.4 C39.9,7.6,39.8,7.8,39.8,7.9z M18.9,25.6c0,0.2-0.1,0.4-0.3,0.5c-0.2,0.2-0.5,0.2-0.8,0.2c-0.3,0-0.5-0.1-0.7-0.2 c-0.2-0.1-0.3-0.3-0.3-0.5v-0.5c-0.3,0.4-0.7,0.7-1.1,1c-0.5,0.3-1,0.4-1.6,0.4c-0.3,0-0.6,0-0.9-0.1c-0.3-0.1-0.5-0.2-0.7-0.4 c-0.2-0.2-0.4-0.5-0.5-0.7c-0.1-0.3-0.2-0.7-0.2-1.1c0-0.4,0.1-0.9,0.3-1.3c0.2-0.3,0.5-0.6,0.8-0.8c0.4-0.2,0.8-0.4,1.3-0.4 c0.6-0.1,1.1-0.1,1.7-0.1h0.7v-0.2c0-0.2,0-0.4-0.1-0.6c0-0.2-0.1-0.4-0.3-0.5c-0.1-0.2-0.3-0.3-0.5-0.4c-0.2-0.1-0.5-0.2-0.7-0.2 c-0.3,0-0.6,0-0.8,0.1c-0.2,0.1-0.4,0.1-0.5,0.2c-0.1,0.1-0.2,0.1-0.3,0.2c-0.1,0.1-0.2,0.1-0.3,0.1c-0.2,0-0.5-0.1-0.6-0.4 c-0.1-0.2-0.2-0.5-0.2-0.8c0-0.2,0.1-0.4,0.3-0.5c0.2-0.2,0.4-0.3,0.7-0.4c0.3-0.1,0.6-0.2,0.9-0.3c0.3-0.1,0.6-0.1,1-0.1 c0.6,0,1.2,0.1,1.7,0.3c0.4,0.2,0.8,0.4,1.2,0.8c0.3,0.3,0.5,0.7,0.7,1.1c0.1,0.4,0.2,0.9,0.2,1.3V25.6z M16.6,22.7h-0.3 c-0.3,0-0.6,0-0.9,0c-0.2,0-0.5,0.1-0.7,0.2c-0.2,0.1-0.4,0.2-0.5,0.3c-0.1,0.2-0.2,0.4-0.2,0.6c0,0.3,0.1,0.5,0.3,0.7 c0.2,0.2,0.4,0.2,0.7,0.2c0.2,0,0.4-0.1,0.6-0.1c0.2-0.1,0.4-0.2,0.5-0.4c0.2-0.2,0.3-0.4,0.4-0.6c0.1-0.2,0.1-0.4,0.1-0.6 L16.6,22.7z M11,19.5H8.9l0,4c0,0.3,0,0.5,0.2,0.7c0.1,0.1,0.4,0.2,0.8,0.2h0.7c0.3,0,0.5,0.1,0.7,0.3c0.2,0.2,0.2,0.4,0.2,0.7 c0,0.3-0.1,0.5-0.2,0.7c-0.2,0.2-0.5,0.3-0.7,0.3H9.9c-1.1,0-1.9-0.2-2.4-0.7c-0.6-0.5-0.8-1.2-0.8-2.2v-8.7c0-0.2,0.2-0.4,0.4-0.5 C7.2,14.1,7.5,14,7.8,14c0.3,0,0.6,0.1,0.8,0.2c0.2,0.1,0.3,0.3,0.4,0.5v3.1H11c0.2,0,0.4,0.1,0.4,0.3c0.1,0.2,0.1,0.4,0.1,0.6 c0,0.2,0,0.4-0.1,0.6C11.3,19.4,11.2,19.5,11,19.5z M5.1,15.6c-0.2,0.2-0.5,0.3-0.9,0.3c-0.3,0-0.6-0.1-0.9-0.3 c-0.4-0.4-0.5-1-0.1-1.5c0,0,0.1-0.1,0.1-0.1c0.2-0.2,0.6-0.3,0.9-0.3c0.3,0,0.6,0.1,0.9,0.3c0.4,0.4,0.5,1,0.1,1.5 C5.2,15.5,5.2,15.5,5.1,15.6z M4.2,17.8c0.3,0,0.6,0.1,0.8,0.2c0.2,0.1,0.3,0.3,0.3,0.5v7.1c0,0.2-0.1,0.4-0.3,0.5 c-0.2,0.2-0.5,0.2-0.8,0.2c-0.3,0-0.6-0.1-0.8-0.2c-0.2-0.1-0.3-0.3-0.3-0.5v-7.1c0-0.2,0.1-0.4,0.3-0.5C3.7,17.9,4,17.8,4.2,17.8z M21.2,12.8c0.3,0,0.6,0.1,0.8,0.2c0.2,0.1,0.3,0.3,0.3,0.5v7.5l3.3-3.2c0.1-0.1,0.3-0.2,0.5-0.2c0.1,0,0.3,0,0.4,0.1 c0.1,0.1,0.3,0.2,0.4,0.3c0.1,0.1,0.2,0.2,0.3,0.4c0.1,0.1,0.1,0.3,0.1,0.4c0,0.2-0.1,0.3-0.2,0.4l-2.1,1.9l2.6,3.8 c0.1,0.1,0.1,0.2,0.1,0.4c0,0.1,0,0.3-0.1,0.4c-0.1,0.1-0.2,0.3-0.3,0.4c-0.1,0.1-0.3,0.2-0.4,0.3c-0.1,0.1-0.3,0.1-0.4,0.1 c-0.2,0-0.4-0.1-0.6-0.3l-2.4-3.6l-1.1,1v2c0,0.2-0.2,0.4-0.3,0.5c-0.2,0.2-0.5,0.2-0.8,0.2c-0.3,0-0.6-0.1-0.8-0.2 c-0.2-0.1-0.3-0.3-0.3-0.5V13.6c0-0.2,0.1-0.4,0.3-0.5C20.6,12.9,20.9,12.8,21.2,12.8z M29.2,17.8c0.3,0,0.6,0.1,0.8,0.2 c0.2,0.1,0.3,0.3,0.3,0.5v4.3c0,0.2,0,0.4,0.1,0.6c0.1,0.2,0.2,0.4,0.3,0.5c0.1,0.2,0.3,0.3,0.5,0.4c0.4,0.2,0.8,0.2,1.2,0 c0.2-0.1,0.4-0.2,0.5-0.4c0.1-0.2,0.3-0.3,0.3-0.5c0.1-0.2,0.1-0.4,0.1-0.6v-4.3c0-0.2,0.1-0.4,0.3-0.5c0.2-0.1,0.5-0.2,0.8-0.2 c0.3,0,0.6,0.1,0.8,0.2c0.2,0.1,0.3,0.3,0.3,0.5v4.3c0,0.5-0.1,1-0.3,1.4c-0.2,0.4-0.5,0.8-0.8,1.2c-0.4,0.3-0.8,0.6-1.2,0.8 c-0.5,0.2-1,0.3-1.5,0.3c-0.5,0-1-0.1-1.5-0.3c-0.4-0.2-0.9-0.5-1.2-0.8c-0.3-0.3-0.6-0.7-0.8-1.2c-0.2-0.4-0.3-0.9-0.3-1.4v-4.3 c0-0.2,0.1-0.4,0.3-0.5C28.6,17.9,28.9,17.8,29.2,17.8z"/>
</svg>