<!-- (c) Carrd Inc. All rights reserved. All logos and trademarks are property of their respective owners. -->
<svg xmlns="http://www.w3.org/2000/svg" id="icon">
<path d="M24.7,12.3c0.6,0.3,1.2,0.5,1.8,0.7c4.7,2.4,7.7,6.2,8.7,11.4c0.4,2,0.2,4.1-0.2,6.1c-0.2,1.2-0.6,2.4-1.2,3.6 c-0.1,0.2-0.2,0.3-0.4,0.3c-0.5,0-1,0-1.6,0c0.9-1.6,1.5-3.3,1.7-5.1c0.2-1.8,0.3-3.5-0.1-5.3c0,0-0.1,0.1-0.1,0.1 c-0.9,1.7-2.4,2.4-4.3,2.5c-0.8,0-1.6-0.1-2.3-0.3c-1.9-0.6-3.9-0.9-6-0.9c-3.5,0-6.7,1.1-9.5,3.1c-0.6,0.4-1.2,0.9-1.8,1.3 c0,0-0.1,0-0.2,0.1c0.5-1.5,1-3,1.4-4.5c0,0,0,0-0.1-0.1c0,0.1-0.1,0.1-0.1,0.2c-1,1-2,2.1-3,3.1c-0.1,0.1-0.2,0.3-0.1,0.4 c0.4,1.8,1.1,3.5,2.1,5c0,0.1,0.1,0.1,0.2,0.3c-0.6,0-1.3,0-1.9,0c-0.1,0-0.1-0.1-0.2-0.2c-0.7-1.1-1.2-2.4-1.6-3.7 c0-0.1,0-0.1-0.1-0.3c-0.6,0.6-1.1,1.2-1.7,1.8c0-0.1,0-0.2,0-0.2c0-1.9-0.1-3.9,0.1-5.8c0.4-4.1,2-7.6,5-10.4 c1.4-1.2,2.9-2.3,4.6-3c0.1,0,0.1-0.1,0.2-0.1c-0.6-1.1-0.7-2.4-0.6-3.7c-0.1,0-0.2,0-0.3,0c-0.5,0-0.9,0-1.4-0.1 c-1.3-0.1-2.1-1.2-2.1-2.5c0-0.7,0.1-1.4,0.1-2C10,3.1,11,2.2,12.2,2.3c0.8,0,1.5,0.1,2.3,0.1c0.6,0.1,1.1,0.4,1.5,0.9 c0.7-0.9,1.3-1.9,2-2.8c0.5,0.3,0.9,0.5,1.4,0.8c-0.1,0.3-0.2,0.5-0.3,0.8c-0.1,0.5-0.3,1-0.4,1.5c0,0.1,0,0.1,0,0.2 c0,0.4,0,0.4,0.4,0.4c2.7,0.2,4.8,1.4,5.7,3.8c0.5,1.3,0.5,2.7,0,4C24.7,12.1,24.7,12.2,24.7,12.3z M22.1,17.1 c-0.1,0.1-0.2,0.2-0.3,0.2c-0.4,0.3-0.8,0.6-1.1,0.9c-0.2,0.2-0.2,0.3-0.1,0.6c0.1,0.2,0.3,0.4,0.5,0.6c0.3,0.4,0.4,0.4,0.8,0.1 c0.4-0.3,0.9-0.7,1.3-1.1c0.1,0.1,0.1,0.2,0.2,0.3c0.1,0.1,0.1,0.2,0.2,0.2c0.2,0.2,0.4,0.2,0.6,0.1c0.2-0.1,0.2-0.4,0.1-0.6 c-0.1-0.2-0.2-0.3-0.4-0.5c-1.3-1.5-2.5-3.1-3.8-4.6c-0.2-0.2-0.4-0.3-0.6-0.1c-0.2,0.2-0.2,0.4,0,0.7c0.2,0.2,0.3,0.4,0.5,0.6 c0.3,0.4,0.6,0.8,1,1.2c-0.2,0.2-0.5,0.4-0.7,0.6c-0.2,0.2-0.2,0.4,0,0.6c0.2,0.2,0.3,0.2,0.6,0.1c0.2-0.2,0.4-0.4,0.7-0.5 C21.6,16.6,21.8,16.9,22.1,17.1z M11.4,6.6c0,0.3,0.2,0.5,0.8,0.6c0.5,0,1,0.1,1.5,0.1c0.2,0,0.2,0,0.3-0.2c0.2-0.5,0.4-0.9,0.6-1.4 c0.1-0.3,0.2-0.5,0.2-0.8c0-0.5-0.2-0.8-0.7-0.8c-0.6,0-1.2-0.1-1.8-0.1c-0.5,0-0.7,0.2-0.8,0.7C11.5,5.2,11.5,5.8,11.4,6.6z M17.5,30.7c0-0.8-0.6-1.3-1.4-1.3c-0.7,0-1.3,0.6-1.3,1.3c0,0.7,0.6,1.3,1.3,1.3C16.9,32,17.5,31.4,17.5,30.7z M25.9,30.7 c0-0.7-0.6-1.3-1.3-1.3c-0.8,0-1.4,0.6-1.3,1.3c0,0.7,0.6,1.3,1.3,1.3C25.3,32,25.9,31.4,25.9,30.7z M13.1,5c-0.1,0-0.3,0-0.4,0 c-0.1,0-0.2,0.1-0.2,0.1c0,0.3-0.1,0.6-0.1,0.9c0,0,0.1,0.1,0.1,0.1c0.3,0,0.6,0,0.9,0.1c0.1,0,0.2-0.1,0.2-0.2c0-0.3,0-0.5,0.1-0.8 c0-0.2,0-0.2-0.2-0.2C13.4,5,13.3,5,13.1,5C13.1,5,13.1,5,13.1,5z" />
</svg>