<!-- (c) Carrd Inc. All rights reserved. All logos and trademarks are property of their respective owners. -->
<svg xmlns="http://www.w3.org/2000/svg" id="icon">
<path d="M7.2,14.4C3.8,16.7,1.5,20.6,1.5,25c0,7,5.7,12.8,12.8,12.8c2.1,0,4-0.5,5.7-1.4l0,0l0,0c1.7,0.9,3.7,1.4,5.7,1.4 c7,0,12.8-5.7,12.8-12.8c0-4.4-2.3-8.3-5.7-10.6C32.4,7.6,26.8,2.3,20,2.3C13.2,2.3,7.6,7.6,7.2,14.4L7.2,14.4z M10.1,12.9 c1-4.5,5-7.9,9.9-7.9C25.6,5,30.1,9.5,30.1,15c0,2.9-1.3,5.6-3.3,7.4l-1.4-0.8l-2.7,1.5l4.3,2.5c2.8-1.8,4.8-4.7,5.5-8.1 c2,1.8,3.3,4.5,3.3,7.4c0,5.5-4.5,10.1-10.1,10.1c-4.8,0-8.9-3.4-9.9-7.9l1.4-0.8v-3.1l-4.3,2.5c0.2,3.5,1.8,6.7,4.4,8.9l0,0 c-1,0.3-2,0.5-3,0.5C8.7,35,4.2,30.5,4.2,25c0-5.5,4.5-10.1,10.1-10.1c1.1,0,2.1,0.2,3,0.5l0,1.6l2.7,1.5v-5 c-1.7-0.9-3.7-1.4-5.7-1.4C12.8,12.2,11.4,12.5,10.1,12.9L10.1,12.9z"/>
</svg>