<!-- (c) Font Awesome (fontawesome.io, SIL OFL) -->
<svg xmlns="http://www.w3.org/2000/svg" id="icon">
<path d="M35.7,36.6H4.3C3.6,36.6,3,36,3,35.3V34c0-0.7,0.6-1.3,1.3-1.3h31.5c0.7,0,1.3,0.6,1.3,1.3v1.3C37,36.1,36.4,36.6,35.7,36.6 z M31.9,16.3c0.4,0.4,0.6,0.9,0.6,1.5s-0.2,1.1-0.6,1.5l-1.2,1.2c-0.4,0.4-0.9,0.6-1.5,0.6s-1.1-0.2-1.5-0.6L23,15.8V27 c0,0.5-0.2,1-0.6,1.4c-0.4,0.3-0.9,0.5-1.5,0.5h-2c-0.6,0-1-0.2-1.4-0.5c-0.4-0.4-0.6-0.8-0.6-1.4V15.8l-4.7,4.7 c-0.4,0.4-0.9,0.6-1.5,0.6s-1.1-0.2-1.5-0.6L8,19.3c-0.4-0.4-0.6-0.9-0.6-1.5s0.2-1.1,0.6-1.5L18.4,6c0.4-0.4,0.9-0.6,1.5-0.6 S21,5.6,21.4,6L31.9,16.3z"/>
</svg>