<!-- (c) Carrd Inc. All rights reserved. All logos and trademarks are property of their respective owners. -->
<svg xmlns="http://www.w3.org/2000/svg" id="icon">
<path d="M20,38c-9.9,0-18-8.1-18-18S10.1,2,20,2s18,8.1,18,18S29.9,38,20,38z M19.9,7.1c-7.2,0-13,5.8-13,13 c0,7.2,5.8,13,13,13c7.1,0,12.9-5.8,13-13C32.9,12.9,27.1,7.1,19.9,7.1z M28.1,22.7c-1,0.5-1.6,1.4-1.9,2.5 c-0.2,0.4-0.4,0.9-0.6,1.3c-0.2,0.3-0.5,0.4-0.7,0.3l-0.4-0.2c-0.3-0.2-0.7-0.2-1,0l-0.4,0.2c-0.3,0.2-0.7,0.2-1,0l-0.4-0.2 c-0.3-0.2-0.7-0.2-1,0L20,26.8c-0.3,0.2-0.7,0.2-1,0l-0.4-0.2c-0.3-0.2-0.7-0.2-1,0l-0.4,0.2c-0.3,0.2-0.7,0.2-1,0l-0.4-0.2 c-0.3-0.2-0.7-0.2-1,0l-0.4,0.2c-0.2,0.1-0.4,0-0.5-0.2c-0.7-1.1-1.1-2.4-1.1-3.8c0-0.1,0-0.2,0-0.3c0-0.1,0.1-0.1,0.1-0.1h3.8 c0.1,0,0.1,0,0.1,0.1V23c0,0.7,0.6,1.2,1.2,1.2h2v-2c-0.5,0-0.8,0.1-1.1,0.1c0,0-0.1,0-0.1,0s0-0.1,0-0.1c0.2-0.4,0.5-1.4,0.4-3.6 c-0.1-2.3-0.9-3.9-1.2-4.4c-0.1-0.1,0-0.2,0.1-0.2l1.8,0.2v-0.7c-0.3-0.2-0.4-0.4-0.4-0.7c0-0.5,0.4-0.9,0.9-0.9s0.9,0.4,0.9,0.9 c0,0.3-0.2,0.6-0.4,0.8v0.8h0l1.3,0.1c0.2,0.1,2.4,2,2.4,4.9c0,2.8-0.9,3.3-1.2,3.6c-0.1,0-0.1,0.1-0.1,0.1s-0.1,0-0.1,0l0,0 c-0.2-0.2-0.7-0.7-1.7-0.8c-0.2,0-0.3,0-0.4-0.1h0v2H23c0.6,0,1.1-0.4,1.2-1c0,0,0-0.1,0.1-0.1c1.2,0,2.4-0.2,3.4-0.8l0.2-0.1 c0,0,0.1,0,0.1,0c0,0,0.1,0,0.1,0c0,0,0,0,0,0c0,0,0,0,0,0c0,0,0,0,0.1,0c0.1,0,0.1,0.1,0,0.2C28.2,22.6,28.2,22.7,28.1,22.7z M18,17.7v3.8c0,0.1,0,0.1-0.1,0.1h-3.5c0,0-0.1,0-0.1-0.1c0,0,0,0,0-0.1l1.8-4.6c0-0.1,0.1-0.1,0.1-0.1L18,17.7 C17.9,17.6,18,17.7,18,17.7z"/>
</svg>