<!-- (c) Carrd Inc. All rights reserved. All logos and trademarks are property of their respective owners. -->
<svg xmlns="http://www.w3.org/2000/svg" id="icon">
<path d="M39.7,15.9c-0.2,0.5-0.5,0.9-0.8,1.3c-0.3,0.3-0.8,0.7-1.3,0.8c-0.5,0.2-1,0.3-1.5,0.3c-0.1,0-0.2,0-0.2,0 c-0.1,0-0.1,0-0.2,0c-0.1,0-0.2,0-0.2-0.1c-0.1,0-0.1-0.1-0.2-0.1c-0.7,0.7-1.4,1.3-2.1,1.9c-0.8,0.6-1.6,1.1-2.4,1.6 c-0.8,0.5-1.7,0.9-2.6,1.3c-0.8,0.4-1.7,0.7-2.7,0.9c1.5,0.4,3,0.9,4.4,1.6c1.4,0.7,2.7,1.5,3.9,2.4c1.2,0.9,2.3,2,3.3,3.1 c1,1.1,1.9,2.4,2.7,3.7H34c-0.9-1-1.8-2-2.8-2.8c-1-0.8-2.2-1.5-3.4-2.1c-1.2-0.6-2.5-1-3.8-1.4c-1.3-0.3-2.7-0.5-4.1-0.5 c-1.5,0-2.8,0.2-4.2,0.5c-1.4,0.3-2.6,0.8-3.8,1.4c-1.2,0.6-2.3,1.3-3.3,2.1c-1,0.8-2,1.8-2.8,2.8H0c0.8-1.4,1.6-2.6,2.7-3.8 c1-1.1,2.1-2.2,3.4-3.1c1.3-0.9,2.6-1.7,3.9-2.4c1.4-0.7,2.9-1.2,4.4-1.6c-1.4-0.3-2.6-0.8-3.8-1.3c-1.2-0.5-2.3-1.2-3.4-2 c-1.1-0.8-2.1-1.6-3-2.5c-0.9-0.9-1.7-2-2.5-3c0.4-0.6,0.8-1.1,1.3-1.7c0.4-0.5,0.9-1,1.4-1.5c0.5-0.5,1-1,1.6-1.5 c0.5-0.4,1.1-0.9,1.6-1.3C7.7,8.6,7.8,8.1,8,7.8C8.2,7.4,8.5,7,8.8,6.7C9.2,6.3,9.5,6.1,10,5.9c0.4-0.2,0.9-0.3,1.4-0.3 c0.5,0,1,0.1,1.5,0.3c0.4,0.2,0.9,0.5,1.2,0.8c0.3,0.3,0.7,0.8,0.8,1.2c0.3,0.5,0.4,1,0.4,1.5c0,0.5-0.1,1-0.3,1.5 c-0.2,0.4-0.5,0.9-0.8,1.2c-0.3,0.3-0.8,0.6-1.2,0.8c-0.4,0.2-0.9,0.3-1.5,0.3c-0.1,0-0.2,0-0.4,0c-0.1,0-0.3,0-0.4-0.1 c-0.1,0-0.2-0.1-0.4-0.1C10.2,13.1,10,13,9.9,13c-0.2,0.2-0.4,0.3-0.6,0.5c-0.2,0.2-0.4,0.3-0.6,0.5c-0.2,0.2-0.4,0.3-0.6,0.5 C8,14.6,7.7,14.8,7.6,15c0.8,0.8,1.6,1.5,2.6,2.1c0.9,0.7,1.9,1.2,2.9,1.6c1,0.4,2.1,0.8,3.3,1c1.1,0.2,2.3,0.4,3.5,0.4 c1.2,0,2.3-0.1,3.5-0.4c1.1-0.2,2.2-0.6,3.3-1c1-0.4,2-1,2.9-1.6c0.9-0.7,1.7-1.4,2.6-2.1h0.1c0-0.1,0-0.1,0-0.2c0-0.1,0-0.1,0-0.2 c0-0.1,0-0.1,0-0.2c0-0.1,0-0.1,0-0.2c0-0.5,0.1-1,0.3-1.5c0.2-0.5,0.5-0.9,0.8-1.3c0.4-0.4,0.8-0.7,1.3-0.8c0.5-0.2,1-0.3,1.5-0.3 c0.5,0,1,0.1,1.5,0.3c0.5,0.2,0.9,0.5,1.3,0.8c0.3,0.4,0.7,0.8,0.8,1.3c0.2,0.5,0.3,1,0.3,1.5C40,14.9,39.9,15.4,39.7,15.9z M18.6,11.8c0.4-0.2,0.9-0.3,1.5-0.3c0.5,0,1,0.1,1.5,0.3c0.5,0.2,0.9,0.5,1.3,0.8c0.3,0.3,0.6,0.8,0.8,1.2c0.2,0.4,0.3,0.9,0.3,1.5 c0,0.5-0.1,1-0.3,1.5c-0.2,0.4-0.4,0.9-0.8,1.2c-0.3,0.3-0.8,0.7-1.3,0.8c-0.5,0.2-1,0.3-1.5,0.3c-0.5,0-1-0.1-1.5-0.3 c-0.4-0.2-0.9-0.5-1.2-0.8c-0.3-0.3-0.7-0.8-0.8-1.2c-0.2-0.4-0.3-0.9-0.3-1.5c0-0.5,0.1-1,0.3-1.5c0.2-0.4,0.5-0.9,0.8-1.2 C17.8,12.3,18.2,12,18.6,11.8z M31.8,10.2c-0.3,0.3-0.5,0.6-0.7,0.9c-0.2,0.3-0.4,0.7-0.5,1c-0.2,0.4-0.3,0.8-0.3,1.1 c-0.7-0.5-1.5-1-2.3-1.5c-0.8-0.4-1.7-0.8-2.5-1.1c-0.9-0.3-1.7-0.5-2.7-0.7c-0.9-0.1-1.9-0.2-2.8-0.2c-0.2,0-0.4,0-0.7,0 c-0.2,0-0.4,0-0.7,0c-0.2,0-0.4,0-0.6,0.1c-0.2,0-0.3,0.1-0.5,0.1c0-0.1,0-0.1,0-0.2c0-0.1,0-0.1,0-0.2c0-0.1,0-0.1,0-0.2 c0-0.1,0-0.1,0-0.2c0-0.3-0.1-0.7-0.1-1c-0.1-0.3-0.1-0.7-0.2-1c-0.1-0.3-0.3-0.7-0.4-0.9c-0.2-0.3-0.4-0.6-0.5-0.8 c0.3-0.1,0.5-0.1,0.9-0.1c0.3,0,0.7-0.1,1-0.1c0.3,0,0.7-0.1,1-0.1c0.3-0.2,0.6-0.2,0.9-0.2c1.2,0,2.3,0.1,3.5,0.3 c1.1,0.2,2.2,0.4,3.3,0.8c1.1,0.3,2.1,0.8,3.1,1.3c1,0.5,2,1.1,2.8,1.8C32.3,9.7,32,10,31.8,10.2z"/>
</svg>