<!-- (c) Carrd Inc. All rights reserved. All logos and trademarks are property of their respective owners. -->
<svg xmlns="http://www.w3.org/2000/svg" id="icon">
<path d="M36,15.7h-0.9l-1-3.7L34,11.7l-0.3,0c0,0-2.8,0.1-4.9,0c-1,0-2-0.2-3-0.4c-1.2-0.2-2.4-0.4-3.4-0.4c-1.3,0-2.1,0.8-2.5,1.6 c-0.4-0.7-1.2-1.6-2.5-1.6c-1,0-2.3,0.2-3.4,0.4c-1,0.2-2,0.3-3,0.4c-2.1,0.1-4.9,0-4.9,0l-0.3,0L5.9,12l-1,3.7H3.8L0,28.2h17.9 c0,0.3,0.3,0.8,0.6,0.8h2.9c0.3,0,0.6-0.5,0.6-0.8H40L36,15.7z M16.2,21.3c-0.1,0-0.1,0-0.1,0c-1.9,0-3.6,0.6-5.3,1.1l0,0 c-1.1,0.4-2.3,0.7-3.4,0.9c0,0-0.1,0-0.1,0c-0.3,0-0.9,0-1.4,0c-0.7,0-1.2,0-1.6,0c0.4-1.4,1.1-4.2,2.7-10.2c0.5,0,1.2,0,2,0 c0.9,0,1.6,0,2.3,0c1-0.1,2.1-0.2,3.1-0.4h0h0c1.2-0.2,2.3-0.4,3.2-0.4c0.4,0,0.8,0.2,1.1,0.5c0.2,0.2,0.3,0.5,0.4,0.6l0,8.5 C18.2,21.6,17.2,21.3,16.2,21.3z M34.1,23.3c-0.5,0-1.1,0-1.4,0c-0.1,0-0.1,0-0.1,0c-1.1-0.2-2.3-0.5-3.4-0.9l0,0 c-1.7-0.5-3.4-1.1-5.3-1.1c0,0-0.1,0-0.1,0c-1,0-1.9,0.2-2.7,0.6l0-8.5c0-0.1,0.2-0.4,0.4-0.6c0.3-0.3,0.6-0.5,1.1-0.5 c1,0,2.1,0.2,3.2,0.4h0l0,0h0c1,0.2,2.1,0.3,3.1,0.4c0.6,0,1.4,0,2.2,0c0.8,0,1.5,0,2,0l0.3,1.3c1.3,5.1,2,7.6,2.4,8.9 C35.3,23.3,34.8,23.3,34.1,23.3z"/>
</svg>