<!-- (c) Carrd Inc. All rights reserved. All logos and trademarks are property of their respective owners. -->
<svg xmlns="http://www.w3.org/2000/svg" id="icon">
<path d="M37.2,27.4c-1.8,0-2-0.1-2.4-2c0.2,0,0.3,0,0.5-0.1c0.6-0.1,1.8-0.1,1.8-0.4c0.2-1,0.1-2,0.1-3 c0-0.2-0.5-0.4-0.8-0.5c-1.4,0-2.8,0-4.4,0c0,1.5,0,2.8,0,4.2c0,1.9,0.2,1.7-1.7,1.7c-0.2,0-0.5,0-0.8,0c0-2,0-3.9,0-6 c-1,0-1.8,0-2.8,0c0-0.9,0-1.7,0-2.6c0.9,0,1.7,0,2.5,0c0.5-2.2,0.3-2.5-1.6-2.8c0-0.3,0-0.6,0-0.9c0-0.5,0-1,0-1.5 c0.6,0,1.2-0.1,1.7-0.1c0.1-0.3,0.1-0.6,0.2-0.9c0.8,0,1.6,0,2.4,0c0,0.9,0.5,1,1.3,1c2.3,0,3.4,1.1,3.4,3.4c0,0.6,0,1.1,0,1.8 c1.9,0,3.1,0.9,3.4,2.8c0,1.2,0,2.4,0,3.6C39.5,26.6,38.8,27.4,37.2,27.4z M32,16.4c0,0.8,0,1.6,0,2.5c0.7,0,1.3,0,1.9,0 C34.5,16.4,34.1,15.9,32,16.4z M37.4,16.1c0-0.3-0.2-0.7,0-1c0.2-0.5,0.5-1.2,1-1.4c0.6-0.3,1.2,0.2,1.5,0.8c0,0.1,0.1,0.1,0.2,0.2 c0,0.1,0,0.1,0,0.2C39.5,16.1,38.6,16.3,37.4,16.1z M24.9,27.5c-2.3,0-4.6,0-6.9,0c0.5-2.4,0.7-2.5,3.5-2.6c0-2.8,0-5.7,0-8.6 c-0.5,0-1-0.1-1.6-0.1c0-0.8,0-1.6,0-2.5c2,0,3.9,0,6,0c0,0.8,0,1.6,0,2.5c-0.5,0-1,0.1-1.6,0.1c0,2.9,0,5.7,0,8.7 c0.9,0,1.7,0,2.5,0c0.1,0.2,0.1,0.2,0.1,0.3C27.1,27.5,27.1,27.5,24.9,27.5z M18.6,21.6c0,0.1,0,0.1,0,0.2c-0.3,0.6-0.5,1.5-1,1.6 c-1,0.2-2.1,0.1-3.1,0c-0.7-0.1-0.7-0.7-0.5-1.3c0.3-0.7,0.6-1.4,0.9-2.1c0.1-0.3,0.2-0.7,0.3-1C15.2,19,15.2,19,15.2,19 c-2.3-0.3-2.4-0.5-1.4-2.6c0.4-0.8,0.9-1.6,1.1-2.5c0.3-1.1,1-1.5,2.1-1.3c0.3,0,0.5,0,1,0c-0.4,1-0.8,1.8-1.1,2.6 c-0.5,1.2-0.4,1.3,0.8,1.3c0.4,0,0.8,0,1.4,0c-0.5,1.1-0.9,2.1-1.3,3.1C16.9,21.3,16.9,21.3,18.6,21.6z M15.7,24.9 c0.6,0,1.2,0,1.9,0c-0.3,0.8-0.6,1.5-1,2.1c-0.1,0.2-0.4,0.4-0.7,0.4c-1.2,0-2.3,0-3.6,0C13.3,24.9,13.3,24.9,15.7,24.9z M9.2,16.5 c0.9,0,1.7,0,2.5,0c0.2,1.9,0.2,3.7,0.5,5.6c0.2,1.5-0.6,2.5-1.2,3.9C9.2,22.9,9.7,19.7,9.2,16.5z M7.5,24.7c0,1.9-0.7,2.6-2.5,2.8 c-0.7,0.1-1.1-0.1-1.3-0.8c-0.1-0.4-0.3-0.8-0.5-1.3c1.7-0.1,1.7-0.1,1.7-1.8C5,20.3,5,17,5,13.7c0-1.2,0.6-1,1.4-1 c0.8,0,1.2,0,1.2,1C7.5,17.4,7.6,21,7.5,24.7z M0,23.3c0-0.1,0-0.3,0-0.4c0.2-1,0.4-2,0.5-3c0.1-1.1,0.2-2.1,0.2-3.3 c0.9,0,1.7,0,2.6,0c-0.4,3.1,0,6.4-1.8,9.4C0.9,25,0.5,24.1,0,23.3z"/>
</svg>