<!-- (c) Carrd Inc. All rights reserved. All logos and trademarks are property of their respective owners. -->
<svg xmlns="http://www.w3.org/2000/svg" id="icon">
<path d="M24.6,1c0.2,2,0.4,4.1,0.6,6.1c0.2,2.3,0.5,4.6,0.7,6.9c0,0.4,0.2,0.6,0.6,0.8c3.9,1.6,7.8,3.2,11.7,4.9 c0.1,0.1,0.2,0.1,0.4,0.2c-1.5,0.7-2.9,1.3-4.3,1.9c-2.6,1.2-5.3,2.3-7.9,3.5c-0.2,0.1-0.3,0.2-0.4,0.5c-0.2,2.2-0.4,4.4-0.5,6.7 c-0.2,2.2-0.4,4.3-0.5,6.6c-0.1-0.1-0.2-0.2-0.3-0.3c-2.8-3.2-5.7-6.3-8.5-9.5c-0.2-0.3-0.4-0.3-0.8-0.2c-4.1,1-8.3,2-12.4,2.9 c-0.1,0-0.2,0-0.4,0.1c4.5-4,9-7.9,13.5-11.8c-4.6-3.9-9.1-7.7-13.7-11.6c0,0,0,0,0-0.1C3.7,8.8,5,9.1,6.3,9.4c3,0.6,6,1.3,9,1.9 c0.1,0,0.4,0,0.4-0.1c2.9-3.3,5.8-6.7,8.6-10C24.5,1.1,24.5,1.1,24.6,1C24.6,1,24.6,1,24.6,1z"/>
</svg>