<!-- (c) Font Awesome (fontawesome.io, SIL OFL) -->
<svg xmlns="http://www.w3.org/2000/svg" id="icon">
<path d="M31.2,4.4C29.6,4.9,28.2,5.8,27,7l-3.9,3.9l-16-3.8C6.9,7,6.6,7,6.4,7.3l-3.1,3.1c-0.2,0.2-0.2,0.4-0.2,0.7 c0,0.3,0.2,0.5,0.4,0.6l12.2,6.7l-6.2,6.2l-4.7-1.3c0,0-0.1,0-0.2,0c-0.2,0-0.4,0.1-0.6,0.2l-2.3,2.3c-0.2,0.2-0.2,0.4-0.2,0.6 c0,0.3,0.1,0.4,0.3,0.6l6.1,4.6l4.6,6.1c0.1,0.2,0.3,0.3,0.6,0.3h0c0.2,0,0.4-0.1,0.6-0.2l2.3-2.3c0.2-0.2,0.3-0.5,0.2-0.7l-1.3-4.7 l6.2-6.2l6.7,12.2c0.1,0.2,0.3,0.3,0.5,0.4c0,0,0.1,0,0.2,0c0.2,0,0.3,0,0.5-0.1l3.1-2.3c0.3-0.2,0.4-0.5,0.3-0.8l-3.9-16.8l3.9-3.9 c1.2-1.2,2.1-2.6,2.6-4.1s0.4-2.7-0.3-3.6C33.9,4,32.7,3.9,31.2,4.4z"/>
</svg>