<!-- (c) Carrd Inc. All rights reserved. All logos and trademarks are property of their respective owners. -->
<svg xmlns="http://www.w3.org/2000/svg" id="icon">
<path d="M19.5,4.6c0.2,0.2,0.4,0.5,0.5,0.7c2,4.8,4,9.6,5.9,14.4c0.1,0.1,0.1,0.3,0.2,0.4c0.9-0.5,1.7-1,2.6-1.5 c0.9-0.5,1.8-1.1,2.8-1.6c0.3-0.1,0.6-0.2,0.9-0.3c1,0,2,0,3,0c0.5,0,0.8,0.2,1,0.6c1.1,1.7,2.2,3.4,3.3,5.2 c0.1,0.1,0.2,0.2,0.2,0.3c0,0.2,0,0.3,0,0.5c-0.4,0.5-0.6,0.5-1.2,0.2c-1.4-0.7-2.7-1.4-4.1-2.1c-0.2-0.1-0.4-0.2-0.6-0.3 c-0.8,1.2-1.6,2.5-2.4,3.7c-2.1,3.3-4.3,6.6-6.4,10c-0.2,0.4-0.5,0.6-1,0.4c-1-0.2-2-0.4-2.9-0.6c-1.3-0.3-2.5-0.5-3.8,0 c-1,0.3-2.1,0.6-3.2,0.8c-0.2,0-0.4,0-0.5,0c-0.2-0.2-0.3-0.3-0.5-0.5c-0.9-1.4-1.8-2.8-2.7-4.2C7.2,25.1,3.6,19.5,0,14 c0-0.2,0-0.3,0-0.5C0.5,13,0.6,13,1.2,13.4c3.5,2.1,7.1,4.2,10.6,6.3c0.3,0.2,0.5,0.3,0.8,0.5c0.1-0.2,0.2-0.4,0.2-0.5 c1.9-4.8,3.8-9.5,5.7-14.3c0.1-0.3,0.3-0.5,0.5-0.8C19.2,4.6,19.4,4.6,19.5,4.6z M20.1,8.7C20.1,8.7,20.1,8.7,20.1,8.7 C20,14.2,20,19.8,20,25.4c2-0.9,3.9-1.8,5.9-2.6C23.9,18,22,13.3,20.1,8.7z M18.7,8.7C18.7,8.7,18.7,8.7,18.7,8.7 c-1.9,4.7-3.8,9.3-5.7,14.1c1.9,0.9,3.8,1.8,5.7,2.7C18.7,19.8,18.7,14.3,18.7,8.7z M12.2,21.4c-3.2-1.9-6.3-3.7-9.4-5.6 c0,0,0,0-0.1,0.1C6.1,21.1,9.5,26.4,13,31.7c-0.4-2.7-0.9-5.4-1.3-8.2c-0.1-0.3,0-0.7,0.1-1C11.9,22.1,12,21.8,12.2,21.4z M24.2,33.9c0.5-3.3,1.1-6.5,1.6-9.7c-2,0.9-3.8,1.7-5.7,2.6c-0.1,0-0.2,0.3-0.2,0.4c0,1,0,2,0,3.1c0,0.9,0,1.9,0,2.8 C21.4,33.3,22.8,33.6,24.2,33.9z M26.7,21.4c0.2,0.4,0.4,0.8,0.5,1.2c0.1,0.3,0.1,0.6,0.1,0.8c-0.4,2.2-0.7,4.4-1.1,6.7 c-0.1,0.5-0.1,0.9-0.2,1.4c0,0,0.1,0,0.1,0c2.8-4.4,5.7-8.9,8.6-13.4c-0.8,0-1.5,0-2.2,0c-0.1,0-0.1,0-0.2,0.1 C30.4,19.2,28.5,20.3,26.7,21.4z M18.7,33.1c0-2,0-3.9,0-5.8c0-0.3-0.1-0.4-0.4-0.6c-1.6-0.8-3.3-1.5-4.9-2.3 c-0.1-0.1-0.2-0.1-0.4-0.2c0.6,3.3,1.1,6.5,1.7,9.8C16.1,33.7,17.4,33.4,18.7,33.1z M37.4,21.4C37.5,21.4,37.5,21.4,37.4,21.4 c-0.5-0.9-1.1-1.8-1.7-2.8c-0.3,0.5-0.6,1-0.9,1.4C35.7,20.5,36.6,21,37.4,21.4z"/>
</svg>