<!-- (c) Carrd Inc. All rights reserved. All logos and trademarks are property of their respective owners. -->
<svg xmlns="http://www.w3.org/2000/svg" id="icon">
<path d="M33.6,31.5c-3.6-0.8-6.7-1.4-6.7-1.4c0.5-0.4,1.1-1.2,1.1-2.1c0-1.1-0.6-1.8-1.1-2.1c0.6-0.5,1.5-1.3,1.5-2.8 c0-1.7-1.1-2.5-1.7-2.9c0.5-0.4,1.1-1.3,1.1-2.5c0-2.2-1.7-3.1-3-3.7c-1.1-0.4-3.2-0.6-5-0.6c-3,0-5.7,0.2-7,0.2 c-1.6,0-1.4-0.8-0.8-1.5c0.3-0.4,4.8-6.1,5.6-7.2c0.6-0.8,1.2-1.5,1.7-1.2c0.5,0.3,0.3,1.6-0.3,3c-0.9,2.3-2.1,3.7-2.3,4.2l2,1.2 c0.8-1,3.4-5.2,3.4-7.9C22,3,21.5,2,20.6,1.4c-0.9-0.5-2.1-0.5-3.1,0.1c-0.7,0.4-1.4,1-2,1.8c-1.6,2-5,6.2-6.2,7.8 c-1.8,2.3-1,5.1,2.8,5.1c1.3,0,5.7-0.3,7.4-0.3c1.9,0,2.9,0.1,3.6,0.2c1.3,0.2,2,0.8,2,1.5c0,0.5-0.3,0.9-0.7,1.2 c-0.4,0.3-0.9,0.8-0.9,1.4c0,0.8,0.7,1.1,1.2,1.4c0.6,0.4,1,0.7,1,1.3c0,0.6-0.4,0.9-1,1.3c-0.4,0.3-1,0.7-1,1.4 c0,0.7,0.5,1,0.8,1.2c0.3,0.3,0.7,0.5,0.7,1.1s-0.3,0.8-0.9,1.2c-0.5,0.3-1.2,0.8-1.2,1.6c0,0.8,0.6,1.2,1.3,1.4 c1.7,0.4,7,1.5,8.7,1.9c0.6,0.1,1.1,0.3,1.1,0.8c0,0.5-0.8,0.7-1.8,0.7c-3.7,0-14.2-0.8-20.3-2.8c-4.2-1.4-6.4-3.9-6.4-6.9 c0-2.6,1.8-5,3.7-6.3l-1.7-1.8C4.9,19.5,3,22.5,3,25.7c0,3.7,2.2,7.4,8.3,9.5c6.5,2.2,16.4,2.8,21,2.8c3.1,0,4.7-1.3,4.7-3.2 C37,32.9,35.4,31.9,33.6,31.5z"/>
</svg>