<!-- (c) Carrd Inc. All rights reserved. All logos and trademarks are property of their respective owners. -->
<svg xmlns="http://www.w3.org/2000/svg" id="icon">
<path d="M28.6,23.8c0-0.7-0.1-1.4-0.4-2c-0.3-0.6-0.6-1.1-1.1-1.5c-0.4-0.4-0.9-0.7-1.6-1.1c-0.6-0.3-1.2-0.6-1.8-0.7 c-0.6-0.2-1.2-0.3-1.9-0.5l-2.3-0.5c-0.4-0.1-0.8-0.2-1-0.2c-0.2-0.1-0.5-0.1-0.8-0.2c-0.3-0.1-0.5-0.2-0.7-0.3 c-0.1-0.1-0.3-0.3-0.4-0.5s-0.2-0.4-0.2-0.7c0-1.1,1-1.7,3.1-1.7c0.6,0,1.2,0.1,1.7,0.3c0.5,0.2,0.9,0.4,1.2,0.6 c0.3,0.2,0.6,0.5,0.8,0.7c0.3,0.2,0.6,0.5,0.9,0.6c0.3,0.2,0.7,0.3,1,0.3c0.7,0,1.2-0.2,1.6-0.7s0.6-1,0.6-1.7 c0-0.8-0.4-1.5-1.2-2.2s-1.8-1.1-3.1-1.5c-1.2-0.3-2.6-0.5-4-0.5c-1,0-1.9,0.1-2.9,0.3c-0.9,0.2-1.8,0.6-2.6,1 c-0.8,0.5-1.4,1.1-1.9,1.9c-0.5,0.8-0.7,1.7-0.7,2.8c0,0.9,0.1,1.7,0.4,2.3c0.3,0.7,0.7,1.2,1.2,1.6c0.5,0.4,1.1,0.8,1.7,1.1 c0.6,0.3,1.4,0.5,2.2,0.7l3.2,0.8c1.3,0.3,2.1,0.6,2.4,0.8c0.5,0.3,0.7,0.7,0.7,1.3c0,0.6-0.3,1-0.9,1.4S21,26.5,20,26.5 c-0.7,0-1.4-0.1-2-0.3c-0.6-0.2-1.1-0.5-1.4-0.8c-0.4-0.3-0.7-0.7-1-1c-0.3-0.3-0.6-0.6-1-0.8c-0.4-0.2-0.8-0.3-1.2-0.3 c-0.7,0-1.3,0.2-1.6,0.7c-0.4,0.4-0.6,1-0.6,1.6c0,1.3,0.9,2.5,2.7,3.4s3.9,1.4,6.3,1.4c1.1,0,2.1-0.1,3-0.4c1-0.3,1.9-0.7,2.7-1.2 c0.8-0.5,1.4-1.2,1.9-2C28.3,25.9,28.6,24.9,28.6,23.8L28.6,23.8z M36.5,28.6c0,2.3-0.8,4.3-2.4,5.9c-1.6,1.6-3.6,2.4-5.9,2.4 c-1.9,0-3.6-0.6-5.1-1.7c-1.1,0.2-2.2,0.3-3.3,0.3c-2.1,0-4.1-0.4-5.9-1.2S10.3,32.4,9,31c-1.4-1.4-2.5-3-3.3-4.9 c-0.8-1.9-1.2-3.9-1.2-5.9c0-1.1,0.1-2.1,0.3-3.3c-1.2-1.5-1.7-3.2-1.7-5.1c0-2.3,0.8-4.3,2.4-5.9s3.6-2.4,5.9-2.4 c1.9,0,3.6,0.6,5.1,1.7c1.1-0.2,2.2-0.3,3.3-0.3c2.1,0,4.1,0.4,5.9,1.2c1.9,0.8,3.5,1.9,4.9,3.3c1.4,1.4,2.5,3,3.3,4.9 c0.8,1.9,1.2,3.9,1.2,5.9c0,1.1-0.1,2.1-0.3,3.3C35.9,25,36.5,26.7,36.5,28.6z"/>
</svg>