<!-- (c) Carrd Inc. All rights reserved. All logos and trademarks are property of their respective owners. -->
<svg xmlns="http://www.w3.org/2000/svg" id="icon">
<path d="M35.1,33.8c-1.3,1.4-2.8,2.4-4.5,3.1c-2.1,0.7-4.3,1-6.5,0.9c-0.5,0-1,0-1.6,0c-2.2-0.1-4.5-0.3-6.7-0.7 c-1-0.2-1.6-0.3-2.8-0.6c-1.4-0.3-2.8-0.7-4.2-1.3c-1-0.5-2.3-1.2-2.3-2.3c0-3.1,1.5-6.7,4.8-11.1c1.2-1.6,2.2-2.9,2.9-3.7 c1.9-2.1,4.1-3.8,6.5-5.1c0.7-0.2,1.3-0.5,1.3-0.5c6.3-1.8,13,1.4,15.5,7.5C39.5,24.7,38.5,30,35.1,33.8z M18.1,10 c-0.6,0-1.2-0.1-1.7-0.3c-0.3-1.4-1.2-2.5-2.3-3.3c0-0.1,0-0.1,0-0.2c0-2.2,1.7-3.9,4-3.9s4,1.7,4,3.9S20.3,10,18.1,10z M8.1,18.8 c-3.7,0-6.6-2.9-6.6-6.6c0-3.6,3-6.6,6.6-6.6s6.6,2.9,6.6,6.6C14.8,15.8,11.8,18.8,8.1,18.8z"/>
</svg>