<!-- (c) Carrd Inc. All rights reserved. All logos and trademarks are property of their respective owners. -->
<svg xmlns="http://www.w3.org/2000/svg" id="icon">
<path d="M26.8,13.5c0,5.3,0,10.5,0,15.9c-1.3,0-2.4,0-3.6,0c0-5.3,0-10.5,0-15.8c-2,0-3.9,0-5.8,0c0-1.1,0-2.1,0-3.1 c4.9,0,9.9,0,15,0c0,1,0,2,0,3.1C30.5,13.5,28.7,13.5,26.8,13.5z M9.4,35.5c-1,0-1.7-0.7-1.7-1.8c0-9.1,0-18.2,0-27.3 c0-1.2,0.7-1.9,1.7-1.8c1,0,1.5,0.7,1.5,1.9c0,4.6,0,9.1,0,13.7c0,4.5,0,9,0,13.5C10.8,34.9,10.3,35.5,9.4,35.5z"/>
</svg>