<!-- (c) Carrd Inc. All rights reserved. All logos and trademarks are property of their respective owners. -->
<svg xmlns="http://www.w3.org/2000/svg" id="icon">
<path d="M33.4,19.1h-3.6v-3.6c0-2,1.6-3.6,3.6-3.6c2,0,3.6,1.6,3.6,3.6C37,17.5,35.4,19.1,33.4,19.1z M24.5,19.1 c-2,0-3.6-1.6-3.6-3.6v-9c0-2,1.6-3.6,3.6-3.6S28,4.6,28,6.6v9C28,17.5,26.5,19.1,24.5,19.1z M15.5,37c-2,0-3.6-1.6-3.6-3.6v-8.9 c0-2,1.6-3.6,3.6-3.6s3.6,1.6,3.6,3.6v8.9C19.1,35.4,17.5,37,15.5,37z M15.5,19.1h-9c-2,0-3.6-1.6-3.6-3.6c0-2,1.6-3.6,3.6-3.6h9 c2,0,3.6,1.6,3.6,3.6C19.1,17.5,17.5,19.1,15.5,19.1z M12,6.6c0-2,1.6-3.6,3.6-3.6s3.6,1.6,3.6,3.6v3.6h-3.6 C13.5,10.1,12,8.5,12,6.6z M6.6,20.9h3.6v3.6c0,2-1.6,3.6-3.6,3.6c-2,0-3.6-1.6-3.6-3.6S4.6,20.9,6.6,20.9z M24.5,20.9h9 c2,0,3.6,1.6,3.6,3.6s-1.6,3.6-3.6,3.6h-9c-2,0-3.6-1.6-3.6-3.6S22.5,20.9,24.5,20.9z M28,33.4c0,2-1.6,3.6-3.6,3.6 s-3.6-1.6-3.6-3.6v-3.6h3.6C26.5,29.9,28,31.5,28,33.4z" />
</svg>