<!-- (c) Carrd Inc. All rights reserved. All logos and trademarks are property of their respective owners. -->
<svg xmlns="http://www.w3.org/2000/svg" id="icon">
<path d="M1,7.9c0-0.1,0-0.2,0-0.3C1.2,7.1,1.6,7,2.1,7c0.3,0,0.5,0,0.8,0c0-0.3,0-0.6,0-0.9C3,6,3.1,6,3.2,6c1.5,0.1,3,0.1,4.6,0.2 C7.8,6.2,8,6.2,8,6.1c0.3-0.7,0.9-1,1.7-1c2.8,0,5.6,0,8.4,0c2.3,0,4.7,0,7,0.1c2.7,0,5.4,0,8.1,0.1c0.9,0,1.9,0,2.8,0 c0.6,0,1,0.6,0.9,1.1c-0.1,1.6-0.2,3.1-0.3,4.7c-0.1,1.5-0.2,3-0.3,4.4c-0.2,2.8-0.3,5.5-0.5,8.3c-0.1,0.8-0.1,1.6-0.3,2.4 c-0.2,1.1-1.1,1.8-2.2,1.7c-1.3,0-2.5,0-3.8,0.1c-0.6,0-0.6,0-0.8,0.6c-0.1,0.7-0.4,1.3-1,1.9c-0.6,0.6-1.2,1.2-1.7,1.8 c-0.4,0.5-0.9,0.9-1.1,1.6c-0.2,0.9-0.3,1.7-0.2,2.6c0.1,0.7,0.1,1.3,0.1,2c-0.5,0.1-1.1,0.3-1.7,0.4c0.1-1.7,0.2-3.4,0.4-4.9 c-0.2-0.1-0.3-0.1-0.5-0.2c0.1-0.1,0.1-0.2,0.1-0.2c1.3-1.4,2.5-2.8,3.8-4.1c0.2-0.2,0.3-0.4,0.4-0.7c0.1-0.7,0.3-1.4,0.4-2.1 c0.1-0.7,0.1-1.4,0.2-2.2c0.1-2,0.2-4,0.3-6c0-0.3-0.1-0.4-0.4-0.4c-0.4,0-0.5,0.1-0.6,0.4c-0.2,1.4-0.3,2.8-0.5,4.2 c-0.1,0.8-0.2,1.5-0.3,2.3c-0.3,0-0.6-0.1-0.8-0.1c0-0.1,0-0.3,0-0.4c0.1-0.6,0.1-1.2,0.2-1.7c0-0.9,0.1-1.8,0.1-2.7 c0-1.5,0-3-0.1-4.5c0-0.1,0-0.1-0.1-0.2c-0.3-0.2-1-0.1-1.3,0.2c-0.4,0.4-0.4,1-0.3,1.5c0.2,2.1,0.1,4.1,0.1,6.2 c0,0.5-0.1,1-0.1,1.5c0,0.1-0.1,0.2-0.2,0.2c-0.2,0-0.5,0-0.6,0c0-1.7,0-3.4,0-5.1c0-1.8-0.2-3.6-0.6-5.4c0-0.1-0.1-0.2-0.2-0.2 c-0.8-0.1-1.6,0.1-1.6,1.2c0,0.6,0,1.1,0.1,1.7c0.1,2,0.3,3.9,0.5,5.9c0,0.6,0,1.2,0,1.8c0,0.1-0.1,0.2-0.1,0.2c-0.2,0-0.4,0-0.6,0 c-0.2-3.2-0.3-6.3-1.2-9.4c-0.2,0-0.3,0-0.4,0.1c-1.1,0.2-1.3,0.5-1.2,1.6c0.2,1.9,0.5,3.8,0.3,5.8c-0.1,1.1-0.2,2.2-0.3,3.3 c-0.1,0.6-0.2,1.2-0.7,1.6c-0.4,0.4-1,0.7-1.4,1.1c-0.2-0.2-0.5-0.3-0.2-0.7c-1,0-1.9,0-2.9,0c0.3,0.6,0.5,1.1,0.9,1.7 c0.3,0.5,0.6,0.9,1,1.3c0.7,0.6,1.4,1.2,2.1,1.8c0.5,0.4,0.8,1,0.8,1.7c0,1.4-0.1,2.7-0.2,4.1c-0.6-0.2-1.1-0.3-1.7-0.5 c0-0.1,0-0.3,0.1-0.4c0.2-0.8,0.3-1.6,0.5-2.4c0.1-0.7,0.1-1.4-0.6-1.9c-0.5-0.3-0.9-0.7-1.4-1.1c-0.6-0.5-1.2-1.1-1.6-1.8 c-0.4-0.8-0.8-1.6-1.2-2.4c-0.1-0.2-0.2-0.3-0.4-0.3c-0.9,0-1.9,0-2.8,0.1c-0.3,0-0.6,0-0.9,0c-1,0.2-2,0.2-3.1-0.1 c-1-0.3-1.6-0.9-1.7-2c0-0.4-0.1-0.7-0.1-1.1c-0.4-5-0.9-10-1.3-15C1.2,9.4,1.1,8.7,1,7.9z M3.8,8.3c0,0.1,0,0.2,0,0.2 C3.9,9.8,3.9,11,4,12.3c0.2,3,0.4,6.1,0.6,9.1c0.1,1.2,0.2,2.5,0.3,3.7c0,0.1,0.1,0.3,0.2,0.3c0.6,0.2,1.2,0.2,1.7-0.1 c0.2-0.1,0.3-0.3,0.4-0.5c0.2-2,0.3-3.9,0.5-5.9c0.1-1.9,0.3-3.7,0.4-5.6c0.2-1.9,0.3-3.7,0.5-5.6c0-0.1,0-0.2,0-0.3 c-0.3,0-0.6,0-0.9,0c-0.3,3-0.5,6.1-0.8,9.1c0,0-0.1,0-0.1,0c-0.1-3-0.2-6.1-0.3-9.2c-0.4,0-0.7,0-1.1,0c0.1,4,0.1,8,0.2,11.9 c0,0-0.1,0-0.1,0C5.1,15.7,4.7,12,4.3,8.3C4.1,8.3,4,8.3,3.8,8.3z M34.7,23.3c-0.2,0-0.3,0-0.4,0c-1.5,0.1-3,0.2-4.5,0.3 c-0.7,0-0.6-0.1-0.7,0.7c0,0,0,0,0,0.1c1.8,0,3.6,0,5.5,0C34.6,24,34.7,23.7,34.7,23.3z M8.5,24.8c0.2,0,0.4,0,0.5,0 c2.7-0.1,5.4-0.2,8.1-0.2c0.4,0,0.5-0.1,0.4-0.6c-3,0.1-6,0.3-9,0.4C8.5,24.5,8.5,24.6,8.5,24.8z"/>
</svg>