<!-- (c) Carrd Inc. All rights reserved. All logos and trademarks are property of their respective owners. -->
<svg xmlns="http://www.w3.org/2000/svg" id="icon">
<path d="M6.3,36.2v-0.5l1-0.4c0.7-0.2,1.1-0.5,1.3-0.9c0.2-0.4,0.4-0.9,0.4-1.6V6.5c0-0.7-0.1-1.2-0.4-1.6c-0.2-0.4-0.7-0.7-1.4-1 l-1-0.4V3h12.2c5,0,8.6,0.9,10.8,2.8c2.2,1.8,3.4,4.2,3.4,7.2c0,1.9-0.5,3.7-1.4,5.3c-0.9,1.6-2.4,2.8-4.5,3.8 c-2.1,0.9-5,1.4-8.5,1.4h-1.7v9.3c0,1.3,0.7,2.2,2,2.6l1.5,0.5v0.5H6.3z M16.5,22.4h1.9c1.6,0,3-0.3,4-0.8c1-0.5,1.8-1.5,2.3-2.8 c0.5-1.3,0.8-3.2,0.8-5.6c0-2.4-0.3-4.3-0.9-5.6c-0.5-1.3-1.3-2.3-2.4-2.8c-1.1-0.5-2.4-0.8-4-0.8h-1.7V22.4z M33.4,37 c-1.2,0-2.2-0.4-3.1-1.3c-0.8-0.8-1.3-1.8-1.3-3c0-1.2,0.4-2.2,1.3-3.1c0.8-0.9,1.9-1.3,3.1-1.3c1.2,0,2.2,0.4,3.1,1.3 c0.8,0.9,1.3,1.9,1.3,3.1c0,1.2-0.4,2.2-1.3,3C35.6,36.6,34.6,37,33.4,37z"/>
</svg>