<!-- (c) Carrd Inc. All rights reserved. All logos and trademarks are property of their respective owners. -->
<svg xmlns="http://www.w3.org/2000/svg" id="icon">
<path d="M19.5,3c0.3,0,0.6,0,0.9,0c0.6,0.1,1.3,0.1,1.9,0.2c3.7,0.5,6.8,2.1,9.5,4.6c2.7,2.7,4.4,5.9,5,9.6c0.1,0.7,0.2,1.5,0.2,2.3 c0,0.2,0,0.4,0,0.7c0,0.2,0,0.4-0.1,0.5c-0.2,1.1-0.2,2.1-0.5,3.2c-2.4,9.3-11.7,14.7-20.9,12.3C8.6,34.6,3.4,28.2,3,21 c-0.2-3.4,0.5-6.6,2.2-9.5c2.6-4.4,6.5-7.2,11.6-8.2C17.7,3.2,18.6,3.1,19.5,3z M29.8,26.1c-0.1-2.1-0.6-4.1-1.4-6 c-0.9-2.5-2.3-4.6-4.5-6.1c-1.9-1.3-4-2.2-6.2-2.8c-1.4-0.4-2.8-0.7-4.2-0.7c-0.4,0-0.9,0.1-1.1,0.4c-0.4,0.6-0.6,1.3-0.4,2 c0.1,0.3,0.3,0.5,0.6,0.5c0.8,0.1,1.6,0.2,2.4,0.3c3,0.7,5.8,2,8,4.2c2.6,2.7,3.7,6,3.9,9.6c0,0.7,0.2,0.9,0.9,0.9 c1.4,0,2.1-0.7,2-2.1C29.8,26.2,29.8,26.1,29.8,26.1z M24,27c0-0.9-0.3-2.1-0.7-3.3c-0.8-2.3-2-4.2-4.2-5.4c-1.6-0.9-3.3-1.4-5-1.8 c-0.4-0.1-0.7-0.1-1.1-0.1c-1.1-0.2-1.5,0.6-1.4,1.5c0,0.4,0.2,0.5,0.6,0.6c0.5,0,0.9,0.1,1.4,0.2c2.2,0.5,4.3,1.4,5.9,3.1 c1.8,1.9,2.5,4.1,2.7,6.7c0,0.5,0.2,0.7,0.8,0.6C23.8,28.7,24,28.4,24,27z"/>
</svg>