<!-- (c) Carrd Inc. All rights reserved. All logos and trademarks are property of their respective owners. -->
<svg xmlns="http://www.w3.org/2000/svg" id="icon">
<path d="M38.1,22.1C38,22,37.8,22,37.6,21.9c-0.9,0.9-2.1,1.9-3.1,2.6C34,24.9,33.4,25,33,25c-0.9,0-1.3-0.9-1.4-2.2 c-0.2-1.9-0.3-4.1-0.3-7.5c0-3.5-0.8-5.9-2.9-6.1c-0.1,0-0.2,0-0.3,0c-1.3,0-1.9,0.7-2.8,2.4c-0.7,1.5-1.8,3.6-3.9,7.6 c-1.8,3.5-3.8,6.5-5.5,8.7c-0.5,0.6-0.8,1-1.2,1.2c-0.2,0.2-0.5,0.2-0.7,0.2c-0.7,0-1.2-0.6-1.3-1.9c0-0.3-0.1-0.7-0.1-1.1 c0-2.7,1-7.1,2.8-13.6c1.3-4.7,0.8-8-2.1-8c0,0,0,0,0,0c0,0,0,0,0,0l0,0c-0.6,0-1.2,0.2-1.7,0.6c-0.5,0.4-1,1.3-1.5,2.4 c-0.5,1.3-3.8,7.8-9,11.2c-0.1,1.3,0.7,2.6,2.1,2.7c1.3,0.1,2.3-0.4,3.5-1.3c-0.1,0.4-0.2,0.8-0.3,1.1c-0.1,0.4-0.2,0.8-0.2,1.1 c-0.1,0.4-0.2,0.7-0.2,0.8c-0.2,0.8-0.3,1.5-0.4,2.2c-0.7,6.5,2.3,9.7,5.8,9.7c0.6,0,1.2-0.1,1.8-0.2c3.9-1,7.7-5.5,12.1-15.7 c-0.1,1.1-0.1,2.2,0,3.1c0.3,5.9,2.6,7.7,5.9,7.7c2.5,0,4.8-1.3,6-2.9c0.9-1.1,1.2-2.4,1.2-3.4C38.7,23.1,38.5,22.4,38.1,22.1"/>
</svg>