<!-- (c) Carrd Inc. All rights reserved. All logos and trademarks are property of their respective owners. -->
<svg xmlns="http://www.w3.org/2000/svg" id="icon">
<path d="M29.8,18.2c-2.7,0.8-5.2,0.2-7.2-1.8c-0.1-0.1-0.2-0.2-0.3-0.4c-0.1-0.1-0.2-0.2-0.3-0.4 c-0.8,0.8-1.6,1.5-2.6,2c-1.6,0.8-3.3,1.1-5.1,0.8c-2.6-0.4-4.5-1.8-5.9-4.1c-0.5-0.8-0.8-1.8-1-2.7C7.1,9.4,7.6,7.4,8.8,5.6 c1.2-1.8,2.8-2.9,4.9-3.4c2.2-0.5,4.2-0.2,6.1,0.9C21,3.8,22,4.8,22.7,5.9c0.2,0.3,0.3,0.2,0.5,0.1c1.5-1.2,3.1-1.7,5-1.6 c3,0.2,5.6,2.3,6.4,5.2C35.5,13.2,33.6,17,29.8,18.2z M20.6,9.9c-0.2-2.8-2.6-4.8-5.3-4.6c-2.5,0.1-5.1,2.4-4.6,5.7 c0.4,2.5,2.6,4.3,5.2,4.1C18.9,15,20.8,12.5,20.6,9.9z M27.7,7.6c-2.1,0-3.8,1.7-3.8,3.8c0,2.1,1.8,3.8,3.8,3.8 c2.1,0,3.8-1.7,3.8-3.8C31.5,9.3,29.8,7.6,27.7,7.6z M13.6,24.1c0.2,0.1,0.3,0.1,0.4-0.1c0.8-2,2.2-3.3,4.3-3.8 c0.5-0.1,1-0.2,1.6-0.2c2.9,0,5.8,0,8.6,0c2.7,0,4.6,1.2,5.8,3.6c0.4,0.7,0.5,1.5,0.5,2.3c0,1.9,0,3.9-0.1,5.8 c-0.1,1.6-0.9,2.9-2.1,3.9c-1.1,0.9-2.4,1.4-3.9,1.4c-3.1,0-6.1,0-9.2,0c-1.9,0-3.4-0.8-4.5-2.2c-0.5-0.6-0.8-1.2-1.2-1.9 c-1.2,0.6-2.4,1.2-3.6,1.8c-0.7,0.3-1.4,0.7-2.1,1c-1.6,0.5-3.3-0.4-3.7-2c-0.1-0.3-0.1-0.7-0.1-1c0-2.8,0-5.6,0-8.5 c0-2.2,2.3-3.6,4.2-2.7C10.2,22.4,11.9,23.2,13.6,24.1z M16.7,30.9c0,1.7,1.4,3,3.1,3c3,0,6,0,9,0c1.4,0,2.8-1.2,2.9-2.6 c0.1-1.9,0.1-3.7,0-5.6c0-1.3-1.4-2.5-2.6-2.5c-1.6,0-3.2,0-4.8,0c0,0,0,0,0,0c-1.5,0-3,0-4.6,0c-1.5,0-2.9,1.3-3,3 C16.6,27.7,16.7,29.3,16.7,30.9z M7.3,26c0,0.9,0,1.7,0,2.6c0,0.9,0,1.8,0,2.6c0,0.7,0.6,1.1,1.3,0.8c1.6-0.8,3.2-1.6,4.8-2.4 c0.1-0.1,0.2-0.2,0.2-0.3c0-0.4,0-0.9,0-1.3c0-0.2-0.1-0.4-0.3-0.5c-1.5-0.8-3.1-1.5-4.6-2.3C7.9,24.8,7.3,25.2,7.3,26z"/>
</svg>