<!-- (c) Carrd Inc. All rights reserved. All logos and trademarks are property of their respective owners. -->
<svg xmlns="http://www.w3.org/2000/svg" id="icon">
<path d="M30.1,25.6c-2.5,4.3-7.5,6.6-12.3,5.6c-4.8-1-8.6-5.1-9.2-9.9c-0.3-2.8,0.3-5.4,1.4-7.9c1.8-4,4.5-7.4,7.5-10.6 C18.2,1.8,19.1,1,20.1,0c4.4,4.4,8.4,9,10.6,14.9C32.1,18.5,32.1,22.1,30.1,25.6z M26,15.9c-1.3-3-3.2-5.5-5.3-7.9 c-0.5-0.5-0.9-0.6-1.4,0c-0.6,0.6-1.1,1.2-1.6,1.8c-1.9,2.3-3.5,4.7-4.3,7.6c-1.2,4.7,1.8,9,6.6,9.1c2.5-0.1,4.6-1.2,5.9-3.6 C27.2,20.6,27.1,18.2,26,15.9z M9.1,35.8c0.6,0,1.3,0,1.9,0c6.5,0,13,0,19.4,0c1.1,0,1.2,0.1,1.2,1.2c0,0.7,0,1.3,0,2 c0,0.9-0.1,1-1,1c-3.6,0-7.1,0-10.7,0c-3.5,0-7,0-10.6,0c-1,0-1.1-0.1-1.1-1.1c0-0.8,0-1.5,0-2.3C8.3,36.1,8.6,35.8,9.1,35.8z"/>
</svg>