<!-- (c) Carrd Inc. All rights reserved. All logos and trademarks are property of their respective owners. -->
<svg xmlns="http://www.w3.org/2000/svg" id="icon">
<path d="M35.3,20c0,2.8-0.7,5.4-2.1,7.7c-1.4,2.4-3.3,4.2-5.6,5.6c-2.4,1.4-4.9,2.1-7.7,2.1c-1.5,0-2.9-0.2-4.4-0.6 c0.8-1.2,1.3-2.3,1.6-3.3c0.1-0.5,0.5-1.9,1.1-4.2c0.3,0.5,0.8,1,1.5,1.4c0.7,0.4,1.5,0.6,2.3,0.6c1.6,0,3.1-0.5,4.3-1.4 c1.3-0.9,2.3-2.2,3-3.8c0.7-1.6,1-3.4,1-5.4c0-1.5-0.4-3-1.2-4.3c-0.8-1.3-2-2.4-3.5-3.3c-1.5-0.8-3.2-1.3-5.1-1.3 c-1.4,0-2.7,0.2-3.9,0.6c-1.2,0.4-2.3,0.9-3.1,1.5c-0.9,0.6-1.6,1.4-2.2,2.2c-0.6,0.8-1.1,1.7-1.3,2.6c-0.3,0.9-0.4,1.8-0.4,2.7 c0,1.4,0.3,2.6,0.8,3.7c0.5,1.1,1.3,1.8,2.3,2.2c0.4,0.2,0.7,0,0.8-0.4c0-0.1,0.1-0.3,0.2-0.6c0.1-0.3,0.1-0.5,0.2-0.6 c0.1-0.3,0-0.6-0.2-0.9c-0.7-0.8-1-1.8-1-3c0-2,0.7-3.8,2.1-5.2c1.4-1.5,3.2-2.2,5.5-2.2c2,0,3.6,0.5,4.7,1.6 c1.1,1.1,1.7,2.5,1.7,4.3c0,2.3-0.5,4.2-1.4,5.8s-2.1,2.4-3.5,2.4c-0.8,0-1.5-0.3-2-0.9c-0.5-0.6-0.6-1.3-0.5-2.1 c0.1-0.5,0.3-1.1,0.5-1.9c0.2-0.8,0.4-1.5,0.6-2.1c0.2-0.6,0.2-1.1,0.2-1.5c0-0.7-0.2-1.2-0.5-1.7c-0.4-0.4-0.9-0.7-1.5-0.7 c-0.8,0-1.5,0.4-2.1,1.1c-0.6,0.8-0.9,1.7-0.9,2.9c0,1,0.2,1.8,0.5,2.5l-2,8.4c-0.2,0.9-0.3,2.1-0.3,3.6c-2.8-1.2-5-3.1-6.7-5.6 S4.4,23.1,4.4,20c0-2.8,0.7-5.4,2.1-7.7S9.7,8,12.1,6.6s4.9-2.1,7.7-2.1c2.8,0,5.4,0.7,7.7,2.1s4.2,3.3,5.6,5.6 C34.6,14.6,35.3,17.2,35.3,20L35.3,20z"/>
</svg>