<!-- (c) Carrd Inc. All rights reserved. All logos and trademarks are property of their respective owners. -->
<svg xmlns="http://www.w3.org/2000/svg" id="icon">
<path d="M37.4,21.9h-5.6l-1.9-2l1.9-2h5.6c0.1,0.6,0.1,1.3,0.1,2C37.5,20.6,37.5,21.2,37.4,21.9z M35.4,28.5 c-0.6,1.1-1.4,2.2-2.3,3.2L21.5,19.9L33.1,8.1c0.9,1,1.7,2.1,2.3,3.2l-8.4,8.6L35.4,28.5z M8.4,6.6c1-0.9,2-1.7,3.2-2.3l8.5,8.6 l8.5-8.6c1.1,0.6,2.2,1.4,3.1,2.3L20,18.4L8.4,6.6z M20,37.7c-4.8,0-8.9-1.7-12.4-5.2C4.2,29,2.5,24.8,2.5,19.9 c0-4.6,1.5-8.5,4.4-11.8l24.7,25.2C28.3,36.3,24.5,37.8,20,37.7z"/>
</svg>