<!-- (c) Carrd Inc. All rights reserved. All logos and trademarks are property of their respective owners. -->
<svg xmlns="http://www.w3.org/2000/svg" id="icon">
<path d="M34.1,30.3c-2.9,4.1-7.7,6.8-12.7,7.1c-4.6,0.4-9.4-1.2-12.9-4.2c-3.8-3.2-6-8.1-6-13.1 c-0.1-4.7,1.9-9.5,5.4-12.7l3.3,3.9c-0.8,0.9-1.6,1.8-2.1,2.9c-2,3.7-1.9,8.3,0.1,12l6.8-6.6l3.1-7.1c0,3.6,0,7.5,0,11.1l-6.6,6.3 c1.2,0.9,2.7,1.6,4.2,2.1c3.7,1,7.8,0.3,10.9-2.1L21,23.6l0-11.1l3.1,7l6.7,6.5c0.9-1.6,1.4-3.4,1.5-5.2c0.3-3.5-1.1-7.1-3.6-9.6 l3.3-3.9c2.6,2.5,4.4,5.7,5,9.2C38.1,21.3,37,26.4,34.1,30.3z M27.3,9.9c-1.5-1.1-3.2-1.8-4.9-2.2c-3.4-0.7-7,0.1-9.7,2.2L9.4,6.1 c3-2.3,6.7-3.6,10.4-3.6c3.9-0.1,7.7,1.2,10.8,3.6L27.3,9.9z" />
</svg>