<!-- (c) Font Awesome (fontawesome.io, SIL OFL) -->
<svg xmlns="http://www.w3.org/2000/svg" id="icon">
<path d="M22.2,34.9c0-0.6-0.2-1.2-0.7-1.6c-0.4-0.4-1-0.7-1.6-0.7s-1.2,0.2-1.6,0.7c-0.4,0.4-0.7,1-0.7,1.6c0,0.6,0.2,1.2,0.7,1.6 s1,0.7,1.6,0.7c0.6,0,1.2-0.2,1.6-0.7S22.2,35.6,22.2,34.9z M28.2,30.4V10.2c0-0.2-0.1-0.5-0.3-0.6c-0.2-0.2-0.4-0.3-0.6-0.3H12.6 c-0.2,0-0.5,0.1-0.6,0.3c-0.2,0.2-0.3,0.4-0.3,0.6v20.1c0,0.2,0.1,0.5,0.3,0.6c0.2,0.2,0.4,0.3,0.6,0.3h14.6c0.2,0,0.5-0.1,0.6-0.3 C28.1,30.8,28.2,30.6,28.2,30.4z M22.7,6.1c0-0.3-0.2-0.5-0.5-0.5h-4.6c-0.3,0-0.5,0.2-0.5,0.5c0,0.3,0.2,0.5,0.5,0.5h4.6 C22.5,6.6,22.7,6.4,22.7,6.1z M30.9,5.6v29.3c0,1-0.4,1.9-1.1,2.6c-0.7,0.7-1.6,1.1-2.6,1.1H12.6c-1,0-1.9-0.4-2.6-1.1 c-0.7-0.7-1.1-1.6-1.1-2.6V5.6c0-1,0.4-1.9,1.1-2.6C10.8,2.3,11.6,2,12.6,2h14.6c1,0,1.9,0.4,2.6,1.1C30.6,3.8,30.9,4.6,30.9,5.6z" />
</svg>