<!-- (c) Carrd Inc. All rights reserved. All logos and trademarks are property of their respective owners. -->
<svg xmlns="http://www.w3.org/2000/svg" id="icon">
<path d="M38.7,8.8c0,0,0,0.7,0,1.3c0.1,5.7,0,11.4,0,17.1c0,0.4-0.1,0.6-0.4,0.9c-1.9,1.4-3.7,2.9-5.5,4.4 c-2.4,1.9-4.7,3.8-7.1,5.7c-8,0-16.1,0-24.1,0c0-7.3,0-14.6,0-22c-0.6,0-1.1,0-1.6,0c0-2,0-4,0-6c0.1,0,0.2-0.1,0.3-0.1 C2.5,8.7,4.8,7.4,7,6.2c2.4-1.4,4.8-2.8,7.3-4.2c8.6,0,17.1,0,25.7,0c0,2,0,5.8,0,5.8L38.7,8.8z M2.4,37.2c7.7,0,15.4,0,23.1,0 c0-7,0-14.1,0-21.1c-7.8,0-15.4,0-23.1,0C2.4,23.2,2.4,30.2,2.4,37.2z M1,15.3c8.7,0,17.3,0,25.9,0c0-1.4,0-2.7,0-4 c-8.7,0-17.2,0-25.9,0C1,12.6,1,13.9,1,15.3z M38.3,2.8c-7.7,0-15.5,0-23.2,0.1c-0.2,0-0.5,0.1-0.7,0.2c-2.5,1.4-5,2.8-7.6,4.3 c-1.7,1-3.4,2-5.3,3c0.2,0,0.2,0,0.3,0c8.3,0,16.6,0,25,0c0.3,0,0.6-0.1,0.8-0.3c3.6-2.3,7.2-4.6,10.8-6.9c0.2-0.1,0.3-0.2,0.5-0.4 C38.6,2.8,38.4,2.8,38.3,2.8z M5.9,19.7c5,0,9.9,0,14.9,0c0,1.2,0,2.5,0,3.8c-4.9,0-9.9,0-14.9,0C5.9,22.2,5.9,21,5.9,19.7z"/>
</svg>