<!-- (c) Font Awesome (fontawesome.io, SIL OFL) -->
<svg xmlns="http://www.w3.org/2000/svg" id="icon">
<path d="M34,11.7c0-0.6-0.2-1.2-0.7-1.6l-3.2-3.2c-0.4-0.4-1-0.7-1.6-0.7s-1.2,0.2-1.6,0.7L20,13.8l-6.9-6.9c-0.4-0.4-1-0.7-1.6-0.7 c-0.6,0-1.2,0.2-1.6,0.7l-3.2,3.2c-0.4,0.4-0.7,1-0.7,1.6c0,0.6,0.2,1.2,0.7,1.6l6.9,6.9l-6.9,6.9c-0.4,0.4-0.7,1-0.7,1.6 s0.2,1.2,0.7,1.6l3.2,3.2c0.4,0.4,1,0.7,1.6,0.7c0.6,0,1.2-0.2,1.6-0.7l6.9-6.9l6.9,6.9c0.4,0.4,1,0.7,1.6,0.7s1.2-0.2,1.6-0.7 l3.2-3.2c0.4-0.4,0.7-1,0.7-1.6s-0.2-1.2-0.7-1.6l-6.9-6.9l6.9-6.9C33.8,12.9,34,12.3,34,11.7z"/>
</svg>