<!-- (c) Carrd Inc. All rights reserved. All logos and trademarks are property of their respective owners. -->
<svg xmlns="http://www.w3.org/2000/svg" id="icon">
<path d="M34.9,16.7c-0.6,5.9-4.5,10.9-10.3,12.8c-2.9,1-5.9,1-8.9,0.1c-0.1,0-0.1,0-0.2,0c0,0.1,0,0.3,0,0.4 c0,1.6,0,3.1,0,4.7c-0.1,2.3-1.8,4.3-4,4.9c-0.4,0.1-0.8,0.1-1.2,0.2c0,0,0,0-0.1,0c-0.1,0-0.2,0-0.4,0c-1-0.1-1.9-0.4-2.7-1 C5.7,37.6,5,36.1,5,34.2c0-3.2,0-6.5,0-9.7c0-2.9,0-5.8,0-8.7c0-0.9,0-1.8,0.2-2.7c0.4-2.8,1.6-5.4,3.5-7.6c2.3-2.7,5.3-4.4,8.8-5 c0.6-0.1,1.2-0.2,1.8-0.2c0.5,0,0.9,0,1.4,0c0.1,0,0.2,0,0.2,0c3.3,0.2,6.3,1.4,8.8,3.6c2.7,2.4,4.4,5.4,5,9 c0.1,0.8,0.2,1.6,0.2,2.4c0,0,0,0,0,0.1C35,15.8,34.9,16.3,34.9,16.7z M8.5,24.9c0,0.1,0,0.2,0,0.2c0,3.1,0,6.1,0,9.2 c0,1.1,0.8,1.9,1.8,1.9c1,0,1.8-0.8,1.8-1.9c0-2,0-4.1,0-6.1c0-0.2-0.1-0.3-0.2-0.4c-0.5-0.4-1.1-0.7-1.5-1.1 C9.7,26.2,9.1,25.5,8.5,24.9z M20,4.1c-6.2,0-11.2,5-11.2,11.2c0,6.2,5,11.2,11.2,11.2c6.2,0,11.2-5,11.2-11.2 C31.2,9.1,26.2,4.1,20,4.1z M20,23.4c-4.5,0-8.1-3.7-8.1-8.2c0-4.5,3.7-8.1,8.1-8.1c4.5,0,8.2,3.7,8.1,8.2 C28.1,19.7,24.6,23.4,20,23.4z M20,10.9c-2.4,0-4.4,1.9-4.4,4.4c0,2.4,1.9,4.4,4.3,4.4c2.5,0,4.4-1.9,4.4-4.4 C24.3,12.9,22.4,10.9,20,10.9z"/>
</svg>