<!-- (c) Carrd Inc. All rights reserved. All logos and trademarks are property of their respective owners. -->
<svg xmlns="http://www.w3.org/2000/svg" id="icon">
<path d="M39.6,21.6c-0.6,1-1.7,1.6-2.8,1.6c-0.5,0-1.1-0.1-1.6-0.4L24,16.3c-1.5-0.9-2-2.8-1.2-4.4 c0.9-1.5,2.8-2,4.4-1.2l11.2,6.5C39.9,18.2,40.5,20.1,39.6,21.6z M29.1,20.7l5.4,3.1c0.4,0.2,0.9,0.4,1.3,0.4l-8.7,5 c-0.5,0.3-1.1,0.4-1.6,0.4c-1.1,0-2.2-0.6-2.8-1.6c-0.9-1.5-0.4-3.5,1.2-4.4L29.1,20.7z M14.4,29.7c-0.5,0-1.1-0.1-1.6-0.4L1.6,22.8 c-1.5-0.9-2-2.8-1.2-4.4c0.9-1.5,2.8-2,4.4-1.2L16,23.7c1.5,0.9,2,2.8,1.2,4.4C16.6,29.1,15.5,29.7,14.4,29.7z M10.8,19.3l-5.3-3.1 C5,16,4.6,15.8,4.1,15.8l8.7-5c1.5-0.9,3.5-0.4,4.4,1.2c0.9,1.5,0.4,3.5-1.2,4.4L10.8,19.3z"/>
</svg>