<!-- (c) Carrd Inc. All rights reserved. All logos and trademarks are property of their respective owners. -->
<svg xmlns="http://www.w3.org/2000/svg" id="icon">
<path d="M20,3.52c9.11,0,16.5,7.38,16.5,16.48c0,9.1-7.39,16.48-16.5,16.48S3.5,29.1,3.5,20C3.5,10.9,10.89,3.52,20,3.52z M26.87,29.4c2.93-2.13,4.83-5.58,4.83-9.47c0-6.47-5.25-11.71-11.73-11.71S8.25,13.46,8.25,19.93c0,3.91,1.91,7.37,4.86,9.49 l2.77-3.84c-1.75-1.27-2.89-3.33-2.89-5.65c0-3.86,3.13-6.98,6.99-6.98c3.86,0,6.99,3.13,6.99,6.98c0,2.32-1.13,4.37-2.87,5.64 L26.87,29.4z M20,17.1c-1.56,0-2.82,1.26-2.82,2.82c0,1.56,1.26,2.82,2.82,2.82c1.56,0,2.82-1.26,2.82-2.82 C22.82,18.36,21.56,17.1,20,17.1z"/>
</svg>