<!-- (c) Carrd Inc. All rights reserved. All logos and trademarks are property of their respective owners. -->
<svg xmlns="http://www.w3.org/2000/svg" id="icon">
<path d="M8.7,37.6l27.5,0c0,0,1.4-0.4,1.7-1.8c0.3-1.3-0.5-3.7-0.6-3.9c-0.4-0.8-0.8-1.7-1.4-2.4 c-0.3-0.4-0.6-0.8-0.9-1.1c-0.3-0.3-0.6-0.7-0.9-1c-0.3-0.3-0.7-0.6-1.1-1c-0.5-0.4-1-0.9-1.5-1.3c-0.5-0.4-1-0.7-1.5-1 c-0.6-0.4-1.3-0.7-2-0.9c-0.1,0-0.2-0.1-0.3-0.1c-0.3-0.1-0.6-0.2-0.9-0.2c-0.1,0-0.2-0.1-0.3-0.2c-0.3-0.1-0.6-0.1-0.8-0.2 c-0.2-0.1-0.4-0.1-0.6-0.2c-0.5-0.2-1-0.3-1.5-0.5c-0.3-0.1-0.7-0.4-0.8-0.7c-0.2-0.4-0.2-0.9,0-1.3c0-0.1,0-0.2,0-0.3 c-0.3-0.2-0.4-0.6-0.5-0.9c-0.2-0.6-0.3-1.1-0.4-1.7c0-0.5-0.1-0.9,0-1.4c0.1-0.6,0.1-1.2,0.1-1.8c0-0.3,0-0.5,0.1-0.8 c0-0.3,0.2-0.5,0.5-0.7c0.2-0.1,0.4-0.2,0.6-0.4c1-0.6,1.8-1.4,2.6-2.2C26,9.3,26.3,9,26.6,8.7c0.3-0.3,0.7-0.6,1.1-0.8 c0.4-0.3,0.4-0.2,0.3-0.7c0-0.1,0-0.3-0.1-0.4c0-0.1-0.1-0.2-0.2-0.4c-0.2-0.5-0.5-0.9-0.9-1.3C26.4,4.7,26,4.3,25.4,4 c-0.3-0.1-0.6-0.3-0.9-0.4c-0.4-0.1-0.7-0.3-1.1-0.3c-0.2,0-0.4-0.1-0.7-0.1c-0.3,0-0.7,0-1-0.1C21.5,3,21.2,3,21,3 c-0.4,0-0.7,0-1.1,0c-0.4,0-0.8,0.1-1.2,0.1c-0.4,0-0.8,0.1-1.2,0.1c-0.6,0.1-1.2,0.1-1.7,0.2c-0.5,0-0.9,0.1-1.4,0.1 c-0.5,0.1-1,0.1-1.6,0.2c-0.3,0-0.6,0.1-0.9,0.1c-0.4,0-0.8,0.1-1.3,0.1C10.4,4,10.1,4,9.9,4C9.5,4,9.1,4.1,8.7,4.1 C8,4.2,7.4,4.1,6.8,4C6.4,3.9,6,3.8,5.6,3.5C5.5,3.5,5.5,3.4,5.4,3.3C5,3.1,4.7,2.9,4.4,2.5c0,0-0.1-0.1-0.1-0.1 c0,0.1-0.1,0.3-0.1,0.4c0,0.4,0,0.8,0,1.2c0,0.4,0.2,0.7,0.4,1c0.2,0.3,0.4,0.5,0.8,0.7C5.7,5.8,5.9,6,6.1,6.1 c0.3,0.2,0.6,0.4,1,0.5c0,0,0,0,0,0C7.4,6.9,7.6,7,7.9,7c0.1,0,0.3,0.1,0.4,0.1c0.2,0.1,0.3,0.2,0.3,0.4c0,0.2,0,0.4-0.1,0.5 C8.3,8.3,8.1,8.5,8,8.8C7.8,9,7.7,9.3,7.6,9.6C7.5,9.8,7.4,10,7.3,10.2C7.1,10.5,7,10.7,6.9,11c0,0.1-0.1,0.2-0.2,0.3 c-0.1,0.3-0.2,0.5-0.3,0.8C6.2,12.5,6,13,5.8,13.5c-0.1,0.3-0.2,0.6-0.3,0.8c-0.1,0.3-0.2,0.6-0.3,0.9c-0.1,0.4-0.3,0.8-0.4,1.3 c0,0.2-0.1,0.3-0.2,0.5c-0.1,0.5-0.2,1-0.3,1.5c-0.1,0.4-0.1,0.8-0.2,1.2c0,0.4-0.1,0.7-0.1,1.1c0,0.5-0.1,1.1-0.1,1.6 c0,1.1,0,2.3,0,3.4c0,0.4,0,0.8,0,1.1c0,0.3,0,0.5,0.1,0.8c0.1,0.4,0.1,0.9,0.2,1.3c0.1,0.4,0.1,0.8,0.2,1.1c0.1,0.5,0.3,1,0.4,1.5 C5,31.9,5,32.2,5.1,32.5c0.1,0.3,0.2,0.6,0.3,0.9c0.1,0.3,0.2,0.6,0.3,0.9c0.2,0.5,0.3,1.3,0.9,2C7.2,37.2,8.7,37.6,8.7,37.6z M23.1,13.8c0,0.8,0,1.6,0,2.4c0,0.4,0.1,0.8,0.2,1.2c0.1,0.3,0.1,0.6,0.2,1c0,0.2,0.3,0.3,0.5,0.3c0.5-0.2,0.9-0.3,1.4-0.5 c0.6-0.3,1.1-0.6,1.6-1c0.4-0.3,0.8-0.7,1.1-1.1c0.1-0.2,0.1-0.2,0-0.4c-0.2-0.2-0.4-0.3-0.6-0.4c-0.5-0.3-1.1-0.6-1.6-0.8 c-0.5-0.2-1-0.3-1.6-0.5c-0.4-0.1-0.7-0.2-1.1-0.4C23.1,13.7,23.1,13.8,23.1,13.8z M30.3,12.7c0-0.2,0-0.5-0.1-0.7 c-0.1-0.5-0.2-1.1-0.4-1.6c-0.1-0.5-0.3-0.9-0.6-1.3C29.2,9,29.1,8.8,29,8.8c-0.2,0-0.5,0-0.6,0.2c-0.1,0.1-0.2,0.1-0.2,0.2 c-0.3,0.3-0.7,0.5-1,0.8c-0.1,0.1-0.3,0.2-0.4,0.3c-0.4,0.3-0.7,0.7-1.1,1.1c-0.3,0.3-0.7,0.6-1,0.8c-0.2,0.1-0.4,0.3-0.6,0.4 c0.3,0.1,0.6,0.2,0.9,0.3c0.2,0.1,0.4,0.1,0.6,0.2c0.3,0.1,0.6,0.2,0.9,0.3c0.4,0.2,0.8,0.4,1.2,0.5c0.5,0.2,1,0.5,1.4,0.9 c0.2,0.1,0.3,0.3,0.4,0.5c0.2,0.2,0.3,0.4,0.4,0.7c0,0.1,0.1,0.2,0.1,0.4c0-0.1,0.1-0.1,0.1-0.1c0-0.2,0.1-0.4,0.1-0.7 c0-0.2,0.1-0.4,0.1-0.5c0-0.3,0-0.7,0.1-1C30.2,13.6,30.4,13.2,30.3,12.7z M12.4,11.1c0.1-0.3,0.2-0.6,0.4-0.8 c0.3-0.6,0.7-1.2,1.2-1.7c0.4-0.5,0.8-0.9,1.2-1.3c0.5-0.5,1.1-0.9,1.7-1.3c0.2-0.1,0.3-0.1,0.5-0.2c0.3,0,0.5,0.3,0.4,0.6 c0,0.2-0.2,0.3-0.3,0.4c-0.5,0.4-1,0.9-1.5,1.5c-0.5,0.6-0.9,1.2-1.2,2c-0.2,0.5-0.4,1-0.4,1.5c0,0.5-0.1,0.9,0,1.4 c0,0.6,0.2,1.1,0.5,1.7c0.3,0.4,0.6,0.8,0.9,1.2c0.3,0.2,0.6,0.5,0.9,0.7c0.3,0.3,0.7,0.4,1,0.6c0.2,0.2,0.5,0.3,0.7,0.4 c0.1,0,0.1,0.1,0.2,0.1c0.2,0.2,0.6,0.2,0.9,0.4c0.2,0.1,0.4,0.2,0.5,0.4c0.1,0.3-0.1,0.6-0.3,0.7c-0.5,0.2-0.9,0.3-1.4,0.3 c-0.2,0-0.5,0-0.7,0c-0.7,0-1.3-0.2-1.9-0.4C15,19,14.5,18.7,14,18.4c-0.3-0.2-0.6-0.3-0.7-0.7c0,0,0-0.1-0.1-0.1 c-0.3-0.2-0.5-0.5-0.7-0.7c-0.2-0.3-0.3-0.7-0.5-1c-0.1-0.2-0.1-0.3-0.2-0.5c-0.1-0.4-0.1-0.8-0.1-1.3c0-0.7,0.2-1.5,0.4-2.2 C12.1,11.6,12.3,11.4,12.4,11.1z M21.8,7.5c0.3,0,0.6,0.1,0.9,0.3c0.4,0.2,0.6,0.5,0.7,0.9c0,0.1,0,0.3,0.1,0.4 c0,0.7-0.3,1.2-0.9,1.6c-0.1,0.1-0.3,0.1-0.5,0.1c-0.3,0-0.7,0.1-1-0.1c-0.6-0.2-1-0.7-1-1.4c0-0.5,0.1-0.9,0.4-1.3 C20.8,7.6,21.3,7.4,21.8,7.5z"/>
</svg>