<!-- (c) Carrd Inc. All rights reserved. All logos and trademarks are property of their respective owners. -->
<svg xmlns="http://www.w3.org/2000/svg" id="icon">
<path d="M31.9,23.6c-4,0.1-4.2-2.7-4.2-4.7c0-2.1,0.4-5.1,3.7-5.1c3.2,0,4.1,3.2,4.1,4.2C35.4,19,35.9,23.5,31.9,23.6z M24.7,14.3c-2.7-0.3-3.3-2.8-3-5.3c0.2-2,2.6-5.1,4.5-4.7c1.9,0.4,3.7,3,3.3,5.2C29.2,11.7,27.4,14.6,24.7,14.3z M24.7,20.4 c2.4,3.5,6.6,6.8,6.6,6.8s3.1,2.5,1.1,7.2c-2,4.7-9.3,2.3-9.3,2.3s-2.7-0.9-5.8-0.2c-3.1,0.7-5.8,0.4-5.8,0.4S7.8,37,6.8,32.4 c-1-4.7,3.7-7.2,4-7.6c0.3-0.4,2.8-2.1,4.4-4.7C16.7,17.4,21.4,15.3,24.7,20.4z M18.8,22.7l-2.2,0v3.1h-2.5c0,0-2.5,0.2-3.4,3.1 c-0.3,1.9,0.3,3.1,0.4,3.3c0.1,0.2,0.9,1.7,3,2.1h4.8V22.7z M22.2,31.5V26l-2.2,0v6.1c0,0,0.1,1.5,2.2,2.1h5.5v-8.2h-2.4v6.1h-2.3 C23.1,32.2,22.4,32.1,22.2,31.5z M13,30.8c-0.2-0.7,0-1.5,0.1-1.8c0.1-0.3,0.5-1,1.5-1.3h2.1l0,4.7h-1.9 C14.7,32.4,13.4,32.3,13,30.8z M16,13.9c-2,0-3.7-2.3-3.7-5.2c0-2.9,1.6-5.2,3.7-5.2c2,0,3.7,2.3,3.7,5.2C19.7,11.6,18,13.9,16,13.9 z M9.2,21.3c-3.7,0.8-5-3.5-4.6-5.5c0,0,0.4-4.3,3.4-4.6c2.4-0.2,4.1,2.4,4.3,3.9C12.4,16.1,12.9,20.5,9.2,21.3z" />
</svg>