<!-- (c) Carrd Inc. All rights reserved. All logos and trademarks are property of their respective owners. -->
<svg xmlns="http://www.w3.org/2000/svg" id="icon">
<path d="M36.2,32.6c0,0-2.3-7.8-2.8-9.3c-0.4-1.5-0.8-2.9-1-4.4c0.2,3.4,0.2,4.4,0.2,7.3v6.4h-4.3V7.4h4.2 c0,0,2,7.4,2.5,8.9c0.4,1.6,0.8,2.9,1,4c-0.1-2.5-0.2-5.5-0.2-8V7.4H40v25.2H36.2z M22.9,26.4l-0.1-0.1l-0.1,0.1 c-1.2,0.9-2.6,1.4-4.1,1.4c-1.3,0-2.5-0.3-3.6-1.1c-0.9-0.7-1.5-1.8-1.4-2.9c0-1.7,1-3.1,3-4.2l0.1-0.1l-0.1-0.1 c-0.6-0.7-1.1-1.4-1.4-2.2c-0.2-0.5-0.3-1.1-0.3-1.7c0-0.9,0.4-1.9,1.1-2.5c0.8-0.6,1.8-1,2.8-0.9c0.9,0,1.7,0.2,2.5,0.8 c0.6,0.5,0.9,1.2,0.9,2.2c0,1.5-1,2.7-3.1,3.7l-0.2,0.1l4.7,5.5l0.1-0.2c0.5-0.9,0.7-2,0.7-3c0-0.4,0-0.8-0.1-1.1 c0-0.1-0.1-0.3-0.2-0.4c-0.1-0.1-0.2-0.1-0.4-0.2l-1.2-0.3v-0.3l1.1,0c0.7,0,1.6,0,2.2,0l0.8,0v0.2l-1.2,0.3c-0.2,0-0.3,0.2-0.3,0.4 c0,0.3,0.1,0.7,0.1,1.1c0,1.4-0.3,2.8-1.1,3.9l0,0.1l0,0.1c0.4,0.6,0.8,1.1,1.3,1.5c0.4,0.3,0.9,0.5,1.4,0.5c0.1,0,0.2,0,0.2,0 l0.1,0.3c-0.5,0.2-1,0.3-1.5,0.3C24.5,27.8,23.5,27.3,22.9,26.4z M20.4,15.2c0.1-0.7-0.2-1.5-0.8-2c-0.6-0.5-1.5-0.5-2.1-0.2 c-0.7,0.4-1.1,1.3-1,2.1l0,0c0.1,1.3,0.8,2.3,1.8,3.4l0.1,0.1l0.1-0.1C19.8,17.5,20.4,16.5,20.4,15.2z M17.2,20l-0.1,0.1 c-1,0.8-1.6,2.1-1.5,3.4c0,0.9,0.3,1.9,0.9,2.5c0.7,0.7,1.6,1,2.5,0.9c1,0,2.1-0.4,2.8-1.1l0.1-0.1L17.2,20z M5.8,32.6H0V7.4h5.8 c4.5,0,5.7,2.6,5.7,6.9c0,3.1-1.2,4.8-3.2,4.9c2.2,0,3.9,2.2,3.9,6.3C12.2,30.7,9.8,32.6,5.8,32.6z M5.3,10.3H4.5v7.2h1.2 c1.2,0,1.4-1,1.4-3.2C7.1,11.5,6.8,10.3,5.3,10.3z M5.6,20.7l-1.1,0v8.9h1.2c1.4,0,1.8-0.8,1.8-4.7C7.4,22.2,7.1,20.7,5.6,20.7z M12.2,25.5L12.2,25.5C12.2,25.5,12.2,25.5,12.2,25.5C12.2,25.5,12.2,25.5,12.2,25.5z"/>
</svg>