<!-- (c) Carrd Inc. All rights reserved. All logos and trademarks are property of their respective owners. -->
<svg xmlns="http://www.w3.org/2000/svg" id="icon">
<path d="M29.7,37c-6.4,0-12.9,0-19.3,0c-0.1-0.1-0.2-0.2-0.3-0.3c-3.2-5.5-6.4-11-9.5-16.5c0-0.1,0-0.2,0-0.3 c0.1-0.1,0.1-0.2,0.2-0.3C3.8,14.2,6.9,8.9,10,3.5c0.1-0.2,0.2-0.3,0.4-0.4c6.4,0,12.9,0,19.3,0c0.1,0.1,0.3,0.2,0.3,0.4 c3.2,5.5,6.3,11,9.5,16.4c0,0.1,0,0.2,0,0.3c0,0.1-0.1,0.2-0.1,0.3c-3.1,5.4-6.2,10.8-9.3,16.2C29.9,36.7,29.8,36.8,29.7,37z M11.8,15.2c0.1,0.1,0.1,0.1,0.2,0.2c0.3,0.4,0.6,0.7,0.9,1.1c1.8,2.1,3.6,4.2,5.4,6.2c0.1,0.1,0.1,0.1,0.2,0.1 c0.4,0.1,0.7,0.1,1.1,0.2c2.4,0.5,4.8,0.9,7.2,1.4c0.5,0.1,0.9,0.2,1.4,0.3c0,0,0-0.1,0-0.1c-2.1-2.5-4.3-5-6.4-7.4 c0-0.1-0.1-0.1-0.2-0.1c-0.3-0.1-0.6-0.1-0.9-0.2c-2.2-0.4-4.3-0.8-6.5-1.3C13.3,15.5,12.6,15.4,11.8,15.2z M29,24.2 c0-6.3,0-12.5,0-18.8c0,0.1-0.1,0.1-0.1,0.1c-2.1,3.7-4.2,7.4-6.4,11c-0.1,0.1,0,0.2,0,0.3c1.3,1.5,2.6,3,3.9,4.5 C27.3,22.3,28.2,23.2,29,24.2z M11,34.6C11,34.6,11,34.6,11,34.6c0.2-0.2,0.3-0.4,0.4-0.6c2-3.5,4-7,6.1-10.5c0.1-0.1,0.1-0.2,0-0.3 c-2.1-2.4-4.2-4.9-6.3-7.3c0,0-0.1-0.1-0.1-0.1C11,22.1,11,28.3,11,34.6z M11.8,35.1C11.9,35.1,11.9,35.1,11.8,35.1 c5.4-3.1,10.8-6.2,16.3-9.4c-0.2,0-0.3-0.1-0.4-0.1c-3.1-0.6-6.1-1.2-9.2-1.8c-0.2,0-0.2,0-0.3,0.1c-1.8,3.2-3.7,6.4-5.5,9.6 C12.4,34.1,12.1,34.6,11.8,35.1z M28.1,4.9C28.1,4.9,28.1,4.9,28.1,4.9c-5.4,3.1-10.8,6.2-16.3,9.3c0.1,0,0.1,0,0.1,0 c0.7,0.1,1.5,0.3,2.2,0.4c2.4,0.5,4.8,0.9,7.2,1.4c0.2,0,0.3,0,0.4-0.2c1.6-2.7,3.1-5.5,4.7-8.2C27,6.8,27.6,5.9,28.1,4.9z M38.1,19.3c-2.7-4.7-5.4-9.3-8-13.9c0,0,0,0,0,0c0,0.1,0,0.2,0,0.2c0,3.9,0,7.9,0,11.8c0,0.4-0.1,0.3,0.3,0.3 c1.9,0.4,3.8,0.7,5.7,1.1C36.7,19.1,37.3,19.2,38.1,19.3z M10,34.6c0-0.1,0-0.1,0-0.1c0-4,0-8.1,0-12.1c0-0.1,0-0.2-0.2-0.2 c-2.3-0.4-4.5-0.9-6.8-1.3c-0.4-0.1-0.7-0.1-1.1-0.2C4.6,25.3,7.3,30,10,34.6z M16.9,10.2c3.6-2.1,7.1-4.1,10.7-6.2 c-5.4,0-10.7,0-16.1,0C13.4,6.1,15.1,8.2,16.9,10.2z M23.1,29.8c-3.6,2.1-7.1,4.1-10.8,6.2c5.4,0,10.7,0,16.1,0 C26.6,33.9,24.9,31.8,23.1,29.8z M10,5.4C10,5.4,10,5.4,10,5.4c-2.6,4.4-5.1,8.8-7.7,13.2c0.1,0,0.1,0,0.1,0 c2.4-1.4,4.9-2.8,7.3-4.2C10,14.3,10,14.2,10,14c0-2.8,0-5.6,0-8.4C10,5.6,10,5.5,10,5.4z M37.7,21.4C37.7,21.4,37.6,21.4,37.7,21.4 c-0.1,0-0.1,0-0.1,0c-2.5,1.4-4.9,2.9-7.4,4.3C30,25.8,30,25.9,30,26c0,2.8,0,5.6,0,8.4c0,0.1,0,0.1,0,0.3 C32.6,30.2,35.1,25.8,37.7,21.4z M16.1,10.7c-1.7-2-3.4-3.9-5.1-5.9c0,3,0,5.9,0,8.8C12.7,12.7,14.4,11.7,16.1,10.7z M29,26.3 c-1.7,1-3.4,2-5.1,3c1.7,2,3.4,3.9,5.1,5.9C29,32.2,29,29.3,29,26.3z M10,15.3c-2.6,1.5-5.1,2.9-7.7,4.4c2.6,0.5,5.1,1,7.7,1.5 C10,19.3,10,17.3,10,15.3z M30,24.7c2.6-1.5,5.1-2.9,7.7-4.4c-2.6-0.5-5.1-1-7.7-1.5C30,20.7,30,22.7,30,24.7z"/>
</svg>