<!-- (c) Carrd Inc. All rights reserved. All logos and trademarks are property of their respective owners. -->
<svg xmlns="http://www.w3.org/2000/svg" id="icon">
<path d="M3.5,25c0-1.3,0-2.6,0-4c0.7,0,1.3,0,2,0c0-1.3,0-2.7,0-4c0.7,0,1.3,0,2,0c0-1.3,0-2.7,0-4c0.7,0,1.3,0,2,0c0-1.3,0-2.6,0-4 c0.7,0,1.3,0,2,0c0-0.1,0-0.1,0-0.2c0-1.2,0-2.4,0-3.6c0-0.1,0-0.1,0-0.2c8,0,15.9,0,23.9,0c0,0.7,0,1.3,0,2c-0.1,0-0.1,0-0.2,0 c-0.5,0-1.1,0-1.6,0c-0.1,0-0.1,0-0.2,0c0,0.7,0,1.3,0,2c-0.7,0-1.3,0-2,0c0,0.7,0,1.3,0,2c-0.7,0-1.3,0-2,0c0,0.1,0,0.1,0,0.2 c0,0.6,0,1.1,0,1.7c0,0.1,0,0.2-0.2,0.2c-0.6,0-1.1,0-1.7,0c-0.1,0-0.1,0-0.2,0c0,0.7,0,1.3,0,2c2,0,4,0,6,0c0,0.7,0,1.3,0,2 c-0.7,0-1.3,0-2,0c0,0.7,0,1.3,0,2c-0.7,0-1.3,0-2,0c0,0.7,0,1.3,0,2c-0.7,0-1.3,0-2,0c0,0.7,0,1.3,0,2c-0.7,0-1.3,0-2,0 c0,0.7,0,1.3,0,2c-0.7,0-1.3,0-2,0c0,0.7,0,1.3,0,2c-0.7,0-1.3,0-2,0c0,0.7,0,1.3,0,2c-0.7,0-1.3,0-2,0c0,0.7,0,1.3,0,2 c-0.7,0-1.3,0-2,0c0,0.7,0,1.3,0,2c-0.7,0-1.3,0-2,0c0,0.7,0,1.3,0,2c-0.7,0-1.3,0-2,0c0,0.7,0,1.3,0,2c-0.7,0-1.3,0-2,0 c0,0.1,0,0.3,0,0.4c0,0.5,0,1.1,0,1.6c-0.7,0-1.4,0-2,0c0-0.1,0-0.1,0-0.2c0-0.6,0-1.1,0-1.7c0-0.1,0-0.1,0-0.2c0.7,0,1.3,0,2,0 c0-1.3,0-2.6,0-4c0.7,0,1.3,0,2,0c0-1.3,0-2.7,0-4c0.7,0,1.3,0,2,0c0-1.3,0-2.6,0-4c-0.1,0-0.1,0-0.2,0c-3.8,0-7.7,0-11.5,0 C3.7,25.1,3.6,25.1,3.5,25z"/>
</svg>