<!-- (c) Carrd Inc. All rights reserved. All logos and trademarks are property of their respective owners. -->
<svg xmlns="http://www.w3.org/2000/svg" id="icon">
<path d="M25.1,26.1H7.5c-2.4,0-4.3-2-4.3-4.4c0-2.4,1.9-4.3,4.3-4.3c1.1,0,2.2,0.8,3,1.6c0.5,0.5,1.3,0.5,1.8,0 c0.5-0.5,0.5-1.3,0-1.8c-0.9-0.9-2-1.9-3.2-2.2c1.2-2.7,3.9-4.7,7-4.7c4.2,0,7.6,3.7,7.6,7.9c0,0.8-0.5,1.8-0.7,2.6 c-0.2,0.7,0.1,1.4,0.8,1.6c0.1,0,0.3,0.1,0.4,0.1c0.5,0,1-0.3,1.2-0.9c0.2-0.5,0.6-1.2,0.7-1.8c1.2,0.5,2.2,1.6,2.2,3 C28.4,24.6,26.9,26.1,25.1,26.1L25.1,26.1z M26.3,17.2c-0.5-5.2-4.9-9.3-10.2-9.3c-4.4,0-8.3,2.8-9.7,7c-3.3,0.5-5.9,3.4-5.9,6.8 c0,3.8,3.1,6.8,6.9,6.8h17.6c3.2,0,5.8-2.4,5.8-5.6C30.9,20.1,28.9,17.8,26.3,17.2L26.3,17.2z M33.4,17.5c-0.4-0.6-1.2-0.8-1.8-0.3 c-0.6,0.4-0.7,1.2-0.3,1.8c0.8,1.2,1.4,2.5,1.4,3.9c0,1.4-0.6,2.8-1.4,3.9c-0.4,0.6-0.2,1.4,0.3,1.8c0.2,0.2,0.5,0.2,0.7,0.2 c0.4,0,0.8-0.2,1.1-0.6c1.1-1.6,1.6-3.5,1.6-5.4C35.1,20.9,34.5,19.1,33.4,17.5L33.4,17.5z M35.3,15c-0.6,0.4-0.7,1.2-0.4,1.8 c1.2,1.8,2,3.9,2,6.1s-0.8,4.3-2,6.1c-0.4,0.6-0.2,1.4,0.4,1.8c0.2,0.1,0.5,0.2,0.7,0.2c0.4,0,0.8-0.2,1.1-0.6 c1.5-2.2,2.3-4.8,2.3-7.5s-0.8-5.3-2.3-7.5C36.7,14.8,35.9,14.6,35.3,15L35.3,15z"/>
</svg>