<!-- (c) Carrd Inc. All rights reserved. All logos and trademarks are property of their respective owners. -->
<svg xmlns="http://www.w3.org/2000/svg" id="icon">
<path d="M33.7,8.9C33.6,8.9,33.5,9,33.5,9l-6.7,8.6l0.4,0.2c0.6,0.3,1.1,0.5,1.6,0.8l2.2,1.1c0.9,0.4,1.7,0.8,2.6,1.3 c0.4,0.2,1,0.5,1,1.1c0.1,0.6-0.4,1-0.8,1.3c-0.2,0.2-0.4,0.4-0.7,0.7c-2.7,3.4-5.3,6.8-8,10.2l-3.7,4.7C21,39.6,20.7,40,20.3,40 c0,0,0,0,0,0c-0.4,0-0.8-0.4-1.2-0.9l-2.8-3.4c-3-3.6-6-7.2-9-10.8c-0.4-0.4-0.8-0.8-1.2-1.1c-0.4-0.3-0.7-0.8-0.6-1.2 c0-0.5,0.4-0.9,0.9-1.1c1.8-0.9,3.5-1.8,5.4-2.8l1.8-0.9l-1.3-1.6c-1.9-2.2-3.7-4.4-5.5-6.6C6.6,9.5,6.4,9.4,6.2,9.3 C6.2,9.3,6.1,9.2,6,9.1C5.6,8.8,5.3,8.4,5.4,7.9c0-0.4,0.3-0.8,0.7-1.1l2.3-1.2c3.5-1.8,7-3.6,10.5-5.4c0.5-0.3,1.3-0.3,1.8-0.1 c3.9,1.8,7.8,3.7,11.6,5.6l1.2,0.6c0.6,0.3,1.1,0.6,1.2,1.1C34.7,7.9,34.3,8.4,33.7,8.9z M11,12l9.3,11.1l9.1-11.6l-1.6,1 c-2.3,1.4-4.5,2.8-6.8,4.2c-0.7,0.5-1.3,0.5-2.1,0c-2.1-1.3-4.2-2.5-6.2-3.7L11,12z M10.7,9.9c2.9,1.7,5.9,3.5,8.8,5.3 c0.3,0.2,0.5,0.2,0.9,0c1.4-0.9,2.7-1.7,4.1-2.6l7.8-4.9l-2.1-1c-3.3-1.6-6.6-3.2-9.9-4.8c-0.2-0.1-0.6-0.1-0.9,0.1 c-2.2,1.1-4.3,2.2-6.4,3.4L7.7,8.1L10.7,9.9z M27.6,27.2c-2.2,1.4-4.4,2.7-6.6,4.1c-0.8,0.5-1.5,0.5-2.3,0c-1.7-1.1-3.4-2.1-5.2-3.1 l-1.6-1c-0.3-0.2-0.6-0.4-0.9-0.5l9.2,11.1l9.1-11.7L27.6,27.2z M20.3,29.7c2.4-1.5,4.9-3,7.3-4.5l4.6-2.9l-6.7-3.2l0,0 c-0.1,0.1-0.2,0.2-0.3,0.3l-1,1.2c-1,1.3-2.1,2.6-3.1,4c-0.3,0.4-0.6,0.6-1,0.6c-0.3,0-0.6-0.2-0.9-0.6l-4.7-5.6l-6.9,3.6l1.7,1 c3.4,2,6.8,4,10.1,6C19.7,29.9,20.1,29.8,20.3,29.7z"/>
</svg>