<!-- (c) Carrd Inc. All rights reserved. All logos and trademarks are property of their respective owners. -->
<svg xmlns="http://www.w3.org/2000/svg" id="icon">
<path d="M32.6,33.6c-0.8-0.2-1.6-0.4-2.4-0.7c-0.8-0.4-1.4-1-2.1-1.6c-0.1-0.1-0.1-0.4-0.1-0.6c0.2,0.1,0.4,0.1,0.5,0.2 c1.5,1.5,3.2,2,5.3,1.6c0.7-0.1,1.4-0.5,1.8-1.1c0.4-0.7,0.4-1.3-0.2-1.7c-0.5-0.4-1.2-0.7-1.8-1c-0.5-0.2-1-0.4-1.5-0.6 c-0.4-0.2-0.8-0.5-0.7-1c0.1-0.5,0.4-0.7,0.9-0.8c0.9-0.2,1.7-0.6,2.2-1.4c0.5-0.7,0.4-1.3-0.4-1.6c-1.4-0.6-2.9-0.6-4.4-0.6 c-0.1,0-0.3,0.3-0.4,0.4c-0.5,1.7-0.9,3.4-1.3,5.2c-0.1,0.6-0.3,1.1-0.9,1.4c-0.7,0.2-1.2-0.1-1.6-0.6c-1.2-1.4-2.5-2.9-3.7-4.3 c-0.3-0.3-0.5-0.4-0.9-0.2c-5.9,1.9-11.4,4.7-16.6,8.1c-0.5,0.3-1,0.3-1.3,0c-0.4-0.4-0.3-0.8,0.1-1.4c0-0.1,0.1-0.1,0.1-0.2 c0.9-1.2,1.8-2.5,2.7-3.7c1.8-2.6,2.6-5.7,3.3-8.8c0.3-1.4,0.6-2.7,0.8-4.1c0-0.1,0-0.2,0.1-0.3c0.1-0.1,0.2-0.2,0.3-0.3 c0.1,0.1,0.2,0.3,0.2,0.4c0,0.5-0.1,1-0.2,1.5C10,18.1,9.7,20.6,9.1,23c-0.4,1.5-1.1,3-1.7,4.5c-0.1,0.3-0.3,0.6-0.5,1 c4-2.5,8-4.8,12.5-6.5c0-0.1-0.1-0.2-0.1-0.2c-3.6-4.2-7.5-8.2-12.2-11.3C5,9.1,2.8,7.9,0.4,7.2C0.2,7.2,0.1,7,0,6.9 c0.2-0.1,0.4-0.2,0.6-0.2c2.2,0.4,4.2,1.2,6.2,2.2c4.7,2.4,8.8,5.7,12.6,9.4c0.9,0.8,1.7,1.6,2.5,2.5c0.3,0.3,0.5,0.3,0.9,0.3 c1.7-0.3,3.5-0.5,5.2-0.7c0.2,0,0.4-0.1,0.5-0.2c0.7-1.1,1.4-2.2,2.1-3.4c0.1-0.1,0.1-0.1,0.2-0.2c0.9-1,1.8-2,2.7-3 c1.7-1.7,3.6-3,5.8-4c0.1,0,0.1-0.1,0.2-0.1c0.2,0,0.3,0,0.5,0c-0.1,0.2-0.1,0.3-0.2,0.5c-0.2,0.1-0.4,0.2-0.5,0.3 c-3.9,2.4-6.7,5.7-8.7,9.8c0,0.1,0,0.1-0.1,0.2c0.6,0.1,1.2,0.1,1.7,0.3c0.9,0.2,1.8,0.4,2.6,0.7c2.2,1,2.6,3.1,0.9,4.9 c-0.4,0.4-0.8,0.7-1.3,1.1c0.1,0.1,0.3,0.2,0.5,0.3c0.6,0.4,1.2,0.8,1.7,1.2c0.9,0.9,1,2.1,0.2,3.2c-0.6,0.8-1.4,1.2-2.4,1.5 c-0.2,0-0.4,0.1-0.6,0.1C33.3,33.6,33,33.6,32.6,33.6z M27.2,22.8c-1,0.2-1.9,0.4-2.9,0.6c0.6,0.8,1.2,1.6,1.8,2.3 C26.5,24.7,26.8,23.8,27.2,22.8z M30.7,16.6c-0.1,0.1-0.1,0.1-0.2,0.2c-1.1,1.3-2.4,2.2-4,2.6c-3.2,0.7-6.3-0.5-7.7-3.2 c-2.2-4.1,0.3-9.6,5.7-9.8c2.7-0.1,4.9,0.9,6.3,3.3c1.2,2,1.1,4.2,0.1,6.3C30.9,16.2,30.8,16.4,30.7,16.6z M29.8,13 c0-2.7-2.1-4.8-4.8-4.8c-3,0-5.1,2-5.1,4.9c0,2.7,2.1,4.8,4.9,4.8C27.7,17.8,29.8,15.8,29.8,13z"/>
</svg>