<!-- (c) Carrd Inc. All rights reserved. All logos and trademarks are property of their respective owners. -->
<svg xmlns="http://www.w3.org/2000/svg" id="icon">
<path d="M31.3,29.1c0,0.1-0.1,0.2-0.1,0.3c-0.3,0.3-0.6,0.6-0.9,0.9c-0.7,0.7-1.4,1.4-2.1,2c-0.6,0.5-1.3,1-2,1.5 c-0.2,0.2-0.4,0.3-0.6,0.5c-0.6,0.6-1.2,1-1.9,1.4C22.9,36.2,22,36.7,21,37c-0.8,0.2-1.7,0.3-2.5-0.1c-0.6-0.3-1.1-0.8-1.6-1.3 c-0.8-0.9-1.2-2-1.7-3c0-0.1-0.1-0.1-0.1-0.2c-4.3,3.3-9.2,4.8-14.5,5.2c0.6-0.1,1.1-0.3,1.7-0.4c0.9-0.3,1.8-0.7,2.5-1.3 c0.5-0.3,0.9-0.7,1.4-1.1c0.7-0.7,1.2-1.5,1.7-2.3C8,32.2,8.1,32.1,8.3,32c0.9-0.4,1.7-0.8,2.5-1.3c0.8-0.5,1.6-1.1,2.4-1.6 c0.3-0.2,0.5-0.4,0.8-0.7c0.1-0.1,0.1-0.2,0.1-0.3c-0.3-2.1-0.3-4.2-0.2-6.3c0.1-1.1,0.1-2.3,0.3-3.4c0.1-0.9,0.3-1.7,0.4-2.6 c0.2-1.5,0.5-3,0.9-4.4c0.4-1.7,1.1-3.4,1.8-5c0.6-1.4,1.4-2.7,2.3-3.9c0.7-0.9,1.6-1.7,2.6-2.2c0.5-0.3,1.1-0.3,1.6-0.4 c0.1,0,0.2,0,0.4,0c0.3,0.1,0.7,0.1,1,0.3c0.7,0.3,1.1,0.9,1.4,1.6c0.4,0.9,0.4,1.9,0.5,2.8c0.1,2.5-0.4,4.9-1.1,7.2 c-0.7,2.4-1.6,4.7-2.6,6.9c-0.9,2.1-1.8,4.1-2.7,6.2c-0.3,0.6-0.5,1.2-0.7,1.8c-0.3,0.9-0.5,1.9-0.5,2.8c0,0.9,0.3,1.8,0.9,2.6 c0.2,0.2,0.3,0.3,0.6,0.2c0.7-0.2,1.4-0.5,2-0.9c1.4-1,2.8-2.1,4-3.3c0.6-0.5,1.2-1.1,1.8-1.6c0.8-0.7,1.6-1.3,2.4-2 c0.1-0.1,0.2-0.2,0.4-0.3c0,0.1,0,0.2,0,0.2C31.4,26.1,31.4,27.6,31.3,29.1z M21.7,12.6c0.6-2.1,1.1-4.3,1.1-6.5 c0-0.4-0.1-0.8-0.2-1.3c0-0.1-0.1-0.2-0.3-0.2C22,4.8,21.7,5,21.5,5.2c-0.5,0.8-1,1.6-1.2,2.5c-0.3,1.1-0.6,2.3-0.9,3.4 c-0.3,1.2-0.5,2.3-0.7,3.5c-0.2,1.9-0.3,3.8-0.5,5.6c0,0.5,0,1,0,1.5c0,0,0,0,0.1,0c0,0,0-0.1,0.1-0.1 C19.7,18.7,20.8,15.7,21.7,12.6z"/>
</svg>