<!-- (c) Carrd Inc. All rights reserved. All logos and trademarks are property of their respective owners. -->
<svg xmlns="http://www.w3.org/2000/svg" id="icon">
<path d="M17.3,24.3c-0.1,0-0.1,0.1-0.1,0.1c0.3,0.8,0.6,1.7,0.9,2.5c0.2,0.4,0.3,0.8,0.5,1.3c0,0.1,0,0.2-0.1,0.3 c-0.3,0.3-0.6,0.6-0.9,0.9c-0.6,0.5-1.2,0.9-1.9,1.2c-0.5,0.2-1,0.3-1.5,0.4c-0.6,0.1-1.1,0.1-1.7,0c-0.8-0.1-1.6-0.3-2.3-0.7 c-0.6-0.3-1.1-0.7-1.6-1.1c-2.3-2.3-4.6-4.6-7-7c-0.7-0.7-1.1-1.5-1.4-2.4c-0.1-0.5-0.2-0.9-0.3-1.4c-0.1-1.4,0.1-2.7,0.8-3.9 c0.4-0.6,0.8-1.2,1.4-1.7c0.9-0.8,1.9-1.3,3.1-1.6c0.5-0.1,1-0.2,1.5-0.1c1.1,0,2.1,0.3,3,0.8c0.6,0.3,1.1,0.7,1.5,1.2 c0.5,0.6,1.1,1.1,1.7,1.7c0.2,0.2,0.4,0.2,0.6,0c0.6-0.6,1.2-1.2,1.7-1.7c0.7-0.7,1.6-1.3,2.6-1.6c0.5-0.2,0.9-0.2,1.4-0.3 c1.3-0.1,2.6,0.1,3.7,0.7c0.6,0.3,1.1,0.7,1.6,1.1c0.6,0.6,1.2,1.2,1.8,1.8c0.2,0.2,0.4,0.2,0.6,0c0.6-0.6,1.2-1.3,1.9-1.9 c0.6-0.6,1.4-1,2.2-1.4c0.4-0.2,0.9-0.3,1.4-0.4c0.6-0.1,1.1-0.1,1.7,0c0.8,0.1,1.6,0.3,2.3,0.7c0.7,0.4,1.4,0.9,1.9,1.5 c0.7,0.7,1.1,1.6,1.4,2.5c0.1,0.4,0.2,0.8,0.2,1.1c0,0.3,0.1,0.5,0,0.8c0,0.9-0.2,1.7-0.6,2.6c-0.3,0.6-0.6,1.1-1,1.6 c-0.1,0.1-0.2,0.2-0.3,0.3c-2.3,2.3-4.7,4.7-7,7c-0.6,0.6-1.4,1-2.2,1.3c-0.4,0.2-0.9,0.3-1.4,0.4C27.2,31,26.8,31,26.3,31 c-0.5,0-1-0.1-1.5-0.3c-0.8-0.3-1.6-0.7-2.3-1.2c-0.2-0.1-0.3-0.3-0.5-0.4c-1.5-1.5-3.1-3.1-4.6-4.6C17.4,24.4,17.4,24.4,17.3,24.3z "/>
</svg>