<!-- (c) Carrd Inc. All rights reserved. All logos and trademarks are property of their respective owners. -->
<svg xmlns="http://www.w3.org/2000/svg" id="icon">
<path d="M38.2,29.7l-15.7,6.2c-0.6,0.2-1.3-0.2-1.3-0.9V20.9c0-0.4,0.2-0.7,0.6-0.9l15.7-6.2c0.6-0.2,1.3,0.2,1.3,0.9 v14.2C38.8,29.2,38.6,29.6,38.2,29.7z M36,12.1l-14.1,5.7c-1.2,0.5-2.6,0.5-3.9,0L4,12.1c-0.8-0.3-0.8-1.4,0-1.8l14-5.9l0,0 c1.3-0.5,2.7-0.5,4,0l14,5.9C36.8,10.6,36.8,11.8,36,12.1z M17.6,21.6L17.6,21.6l-4.7,2.3l-0.5,0.2l-9.8,4.8C2,29.2,1.2,28.7,1.2,28 V14.7c0-0.3,0.1-0.5,0.3-0.6c0,0,0,0,0,0l0,0c0.1-0.1,0.2-0.1,0.2-0.2c0.2-0.1,0.6-0.2,0.9-0.1l14.9,6 C18.2,20.1,18.3,21.2,17.6,21.6z"/>
</svg>