<!-- (c) Carrd Inc. All rights reserved. All logos and trademarks are property of their respective owners. -->
<svg xmlns="http://www.w3.org/2000/svg" id="icon">
<path d="M23.4,31.7c-1.2,0-2.2-1-2.2-2.2c0-1.2,1-2.2,2.2-2.2c5.9,0,10.7-4.8,10.7-10.6c0-1.2,1-2.2,2.2-2.2 c1.2,0,2.2,1,2.2,2.2C38.5,24.9,31.7,31.7,23.4,31.7z M29.6,18.8c-1.2,0-2.2-1-2.2-2.2C27.3,10.7,22.5,6,16.7,6 c-1.2,0-2.2-1-2.2-2.2c0-1.2,1-2.2,2.2-2.2c8.4,0,15.1,6.8,15.1,15.1C31.8,17.8,30.8,18.8,29.6,18.8z M18.9,10.5 c0,1.2-1,2.2-2.2,2.2C10.7,12.8,6,17.5,6,23.4c0,1.2-1,2.2-2.2,2.2c-1.2,0-2.2-1-2.2-2.2c0-8.3,6.8-15.1,15.1-15.1 C17.9,8.3,18.9,9.3,18.9,10.5z M10.5,21.2c1.2,0,2.2,1,2.2,2.2c0,5.9,4.8,10.6,10.7,10.6c1.2,0,2.2,1,2.2,2.2c0,1.2-1,2.2-2.2,2.2 c-8.4,0-15.1-6.8-15.1-15.1C8.2,22.2,9.2,21.2,10.5,21.2z"/>
</svg>