<!-- (c) Carrd Inc. All rights reserved. All logos and trademarks are property of their respective owners. -->
<svg xmlns="http://www.w3.org/2000/svg" id="icon">
<path d="M7.5,29.4c-0.2,0-0.5,0-0.7,0c-0.2,0-0.3,0-0.5,0c-1.5-0.2-2.9-0.8-4-1.8c-1.3-1.2-2-2.6-2.2-4.3C0,23,0,22.8,0,22.6 c0-0.3,0-0.5,0-0.8c0-0.1,0-0.2,0-0.4c0.2-1.6,0.8-3,1.9-4.1c1.7-1.8,3.9-2.5,6.3-2.2c1.6,0.2,2.9,1,3.9,2.1c0,0,0,0.1,0.1,0.1 c1.2-1.3,2.7-2.1,4.5-2.3c1.8-0.2,3.4,0.2,4.8,1.2c0-0.8,0-1.7,0-2.5c-0.7,0-1.3,0-2,0c0-1,0-1.9,0-2.9c3.4,0,6.9-0.1,10.3-0.1 c0,1,0,1.9,0,2.9c-0.5,0-1.1,0-1.6,0c1,1.2,2,2.4,3,3.6c1-1.2,1.9-2.4,2.9-3.7c-0.6,0-1.1,0-1.7,0c0-1,0-1.9,0-2.9c0,0,0.1,0,0.1,0 c1.8,0,3.5,0,5.3,0c0.2,0,0.4,0,0.6,0c0.4,0,0.9,0,1.3,0c0,1,0,1.9,0,2.9c0,0,0,0-0.1,0c-0.4,0-0.9,0-1.3,0c-0.1,0-0.2,0-0.2,0.1 c-1.3,1.7-2.7,3.3-4,5c-0.3,0.4-0.6,0.7-0.8,1.1c0,0,0,0,0,0.1c1.7,2.1,3.4,4.1,5.1,6.2c0,0,0.1,0.1,0.1,0.1c0.3,0,0.5,0,0.8,0 c0.2,0,0.3,0,0.5,0c0,0,0,0.1,0,0.1c0,0.3,0,0.6,0,0.8c0,0.2,0,0.5,0,0.7c0,0.4,0,0.9,0,1.3c0,0-0.1,0-0.1,0c-2.4,0-4.7,0-7.1,0.1 c0,0-0.1,0-0.1,0c0-1,0-2,0-3c0.6,0,1.2,0,1.8,0c-1.1-1.3-2.1-2.6-3.2-3.9c-1,1.3-2.1,2.6-3.1,3.9c0.6,0,1.2,0,1.9,0c0,1,0,2,0,3 c-2.8,0-5.6,0-8.4,0.1c0-0.4,0-0.8,0-1.3c-1.5,1-3.1,1.5-4.8,1.3c-1.8-0.2-3.3-0.9-4.5-2.2c0,0,0,0,0,0c-0.1,0.1-0.1,0.1-0.2,0.2 c-1.1,1.2-2.5,1.8-4.1,2.1C7.9,29.3,7.7,29.3,7.5,29.4z M21.7,22.4c0-1-0.2-1.7-0.5-2.3c-0.8-1.5-2.4-2.3-4.2-2.1 c-1.5,0.2-2.5,1-3.1,2.3c-0.5,1-0.6,2.1-0.2,3.1c0.8,2.5,3.5,3.5,5.6,2.5C20.9,25.2,21.6,23.9,21.7,22.4z M24.6,14.1 C24.6,14.1,24.6,14.1,24.6,14.1c0,3.9,0,7.7,0.1,11.5c0,0,0,0,0,0c1.5-1.9,3.1-3.9,4.6-5.8C27.7,17.9,26.1,16,24.6,14.1z M3.1,23.4 C3.1,23.4,3.1,23.5,3.1,23.4c0.5,1.6,1.9,2.8,3.5,3c1.3,0.1,2.4-0.2,3.3-1.1c0.1-0.1,0.2-0.2,0.3-0.3c0.1-0.1,0.3,0,0.4,0 c0.1,0,0.2,0,0.4,0c0-0.1,0-0.1,0-0.1c-0.2-0.4-0.3-0.9-0.4-1.4c0-0.1-0.1-0.1-0.2-0.1c-1.9,0-3.8,0-5.6,0 C4.2,23.4,3.7,23.4,3.1,23.4z M10.5,21c0-0.2,0.1-0.4,0.1-0.6c0-0.1,0-0.1,0-0.2c-0.8-1.5-2.4-2.3-4.1-2C5,18.3,4,19.1,3.3,20.5 c-0.1,0.1-0.1,0.3-0.2,0.5C5.6,21,8.1,21,10.5,21z"/>
</svg>