<!-- (c) Font Awesome (fontawesome.io, SIL OFL) -->
<svg xmlns="http://www.w3.org/2000/svg" id="icon">
<path d="M33.19,2.86c-0.39-0.39-0.86-0.59-1.42-0.59c-0.22,0-0.42,0.03-0.59,0.08L13.8,7.71c-0.42,0.14-0.76,0.39-1.02,0.74 s-0.4,0.75-0.4,1.18v20.21c-1.21-0.54-2.55-0.82-4.01-0.82c-0.63,0-1.3,0.07-2.02,0.22c-0.72,0.15-1.44,0.37-2.16,0.67 s-1.32,0.72-1.8,1.26c-0.47,0.54-0.71,1.16-0.71,1.86s0.24,1.32,0.71,1.86c0.47,0.54,1.07,0.96,1.8,1.26s1.45,0.52,2.16,0.67 c0.72,0.15,1.39,0.22,2.02,0.22s1.3-0.07,2.02-0.22c0.72-0.15,1.44-0.37,2.16-0.67c0.72-0.3,1.32-0.72,1.8-1.26 c0.47-0.54,0.71-1.16,0.71-1.86V18.22l16.05-4.95v11.22c-1.21-0.54-2.55-0.82-4.01-0.82c-0.63,0-1.3,0.07-2.02,0.22 c-0.72,0.15-1.44,0.37-2.16,0.67s-1.32,0.72-1.8,1.26c-0.47,0.54-0.71,1.16-0.71,1.86c0,0.7,0.24,1.32,0.71,1.86 c0.47,0.54,1.07,0.96,1.8,1.26s1.45,0.52,2.16,0.67c0.72,0.15,1.39,0.22,2.02,0.22c0.63,0,1.3-0.07,2.02-0.22 c0.72-0.15,1.44-0.37,2.16-0.67c0.72-0.3,1.32-0.72,1.8-1.26c0.47-0.54,0.71-1.16,0.71-1.86V4.28C33.78,3.73,33.58,3.25,33.19,2.86z "/>
</svg>