<!-- (c) Carrd Inc. All rights reserved. All logos and trademarks are property of their respective owners. -->
<svg xmlns="http://www.w3.org/2000/svg" id="icon">
<path d="M32.7,16.4c-0.3,2.1-0.6,4.1-0.9,6.2c-0.2,1.3-0.4,2.7-0.6,4c-0.2,1.4-0.4,2.8-0.6,4.2 c-0.2,1.4-0.4,2.8-0.6,4.2c-0.2,1.3-0.4,2.5-0.6,3.8c0,0.1-0.1,0.3-0.1,0.4c0,0-0.1,0-0.1,0c-0.1-0.3-0.2-0.6-0.3-0.9 c-0.4-1.3-1-2.5-1.8-3.6c-1.3-2.1-3-4-4.7-5.7c-1.1-1-1.4-2.3-1.2-3.7c0.2-1.2,0.6-2.2,1.2-3.2c0.3-0.5,0.1-0.7-0.4-0.8 c-0.9-0.1-1.7-0.3-2.3-0.9c-0.9-0.8-1.2-1.8-1-3c0.4-2.8,0.8-5.5,1.2-8.3c0.3-2,0.6-4,0.9-6c0.1-0.8,0.3-1.6,0.4-2.4 c0.2,0,0.5,0,0.7,0C22,0.8,22.1,1,22.2,1c2.8,0.9,5.3,2.2,7.4,4.3c1.4,1.4,2.3,3,2.8,4.9C33,12.2,33,14.3,32.7,16.4z M18.4,22.2 c0.2,0.2,0.4,0.3,0.6,0.4c0.5,0.3,0.5,0.3,0.4,1c-0.2,0.8-0.4,1.7-0.4,2.6c0,1.7,0.6,3.2,1.9,4.5c2,2,3.8,4.1,5.2,6.6 c0.1,0.2,0.2,0.5,0.3,0.7c0,0-0.1,0-0.1,0c-0.4-0.5-0.7-0.9-1.1-1.4c-1.7-1.9-3.8-3.4-6-4.5c-1.6-0.8-3.2-1.4-4.9-1.9 c-0.8-0.3-1.7-0.4-2.5-0.6c-0.4-0.1-0.5-0.2-0.5-0.6c0.1-0.9,0.2-1.8,0.4-2.7c0.2-1.4,0.4-2.8,0.6-4.2c0.3-2.2,0.7-4.4,1-6.6 c0.3-2,0.6-4,0.9-6c0.2-1.6,0.5-3.2,0.7-4.8c0.1-0.3,0.2-0.5,0.6-0.5c0.9,0.1,1.7,0.2,2.6,0.3c0.2,0,0.3,0.2,0.3,0.4 c-0.3,1.8-0.5,3.5-0.8,5.3c-0.2,1.5-0.4,2.9-0.6,4.4c-0.1,0.8-0.3,1.6-0.4,2.4C16.2,19,16.7,20.8,18.4,22.2z M11.7,11.7 c-0.2,1.5-0.4,3-0.7,4.4c-0.2,1.4-0.4,2.8-0.7,4.2c-0.1,0.7-0.2,1.4-0.3,2c-0.3,2.2-0.7,4.3-0.9,6.5c-0.2,1.2,0.7,2.4,2.1,2.7 c2,0.4,3.8,1,5.7,1.8c2,0.9,3.9,2,5.6,3.5c0.2,0.2,0.4,0.3,0.6,0.5c0,0-0.1,0.1-0.1,0.1c-0.3-0.2-0.7-0.4-1-0.6 c-1.5-0.8-3.1-1.4-4.8-1.8c-3.7-0.9-7.5-1.3-11.3-1.2c-0.1,0-0.2,0-0.2,0c-0.3,0-0.4-0.2-0.4-0.5c0-0.2,0-0.5,0.1-0.7 C5.6,30,6,27.2,6.4,24.4c0.3-2,0.6-4,0.9-6C7.6,16.9,7.8,15.5,8,14c0.2-1.6,0.5-3.3,0.8-4.9c0-0.3,0.2-0.4,0.4-0.4 c0.9,0,1.7,0,2.6,0c0.3,0,0.3,0.2,0.3,0.4C11.9,10,11.8,10.9,11.7,11.7z"/>
</svg>