<!-- (c) Carrd Inc. All rights reserved. All logos and trademarks are property of their respective owners. -->
<svg xmlns="http://www.w3.org/2000/svg" id="icon">
<path d="M11.4,3.8h17.8c1.7,0,3.2,0.6,4.4,1.6l0,0l0.1,0c0.3,0.3,0.3,0.7,0.1,1l-4.9,5.1h-5.1h-4.2h-2.5 c-2.7,0-5.1,2.4-5.1,5.1V20v3.4c0,2.7,2.3,5.1,5.1,5.1h2.5h4.2h5.1l4.9,5.1c0.3,0.3,0.2,0.7-0.1,1l-0.1,0l0,0 c-1.2,1-2.7,1.6-4.4,1.6H11.4c-3.8,0-6.9-3.1-6.9-7V20v-9.3C4.5,6.9,7.6,3.8,11.4,3.8z M28.9,19.9v5.7l3.2,3.7 c1.1,1.1,2.2,0.7,2.2,0.7c1.7,0,2.2-1.6,2.2-1.6l0-8.5l0-8.7c0,0-0.5-1.6-2.2-1.6c0,0-1-0.2-2.2,0.9l-3.2,3.5V19.9z"/>
</svg>