<!-- (c) Carrd Inc. All rights reserved. All logos and trademarks are property of their respective owners. -->
<svg xmlns="http://www.w3.org/2000/svg" id="icon">
<path d="M20,38.5C9.8,38.5,1.5,30.2,1.5,20S9.8,1.5,20,1.5S38.5,9.8,38.5,20S30.2,38.5,20,38.5z M20,3.9 C11.1,3.9,3.9,11.1,3.9,20S11.1,36.1,20,36.1S36.1,28.9,36.1,20S28.9,3.9,20,3.9z M28.1,25.8L28,26.1c-0.4,1.2-1.1,2-2.3,2.4 c-0.7,0.3-1.9,0.3-2.5,0.2c-0.4-0.1-0.7-0.3-1-0.5c-0.1-0.1-0.1-0.1-0.2-0.2c-0.6-0.6-0.9-1.3-0.9-2c0-0.5,0.1-0.8,0.3-1.2 c0.3-0.6,0.7-1,1.4-1.4c0.6-0.3,1-0.4,2.3-0.6c0.7-0.2,0.9-0.2,0.9-0.3c0.1-0.2,0.1-1.3,0.1-3.8v-0.3c0-2.3,0-3.4,0-3.7L26,14.6 h-0.1c-0.3,0-8.2,1.7-8.5,1.8c-0.1,0-0.1,0.1-0.1,0.2c0,0.3,0,3.1,0,5.6v0.4c0,5.6,0,5.6-0.3,6.4c-0.1,0.3-0.3,0.6-0.4,0.6 c-0.3,0.4-0.6,0.8-1,1C15,31,14,31.2,13.2,31.2c-0.3,0-0.6,0-0.8-0.1c-0.4-0.1-0.7-0.3-1.1-0.6c-0.4-0.4-0.6-0.7-0.7-1.2 c-0.2-0.5-0.2-1.2-0.1-1.7c0.1-0.6,0.4-1,0.7-1.4c0.6-0.6,1.3-0.9,3.1-1.2c0.4-0.1,0.7-0.2,0.8-0.2s0.2-0.2,0.3-0.3 c0-0.2,0-1.6,0.1-6.4v-6.5l0.1-0.3c0.2-0.3,0.5-0.6,0.7-0.7c0.2-0.1,9.1-1.9,10.1-2c0.2,0,0.6-0.1,0.8-0.1s0.5,0.1,0.6,0.2l0.1,0.1 C28,9,28,9.2,28.1,9.4c0,0.1,0.1,0.2,0.1,8.4L28.1,25.8z"/>
</svg>