<!-- (c) Carrd Inc. All rights reserved. All logos and trademarks are property of their respective owners. -->
<svg xmlns="http://www.w3.org/2000/svg" id="icon">
<path d="M11.8,11.9c0-0.5-0.2-0.9-0.5-1.2c-0.3-0.3-0.7-0.5-1.2-0.5c-0.5,0-1,0.2-1.4,0.5S8,11.4,8,11.9c0,0.5,0.2,0.9,0.6,1.2 s0.9,0.5,1.4,0.5c0.5,0,0.9-0.2,1.2-0.5C11.6,12.8,11.8,12.4,11.8,11.9L11.8,11.9z M25.6,21.3c0-0.3-0.2-0.7-0.5-0.9 c-0.3-0.3-0.7-0.4-1.2-0.4c-0.3,0-0.6,0.1-0.9,0.4c-0.3,0.3-0.4,0.6-0.4,0.9c0,0.3,0.1,0.7,0.4,0.9c0.3,0.3,0.6,0.4,0.9,0.4 c0.5,0,0.9-0.1,1.2-0.4C25.4,22,25.6,21.7,25.6,21.3z M21.2,11.9c0-0.5-0.2-0.9-0.5-1.2c-0.3-0.3-0.7-0.5-1.2-0.5 c-0.5,0-1,0.2-1.4,0.5s-0.6,0.7-0.6,1.2c0,0.5,0.2,0.9,0.6,1.2s0.9,0.5,1.4,0.5c0.5,0,0.9-0.2,1.2-0.5S21.2,12.4,21.2,11.9 L21.2,11.9z M33,21.3c0-0.3-0.2-0.7-0.5-0.9c-0.3-0.3-0.7-0.4-1.2-0.4c-0.3,0-0.6,0.1-0.9,0.4c-0.3,0.3-0.4,0.6-0.4,0.9 c0,0.3,0.1,0.7,0.4,0.9s0.6,0.4,0.9,0.4c0.5,0,0.9-0.1,1.2-0.4C32.8,22,33,21.7,33,21.3z M28,13.9c-0.4,0-0.8-0.1-1.3-0.1 c-2.1,0-4,0.5-5.8,1.4c-1.8,1-3.1,2.2-4.2,3.9c-1,1.6-1.5,3.4-1.5,5.3c0,1,0.1,1.9,0.4,2.8c-0.4,0-0.9,0.1-1.3,0.1 c-0.3,0-0.6,0-0.9,0c-0.3,0-0.6-0.1-1-0.1c-0.4-0.1-0.7-0.1-0.8-0.1c-0.2,0-0.5-0.1-1-0.2c-0.5-0.1-0.8-0.2-0.9-0.2L5,29.1L6.4,25 C2.8,22.5,1,19.5,1,15.9c0-2.1,0.6-4,1.8-5.8S5.6,7,7.7,6s4.3-1.5,6.8-1.5c2.2,0,4.2,0.4,6.2,1.2s3.6,1.9,4.9,3.4 C26.8,10.6,27.6,12.2,28,13.9L28,13.9z M39,24.4c0,1.4-0.4,2.8-1.3,4.2c-0.8,1.3-2,2.5-3.4,3.6l1,3.4l-3.7-2 c-1.9,0.5-3.2,0.7-4.1,0.7c-2.1,0-4-0.4-5.8-1.3c-1.8-0.9-3.1-2.1-4.2-3.6c-1-1.5-1.5-3.1-1.5-4.9c0-1.8,0.5-3.4,1.5-4.9 c1-1.5,2.4-2.7,4.2-3.6c1.8-0.9,3.7-1.3,5.8-1.3c2,0,3.9,0.4,5.6,1.3c1.8,0.9,3.2,2.1,4.2,3.6S39,22.6,39,24.4z"/>
</svg>