<!-- (c) Carrd Inc. All rights reserved. All logos and trademarks are property of their respective owners. -->
<svg xmlns="http://www.w3.org/2000/svg" id="icon">
<path d="M0.3,15.5C0.1,15.6,0,15.9,0,16.1l0,0v0c0,0.1,0,0.2,0.1,0.3l0,0l3.8,8.7c0.2,0.4,0.6,0.6,1,0.4l0,0 c2.5-0.9,11.2-3.7,16.8-2.2l0,0c0,0-5.6,0.3-10.7,4.3l0,0c-0.3,0.2-0.4,0.6-0.2,1l0,0c0.4,0.9,1.2,2.8,1.7,3.9l0,0l0.7,1.5 c0.2,0.4,0.7,0.4,0.9,0.1l0,0c1.2-1.8,3.2-2.7,5.1-3.5l0,0c2-0.8,4-1.4,6.1-1.7l0,0c2.2-0.4,4.5-0.5,6.8-0.3l0,0 c0.4,0,0.7-0.2,0.8-0.6l0,0l1.7-5.5c0.1-0.3,0-0.7-0.3-0.9l0,0c-1.9-1.4-9.6-6.1-23-4.2l0,0c0,0,11.5-6.6,26,0.6l0,0 c0.4,0.2,1,0,1.1-0.5l0,0l1.5-4.9c0-0.1,0-0.2,0-0.2l0,0v0c0-0.3-0.2-0.5-0.4-0.7l0,0c-1.8-1-8-4.1-16.5-4.1l0,0 C16.6,7.7,8.7,9.5,0.3,15.5"/>
</svg>