<!-- (c) Carrd Inc. All rights reserved. All logos and trademarks are property of their respective owners. -->
<svg xmlns="http://www.w3.org/2000/svg" id="icon">
<path d="M40,20.6c-0.8,0-1.6,0-2.3,0c-0.3,0-0.7,0-1,0c0,1.3,0,2.5,0,3.7c-0.6,0-1.1,0-1.6,0c0-1.2,0-2.4,0-3.7c-1.1,0-2.2,0-3.3,0 c0-0.5,0-1,0-1.5c1.1,0,2.2,0,3.3,0c0-1.3,0-2.5,0-3.7c0.6,0,1.1,0,1.6,0c0,1.2,0,2.4,0,3.7c1.2,0,2.3,0,3.4,0 C40,19.6,40,20.1,40,20.6z M19.2,39.7c0-1.2,0-2.5,0-3.7c-1.1,0-2.2,0-3.3,0c0-0.5,0-1,0-1.5c1.1,0,2.2,0,3.3,0c0-1.3,0-2.5,0-3.7 c0.5,0,1.1,0,1.6,0c0,1.2,0,2.4,0,3.7c1.1,0,2.2,0,3.3,0c0,0.5,0,1,0,1.5c-1.1,0-2.2,0-3.3,0c0,0.4,0,0.7,0,1.1c0,0.9,0,1.8,0,2.7 C20.3,39.7,19.7,39.7,19.2,39.7z M0,19.3c1.1,0,2.2,0,3.3,0c0-1.2,0-2.4,0-3.6c0.4,0,0.8,0,1.2,0c0,0.3,0,0.6,0,0.8 c0,0.8,0,1.6,0,2.4c0,0.3,0.1,0.4,0.4,0.4c1,0,1.9,0,2.9,0c0,0.4,0,0.7,0,1.1c-1.1,0-2.1,0-3.3,0c0,1.2,0,2.4,0,3.6 c-0.4,0-0.8,0-1.2,0c0-1.2,0-2.4,0-3.5c-1.1,0-2.2,0-3.3,0C0,20.1,0,19.7,0,19.3z M20.6,0.3c0,1.2,0,2.4,0,3.6c1.1,0,2.2,0,3.3,0 c0,0.4,0,0.7,0,1.1c-1.1,0-2.2,0-3.3,0c0,1.2,0,2.4,0,3.6c-0.4,0-0.8,0-1.2,0c0-1.2,0-2.4,0-3.6c-1.1,0-2.2,0-3.3,0 c0-0.4,0-0.7,0-1.1c1.1,0,2.2,0,3.3,0c0-1.2,0-2.5,0-3.7C19.8,0.3,20.2,0.3,20.6,0.3z M26.6,21c-1.8,0-3.6,0-5.4,0c0,2,0,4,0,5.9 c-0.7,0-1.5,0-2.2,0c0-2,0-3.9,0-5.9c-1.8,0-3.6,0-5.5,0c0-0.7,0-1.4,0-2.1c1.8,0,3.6,0,5.4,0c0-2,0-4,0-6c0.8,0,1.5,0,2.2,0 c0,2,0,3.9,0,5.9c1.8,0,3.6,0,5.5,0C26.6,19.6,26.6,20.2,26.6,21z M10.6,28.6c1.7,0,3.3,0,4.9,0c0,0.5,0,1.1,0,1.6 c-1.6,0-3.2,0-4.9,0c0,1.8,0,3.6,0,5.4c-0.7,0-1.3,0-1.9,0c0-1.8,0-3.5,0-5.3c-1.7,0-3.3,0-4.9,0c0-0.6,0-1.1,0-1.6 c1.6,0,3.2,0,4.9,0c0-1.8,0-3.6,0-5.3c0.6,0,1.2,0,1.9,0C10.6,25,10.6,26.8,10.6,28.6z M31.3,28.6c1.7,0,3.3,0,4.9,0 c0,0.5,0,1.1,0,1.6c-1.6,0-3.2,0-4.9,0c0,1.8,0,3.6,0,5.4c-0.6,0-1.2,0-1.9,0c0-1.8,0-3.5,0-5.3c-1.7,0-3.3,0-4.9,0 c0-0.6,0-1.1,0-1.6c1.6,0,3.2,0,4.9,0c0-1.8,0-3.6,0-5.3c0.6,0,1.2,0,1.9,0C31.3,25,31.3,26.8,31.3,28.6z M31.3,9.4 c1.7,0,3.3,0,4.9,0c0,0.6,0,1.1,0,1.6c-1.6,0-3.2,0-4.9,0c0,1.8,0,3.6,0,5.3c-0.6,0-1.2,0-1.9,0c0-1.8,0-3.5,0-5.3 c-1.7,0-3.3,0-4.9,0c0-0.6,0-1.1,0-1.6c1.6,0,3.2,0,4.9,0c0-1.8,0-3.6,0-5.3c0.7,0,1.3,0,1.9,0C31.3,5.9,31.3,7.6,31.3,9.4z M8.8,16.4c0-1.8,0-3.5,0-5.3c-1.7,0-3.3,0-5,0c0-0.6,0-1.1,0-1.6c1.6,0,3.3,0,4.9,0c0-1.8,0-3.6,0-5.3c0.6,0,1.2,0,1.8,0 c0,1.8,0,3.5,0,5.3c1.7,0,3.3,0,5,0c0,0.6,0,1.1,0,1.6c-1.6,0-3.3,0-5,0c0,1.8,0,3.6,0,5.4C10,16.4,9.4,16.4,8.8,16.4z"/>
</svg>