<!-- (c) Carrd Inc. All rights reserved. All logos and trademarks are property of their respective owners. -->
<svg xmlns="http://www.w3.org/2000/svg" id="icon">
<path d="M39.7,14.3c-1.4,0.9-2.1,2.2-2.5,3.7c-0.4,1.5-0.7,3-1,4.5c-0.5,2.7-1.6,5.1-3.2,7.3c-2.6,3.5-5.9,5.9-10.1,7 c-1.2,0.3-2.3,0.5-3.6,0.6c-2.7,0.2-5.4-0.1-8-1.1c-0.1,0-0.1,0-0.2-0.1c0,0,0,0,0,0c0.5-0.1,0.9-0.2,1.4-0.3 c2.4-0.5,4.5-1.6,6.4-3.1c1.2-1,2.2-2.1,3.1-3.4c0.2-0.3,0.4-0.6,0.5-0.9c0.1-0.4-0.1-0.6-0.5-0.6c-0.5,0-1,0-1.5,0 c-1.8,0.2-3.6,0.2-5.4-0.5c-1.1-0.4-2.1-1.1-2.9-1.9c-1.3-1.1-2.3-2.4-3.4-3.8c1.7-0.4,3.3-0.6,5-0.8c-0.1,0-0.2-0.1-0.3-0.1 c-2.2-0.6-4.2-1.5-6.1-2.7c-1.2-0.8-2.2-1.7-3-2.9c-0.1-0.1-0.1-0.2-0.2-0.3c1.7-0.5,3.4-0.3,5.2-0.3c0,0,0,0,0-0.1 c-0.1-0.1-0.2-0.2-0.4-0.2c-1.8-1.2-3.7-2.4-5.5-3.6c-1.1-0.8-2.1-1.7-2.9-2.8C0.4,7.6,0.2,7.1,0,6.7c0,0,0-0.1,0-0.2 c0.4,0,0.8,0.1,1.2,0.1C2.4,6.8,3.7,7,4.9,7.2c5.9,1.2,11.3,3.4,16.1,7c1.6,1.2,3.1,2.6,4.5,4.1c0.2,0.2,0.5,0.5,0.8,0.6 c0.4,0.3,0.7,0.2,1-0.1c0.3-0.3,0.6-0.7,0.8-1.1c0.7-1,1.4-2,2.3-2.8c1.2-1,2.7-1.6,4.3-1.7c1.7-0.1,3.3,0,4.9,0.4c0,0,0,0,0,0 c0.1,0.1,0.3,0.2,0.4,0.3C39.9,14.1,39.8,14.2,39.7,14.3z M34.4,14.7c-0.6,0-1,0.5-1,1c0,0.5,0.4,1,1,1c0.6,0,1-0.4,1-1 C35.4,15.2,35,14.7,34.4,14.7z M26.8,17.5c-0.1-0.1-0.2-0.1-0.3-0.2c-0.7-0.7-1.4-1.5-2.2-2.2c-1.4-1.3-2.9-2.5-4.5-3.5 c-1.2-0.8-2.1-1.9-2.8-3.2c-0.9-1.9-1.5-3.8-2-5.9c0,0,0-0.1,0-0.2c1,0.5,2,1,2.9,1.6c1.8,1.1,3.6,2.3,5,3.9c2,2.3,3.4,5,4,8.1 c0.1,0.4,0,0.8,0,1.2C27,17.3,26.9,17.4,26.8,17.5z"/>
</svg>