<!-- (c) Carrd Inc. All rights reserved. All logos and trademarks are property of their respective owners. -->
<svg xmlns="http://www.w3.org/2000/svg" id="icon">
<path d="M5.8,22.7c0.5-0.5,1-1,1.5-1.5c1.6-1.6,3.1-3.1,4.7-4.7c1.8-1.8,3.6-3.5,5.3-5.3c0.4-0.4,0.8-0.8,1.1-1.1 c0.2-0.2,0.2-0.2,0-0.4c-1.4-1.3-2.7-2.7-4-4c-0.5-0.5-1-1-1.5-1.6c0,0-0.1-0.1-0.1-0.2c0.3-0.3,0.6-0.6,0.9-0.9 c1-1,1.9-1.9,2.9-2.9C16.8,0,16.9,0,17,0.1c4.3,4.3,8.7,8.7,13,13c1.3,1.3,2.6,2.6,3.9,3.9c0.1,0.1,0.1,0.1,0.2,0.3 c-0.4,0.4-0.8,0.7-1.1,1.1c-1.3,1.3-2.6,2.6-3.8,3.8c-2.2,2.2-4.4,4.4-6.6,6.6c-0.4,0.4-0.8,0.8-1.2,1.2c-0.2,0.2-0.2,0.2,0,0.5 c0.8,0.8,1.6,1.6,2.5,2.5c1,1,2.1,2.1,3.1,3.1c0,0,0.1,0.1,0.1,0.1c-1.3,1.3-2.6,2.6-3.9,3.9C17.4,34.2,11.6,28.5,5.8,22.7z M17.4,25.9c0.2-0.1,0.4-0.2,0.6-0.4c1.1-1.1,2.2-2.2,3.3-3.3c1.4-1.4,2.8-2.8,4.2-4.2c0.4-0.4,0.4-0.7,0.1-1.1 c-0.8-0.8-1.6-1.6-2.4-2.4c-0.1-0.1-0.2-0.2-0.4-0.3c-0.4-0.2-0.6,0-0.9,0.3c-0.8,0.8-1.6,1.6-2.4,2.4c-1.1,1.1-2.2,2.1-3.2,3.2 c-0.6,0.6-1.2,1.2-1.8,1.9c-0.3,0.3-0.3,0.7,0,1c0.8,0.8,1.7,1.7,2.5,2.5C17,25.7,17.2,25.8,17.4,25.9z"/>
</svg>