<!-- (c) Carrd Inc. All rights reserved. All logos and trademarks are property of their respective owners. -->
<svg xmlns="http://www.w3.org/2000/svg" id="icon">
<path d="M37,16.9c-0.1,0.8-0.1,1.6-0.3,2.4c-0.5,2.5-1.5,4.7-3.4,6.4c-1.7,1.7-3.8,2.4-6.2,2.1c-1.1-0.2-2.2-0.6-3.2-1.2 c-1.1-0.6-2.3-1.3-3.4-2c-0.1-0.1-0.2-0.1-0.3-0.2c-0.1,0.3-0.2,0.6-0.3,0.9c-0.6,1.4-1.3,2.8-2.3,3.9c-0.9,1-2,1.8-3.4,2.1 c-2.1,0.4-4-0.7-4.7-2.7c-0.7-2-0.2-3.8,1.1-5.4c1.2-1.4,2.8-2,4.6-2.3c1-0.2,2.1-0.2,3.1,0c0-0.1,0.1-0.2,0.1-0.2 c0.2-0.8,0.4-1.6,0.6-2.4c0-0.1,0-0.2-0.1-0.2c-1.9-0.8-3.4-2-4.9-3.5c-0.7-0.6-1.3-1.3-2-2c0.7-0.6,1.3-1.2,2-1.9 c0.2,0.2,0.3,0.3,0.5,0.5c0.9,0.9,1.8,1.9,2.8,2.7c0.7,0.5,1.4,1,2.2,1.4c0.1,0.1,0.2,0.1,0.4,0.2c0.1-0.3,0.3-0.7,0.4-1 c0.5-1.3,1.1-2.6,2-3.7c0.7-0.9,1.6-1.6,2.6-2c2.7-1,5.3,0.4,5.8,3.3c0.3,1.7-0.2,3.2-1.4,4.5c-1.4,1.5-3.2,2.2-5.2,2.4 c-0.8,0.1-1.6,0-2.3-0.1c-0.1,0-0.2,0-0.2,0.1c-0.2,0.9-0.4,1.7-0.7,2.6c0,0.1,0,0.2,0.1,0.3c1.3,0.7,2.5,1.5,3.8,2.2 c0.8,0.5,1.6,0.8,2.5,1c1.3,0.2,2.5-0.1,3.5-0.9c1.3-0.9,2.1-2.2,2.6-3.7c1.4-4.5,0.7-8.5-2.5-12.1c-2.4-2.6-5.4-3.8-8.9-3.8 c-3,0-5.7,1-8.1,2.7c-2.6,1.8-4.6,4.1-6.1,6.8c-1,1.8-1.8,3.8-2.1,5.9C5.3,23.9,6,27.5,8.4,30.7c1.6,2.1,3.7,3.4,6.2,4.1 c3.1,0.9,6,0.5,8.9-0.8c1.6-0.8,3.1-1.8,4.3-3.2c0,0,0.1-0.1,0.1-0.1c0.7,0.6,1.3,1.2,2,1.8c-0.6,0.7-1.3,1.3-2,1.9 c-2.4,1.9-5.1,3.1-8.2,3.5c-0.3,0-0.6,0-0.9,0.1c-0.1,0-0.3,0.1-0.4,0.1c-0.3,0-0.7,0-1,0c-0.1,0-0.1,0-0.2,0 c-2.7-0.2-5.2-1-7.4-2.5C5.8,33,3.8,29.2,3.1,24.6C3.1,24.2,3,23.7,3,23.3c0-0.6,0-1.1,0-1.7c0-0.1,0-0.1,0-0.2 c0.1-0.6,0.1-1.1,0.2-1.7c0.4-2.6,1.3-5,2.6-7.2c1.9-3.2,4.3-5.9,7.5-7.9c2.1-1.3,4.4-2.2,6.9-2.6C20.7,2,21.3,2,21.9,1.9 c0.3,0,0.7,0,1,0c0.1,0,0.3,0,0.4,0c1.9,0.1,3.7,0.5,5.4,1.4c4.4,2.2,7.1,5.7,8,10.5c0.2,0.8,0.2,1.7,0.3,2.5 C37,16.5,37,16.7,37,16.9z M17.6,23.7c-0.5,0-1,0-1.4,0c-1.3,0.1-2.4,0.4-3.4,1.3c-0.8,0.7-1.1,1.6-0.8,2.6c0.3,0.9,1,1.3,1.9,1.1 c0.5-0.1,0.9-0.4,1.3-0.8c0.8-0.8,1.3-1.7,1.8-2.7C17.2,24.8,17.4,24.3,17.6,23.7z M22.6,16.3c0.1,0,0.2,0,0.3,0 c0.5,0,1.1,0,1.6-0.1c1.2-0.2,2.2-0.6,3-1.5c0.6-0.6,0.8-1.4,0.6-2.2c-0.3-1-1-1.4-2-1.1c-0.5,0.2-1,0.5-1.4,0.9 C23.6,13.4,23.1,14.9,22.6,16.3z"/>
</svg>