<!-- (c) Carrd Inc. All rights reserved. All logos and trademarks are property of their respective owners. -->
<svg xmlns="http://www.w3.org/2000/svg" id="icon">
<path d="M30.7,27.9c0.1,0.1,0.1,0.1,0.2,0.2c1,1,2,2,3,3c0.1,0.1,0.1,0.1,0.2,0.2c0,0,0,0,0,0c-0.5,0.6-1,1.2-1.6,1.7 c-3.6,3.4-7.9,5.1-12.9,5.1c-3.1,0-6-0.8-8.7-2.5c-5-3-7.9-7.5-8.7-13.3C2.1,21.8,2,21.4,2,21c0-0.6,0-1.3,0-1.9c0-0.1,0-0.1,0-0.2 c0.1-2.1,0.6-4.1,1.4-6c3.5-8,12-12.3,20.5-10.4c3.5,0.8,6.4,2.5,8.9,5c0.4,0.4,0.8,0.9,1.2,1.3c0,0,0,0,0,0 c-0.7,0.7-1.5,1.4-2.2,2.2c-0.4,0.4-0.8,0.8-1.1,1.1C27.8,8.4,24,6.5,19.2,6.8c-3.6,0.2-6.7,1.7-9.1,4.4c-5,5.5-4.5,14,1.2,19 C17,35,25.9,34.3,30.7,27.9z M24,26.9c-1.3-1.3-2.7-2.7-4-4c-1.3,1.3-2.7,2.7-4,4c-1.2-0.7-2.2-1.7-2.9-2.9c1.3-1.3,2.7-2.7,4-4 c-1.3-1.3-2.7-2.7-4-4c0.7-1.2,1.7-2.2,2.9-2.9c1.3,1.3,2.7,2.7,4,4c1.3-1.3,2.7-2.7,4-4c1.1,0.5,2.4,1.9,2.9,2.9 c-1.3,1.3-2.7,2.7-4,4c1.3,1.3,2.7,2.7,4,4C26.1,25.2,25.2,26.2,24,26.9z"/>
</svg>