<!-- (c) Carrd Inc. All rights reserved. All logos and trademarks are property of their respective owners. -->
<svg xmlns="http://www.w3.org/2000/svg" id="icon">
<path d="M18.6,40C18.6,40,18.6,40,18.6,40c-0.1-0.1-0.2-0.1-0.3-0.1c-0.3-0.1-0.5-0.3-0.5-0.7c0-0.2,0-0.5,0-0.7 c0.1-0.2,0.2-0.4,0.4-0.5c0.2-0.1,0.4-0.2,0.6-0.3c0.4-0.2,0.8-0.5,1.1-0.8c0.3-0.3,0.7-0.7,1-1c0.1-0.1,0.2-0.2,0.2-0.3 c0.3-0.4,0.5-0.9,0.7-1.3c0-0.1,0-0.1,0-0.2c0-0.1,0-0.1-0.1-0.1c-0.1,0-0.2,0-0.2,0c-0.4,0.1-0.8,0.2-1.3,0.3 c-0.4,0.1-0.8,0.2-1.3,0.2c-0.7,0.1-1.4,0-2.1,0c-0.3,0-0.6,0-0.8,0c-0.6,0-1.2-0.1-1.9-0.2c-0.8-0.2-1.6-0.4-2.4-0.7 c-0.4-0.1-0.8-0.2-1.2-0.4c-0.5-0.2-0.9-0.5-1.4-0.7c-0.3-0.1-0.5-0.3-0.7-0.5c-0.7-0.5-1.3-1.2-1.7-1.9c-0.2-0.2-0.3-0.5-0.4-0.8 c-0.1-0.2-0.1-0.4-0.2-0.7c-0.1-0.3-0.2-0.6-0.2-1c0-0.4,0-0.7,0-1.1c0-0.2,0-0.3,0-0.5c0-0.3,0.1-0.6,0.2-0.9 c0.3-0.8,0.8-1.5,1.3-2.1c0.2-0.2,0.3-0.3,0.5-0.5c0.5-0.3,0.9-0.7,1.4-1c0.4-0.2,0.8-0.4,1.3-0.5c0.3-0.1,0.7-0.2,1-0.3 c0.4-0.1,0.9-0.2,1.3-0.2c0.6,0,1.2,0,1.9,0c0.2,0,0.5,0,0.7,0.1c0.3,0,0.6,0.1,1,0.2c0.6,0.2,1.2,0.4,1.7,0.6 c0.5,0.2,1,0.5,1.5,0.7c0.4,0.2,0.8,0.6,1.2,0.9c0.5,0.4,0.9,0.8,1.3,1.3c0.2,0.3,0.5,0.6,0.7,1c0.2,0.3,0.3,0.5,0.5,0.8 c0.3,0.5,0.5,1,0.6,1.5c0.1,0.5,0.2,1.1,0.3,1.7c0,0.2,0.1,0.5,0.1,0.7c0,0.1,0,0.1,0,0.2c0,0.1,0,0.1,0,0.2c0,0.1,0.1,0.2,0.3,0.1 c0,0,0,0,0,0c0.3-0.3,0.7-0.6,1-0.9c0.5-0.5,0.9-1,1.2-1.6c0.1-0.3,0.2-0.5,0.3-0.8c0.1-0.4,0.1-0.7,0.2-1.1 c0.1-0.7,0.1-1.5-0.1-2.2c-0.1-0.5-0.4-1-0.7-1.5c-0.5-0.6-1-1.2-1.5-1.7c-0.2-0.2-0.4-0.3-0.6-0.4c-0.6-0.3-1.2-0.7-1.8-1 c-0.3-0.2-0.6-0.3-1-0.4c-0.4-0.1-0.8-0.3-1.2-0.5c-1-0.4-2-0.8-3.1-1.1c-0.4-0.1-0.8-0.3-1.2-0.5c-0.6-0.3-1.2-0.5-1.8-0.8 c-0.2-0.1-0.3-0.2-0.5-0.3c-0.5-0.4-0.9-0.7-1.4-1.1c-0.1-0.1-0.2-0.2-0.3-0.3c-0.3-0.3-0.5-0.6-0.7-0.9c-0.3-0.5-0.5-1-0.7-1.5 C11.1,11.7,11,11.3,11,11c0-0.4,0-0.8,0-1.2c0-0.4,0.1-0.8,0.3-1.2c0.1-0.3,0.3-0.6,0.4-0.9C11.8,7.3,12,7,12.2,6.7 c0.4-0.5,0.9-1,1.3-1.4c0.1-0.1,0.2-0.2,0.3-0.3c0.2-0.2,0.5-0.3,0.7-0.5c0.4-0.2,0.7-0.4,1.1-0.5c0.8-0.3,1.6-0.5,2.4-0.7 c0.3-0.1,0.6-0.1,0.9-0.1c0.3,0,0.7,0,1,0c0,0,0.1,0,0.1,0c0,0,0.1,0,0.1,0c0.5,0,0.9,0,1.4,0c0.3,0,0.5,0,0.8,0.1 c0.1,0,0.3,0.1,0.4,0.1c0.2,0,0.4,0,0.5-0.2C24,3,24.6,2.7,25.2,2.5c0.2-0.1,0.5-0.1,0.8-0.2c0.5-0.1,1-0.2,1.5-0.2 c0.1,0,0.2,0,0.3,0c0,0,0.1,0,0.1,0c0.2,0,0.3,0,0.5,0c0,0,0.1,0,0.1,0c0.2,0,0.4,0.1,0.6,0.2c0.3,0.2,0.5,0.5,0.6,0.9 c0.1,0.3,0,0.5-0.2,0.7c-0.2,0.2-0.4,0.3-0.7,0.3c-0.2,0-0.3,0-0.5,0c-0.2,0-0.4,0-0.6,0.1c-0.4,0.1-0.8,0.3-1.2,0.4c0,0,0,0,0,0 c-0.1,0-0.1,0.1-0.2,0.1c-0.1,0-0.1,0-0.2,0c-0.1,0-0.1,0.1-0.1,0.2c0,0.1,0.1,0.2,0.1,0.2c0.1,0,0.1,0.1,0.2,0.1 c0.1,0.1,0.3,0.2,0.4,0.3c0.1,0.1,0.1,0.1,0.2,0.2c0.3,0.3,0.5,0.6,0.7,1c0.4,0.5,0.6,1.1,0.7,1.8c0.1,0.5,0,1,0,1.6 c-0.1,0.7-0.3,1.2-0.8,1.7c-0.4,0.3-0.7,0.6-1.1,0.9c-0.1,0.1-0.2,0.1-0.4,0.1c-0.2,0-0.4,0-0.6,0c-0.3,0-0.6,0-1,0 c-0.3,0-0.6-0.1-0.8-0.2c-0.3-0.2-0.5-0.3-0.8-0.5c-0.2-0.1-0.3-0.3-0.5-0.4c-0.3-0.3-0.5-0.7-0.7-1.1c-0.3-0.5-0.4-1.1-0.4-1.7 c0-0.4,0-0.7,0-1.1c0-0.1,0-0.3,0-0.4c0-0.2,0.1-0.5,0.2-0.7c0.1-0.2,0.2-0.4,0.3-0.7c0-0.1,0.1-0.2,0.1-0.3c0-0.2,0-0.2-0.2-0.3 c-0.1,0-0.2,0-0.3-0.1c-0.6,0-1.2,0-1.8,0c-0.6,0-1.1,0.1-1.6,0.3c-0.7,0.2-1.3,0.5-2,0.8c-0.5,0.2-0.8,0.5-1.2,0.9 c-0.2,0.3-0.4,0.5-0.6,0.8c-0.2,0.2-0.3,0.4-0.4,0.6c-0.3,0.7-0.4,1.4-0.3,2.1c0,0.4,0.2,0.7,0.4,1.1c0.3,0.5,0.7,0.9,1.2,1.3 c0.7,0.5,1.4,0.9,2.2,1.2c1.1,0.5,2.2,0.9,3.4,1.3c1,0.3,2,0.7,2.9,1.2c0.3,0.1,0.6,0.3,0.9,0.4c0.3,0.1,0.5,0.2,0.7,0.4 c0.5,0.3,1,0.7,1.5,1c0.3,0.2,0.6,0.4,0.9,0.7c0.4,0.3,0.7,0.6,0.9,1c0.2,0.3,0.4,0.5,0.6,0.8c0.2,0.2,0.3,0.5,0.5,0.8 c0.1,0.3,0.2,0.5,0.3,0.8c0.2,0.6,0.3,1.2,0.3,1.8c0,0.1,0,0.2,0,0.3c0,0.4,0,0.8,0,1.1c0,0.1,0,0.1,0,0.2c0,0.1,0,0.3,0,0.4 c0,0.3-0.1,0.5-0.2,0.8c-0.1,0.4-0.2,0.8-0.4,1.2c-0.1,0.3-0.3,0.6-0.4,0.8c-0.5,0.9-1.2,1.6-2,2.2c-0.6,0.4-1.1,0.8-1.7,1.1 c-0.3,0.2-0.5,0.3-0.8,0.5c-0.1,0-0.1,0.1-0.2,0.2c-0.1,0.2-0.1,0.5-0.2,0.7c-0.1,0.4-0.3,0.9-0.5,1.2c-0.1,0.2-0.2,0.4-0.4,0.7 c-0.1,0.2-0.2,0.4-0.3,0.5c-0.3,0.4-0.6,0.8-0.9,1.2c-0.4,0.5-0.8,0.9-1.3,1.3c-0.5,0.4-1.1,0.7-1.7,0.9c0,0-0.1,0-0.1,0 C18.8,40,18.7,40,18.6,40z M22.5,31.2C22.5,31.2,22.5,31.2,22.5,31.2c0-0.1,0-0.1,0-0.2c0-0.3,0-0.7-0.1-1c-0.1-0.7-0.3-1.3-0.5-2 c-0.1-0.3-0.2-0.6-0.4-0.8c-0.4-0.7-0.9-1.3-1.5-1.9c-0.5-0.5-1-0.9-1.6-1.2c-0.2-0.1-0.3-0.2-0.5-0.3c-0.4-0.2-0.9-0.4-1.3-0.5 c-0.8-0.1-1.6-0.3-2.4-0.4c-0.2,0-0.5,0-0.7,0c-0.5,0.1-0.9,0.2-1.4,0.3c-0.4,0.1-0.7,0.2-1.1,0.3c-0.8,0.3-1.5,0.9-2.1,1.6 c-0.1,0.1-0.2,0.3-0.2,0.4c-0.1,0.3-0.2,0.6-0.3,1c-0.1,0.4-0.1,0.9,0,1.3c0.1,0.4,0.2,0.8,0.4,1.1c0.1,0.2,0.3,0.4,0.4,0.5 c0.2,0.3,0.5,0.6,0.8,0.8c0.4,0.3,0.7,0.5,1.1,0.7c0.2,0.1,0.5,0.2,0.7,0.3c0.4,0.2,0.9,0.3,1.3,0.5c0.3,0.1,0.5,0.2,0.8,0.2 c0.5,0.1,1,0.1,1.5,0.2c0.4,0,0.7,0,1.1,0.1c0.4,0.1,0.9,0.1,1.3,0.1c0.3,0,0.7-0.1,1-0.1c0.2,0,0.4,0,0.6-0.1 c0.5-0.1,1-0.2,1.5-0.3c0.4-0.1,0.7-0.1,1.1-0.2c0.1,0,0.2-0.1,0.3-0.2c0,0,0.1-0.1,0.1-0.2C22.5,31.4,22.5,31.3,22.5,31.2z M24,6.5 C24,6.5,24,6.5,24,6.5c-0.1,0-0.2,0-0.2,0.1c0,0.1-0.1,0.2-0.1,0.2c-0.1,0.4-0.3,0.7-0.4,1.1c0,0.2-0.1,0.3-0.1,0.5c0,0,0,0,0,0.1 c0.1,0.4,0.1,0.7,0.2,1.1c0.1,0.2,0.2,0.4,0.3,0.7c0.1,0.2,0.3,0.3,0.4,0.4c0.1,0.1,0.3,0.2,0.4,0.2c0.1,0,0.1,0,0.2,0 c0,0,0.1,0,0.1,0c0.1,0,0.3-0.1,0.4-0.1c0.2-0.1,0.3-0.2,0.3-0.4c0.1-0.2,0.1-0.5,0.2-0.8c0-0.2,0-0.3,0-0.4c0,0,0-0.1,0-0.1 c-0.1-0.4-0.2-0.9-0.5-1.2c0,0,0,0,0,0c-0.1-0.1-0.1-0.1-0.2-0.2c-0.3-0.3-0.6-0.6-0.9-0.9C24.2,6.5,24.1,6.5,24,6.5z"/>
</svg>