<!-- (c) Carrd Inc. All rights reserved. All logos and trademarks are property of their respective owners. -->
<svg xmlns="http://www.w3.org/2000/svg" id="icon">
<path d="M15.3,2.9c0.9,0,1.8,0,2.8,0C23.5,3.2,28,5,31.3,7.7c3.2,2.7,6.1,6.1,6.6,11.4c0,0.7,0,1.3,0,2c-0.5,5.3-3.1,9.1-6.4,11.7 c-3.3,2.6-7.9,4.4-13.3,4.8c-0.9,0-1.8,0-2.8,0c-3.1-0.3-5.7-1-8.1-1.8c0.5-0.8,1.3-0.6,1.9-0.4c2.1,0.6,4.6,1,7.4,0.9 c3.4-0.1,6.4-1,8.8-2.2c2.4-1.1,4.6-2.6,6.3-4.6c1.7-2,3.1-4.4,3.5-7.5c0.4-3.5-0.2-6.7-1.6-9c-3.9-6.6-12.3-10.9-23-8.9 c-0.1,2-0.1,4.4-0.1,6.7c0,0.8-0.2,1.7,0,2.2c0.1,0.5,0.5,0.5,1,0.9c0.3,0.3,0.7,0.8,0.8,1c1.8,2.9,0.2,6.5-2.2,7.6 c-3.2,1.5-7.2-0.7-7.5-4.2c0-0.4,0-0.8,0-1.3C3,15.1,4.1,13.7,5.9,13c0.2-1.2,0.5-2.6,0.8-4C7,7.8,7.1,6,7.7,5.1 c0.6-1,2.3-1.3,3.6-1.6C12.5,3.2,13.9,3,15.3,2.9L15.3,2.9z M3.9,16.5c-1.3,2.5,0.6,5.3,3.1,5.3c2.7,0,4.5-3.2,3.1-5.5 c-0.5-0.9-1.9-1.8-3.4-1.6C5.3,14.9,4.3,15.8,3.9,16.5L3.9,16.5z"/> <path d="M19.1,32c0.1-0.7,0.4-1.2,0.4-1.9c0-0.3-0.2-0.8-0.1-1.1c0-0.4,0.5-0.6,0.6-1c0-0.3-0.2-0.6-0.1-0.9 c0.1-0.3,0.5-0.5,0.5-0.8c0.1-0.6-0.7-0.9-0.6-1.4c0.4-0.9,2.3-0.5,2.5-1.7c0.1-0.7-1.1-2.2-1.6-2.8c-0.3-0.4-0.6-0.8-1-1.3 c-0.3-0.4-0.8-1-0.8-1.3c0-0.6,0.6-1.1,0.7-1.6c0.4-1.4-0.4-2.9-1-4.1c-0.8-1.8-1.7-3.4-2.9-4.7c-0.6-0.7-1.3-1.3-1.9-1.9 c0-0.1,0-0.1,0.1-0.1c0.1,0,0.1-0.1,0.1-0.1c5.2-0.1,9.2,1.1,12.4,3.3c3,2,5.8,5,6.1,9.6c0.3,4.5-2,7.8-4.5,10 C25.8,30,22.8,31.5,19.1,32L19.1,32z"/> <path d="M11.6,5.6c0.1,0,0.1,0,0.1,0.1c2.6,0.9,4.7,3.7,5.9,6.6c0.4,1,1.1,2.6,0.7,3.6c-0.1,0.4-0.8,0.8-0.8,1.3 c0,0.6,1.2,2.4,1.6,2.9c0.2,0.3,0.6,0.7,1,1.3c0.3,0.4,0.8,1.2,0.7,1.5c-0.2,0.8-2.3,0.4-2.5,1.6c-0.1,0.6,0.5,1,0.4,1.5 c-0.1,0.5-0.5,0.4-0.7,0.9c0,0.4,0.4,0.4,0.6,0.6c-0.2,0.5-0.6,0.6-0.7,1.1c-0.2,1,0.5,1.8,0.2,2.7c-0.6,1.7-4.1,1.2-6.1,0.8 c2.1-2,3.8-4.7,4-8.5c0.2-4.4-1.8-8.2-4.6-10.2C11.6,10.7,11.6,8.1,11.6,5.6z"/>
</svg>