<!-- (c) Carrd Inc. All rights reserved. All logos and trademarks are property of their respective owners. -->
<svg xmlns="http://www.w3.org/2000/svg" id="icon">
<path d="M28.6,35.6H11.8c-4.1,0-7.4-3.3-7.4-7.3v-3.1C2.4,24.3,1,22.3,1,20c0-2.3,1.4-4.3,3.4-5.1v-3.1 c0-4,3.3-7.3,7.4-7.3h16.8c4.1,0,7.4,3.3,7.4,7.3v16.5C36,32.3,32.7,35.6,28.6,35.6z M28.8,28.5l-1.4-3.6c1-1.4,1.6-3.1,1.6-4.9 c0-4.7-3.9-8.5-8.7-8.5c-4.8,0-8.7,3.8-8.7,8.5s3.9,8.5,8.7,8.5c1.8,0,3.4-0.5,4.8-1.4L28.8,28.5z M20.3,8.1 c-5.1,0-9.5,3.1-11.3,7.5H7.1c-2.5,0-4.5,2-4.5,4.5c0,2.5,2,4.5,4.5,4.5H9c1.8,4.4,6.2,7.6,11.3,7.6c2.6,0,5-0.8,7-2.2l-2-0.8 c-1.5,0.8-3.2,1.3-5,1.3c-5.7,0-10.4-4.6-10.4-10.2c0-5.7,4.7-10.2,10.4-10.2c5.7,0,10.4,4.6,10.4,10.2c0,1.9-0.5,3.6-1.4,5.1l0.8,2 c1.5-2,2.3-4.4,2.3-7.1C32.4,13.4,27,8.1,20.3,8.1z M8.4,22.7H7.1v0l-0.1,0c-1.5,0-2.6-1.2-2.6-2.7c0-1.4,1.2-2.6,2.6-2.7h1.4 c-0.2,0.9-0.3,1.8-0.3,2.7C8.1,20.9,8.2,21.8,8.4,22.7z"/>
</svg>