<!-- (c) Carrd Inc. All rights reserved. All logos and trademarks are property of their respective owners. -->
<svg xmlns="http://www.w3.org/2000/svg" id="icon">
<path d="M33.6,29.4c-6.5,0.5-12.2,3-16.8,7.7c-0.5,0.5-1,0.8-1.6,1.2c-0.3,0-0.5,0-0.8,0c-1.8-1-2-2-0.8-3.7 c4.6-6.5,10.9-10.4,18.6-12.2c2.2-0.5,3.8,0.3,4.5,2.2C37.6,26.9,36,29.3,33.6,29.4z M18.5,17.7c1.4,0.9,2.9,1.7,4.3,2.6 c0.7,0.4,0.6,0.8,0,1.2c-1.4,0.8-2.8,1.7-4.2,2.5c-0.7,0.4-1,0.3-1-0.6c0-0.8,0-1.7,0-2.5c0-0.9,0-1.7,0-2.6 C17.5,17.5,17.8,17.2,18.5,17.7z M33.3,19.5c-6.9-1.1-12.5-4.4-17.3-9.4c-0.8-0.8-1.5-1.7-2.2-2.6c-1.6-2.2-0.8-4.8,1.8-5.7 c0.1,0,0.2-0.1,0.3-0.2c0.4,0,0.8,0,1.2,0c1.3,0.4,2.2,1.3,2.9,2.5c3.3,5.6,7.9,9.4,14.1,11.5c1.3,0.4,1.9,1.3,1.7,2.4 C35.6,19.2,34.7,19.7,33.3,19.5z M11.8,32c-0.6,1.7-2.2,2.6-3.9,2.2c-1.7-0.4-3-2-2.9-3.7c0-0.5,0.2-0.9,0.4-1.4 c2.9-6,3.4-12.2,1.6-18.6c0-0.2-0.1-0.3-0.1-0.5C6.6,8.9,7,7.9,8.1,7.5c1-0.4,2,0.1,2.4,1.2c0.9,2.3,1.8,4.7,2.3,7.1 c0.5,2,0.5,4,0.7,5C13.5,25.3,13,28.7,11.8,32z"/>
</svg>