<!-- (c) Carrd Inc. All rights reserved. All logos and trademarks are property of their respective owners. -->
<svg xmlns="http://www.w3.org/2000/svg" id="icon">
<path d="M22.1,19.3c0.1,0.8-0.2,1.4-0.9,1.9c-0.7,0.5-1.4,0.5-2.1,0.1c-0.5-0.2-0.8-0.6-1-1.1s-0.2-1,0-1.5c0.2-0.5,0.5-0.9,1-1.1 c0.4-0.2,0.9-0.3,1.3-0.2s0.8,0.3,1.2,0.7C22,18.4,22.1,18.8,22.1,19.3L22.1,19.3z M24.2,18.9c-0.2-1.3-0.9-2.3-2.1-3 c-1.2-0.7-2.4-0.8-3.7-0.2c-0.8,0.3-1.4,0.9-1.9,1.6c-0.5,0.7-0.7,1.6-0.6,2.4c0,1.1,0.5,2.1,1.4,2.9c0.9,0.8,1.9,1.1,3.1,1 c1.1-0.1,2.1-0.6,2.8-1.6C24,21.1,24.3,20.1,24.2,18.9L24.2,18.9z M28.6,8.9c-0.2-0.3-0.6-0.6-1-0.8s-0.8-0.4-1.1-0.4 c-0.3-0.1-0.7-0.1-1.3-0.2c-3.6-0.6-7.1-0.6-10.5,0c-0.5,0.1-0.9,0.2-1.2,0.2s-0.6,0.2-1,0.4s-0.7,0.5-0.9,0.8 c0.4,0.3,0.8,0.6,1.4,0.8c0.6,0.2,1,0.4,1.4,0.4c0.3,0.1,0.9,0.1,1.6,0.2c2.8,0.4,5.6,0.4,8.3,0c0.8-0.1,1.3-0.2,1.7-0.2 c0.3,0,0.8-0.2,1.3-0.4C27.8,9.5,28.3,9.2,28.6,8.9L28.6,8.9z M29.7,28.1c-0.1,0.3-0.2,0.8-0.3,1.4c-0.1,0.6-0.2,1.1-0.3,1.6 c-0.1,0.4-0.3,0.8-0.5,1.3c-0.3,0.5-0.6,0.8-1.1,1c-1.1,0.6-2.2,1-3.5,1.3c-1.3,0.3-2.5,0.4-3.8,0.4c-1.2,0-2.5-0.1-3.7-0.3 c-0.6-0.1-1.1-0.2-1.5-0.3s-0.9-0.3-1.4-0.5c-0.5-0.2-1-0.5-1.4-0.8c-0.4-0.3-0.7-0.7-1-1.1c-0.3-1.2-0.7-3-1.1-5.4l0.1-0.3l0.3-0.2 c2.8,1.8,5.9,2.7,9.4,2.7c3.5,0,6.7-0.9,9.4-2.7c0.3,0.1,0.4,0.2,0.4,0.4c0,0.2,0,0.5-0.1,0.8C29.7,27.7,29.7,28,29.7,28.1 L29.7,28.1z M33.1,10.2c-0.3,2.1-1,6.1-2.1,12.2c-0.1,0.4-0.2,0.7-0.5,1c-0.3,0.3-0.5,0.6-0.8,0.7c-0.3,0.2-0.6,0.4-1,0.6 c-3.1,1.6-6.9,2.1-11.3,1.6c-3.1-0.3-5.5-1.2-7.3-2.6c-0.2-0.1-0.3-0.3-0.5-0.5s-0.2-0.4-0.3-0.6c-0.1-0.3-0.1-0.5-0.2-0.6 C9,21.9,9,21.6,9,21.3c0-0.3-0.1-0.5-0.1-0.6c-0.1-0.6-0.3-1.5-0.5-2.8c-0.2-1.2-0.4-2.2-0.5-3s-0.3-1.7-0.4-2.7 c-0.2-1.1-0.3-2-0.4-2.9c0-0.3,0.1-0.6,0.3-0.9C7.5,8,7.7,7.8,7.9,7.6C8.1,7.4,8.4,7.2,8.7,7c0.3-0.2,0.6-0.3,0.9-0.4 s0.5-0.2,0.9-0.3c1.5-0.6,3.5-1,5.8-1.2C21,4.6,25.2,4.9,28.9,6c1.9,0.6,3.3,1.3,4,2.3c0.2,0.2,0.3,0.6,0.3,0.9 C33.2,9.6,33.1,9.9,33.1,10.2z"/>
</svg>