<!-- (c) Carrd Inc. All rights reserved. All logos and trademarks are property of their respective owners. -->
<svg xmlns="http://www.w3.org/2000/svg" id="icon">
<path d="M10.6,13.1C8.3,11.8,6,10.4,3.5,9C4.3,8.6,5,8.3,5.6,8c4.6-2.1,9.1-4.3,13.7-6.4c0.4-0.2,0.9-0.2,1.2,0 C25.8,4,31,6.4,36.2,8.9c0,0,0.1,0.1,0.2,0.2c-2.3,1.3-4.6,2.7-7,4C24.7,6.7,15.3,6.8,10.6,13.1z M10,25.6c1.9,3.3,4.9,5.2,8.8,5.8 c0,2.7,0,5.3,0,8.1c-0.3-0.2-0.5-0.3-0.7-0.4c-4.5-3.2-9-6.3-13.6-9.5c-0.5-0.3-0.7-0.7-0.7-1.2C3.5,23.9,3.1,19.4,2.7,15 c-0.1-1.3-0.2-2.5-0.3-4c2.4,1.4,4.7,2.7,7.1,4.1C8,18.7,8,22.2,10,25.6z M11.6,19.8c0-4.7,3.8-8.4,8.5-8.4c4.7,0,8.4,3.8,8.4,8.5 c0,4.6-3.8,8.4-8.5,8.3C15.3,28.2,11.6,24.4,11.6,19.8z M30,25.6c1.9-3.4,2-6.9,0.6-10.5c2.3-1.4,4.6-2.7,7.1-4.1 c-0.2,1.8-0.3,3.5-0.4,5.2c-0.3,4-0.7,7.9-1,11.9c-0.1,0.8-0.3,1.3-1,1.7c-4.4,3.1-8.8,6.2-13.2,9.3c-0.2,0.1-0.4,0.3-0.8,0.5 c0-2.8,0-5.4,0-8.1C25,30.8,28.1,29,30,25.6z"/>
</svg>