<!-- (c) Carrd Inc. All rights reserved. All logos and trademarks are property of their respective owners. -->
<svg xmlns="http://www.w3.org/2000/svg" id="icon">
<path d="M33.8,29.3V20H20.2V6.4h-9.3c-1.2,0-2.2,0.4-3.1,1.3C7,8.5,6.6,9.5,6.6,10.7V20h13.6v13.6h9.3c1.2,0,2.2-0.4,3.1-1.3 C33.4,31.5,33.8,30.5,33.8,29.3z M35,10.7v18.5c0,1.5-0.5,2.8-1.6,3.9c-1.1,1.1-2.4,1.6-3.9,1.6H10.9c-1.5,0-2.8-0.5-3.9-1.6 c-1.1-1.1-1.6-2.4-1.6-3.9V10.7c0-1.5,0.5-2.8,1.6-3.9s2.4-1.6,3.9-1.6h18.5c1.5,0,2.8,0.5,3.9,1.6C34.5,7.9,35,9.2,35,10.7z"/>
</svg>