<!-- (c) Carrd Inc. All rights reserved. All logos and trademarks are property of their respective owners. -->
<svg xmlns="http://www.w3.org/2000/svg" id="icon">
<path d="M26.2,36.9c-1.7,0.6-3.6,0.8-5.4,1.2c-0.5,0-1.1,0-1.6,0C19,38,18.7,38,18.4,37.9C11,37,5.8,33,3.1,26 c-0.6-1.5-0.8-3.2-1.1-4.8c0-0.8,0-1.6,0-2.4c0.1-0.3,0.1-0.5,0.2-0.8C3.2,10.9,7,5.9,13.6,3.2c1.8-0.7,3.7-0.9,5.6-1.3 c0.5,0,1.1,0,1.6,0c0.7,0.1,1.5,0.2,2.2,0.4c7.8,1.3,14.1,7.9,14.8,15.6C38.7,26.4,34,34.1,26.2,36.9z M20,4c-8.9,0-16,7.1-16,16 c0,8.8,7.1,16,16,16C28.9,36,36,28.9,36,20C36,11.1,28.9,4,20,4z M26.9,31.1c-3,2.7-6.4,3.5-10.2,2c-3.8-1.4-5.8-4.3-6.2-8.3 c-0.2-2.1-0.2-4.2,0.3-6.2c0.9,0.9,1.7,1.8,2.5,2.7c0.1,0,0.1-0.1,0.2-0.1c0.1-5.7,2-10.6,6.1-14.6c0.3,1.6,0.5,3.2,0.9,4.8 c0.2,0.8,0.7,1.5,1.1,2.2c0.7,1.5,1.4,3,2.1,4.5c1.2-0.9,1.8-2.3,2.2-4.1c1.2,1.7,2,3.4,2.2,5.3c0.1,1.9,0,3.8-0.1,5.7 c0.5-0.2,1.1-0.5,1.8-0.8C30.1,26.3,28.8,29.3,26.9,31.1z"/>
</svg>