<!-- (c) Carrd Inc. All rights reserved. All logos and trademarks are property of their respective owners. -->
<svg xmlns="http://www.w3.org/2000/svg" id="icon">
<path d="M36.6,30.1c-0.8,0.7-1.8,1.2-2.7,1.6c-1.1,0.4-2.2,0.7-3.4,0.7c-1.9,0-3.8-0.7-5.3-1.8c0,0.5,0,1,0,1h-3.9 c0,0,0-3.9,0-6.9c0-1.4,0-2.6,0-3.1V3.4h3.9v11.1c1.4-1,3-1.6,4.7-1.8c0.3,0,0.5,0,0.7,0c5.2,0,9.4,4.4,9.3,10 C39.9,25.6,38.6,28.3,36.6,30.1z M30.6,17c-0.1,0-0.3,0-0.5,0c-1.9,0.2-3.5,1.4-4.3,3.2c-0.3,0.8-0.5,1.5-0.5,2.4 c0,0.9,0.1,1.6,0.4,2.3c0.1,0.2,0.2,0.4,0.3,0.7c0.2,0.4,0.5,0.9,1,1.2c0.4,0.3,0.8,0.7,1.3,0.9h0.1c0.4,0.2,0.8,0.3,1.4,0.4 c0.1,0,0.1,0,0.2,0c0.2,0.1,0.5,0.1,0.7,0.1c0.2,0,0.4,0,0.6,0c0.1,0,0.1,0,0.1,0c0.2,0,0.3-0.1,0.5-0.1c0.3,0,0.7-0.2,1.1-0.3 c1.2-0.5,2.1-1.5,2.6-2.7v-0.1c0.1-0.2,0.2-0.4,0.3-0.7c0-0.2,0.1-0.4,0.1-0.7c0-0.1,0-0.1,0-0.2c0-0.3,0-0.5,0.1-0.7 C36.1,19.5,33.5,17,30.6,17z M9.7,28.2c2.2,0,4.1-1.3,5-3.3h4.2c-1.1,4.3-4.8,7.4-9.2,7.4c-5.3,0-9.5-4.4-9.5-9.8 c0-5.5,4.3-9.8,9.5-9.8c4.4,0,8.2,3.2,9.2,7.6h-4.2c-0.8-2-2.7-3.4-5-3.4c-3.1,0-5.5,2.6-5.5,5.7C4.2,25.7,6.7,28.2,9.7,28.2z"/>
</svg>