<!-- (c) Carrd Inc. All rights reserved. All logos and trademarks are property of their respective owners. -->
<svg xmlns="http://www.w3.org/2000/svg" id="icon">
<path d="M38.5,23c-0.2,2.7-1.1,5.2-2.8,7.3c-1.9,2.5-4.5,4-7.5,4.8c-0.8,0.2-1.7,0.4-2.5,0.4c-0.5,0-1,0.1-1.4,0.1 c-3.4,0-6.9,0-10.3,0c-0.1,0-0.1,0-0.2,0c0-9,0-18,0-27c0.1,0,0.1,0,0.2,0c3.4,0,6.9,0,10.3,0c2.1,0,4.1,0.3,6.1,1.1 c4,1.6,6.5,4.5,7.7,8.7c0.2,0.9,0.4,1.7,0.5,2.6C38.5,21.6,38.5,22.3,38.5,23z M34.2,19.3c-0.7-2.8-2.3-4.8-4.9-6.1 c-1.7-0.8-3.6-1.2-5.5-1.2c-2.1,0-4.1,0-6.2,0c0,0-0.1,0-0.1,0c0,6.7,0,13.3,0,20c0.1,0,0.1,0,0.2,0c2,0,4.1,0,6.1,0 c0.4,0,0.9,0,1.3-0.1c0.8,0,1.5-0.2,2.3-0.4c1.5-0.4,2.9-1.1,4-2.2c2-1.9,3-4.3,3.1-7C34.6,21.4,34.5,20.3,34.2,19.3z M6,5.5 C4.7,5.5,3.5,4.3,3.5,3c0-1.3,1-2.5,2.5-2.5c1.4,0,2.5,1.1,2.5,2.5C8.6,4.5,7.3,5.5,6,5.5z M8,35.5c-1.3,0-2.6,0-3.9,0 c0-9,0-18,0-27c1.3,0,2.6,0,3.9,0C8,17.6,8,26.5,8,35.5z"/>
</svg>