<!-- (c) Carrd Inc. All rights reserved. All logos and trademarks are property of their respective owners. -->
<svg xmlns="http://www.w3.org/2000/svg" id="icon">
<path d="M19.9,2.3c0,0,0.1,0,0.1,0c1.1,0.7,2.2,1.3,3.3,2c4.1,2.4,8.1,4.8,12.2,7.2c0,8.1,0,16.1,0,24.2c-10.3,0-20.6,0-31,0 c0-0.2,0-0.3,0-0.5c0-7.8,0-15.5,0-23.3c0-0.3,0.1-0.5,0.4-0.7c3.9-2.3,7.9-4.6,11.8-7C17.8,3.6,18.8,3,19.9,2.3z M33.6,33.8 c0-0.2,0-0.4,0-0.6c0-3.4,0-6.8,0-10.3c0-3.2,0-6.4,0-9.7c0-0.2-0.1-0.5-0.2-0.6c-4.3-2.5-8.7-5-13.1-7.5C20,5,19.8,5,19.6,5.2 c-1.4,0.8-2.9,1.6-4.3,2.5c-2.9,1.6-5.7,3.3-8.6,4.9c-0.3,0.2-0.4,0.3-0.4,0.6c0,2.3,0,4.5,0,6.8c0,0.1,0,0.3,0,0.4 c3.8-1.3,7.3-0.9,10.3,2c-0.1,0.1-0.1,0.1-0.2,0.1c-1.1,0.6-2.2,1.3-3.3,1.9c-0.2-0.2-0.5-0.3-0.7-0.5c-1-0.6-2.1-0.9-3.3-0.7 c-0.5,0.1-0.9,0.3-1,0.9c-0.1,0.6,0.1,1.1,0.7,1.4c0.5,0.2,1,0.4,1.5,0.6c1.3,0.4,2.6,0.7,3.8,1.1c2.1,0.8,3.4,2.2,3.1,4.8 c-0.1,0.6-0.2,1.1-0.4,1.7C22.5,33.8,28.1,33.8,33.6,33.8z M6.3,28.9c0,0.4,0,0.9,0,1.3c0,0.4,0.1,0.8,0.4,1.1 c0.9,1.1,2,1.8,3.4,1.9c0.8,0.1,1.6,0.1,2.3-0.3c0.9-0.5,0.9-1.5,0.1-2.1c-0.2-0.2-0.5-0.3-0.7-0.4C10,29.9,8.2,29.4,6.3,28.9z"/>
</svg>