<!-- (c) Carrd Inc. All rights reserved. All logos and trademarks are property of their respective owners. -->
<svg xmlns="http://www.w3.org/2000/svg" id="icon">
<path d="M35.1,24.9c-0.6,2.6-1.6,5.1-3.1,7.4c-1.7,2.7-4,4.8-6.8,6.3c0,0-0.1,0-0.1,0.1c0,0,0,0,0,0 c-0.6-1-1.2-2-1.8-2.9c0,0,0.1,0,0.1-0.1c2.4-1.3,4.4-3.2,5.8-5.6c1.3-2,2.1-4.1,2.5-6.4c0.2-0.9,0.3-1.9,0.3-2.8c0-0.8,0-1.5,0-2.3 c-0.2-1.8-0.6-3.5-1.3-5.2c-1-2.5-2.5-4.7-4.5-6.5c-0.8-0.7-1.8-1.4-2.7-1.9c0,0-0.1-0.1-0.1-0.1c0.6-1,1.2-2,1.8-2.9c0,0,0,0,0,0 c0,0,0.1,0.1,0.1,0.1c1.6,0.9,3.1,2,4.4,3.4c1.8,1.9,3.2,4.1,4.2,6.5c0.7,1.6,1.1,3.2,1.4,4.9c0.2,1.1,0.3,2.2,0.3,3.3 C35.7,21.7,35.5,23.3,35.1,24.9z M27.9,12.6c0.9,1.6,1.5,3.4,1.8,5.2c0.2,1.2,0.3,2.4,0.2,3.6c-0.3,2.9-1.1,5.5-2.8,7.9 c-1.3,1.8-2.9,3.3-4.8,4.3c0,0,0,0-0.1,0c-0.6-1-1.1-1.9-1.7-2.9c0,0,0.1-0.1,0.1-0.1c1.1-0.6,2.1-1.3,2.9-2.3 c1.1-1.2,1.8-2.5,2.4-4.1c0.3-0.9,0.6-1.9,0.6-2.9c0.3-3.2-0.5-6.1-2.4-8.6c-0.9-1.2-2-2.2-3.3-2.9c-0.1-0.1-0.2-0.1-0.4-0.2 c0.6-1,1.1-1.9,1.7-2.9c0.3,0.2,0.6,0.3,0.9,0.5C25.1,8.7,26.7,10.5,27.9,12.6z M24.1,18.1c0.2,0.8,0.3,1.6,0.3,2.4 c-0.1,2.4-1,4.5-2.7,6.2c-0.5,0.5-1,0.9-1.6,1.2c-0.3,0.2-0.6,0.3-0.9,0.5c-0.6-0.9-1.1-1.9-1.7-2.8c0,0,0.1,0,0.1-0.1 c0.4-0.2,0.8-0.4,1.1-0.6c0.8-0.5,1.4-1.3,1.7-2.1c0.1-0.3,0.2-0.6,0.3-1c0,0,0-0.1,0-0.1c-0.1,0-0.1,0-0.1,0c-3.5,0-7.1,0-10.6,0 c-0.1,0-0.1,0-0.2,0.1c-0.6,1.1-1.8,1.7-3,1.5c-1.3-0.2-2.3-1.1-2.5-2.4c0-0.1,0-0.2-0.1-0.3c0-0.2,0-0.3,0-0.5 c0.1-0.2,0.1-0.5,0.2-0.7c0.4-1.3,1.7-2.1,3-2c1.1,0.1,1.9,0.6,2.4,1.5C10,19,10,19,10.1,19c0.9,0,1.8,0,2.7,0c2.6,0,5.3,0,7.9,0 c0.1,0,0.1,0,0.2,0c-0.2-0.9-0.6-1.7-1.2-2.4c-0.6-0.7-1.4-1.1-2.2-1.5c0.6-0.9,1.1-1.9,1.7-2.8c0,0,0,0,0,0c0.9,0.5,1.8,1,2.5,1.7 C22.9,15.1,23.7,16.5,24.1,18.1z M7.3,19.4c-0.5,0-0.9,0.4-0.9,0.9c0,0.5,0.4,0.9,0.9,0.9c0.5,0,0.9-0.4,0.9-0.9 C8.2,19.8,7.8,19.4,7.3,19.4z" />
</svg>