<!-- (c) Carrd Inc. All rights reserved. All logos and trademarks are property of their respective owners. -->
<svg xmlns="http://www.w3.org/2000/svg" id="icon">
<path d="M19.9,20.2c-2.5,0-4.7-0.9-6.4-2.7c-1.8-1.8-2.7-3.9-2.7-6.4c0-2.5,0.9-4.7,2.7-6.4S17.4,2,19.9,2s4.7,0.9,6.4,2.7 c1.8,1.8,2.7,3.9,2.7,6.4c0,2.5-0.9,4.6-2.7,6.4C24.6,19.3,22.4,20.2,19.9,20.2z M19.9,6.6c-1.2,0-2.3,0.4-3.2,1.3 c-0.9,0.9-1.3,1.9-1.3,3.2c0,1.2,0.4,2.3,1.3,3.2c0.9,0.9,1.9,1.3,3.2,1.3c1.2,0,2.3-0.4,3.2-1.3c0.9-0.9,1.3-1.9,1.3-3.2 c0-1.2-0.4-2.3-1.3-3.2C22.2,7,21.2,6.6,19.9,6.6z M30.4,21.3c0.2,0.4,0.3,0.7,0.3,1c0,0.3,0,0.6-0.1,0.8c-0.1,0.2-0.3,0.5-0.5,0.8 c-0.3,0.3-0.6,0.5-0.9,0.7s-0.7,0.5-1.2,0.8c-1.5,1-3.6,1.6-6.3,1.9l1.5,1.4l5.4,5.4c0.4,0.4,0.6,0.9,0.6,1.5c0,0.6-0.2,1.1-0.6,1.5 l-0.2,0.3c-0.4,0.4-0.9,0.6-1.5,0.6c-0.6,0-1.1-0.2-1.5-0.6c-0.9-0.9-2.7-2.7-5.4-5.4l-5.4,5.4c-0.4,0.4-0.9,0.6-1.5,0.6 c-0.6,0-1.1-0.2-1.5-0.6l-0.2-0.3c-0.4-0.4-0.6-0.9-0.6-1.5s0.2-1.1,0.6-1.5l6.8-6.8c-2.7-0.3-4.8-0.9-6.4-1.9 c-0.5-0.3-0.9-0.6-1.2-0.8c-0.3-0.2-0.6-0.5-0.9-0.7c-0.3-0.3-0.4-0.5-0.5-0.8c-0.1-0.2-0.1-0.5-0.1-0.8s0.1-0.6,0.3-1 c0.1-0.3,0.3-0.5,0.6-0.7c0.2-0.2,0.5-0.3,0.8-0.4c0.3-0.1,0.7-0.1,1.1,0c0.4,0.1,0.9,0.4,1.3,0.7c0.1,0.1,0.2,0.1,0.3,0.2 c0.1,0.1,0.4,0.3,0.9,0.5c0.4,0.2,0.9,0.4,1.4,0.6s1.1,0.3,1.8,0.5s1.5,0.2,2.3,0.2c1.2,0,2.4-0.2,3.5-0.5c1.1-0.3,1.9-0.7,2.4-1 l0.8-0.5c0.4-0.3,0.9-0.6,1.3-0.7c0.4-0.1,0.8-0.1,1.1,0c0.3,0.1,0.6,0.2,0.8,0.4C30.1,20.8,30.3,21,30.4,21.3L30.4,21.3z"/>
</svg>