<!-- (c) Carrd Inc. All rights reserved. All logos and trademarks are property of their respective owners. -->
<svg xmlns="http://www.w3.org/2000/svg" id="icon">
<path d="M35.1,25.9c-0.1,2.3-0.3,4.7-1.1,6.9c-1.4,3.8-4.7,6.3-8.6,6.2c-2.1-0.1-4-0.8-5.2-2.6c-1-1.5-1-3-0.2-4.6 c0.8-1.6,2.2-2.5,4.1-2.6c0.8,0,1.3,0.4,1.4,1.1c0.1,0.8-0.3,1.3-1.1,1.6c-0.1,0-0.2,0.1-0.3,0.1c-0.7,0.1-1.2,0.5-1.4,1.2 c-0.2,0.7,0.1,1.3,0.7,1.8c1.4,1.2,3.7,0.9,5-0.6c1.7-2,1.2-4.9-1.1-6.6c-0.9-0.7-2-0.9-3.2-1.1c-1.1-0.2-2.2-0.6-3.1-1.3 c-0.9-0.7-1.4-1.5-1.6-2.6c-0.1,0-0.1,0-0.2,0c-0.1,0.2-0.2,0.5-0.2,0.7c-0.4,1.4-0.9,2.7-1.7,3.8c-0.6,0.8-1.4,1.2-2.4,1.2 c-1.8,0.1-3.5-0.2-5.2-0.8c-3.3-1.3-5.2-3.8-5.9-7.2c-0.3-1.7-0.6-3.3-0.9-5c-0.3-1.7,0.9-3,2.6-3c2,0,4,0,6,0 c1.8,0,2.7-0.9,2.7-2.7c0-2,0.1-3.9,0-5.9C14.1,1.9,15.2,1,17,1c0.8,0,1.7,0.1,2.5,0.3c1,0.2,1.7,0.9,2.1,1.9 c0.2,0.4,0.4,0.6,0.8,0.6C24.7,4.2,27,4.5,29.2,5c3.3,0.7,4.5,2.3,5.1,5.5C35.1,15.7,35.3,20.8,35.1,25.9z M30.8,18.5 c-0.3-1-1.2-1.3-2.1-1.4c-0.8-0.1-1.7,0.3-2.1,1c-0.3,0.6-0.2,0.9,0.4,1c0.9,0.2,1.8,0.3,2.3,0.4C30.8,19.4,31,19.2,30.8,18.5z M12.9,9.4c0,1.3-0.5,1.8-1.8,1.8c-1.4,0-2.7,0-4.1,0c-0.9,0-1.7,0-2.6,0c2.8-2.9,5.6-5.7,8.5-8.6c0,1.6,0,3.3,0,4.9 C12.9,8.1,12.9,8.8,12.9,9.4z"/>
</svg>