<!-- (c) Carrd Inc. All rights reserved. All logos and trademarks are property of their respective owners. -->
<svg xmlns="http://www.w3.org/2000/svg" id="icon">
<path d="M37.8,23H27.2l7.4,7.4c-0.6,0.8-1.2,1.6-1.9,2.3h0c-0.7,0.7-1.5,1.4-2.3,1.9L23,27.2v10.5c-1,0.2-2,0.2-3,0.2h0 c-1,0-2-0.1-3-0.2V27.2l-7.4,7.4c-1.6-1.2-3.1-2.6-4.2-4.2l7.4-7.4H2.3C2.1,22,2,21,2,20v0c0-1,0.2-3,0.2-3h10.5L5.3,9.6 C5.9,8.8,6.6,8,7.3,7.3l0,0C8,6.6,8.8,5.9,9.6,5.3l7.4,7.4V2.3C18,2.1,19,2,20,2h0c1,0,2,0.1,3,0.3v10.5l7.4-7.4 c1.6,1.2,3.1,2.6,4.2,4.2L27.2,17h10.5h0v0c0.2,1,0.2,2,0.2,3v0C38,21,37.9,22,37.8,23z M24.5,20L24.5,20L24.5,20 c0-1.3-0.2-2.6-0.7-3.8c-1.2-0.4-2.5-0.7-3.8-0.7h0c-1.3,0-2.6,0.2-3.8,0.7c-0.4,1.2-0.7,2.5-0.7,3.8v0c0,1.3,0.2,2.6,0.7,3.8 c1.2,0.5,2.5,0.7,3.8,0.7h0c1.3,0,2.6-0.2,3.8-0.7C24.3,22.6,24.5,21.3,24.5,20L24.5,20z"/>
</svg>