<!-- (c) Carrd Inc. All rights reserved. -->
<svg xmlns="http://www.w3.org/2000/svg" id="icon">
<path d="M31.6,36.5H8.4c-1.7,0-3.1-1.4-3.1-3.1v-4.6c0-3.8,1.8-6.9,5.2-9c1.1-0.7,2.4-1.2,3.8-1.6 c-0.8-0.7-1.5-1.5-2-2.4c-0.8-1.3-1.2-2.9-1.2-4.4c0-4.9,4-8.9,8.9-8.9s8.9,4,8.9,8.9c0,1.6-0.4,3.1-1.2,4.4c-0.5,0.9-1.2,1.7-2,2.4 c1.4,0.4,2.7,1,3.8,1.6c3.4,2,5.2,5.1,5.2,9v4.6C34.7,35.1,33.3,36.5,31.6,36.5z M20,5.4c-3.3,0-6,2.7-6,6s2.7,6,6,6s6-2.7,6-6 S23.3,5.4,20,5.4z M8.2,28.8v4.6c0,0.1,0.1,0.2,0.2,0.2h23.2c0.1,0,0.2-0.1,0.2-0.2v-4.6c0-3-1.4-5.2-4.2-6.7 c-2-1.1-4.9-1.8-7.7-1.8C15.6,20.3,8.2,22.1,8.2,28.8z"/>
</svg>