<!-- (c) Carrd Inc. All rights reserved. All logos and trademarks are property of their respective owners. -->
<svg xmlns="http://www.w3.org/2000/svg" id="icon">
<path d="M35.4,37.4c-0.3,0-0.6,0-0.9,0c-1.7,0-3.3,0-5,0c-0.3,0-0.5-0.1-0.7-0.4c-0.9-1.4-1.8-2.7-2.6-4.1 c-2.1-3.3-5-5.7-8.4-7.6c-1.9-1-3.8-2-5.7-3.1c-2.3-1.4-4.4-3.2-6-5.4c-1.9-2.7-2.9-5.7-2.9-9.1c0-1.2,0.6-4.2,1-5.1 c0.1,0.4,0.2,0.7,0.3,1c0.6,1.9,1.6,3.6,2.7,5.2c1.6,2.5,3.9,4.3,6.4,5.8c3.4,2,6.5,4.5,9.5,7c2.3,1.8,4,4,5.7,6.4 c2.1,2.9,4.1,5.8,6.2,8.7c0.1,0.2,0.2,0.4,0.3,0.5C35.5,37.3,35.4,37.3,35.4,37.4z M30.1,25.6c-0.4,0.2-0.8,0.5-1.2,0.7 c-1.1-1.3-2.3-2.7-3.4-4c0,0,0-0.1,0-0.1c1.7-0.6,2.6-1.9,3.1-3.6c0.4-1.7,0.6-3.3-0.2-4.9c-1.2-2.4-3-3.8-5.8-3.8 c-2.6,0-5.2,0-7.9,0c-1.3,0-2.5-0.1-3.8-0.5C9.2,8.7,7.8,6.9,7.7,5.1c0-0.1,0-0.2,0-0.4c0.9,0,1.8,0,2.7,0c2.9,0,5.8-0.1,8.7,0 c2.8,0,5.6,0.3,8.3,1.1c4.2,1.2,6.5,4.1,7.4,8.2c0.5,2.5,0.3,4.9-0.6,7.2C33.3,23.1,31.9,24.5,30.1,25.6z M14.3,25.9 c1.9,0.8,3.9,1.7,5.7,2.7c2.1,1.1,3.7,2.9,5,4.9c0,0.1,0.1,0.2,0.1,0.2c0,0,0,0.1,0,0.2c-1.5-1-3.1-1.4-4.6-1.9 c-1.4-0.4-2.8-0.6-4.2-0.9c-1.7-0.3-3.4-0.6-5.1-0.9c-2.1-0.4-3.7-1.5-5.1-3.1c-1.9-2.2-2.9-4.9-3.4-7.7c-0.2-1-0.2-1.9-0.3-2.9 c0,0,0.1,0,0.1,0C2.8,16.7,3,17,3.2,17.2C5.9,21.3,9.8,23.9,14.3,25.9z M25.7,35.2c0.6,0.4,1.1,0.9,1.6,1.3c0.2,0.1,0.2,0.4,0.3,0.6 c-0.9-0.1-1.8-0.3-2.7-0.3c-2-0.1-3.9-0.2-5.9-0.3c-2,0-3.8-0.7-5.5-1.7c-1.4-0.8-2.6-1.8-3.7-2.9c-0.4-0.4-0.6-0.8-0.7-1.3 c4.1,1.1,8.4,1.6,12.4,3C23,34.1,24.5,34.4,25.7,35.2z"/>
</svg>