<!-- (c) Carrd Inc. All rights reserved. All logos and trademarks are property of their respective owners. -->
<svg xmlns="http://www.w3.org/2000/svg" id="icon">
<path d="M36.7,24H3.3c-1,0-1.8-0.8-1.8-1.8c0-10,8.2-18.3,18.4-18.3C30.1,3.9,38.5,12,38.5,22v0.2 C38.5,23.2,37.7,24,36.7,24z M26.5,8.8c-3.4-1-2,3-6.5,3c-4.5,0-3-4-6.5-3c-5.9,2.4-10,11.7-6.7,11.7c3.3,0,1.2-4.5,5.7-4.5 c4.5,0,3.5,5.2,7.5,5.2s3-5.2,7.5-5.2c4.5,0,2.4,4.5,5.7,4.5C36.5,20.5,32.4,11.2,26.5,8.8z M14.1,30.1v2.1h11.8v-2.1 c0-1.2,1-2.2,2.3-2.2h1.7v6.5c0,1-0.8,1.8-1.8,1.8H11.9c-1,0-1.8-0.8-1.8-1.8v-6.5h1.7C13.1,27.9,14.1,28.9,14.1,30.1z"/>
</svg>