<!-- (c) Carrd Inc. All rights reserved. All logos and trademarks are property of their respective owners. -->
<svg xmlns="http://www.w3.org/2000/svg" id="icon">
<path d="M34.4,28v-1.1H40V28H34.4z M34.4,24.8H40v1.1h-5.6V24.8z M32.9,14.1H40v1.1h-7.5L32.9,14.1z M33.6,12H40v1.1 h-6.7L33.6,12z M37.8,17.4h-6l0.4-1.1h5.6V17.4z M37.8,18.4v1.1h-3.3v-1l-0.4,1h-6l-0.4-1v1h-3.3v-1.1h3.3h3l0.3,0.9l0.3-0.9h3H37.8 z M24.4,16.2h5.6l0.4,1.1h-6V16.2z M22.2,14.1h7.1l0.4,1.1h-7.5V14.1z M22.2,12h6.4l0.4,1.1h-6.7V12z M17.8,22.6h3.5 c0.1,0.4,0.2,0.7,0.2,1.1h-3.6V22.6z M17.8,17.4v-1.1h3.6c0,0.4-0.1,0.8-0.2,1.1H17.8z M8.9,14.1h12c0.2,0.3,0.3,0.7,0.4,1.1H8.9 V14.1z M8.9,12h8.3c1.1,0,2.1,0.4,2.9,1.1H8.9V12z M0,26.9h7.8V28H0V26.9z M0,24.8h7.8v1.1H0V24.8z M2.2,16.2h3.3v1.1H2.2V16.2z M2.2,18.4h3.3v1.1H2.2V18.4z M5.6,23.8H2.2v-1.1h3.3V23.8z M2.2,20.5h3.3v1.1H2.2V20.5z M0,14.1h7.8v1.1H0V14.1z M0,12h7.8v1.1H0 V12z M11.1,22.6h3.3v1.1h-3.3V22.6z M11.1,21.6v-1.1h8.8c0.4,0.3,0.7,0.7,0.9,1.1H11.1z M11.1,16.2h3.3v1.1h-3.3V16.2z M19.9,19.5 h-8.8v-1.1h9.7C20.6,18.8,20.3,19.2,19.9,19.5z M20.8,25.9h-12v-1.1h12.4C21.2,25.2,21,25.5,20.8,25.9z M17.2,28l-8.3,0v-1.1H20 C19.3,27.6,18.3,28,17.2,28z M24.4,20.5h3.3v1.1h-3.3V20.5z M27.8,23.8h-3.3v-1.1h3.3V23.8z M27.8,25.9h-5.6v-1.1h5.6V25.9z M27.8,28h-5.6v-1.1h5.6V28z M33.3,21.6h-4.5l-0.4-1.1h5.2L33.3,21.6z M32.6,23.8h-3l-0.4-1.1H33L32.6,23.8z M31.8,25.9h-1.5 L30,24.8h2.3L31.8,25.9z M31.1,28l-0.4-1.1h0.8L31.1,28z M37.8,21.6h-3.3v-1.1h3.3V21.6z M37.8,23.8h-3.3v-1.1h3.3V23.8z"/>
</svg>