<!-- (c) Carrd Inc. All rights reserved. All logos and trademarks are property of their respective owners. -->
<svg xmlns="http://www.w3.org/2000/svg" id="icon">
<path d="M40,35.3c-0.1,0.2-0.2,0.5-0.5,0.5c-0.3,0-0.6,0-0.9-0.1c-0.4-0.2-0.7-0.4-1-0.6c-0.4-0.3-0.9-0.7-1.3-1.1 c-0.5-0.4-1-0.6-1.6-0.5c-0.4,0.1-0.9,0.4-1.3,0.7c-0.5,0.3-0.9,0.7-1.3,1c-0.7,0.5-1.6,0.6-2.4,0.5c-0.6-0.1-1.2-0.5-1.7-0.9 c-0.5-0.5-1-0.9-1.7-1.1c-0.4-0.2-0.9-0.2-1.3,0c-0.5,0.2-0.8,0.5-1.2,0.8c-0.4,0.3-0.7,0.6-1.2,0.9c-0.8,0.4-1.7,0.6-2.6,0.2 c-0.9-0.4-1.5-1-2.2-1.5c-0.5-0.4-1.1-0.7-1.7-0.4c-0.4,0.2-0.8,0.5-1.2,0.8c-0.5,0.3-0.9,0.7-1.5,1c-0.8,0.4-1.6,0.5-2.5,0.2 c-1-0.4-1.8-1-2.6-1.6c-0.3-0.2-0.6-0.4-0.9-0.6c-0.1-0.1-0.4-0.1-0.5,0c-0.7,0.4-1.4,0.8-2.1,1.3C4.3,35,3.7,35.4,3,35.7 c-0.6,0.2-0.8,0-1-0.4c-0.1-0.2,0.2-0.6,0.4-0.6c0.4,0,0.7-0.2,1-0.4c0.7-0.4,1.4-0.9,2-1.4c0.1-0.1,0.2-0.2,0.1-0.4 c-0.2-0.3-0.3-0.6-0.5-0.9c-0.1-0.2-0.3-0.5-0.4-0.7c-0.2-0.3-0.1-0.6,0.3-0.8C5.3,30,5.6,30,5.9,30c0.5,0,0.9,0,1.4,0c0,0,0,0,0,0 c1-0.1,2-0.2,3-0.3c0.3,0,0.6-0.1,1-0.1c1-0.1,2-0.1,3-0.2c0.6,0,1.2,0,1.8-0.1c1.1-0.1,2.2-0.2,3.3-0.2c0.1,0,0.3,0,0.4,0 c0.9-0.1,1.9-0.1,2.8-0.2c0.7,0,1.3-0.1,2-0.1c1.1-0.1,2.2-0.2,3.2-0.2c0.5,0,1,0,1.4-0.1c1-0.1,2.1-0.2,3.1-0.2c0.5,0,1,0,1.5,0 c1-0.1,1.9-0.2,2.9-0.3c0.4,0,0.7,0,0.9,0.3c0.1,0.2,0.2,0.3,0,0.5c-0.5,0.5-1.1,0.9-1.6,1.3c-0.9,0.6-1.8,1.3-2.7,1.8 c-0.5,0.4-1.1,0.7-1.7,1c-0.6,0.4-1.3,0.7-1.9,1c-0.1,0-0.2,0.1-0.3,0.1c-0.1,0-0.2,0.1-0.3,0.2c0.1,0.1,0.1,0.3,0.2,0.3 c0.3,0.1,0.6,0.1,0.9,0.1c0.7,0,1.2-0.4,1.6-0.8c0.5-0.4,1-0.9,1.6-1.2c0.7-0.3,1.4-0.5,2.2-0.2c0.7,0.3,1.3,0.7,1.9,1.2 c0.3,0.3,0.6,0.5,0.9,0.7c0.1,0.1,0.3,0.1,0.5,0.1c0.2,0.1,0.4,0.1,0.6,0.2C39.9,34.9,40.1,35.1,40,35.3z M31.1,32.1 c1.2-0.7,2.4-1.4,3.6-2.2c0.2-0.1,0.4-0.3,0.5-0.4c0.1-0.1,0.1-0.1,0.1-0.2c-0.1,0-0.2,0-0.2,0c-0.6,0.1-1.1,0.2-1.7,0.2 c-0.6,0-1.3,0-1.9,0.1c-2,0.1-4,0.3-6,0.5c-0.8,0.1-1.6,0-2.4,0.1c-0.9,0.1-1.8,0.2-2.7,0.2c-0.6,0-1.3,0-1.9,0.1 c-2,0.1-3.9,0.3-5.9,0.4c-0.8,0.1-1.5,0-2.3,0.1c-1.1,0.1-2.1,0.2-3.2,0.3c0,0,0,0,0,0c-0.3,0-0.6,0-0.8,0c-0.2,0-0.3,0.1-0.2,0.3 c0.2,0.3,0.3,0.6,0.5,0.8c0,0.1,0.2,0.1,0.2,0.1c0.6-0.2,1,0.1,1.4,0.4c1,0.6,1.7,1.5,2.8,1.9c0.5,0.2,1,0.2,1.4,0.1 c0.4-0.1,0.8-0.4,1.1-0.6c0.7-0.5,1.3-1,2.1-1.3c0.8-0.3,1.4-0.1,2.1,0.2c0.5,0.3,0.9,0.6,1.3,0.9c0.4,0.3,0.8,0.6,1.3,0.8 c0.7,0.2,1.3,0.1,1.9-0.4c0.5-0.4,1-0.8,1.5-1.1c0.5-0.4,1.1-0.6,1.7-0.6c0.9,0,1.7,0.3,2.3,0.9c0.2,0.1,0.3,0.2,0.5,0.1 c0.2-0.1,0.4-0.2,0.6-0.3C29.7,32.8,30.4,32.5,31.1,32.1z M33.3,27.4c-0.6-0.3-1.2-0.5-1.8-0.8c-0.1,0-0.2-0.1-0.3-0.1 c-0.7,0-1.4,0.1-2.1,0.1c-0.3,0-0.5-0.2-0.6-0.5c-0.2-0.8-0.5-1.5-0.7-2.3c-0.1-0.3-0.2-0.6-0.3-0.8c-0.3-0.7-0.5-1.4-0.9-2.1 c-0.6-1.3-1.1-2.5-1.8-3.7c-0.9-1.7-1.9-3.3-3.2-4.7c-0.7-0.8-1.5-1.6-2.4-2.2c-0.6-0.4-1.1-0.8-1.6-1.3c-0.2-0.1-0.3-0.3-0.3-0.5 c0-0.4,0.2-0.5,0.8-0.5c0.3,0.1,0.8,0.2,1.2,0.4c1.2,0.5,2.3,1.3,3.3,2.1c1.5,1.2,3,2.5,4.3,4c1.1,1.2,2.1,2.4,2.9,3.7 c0.5,0.9,1.1,1.8,1.6,2.7c0.5,0.8,0.9,1.7,1.3,2.5c0.3,0.6,0.5,1.1,0.7,1.7c0.2,0.5,0.4,0.9,0.5,1.4c0,0.1,0,0.3,0,0.5 C33.8,27.4,33.5,27.5,33.3,27.4z M32.5,25.6c-0.2-0.4-0.3-0.8-0.5-1.2c-0.4-0.8-0.7-1.6-1.1-2.3c-0.7-1.2-1.4-2.5-2.2-3.6 c-0.5-0.8-1.1-1.6-1.7-2.2c-1.3-1.4-2.7-2.7-4.1-4.1c-0.1-0.1-0.3-0.3-0.5-0.4c0,0,0,0-0.1,0.1c0.1,0.1,0.1,0.2,0.2,0.2 c0.4,0.5,0.9,1,1.2,1.6c0.6,0.9,1.2,1.8,1.7,2.7c0.5,0.9,0.9,1.8,1.4,2.7c0.3,0.6,0.6,1.2,0.8,1.9c0.3,0.7,0.5,1.4,0.8,2 c0.1,0.4,0.3,0.7,0.4,1.1c0.1,0.4,0.3,0.7,0.3,1.1c0.1,0.4,0.1,0.4,0.5,0.3c0.9,0,1.8-0.1,2.6,0.3c0.1,0,0.2,0,0.2,0 C32.5,25.8,32.5,25.7,32.5,25.6z M22.9,17.3c0.5,0.8,0.9,1.6,1.3,2.4c0.3,0.7,0.7,1.4,0.9,2.1c0.4,0.9,0.7,1.9,1,2.8 c0.2,0.8,0.4,1.5,0.5,2.3c0,0.4-0.3,0.7-0.7,0.6c-0.7-0.2-1.4-0.5-2.1-0.7c-0.7-0.2-1.3-0.4-2-0.5c-1-0.2-2-0.4-3.1-0.5 c-1-0.1-2,0-2.9,0c-0.2,0-0.4,0.1-0.6,0.1c-0.3,0-0.6,0.1-1,0.1c-0.6,0.1-1.2,0.3-1.8,0.5c-0.3,0.1-0.6,0.2-0.9,0.3 c-1.2,0.4-2.4,1-3.5,1.7c-0.1,0-0.2,0.1-0.2,0.1c-0.4,0.1-0.7-0.1-0.7-0.5c0.1-0.1,0.1-0.3,0.2-0.4c0.6-0.6,1.1-1.4,1.5-2.2 c0.4-0.7,0.7-1.4,1-2.2c0.1-0.3,0.2-0.6,0.3-0.9c0.1-0.5,0.3-1,0.3-1.6c0.2-0.9,0.3-1.8,0.4-2.7c0.1-1.2,0.2-2.3-0.1-3.5 c-0.2-0.7-0.2-1.4-0.4-2.1c-0.1-0.5-0.3-1-0.4-1.5c-0.1-0.4-0.2-0.7-0.4-1.1C9.4,9.4,9.2,8.8,8.9,8.2C8.5,7.3,8.1,6.5,7.7,5.7 C7.6,5.5,7.5,5.2,7.3,5c-0.2-0.3,0-0.5,0.1-0.7C7.6,4.2,7.8,4.2,8,4.3c0.4,0.2,0.8,0.4,1.2,0.6c0.7,0.4,1.5,0.8,2.2,1.2 c0.8,0.5,1.6,1,2.4,1.6c1.9,1.3,3.6,2.8,5.1,4.5C20.4,13.8,21.7,15.5,22.9,17.3z M12.9,8.3c-1.1-0.8-2.2-1.4-3.3-2.1 C9.4,6.1,9.3,6.1,9.2,6c0,0,0,0-0.1,0.1c0,0.1,0.1,0.2,0.1,0.3c0.2,0.5,0.5,0.9,0.7,1.4c0.2,0.6,0.5,1.1,0.7,1.7 c0.3,0.7,0.5,1.4,0.7,2.1c0.1,0.5,0.3,1,0.4,1.5c0.2,0.9,0.3,1.8,0.4,2.7c0.1,1.4-0.1,2.8-0.2,4.2c0,0.4-0.1,0.7-0.2,1.1 c-0.1,0.6-0.3,1.1-0.4,1.7c-0.1,0.3-0.2,0.5-0.3,0.8c-0.1,0.4-0.3,0.8-0.5,1.1c-0.2,0.4-0.4,0.9-0.6,1.3c-0.1,0.1-0.1,0.2-0.1,0.3 c0.1,0,0.3,0,0.4,0c0,0,0.1,0,0.1-0.1c0.3-0.1,0.7-0.3,1-0.4c0.4-0.1,0.8-0.2,1.2-0.4c0.7-0.2,1.3-0.3,2-0.5c0.1,0,0.3,0,0.4,0 c1.5-0.3,2.9-0.3,4.4-0.1c0.9,0.1,1.7,0.3,2.6,0.4c0.6,0.1,1.1,0.2,1.7,0.4c0.5,0.1,1,0.3,1.5,0.5c0.1,0,0.2,0,0.4,0 c0-0.1,0-0.3,0-0.4c0-0.2-0.1-0.4-0.2-0.6c-0.1-0.4-0.2-0.9-0.3-1.3c-0.2-0.6-0.5-1.2-0.7-1.8c-0.3-0.7-0.6-1.4-1-2.1 c-0.7-1.2-1.4-2.5-2.2-3.6c-0.9-1.3-1.9-2.5-3-3.7C16.4,11,14.7,9.6,12.9,8.3z"/>
</svg>