<!-- (c) Carrd Inc. All rights reserved. All logos and trademarks are property of their respective owners. -->
<svg xmlns="http://www.w3.org/2000/svg" id="icon">
<path d="M368.4,133.4c-5.5,12-15.3,17.5-28.4,17.5c-42.6,0-85.3,0.1-127.9-0.1c-4.4,0-6.1,1-6,5.8 c0.3,16.7,0.1,33.3,0.1,50c0,27.5-0.1,55,0,82.5c0,12.7-5.4,21.6-17.3,26.5c-0.8,0.3-1.3,1.3-1.9,2c-33,0-66,0-99,0 c-0.6-0.7-1.1-1.6-1.9-2c-11.6-4.8-17.3-13.5-17.3-26c0-44.6,0-89.3-0.1-133.9c0-3.9,1.4-4.8,4.9-4.8c11.5,0.1,23,0.3,34.5-0.1 c22.1-0.9,36.5-23.9,24.9-44.7C96.2,39.9,60-26.5,23.4-92.7c-1.6-2.9-1.5-4.9,0.1-7.8c27.7-51.5,55.3-103.1,82.8-154.8 c4.8-9,10.4-16.6,20.5-19.9c0.5-0.2,0.8-1,1.3-1.5c5.7,0,11.3,0,17,0c0.5,0.6,0.9,1.5,1.6,1.7c9.2,3,14.7,9.8,19.1,17.9 c27.3,49.7,54.6,99.3,82,149c39.7,72.1,79.3,144.2,119,216.3C371.1,116.4,372.2,124.9,368.4,133.4z M-98.4,108 c-4,7.2-4.8,14.9-1.8,22.6c5.2,13.2,15.3,19.7,29.3,20.1c11,0.3,22,0.2,33,0c3.7-0.1,4.9,1.3,4.8,5c-0.2,12.3-0.1,24.7-0.1,37 c0,31.6,0,63.3,0,94.9c0,13.3-5,23.2-18,28.1c-0.7,0.3-1.1,1.1-1.6,1.7c-31,0-62,0-93,0c-0.5-0.5-0.9-1.2-1.4-1.4 c-14.6-5.3-19.1-16.4-19-31c0.3-42.8,0-85.7,0.2-128.5c0-4.8-1.6-5.9-6-5.8c-17.5,0.2-35,0.1-52.5,0.1c-26.5,0-53,0.1-79.5-0.1 c-11.1-0.1-19.7-5.2-25.4-15c-1.1-1.8-2.2-3.5-3.4-5.3c0-5,0-10,0-15c1.2-2.1,2.5-4.2,3.7-6.3c30.2-54.9,60.4-109.8,90.6-164.7 c37-67.3,74-134.5,111-201.9c4.4-8,10-14.5,18.9-17.4c0.7-0.2,1.1-1.1,1.7-1.7c5.7,0,11.3,0,17,0c0.7,0.7,1.2,1.6,2.1,1.9 c8.3,3,13.8,8.8,17.8,16.5c27.3,52.5,54.7,104.9,81.9,157.5c1.1,2.2,1.1,6.1-0.1,8.2C-24.8-25.6-61.6,41.2-98.4,108z"/> <path d="M38.2,25.9c-0.3,0.6-0.8,0.9-1.5,0.9c-2.2,0-4.4,0-6.7,0c-0.2,0-0.3,0-0.3,0.3c0,0.9,0,1.7,0,2.6 c0,1.4,0,2.9,0,4.3c0,0.7-0.3,1.1-0.9,1.4c0,0-0.1,0.1-0.1,0.1c-1.7,0-3.4,0-5.2,0c0,0-0.1-0.1-0.1-0.1c-0.6-0.3-0.9-0.7-0.9-1.4 c0-2.3,0-4.7,0-7c0-0.2,0.1-0.3,0.3-0.2c0.6,0,1.2,0,1.8,0c1.2,0,1.9-1.2,1.3-2.3c-1.9-3.4-3.8-6.9-5.7-10.4c-0.1-0.2-0.1-0.3,0-0.4 c1.4-2.7,2.9-5.4,4.3-8.1c0.2-0.5,0.5-0.9,1.1-1c0,0,0-0.1,0.1-0.1c0.3,0,0.6,0,0.9,0c0,0,0,0.1,0.1,0.1c0.5,0.2,0.8,0.5,1,0.9 c1.4,2.6,2.9,5.2,4.3,7.8c2.1,3.8,4.1,7.5,6.2,11.3C38.4,25,38.4,25.5,38.2,25.9z M13.9,24.6c-0.2,0.4-0.3,0.8-0.1,1.2 c0.3,0.7,0.8,1,1.5,1.1c0.6,0,1.1,0,1.7,0c0.2,0,0.3,0.1,0.3,0.3c0,0.6,0,1.3,0,1.9c0,1.7,0,3.3,0,5c0,0.7-0.3,1.2-0.9,1.5 c0,0-0.1,0.1-0.1,0.1c-1.6,0-3.2,0-4.9,0c0,0,0-0.1-0.1-0.1c-0.8-0.3-1-0.9-1-1.6c0-2.2,0-4.5,0-6.7c0-0.3-0.1-0.3-0.3-0.3 c-0.9,0-1.8,0-2.7,0c-1.4,0-2.8,0-4.1,0c-0.6,0-1-0.3-1.3-0.8c-0.1-0.1-0.1-0.2-0.2-0.3c0-0.3,0-0.5,0-0.8c0.1-0.1,0.1-0.2,0.2-0.3 C3.4,21.8,5,18.9,6.6,16c1.9-3.5,3.9-7,5.8-10.5c0.2-0.4,0.5-0.8,1-0.9c0,0,0.1-0.1,0.1-0.1c0.3,0,0.6,0,0.9,0c0,0,0.1,0.1,0.1,0.1 c0.4,0.2,0.7,0.5,0.9,0.9c1.4,2.7,2.9,5.5,4.3,8.2c0.1,0.1,0.1,0.3,0,0.4C17.7,17.6,15.8,21.1,13.9,24.6z"/>
</svg>