<!-- (c) Carrd Inc. All rights reserved. All logos and trademarks are property of their respective owners. -->
<svg xmlns="http://www.w3.org/2000/svg" id="icon">
<path d="M36.8,7.4c0,5.3,0,10.5,0,15.8c0,1.5,0.1,3.1-0.1,4.6c-0.1,0.7-0.2,1.5-0.4,2.2c-0.1,0.5-0.3,0.9-0.5,1.3 c-0.5,1.2-1.2,2.2-2.1,3.1c-0.6,0.6-1.2,1.2-1.9,1.6c-0.6,0.4-1.2,0.7-1.9,1c-0.5,0.2-1,0.4-1.5,0.5c-0.5,0.1-1,0.2-1.5,0.3 c-0.2,0-0.4,0.1-0.5,0.1c-7.8,0-15.6,0-23.4,0c0-0.1,0-0.2,0-0.2c0-10.2,0-20.4,0-30.6c0-0.1,0-0.1,0-0.2C3.2,7,3.3,7,3.5,7 c0.4,0,0.9,0,1.3,0c1.4,0,2.7,0,4.1,0c0.9,0,1.8,0,2.6,0.1c0.3,0,0.3,0,0.3-0.2c0.1-0.3,0.1-0.6,0.2-0.9c0.2-0.7,0.5-1.4,0.9-2 c0.5-0.8,1.2-1.6,2-2.2c0.7-0.5,1.5-0.9,2.3-1.2c0.7-0.2,1.4-0.4,2.1-0.4c0.1,0,0.2,0,0.3-0.1c0.2,0,0.4,0,0.6,0c0,0,0.1,0,0.1,0.1 c0.5,0.1,0.9,0.1,1.4,0.2c0.6,0.1,1.1,0.3,1.6,0.5c0.7,0.3,1.4,0.8,2,1.3c0.5,0.4,0.9,0.8,1.2,1.3c0.4,0.6,0.8,1.2,1,1.8 c0.2,0.5,0.3,1.1,0.5,1.6c0.1,0.3,0.1,0.3,0.3,0.3C29.3,7,30,7,30.8,7c1.9,0,3.9,0,5.8,0c0.1,0,0.2,0,0.3,0.1c0,0,0,0.1,0,0.1 C36.9,7.3,36.8,7.3,36.8,7.4z M25.9,6.6c-0.2-0.7-0.6-1.4-1-2C24.4,4,23.8,3.4,23.1,3c-0.5-0.3-1.1-0.6-1.7-0.7 c-0.4-0.1-0.8-0.1-1.2-0.1c-0.9,0-1.7,0.1-2.5,0.4c-1.1,0.5-2.1,1.2-2.8,2.2c-0.4,0.7-0.7,1.4-0.9,2.1c0,0,0,0.1,0.1,0.1 c0.1,0,0.2,0,0.4,0.1c0.5,0.1,1,0.1,1.5,0.2c0.6,0.1,1.1,0.3,1.7,0.4c0.8,0.2,1.5,0.5,2.3,0.9c0.1,0,0.2,0.1,0.3,0 c0.4-0.1,0.8-0.3,1.1-0.5c0.4-0.2,0.9-0.3,1.4-0.4c0.3-0.1,0.7-0.2,1-0.2c0.6-0.1,1.2-0.2,1.7-0.3c0.2,0,0.3,0,0.5-0.1 c0.1,0,0.1-0.1,0.2-0.1C26,6.9,25.9,6.8,25.9,6.6z M35.2,8.3c-1.5,0-3,0-4.6,0c-1.4,0-2.8,0.1-4.2,0.2c-1.3,0.1-2.5,0.3-3.7,0.7 c-0.9,0.2-1.8,0.6-2.6,1c-0.1,0.1-0.2,0.1-0.3,0c-0.6-0.3-1.2-0.6-1.8-0.8c-0.6-0.2-1.2-0.4-1.8-0.5c-0.5-0.1-1-0.2-1.4-0.3 c-0.6-0.1-1.2-0.1-1.8-0.2c-1.3-0.1-2.6-0.2-3.9-0.2c-1.5,0-3.1,0-4.6,0c-0.1,0-0.2,0.1-0.2,0.2c0,0.1,0,0.3,0,0.4 c0,4.5,0,9.1,0,13.6c0,0,0,0,0,0c0,4.6,0,9.3,0,13.9c0,0.3,0,0.3,0.3,0.3c0.9,0,1.8,0,2.8,0c4.2,0,8.4,0,12.6,0c1.9,0,3.8,0,5.7,0 c0.6,0,1.2-0.1,1.7-0.2c0.8-0.1,1.6-0.4,2.3-0.7c1-0.5,1.9-1.1,2.8-1.9c1-1,1.8-2.1,2.3-3.4c0.4-1.1,0.7-2.2,0.7-3.4 c0-3.3,0-6.5,0-9.8c0-2.9,0-5.7,0-8.6C35.5,8.2,35.6,8.3,35.2,8.3z M32.9,24.4c-0.7,1-1.6,1.8-2.8,2.4c-0.6,0.3-1.3,0.5-2,0.7 c-0.9,0.2-1.8,0.2-2.6,0c-0.5-0.1-0.9-0.3-1.4-0.4c-0.1,0-0.2,0-0.3,0c-0.7,0.8-1.5,1.6-2.2,2.4c-0.5,0.5-1,1-1.4,1.5 c0,0.1-0.1,0.1-0.2,0c-0.3-0.4-0.7-0.7-1.1-1.1c-0.1-0.1-0.3-0.3-0.4-0.4c-0.3-0.3-0.5-0.6-0.7-0.9c-0.4-0.4-0.8-0.9-1.2-1.3 c-0.1-0.1-0.2-0.2-0.3-0.3c-0.1-0.1-0.1-0.1-0.2,0c-0.7,0.3-1.3,0.5-2,0.5c-0.6,0.1-1.2,0.1-1.8,0c-0.4-0.1-0.8-0.1-1.2-0.2 c-0.6-0.2-1.2-0.5-1.8-0.8c-1-0.6-1.8-1.5-2.5-2.5c-0.4-0.6-0.7-1.3-0.8-2.1c-0.1-0.5-0.2-1.1-0.2-1.6c0.1-0.6,0.1-1.1,0.2-1.7 c0.5-1.9,1.5-3.4,3.1-4.5c0.8-0.5,1.7-0.9,2.7-1.1c0.7-0.1,1.4-0.2,2.1-0.1c0.7,0.1,1.3,0.2,2,0.5c0.7,0.2,1.3,0.6,1.8,1 c0.6,0.5,1.2,1,1.6,1.7c0.3,0.4,0.4,0.8,0.7,1.2c0,0,0.1,0.1,0.1,0.1c0,0,0.1-0.1,0.1-0.1c0.4-0.8,0.9-1.6,1.5-2.2 c0.8-0.8,1.8-1.4,2.9-1.8c1.1-0.4,2.2-0.5,3.4-0.3c1.1,0.1,2,0.5,2.9,1c1,0.6,1.8,1.4,2.4,2.3c0.2,0.4,0.5,0.8,0.6,1.2 c0.2,0.6,0.4,1.2,0.5,1.8c0.1,0.8,0.1,1.6-0.1,2.4C33.9,22.6,33.5,23.5,32.9,24.4z M17.4,27c0.9,0.9,1.7,1.8,2.6,2.7 c0,0,0.1,0,0.1,0c0.3-0.3,0.6-0.7,1-1c0.5-0.6,1-1.1,1.6-1.6c0.2-0.2,0.2-0.2,0-0.4c0,0,0,0,0,0c-0.7-0.8-1.5-1.2-2.7-1.2 c-0.2,0-0.5,0.1-0.9,0.2c-0.7,0.2-1.3,0.6-1.7,1.2C17.3,26.8,17.3,26.8,17.4,27z M19.3,20c-0.1-3.4-2.9-6.1-6.3-6 c-3.4,0-6.2,2.9-6.1,6.4c0.1,3.3,2.9,6,6.3,5.9C16.7,26.3,19.4,23.4,19.3,20z M20.1,23.1C20.1,23.1,20,23.1,20.1,23.1 c-0.1-0.1-0.1,0-0.2,0c-0.2,0.4-0.4,0.8-0.6,1.2c0,0.1,0,0.1-0.1,0.2c0.2,0,0.3,0,0.4,0c0.3,0,0.7,0,1,0c0.1,0,0.1,0,0.2,0 c0-0.1,0-0.1-0.1-0.2C20.5,23.9,20.3,23.5,20.1,23.1z M26.9,14c-3.4,0-6.2,2.7-6.2,6.2c0,3.4,2.7,6.2,6.1,6.2c3.5,0,6.1-2.7,6.2-5.9 C33.2,16.8,30.2,14,26.9,14z M28.4,23.5c-1.7,1.2-3.8,0.9-5.2-0.5c-1.3-1.4-1.3-3.4-0.6-4.6c0.7,1.3,2,1.3,2.8,0.8 c0.5-0.3,0.8-0.7,0.9-1.3c0.1-0.5,0-0.8-0.3-1.5c1.1-0.2,2.8,0.5,3.6,2.1C30.5,20.3,29.9,22.4,28.4,23.5z M16.1,23.6 c-1.7,1-3.8,0.7-5.1-0.7c-1.3-1.5-1.2-3.4-0.5-4.5c0.4,0.7,0.9,1.1,1.7,1.1c0.4,0,0.8-0.1,1.2-0.3c0.4-0.3,0.8-0.7,0.8-1.3 c0.1-0.5,0-1-0.4-1.5c1.2-0.2,2.9,0.6,3.7,2.2C18.4,20.5,17.7,22.6,16.1,23.6z"/>
</svg>