<!-- (c) Carrd Inc. All rights reserved. All logos and trademarks are property of their respective owners. -->
<svg xmlns="http://www.w3.org/2000/svg" id="icon">
<path d="M38.7,27.5c-0.8,1-2.6,1.6-2.6,1.6l-13.9,5v-3.7l10.2-3.6c1.2-0.4,1.3-1,0.4-1.3c-0.9-0.3-2.6-0.2-3.8,0.2 l-6.8,2.4v-3.8l0.4-0.1c0,0,2-0.7,4.7-1c2.8-0.3,6.2,0,8.8,1C39.1,25.1,39.4,26.5,38.7,27.5z M23.5,21.2v-9.4c0-1.1-0.2-2.1-1.2-2.4 c-0.8-0.3-1.3,0.5-1.3,1.6v23.6l-6.4-2V4.4c2.7,0.5,6.6,1.7,8.8,2.4c5.4,1.8,7.2,4.1,7.2,9.3C30.5,21.2,27.4,23.1,23.5,21.2z M2.9,30.1c-3.1-0.9-3.6-2.7-2.2-3.7c1.3-1,3.5-1.7,3.5-1.7l9.1-3.2v3.7l-6.6,2.3c-1.2,0.4-1.3,1-0.4,1.3c0.9,0.3,2.6,0.2,3.8-0.2 l3.1-1.1v3.3c-0.2,0-0.4,0.1-0.6,0.1C9.6,31.4,6.2,31.1,2.9,30.1L2.9,30.1z M36.6,31.5c0.4,0,0.8,0.2,1.1,0.4 c0.3,0.3,0.4,0.7,0.4,1.1c0,0.4-0.2,0.8-0.4,1.1c-0.3,0.3-0.7,0.4-1.1,0.4s-0.8-0.2-1.1-0.4c-0.3-0.3-0.4-0.7-0.4-1.1 C35.1,32.2,35.8,31.5,36.6,31.5z M35.4,33c0,0.3,0.1,0.6,0.4,0.9c0.2,0.2,0.5,0.4,0.9,0.4c0.7,0,1.2-0.6,1.2-1.2 c0-0.3-0.1-0.6-0.4-0.9c-0.2-0.2-0.5-0.4-0.9-0.4c-0.3,0-0.6,0.1-0.9,0.4C35.5,32.4,35.4,32.7,35.4,33z M37.1,32.2 c0.2,0.1,0.2,0.2,0.2,0.4c0,0.1,0,0.2-0.1,0.3c0,0-0.1,0.1-0.1,0.1c0,0,0.1,0.1,0.1,0.1c0,0,0.1,0.1,0.1,0.2l0,0.2 c0,0.1,0,0.1,0,0.1c0,0,0,0.1,0,0.1l0,0v0v0v0h0h-0.3h0l0,0c0,0,0,0,0-0.1c0,0,0-0.1,0-0.1l0-0.3c0-0.1,0-0.1-0.1-0.2 c0,0-0.1,0-0.2,0h-0.5v0.6v0h0H36h0v0v-1.6v0h0h0.7C36.9,32.2,37,32.2,37.1,32.2L37.1,32.2z M36.3,32.9h0.5c0.1,0,0.2,0,0.2-0.1 c0,0,0.1-0.1,0.1-0.2c0-0.1,0-0.2-0.1-0.2c0,0-0.1,0-0.2,0h-0.5V32.9L36.3,32.9z"/>
</svg>