<!-- (c) Carrd Inc. All rights reserved. All logos and trademarks are property of their respective owners. -->
<svg xmlns="http://www.w3.org/2000/svg" id="icon">
<path d="M35.6,24.6c0,1.3,0,2.4,0,3.4c0,0.2-0.1,0.5-0.3,0.6c-2,1.6-4.1,3.2-6.1,4.9c-4.1,3.5-8.8,5-14.2,4.9 c-4.2-0.1-8-2.9-9.6-7.1C4,27.8,4.2,24.1,5.2,20.5C6.9,14.4,9.8,9.1,14.7,5c2.1-1.8,4.5-3,7.3-3.4c6.2-0.8,10.6,4.1,8.9,10.2 c-1.1,4-3.6,7-7.4,8.7c-1.5,0.7-3.1,0.9-4.7,0.5c-1.6-0.4-2.3-2.8-1.2-4c0.2-0.2,0.7-0.3,1.1-0.2c2.5,0.8,4.6-0.1,6.4-1.9 c1.9-1.8,2.6-4.1,1.9-6.7c-0.4-1.4-1.4-2.3-2.9-2.5c-1.9-0.4-3.6,0.2-5.1,1.2c-2.3,1.6-3.9,3.8-5.3,6.2c-2.2,4-3.7,8.1-3.9,12.7 c0,0.8,0,1.6,0.1,2.4c0.6,3.6,2.9,5.6,6.6,5.6c3.4,0,6.4-1.2,9.2-3c2.6-1.7,5.1-3.4,7.7-5.1C34,25.3,34.7,25,35.6,24.6z"/>
</svg>