<!-- (c) Carrd Inc. All rights reserved. All logos and trademarks are property of their respective owners. -->
<svg xmlns="http://www.w3.org/2000/svg" id="icon">
<path d="M35.7,34.7c-0.6,0.1-1.2,0.3-1.9,0.4c-1.3,0.3-2.5,0.5-3.8,0.8c-1.3,0.3-2.5,0.5-3.8,0.8 c-0.3,0.1-0.6,0.1-0.8,0.2l1.5-31.4c0.6,0.6,1.2,1.2,1.9,1.8c0.1,0.1,0.2,0.2,0.4,0.2c0.9,0.1,1.7,0.1,2.6,0.2 c0.3,0,0.4,0.1,0.5,0.5c0.2,1.7,0.5,3.4,0.7,5.1c0.3,2,0.6,4,0.9,6c0.3,2.1,0.6,4.1,0.9,6.2c0.2,1.3,0.4,2.6,0.6,3.9 c0.2,1.6,0.5,3.2,0.7,4.8c0,0,0,0.1,0.1,0.1c0,0.1,0,0.2,0,0.3C36,34.7,35.8,34.7,35.7,34.7z M25.7,10.9c-0.1,1.2-0.1,2.5-0.2,3.7 c-0.1,2.2-0.2,4.5-0.3,6.7c-0.1,1.3-0.1,2.6-0.2,3.9c-0.1,1.7-0.2,3.4-0.3,5c-0.1,1.1-0.1,2.3-0.2,3.4c-0.1,1.1-0.1,2.2-0.2,3.3 c-0.1,0-0.1,0-0.2,0c-0.1,0-0.1-0.1-0.2-0.1c-1-0.2-2.1-0.4-3.1-0.6c-0.9-0.2-1.7-0.3-2.6-0.5c-0.7-0.1-1.5-0.3-2.2-0.4 c-0.8-0.1-1.5-0.3-2.3-0.4c-1.3-0.2-2.6-0.5-3.8-0.7c-1.7-0.3-3.5-0.7-5.2-1c-0.3-0.1-0.6-0.1-0.9-0.2c0-0.1,0-0.2,0-0.3 c0,0,0-0.1,0.1-0.1c0.1-1,0.3-2,0.4-3c0.1-1.1,0.3-2.2,0.4-3.3c0.2-1.3,0.4-2.7,0.5-4c0.2-1.6,0.4-3.3,0.6-4.9 c0.1-1,0.3-2.1,0.4-3.1c0.1-0.9,0.2-1.8,0.4-2.7c0.1-0.4,0.2-0.7,0.6-0.8c0.3-0.1,0.6-0.2,0.9-0.3c0.9-0.3,1.7-0.5,2.6-0.8 c0.2-0.1,0.3-0.1,0.3-0.3c0.4-1.7,1-3.3,1.9-4.8c0.6-1,1.3-1.9,2.2-2.6c0.9-0.7,1.9-1.1,3-1.2c0.6-0.1,1.2,0,1.7,0.4 c0.1,0.1,0.3,0.2,0.4,0.4c0.2,0.2,0.4,0.3,0.6,0.3c0.8,0,1.5,0.4,2,0.9c0.6,0.5,0.9,1.2,1.2,1.9c0.1,0.2,0.2,0.4,0.3,0.7 c0.5-0.1,1-0.4,1.5-0.3c0,0.2,0,0.3,0,0.4C25.9,7.4,25.8,9.2,25.7,10.9z M18,2.3c-1.3,0.2-2.2,0.9-3,1.9c-0.4,0.4-0.7,0.9-1,1.4 c-0.7,1.1-1.1,2.4-1.5,3.7c0.1,0,0.1,0,0.2,0c0.8-0.3,1.6-0.5,2.5-0.8c0.1,0,0.2-0.1,0.2-0.3c0.2-1,0.5-1.9,0.9-2.8 c0.6-1.1,1.3-2.1,2.4-2.8c0.1-0.1,0.2-0.1,0.3-0.2C18.7,2.2,18.3,2.2,18,2.3z M19.9,3.6C18.4,4.1,17,6.4,16.8,8 c1.2-0.4,2.3-0.7,3.5-1.1C20.4,5.8,20.3,4.7,19.9,3.6z M20.3,13.7c-0.6-0.2-1.2-0.3-1.8-0.3c-1.6-0.1-3.2,0.1-4.7,0.9 c-1.5,0.8-2.5,2-3,3.7c-0.2,0.7-0.3,1.5-0.3,2.3c0,0.6,0.1,1.1,0.4,1.6c0.4,0.9,1.1,1.6,1.9,2.2c0.4,0.3,0.8,0.6,1.1,1 c0.4,0.4,0.6,0.8,0.6,1.3c0.1,0.8-0.6,1.6-1.4,1.5c-0.6,0-1.2-0.2-1.7-0.4c-0.5-0.3-1.1-0.6-1.5-1c-0.1-0.1-0.2-0.1-0.3-0.1 c-0.3,1-0.6,1.9-0.9,2.9c-0.1,0.2,0,0.3,0.1,0.3c0.4,0.3,0.7,0.6,1.1,0.8c0.6,0.4,1.3,0.7,1.9,0.9c0.5,0.2,1.1,0.2,1.7,0.3 c1,0.1,2-0.1,2.9-0.6c1-0.5,1.7-1.3,2.1-2.3c0.3-0.7,0.5-1.5,0.6-2.2c0.2-1.8-0.4-3.2-1.7-4.4c-0.5-0.5-1.1-0.9-1.7-1.3 c-0.4-0.3-0.7-0.6-1-0.9c-0.4-0.5-0.5-1-0.2-1.6c0.3-0.6,0.8-0.8,1.3-0.9c1.1-0.2,2.1,0,3.1,0.4c0.1,0,0.2,0.1,0.4,0.1 c0.5-1.4,0.9-2.7,1.4-4C20.5,13.8,20.4,13.7,20.3,13.7z M23.3,5.8C23,5.2,22.8,4.6,22.3,4c-0.3-0.3-0.6-0.6-1.2-0.7 c0.3,1,0.4,2.1,0.4,3.1c0.6-0.2,1.1-0.3,1.7-0.5C23.3,5.9,23.3,5.9,23.3,5.8z"/>
</svg>