<!-- (c) Carrd Inc. All rights reserved. All logos and trademarks are property of their respective owners. -->
<svg xmlns="http://www.w3.org/2000/svg" id="icon">
<path d="M38.3,13.4c-2.6-3.5-7.9-6.5-13.3-8.1C22.6,4.6,20.1,4.1,18,4c-0.3,0-0.6,0-0.9,0C10.4,3.9,4.7,7.3,2.2,12.3 C1.5,13.9,1,15.6,1,17.5c-0.1,5,3,11.5,7.6,15.4L8.8,19c0-1.6,0.3-3,0.9-4.3c0.6-1.2,1.4-2.4,2.4-3.4c2.2-2.2,4.8-3.2,7.8-3 c0.7,0,1.3,0.1,1.9,0.2c0.3,0.1,0.7,0.2,1,0.3c1.7,0.5,3.1,1.5,4.4,2.9c1.1,1.2,1.9,2.4,2.3,3.8c0.4,1.2,0.6,2.4,0.6,3.8 c0,3.1-1.2,5.7-3.3,7.8c-2.2,2.1-4.7,3.1-7.6,3c-0.1,0-0.1,0-0.2,0c-0.6,0-1.2-0.1-1.8-0.2c-2.3-0.5-4.2-1.7-5.8-3.5l-0.1,8.4 c1.7,0.9,3.5,1.4,5.4,1.4c1.8,0,3.8-0.4,5.9-1.2c8.2-3,17.3-10.9,17.4-17C40,16.3,39.4,14.8,38.3,13.4 M19.4,27.8 c-2.2,0-4-0.8-5.5-2.4c-1.5-1.6-2.3-3.5-2.4-5.7c0-2.3,0.7-4.3,2.4-6c1.6-1.7,3.6-2.5,5.9-2.4c2.2,0.1,4,0.9,5.5,2.6 c1.5,1.7,2.2,3.6,2.2,5.8c0,2.2-0.9,4.1-2.4,5.7C23.5,27.1,21.6,27.8,19.4,27.8"/>
</svg>