<!-- (c) Carrd Inc. All rights reserved. All logos and trademarks are property of their respective owners. -->
<svg xmlns="http://www.w3.org/2000/svg" id="icon">
<path d="M0.2,20.4c0-0.4,0-0.7,0-1.1c0-0.1,0-0.2,0-0.2c0-0.1,0-0.3,0-0.4c0.1-0.7,0.3-1.5,0.5-2.2c0.4-1,0.9-1.9,1.5-2.6 c0.5-0.6,1.2-1.1,1.9-1.5c0.7-0.3,1.5-0.4,2.3-0.3c0.4,0.1,0.8,0.2,1.1,0.4c0.1,0.1,0.3,0.1,0.4,0.2c0.2,0.1,0.4,0,0.5-0.1 c0.1-0.1,0.1-0.2,0.2-0.3C8.9,12.2,9,12.1,9.1,12c0.2-0.3,0.6-0.4,0.9-0.3c0.3,0.1,0.6,0.4,0.6,0.7c0,0.2,0,0.4-0.1,0.5 c-0.1,0.2-0.2,0.4-0.3,0.6c-0.2,0.3-0.4,0.7-0.5,1c-0.3,0.7-0.5,1.4-0.7,2.1c-0.1,0.2-0.1,0.5-0.2,0.7c-0.1,0.2-0.3,0.4-0.6,0.6 c-0.4,0.2-0.8,0.1-1-0.3C7.1,17.4,7,17.2,7,16.9c0-0.3,0.1-0.6,0.2-0.8c0.1-0.2,0.1-0.4,0.2-0.6c0.1-0.2,0.1-0.5,0-0.7 c-0.1-0.4-0.3-0.7-0.7-0.8c-0.4-0.1-0.7-0.1-1.1-0.1C5,14,4.5,14.3,4,14.8c-0.4,0.4-0.6,0.9-0.9,1.4c-0.4,0.9-0.7,1.9-0.8,2.9 c-0.1,0.6-0.1,1.3,0,1.9c0.1,0.5,0.2,0.9,0.4,1.3c0.4,0.8,1,1.3,1.8,1.5c0.5,0.1,1.1,0.1,1.6,0c0.7-0.2,1.3-0.5,1.8-1 c0.8-0.7,1.3-1.5,1.8-2.3c0.2-0.4,0.3-0.8,0.2-1.2c0-0.1,0-0.2,0-0.2c0-0.5,0.3-0.9,0.7-1.2c0.1-0.1,0.3-0.1,0.4-0.1 c0.5,0,0.9,0.4,0.7,0.9c0,0.1,0,0.2,0,0.3c0,0.2,0.1,0.3,0.3,0.3c0.1,0,0.2,0,0.2,0c0.1,0,0.3,0,0.4,0c0.5,0,1,0.4,1.2,0.9 c0.1,0.3,0.1,0.5,0,0.8c-0.1,0.4-0.2,0.8-0.3,1.2c0,0.2-0.1,0.4-0.1,0.6c0,0.2,0.2,0.3,0.4,0.3c0.2,0,0.3-0.1,0.4-0.3 c0.1-0.2,0.3-0.3,0.4-0.5c0.2-0.3,0.3-0.6,0.4-0.9c0.1-0.4,0.2-0.8,0.3-1.2c0.1-0.5,0.3-1,0.7-1.5c0.5-0.7,1.2-1,2.1-1 c0.8,0,1.4,0.5,1.6,1.3c0.2,0.8,0.1,1.5-0.3,2.2c-0.4,0.7-1.1,1.2-1.9,1.3c-0.1,0-0.2,0-0.3,0c-0.2,0-0.2,0.1-0.2,0.3 c0,0.3,0.1,0.7,0.3,0.9c0.3,0.3,0.7,0.5,1.1,0.3c0.2-0.1,0.3-0.1,0.4-0.2c0.2-0.1,0.4-0.3,0.5-0.4c0.5-0.6,1-1.2,1.2-2 c0.1-0.3,0.2-0.6,0.4-1c0.2-0.4,0.4-0.8,0.8-1.2c0.5-0.5,1.2-0.8,1.9-0.8c0.1,0,0.1,0,0.2,0c0.2,0,0.3-0.1,0.3-0.3 c0-0.1,0-0.2,0-0.3c0.1-0.9,0.1-1.7,0.3-2.5c0.1-0.7,0.3-1.5,0.5-2.2c0.1-0.4,0.3-0.9,0.6-1.2c0.2-0.2,0.3-0.3,0.6-0.4c0,0,0,0,0,0 c0.1,0,0.2,0,0.3,0c0,0,0.1,0,0.1,0c0.2,0,0.3,0.1,0.4,0.3c0.1,0.1,0.2,0.3,0.2,0.5c0.1,0.2,0.1,0.5,0.1,0.7c0,0.6-0.1,1.2-0.2,1.9 c-0.1,0.6-0.3,1.3-0.4,1.9c-0.2,1-0.4,2-0.5,3c-0.1,0.7-0.3,1.4-0.4,2.1c-0.1,0.4-0.1,0.8,0,1.3c0,0.1,0.1,0.2,0.1,0.4 c0.1,0.1,0.2,0.2,0.4,0.1c0.1,0,0.2-0.1,0.3-0.2c0.1-0.1,0.1-0.2,0.2-0.3c0.3-0.5,0.5-1,0.8-1.5c0.2-0.5,0.4-1,0.5-1.5 c0.1-0.5,0.1-1.1,0.2-1.6c0.1-0.6,0.2-1.2,0.3-1.9c0.1-0.8,0.3-1.5,0.4-2.3c0.1-0.5,0.2-1,0.4-1.5c0.1-0.3,0.2-0.5,0.3-0.7 c0.2-0.3,0.5-0.6,0.9-0.6c0,0,0,0,0,0c0.1,0,0.2,0,0.3,0c0,0,0.1,0,0.1,0c0.2,0.1,0.4,0.2,0.5,0.4c0.1,0.1,0.1,0.2,0.1,0.3 c0.1,0.2,0.1,0.5,0.1,0.8c0,0.6-0.1,1.2-0.2,1.8c-0.2,0.9-0.5,1.8-0.8,2.7c-0.3,0.9-0.6,1.8-0.9,2.7c-0.1,0.2-0.1,0.4-0.2,0.7 c-0.1,0.6-0.1,1.2,0,1.8c0,0.2,0.1,0.5,0.2,0.7c0.2,0.3,0.5,0.4,0.8,0.2c0.1-0.1,0.3-0.2,0.4-0.3c0.2-0.2,0.3-0.3,0.5-0.5 c0.4-0.5,0.7-1.1,0.8-1.7c0.1-0.4,0.1-0.9,0.2-1.3c0.1-0.5,0.2-1,0.4-1.4c0.1-0.1,0.1-0.3,0.2-0.4c0.2-0.2,0.4-0.3,0.7-0.3 c0.4,0,0.7,0.3,0.7,0.7c0,0.3,0,0.6-0.1,0.9c-0.2,0.7-0.4,1.3-0.4,2.1c0,0.3,0,0.6,0,0.9c0,0.2,0.1,0.4,0.2,0.5 c0.1,0.1,0.3,0.1,0.4,0.1c0.1,0,0.3-0.1,0.4-0.2c0.2-0.2,0.3-0.3,0.4-0.5c0.3-0.5,0.4-1,0.5-1.5c0.1-0.5,0.2-1,0.3-1.5 c0.1-0.3,0.1-0.6,0.2-0.9c0.1-0.2,0.1-0.3,0.3-0.5c0.2-0.2,0.4-0.2,0.6-0.2c0.3,0.1,0.4,0.3,0.5,0.5c0,0.1,0,0.3,0,0.4 c0,0.4-0.1,0.8-0.2,1.2c-0.1,0.7-0.2,1.4-0.3,2.1c-0.1,1-0.2,2.1-0.4,3.1c0,0.2,0,0.3-0.1,0.5c0,0.1,0,0.1,0.1,0.1 c0.1,0,0.1,0,0.2,0c0,0,0,0,0.1-0.1c0.1-0.1,0.2-0.2,0.3-0.3c0.5-0.5,0.9-1,1.2-1.6c0.1-0.1,0.1-0.3,0.2-0.4 c0.1-0.2,0.3-0.3,0.5-0.2c0.2,0,0.4,0.2,0.4,0.4c0,0,0,0,0,0c0,0.1,0,0.3,0,0.4c0,0.1-0.1,0.2-0.1,0.4c-0.1,0.2-0.2,0.3-0.2,0.5 c-0.4,0.7-0.9,1.4-1.6,1.9c-0.4,0.3-0.9,0.6-1.3,0.7c-0.1,0-0.1,0.1-0.2,0.2c0,0.1-0.1,0.3-0.1,0.4c-0.7,1.7-2,2.7-3.8,3.1 c-0.2,0-0.3,0.1-0.5,0.1c-0.2,0-0.4,0-0.6,0c0,0-0.1,0-0.1,0c-0.5-0.1-1-0.3-1.4-0.6c-0.7-0.6-1-1.5-0.7-2.3 c0.3-0.9,0.9-1.4,1.8-1.7c0.4-0.2,0.9-0.2,1.4-0.2c0.3,0,0.6,0,1,0c0.4,0,0.8,0.1,1.2,0.1c0.1,0,0.2,0,0.3,0c0.1,0,0.2-0.1,0.3-0.2 c0,0,0-0.1,0-0.1c0-0.2,0.1-0.5,0.1-0.7c0-0.3,0.1-0.7,0-1c0-0.1,0-0.1,0-0.2c0-0.1-0.1-0.1-0.1,0c0,0-0.1,0.1-0.1,0.1 c-0.1,0.1-0.1,0.2-0.2,0.2c-0.2,0.3-0.5,0.5-0.8,0.6c-0.5,0.2-1-0.1-1.3-0.5c0-0.1-0.1-0.2-0.1-0.2c0-0.1-0.1-0.1-0.1-0.2 c-0.1-0.1-0.2-0.1-0.3-0.1c-0.1,0-0.2,0.1-0.2,0.1c-0.1,0.1-0.1,0.1-0.2,0.2c-0.2,0.1-0.4,0.3-0.5,0.4c-0.4,0.3-0.8,0.4-1.3,0.4 c-0.7,0-1.2-0.3-1.6-0.8c-0.1-0.1-0.1-0.2-0.1-0.3c-0.1-0.1-0.2-0.2-0.3-0.1c-0.1,0-0.1,0.1-0.2,0.2c-0.2,0.2-0.3,0.4-0.5,0.7 c-0.2,0.2-0.4,0.4-0.6,0.6c-0.3,0.2-0.5,0.3-0.8,0.3c-0.5,0.1-1-0.2-1.2-0.7c0-0.1,0-0.1-0.1-0.2c-0.1-0.3-0.4-0.3-0.6-0.1 c0,0-0.1,0.1-0.1,0.1c-0.1,0.1-0.1,0.1-0.1,0.2c-0.5,0.5-1.2,0.7-1.9,0.5c-0.5-0.2-0.9-0.5-1.1-1c-0.1-0.3-0.2-0.3-0.4-0.1 c-0.2,0.2-0.5,0.4-0.7,0.6c-0.5,0.4-1.1,0.6-1.8,0.6c-1,0-1.8-0.5-2.2-1.4c0-0.1-0.1-0.1-0.1-0.2c-0.1-0.1-0.2-0.1-0.3,0 c0,0-0.1,0.1-0.1,0.1c-0.4,0.6-1,0.9-1.7,1c-0.6,0.1-1.2-0.2-1.5-0.8c-0.2-0.4-0.3-0.9-0.2-1.4c0.1-0.4,0.2-0.8,0.3-1.1 c0.1-0.2,0.1-0.4,0.2-0.7c0-0.1,0-0.2,0-0.3c0-0.2-0.2-0.3-0.4-0.3c-0.2,0-0.3,0.1-0.4,0.2c-0.1,0.1-0.1,0.2-0.1,0.2 C10.4,22.8,9.4,24,8,25c-1.1,0.7-2.2,1.1-3.6,1c-0.5,0-1-0.2-1.5-0.4c-0.6-0.3-1.1-0.7-1.4-1.3c-0.5-0.8-0.9-1.7-1-2.6 c-0.1-0.4-0.1-0.8-0.1-1.2C0.3,20.5,0.3,20.5,0.2,20.4z M21.8,22.5c0,0.3,0,0.6,0.1,0.9c0,0.1,0.1,0.3,0.2,0.4 c0.1,0.1,0.2,0.2,0.4,0.2c0.2,0,0.3,0,0.5-0.1c0.4-0.2,0.8-0.5,0.9-1c0.1-0.2,0.1-0.3,0.1-0.5c0-0.1,0-0.2,0-0.3c0-0.5,0-1,0-1.5 c0-0.1,0-0.2,0-0.3c0-0.2-0.1-0.3-0.3-0.3c-0.1,0-0.2,0-0.3,0c-0.3,0-0.5,0.1-0.7,0.3c-0.2,0.2-0.4,0.4-0.5,0.7 C21.9,21.5,21.9,22,21.8,22.5z M33,27.8c-0.4,0-0.7,0-1.1,0c-0.3,0-0.6,0.1-0.9,0.3c-0.3,0.2-0.5,0.4-0.6,0.8 c-0.1,0.3,0,0.5,0.2,0.7c0.1,0.1,0.2,0.2,0.4,0.2c0.2,0.1,0.5,0.1,0.8,0.1c0.8-0.1,1.6-0.4,2.2-1c0.3-0.2,0.5-0.5,0.6-0.8 c0.1-0.1,0-0.2-0.1-0.2c-0.1,0-0.2,0-0.3,0C33.7,27.9,33.4,27.9,33,27.8z M16.9,21.1c0,0.1,0,0.1,0,0.2c0,0.1,0.1,0.2,0.2,0.2 c0.1,0,0.1,0,0.2,0c0.2-0.1,0.3-0.2,0.4-0.3c0.4-0.3,0.5-0.8,0.6-1.3c0-0.2,0-0.3-0.1-0.4c-0.1-0.2-0.3-0.3-0.5-0.1 c-0.1,0.1-0.2,0.1-0.3,0.2c-0.2,0.2-0.3,0.4-0.4,0.6C17,20.5,16.9,20.8,16.9,21.1z"/>
</svg>