<!-- (c) Carrd Inc. All rights reserved. All logos and trademarks are property of their respective owners. -->
<svg xmlns="http://www.w3.org/2000/svg" id="icon">
<path d="M37.8,28.4c0,0.3-0.1,0.6-0.1,0.8c-0.2,0.6-0.3,1.2-0.6,1.7c-0.2,0.4-0.5,0.8-0.7,1.2c-0.2,0.3-0.4,0.5-0.7,0.7 c-0.2,0.2-0.5,0.4-0.7,0.5c-0.5,0.3-1,0.5-1.5,0.6c-0.3,0-0.6,0.1-0.9,0.1c-0.5,0-0.9,0-1.4,0C31,34,31,34,31,34.1 c0,0.3-0.1,0.7-0.3,1c-0.2,0.3-0.5,0.6-0.8,0.7c-0.2,0.1-0.4,0.2-0.7,0.2c-0.1,0-0.3,0-0.4,0c-0.1,0-0.3-0.1-0.4-0.1 c-0.3-0.1-0.6-0.3-0.8-0.5C27.2,35,27,34.6,27,34.2c0-0.1-0.1-0.2-0.2-0.2c0,0-0.1,0-0.1,0c-4.5,0-9,0-13.4,0c-0.1,0-0.2,0-0.2,0.2 c-0.1,0.9-0.7,1.6-1.6,1.8c-0.1,0-0.2,0-0.3,0c-0.1,0-0.2,0-0.3,0c-0.1,0-0.3-0.1-0.4-0.1c-0.3-0.1-0.6-0.3-0.8-0.5 c-0.3-0.3-0.5-0.7-0.5-1.2C9.1,34,9.1,34,9,34c-0.4,0-0.8,0-1.3,0c-0.5,0-1,0-1.4-0.2c-0.7-0.2-1.3-0.5-1.8-0.9 c-0.7-0.6-1.2-1.2-1.6-2c-0.3-0.6-0.5-1.2-0.6-1.8c0-0.1,0-0.2,0-0.3c0-0.3-0.1-0.6-0.1-0.9c0-3.8,0-7.7,0-11.5c0-1.2,0-2.4,0-3.6 c0-0.5,0.1-0.9,0.2-1.4c0.2-0.6,0.4-1.1,0.7-1.6c0.2-0.3,0.4-0.6,0.6-0.9c0.2-0.3,0.5-0.5,0.8-0.8c0.2-0.2,0.5-0.4,0.7-0.5 C5.6,7.4,6,7.2,6.4,7.1C6.9,7,7.4,7,7.9,7c0.5,0,1,0,1.5,0c0.2,0,0.4,0,0.6,0c0.2,0,0.3,0,0.5,0c0.2,0,0.5,0,0.7,0c0.5,0,1,0,1.5,0 c0.2,0,0.4,0,0.5,0c0.1,0,0.2,0,0.4,0c0.1,0,0.2,0,0.3,0c0.2,0,0.4,0,0.6,0c0-0.1-0.1-0.1-0.1-0.1C14,6.6,13.7,6.3,13.4,6 c-0.3-0.3-0.5-0.5-0.8-0.8C12.4,5,12.2,4.8,12,4.6c-0.2-0.2-0.5-0.5-0.7-0.7c-0.4-0.5-0.3-1.2,0.2-1.6c0.2-0.1,0.4-0.2,0.5-0.3 c0.1,0,0.3,0,0.4,0c0.2,0.1,0.4,0.2,0.6,0.3c0.2,0.2,0.4,0.4,0.5,0.5c0.4,0.4,0.9,0.9,1.3,1.3c0.5,0.5,0.9,0.9,1.4,1.4 c0.3,0.3,0.5,0.5,0.8,0.8c0.2,0.2,0.4,0.4,0.6,0.6c0,0,0.1,0.1,0.2,0.1c0.4,0,0.8,0,1.2,0c0.4,0,0.7,0,1.1,0c0.3,0,0.7,0,1,0 c0.3,0,0.6,0,0.9,0c0.1,0,0.3,0,0.4-0.1c0.2-0.2,0.3-0.3,0.5-0.5c0.5-0.5,0.9-0.9,1.4-1.4C24.6,4.7,25,4.3,25.3,4 c0.5-0.5,1-1,1.4-1.5C27,2.3,27.3,2.1,27.6,2c0.1,0,0.2,0,0.4,0c0.3,0.1,0.6,0.3,0.8,0.6C29,2.9,29,3.2,28.9,3.6 c-0.1,0.3-0.3,0.5-0.5,0.7c-0.4,0.4-0.8,0.8-1.1,1.1c-0.4,0.4-0.9,0.9-1.3,1.3c-0.1,0.1-0.1,0.1-0.1,0.2c0.1,0,0.2,0,0.2,0 c0.3,0,0.6,0,0.9,0c0.2,0,0.4,0,0.6,0c0.3,0,0.6,0,0.8,0c0.5,0,1,0,1.5,0c0.3,0,0.5,0,0.8,0c0.1,0,0.3,0,0.4,0c0.3,0,0.6,0,0.9,0 c0.3,0,0.6,0,0.9,0c0.5,0,1,0.2,1.4,0.4c0.4,0.2,0.8,0.5,1.2,0.8c0.3,0.2,0.5,0.5,0.8,0.8c0.5,0.6,0.8,1.2,1.1,1.9 c0.2,0.5,0.3,1.1,0.4,1.6c0,0.1,0,0.2,0.1,0.4c0,5,0,10.1,0,15.1C37.9,28.2,37.8,28.3,37.8,28.4z M33.3,11.4 c-0.2-0.3-0.5-0.5-0.8-0.7c-0.3-0.1-0.6-0.2-0.9-0.2c-3.9,0-7.8,0-11.6,0c0,0,0,0,0,0c-0.9,0-1.8,0-2.8,0c-3,0-6,0-8.9,0 c-0.5,0-1,0.2-1.4,0.5c-0.5,0.5-0.8,1.1-0.8,1.8c0,5,0,9.9,0,14.9c0,0.3,0,0.6,0.1,0.9c0.1,0.3,0.2,0.5,0.3,0.8 c0.1,0.2,0.3,0.4,0.5,0.6c0.2,0.1,0.4,0.3,0.6,0.3c0.3,0.1,0.6,0.1,0.9,0.1c2,0,4,0,6,0c0.7,0,1.5,0,2.2,0c1.5,0,3.1,0,4.6,0 c2,0,4,0,6.1,0c1.5,0,2.9,0,4.4,0c0.4,0,0.8-0.2,1.1-0.5c0.4-0.3,0.6-0.8,0.7-1.2c0.1-0.3,0.1-0.6,0.1-0.9c0-4.9,0-9.8,0-14.8 C33.8,12.4,33.7,11.9,33.3,11.4z M31.2,18.9c-0.1,0.3-0.1,0.6-0.2,0.9c0,0.1-0.1,0.1-0.2,0.1c-0.5-0.1-1.1-0.2-1.6-0.3 c-0.6-0.1-1.2-0.2-1.8-0.4c-0.4-0.1-0.7-0.1-1.1-0.2c-0.5-0.1-1.1-0.2-1.6-0.3c-0.3-0.1-0.7-0.1-1-0.2c-0.1,0-0.1-0.1-0.1-0.1 c0.1-0.7,0.3-1.4,0.4-2.1c0-0.2,0.1-0.3,0.1-0.5c0-0.2,0.1-0.2,0.2-0.1c0.2,0.1,0.5,0.1,0.7,0.1c0.5,0.1,1,0.2,1.5,0.3 c0.3,0.1,0.6,0.1,0.9,0.2c0.3,0.1,0.5,0.1,0.8,0.1c0.6,0.1,1.1,0.2,1.7,0.3c0.4,0.1,0.8,0.1,1.2,0.2c0.1,0,0.2,0,0.3,0.1 c0,0,0.1,0.1,0.1,0.1c-0.1,0.3-0.1,0.6-0.2,0.9C31.3,18.4,31.3,18.7,31.2,18.9z M24.7,24.7c0.1,0.1,0.1,0.1,0,0.2 c-0.2,0.2-0.3,0.4-0.5,0.6c-0.2,0.2-0.4,0.4-0.7,0.5c-0.3,0.2-0.5,0.3-0.8,0.4c-0.1,0-0.2,0-0.3,0c-0.3,0-0.6,0-0.9,0 c-0.3-0.1-0.6-0.2-0.8-0.4c-0.2-0.1-0.3-0.3-0.5-0.4c-0.1-0.1-0.2-0.1-0.3,0c-0.3,0.3-0.7,0.6-1.2,0.7c-0.6,0.2-1.1,0.1-1.7-0.1 c-0.3-0.2-0.6-0.4-0.9-0.6c-0.3-0.2-0.5-0.6-0.8-0.8c-0.1-0.1-0.1-0.2,0-0.2c0.3-0.2,0.6-0.4,0.9-0.6c0.1,0,0.2-0.1,0.3,0 c0.2,0.2,0.3,0.4,0.5,0.6c0.3,0.3,0.6,0.4,1,0.4c0.3,0,0.6-0.1,0.8-0.3c0.5-0.4,0.8-1,1.1-1.6c0,0,0.1-0.1,0.1-0.1 c0.1,0.2,0.2,0.3,0.3,0.4c0.2,0.3,0.4,0.6,0.6,0.9c0.2,0.3,0.5,0.6,0.9,0.7c0.2,0,0.4,0,0.6-0.1c0.2-0.1,0.5-0.3,0.7-0.5 c0.2-0.2,0.4-0.4,0.5-0.6c0.1,0.1,0.2,0.1,0.3,0.2C24.1,24.4,24.4,24.6,24.7,24.7z M16.4,18.5c-0.6,0.1-1.2,0.2-1.8,0.4 C14.3,18.9,14,19,13.7,19c-0.3,0.1-0.6,0.1-0.9,0.2c-0.6,0.1-1.2,0.2-1.8,0.4c-0.6,0.1-1.2,0.2-1.8,0.3c-0.1,0-0.1,0-0.2,0 c-0.1-0.4-0.2-0.8-0.2-1.1c-0.1-0.4-0.2-0.8-0.2-1.2c0-0.1-0.1-0.3-0.1-0.4c0-0.1,0.1-0.1,0.2-0.2c0.8-0.2,1.6-0.3,2.4-0.5 c0.5-0.1,1.1-0.2,1.6-0.3c0.5-0.1,1.1-0.2,1.6-0.3c0.5-0.1,1-0.2,1.5-0.3c0,0,0.1,0,0.2,0c0,0.1,0.1,0.3,0.1,0.4 c0.1,0.4,0.1,0.7,0.2,1.1c0.1,0.4,0.2,0.8,0.2,1.2C16.5,18.4,16.4,18.5,16.4,18.5z"/>
</svg>