<!-- (c) Carrd Inc. All rights reserved. All logos and trademarks are property of their respective owners. -->
<svg xmlns="http://www.w3.org/2000/svg" id="icon">
<path d="M6.2,25.9c0.1,0.4,0.2,0.8,0.3,1.1c0.1,0.4,0.3,0.9,0.4,1.3c0.2,0.5,0.4,1,0.7,1.5c0.3,0.5,0.6,1,1,1.5 c0.4,0.6,1,1.2,1.5,1.8c0.6,0.6,1.3,1.1,2,1.6c0.9,0.5,1.7,1.1,2.5,1.6c1.1,0.7,2.2,1.4,3.3,2.1c0.5,0.3,1,0.6,1.4,0.9 c0.1,0,0.1,0.1,0.1,0.2c0.1,0,0.3,0,0.4,0c0,0,0-0.1,0.1-0.1c0.7-0.5,1.5-0.9,2.2-1.4c0.5-0.3,1.1-0.7,1.6-1 c0.8-0.5,1.7-1.1,2.5-1.6c0.6-0.4,1.3-0.8,1.9-1.2c0.8-0.6,1.6-1.2,2.2-2c0.8-0.9,1.4-1.9,1.9-2.9c0.2-0.5,0.4-1,0.6-1.5 c0.1-0.4,0.3-0.8,0.4-1.2c0.1-0.5,0.2-1,0.3-1.5c0.2-1.2,0.2-2.4,0.2-3.6c0-2.3,0-4.6,0-7c0-0.1,0-0.1,0-0.3c-4.6,3-9.2,6-13.8,9 c0-0.1,0-0.1,0-0.2c0-0.4,0-0.9,0-1.3c0-0.6,0.1-1.1,0.4-1.6c0.2-0.3,0.5-0.5,0.8-0.7c0.3-0.2,0.6-0.3,0.8-0.5 c0.8-0.5,1.5-1,2.3-1.4c0.7-0.4,1.4-0.9,2.1-1.3c0.6-0.4,1.2-0.7,1.8-1.1c0.6-0.4,1.2-0.8,1.9-1.2c0.7-0.4,1.4-0.9,2.1-1.3 c0.3-0.2,0.7-0.4,1-0.6c0.4-0.2,0.6-0.6,0.8-1c0-0.1,0.1-0.2,0.2-0.4c0-0.7,0-1.2,0-2c0-1.6,0-3.3,0-4.9c0-0.1,0-0.1-0.1-0.1 c0,0.1-0.1,0.1-0.1,0.2c-0.4,0.3-0.8,0.5-1.3,0.8c-0.7,0.4-1.3,0.8-2,1.3c-0.8,0.5-1.5,1-2.3,1.5c-0.5,0.3-1.1,0.7-1.6,1 c-0.5,0.3-1.1,0.7-1.6,1c-0.6,0.4-1.3,0.8-1.9,1.2c-0.9,0.6-1.8,1.1-2.7,1.7c-0.1,0.1-0.2,0.2-0.4,0.2c-0.1,0-0.1,0-0.2,0 c-0.7-0.5-1.5-0.9-2.2-1.4c-0.8-0.5-1.7-1.1-2.5-1.6c-0.8-0.5-1.7-1.1-2.5-1.6c-1-0.6-2-1.3-3-1.9C8.9,5.5,8.1,4.9,7.3,4.4 C6.9,4.2,6.5,3.9,6.1,3.7C6.1,3.6,6,3.6,6,3.5c0,0-0.1,0-0.1,0c0,7,0,13.3,0,20.3C5.9,24.3,6.1,25.4,6.2,25.9z"/>
</svg>