<!-- (c) Carrd Inc. All rights reserved. All logos and trademarks are property of their respective owners. -->
<svg xmlns="http://www.w3.org/2000/svg" id="icon">
<path d="M33.6,17.8c1.3,0.5,2.4,1.4,3.2,2.6c0.8,1.2,1.2,2.5,1.2,4c0,2-0.7,3.6-2.1,5c-1.4,1.4-3.1,2.1-5.1,2.1c0,0-0.1,0-0.2,0 c-0.1,0-0.2,0-0.2,0H8.8c-2-0.1-3.7-0.9-5.1-2.2s-2.1-3-2.1-5c0-1.3,0.3-2.5,1-3.6c0.7-1.1,1.5-2,2.6-2.6c-0.1-0.5-0.2-1-0.2-1.5 c0-1.4,0.5-2.5,1.5-3.5s2.2-1.4,3.6-1.4c1.1,0,2.2,0.3,3.1,1c0.9-1.8,2.2-3.3,4-4.4s3.7-1.7,5.8-1.7c2,0,3.8,0.5,5.5,1.4 s3,2.3,4,3.9s1.5,3.4,1.5,5.4c0,0.1,0,0.2,0,0.3S33.6,17.7,33.6,17.8L33.6,17.8z M9.9,22.5c0,1.5,0.5,2.6,1.5,3.4 c1,0.8,2.2,1.3,3.7,1.3c1.6,0,3.1-0.6,4.3-1.8c-0.2-0.2-0.5-0.6-0.8-1c-0.4-0.4-0.6-0.7-0.8-0.9c-0.8,0.8-1.7,1.2-2.6,1.2 c-0.7,0-1.2-0.2-1.7-0.6c-0.5-0.4-0.7-0.9-0.7-1.6c0-0.6,0.2-1.1,0.7-1.6c0.5-0.4,1-0.6,1.6-0.6c0.5,0,1,0.1,1.5,0.4 c0.5,0.3,0.9,0.6,1.3,1c0.4,0.4,0.8,0.9,1.2,1.3c0.4,0.5,0.8,1,1.2,1.5c0.4,0.5,0.9,0.9,1.4,1.3s1.1,0.7,1.7,1 c0.7,0.3,1.4,0.4,2.2,0.4c1.4,0,2.7-0.4,3.7-1.3c1-0.9,1.5-2,1.5-3.4c0-1.4-0.5-2.6-1.5-3.4c-1-0.8-2.2-1.3-3.7-1.3 c-1.7,0-3.1,0.6-4.3,1.7c0.2,0.2,0.3,0.4,0.5,0.6c0.2,0.2,0.4,0.5,0.6,0.7c0.2,0.3,0.4,0.5,0.5,0.6c0.8-0.8,1.6-1.1,2.5-1.1 c0.6,0,1.2,0.2,1.6,0.6c0.5,0.4,0.7,0.9,0.7,1.5c0,0.7-0.2,1.2-0.7,1.6s-1,0.6-1.7,0.6c-0.5,0-1-0.1-1.5-0.4c-0.5-0.3-0.9-0.6-1.3-1 s-0.8-0.9-1.2-1.3s-0.8-1-1.2-1.5s-0.9-0.9-1.4-1.3s-1.1-0.7-1.7-1c-0.7-0.3-1.4-0.4-2.1-0.4c-1.5,0-2.7,0.4-3.7,1.3 S9.9,21.1,9.9,22.5L9.9,22.5z"/>
</svg>