<!-- (c) Carrd Inc. All rights reserved. All logos and trademarks are property of their respective owners. -->
<svg xmlns="http://www.w3.org/2000/svg" id="icon">
<path d="M38.8,8.2c-0.2,0.9-0.4,1.9-0.5,2.8c0,0.2-0.2,0.3-0.3,0.3c-0.1,0-0.2,0-0.3,0c-2.2,0-4.5,0-6.7,0 c0,0,0,0-0.1,0c-0.1,0-0.3,0-0.4,0c-0.1,0.1-0.1,0.3-0.1,0.4c-0.4,1.9-0.9,3.8-1.3,5.7c0,0,0,0.1,0,0.2c1.9,0,3.8,0,5.7,0 c-0.1,0.6-0.2,1.2-0.3,1.8c-0.1,0.7-0.3,1.3-0.4,2c0,0.2-0.1,0.2-0.3,0.2c-1,0-2,0-3,0c-0.8,0-1.5,0-2.3,0c-0.2,0-0.3,0.1-0.3,0.3 c-0.4,1.7-0.8,3.4-1.2,5.1c-0.4,1.9-0.9,3.9-1.4,5.8c0,0,0,0.1,0,0.1c-1.4,0-2.9,0-4.3,0c0-0.1-0.1-0.1-0.1-0.2 c0.6-2.5,1.1-5,1.7-7.6c0.9-4.2,1.9-8.5,2.8-12.7c0.4-1.7,0.8-3.4,1.1-5.1c0-0.1,0.1-0.1,0.1-0.2c0,0,0.1,0,0.1,0c0.1,0,0.2,0,0.3,0 c3.8,0,7.6,0,11.4,0c0.1,0,0.2,0,0.3,0C38.9,7.5,38.9,7.8,38.8,8.2z M22.7,15.3c-1.3,5.8-2.6,11.6-3.9,17.4c0,0.2-0.1,0.2-0.3,0.2 c-1.1,0-2.1,0-3.2,0c-0.1,0-0.3,0-0.4,0c0.2-0.8,0.3-1.5,0.5-2.3c1-4.6,2-9.2,3.1-13.7c0.2-0.8,0.4-1.6,0.5-2.5c0-0.1,0-0.1,0-0.2 c-0.1,0-0.2,0-0.3,0.1c0,0-0.1,0.1-0.1,0.2c-1.7,4.2-3.5,8.4-5.2,12.7c-0.5,1.3-1.1,2.6-1.6,3.9c-0.2,0.6-0.5,1.1-0.7,1.7 c0,0.1-0.2,0.2-0.3,0.2c-0.1,0-0.1,0-0.2,0c-0.5,0-1.1,0-1.6,0c0,0-0.1,0-0.1,0c0-0.3,0-0.6,0-0.9c0-4.9,0.1-9.7,0.1-14.6 c0-0.8,0-1.6,0-2.4c0-0.1-0.1-0.3-0.1-0.3c-0.2,0-0.2,0.1-0.2,0.2c-0.7,2.9-1.3,5.9-2,8.8c-0.7,3-1.3,5.9-2,8.9 c0,0.1-0.1,0.2-0.2,0.2c-1,0-2,0-3.1,0c-0.1,0-0.1,0-0.2,0c0,0-0.1,0-0.1,0c-0.1,0-0.3,0-0.2-0.3c0.7-3,1.4-6,2-9.1 C4,19.3,5,15,5.9,10.6c0.2-1.1,0.5-2.2,0.7-3.3c0-0.1,0-0.2,0.2-0.2c0.6,0,1.2,0,1.8,0c1.2,0,2.4,0,3.6,0c0.2,0,0.3,0.1,0.3,0.3 c0,1.7-0.1,3.3-0.1,5c0,2.9,0,5.8-0.1,8.7c0,0.1,0,0.3,0.2,0.3c0.2,0.1,0.2-0.1,0.2-0.2c2-4.6,4-9.1,6.1-13.7 c0.1-0.3,0.2-0.3,0.5-0.3c1.7,0,3.3,0,5,0c0.2,0,0.3,0.1,0.2,0.3C23.9,10.1,23.3,12.7,22.7,15.3z"/>
</svg>