<!-- (c) Carrd Inc. All rights reserved. All logos and trademarks are property of their respective owners. -->
<svg xmlns="http://www.w3.org/2000/svg" id="icon">
<path d="M8.5,3.9c1.1-0.1,2.1-0.2,3.1-0.2c1.8-0.1,3.6-0.1,5.4-0.2c2.4-0.1,4.7,0.1,6.9,0.7c1.8,0.5,3.4,1.3,4.9,2.4 c3.1,2.2,5.1,5.1,6.1,8.7c0.5,1.7,0.6,3.5,0.6,5.3c0,1.8-0.2,3.5-0.7,5.3c-1,3.7-3.2,6.5-6.6,8.4c-1.8,1-3.7,1.6-5.8,1.9 c-3,0.4-6.1,0.1-9.1,0C12,36.2,10.5,36.1,9,36c-0.3,0-0.5-0.1-0.5-0.5c0-0.3-0.1-0.6-0.1-0.9c0-10,0-20,0-29.9 C8.5,4.5,8.5,4.2,8.5,3.9z M30.3,20.3c-1.3,0.6-2.4,1.2-3.6,1.8c-2,0.9-3.9,1.9-5.9,2.8c-1.2,0.5-2.3,1.1-3.5,1.7 c-1.6,0.8-3.3,1.6-4.9,2.4c-0.2,0.1-0.3,0.3-0.3,0.5c0,1,0,2,0,3c0,0.3,0.1,0.4,0.4,0.4c0.4,0,0.8,0,1.2,0.1c3,0.1,6,0.4,8.9-0.3 c1.2-0.3,2.3-0.6,3.3-1.1c1.8-0.9,3.3-2.3,4.2-4.2c1.5-3.1,1.6-6.4,1-9.8c-0.4-2.4-1.5-4.5-3.3-6.3c-1.5-1.5-3.2-2.6-5.3-3.2 c-1.1-0.3-2.1-0.6-3.2-0.7c-2.3-0.1-4.6,0-6.9,0c-0.4,0-0.5,0.2-0.5,0.6c0,1,0.1,1.9,0,2.9C12,11.4,12.3,11.8,13,12c0,0,0.1,0,0.1,0 c3,1.4,6,2.8,8.9,4.2c1.6,0.8,3.2,1.5,4.8,2.3C28,19.1,29.1,19.7,30.3,20.3z M12.1,20.3C12.1,20.3,12.1,20.3,12.1,20.3 c0,1.1,0,2.2,0,3.3c0,1,0.5,1.4,1.4,0.9c1.5-0.7,3-1.4,4.5-2.1c0.9-0.4,1.8-0.9,2.7-1.4c0.3-0.2,0.5-0.5,0.7-0.7 c-0.2-0.2-0.4-0.5-0.7-0.6c-2.4-1.2-4.7-2.3-7.1-3.5c-0.9-0.5-1.5-0.1-1.5,0.9C12.1,18.1,12.1,19.2,12.1,20.3z"/>
</svg>