<!-- (c) Carrd Inc. All rights reserved. All logos and trademarks are property of their respective owners. -->
<svg xmlns="http://www.w3.org/2000/svg" id="icon">
<path d="M8.2,29.2c2.1-3.1,4.1-6.1,6.2-9.2C9.6,20,4.8,20,0,20c0-0.1,0.1-0.1,0.1-0.2c2-2.9,4-5.9,5.9-8.8c0.1-0.1,0.1-0.1,0.3-0.1 c4,0,8,0,12.1-0.1c4.3,0,8.6,0,12.9-0.1c0.1,0,0.2,0,0.4,0c-2,3.1-4.1,6.1-6.1,9.2c4.8,0,9.6,0,14.4-0.1c0,0.1-0.1,0.1-0.1,0.2 C37.9,23,36,26,34,28.9C33.9,29,33.8,29,33.7,29c-3.5,0-7,0-10.5,0.1c-5,0-9.9,0.1-14.9,0.1C8.3,29.2,8.3,29.2,8.2,29.2z"/>
</svg>