<!-- (c) Carrd Inc. All rights reserved. All logos and trademarks are property of their respective owners. -->
<svg xmlns="http://www.w3.org/2000/svg" id="icon">
<path d="M28.5,22.6c-0.8,0-1.5-0.7-1.5-1.5c0-0.8,0.7-1.5,1.5-1.5c0.8,0,1.5,0.7,1.5,1.5C30.1,22,29.4,22.6,28.5,22.6 M11.5,22.6 c-0.8,0-1.5-0.7-1.5-1.5c0-0.8,0.7-1.5,1.5-1.5c0.8,0,1.5,0.7,1.5,1.5C13,22,12.3,22.6,11.5,22.6 M29.1,13.4L32.1,8 c0.2-0.3,0.1-0.7-0.2-0.9C31.6,7,31.2,7.1,31,7.4l-3.1,5.4c-2.4-1.1-5.1-1.7-7.9-1.7c-2.9,0-5.5,0.6-7.9,1.7L9,7.4 C8.8,7.1,8.4,7,8.1,7.2C7.8,7.3,7.7,7.7,7.9,8l3.1,5.3C5.6,16.2,2,21.6,1.5,27.9h37C38,21.6,34.4,16.2,29.1,13.4"/>
</svg>