<!-- (c) Carrd Inc. All rights reserved. All logos and trademarks are property of their respective owners. -->
<svg xmlns="http://www.w3.org/2000/svg" id="icon">
<path d="M22.62,8.43c4.4-0.41,8.8-2.88,13.2-0.78v29.01c-6.07-2.9-12.14,2.9-18.21,0l0-4.6c0-0.17,0-0.34,0-0.51 c-4.48,0.4-8.95,2.9-13.43,0.79V3.34c6.15,2.9,12.29-2.9,18.44,0V8.43z M25.97,24.18c0.53-0.12,1.06-0.25,1.59-0.38 c2.34-0.55,3.28-2.05,3.28-4.4v-3.79c0-2.31-0.6-3.78-3.45-3.11c-1.59,0.37-3.18,0.79-4.77,0.94v18.92c1.12-0.1,2.24-0.34,3.35-0.6 V24.18z M25.97,21.11v-5.34c0.21-0.05,0.42-0.1,0.63-0.15c0.78-0.19,0.86,0.23,0.86,0.91c0,1.05,0,2.1,0,3.15 c0,0.58-0.07,1.08-0.86,1.27C26.39,21.01,26.18,21.06,25.97,21.11z M12.61,27.45v-8.08c0.24-0.05,0.47-0.11,0.71-0.17 c0.68-0.16,0.88,0.02,0.88,0.91v5.52c0,0.84,0.13,1.22,0.3,1.38c1.12-0.25,2.24-0.47,3.35-0.55v-0.13 c-0.13-0.22-0.28-0.56-0.28-1.38v-6.43c0-1.4-0.91-1.94-1.44-2.04c0.63-0.4,1.49-1.17,1.49-2.74v-3.03c0-2.03-1.03-3.1-3.08-2.63 c-1.76,0.4-3.53,0.88-5.3,1.05v18.92C10.37,27.94,11.49,27.71,12.61,27.45z M12.61,16.24v-4.78c0.25-0.06,0.5-0.12,0.76-0.18 c0.68-0.16,0.83,0.06,0.83,0.87v2.57c0,0.89-0.25,1.2-0.93,1.36C13.05,16.14,12.83,16.19,12.61,16.24z"/>
</svg>