<!-- (c) Carrd Inc. All rights reserved. All logos and trademarks are property of their respective owners. -->
<svg xmlns="http://www.w3.org/2000/svg" id="icon">
<path d="M24.9,34.5c-1-1.4-2.5-3.5-3.4-4.7c-0.9-1.3-1.6-2.2-1.7-2.2c0,0-1.5,1.9-3.3,4.5c-1.8,2.5-3.3,4.5-3.3,4.5 c-0.1,0-6.5-4.5-6.5-4.6c0,0,1.4-2.2,3.2-4.7c1.8-2.6,3.2-4.7,3.2-4.8c0-0.1-0.6-0.3-5.1-1.8C5.3,19.7,3,19,2.9,18.9 c0,0,0.2-0.9,1.1-3.8c0.7-2.1,1.2-3.8,1.2-3.8c0,0,2.5,0.8,5.4,1.7s5.4,1.8,5.5,1.8c0,0,0.1,0,0.1-0.1c0-0.1,0-2.6,0.1-5.6 c0-3,0.1-5.5,0.1-5.6c0,0,0.9-0.1,3.9-0.1c2.1,0,3.9,0,3.9,0c0,0,0.1,1.7,0.2,5.4c0.2,6.2,0.2,6.2,0.3,6.2c0,0,2.4-0.8,5.2-1.8 c2.8-1,5.2-1.7,5.2-1.7c0.1,0.1,2.4,7.6,2.4,7.7c0,0-2.4,0.8-5.3,1.8C28.3,22.5,27,23,27,23c0,0,1.4,2.1,3.1,4.6 c1.7,2.5,3.1,4.6,3.1,4.6c0,0.1-6.4,4.8-6.5,4.8C26.7,37,25.9,35.9,24.9,34.5L24.9,34.5z" />
</svg>