<!-- (c) Carrd Inc. All rights reserved. All logos and trademarks are property of their respective owners. -->
<svg xmlns="http://www.w3.org/2000/svg" id="icon">
<path d="M36,11.1c0,0.7,0,1.4,0,2.1c0,0.1,0,0.2,0,0.3c-0.1,1.7-0.4,3.3-0.9,4.8c-0.1,0.5-0.1,0.9,0,1.4c0.2,1,0.4,1.9,0.5,2.9 c0.2,2.3-0.2,4.6-1.1,6.7c-0.4,1-1,2-1.9,2.7c-0.6,0.5-1.3,0.9-2.1,1.2c-2.1,0.9-4.2,1.7-6.2,2.8c-0.8,0.4-1.6,0.7-2.4,0.8 c-0.5,0.1-1,0.1-1.5,0.2c-0.3,0-0.6,0-0.9,0c-0.1,0-0.2,0-0.3-0.1c-1-0.1-1.9-0.2-2.8-0.6c-0.9-0.4-1.9-0.9-2.8-1.3 c-1.4-0.6-2.8-1.2-4.1-1.7c-1.8-0.7-3-2-3.8-3.8c-0.4-1-0.8-2.1-1-3.2c-0.3-2-0.3-4,0.1-5.9c0.2-0.9,0.2-1.7-0.1-2.6 c-0.3-0.9-0.4-1.9-0.6-2.9c-0.1-0.5-0.1-1.1-0.2-1.6c0-0.7,0-1.4,0-2.1c0-0.1,0-0.2,0.1-0.3c0.1-1.5,0.4-3,0.8-4.4 C5,5.7,5.3,5.2,6,5c0.1,0,0.3,0,0.4,0c0.2,0.1,0.4,0.1,0.5,0.2c2.7,1.4,5,3.3,7,5.6c0.4,0.4,0.7,0.8,1,1.3c3.4-1.8,6.7-1.8,10.1,0 c0.1-0.1,0.1-0.2,0.2-0.2c1.5-2,3.3-3.7,5.4-5.1c0.9-0.6,1.9-1.3,3-1.7c0.1,0,0.3,0,0.4,0c0.5,0.2,0.9,0.4,1,1 c0.3,1.2,0.5,2.4,0.8,3.6C35.9,10.1,35.9,10.6,36,11.1z"/>
</svg>