<!-- (c) Carrd Inc. All rights reserved. All logos and trademarks are property of their respective owners. -->
<svg xmlns="http://www.w3.org/2000/svg" id="icon">
<path d="M29.4,16.6c0,1.3,0,2.7,0,4c-0.1,1.5,0.4,2.8,1.4,4c0.1,0.1,0.2,0.3,0.3,0.4c0.3,0.5,0.3,0.9-0.2,1.3c-1,0.8-2,1.7-3,2.6 c-0.6,0.5-1,0.5-1.6,0c-0.8-0.7-1.5-1.5-2-2.4c-0.1-0.2-0.2-0.2-0.4,0c-1,1-2.1,1.9-3.4,2.4c-2.1,0.7-4.2,0.8-6.3,0.1 c-2-0.7-3.2-2.2-3.7-4.3c-0.5-2.3-0.2-4.5,1.2-6.5c1.1-1.5,2.6-2.4,4.3-2.9c1.8-0.5,3.6-0.8,5.5-0.9c0.5-0.1,1-0.1,1.6-0.2 c0.1,0,0.2,0,0.2-0.2c0-0.8,0.1-1.7-0.1-2.5c-0.3-1.1-1-1.7-2-1.9c-0.8-0.2-1.5-0.1-2.3,0.1c-1.1,0.4-1.8,1.2-2.1,2.3 c-0.2,0.6-0.4,0.9-1.1,0.8c-1.3-0.1-2.6-0.3-3.9-0.4c-0.5-0.1-0.8-0.5-0.7-1c0.7-3.3,2.9-5.2,6-6.1c2.4-0.7,4.9-0.7,7.3,0 c1.9,0.5,3.6,1.5,4.5,3.4c0.5,1.1,0.6,2.3,0.7,3.4C29.4,13.6,29.4,15.1,29.4,16.6C29.4,16.6,29.4,16.6,29.4,16.6z M23.1,19.1 c0-0.4,0-0.8,0-1.2c0-0.2-0.1-0.3-0.3-0.3c-0.6,0.1-1.2,0.1-1.8,0.1c-1.1,0.1-2.1,0.4-3,1.1c-1.3,1-1.5,2.3-1.3,3.8 c0.2,1.8,1.8,2.8,3.5,2.2c1.2-0.4,1.9-1.3,2.3-2.3C23.1,21.5,23.1,20.3,23.1,19.1z M20.2,37.2c-6.1,0-11.6-1.6-16.6-4.9 c-1-0.7-2-1.4-2.9-2.2c-0.1-0.1-0.2-0.1-0.2-0.2c-0.1-0.1-0.2-0.3,0-0.4c0.1-0.2,0.3-0.2,0.4-0.1c0.4,0.2,0.7,0.4,1,0.5 c3.2,1.7,6.5,2.9,10,3.6c3.2,0.7,6.3,1,9.6,0.9c4.6-0.1,9.1-1.1,13.4-2.8c0.2-0.1,0.4-0.2,0.6-0.2c0.3-0.1,0.6,0,0.7,0.3 c0.1,0.3,0,0.5-0.3,0.7c-0.2,0.1-0.3,0.2-0.5,0.4c-2.8,1.8-5.8,2.9-9,3.7C24.3,37,22.2,37.2,20.2,37.2z M35.6,30.1 c-0.9,0-1.8,0.1-2.7,0.2c-0.2,0-0.4,0.1-0.5-0.1c-0.1-0.2,0.1-0.3,0.2-0.4c1.1-0.8,2.4-1.1,3.8-1.1c0.9-0.1,1.8,0,2.7,0.3 c0.4,0.1,0.6,0.4,0.6,0.8c0,2.2-0.8,4.2-2.4,5.7c-0.1,0.1-0.1,0.1-0.2,0.2c-0.1,0.1-0.3,0.2-0.5,0.1c-0.1-0.1-0.1-0.3,0-0.4 c0.5-1.2,1-2.3,1.2-3.6c0-0.2,0-0.3,0-0.5c0-0.5-0.2-0.7-0.7-0.9C36.7,30.1,36.1,30.1,35.6,30.1z"/>
</svg>