<!-- (c) Carrd Inc. All rights reserved. All logos and trademarks are property of their respective owners. -->
<svg xmlns="http://www.w3.org/2000/svg" id="icon">
<path d="M20.6,29.8c0.3-0.3,0.6-0.4,0.7-0.6c2.6-3.3,4.8-6.8,6.3-10.7c0.4-1,0.6-2.1,0.8-3.2c0.4-2-0.2-3.7-1.9-4.9 c-0.6-0.4-1.2-0.9-1.9-1.5c0.8-1.1,1.8-2,3-2.5c1.8-0.8,4.6-1,6.1,0.6c0.6,0.6,1,1.5,1.1,2.3c0.4,2.7-0.5,5.2-1.6,7.6 c-2.2,4.8-5.5,8.9-8.5,13.2c-1.3,1.8-2.7,3.5-4.1,5.3c-0.2,0.2-0.5,0.5-0.8,0.5c-1.8,0.2-3.5,0.3-5.4,0.4c-0.3-1.4-0.5-2.8-0.8-4.2 c-0.9-4.8-1.7-9.5-2.5-14.3c-0.4-2-0.7-4-1.1-6c-0.1-0.5-0.3-0.7-0.9-0.7c-1.4,0-2.8,0-4.2,0C4.2,11.3,4,11,4,10.4 C4,10,3.9,9.5,4.1,9.1c0.1-0.4,0.5-0.9,0.8-1c2.2-0.6,4.4-1.2,6.6-1.7C12.3,6.2,13.1,6,13.8,6c1.5,0,2.7,0.4,3.1,2.4 c0.7,3.6,1.3,7.2,1.9,10.8C19.5,22.6,20,26.1,20.6,29.8z"/>
</svg>