<!-- (c) Carrd Inc. All rights reserved. All logos and trademarks are property of their respective owners. -->
<svg xmlns="http://www.w3.org/2000/svg" id="icon">
<path d="M39.6,25.2h-1.8c-0.2,0-0.4-0.2-0.4-0.4l0-6.9c0-0.3-0.2-0.6-0.6-0.7h-0.1h-0.2h-0.1c-0.1,0-0.2,0.1-0.3,0.1 c-0.2,0.1-0.3,0.3-0.3,0.6l0,6.9c0,0.2-0.2,0.4-0.4,0.4h-1.8c-0.2,0-0.4-0.2-0.4-0.4l0-6.9c0-0.2-0.1-0.4-0.2-0.5 c-0.1-0.1-0.2-0.1-0.4-0.1h-0.1h-0.2h-0.1c-0.4,0-0.6,0.3-0.6,0.6c0,0,0,0,0,0.1l0,6.9c0,0.2-0.2,0.3-0.4,0.3h-1.8 c-0.2,0-0.4-0.2-0.4-0.4v-9.7c0-0.2,0.2-0.4,0.4-0.4h1.8c0.2,0,0.4,0.2,0.4,0.4v0.2c0.5-0.4,1.1-0.6,1.7-0.6h0 c0.8,0,1.4,0.3,1.9,0.8c0.5-0.5,1.2-0.8,1.9-0.8h0c1.2,0,2.2,0.7,2.5,1.8c0.1,0.2,0.1,0.4,0.1,0.9v7.4C40,25,39.8,25.2,39.6,25.2z M27.8,17.3h-1l0,7.5c0,0.2-0.2,0.4-0.4,0.4h-1.8c-0.2,0-0.4-0.2-0.4-0.4l0-7.5h-1.1c-0.2,0-0.4-0.2-0.4-0.4v-1.8 c0-0.2,0.1-0.3,0.3-0.4l0,0h0c0,0,0.1,0,0.1,0h0.2h0c2.1-0.1,1.8-1.7,3-2c0,0,0,0,0.1,0c0.2,0,0.4,0.2,0.4,0.4c0,0,0,0,0,0v1.6h1 c0.2,0,0.4,0.2,0.4,0.4v1.8C28.2,17.1,28,17.3,27.8,17.3z M19.1,25.2h-2.9c-0.2,0-0.4-0.2-0.4-0.4V23c0-0.2,0.2-0.4,0.4-0.4l2.6,0 c0,0,0,0,0,0c0.2,0,0.4-0.2,0.4-0.4c0-0.2-0.2-0.4-0.4-0.4c0,0-1.2,0-1.2,0c-1.5,0-2.6-1.1-2.6-2.6v-4c0-0.2,0.2-0.4,0.4-0.4h1.8 c0.2,0,0.4,0.2,0.4,0.4l0,3.7c0,0.2,0.2,0.4,0.4,0.4h0.7c0.2,0,0.4-0.2,0.4-0.4v-3.7c0-0.2,0.2-0.4,0.4-0.4h1.8 c0.2,0,0.4,0.2,0.4,0.4v7.4C21.8,24.1,20.7,25.2,19.1,25.2z M13.1,25.2H9.8c-1.5,0-2.5-1-2.5-2.5v-0.1v-2c0-1.4,1.1-2.5,2.7-2.5h1.2 c0.2,0,0.3-0.2,0.3-0.4v-0.2c0-0.2-0.2-0.3-0.4-0.4H8.8c-0.2,0-0.4-0.2-0.4-0.4v-0.9c0,0,0,0,0,0c0,0,0,0,0,0v-0.7 c0-0.2,0.2-0.4,0.4-0.4h2.5c2,0,2.9,1,2.9,2.7v6.7C14.1,24.7,13.6,25.2,13.1,25.2z M11.5,22.2v-1.2c0-0.2-0.2-0.4-0.4-0.4h-0.7 c-0.2,0-0.4,0.2-0.4,0.4l0,0v0.2v0.1v0l0,0.9c0,0,0,0,0,0v0.3c0,0.2,0.2,0.4,0.4,0.4h0.7c0.2,0,0.3-0.1,0.4-0.3c0,0,0,0,0-0.1 c0,0,0,0,0-0.1V22.2z M4.3,22.1H2.6l0,2.7c0,0.2-0.2,0.4-0.4,0.4H0.4h0C0.2,25.2,0,25,0,24.8v-2.3v-5.6c0,0,0,0,0,0c0,0,0,0,0,0 v-1.7c0-0.2,0.2-0.4,0.4-0.4h3.9c1.4,0,2.4,1,2.4,2.4v2.5C6.7,21.1,5.7,22.1,4.3,22.1z M4.1,18.8V18v-0.3c0-0.2-0.2-0.4-0.4-0.4H2.6 v2.2l1.1,0c0.2,0,0.4-0.2,0.4-0.4V18.8z"/>
</svg>