<!-- (c) Carrd Inc. All rights reserved. All logos and trademarks are property of their respective owners. -->
<svg xmlns="http://www.w3.org/2000/svg" id="icon">
<path d="M7.1,13.3c5.6,0,11.1,0,16.7,0c0,1.5,0,3.1,0,4.6c0.7-0.7,1.5-1.5,3.2-1.3c2.6,0.3,3.8,3,3.6,5.6c-0.1,1.1-0.5,2.4-1.3,3.1 c-0.9,0.9-2.9,1.4-4.6,0.5c-0.4-0.2-0.7-0.6-1-1.1c0,0.4,0,0.8,0,1.3c-0.6,0-1.3,0-1.9,0c0-4.2,0-8.3,0-12.5 c-2.3,3.9-4.6,8.4-6.9,12.5c-4.9,0-9.8,0-14.7,0C2.5,21.7,4.8,17.5,7.1,13.3L7.1,13.3z M24.3,19c-1.4,1.9-0.4,6.7,2.8,5.5 c2.4-0.9,2-6.6-1.2-6.3C25.2,18.3,24.7,18.5,24.3,19L24.3,19z"/> <path d="M39.7,19.9c-0.6,0-1.3,0-2,0c0-1.6-1.9-2-3.1-1.5c-2.3,1.1-1.8,7.1,1.6,6.2c0.8-0.2,1.2-0.9,1.4-2c0.6,0,1.3,0,2,0 c-0.1,2.4-2.1,3.9-4.4,3.7c-2.1-0.1-3.8-1.8-4-4.2c-0.2-2.9,1.3-5.9,5-5.5C38.3,16.8,39.6,17.9,39.7,19.9z"/>
</svg>