<!-- (c) Carrd Inc. All rights reserved. All logos and trademarks are property of their respective owners. -->
<svg xmlns="http://www.w3.org/2000/svg" id="icon">
<path d="M30.5,28.2c0-2,0-4,0-6c0-3.5,0-7,0-10.4c1.7,0,3.4,0,5.1,0c0,4,0,8,0,12.1c1.5,0,3,0,4.4,0c0,1.4,0,2.9,0,4.3 C36.9,28.2,33.7,28.2,30.5,28.2z M23.5,27.9c-0.5,0.1-1,0.3-1.5,0.3c-1.9,0-3.8,0-5.7,0c0-5.5,0-10.9,0-16.4c2.3,0,4.6,0,6.9,0 c0.4,0.1,0.8,0.2,1.2,0.4c1.4,0.7,2.2,1.8,2.9,3.2c0.6,1.2,0.8,2.4,0.9,3.7c0.3,2.4-0.2,4.7-1.7,6.7C25.8,26.8,24.8,27.5,23.5,27.9z M23.1,18.5c-0.4-0.6-1.2-0.8-2.1-0.8c0,1.4,0,3.1,0,4.4c1,0,1.8-0.3,2.2-0.9C23.7,20.5,23.7,19.2,23.1,18.5z M8.9,20.2 c-0.7,1-1.2,1.9-1.8,2.9c-0.6-1-1.3-1.9-1.8-2.8H5.2c0,0.2,0,0.4,0,0.5c0,2,0,4.1,0,6.1c0,0.4,0,0.8,0,1.3c-1.7,0-3.4,0-5.2,0 c0-5.5,0-10.9,0-16.4c1.6,0,3.2,0,4.8,0c0.6,1.1,1.4,2.2,2.1,3.4c0.8-1.2,1.5-2.3,2.3-3.4c1.5,0,3.1,0,4.6,0c0,5.5,0,10.9,0,16.4 c-1.7,0-3.4,0-5.1,0C8.9,25.6,8.9,23,8.9,20.2z"/>
</svg>