<!-- (c) Carrd Inc. All rights reserved. All logos and trademarks are property of their respective owners. -->
<svg xmlns="http://www.w3.org/2000/svg" id="icon">
<path d="M33.8,24.9c-2.6,0-5.3,0-7.9,0c0,0,0,0,0,0c-2.6,0-5.2,0-7.8,0c-1.5,0-2.5-1.3-2.2-2.7c0.2-1,1.1-1.8,2.1-1.8 c5.3,0,10.5,0,15.8,0c1.2,0,2.2,1,2.2,2.2C36,23.8,35,24.9,33.8,24.9z M29.5,17c-0.8,0.8-2.2,0.9-3.1,0c-1.2-1.2-2.4-2.3-3.5-3.5 c-1.8-1.8-4-2.2-6.2-0.8c-0.7,0.4-1.2,1.1-1.8,1.7c-1.7,1.6-3.3,3.3-4.9,5C8,21.2,8,24,9.8,25.9c2.1,2.2,4.3,4.4,6.5,6.5 c1.5,1.5,4.3,1.4,6-0.1c1.2-1.1,2.3-2.3,3.5-3.5c0.4-0.4,0.9-0.8,1.4-1c0.9-0.4,2,0.1,2.5,0.9c0.5,0.9,0.4,2-0.3,2.8 c-0.4,0.4-0.8,0.9-1.3,1.3c-0.9,0.9-1.7,1.8-2.6,2.6c-3.2,3.1-8.3,3.4-11.8,0.7c-1.2-0.9-2.2-2-3.2-3c-1.4-1.3-2.7-2.7-4-4.1 c-3.4-3.5-3.4-9.1-0.1-12.6c2.3-2.4,4.6-4.7,7-7c2.9-2.9,5.8-5.8,8.7-8.7c0.9-0.9,2.2-0.9,3.1-0.2c1,0.9,1,2.4,0.1,3.3 C24.2,5,23.1,6.1,22,7.2c-0.1,0.1-0.2,0.2-0.4,0.4c1.5,0.4,2.7,1,3.7,2c1.4,1.4,2.9,2.8,4.2,4.2C30.4,14.8,30.3,16.1,29.5,17z"/>
</svg>