<!-- (c) Carrd Inc. All rights reserved. All logos and trademarks are property of their respective owners. -->
<svg xmlns="http://www.w3.org/2000/svg" id="icon">
<path d="M25.2,10.3l-2.1,6.1l2.2,0.4c2.1-5.6,3-8.8,3-9.7c0-0.7-0.2-1-0.7-1C26.9,6.1,26,7.5,25.2,10.3L25.2,10.3z M19.6,23.1 l0.6,1.6c0.5-0.6,0.9-1,1.3-1.2l-0.6-0.1c0,0-0.3,0-0.8-0.1S19.5,23.1,19.6,23.1z M14.1,6.4c0,1.2,1,4.5,2.9,9.7 c0.2-0.1,0.6-0.2,1-0.2c0.2,0,0.7,0,1.4,0.1l-2.3-6.5c-1-2.8-1.7-4.1-2.3-4.1c-0.2,0-0.4,0.1-0.6,0.3C14.2,5.9,14.1,6.2,14.1,6.4 L14.1,6.4z M12.6,20.6c0,0.5,0.3,1.2,1,2.2c0.7,1,1.3,2,2.2,2.9c0.9,0.9,1.4,1.3,1.9,1.3c0.2,0,0.4-0.1,0.5-0.3s0.2-0.3,0.2-0.5 c0-0.3-0.2-1-0.6-1.9c-0.2-0.4-0.4-0.9-0.6-1.3c-0.2-0.5-0.6-1-0.9-1.6c-0.4-0.6-0.8-1.1-1.1-1.5c-0.4-0.4-0.8-0.6-1.1-0.6 c-0.3,0-0.6,0.2-0.9,0.5C12.8,20.1,12.6,20.4,12.6,20.6L12.6,20.6z M9.7,26.8c0,0.5,0.2,1.1,0.5,1.9c0.8,1.8,1.9,3.2,3.4,4.3 c1.5,1,3.3,1.5,5.2,1.5c2.9,0,5.2-1,7.1-3.1c1.9-2.1,2.9-4.8,2.9-8c0-0.6,0-1,0-1.2s-0.1-0.7-0.2-1.1s-0.3-0.9-0.6-1 c-0.7-0.6-2-1-4-1.4s-3.6-0.5-5-0.5c-0.5,0-0.8,0.1-1,0.2s-0.2,0.3-0.2,0.7c0,0.4,0.1,0.8,0.4,1.1s0.6,0.6,1,0.8s1,0.3,1.4,0.5 c0.6,0.1,1,0.2,1.6,0.2c0.6,0,1,0.1,1.6,0.1s1,0,1.3,0h0.4c0.3,0,0.6,0.1,0.8,0.4c0.2,0.2,0.3,0.6,0.4,1c-0.4,0.4-1,0.7-1.8,1 c-0.8,0.3-1.3,0.6-1.7,0.9c-0.8,0.6-1.4,1.2-2,2.1c-0.6,0.9-0.9,1.7-0.9,2.6c0,0.4,0.1,1,0.4,1.6c0.2,0.8,0.4,1.2,0.4,1.6L21.1,33 C21,33.2,21,33.2,21,33.3c-1.7-0.1-2.6-1.4-2.8-4c-0.1,0-0.4,0-0.8,0c0,0.1,0,0.2,0,0.4c0,0.7-0.3,1.2-0.8,1.7 c-0.5,0.5-1,0.7-1.8,0.7c-1,0-2.1-0.5-3.1-1.4s-1.6-2-1.6-2.9c0-0.4,0.2-0.9,0.6-1.2c0.7,0.8,1,1.2,1.1,1.4c1,1.3,1.8,1.9,2.5,1.9 c0.2,0,0.3-0.1,0.5-0.2s0.3-0.2,0.3-0.4c0-0.4-0.6-1.3-1.6-2.7s-1.8-2.1-2.2-2.1c-0.6,0-1,0.3-1.3,0.9C9.9,25.7,9.7,26.3,9.7,26.8 L9.7,26.8z M7.5,27c0-1.2,0.3-2.3,0.8-3c0.6-0.8,1.4-1.3,2.6-1.6c-0.4-1-0.6-1.5-0.6-1.9c0-0.8,0.4-1.5,1.1-2.3s1.5-1.1,2.3-1.1 c0.4,0,0.8,0.1,1.3,0.3c-2-5.9-2.9-9.4-2.9-10.6c0-1,0.3-1.8,0.8-2.5c0.5-0.7,1.2-1,2.2-1c1.6,0,3.6,3.6,6.1,10.8 c0.1,0.2,0.1,0.4,0.2,0.5c0.1-0.2,0.3-0.7,0.6-1.5c0.3-0.8,0.6-1.5,0.9-2.2s0.6-1.5,1-2.4c0.4-0.9,0.9-1.7,1.2-2.3s0.9-1.1,1.3-1.6 c0.3-0.5,0.8-0.8,1.2-0.8c0.9,0,1.6,0.3,2.1,1s0.8,1.4,0.8,2.3c0,1.3-1,4.8-2.9,10.3c0.8,0.2,1.4,0.5,1.9,0.9s0.9,0.9,1,1.4 s0.4,1.1,0.5,1.7c0.1,0.6,0.1,1.2,0.1,2.1c0,1.9-0.3,3.6-0.9,5.2c-0.6,1.6-1.4,3-2.5,4.2c-1,1.1-2.4,2.1-3.9,2.8s-3.3,1-5.2,1 c-1.4,0-2.8-0.3-4.2-0.8c-1.9-0.7-3.4-1.9-4.8-3.6C8.3,30.7,7.6,28.9,7.5,27L7.5,27z"/>
</svg>