<!-- (c) Carrd Inc. All rights reserved. All logos and trademarks are property of their respective owners. -->
<svg xmlns="http://www.w3.org/2000/svg" id="icon">
<path d="M7,4.1c-0.4,0-0.8,0.1-1.2,0.2l2.8,2.5l-3.1,3.5L2.7,7.7C2.6,8,2.6,8.3,2.6,8.6C2.6,11,4.6,13,7,13c0.5,0,0.9-0.1,1.3-0.2 L12,16c0.7-1.5,1.7-2.7,2.9-3.7l-3.5-3.1c0-0.2,0-0.4,0-0.7v0C11.4,6.1,9.5,4.1,7,4.1L7,4.1z M28.3,24.2c-0.6,1.5-1.5,2.9-2.6,3.9 l2.9,2.6c0,0.2-0.1,0.5-0.1,0.7c0,2.4,2,4.4,4.4,4.4c0.4,0,0.9-0.1,1.3-0.2l-2.9-2.6l3.1-3.4l2.9,2.6c0-0.3,0.1-0.5,0.1-0.8v0 c0-2.4-2-4.4-4.4-4.4c-0.4,0-0.9,0.1-1.3,0.2L28.3,24.2L28.3,24.2z"/> <path d="M33,4.1c-2.4,0-4.4,2-4.4,4.4v0c0,0.2,0,0.4,0,0.7l-3.5,3.1c1.2,0.9,2.2,2.2,2.9,3.7l3.6-3.2c0.4,0.1,0.9,0.2,1.3,0.2 c2.4,0,4.4-2,4.4-4.4c0-0.3,0-0.6-0.1-0.9l-2.8,2.5l-3.1-3.5l2.8-2.5C33.8,4.2,33.4,4.1,33,4.1L33,4.1z M11.7,24.2l-3.3,3 C7.9,27.1,7.5,27,7,27c-2.4,0-4.4,2-4.4,4.4v0c0,0.3,0,0.5,0.1,0.8l2.9-2.6l3.1,3.4l-2.9,2.6c0.4,0.1,0.8,0.2,1.3,0.2 c2.4,0,4.4-2,4.4-4.4c0-0.2,0-0.5-0.1-0.7l2.9-2.6C13.1,27.1,12.2,25.7,11.7,24.2L11.7,24.2z"/> <path d="M20,11.3c-4.6,0-8.3,4.1-8.3,9.2c0,3.1,1.4,5.9,3.6,7.6c-0.1,0.2-0.2,0.5-0.2,0.8c0,0.9,0.7,1.6,1.6,1.6s1.6-0.7,1.6-1.6 c0-0.1,0-0.1,0-0.2h0.2c0,0.1,0,0.2,0,0.2c0,0.9,0.7,1.6,1.6,1.6s1.6-0.7,1.6-1.6c0-0.1,0-0.2,0-0.2h0.3c0,0.1,0,0.2,0,0.2 c0,0.9,0.7,1.6,1.6,1.6c0.9,0,1.6-0.7,1.6-1.6c0-0.3-0.1-0.6-0.3-0.9c2.2-1.7,3.6-4.4,3.6-7.6C28.3,15.4,24.6,11.3,20,11.3L20,11.3z M16.4,18.1c0.5,0,0.9,0.1,1.3,0.4c0.3,0.2,0.6,0.6,0.8,1c0.2,0.5-0.1,1-0.4,1.3c-0.3,0.2-0.6,0.4-0.9,0.5c-0.4,0.1-0.8,0.3-1.2,0.5 c-0.2,0.1-0.3,0.3-0.4,0.5c-0.1,0.2,0,0.5-0.2,0.7c-0.2,0.2-0.5,0-0.6-0.2c-0.4-0.3-0.7-0.7-0.8-1.1C14,21.3,14,20.9,14,20.5 c0-0.5,0.2-0.9,0.5-1.3c0.3-0.5,0.8-0.9,1.4-0.9C16.1,18.2,16.3,18.1,16.4,18.1L16.4,18.1z M23.6,18.1c0.2,0,0.3,0,0.5,0.1 c0.6,0.1,1.1,0.5,1.4,0.9c0.3,0.4,0.5,0.8,0.5,1.3c0,0.4,0,0.8-0.1,1.2c-0.1,0.5-0.4,0.8-0.8,1.1c-0.2,0.1-0.4,0.3-0.6,0.2 c-0.1-0.2,0-0.5-0.2-0.7c0-0.2-0.2-0.4-0.4-0.5c-0.4-0.2-0.8-0.4-1.2-0.5c-0.3-0.1-0.6-0.3-0.9-0.5c-0.4-0.3-0.6-0.8-0.4-1.3 c0.2-0.4,0.5-0.7,0.8-1C22.6,18.3,23.1,18.1,23.6,18.1L23.6,18.1z M20,22.9c0.4,0,0.9,1.9,0.8,2.6c-0.4,1.1-0.3-0.7-0.8-0.7 c-0.5,0-0.6,1.8-0.8,0.7C19.1,24.7,19.6,22.8,20,22.9z"/>
</svg>