<!-- (c) Carrd Inc. All rights reserved. All logos and trademarks are property of their respective owners. -->
<svg xmlns="http://www.w3.org/2000/svg" id="icon">
<path d="M15.9,38.3c-12.2,0-13.4-19.8-7.6-19.8c13.5-0.3,13.9-0.4,21.3-1.1C41.6,16.4,27.5,38.3,15.9,38.3z M28.5,21.1 c-4.3,0.1-7.4,0.5-19.5,1c-1.7,0.1-3.2,12.4,7.2,12.4C24.5,34.5,33,21,28.5,21.1z M27.9,11L27.9,11c-2.7,0.1-3.8-1.5-3.6-3.2 c0.2-1.5,1.5-3,3.6-3.2c2.7-0.2,4.3,1.5,4.3,3.2C32.2,9.4,30.9,10.9,27.9,11z M12.6,11.4C10,11.5,9,9.9,9.2,8.3 c0.3-1.8,1.8-3.2,3.7-3.2c2.6,0,3.9,1.3,4.1,2.7C17.2,9.5,15.7,11.4,12.6,11.4z M12.6,11.4C12.6,11.4,12.6,11.4,12.6,11.4 C12.6,11.4,12.6,11.4,12.6,11.4L12.6,11.4z"/>
</svg>