<!-- (c) Carrd Inc. All rights reserved. All logos and trademarks are property of their respective owners. -->
<svg xmlns="http://www.w3.org/2000/svg" id="icon">
<path d="M4.7,28.7c-2.1-1-5.4-12.3-4.6-15.6c0.5-1.8,2-2.1,11.1-2.1c10.8,0,11.4,0.3,10.5,5.7c-0.4,2.7-1.8,7.4-3,10.1 c-1.3,3-3.3,2.8-5.7-0.8c-2.1-3.1-2.3-3.1-4.8,0.7C6.9,28.8,6,29.3,4.7,28.7L4.7,28.7z M28.8,28.7c-4.5-1.7-6.8-6.8-5.3-11.8 c0.6-2,2.9-4.4,4.9-5.2c2.6-1,6.3-0.9,8.3,0.3c4.2,2.3,4.3,7.1,0.3,9.2c-1.3,0.7-4.4,0.6-5.7,0c-1.2-0.6-1.2-0.5-0.7,1.2 c0.7,2.1,3.1,2.9,5.9,2.1c2.3-0.7,2.6-0.7,3.1,0.2c0.6,1-0.5,2.7-2.3,3.7C35.5,29.1,30.7,29.4,28.8,28.7L28.8,28.7z"/>
</svg>