<!-- (c) Carrd Inc. All rights reserved. All logos and trademarks are property of their respective owners. -->
<svg xmlns="http://www.w3.org/2000/svg" id="icon">
<path d="M33.6,35H6.4C5.6,35,5,34.4,5,33.6V6.4C5,5.6,5.6,5,6.4,5H20c0.8,0,1.4,0.6,1.4,1.4v4.2c0,0.8-0.6,1.4-1.4,1.4 c-0.8,0-1.4-0.6-1.4-1.4V7.9H7.8v24.3h24.3V7.9h-3.5c-0.8,0-1.4-0.6-1.4-1.4c0-0.8,0.6-1.4,1.4-1.4h4.9C34.4,5,35,5.6,35,6.4v27.1 C35,34.4,34.4,35,33.6,35z M23.1,23.5c-0.9,0.8-2.1,1.6-3,2c-0.9-0.4-2.1-1.2-3-2c-1.8-1.5-2.7-2.9-2.7-4.3c0-1.7,1.1-2.9,2.7-2.9 c0.7,0,1.1,0.1,1.6,0.3c0.3,0.1,0.5,0.3,0.7,0.5l0.7,0.7l0.7-0.7c0.2-0.2,0.5-0.4,0.7-0.5c0.5-0.2,0.9-0.3,1.6-0.3 c1.5,0,2.7,1.2,2.7,2.9C25.7,20.5,24.9,22,23.1,23.5z"/>
</svg>