<!-- (c) Carrd Inc. All rights reserved. All logos and trademarks are property of their respective owners. -->
<svg xmlns="http://www.w3.org/2000/svg" id="icon">
<path d="M38,20.1l-8.9,15.3c0,0-0.1,0.1-0.1,0.1h-4.7c-0.1,0-0.2-0.1-0.1-0.2L33,20L24.1,4.7c-0.1-0.1,0-0.2,0.1-0.2 h4.7c0.1,0,0.1,0,0.1,0.1L38,19.9C38,20,38,20,38,20.1z M27.9,18.2h-4.7c-0.1,0-0.1,0-0.1-0.1L15.3,4.7c-0.1-0.1,0-0.2,0.1-0.2h4.7 c0.1,0,0.1,0,0.1,0.1L28,18C28.1,18.1,28,18.2,27.9,18.2z M20.3,20.1l-9,15.3c-0.1,0.1-0.2,0.1-0.3,0L2,20.1c0,0,0-0.1,0-0.2l9-15.3 c0.1-0.1,0.2-0.1,0.3,0l9.1,15.3C20.3,20,20.3,20,20.3,20.1z M22.9,22.1c0,0,0.1-0.1,0.1-0.1h4.7c0.1,0,0.2,0.1,0.1,0.2l-7.7,13.2 c0,0-0.1,0.1-0.1,0.1h-4.7c-0.1,0-0.2-0.1-0.1-0.2L22.9,22.1z"/>
</svg>