<!-- (c) Carrd Inc. All rights reserved. All logos and trademarks are property of their respective owners. -->
<svg xmlns="http://www.w3.org/2000/svg" id="icon">
<path d="M29.4,35.3l8.6,3.3l-2.7-6.9H11.6c-1.9,0-3.5-1.6-3.5-3.5c0-1.1,0.5-2.2,1.4-2.9l13.8-12.2H13.1c-0.8,0.1-1.6,0-2.3-0.2 c-0.7-0.3-1.2-0.8-1.5-1.5C9.1,10.6,9,9.8,9.1,9V7.5h18.7c1.9,0,3.5,1.6,3.5,3.5c0,0.9-0.3,1.8-0.9,2.6c-0.2,0.2-0.4,0.4-0.7,0.6 L16,26.3h19.3v-14c0-2,0-3.3-0.4-4.5c-0.5-1.6-1.8-2.8-3.3-3.4c-1.3-0.4-2.4-0.4-4.4-0.4H12.1c-2,0-3.1,0-4.4,0.4 C6.2,4.9,5,6.1,4.4,7.7C4,9,4,10.3,4,12.2v14.6c0,2.1,0,3.3,0.4,4.6c0.5,1.6,1.8,2.8,3.3,3.4c1.3,0.4,2.4,0.4,4.4,0.4L29.4,35.3z"/>
</svg>