<!-- (c) Carrd Inc. All rights reserved. All logos and trademarks are property of their respective owners. -->
<svg xmlns="http://www.w3.org/2000/svg" id="icon">
<path d="M5.3,19.6C5.3,14.1,9.3,4,21.4,4c4.1,0,7.1,1.3,8.2,1.8c0.3,0.1,0.4,0.4,0.3,0.7L28.6,10c-0.1,0.2-0.2,0.3-0.3,0.3 c-0.1,0.1-0.3,0.1-0.5,0C26.8,9.8,24.7,9,21.3,9c-5.6,0-10.2,4.5-10.2,10.5c0,5,2.6,11.1,10.5,11.1c3.2,0,6-0.9,7.2-1.3 c0.1-0.1,0.3,0,0.4,0c0.1,0.1,0.2,0.2,0.3,0.3l1.2,3.5c0.1,0.3,0,0.6-0.3,0.7c-1.1,0.6-4.3,2.1-8.7,2.1C11,36,5.3,28,5.3,19.6z"/>
</svg>