<!-- (c) Carrd Inc. All rights reserved. All logos and trademarks are property of their respective owners. -->
<svg xmlns="http://www.w3.org/2000/svg" id="icon">
<path d="M8.4,18c-0.1-0.2-0.1-0.5-0.1-0.9c0-0.2,0.1-0.5,0.2-0.9s0.3-0.6,0.4-0.8c0-0.3,0-0.6,0.1-0.9c0.1-0.4,0.2-0.6,0.4-0.8 c0-1.7,0.6-3.4,1.7-5.2s2.4-3,3.9-3.7c1.7-0.8,3.6-1.2,5.8-1.2c1.6,0,3.2,0.3,4.8,1c0.6,0.3,1.1,0.5,1.6,0.9c0.5,0.3,0.9,0.7,1.3,1 c0.4,0.3,0.7,0.8,1,1.2c0.3,0.5,0.5,0.9,0.8,1.3c0.2,0.4,0.4,0.9,0.6,1.5s0.3,1.1,0.5,1.6c0.1,0.5,0.3,1.1,0.4,1.8l0,0.1 c0.7,1,1,1.9,1,2.7c0,0.2-0.1,0.4-0.2,0.7s-0.2,0.5-0.2,0.7c0,0,0,0,0,0.1c0,0,0,0.1,0.1,0.1s0,0.1,0,0.1c0.9,1.4,1.6,2.6,2.2,3.8 s0.8,2.4,0.8,3.7c0,0.5-0.1,1.1-0.3,1.8s-0.6,1-1,1c-0.1,0-0.2,0-0.3-0.1c-0.1-0.1-0.2-0.2-0.3-0.3s-0.2-0.3-0.3-0.5 c-0.1-0.2-0.2-0.3-0.3-0.5c-0.1-0.1-0.1-0.3-0.2-0.5s-0.1-0.3-0.2-0.3c0,0,0,0-0.1,0l-0.1,0.1c-0.7,1.8-1.5,3.2-2.4,4 c0.2,0.2,0.6,0.5,1.1,0.7s0.9,0.5,1.2,0.7c0.3,0.3,0.5,0.7,0.6,1.2c0,0,0,0.1-0.1,0.3c0,0.1-0.1,0.3-0.1,0.3 c-0.8,1.2-2.6,1.7-5.4,1.7c-0.6,0-1.3-0.1-2-0.2c-0.7-0.1-1.3-0.2-1.8-0.4s-1.1-0.3-1.9-0.5c-0.2-0.1-0.3-0.1-0.4-0.1 c-0.2,0-0.4-0.1-0.8-0.1c-0.4,0-0.6,0-0.7,0c-0.5,0.5-1.2,0.9-2.3,1.2s-2,0.4-3,0.4c-0.4,0-0.8,0-1.2,0c-0.4,0-1-0.1-1.7-0.2 c-0.7-0.1-1.3-0.2-1.8-0.4c-0.5-0.2-0.9-0.4-1.3-0.7c-0.4-0.3-0.6-0.7-0.6-1.1c0-0.5,0.1-0.8,0.2-1.1s0.4-0.5,0.7-0.9 c0.1,0,0.4-0.1,0.7-0.2c0.4-0.1,0.6-0.2,0.9-0.2c0,0,0.1,0,0.3,0c0,0,0,0,0-0.1l0-0.1c-0.6-0.1-1.2-0.8-1.9-1.9s-1.1-2.1-1.3-2.8 l-0.1-0.1c0,0-0.1,0.1-0.2,0.4c-0.2,0.5-0.5,0.9-1,1.3s-0.9,0.6-1.4,0.7h0c0,0-0.1,0-0.1-0.1c0-0.1-0.1-0.1-0.1-0.1 c-0.3-0.6-0.4-1.2-0.4-1.8C3.9,23,5.4,20.2,8.4,18L8.4,18z"/>
</svg>