<!-- (c) Carrd Inc. All rights reserved. All logos and trademarks are property of their respective owners. -->
<svg xmlns="http://www.w3.org/2000/svg" id="icon">
<path d="M20,38.6C9.9,38.6,1.5,30.2,1.5,20S9.9,1.4,20,1.4c10.3,0,18.7,8.5,18.5,18.6C38.5,30.2,30.1,38.6,20,38.6z M20,3.7C11.1,3.7,3.7,10.9,3.7,20S11,36.4,20,36.4c9,0,16.3-7.2,16.3-16.3S28.9,3.7,20,3.7z M26.8,22.3c-1.3,0-2.3-1.1-2.3-2.3 s1-2.3,2.3-2.3c1.3,0,2.3,1.1,2.3,2.3S28.1,22.3,26.8,22.3z M20,29.2c-1.3,0-2.3-1.1-2.3-2.3c0-1.3,1-2.3,2.3-2.3 c1.3,0,2.3,1.1,2.3,2.3C22.3,28.2,21.3,29.2,20,29.2z M20,22.3c-1.3,0-2.3-1.1-2.3-2.3s1-2.3,2.3-2.3c1.3,0,2.3,1.1,2.3,2.3 S21.3,22.3,20,22.3z M20,15.6c-1.3,0-2.3-1.1-2.3-2.3s1-2.3,2.3-2.3c1.3,0,2.3,1.1,2.3,2.3S21.3,15.6,20,15.6z M13.3,22.3 C12,22.3,11,21.3,11,20s1-2.3,2.3-2.3c1.3,0,2.3,1.1,2.3,2.3S14.6,22.3,13.3,22.3z" />
</svg>