<!-- (c) Carrd Inc. All rights reserved. All logos and trademarks are property of their respective owners. -->
<svg xmlns="http://www.w3.org/2000/svg" id="icon">
<path d="M36.3,26.7l-0.2,0c-3.3,0-8.4,0.1-8.8,0.1c-1.8,0.1-2.8,0.4-3.5,0.6c2.3,2.6,3.5,5.5,2.9,7.3 c-0.5,1.8-2.5,3.3-4.6,3.5c0,0-0.2,0-0.5,0c-1,0-3.5-0.3-5.1-2.6c-1.2-1.8-2.3-5.3,2.7-9c-0.2-0.2-0.4-0.3-0.6-0.5 c-1.3,0.5-2.7,0.8-4.1,1c-2.9,0.4-8.4,0.7-13,0.3L0,27.3l4-2.7l0.2,0c5.4,0.5,9.4,0,11.1-0.3l0.3,0c0.3,0,0.6-0.1,0.9-0.2l-0.1-0.1 c-0.1-0.1-0.3-0.3-0.5-0.4c-1.4-1.1-4.4-3.5-6.2-7.5c-1.4-3-1.3-6.5,0.3-9.2c2.2-3.8,5.8-5.6,10.6-5.2c5.7,0.4,8.4,5.6,9,7.1 c2.1,5-1.5,12-8.1,15.9c0.1,0.1,0.3,0.3,0.5,0.5c1.5-0.5,4-1.1,7.6-1.2c1.2,0,6.1-0.1,8.8,0l1.7,0L36.3,26.7z M21.7,35.6 c1.4-0.2,2.4-0.8,2.6-1.6c0.3-1.3-0.7-3.2-3-5.5c-2.1,1.3-3.9,4.3-2.9,6C18.7,35.1,19.4,35.9,21.7,35.6z M27.4,10 c-0.9-2.2-4-5.6-7.1-6c-0.2,0-0.5,0-0.7,0c-2.6,0-6,1.5-7.6,4.2c-1.1,1.9-1.2,3.7-0.2,6.1c0.1,0.3,0.4,0.9,0.6,1.2 c0.1,0.2,0.2,0.3,0.2,0.5c0.2,0.4,0.3,0.7,0.9,1.4c1.5,2,2.9,3.5,5.5,5.5l0.3,0.2C25,19.8,28.8,13.8,27.4,10z"/>
</svg>