<!-- (c) Carrd Inc. All rights reserved. All logos and trademarks are property of their respective owners. -->
<svg xmlns="http://www.w3.org/2000/svg" id="icon">
<path d="M32.5,1c0.7,0.5,0.7,0.8,0.2,1.5c-1,1.5-2,3-3.1,4.6c0.4,0.5,0.9,1,1.3,1.5c0.8,1.1,1,2.4,0.8,3.8c-0.3,1.7-1.6,2.6-3.7,2.4 c-1.1-0.1-2-0.5-2.4-1.7c-0.4,0.6-0.8,1.1-1.1,1.6c-3.3,4.9-6.5,9.7-9.8,14.6c-0.3,0.4-0.3,0.8-0.1,1.3c2.8,5.3,8.9,5.5,12.6,2 c0.8-0.7,1.4-1.6,2.1-2.4c0.2-0.2,0.3-0.5,0.5-0.6c0.3-0.1,0.7-0.2,0.9,0c0.2,0.1,0.2,0.5,0.2,0.8c0,0.2-0.1,0.4-0.3,0.5 c-3.1,4.5-7.1,6.5-12.5,5.7c-2.6-0.4-3.7-0.9-6.5-2.7c-1.2,1.7-2.4,3.4-3.6,5.1c-0.2,0-0.4,0-0.5,0C7,38.4,7,38.2,7.5,37.5 c1-1.5,2-3,3.1-4.6c-0.2-0.2-0.4-0.4-0.5-0.6c-1.7-1.9-2.9-4.1-3.5-6.5c-0.3-1.1-0.4-2.2-0.6-3.3c0-1,0-2,0-3c0-0.1,0.1-0.3,0.1-0.4 c0.2-2.4,0.8-4.7,1.9-6.8c3.1-6,9.3-9.1,15.9-7.8c1.6,0.3,3,1,4.6,1.6c0.9-1.3,1.9-2.8,2.9-4.3c0.2-0.3,0.5-0.5,0.7-0.8 C32.3,1,32.4,1,32.5,1z M13.6,28.3c0.3-0.4,0.4-0.5,0.5-0.7c1.2-1.8,2.4-3.6,3.6-5.3c2.7-4,5.4-8.1,8.2-12.1c1-1.5,0.7-2.9-0.8-3.9 c-0.3-0.2-0.6-0.4-0.9-0.5c-2.7-0.9-5.3-0.7-7.6,1.1c-1.9,1.6-2.9,3.7-3.4,6.1c-0.9,3.8-0.9,7.6-0.3,11.5 C12.9,25.7,13.3,26.9,13.6,28.3z"/>
</svg>