<!-- (c) Carrd Inc. All rights reserved. All logos and trademarks are property of their respective owners. -->
<svg xmlns="http://www.w3.org/2000/svg" id="icon">
<path d="M34.3,3.8c-0.7,0.3-1.5,0.7-2.2,1.1c-1.2,0.6-3.3,2-3.8,2.8c-0.2,0.3-0.2,0.7-0.2,1l0,2.1h-4.4l-2.3,1.9V4.8 c0.1-0.1,0.1-0.2,0.2-0.2l6.2-2.4h0.1l6.4,1.2c0.1,0,0.2,0.1,0.2,0.2C34.4,3.6,34.4,3.8,34.3,3.8z M12.3,10.7l0-2.1 c0-0.3-0.1-0.7-0.2-1c-0.5-0.8-2.6-2.1-3.8-2.8C7.6,4.4,6.8,4.1,6.1,3.8C6,3.8,6,3.6,6,3.6C6,3.5,6,3.4,6.1,3.4l6.4-1.2h0.1l6.2,2.4 c0.1,0,0.1,0.1,0.2,0.2v5.9H12.3z M19,31.1v8.5c0,0.1,0,0.1,0,0.1c-0.1,0.1-0.4,0.1-0.5,0c-6.1-4.1-6.1-6.7-6.1-6.7l0-1.9H19z M28.1,31.3l0,1.7c0,0-0.1,2.6-6.1,6.7c-0.1,0.1-0.5,0.1-0.5,0c0,0,0,0,0-0.1l0-11.7c0,0,1.3,1.7,3.2,2.5 C26.4,31.2,28.1,31.3,28.1,31.3z M4.6,15.1h10.2l1.4,1.2c0.1,0.1,0.1,0.1,0.1,0.1l0,0c0.1,0,0.1,0,0.1-0.1l3.6-4 c0.1-0.1,0.1-0.1,0.1-0.2C20,12.1,19.9,12,19.9,12H6.6C6,12,5.5,12.1,5.1,12.4c-0.4,0.3-0.7,0.9-0.7,1.9v0.5 C4.3,14.9,4.4,15,4.6,15.1C4.6,15,4.6,15,4.6,15.1L4.6,15.1L4.6,15.1z M38.5,12.2H23.9l-0.1,0.1l-2.7,2.5c-0.1,0.1-0.1,0.2,0,0.3 c0.1,0.1,0.1,0.1,0.1,0.1H33l0.6,0.8c0.1,0.1,0.2,0.1,0.3,0.1l4.7-3.4c0.1-0.1,0.1-0.2,0-0.3C38.6,12.2,38.6,12.2,38.5,12.2 L38.5,12.2L38.5,12.2z M33.7,27.7c-0.4,0.1-0.8,0.1-1.2,0.1c-3.4-0.1-6.3-2.8-6.6-6.2c-0.1-0.4-0.1-0.9-0.1-1.4 c0-1.1,0.1-2.3,0.3-3.4c0-0.1,0-0.1-0.1-0.2c-0.1-0.1-0.1-0.1-0.2-0.1h-5.2c-0.1,0-0.2,0.1-0.2,0.1c-0.5,1.3-0.7,2.7-0.7,4.1 c0,1.1,0.2,1.7,0.6,3c1,3.1,4.7,6.1,7.7,6.1c4.5,0,5.6-1.6,5.7-2.1C33.9,27.8,33.8,27.7,33.7,27.7L33.7,27.7L33.7,27.7L33.7,27.7z M11.7,16.8l-0.2-0.1H5.7c-0.1,0-0.2,0.1-0.2,0.2s0,0.1,0.1,0.1c0,0,8,9.2,8.1,9.4c0,0,0,0.1,0.1,0.1l-0.1,0.1H9 c-0.7,0-1.4-0.2-1.9-0.6c-0.2-0.2-0.4-0.4-0.6-0.6c-0.1-0.1-0.1-0.1-0.1-0.1c-0.1,0-0.1,0-0.2,0.1l-4.4,4.1c-0.1,0.1-0.1,0.2,0,0.3 s0.1,0.1,0.1,0.1h16.4c1,0,1.6-1,1.6-2c0-0.4-0.1-0.8-0.3-1.1C19,25.9,11.7,16.8,11.7,16.8z"/>
</svg>