<!-- (c) Carrd Inc. All rights reserved. All logos and trademarks are property of their respective owners. -->
<svg xmlns="http://www.w3.org/2000/svg" id="icon">
<path d="M13.5,11.4h-2.4c-0.4,0-0.7-0.3-0.7-0.7V4.5c0-0.4-0.3-0.7-0.7-0.7H5.9c-0.4,0-0.7,0.3-0.7,0.7v6.2 c0,0.4-0.3,0.7-0.7,0.7H1.7c-0.4,0-0.7,0.3-0.7,0.7v3c0,0.4,0.3,0.7,0.7,0.7h2.8c0.4,0,0.7,0.3,0.7,0.7V30c0,3.9,2.7,6.1,6.3,6.1h2 c0.4,0,0.7-0.3,0.7-0.7v-3.3c0-0.3-0.3-0.6-0.6-0.6h0h-1.3c-1.3,0-1.9-1-1.9-2.4V16.4c0-0.4,0.3-0.7,0.7-0.7h2.4 c0.4,0,0.7-0.3,0.7-0.7v-3C14.2,11.7,13.9,11.4,13.5,11.4L13.5,11.4z M38.9,35l-7.8-11.1c-0.2-0.3-0.2-0.6,0-0.8l7.4-10.6 c0.3-0.5,0-1.2-0.6-1.2h-4.3c-0.3,0-0.5,0.1-0.7,0.4l-4.3,6.7c-0.3,0.5-1,0.5-1.3,0L23,11.7c-0.1-0.2-0.4-0.4-0.7-0.4H18 c-0.6,0-1,0.7-0.6,1.2l7.4,10.6c0.2,0.3,0.2,0.6,0,0.8L17,35c-0.3,0.5,0,1.2,0.6,1.2h4.3c0.3,0,0.5-0.1,0.7-0.3l4.7-7 c0.3-0.5,1-0.5,1.3,0l4.7,7c0.1,0.2,0.4,0.3,0.7,0.3h4.3C38.8,36.1,39.2,35.5,38.9,35L38.9,35z"/>
</svg>