<!-- (c) Carrd Inc. All rights reserved. All logos and trademarks are property of their respective owners. -->
<svg xmlns="http://www.w3.org/2000/svg" id="icon">
<path d="M29.3,19.2c-0.5,2.4-0.9,4.9-1.6,5.2c0,0,0,0,0,0c0,0,0,0,0,0l0,0l-0.2-0.1c0,0.5-0.1,1-0.2,1.5l0,0l0,0 c-3.1-2.1-6.2-3.1-9.3-2.8c-2.5,0.2-4.4,1.2-5.5,1.8l0,0v0l0-1.7c0,0-0.1,0-0.1,0.1c0,0,0,0,0,0c0,0,0,0-0.1,0l0,0l0,0 c-1.3-1.2-1.7-2.9-2.2-4.3c-0.2-0.8-0.4-1.5-0.7-2l0,0C9,15,8.3,13.3,7.7,11.7C7.4,10.9,7.1,10,6.8,9.2C6.5,7.7,6.6,6.3,7.3,4.8 c0-0.1,0.1-0.1,0.1-0.2C8,3.9,8.6,3,10.5,2.4c1.2-0.1,2.5-0.7,3.7-1.2c1-0.5,1.9-0.9,2.8-1c2.5-0.4,4.9-0.1,7.8,0.5 c0.2,0.1,0.5,0.1,0.8,0.2c1.9,0.4,5.2,1.1,8,5c0,0,0.1,0.1,0.1,0.1c0,0,0.1,0.1,0.1,0.1c0.4,0.6,0.8,1.2,1.2,2 C35.2,11.9,31.1,15,29.3,19.2z M10.1,18.8c0.2,0.6,0.4,1.3,0.6,2c-0.5-1.3-0.8-2.7-1.2-3.7C9.7,17.6,9.9,18.2,10.1,18.8z M7.7,4.4 C7.6,4.5,7.5,4.6,7.4,4.8c0,0-0.1,0.1-0.1,0.1C6.7,6.3,6.6,7.7,6.9,9.1c0.3,0.9,0.6,1.7,0.9,2.5c0.6,1.6,1.3,3.3,1.5,5.2 c0,0,0,0,0,0C9,14.1,7.7,11.7,6.9,9.2c-0.3-1.4-0.2-2.7,0.4-4C7.2,5.4,7.2,5.6,7.2,5.8c0,0.2,0.1,0.4,0.2,0.5l0,0 C8.3,7,8.8,9.3,9.3,11.9c0.7,3.3,1.5,7.2,3.4,9.5c0,0,0,0,0,0l0,0c0,0,0,0,0,0c-1.8-2-2.1-5.4-2.7-8.5c0-2.9-1-7-0.8-8.4 C9.1,4,8.9,3.9,8.6,3.9c0,0,0,0,0.1,0l0,0c-0.2,0-0.4,0.1-0.6,0.3C8,4.1,7.9,4.2,7.9,4.2C8.3,3.6,9,3,10.4,2.5 C8.9,3.1,8.2,3.7,7.7,4.4z M10.7,2.8c-0.2,0-0.3,0.1-0.4,0.1c-0.1,0.1-0.2,0.2-0.2,0.3c0,0.2,0,0.4,0.3,0.7c1.1,1.5,1.3,3.8,1.5,6.4 c0.3,3.3,0.6,6.9,2.8,9.5l0,0c-1.9-2.2-1.9-5.3-2-8.2c0.4-2.7-0.4-6.3-0.1-7.9c-0.2-0.3-0.4-0.5-0.6-0.6l0,0 C11.6,2.9,11.1,2.7,10.7,2.8z M14.3,1.3c-0.6,0.3-1.2,0.5-1.8,0.8c1-0.4,2-0.9,2.9-1.3C15,0.9,14.7,1.1,14.3,1.3z M18,0.8 C18,0.8,17.9,0.8,18,0.8C17.9,0.8,18,0.8,18,0.8L18,0.8c-0.4-0.1-0.7-0.2-0.9-0.1c-0.9,0.1-1.4,0.8-1.7,1.9C15,3.7,14.9,5.1,15,6.7 c0.2,4.1,1.4,9.3,2.6,12.2l0,0c-0.2-1.2-0.5-2.7-0.8-4.3C17.2,9.9,19,2.5,18,0.8z M22.3,1.1c-3.2,4.7-2.3,11.3-1.5,16.7 c0,0.3,0.1,0.7,0.1,1l0,0c0-0.3-0.1-0.7-0.1-1c-0.1-1.4-0.2-3.4-0.1-4.3C20.9,11.2,21,4.6,22.3,1.1L22.3,1.1z M24.8,10.6 c-0.5,2.8-0.5,5.7-0.4,8.3c0,0.2,0,0.4,0,0.6h0c0-0.2,0-0.4,0-0.6c0.1-2.7,0.4-5.7,0.7-8.3c0.7-3.6,2.5-5.2,3-8.8l0,0 C26.3,4.5,25.3,7.5,24.8,10.6z M28.7,13.2c0,0.1-0.1,0.2-0.1,0.3C28,15,28,16.4,27.9,17.7c-0.1,1.4-0.1,2.6-0.9,3.4l0,0 c0.5-0.5,0.7-1.3,0.9-2.1c1.7-4.4,3.4-8.7,4.8-13.1c0,0,0.1,0,0.1,0l0,0C30.9,5.8,29.2,11.7,28.7,13.2z M9.5,28c0,0,0.1,0,0.3,0 c0.2,0,0.4,0.1,0.5,0.2c0.1,0.1,0.2,0.2,0.2,0.4c0,0.1,0,0.2-0.1,0.3c-0.3,0.3-0.9,0.7-1.8,1c-0.8,0.3-1.4,0.7-1.7,1.2 c0.5,0.3,1.1,0.6,1.9,1c1.3,0.6,1.9,0.9,2,0.9c0.2,0.1,0.2,0.2,0.2,0.4c0,0.2-0.1,0.4-0.3,0.6c-0.2,0.2-0.4,0.2-0.7,0.2 c-0.1,0-0.2,0-0.3-0.1c-0.1-0.1-0.2-0.2-0.4-0.4c-1.2-0.6-2.4-1.2-3.7-1.8c-0.1-0.1-0.3-0.1-0.4-0.1c-0.2-0.1-0.3-0.2-0.3-0.3 c0-0.4,0.2-0.7,0.5-1.1c0.4-0.3,1.1-0.7,2-1.1C8.5,28.7,9.1,28.3,9.5,28z M16,29.4c0.4,0,0.7,0.1,0.9,0.3c0.3,0.2,0.5,0.7,0.5,1.3 c0,0.7-0.2,1.2-0.6,1.5c-0.2,0.1-0.5,0.2-0.7,0.2c-0.4,0-0.7-0.2-1-0.5c-0.3-0.3-0.4-0.7-0.5-1.1c-0.1-0.5,0-0.9,0.4-1.2 C15.3,29.5,15.6,29.4,16,29.4z M16,31.4c0.3,0,0.5-0.2,0.5-0.5c0-0.3-0.2-0.5-0.5-0.5c-0.3,0-0.5,0.2-0.5,0.5 C15.6,31.2,15.8,31.4,16,31.4z M13.6,27.3L14,27c0.2,0.3,0.3,0.4,0.4,0.5c0.1,0.1,0.3,0.1,0.5,0.1c0.1,0,0.2,0,0.3,0l1.5-0.5 c0.1,0,0.1,0,0.2,0c0.2,0,0.5,0.1,0.6,0.2c0.2,0.1,0.4,0.4,0.6,0.7l-0.4,0.2c-0.2-0.3-0.3-0.4-0.4-0.5c-0.1-0.1-0.2-0.1-0.4-0.1 c-0.1,0-0.2,0-0.3,0.1l-1.3,0.5c-0.1,0-0.2,0.1-0.4,0.1c-0.3,0-0.5-0.1-0.7-0.2C14,27.9,13.8,27.6,13.6,27.3z M17.4,35.7 c2.2-0.1,2.6,1.8,1.1,3.1c-2.2,2-7.6,1.5-6.9-2.8C14.4,38.3,15.5,35.8,17.4,35.7z M18.9,34.5c-0.1-0.2-0.2-0.3-0.3-0.5c0,0,0,0,0,0 c0,0,0,0,0,0c0,0,0,0,0,0c0.1,0.1,0.2,0.3,0.2,0.4c0.1,0.1,0.2,0.2,0.3,0.3c0.1,0.1,0.2,0.2,0.4,0.2c0.1,0,0.3,0.1,0.5,0.1 c0.2,0,0.4,0,0.6-0.1c0.2-0.1,0.3-0.2,0.5-0.3c0.1-0.1,0.3-0.3,0.4-0.5c0,0,0,0,0,0c0,0,0,0,0,0c0,0,0,0,0,0c0,0.1,0,0.1-0.1,0.2 c0,0.1-0.1,0.2-0.2,0.3c-0.1,0.1-0.1,0.2-0.2,0.3c-0.1,0.1-0.2,0.2-0.3,0.3c-0.1,0.1-0.2,0.1-0.3,0.2c-0.1,0-0.3,0.1-0.4,0.1 c-0.2,0-0.3,0-0.5-0.1c-0.2-0.1-0.3-0.2-0.4-0.3C19.1,34.8,19,34.7,18.9,34.5z M23.5,32.6c-0.4,0-0.7-0.2-1-0.5 c-0.3-0.3-0.4-0.7-0.5-1.1c-0.1-0.5,0-0.9,0.4-1.2c0.3-0.3,0.6-0.4,1.1-0.4c0.4,0,0.7,0.1,0.9,0.3c0.3,0.2,0.5,0.7,0.5,1.3 c0,0.7-0.2,1.2-0.6,1.5C24,32.6,23.8,32.6,23.5,32.6z M23.4,30.5c-0.3,0-0.5,0.2-0.5,0.5s0.2,0.5,0.5,0.5c0.3,0,0.5-0.2,0.5-0.5 S23.6,30.5,23.4,30.5z M22.2,35.7c1.9,0.1,3.1,2.6,5.8,0.3c0.7,4.4-4.6,4.8-6.9,2.8C19.6,37.5,20.1,35.6,22.2,35.7z M28.4,28.1 c0.1-0.1,0.2-0.2,0.4-0.2c0.1,0,0.1,0,0.2,0c0.2,0,0.5,0.1,0.8,0.2c0.2,0.1,0.5,0.2,0.7,0.3c1.1,0.4,2,0.8,2.6,1.5 c0.2,0.1,0.2,0.2,0.2,0.4c0,0.2-0.2,0.4-0.5,0.7c-0.4,0.3-1,0.7-1.8,1.3c-0.7,0.6-1.3,1-1.8,1.3c-0.1,0-0.2,0.1-0.3,0.1 c-0.1,0-0.2,0-0.3-0.1c-0.1-0.1-0.1-0.2-0.1-0.3c0-0.1,0-0.2,0.1-0.3c0.1-0.2,0.4-0.4,0.7-0.6c0.3-0.1,0.6-0.3,1-0.6 c0.5-0.4,0.8-0.6,1-0.7c0.4-0.2,0.6-0.3,0.6-0.4c0,0,0,0,0-0.1c-0.2-0.4-0.6-0.6-1-0.8c-0.4-0.1-0.9-0.2-1.3-0.4 c-0.5-0.2-0.9-0.4-1.2-0.7c0,0,0-0.1,0-0.1C28.2,28.4,28.3,28.3,28.4,28.1z"/>
</svg>