<!-- (c) Carrd Inc. All rights reserved. All logos and trademarks are property of their respective owners. -->
<svg xmlns="http://www.w3.org/2000/svg" id="icon">
<path d="M10.3,27c-0.3,0.2-0.7,0.3-1,0.3c-1.4,0-2.8,0-4.4,0c5-8.3,9.9-16.5,14.9-24.8c2.7,3.9,5.3,7.6,7.9,11.4 c-0.2,0.1-0.3,0.3-0.5,0.4C21.6,18.6,15.9,22.8,10.3,27z M3.5,25.3c-0.1-1-0.2-1.9-0.3-2.9c-0.4-4.2-0.8-8.5-1.1-12.7 C2.1,9.6,2,9.5,2,9.5c0-0.2,0-0.4,0-0.6C2.1,9,2.2,9,2.3,9.1c2.5,1.7,5,3.4,7.5,5.1c0.1,0.1,0.1,0.1,0.3,0.2 C7.9,18,5.8,21.7,3.6,25.3C3.6,25.3,3.5,25.3,3.5,25.3z M36.3,33.4c-11,0-21.9,0-32.9,0c0-1.3,0-2.5,0-3.8c11,0,21.9,0,32.9,0 C36.3,30.8,36.3,32.1,36.3,33.4z M35.9,27.5c-1.1,0-2.3,0-3.4,0c-6,0-12.1,0-18.1,0c-0.2,0-0.4,0-0.6,0c0,0,0-0.1,0-0.1 c8-6,16.1-12,24.3-18.1c-0.1,1.2-0.2,2.3-0.3,3.4c-0.3,3.5-0.6,7-0.9,10.5c-0.1,1.3-0.2,2.6-0.3,3.9C36.4,27.5,36.2,27.5,35.9,27.5z "/>
</svg>