<!-- (c) Carrd Inc. All rights reserved. All logos and trademarks are property of their respective owners. -->
<svg xmlns="http://www.w3.org/2000/svg" id="icon">
<path d="M39.9,22.3c-0.1,1.2-0.3,2.5-0.7,3.6c-0.9,2.8-2.8,4.6-5.6,5.3c-2.3,0.5-4.7,0.5-7,0c-3.2-0.8-5-3-5.7-6.1 c-0.4-1.7-0.5-3.4-0.6-4.2c0.1-2.8,0.2-4.8,0.8-6.7c1-3.1,3.2-4.8,6.4-5.4c2-0.3,4-0.3,6,0.1c3.4,0.8,5.3,3,6.1,6.3 C40.1,17.4,40.1,19.8,39.9,22.3z M33.7,17.1c-0.2-1.2-0.7-2.2-1.9-2.7c-0.4-0.2-0.9-0.2-1.4-0.3c-1.9-0.1-3.4,0.5-3.8,2.9 c-0.4,2.1-0.4,4.2,0,6.4c0.3,1.8,1.2,2.6,2.9,2.8c2.3,0.3,3.8-0.6,4.2-3c0.1-1,0.2-2,0.3-3C33.9,19.2,33.9,18.2,33.7,17.1z M18,31.3 c-0.2,0-0.4,0-0.6,0c-1.3,0-2.5,0-3.8,0c-1.8,0.1-3.5,0.2-5.3,0.2c-1,0-2.1-0.2-3-0.5c-2.7-0.8-4.2-2.9-4.8-5.5 c-0.3-1.4-0.5-2.9-0.6-4.3c-0.1-1.9-0.1-3.8,0.3-5.7c0.4-2.1,1.3-4,3.1-5.3c1.3-0.9,2.7-1.3,4.2-1.5c2.5-0.3,4.9-0.2,7.3,0.6 c0.7,0.3,1.5,0.6,2.2,1c-0.1,0.2-0.2,0.3-0.2,0.4c-0.9,1.4-1.8,2.8-2.7,4.3c-0.2,0.3-0.3,0.4-0.7,0.2c-1.6-0.8-3.3-1-5-0.7 c-1,0.2-1.7,0.7-2,1.6c-0.3,0.9-0.5,1.9-0.6,2.9c-0.1,1.6-0.1,3.3,0.2,4.9c0.4,2,1.4,2.9,3.4,2.9c0.5,0,1.1-0.1,1.6-0.2 c0.7-0.2,1.2-0.6,1.3-1.4c0.1-0.7,0.1-1.5,0.1-2.2c0-0.3-0.2-0.3-0.4-0.3c-1,0-1.9,0-2.9,0c-0.2,0-0.3,0-0.6,0 c0.2-1.2,0.3-2.3,0.5-3.5c0-0.3,0.1-0.6,0.1-0.9c0-0.4,0.2-0.4,0.5-0.4c1.1,0,2.2,0,3.3,0c1.5,0,3,0,4.5,0c0.4,0,0.5,0.1,0.5,0.5 c0,4.2,0,8.4,0,12.6C18.1,30.9,18.1,31.1,18,31.3z"/>
</svg>