<!-- (c) Carrd Inc. All rights reserved. All logos and trademarks are property of their respective owners. -->
<svg xmlns="http://www.w3.org/2000/svg" id="icon">
<path d="M30.9,10.4c-4.2,0-7.5,2.7-8.9,7.3c-2-3-3.5-6.3-4.5-9.8H13v11.8c-0.1,2.3-2,4.2-4.4,4.1c-2.3-0.1-4.1-1.9-4.1-4.1V7.9H0 v11.8c-0.1,4.8,3.8,8.9,8.6,8.9c4.9,0.1,8.9-3.8,9-8.6c0-0.1,0-0.2,0-0.3v-2c0.9,1.9,2,3.7,3.3,5.4l-2.8,13.1h4.7l2-9.5 c1.8,1.2,4,1.8,6.1,1.8c5,0,9.1-4.1,9.1-9S35.9,10.4,30.9,10.4L30.9,10.4z M30.9,23.9c-1.8,0-3.6-0.8-5.1-2l0.4-1.8V20 c0.3-1.9,1.4-5.1,4.7-5.1c2.5,0.1,4.4,2.1,4.4,4.6C35.2,21.9,33.3,23.9,30.9,23.9L30.9,23.9z"/>
</svg>