<!-- (c) Carrd Inc. All rights reserved. All logos and trademarks are property of their respective owners. -->
<svg xmlns="http://www.w3.org/2000/svg" id="icon">
<path d="M39.2,17.2c-0.4,0-0.8-0.3-0.8-0.8c0-0.4,0.3-0.8,0.8-0.8c0.4,0,0.8,0.3,0.8,0.8C40,16.9,39.6,17.2,39.2,17.2z M37.2,22.6c-0.6,0-1.1-0.5-1.1-1.1c0-0.6,0.5-1,1.1-1c0.6,0,1.1,0.5,1.1,1.1C38.2,22.1,37.8,22.6,37.2,22.6z M34.7,13.4 c-0.8,0-1.4-0.6-1.4-1.4c0-0.8,0.6-1.4,1.4-1.4c0.8,0,1.4,0.6,1.4,1.4C36.1,12.7,35.5,13.4,34.7,13.4z M33.6,21 c-0.1,0.1-0.1,0.1-0.2,0.2c3.1,5.1-0.9,11.2-6.3,10.9c-0.9,3.5-5.1,4.8-7.9,2.4c-2.1,1.5-4.4,1.9-6.8,0.7c-2.4-1.1-3.6-3.1-3.8-5.7 c-2.4-0.5-4.1-1.9-4.8-4.2c-0.7-2.4,0-4.4,1.6-6.2C5.3,18.6,5,18,4.9,17.5c-0.8-3.2,1.3-6.3,4.5-6.8c0.1,0,0.2-0.1,0.3-0.2 c1.2-2.7,3.2-4.4,6-5c2.1-0.5,4.2-0.1,6.1,1c0.2,0.1,0.3,0.1,0.5,0.1c2.8-0.8,5.4-0.3,7.5,1.8c1.6,1.5,2.3,3.4,2.2,5.6 c0,0.2,0,0.2,0.2,0.3C35,15.2,35.8,18.8,33.6,21z M24.9,24.1c0.1-1,0.4-1.9,0.8-2.8c0.6-1.4,1.2-2.8,1.8-4.2 c0.2-0.6,0.4-1.2,0.4-1.8c0.1-0.9-0.4-2.1-1.6-2.4c-0.9-0.2-1.9-0.3-2.7,0.3c-0.3,0.2-0.5,0.1-0.7-0.1c-0.1-0.1-0.2-0.2-0.4-0.3 c-0.3-0.3-0.6-0.5-0.9-0.6c-0.7-0.2-1.4-0.1-2,0.5c-0.3,0.3-0.6,0.5-0.9,0.8c-0.3,0.2-0.6,0.3-1,0.1c-0.5-0.2-1-0.5-1.5-0.7 c-0.2-0.1-0.5-0.2-0.7-0.2c-1.3-0.1-2.7,0.7-3.3,1.9c-0.2,0.4-0.4,0.8-0.5,1.2c-0.8,2.5-1.6,4.9-2.4,7.4c-0.2,0.5-0.3,1-0.3,1.5 c0,1.2,0.8,2.2,2.1,2.5c1.4,0.3,2.3-0.1,2.8-1.4c0.9-2,1.7-4.1,2.5-6.2c0.3-0.6,0.5-1.3,0.8-1.9c0.2-0.4,0.6-0.6,1-0.5 c0.4,0.1,0.6,0.4,0.6,0.9c0,0.2,0,0.4-0.1,0.6c-0.3,0.8-0.6,1.5-0.9,2.3c-0.4,1-0.8,2-1.2,3c-0.3,0.9,0.1,1.6,1.1,1.6 c0.2,0,0.4,0,0.6,0c0.6-0.1,1-0.6,1.3-1.1c0.8-1.5,1.5-3.1,2.3-4.6c0.4-0.8,0.9-1.7,1.3-2.5c0.1-0.2,0.3-0.4,0.5-0.6 c0.2-0.2,0.5-0.2,0.7-0.1c0.3,0.1,0.3,0.4,0.2,0.6c0,0.2-0.1,0.4-0.2,0.6c-0.3,0.7-0.6,1.3-0.9,2c-0.6,1.2-1.2,2.4-1.7,3.6 c-0.7,1.7,0.3,3.8,2,4.4c0.7,0.2,1.5,0.4,2.2,0.4c0.5,0,0.9,0,1.4-0.2c0.3-0.2,0.5-0.4,0.5-0.8c0-0.6-0.3-1-1-1.1 c-0.4-0.1-0.8-0.1-1.2-0.2C25.1,25.5,24.8,25,24.9,24.1z M22.4,4.8c-0.9,0-1.7-0.7-1.6-1.7c0-0.9,0.7-1.7,1.7-1.6 c0.9,0,1.6,0.7,1.6,1.7C24.1,4.1,23.3,4.8,22.4,4.8z M12.2,2.1c-0.4,0.3-1,0.1-1.3-0.3c-0.2-0.4-0.1-1,0.4-1.2 c0.1,0,0.1-0.1,0.2-0.1c0.1,0,0.3,0,0.4,0c0.2,0.1,0.4,0.2,0.5,0.4C12.7,1.2,12.6,1.8,12.2,2.1z M8,9.1c-0.7,0-1.3-0.5-1.3-1.3 c0-0.7,0.5-1.3,1.3-1.3c0.7,0,1.3,0.6,1.3,1.3C9.3,8.6,8.7,9.1,8,9.1z M1.8,20.3C1,20.4,0.2,19.9,0,19c0,0,0-0.1,0-0.1 c0-0.1,0-0.2,0-0.3c0-0.1,0.1-0.2,0.1-0.3c0.2-0.8,1-1.3,1.9-1.2c0.9,0.1,1.5,0.9,1.4,1.7C3.3,19.6,2.7,20.3,1.8,20.3z M6.8,30.7 c0.4,0,0.8,0.4,0.8,0.8c0,0.4-0.4,0.8-0.8,0.8c-0.4,0-0.8-0.4-0.8-0.8C6,31,6.4,30.7,6.8,30.7z M18.7,36.5c0.5-0.2,1.1,0.1,1.3,0.7 c0.2,0.5,0,1.1-0.6,1.4c-0.1,0-0.1,0.1-0.2,0.1c-0.2,0-0.4,0-0.5,0c-0.4-0.2-0.7-0.4-0.8-0.8C17.8,37.2,18.2,36.6,18.7,36.5z M29.6,33.2c1,0,1.8,0.8,1.8,1.8c0,1-0.8,1.7-1.8,1.7c-1,0-1.7-0.8-1.7-1.7C27.8,34,28.6,33.2,29.6,33.2z"/>
</svg>