<!-- (c) Carrd Inc. All rights reserved. All logos and trademarks are property of their respective owners. -->
<svg xmlns="http://www.w3.org/2000/svg" id="icon">
<path d="M39.4,29.9c0,0-0.1,0.1-0.1,0.1c-0.1,0.1-0.1,0.1-0.2,0.2v0c-0.6,1.2-1.4,2.4-3.1,2.4c-0.5,1.6-1.3,2.1-3.1,2.2 c-0.8,0-1.1,0.2-1.1,0.3c-1.7,2.2-2.4,2.3-4.9,1.2c-0.3-0.1-0.8,0-1.1,0.2c-0.9,0.4-1.7,0.9-2.7,0.4c-0.5-0.2-1-0.5-1.5-0.8 c-0.2-0.1-0.3-0.2-0.5-0.3c-1.4,1.6-3.2,1.2-4.9,0.7l-0.9,0.9h-3.2L12,37.4c-0.2-0.2-0.5-0.4-0.7-0.5c-0.5-0.4-1.1-0.8-1.5-1.3 c-0.6-0.8-1.1-1.8-1.5-3c-0.2-0.6-0.5-1.3-0.7-1.9c-0.8-2-1.6-4.2-2-6.3c-0.4-2.2-0.5-4.5-0.6-6.8c0-0.9-0.1-1.8-0.1-2.8 c-1.8-0.1-3-1.4-4.3-2.6L0.5,12V9.6l0.2-0.1C2.4,8.8,4,9.2,5.5,9.8c0.2,0.1,0.7,0,0.8,0c1.4-2.3,3.6-4,6.7-5.3 c3.9-1.6,7.8-2,11.7-1.1c0.2,0.1,0.7-0.1,0.9-0.3c0.5-0.5,0.9-1.2,1.3-1.8c0.2-0.2,0.3-0.5,0.5-0.7l0.1-0.1h1.3L29,0.9 c0.6,0.8,1.3,1.8,1,3.1c-0.2,0.6-0.4,1.1-0.6,1.6c-0.1,0.2-0.1,0.3-0.2,0.5l4.5,7.1c0,0,0.1-0.1,0.1-0.1c0.9-0.8,1.6-1.1,2.2-0.9 c0.6,0.2,1.1,0.8,1.4,1.9c0.5,1.8,0,3.4-0.5,4.7c-0.2,0.4-0.1,1.1,0,1.6c0.3,0.8,0.6,1.7,1,2.5c0.1,0.3,0.3,0.7,0.4,1l1.1,2.7 L39.4,29.9L39.4,29.9z M32.9,21.5l0.3-0.5c0.3-0.5,0.6-0.9,0.9-1.3c0.6-0.9,1.2-1.6,1.6-2.5c0.6-1.1,0.2-2.9-0.5-3.5 c-0.2,0.2-0.3,0.4-0.5,0.6c-0.6,0.6-1.2,1.3-1.8,1.9c-0.2,0.2-0.5,0.4-0.8,0.5c-0.1,0.1-0.2,0.1-0.3,0.2l-0.5,0.3l0.1-0.5 c0-0.1,0-0.3,0-0.4c0-0.3,0.1-0.7,0.2-1c0.4-0.7,0.7-1.1,0.3-1.7c-0.5-0.8-1-1.6-1.5-2.4c-0.7-1.1-1.4-2.3-2.1-3.4 c-0.1-0.1-0.1-0.2-0.2-0.3c-0.1-0.3-0.3-0.6-0.5-0.6c-0.1,0-0.3,0-0.6,0.2c-0.1,0.1-0.2,0.1-0.3,0c-0.2-0.1-0.5-0.3-0.6-0.5 c-0.1-0.3,0-0.7,0.2-0.9c0.2-0.2,0.4-0.2,0.6-0.3c0.1,0,0.2-0.1,0.3-0.2c0.6-0.4,1-0.9,1-1.4c0-0.4-0.1-0.9-0.5-1.3l-3.4,3.8 l-0.3-0.8c-0.1-0.1-0.3-0.2-0.4-0.3c-0.3-0.2-0.6-0.5-0.9-0.5c-2.9-0.1-6.2-0.1-9.3,1.2c-2.4,1-4.9,2.3-6.3,5.2l1.2,1.5l-0.6-0.1 c-1-0.1-1.9-0.5-2.7-0.9c-1.2-0.6-2.2-1-3.4-0.7c0,1.1,0.6,2.3,4.8,2.6l0.3,0l0,0.3C7,14.2,6.9,14.6,6.9,15 c-0.2,0.9-0.4,1.7-0.3,2.5c0,1.9,0.3,3.8,0.5,5.5c0.3,1.8,0.6,3.3,1,4.7c0.4,1.3,0.9,2.7,1.4,4c0.2,0.4,0.3,0.8,0.5,1.3 c0.8,2.1,2.2,3,4.3,2.9c0.3,0,0.6-0.2,0.7-0.3c0.4-0.8,0.6-1.1,0.9-1.2c0.3-0.1,0.7,0.2,1.3,0.7c0.4,0.3,1.3,0.5,2,0.3 c0.4-0.1,0.7-0.3,0.8-0.5c0.2-0.5,0.4-0.8,0.8-0.9c0.4-0.1,0.8,0.1,1.2,0.3c0.2,0.1,0.4,0.3,0.5,0.4c0.1,0.1,0.3,0.2,0.4,0.3 c0.5,0.4,1,0.5,1.5,0.3c0.4-0.2,0.7-0.5,0.9-1.1c0.1-0.3,0.3-0.7,0.7-0.8c0.4-0.1,0.9,0.3,0.9,0.4c0.1,0.1,0.3,0.3,0.4,0.4 c0.1,0.1,0.2,0.3,0.3,0.4c0.7,0.6,1.3,0.8,1.9,0.6c0.5-0.2,0.9-0.7,1.1-1.6c0.1-0.3,0.2-0.8,0.6-1c0.3-0.1,0.7-0.1,1.2,0.2 c0.7,0.4,1.3,0.4,1.7,0.2c0.5-0.3,0.7-0.8,0.8-1.6c0-0.2,0.1-0.4,0.1-0.6c0-0.1,0.1-0.2,0.1-0.3l0.1-0.3l0.3,0.1 c0.9,0.4,1.4,0.6,1.7,0.5c0.2-0.1,0.4-0.5,0.7-1.3c0.3-0.8,0.4-1.8,0.1-2.7c-0.4-1.5-0.9-3.1-1.4-4.5c-0.2-0.5-0.3-1-0.5-1.5 L32.9,21.5z M26.8,13.4l-0.4,0c-0.1,0-0.3,0-0.4,0c-0.3,0-0.6,0-1-0.1c-0.2,0-0.4-0.2-0.6-0.3c-0.1,0-0.2-0.1-0.2-0.1 c-0.6-0.3-1-0.6-1.1-1c-0.1-0.4,0.1-0.8,0.5-1.4c0.1-0.1,0.1-0.2,0.2-0.3c0.2-0.3,0.4-0.6,0.6-0.8c0.2-0.2,0.5-0.2,0.8-0.3 c0.1,0,0.2,0,0.3-0.1L25.9,9l0.2,0.8l-0.4,0.5c0.2,0,0.3-0.1,0.5,0c0.2,0,0.4,0.2,0.6,0.3c0.1,0.1,0.2,0.1,0.3,0.2l0.3,0.2l-1.2,0.9 L26.8,13.4z M19.9,19c0,0-0.1,0-0.1,0c-1.2,0-2.2-1.1-2.3-2.5c0-0.1,0-0.1,0-0.2l-0.2,0.1l-0.1-0.2c-0.1-0.1-0.2-0.3-0.2-0.4 c-0.2-0.4-0.5-0.7-0.7-1.1c-0.1-0.2,0-0.4,0.2-0.6c0-0.1,0.1-0.1,0.1-0.2l0.1-0.2l1.2,0.7c0-0.1,0.1-0.1,0.1-0.2 c0.2-0.4,0.3-0.9,0.8-1c0.3,0,0.6,0.1,1,0.6c0-0.1,0-0.3,0.1-0.4c0.1-0.2,0.1-0.4,0.2-0.5l0.2-0.5l0.2,0.1c0.1,0,0.2,0.1,0.2,0.1 c0.3,0.1,0.5,0.2,0.6,0.5c0.3,1.3,0.5,2.3,0.5,3.2c0.1,0.8-0.1,1.5-0.5,2C21,18.7,20.5,19,19.9,19z M19.1,16.6c0,0.3,0,0.5,0.1,0.6 c0.1,0.1,0.2,0,0.3,0c0.3-0.1,0.8-0.5,0.8-0.7c0.1-0.4,0-0.6-0.2-0.8c-0.2-0.2-0.5-0.3-1-0.3c0,0.1,0,0.1,0,0.2 C19.1,15.9,19.2,16.3,19.1,16.6z M16.8,25.9c-0.3,1.6-1.2,2.9-2.4,3.5h0c-0.1,0.1-0.3,0.1-0.5,0.1c-0.2,0-0.4,0-0.5-0.1 c-0.1,0-0.3,0-0.4-0.1l-0.4,0l0.2-0.3c0.1-0.1,0.1-0.2,0.2-0.3c0.1-0.3,0.3-0.6,0.5-0.8c1-0.6,1.6-1.5,1.7-2.5 c0.2-1-0.1-2.1-0.8-3.1c-0.8,0.5-1.4,1.3-2,2.1c-0.8,1-1.6,2.1-2.9,2.6l-0.1,0.1l-0.6-0.6l0.1-0.2C9,26,9.1,25.8,9.3,25.7 c0.3-0.4,0.5-0.8,0.8-1.2c1.1-1.3,2-2.4,2.9-3.4c0.4-0.4,0.8-0.6,1.3-0.6c0,0,0,0,0,0c0.5,0,0.9,0.2,1.3,0.7 C16.7,22.4,17.1,24.1,16.8,25.9z M13.9,17.4c-0.1,0.2-0.4,0.3-0.7,0.4c-0.1,0-0.2,0.1-0.3,0.1l-0.3,0.1l0-0.3c0-0.1,0-0.2,0-0.3 c-0.1-0.2-0.1-0.5,0-0.7c0.1-0.2,0.1-0.4,0.2-0.6c-0.3,0.2-0.6,0.4-1,0.3c-0.3-0.1-0.6-0.3-0.8-0.8l-0.1-0.2l0.9-0.6l-1.5-0.7 l0.4-0.2c1.2-0.7,3.1-0.6,3.8,0.1c0.3,0.3,0.5,0.9,0.4,1.3C14.6,16,14.3,16.7,13.9,17.4z"/>
</svg>