<!-- (c) Carrd Inc. All rights reserved. All logos and trademarks are property of their respective owners. -->
<svg xmlns="http://www.w3.org/2000/svg" id="icon">
<path d="M2,20.8c0-0.5,0-1.1,0-1.6c0-0.2,0.1-0.4,0.1-0.6c0.1-1.2,0.3-2.5,0.7-3.7c1.1-3.7,3.1-6.7,6.1-9C11.3,4,14,2.8,17,2.3 c0.6-0.1,1.3-0.2,1.9-0.3c0.7,0,1.5,0,2.2,0c0.2,0,0.4,0.1,0.6,0.1c1.3,0.1,2.5,0.4,3.7,0.7C29.1,4,32,6.1,34.3,9.2 c1.9,2.5,3.1,5.4,3.5,8.6c0.1,0.5,0.1,0.9,0.2,1.4c0,0.5,0,1.1,0,1.6c0,0.2-0.1,0.3-0.1,0.5c-0.2,2.3-0.7,4.6-1.8,6.6 c-2.9,5.6-7.6,9-13.9,9.9c-0.5,0.1-0.9,0.1-1.4,0.2c-0.6,0-1.2,0-1.8,0c-0.2,0-0.3-0.1-0.5-0.1c-3-0.2-5.8-1.2-8.4-2.8 C5.6,32,2.9,27.7,2.2,22.2C2.1,21.8,2.1,21.3,2,20.8z M4.8,20c0,8.3,6.8,15.2,15.2,15.2c8.3,0,15.2-6.8,15.2-15.2 c0-8.3-6.7-15.2-15.2-15.1C11.5,4.8,4.8,11.7,4.8,20z M16.6,27.7c0,0.3,0,0.6-0.2,0.9c-0.3,0.7-1.1,1-1.8,0.7 c-3.2-1.2-4.2-5.3-1.9-7.9c0.4-0.4,0.8-0.8,1.2-1.2c0.4-0.3,0.4-0.3,0-0.7c-0.4-0.4-0.9-0.8-1.2-1.2c-2.2-2.6-1.2-6.6,2-7.7 c1-0.4,2,0.3,2,1.4C16.7,14.6,16.7,25.1,16.6,27.7z M20.6,27.9c0,0.6-0.3,1-0.9,1.2c-0.5,0.1-1-0.2-1.2-0.6 c-0.1-0.2-0.1-0.3-0.1-0.5c0-4.7,0-9.3,0-14c0-0.6,0-1.2,0-1.8c0-0.6,0.4-1,0.9-1.1c0.5-0.1,1,0.2,1.2,0.7c0.1,0.2,0.1,0.3,0.1,0.5 C20.6,14.8,20.6,25.2,20.6,27.9z M24.5,24.3c0,0.9-0.8,1.4-1.5,1.1c-0.4-0.2-0.7-0.5-0.7-1c0-1.7,0-3.4,0-5.1c0-1.2,0-2.4,0-3.5 c0-0.8,0.6-1.3,1.3-1.2c0.5,0.1,0.9,0.5,0.9,1.1C24.6,17.1,24.5,22.9,24.5,24.3z M26.3,20c0-0.2,0-0.4,0-0.7c0-0.6,0.5-1.1,1.1-1.1 c0.6,0,1.1,0.4,1.1,1c0,0.5,0,1,0,1.5c0,0.6-0.5,1.1-1.2,1.1c-0.6,0-1-0.5-1.1-1.1C26.3,20.4,26.3,20.2,26.3,20 C26.3,20,26.3,20,26.3,20z"/>
</svg>