<!-- (c) Carrd Inc. All rights reserved. All logos and trademarks are property of their respective owners. -->
<svg xmlns="http://www.w3.org/2000/svg" id="icon">
<path d="M37,10.2L37,10.2C37,10.2,37,10.3,37,10.2l0,0.5c0,0.8-0.1,1.6-0.4,2.4c0.1,0.2,0.1,0.5,0.2,0.8 c0,0.5,0.1,0.9,0.1,1.4c-0.1,1.3-0.5,2.5-1.3,3.5c-0.2,0.2-0.3,0.4-0.5,0.6l-0.1,0.1c-0.1,1-0.3,2.1-0.7,3.3 c0.1,0.2,0.1,0.5,0.1,0.7l0,0.2c0.1,0.7,0.2,1.4,0.1,2.3c-0.1,1.5-0.5,3-1.3,4.4c-0.5,0.9-1.2,1.8-2,2.5c-1,0.9-2.1,1.6-3.3,2.1 c-0.8,0.3-1.5,0.5-2.2,0.5c-0.6,0.1-1.3,0.1-1.8,0.1c-0.2,0-0.3,0-0.5,0c-0.2,0.3-0.4,0.7-0.6,1.1c-0.8,1.2-2,2-3.3,2.4 c-0.4,0.1-0.8,0.2-1.3,0.3c-0.4,0-0.8,0.1-1.2,0c-1-0.1-1.9-0.3-2.7-0.8c-0.5,0.2-1,0.3-1.5,0.4c-0.2,0-0.5,0.1-0.8,0.1 c-0.7,0.4-1.4,0.6-2.2,0.7c-0.3,0-0.6,0.1-1,0.1c-0.2,0-0.4,0-0.6,0c-0.7,0-1.3-0.2-2-0.4c-0.7-0.3-1.3-0.6-1.9-1.1 c-0.5-0.4-1-1-1.3-1.6c-0.5-0.8-0.8-1.5-0.9-2.3c-0.1-0.4-0.1-0.8-0.1-1.3c0-1.6,0.5-3,1.6-4.3l0,0c0-0.3,0.1-0.5,0.2-0.7l0.1-0.1 c0.3-0.7,0.6-1.4,1.1-2C5.1,25.1,5,24.8,5,24.4c-0.1-0.8,0-1.6,0.2-2.4c-0.8-1.2-1.3-2.5-1.6-3.9c-0.1-0.7-0.2-1.5-0.1-2.2 c0.1-2.5,1.1-4.7,2.7-6.5c1.6-1.7,3.5-2.7,5.8-3c1.6-0.2,3.2-0.1,4.7,0.4c0.1,0,0.2-0.1,0.3-0.1c0.3-0.6,0.8-1.2,1.2-1.6 c1.1-1.1,2.4-1.8,3.9-2c0.3,0,0.6-0.1,0.9-0.1l0.1,0c0,0,0.1-0.1,0.1-0.1c0.9-0.4,1.7-0.6,2.5-0.7c0.3,0,0.6,0,0.8,0l0.2,0 c0.7-0.6,1.5-1.1,2.3-1.4c0.8-0.3,1.6-0.4,2.5-0.3c1.5,0.1,2.8,0.7,3.9,1.7c1,1,1.7,2.3,2,3.7C38,7.5,37.7,8.9,37,10.2z M35.8,6.4 c-0.1-0.9-0.5-2.1-1.7-3c-1-0.8-2.4-1.1-3.7-0.9c1.1,0.2,2.2,0.7,3.1,1.4C34.5,4.6,35.3,5.5,35.8,6.4z M16.3,8.7 c-0.4-0.2-0.8-0.3-1.1-0.3c-0.4-0.1-0.9-0.1-1.4-0.2c-0.1,0-0.1,0-0.2,0c-0.2,0-0.3,0-0.5,0c-0.3,0-0.7,0.1-1.1,0.1 c-0.8,0.1-1.6,0.4-2.3,0.9c-0.7,0.4-1.3,0.9-1.8,1.4c-0.3,0.3-0.5,0.6-0.7,0.8c-0.5,0.6-0.9,1.3-1.1,2.1c-0.2,0.4-0.3,0.9-0.3,1.3 c-0.1,0.5-0.1,0.9-0.1,1.3c0,0.4,0,0.8,0.1,1.3l0,0.1c0,0.5,0.2,0.9,0.3,1.3C6,19.5,6.3,20,6.6,20.5c0.3,0.5,0.6,1,1,1.4 c0.6,0.6,1.1,1.1,1.8,1.5c0.5,0.3,1,0.5,1.4,0.7c0.5,0.2,0.9,0.3,1.4,0.4c0.5,0.1,0.9,0.1,1.3,0.1c0.2,0,0.5,0,0.8,0 c0.2,0,0.5-0.1,0.7-0.1c0.2-0.2,0.4-0.4,0.6-0.6l0.1-0.1c0.3-0.3,0.5-0.6,0.7-0.9c0.4-0.6,0.7-1,1-1.4c0.3-0.4,0.6-0.9,0.9-1.5 c0.4-0.7,0.7-1.4,0.9-2.1c0.1-0.4,0.3-0.8,0.4-1.2c-1.3-0.8-2.3-2-2.9-3.4C16.1,11.7,16,10.2,16.3,8.7z M4.1,32.7 c0,2.6,2,4.8,4.6,4.8c2.9,0.1,4.8-2.3,4.9-4.6c0.1-1.4-0.4-2.6-1.3-3.6c-0.9-0.9-2.1-1.4-3.3-1.4c0,0,0,0,0,0 C6.2,28,4.1,30.1,4.1,32.7z M12.9,27.4c-0.1-0.1-0.1-0.2-0.2-0.3c-0.2-0.2-0.3-0.4-0.5-0.6l-0.1-0.1c0,0-0.1,0-0.1,0l-0.4-0.1 c-0.4-0.1-0.8-0.2-1.1-0.3c-0.7-0.2-1.4-0.5-2.1-1c-0.3,0.2-0.5,0.4-0.7,0.6c-0.2,0.2-0.5,0.4-0.6,0.7C7.6,26.1,8.2,26,8.8,26 c0.2,0,0.5,0,0.7,0C10.9,26.2,12,26.7,12.9,27.4z M31.7,18.4c-1.2,0.4-2.4,0.6-3.5,0.5c1.1,0.6,2.5,0.9,4.1,0.2 c1.3-0.6,2.1-1.6,2.4-2.7C33.8,17.3,32.8,17.9,31.7,18.4z M30.9,21.4c-0.7,0.1-1.4,0-2-0.2c-1.2-0.3-2.3-0.9-3.1-1.8 c-0.5-0.6-1-1.2-1.3-1.8c-0.1,0-0.2-0.1-0.2-0.2l-0.2,0c-0.2,0-0.4,0-0.6,0c-0.3,0-0.5,0-0.8-0.1c-0.4-0.1-0.8-0.1-1.2-0.2 c0,0,0,0,0,0c-0.1,0.2-0.1,0.4-0.2,0.6c-0.2,0.7-0.5,1.3-0.8,2c-0.2,0.4-0.4,0.8-0.6,1.2c-0.3,0.5-0.6,1-0.9,1.5 c-0.6,0.9-1.1,1.7-1.7,2.3c-0.2,0.3-0.5,0.5-0.7,0.8L16.2,26c-0.1,0.1-0.3,0.3-0.6,0.3l-0.3,0c-0.2,0-0.4,0.1-0.5,0.1 c3.2,3.1,8,4,12.1,2c2.1-1,3.8-2.6,4.9-4.7c0.5-0.9,0.9-1.8,1.1-2.8C32.2,21.2,31.5,21.4,30.9,21.4z M26.4,30.7 c-2.6,0.9-5.2,1-7.7,0.3c1.5,1.6,3.3,2.4,5.4,2.5c3.3,0.1,5.9-1.3,7.5-4.2c0.6-1,0.9-2.1,1-3.3C31.1,28.2,29,29.7,26.4,30.7z M17,33.8c0.2-0.4,0.4-0.8,0.6-1.3c-0.1-0.1-0.3-0.3-0.4-0.4c-0.3-0.3-0.5-0.6-0.8-0.9c-0.4-0.5-0.7-1.1-1-1.7 c-0.5-0.3-1-0.7-1.5-1.2c0.2,0.2,0.3,0.4,0.5,0.6c1,1.5,1.4,3.1,1.1,5c-0.1,0.7-0.4,1.4-0.7,2.1c0,0,0,0,0,0 c0.4-0.2,0.8-0.5,1.1-0.8C16.4,34.8,16.7,34.3,17,33.8z M18.1,10.7l0,0.2c0,0.3,0.1,0.7,0.2,1c0.1,0.4,0.3,0.8,0.5,1.2 c0.3,0.5,0.7,0.9,1.2,1.3c0.4,0.3,0.9,0.6,1.4,0.8c0.6,0.2,1.2,0.4,1.8,0.4c0.3,0,0.7,0,1-0.1c0.6-0.1,1.2-0.3,1.8-0.6 c0.3-0.6,0.5-1.2,0.6-1.8c0.2-0.7,0.3-1.5,0.4-2.2c0-0.3,0-0.6,0.1-0.9l0-0.4l0-0.3c0-0.3,0-0.6,0-0.8c0-0.4-0.1-0.8-0.1-1.1 c-0.1-0.4-0.1-0.7-0.2-1l0-0.1c0,0,0-0.1,0-0.1c-0.5-0.3-0.9-0.6-1.3-0.7C24.8,5.2,24.3,5,23.7,5c-0.5,0-1,0-1.5,0.1 c-0.5,0.1-1.1,0.3-1.6,0.6c-0.5,0.3-1,0.7-1.4,1.2c-0.3,0.4-0.6,0.8-0.8,1.4c-0.2,0.6-0.3,1.1-0.4,1.6 C18.1,10.1,18.1,10.4,18.1,10.7z M27.6,4.5c0.3,0.2,0.7,0.6,0.9,1.2L28.6,6c0.1,0.6,0.3,1.2,0.3,1.9l0,0.3C28.9,8.6,29,9,29,9.3 c0,0.3,0,0.5,0,0.8l0,0.3c0,0.4-0.1,0.9-0.1,1.3c0,0.4-0.1,0.9-0.2,1.3c-0.2,0.8-0.4,1.7-0.7,2.4c-0.1,0.3-0.2,0.5-0.4,0.7 c-0.2,0.2-0.4,0.3-0.6,0.5c0.5,0.2,1.1,0.3,1.7,0.3c0.3,0,0.6,0,1-0.1c0.3,0,0.6-0.1,1.1-0.2c0.3-0.1,0.7-0.3,1.2-0.5 c0.4-0.3,0.9-0.6,1.3-0.9c0.2-0.2,0.3-0.3,0.4-0.5c0.2-0.3,0.5-0.7,0.7-1c0.2-0.4,0.4-0.9,0.6-1.4c0.1-0.5,0.2-1,0.2-1.5 c0-0.2,0-0.5,0-0.8l0-0.2c0-0.4-0.1-0.8-0.3-1.2c-0.1-0.4-0.3-0.8-0.5-1.2C34,7,33.7,6.7,33.4,6.4c-0.2-0.2-0.5-0.5-0.7-0.7 c-0.3-0.3-0.6-0.5-1-0.7c-0.5-0.2-0.9-0.4-1.3-0.5c-0.5-0.1-0.9-0.2-1.4-0.2c-0.3,0-0.7,0-0.9,0C27.9,4.4,27.7,4.4,27.6,4.5 C27.6,4.4,27.6,4.4,27.6,4.5z M19.2,33.8c-0.6,1.3-1.5,2.4-2.6,3.2c0.7,0.2,1.7,0.2,2.8-0.3c0.9-0.4,1.6-1,2.1-1.9 C20.7,34.7,19.9,34.3,19.2,33.8z M36.7,10.1L36.7,10.1L36.7,10.1L36.7,10.1z"/>
</svg>