<!-- (c) Carrd Inc. All rights reserved. All logos and trademarks are property of their respective owners. -->
<svg xmlns="http://www.w3.org/2000/svg" id="icon">
<path d="M33.3,30.5l-8-5.6c-0.4-0.4-0.5-1.2,0-2h0c0.5-0.7,1.2-1.1,1.7-0.9l8.8,4.1c0.8,0.5,0.9,1.8,0.2,3.1 C35.3,30.4,34.1,31,33.3,30.5z M35.8,13.8L27,17.9c-0.5,0.2-1.3-0.2-1.7-0.9l0,0c-0.4-0.8-0.4-1.6,0-2l8-5.6 c0.8-0.5,2.1,0.1,2.8,1.3C36.7,12,36.6,13.4,35.8,13.8z M20,38.4c-1.4,0-2.5-0.8-2.5-1.7l0.9-9.7c0.1-0.6,0.8-1,1.7-1 c0.9,0,1.6,0.4,1.7,1l0.9,9.7C22.5,37.7,21.4,38.4,20,38.4z M20,14c-0.9,0-1.6-0.4-1.7-1l-0.9-9.7c0-1,1.1-1.7,2.5-1.7 c1.4,0,2.5,0.8,2.5,1.7L21.7,13C21.6,13.5,20.9,14,20,14z M6.7,30.5C5.9,31,4.7,30.4,4,29.2c-0.7-1.2-0.6-2.6,0.2-3.1l8.8-4.1 c0.6-0.2,1.3,0.2,1.7,0.9c0.4,0.8,0.4,1.6-0.1,2L6.7,30.5z M14.8,17c-0.4,0.7-1.2,1.1-1.7,0.9l-8.8-4.1c-0.8-0.5-1-1.8-0.2-3.1 c0.7-1.2,2-1.8,2.8-1.3l8,5.6C15.2,15.4,15.2,16.2,14.8,17L14.8,17z"/>
</svg>