<!-- (c) Carrd Inc. All rights reserved. All logos and trademarks are property of their respective owners. -->
<svg xmlns="http://www.w3.org/2000/svg" id="icon">
<path d="M39.8,23.6c0,1.1-1,2.2-2.2,2.2c-2.2,0-4.4,0-6.6,0c-1.1-0.1-1.9-1.2-1.9-2.2c0-1.7,0-3.3,0-5 c0-0.5,0.1-1,0.3-1.4c0.3-0.5,0.9-0.9,1.4-1.1h0c0.2-0.1,0.5-0.1,0.7-0.1c2,0,4,0,6,0c1.1,0,2.1,1,2.2,2.2 C39.8,20,39.8,21.8,39.8,23.6z M37.7,17.8c-2.1,0-4.3,0-6.4,0c0,2.1,0,4.1,0,6.2c2.1,0,4.3,0,6.4,0C37.7,21.9,37.7,19.9,37.7,17.8z" /><path d="M21.7,21.7c-0.9,0-1.6-0.8-1.8-1.7c2.4,0,4.9,0,7.3,0c0,1.2,0,2.4,0,3.7c0,1-0.9,1.9-1.9,2c-2.3,0-4.7,0-7,0 c-0.7,0-1.3-0.4-1.7-1c-0.3-0.4-0.3-0.9-0.4-1.3c0-1.6,0-3.3,0-4.9c0-0.6,0.1-1.2,0.5-1.7c0.4-0.6,1.2-0.9,1.9-0.9 c2.2,0,4.3,0,6.5,0c1.1,0,2.1,0.8,2.2,1.9c-3,0-6,0-9,0c0,2,0,4,0,6c2.3,0,4.6,0,6.9,0c0-0.7,0-1.4,0-2.1 C24,21.7,22.9,21.7,21.7,21.7z" /> <path d="M17.5,9.9c0-0.3,0-0.4,0-0.8c0,0,0.2,0,0.2,0c0,0.3,0,0.5,0,0.8L18,10c0.1,0,0.1,0.3,0.1,0.4l2.6,0 c0,0.1,0,0.2,0,0.4l-3.3,0c0,0.1,0.1,0.2-0.1,0.2c-0.7,0-1.4,0-2.2,0c-0.1,0.1-0.2,0.1-0.3,0.1c-0.1,0.3-0.4,0.5-0.7,0.7 c0,0.5,0.2,0.9,0.2,1.4c-0.1,0-0.3,0.1-0.4,0.1c-0.2,0.5-0.1,1.1-0.5,1.5c-0.4,0.2-0.6,0.7-1.1,0.6c0,0,0,0,0,0c0,0,0,0,0,0 c-0.9-0.1-1.6-0.6-2.4-1c0,0.2-0.1,0.4-0.1,0.6c0.3,0.1,0.5,0.3,0.6,0.6c0.1,0.6-0.1,1.3-0.1,1.9c0,0.4-0.1,0.7-0.3,1 c-0.2,0.2-0.5,0-0.7,0c0,0.1-0.1,0.2-0.1,0.3c0.1,0.3,0.1,0.5,0.2,0.8c0.5,0.5,0.9,1.1,1.2,1.7c0.3,0.7,0.6,1.4,0.9,2.2 c0,0.1,0.2,0.2,0.3,0.2c0,0.1,0,0.3,0,0.4c0,0.1,0.1,0.1,0.1,0.2c0,0.9-0.1,1.8-0.2,2.7c-0.1,0.4,0.2,0.8,0.1,1.2 c0,0.2-0.1,0.4-0.2,0.6c0,0.4,0,0.9,0,1.3c0,0.3,0.3,0.5,0.5,0.8c0.2,0.2,0.4,0.5,0.7,0.6c0.3,0.1,0.6,0.2,0.8,0.4 c0.1,0.2,0.1,0.4,0,0.6c-0.5,0.1-1.1,0.1-1.6,0.1c-0.4,0-0.8-0.2-1.2-0.3c-0.4,0-0.9,0.2-1.2-0.2c0.1-0.5,0.1-1,0.4-1.5 c0.1-0.5-0.1-1.1,0-1.6c0,0-0.1-0.1-0.2-0.2c0-0.3-0.1-0.7-0.2-1c0-0.5-0.1-1-0.1-1.4c0-0.2,0.1-0.4,0.2-0.6c0-0.3,0.1-0.5,0.1-0.8 c0-0.2-0.2-0.3-0.3-0.5c-0.3,0.1-0.7,0.1-0.9-0.2c-0.4-0.6-0.8-1.3-1.3-1.9c-0.2,0-0.3,0-0.5-0.1c-0.2-0.2-0.3-0.4-0.4-0.7 C6.2,22,6.2,22.3,6,22.5c-0.4,0.4-0.5,1-0.7,1.5c-0.2,0.3-0.1,0.7-0.3,1c-0.1,0.2-0.3,0.2-0.4,0.4c-0.1,0.2-0.2,0.4-0.4,0.6 c-0.2,0.1-0.3,0.4-0.4,0.6c-0.1,0.2,0,0.4,0,0.6c-0.1,0.7-0.6,1.2-0.7,1.9c-0.1,0.3-0.2,0.6-0.5,0.7c-0.4,0.7-0.6,1.6-0.4,2.3 c0.1,0.2,0.1,0.5,0.1,0.8c-0.6,0-1.3,0.1-1.9,0c-0.1-0.3-0.1-0.6-0.1-0.9c0.2-0.8,0.4-1.6,0.6-2.4c-0.2-0.2-0.1-0.4-0.1-0.7 c0-0.4,0.3-0.8,0.5-1.1c0.1-0.4,0-0.7,0.2-1.1c0.2-0.4,0.4-0.9,0.7-1.2c0.1-0.3,0.3-0.5,0.4-0.8c0.1-0.2-0.1-0.5,0-0.8 c0.1-0.8,0.2-1.5,0.3-2.3c-0.2-0.2-0.2-0.5-0.2-0.8c0-0.1,0.1-0.2,0.1-0.3c-0.1-0.1-0.1-0.1-0.2-0.2c0.1-0.3,0-0.8,0.5-0.7 c0-0.9-0.3-1.8-0.2-2.7c0,0,0.1-0.1,0.1-0.1l0,0c0.2-0.1,0.4-0.2,0.6-0.2c-0.3,0-0.6-0.1-0.9-0.2c-0.1-0.2,0-0.4,0-0.6 c0.1-0.7,0.2-1.4,0.2-2.1c0.4-0.1,0.7,0,1.1-0.2c-0.1-0.9-0.1-1.8,0.2-2.6c0.2-0.7,0.7-1.4,1.5-1.6c0.3-0.1,0.8-0.2,1,0.2 c0.1-0.1,0.1-0.1,0.2-0.2c-0.6-1.1,0.1-2.8,1.4-3v0c0.4-0.1,0.9,0,1.3,0.2C9.7,6.9,10,7,10.3,7.1c0,0,0.1,0.1,0.1,0.2 c0,0,0,0.1,0,0.1c0.2,0.5,0.4,1.1,0.1,1.6c-0.1,0.2-0.4,0.2-0.6,0.3c0,0.2,0,0.5,0.1,0.7c0.4,0.1,0.8-0.2,1.2-0.2l0.6,0.1 c1.9,0,3.7,0,5.6,0L17.5,9.9z" /><path d="M13,11.4c-0.1,0-0.2,0-0.3,0h0c-0.1,0.1-0.3,0.2-0.1,0.4c-0.1,0-0.2,0.1-0.2,0.1c-0.1,0.1-0.4,0.1-0.4,0.3 c0.1,0.2,0.3,0.4,0.3,0.7c0.3-0.2,0.5-0.6,0.7-0.9c0,0,0.1-0.1,0.1-0.1C13.1,11.7,13.1,11.5,13,11.4z" /> <path d="M12.3,15.5C12.4,15.5,12.4,15.5,12.3,15.5C12.4,15.5,12.3,15.5,12.3,15.5z" />
</svg>