<!-- (c) Carrd Inc. All rights reserved. All logos and trademarks are property of their respective owners. -->
<svg xmlns="http://www.w3.org/2000/svg" id="icon">
<path d="M15.5,7.2c4.5,0,9,0,13.4,0c0.1,0,0.1,0,0.2,0c0.1,0,0.2,0.1,0.4,0.1c0,0.1-0.1,0.2-0.1,0.3C29,8.3,28.5,9,28.1,9.7 c-0.7,1.2-1.4,2.4-2.1,3.7c-0.6,1.1-1.2,2.2-1.8,3.2c-0.5,0.8-0.9,1.6-1.4,2.4c-0.6,1.1-1.3,2.2-1.9,3.3c-0.5,0.9-1.1,1.9-1.6,2.8 c-0.5,0.8-1,1.7-1.4,2.5c-0.1,0.1-0.1,0.3,0,0.4c0.5,1,1.1,2,1.7,3c0.1,0.2,0.2,0.4,0.3,0.6c0,0.1,0.1,0.2,0.2,0.2 c0,0,0.1-0.1,0.2-0.2c0.6-1.1,1.3-2.2,1.9-3.3c0.5-0.8,0.9-1.7,1.4-2.5c0.6-1,1.2-2.1,1.8-3.1c0.5-0.8,1-1.7,1.5-2.5 c0.7-1.2,1.4-2.4,2.1-3.6c0.6-1.1,1.2-2.1,1.8-3.2c1-1.7,1.9-3.4,2.9-5c0.2-0.4,0.4-0.7,0.6-1.1c0.1-0.1,0.2-0.2,0.3-0.2 c1.2,0,2.4,0,3.6,0c0.3,0,0.3,0.1,0.2,0.3c-1.1,1.9-2.3,3.9-3.4,5.8c-1.2,2.1-2.4,4.1-3.6,6.2c-0.7,1.2-1.4,2.4-2.1,3.6 c-0.8,1.4-1.7,2.9-2.5,4.3c-1,1.7-2,3.4-3,5.1c-0.7,1.2-1.4,2.4-2.1,3.6c-0.5,0.9-1,1.7-1.5,2.6c-0.1,0.2-0.3,0.2-0.4,0 c-0.9-1.5-1.7-2.9-2.6-4.4c-1-1.7-2-3.4-2.9-5.1c-0.9-1.5-1.8-3-2.6-4.5c-1-1.7-2-3.4-3-5.1c-1.1-1.8-2.1-3.6-3.2-5.5 C4.6,12.7,3.8,11.3,3,9.9C2.5,9.1,2,8.3,1.5,7.4c-0.1-0.2,0-0.2,0.1-0.3c0.1,0,0.2,0,0.3,0C6.5,7.2,11,7.2,15.5,7.2z"/>
</svg>