<!-- (c) Carrd Inc. All rights reserved. All logos and trademarks are property of their respective owners. -->
<svg xmlns="http://www.w3.org/2000/svg" id="icon">
<path d="M35.7,17.1c-0.5-0.2-1.1-0.3-1.6-0.3c-0.5,0-0.9,0.1-1.4,0.3c-0.4,0.2-0.8,0.4-1.1,0.7c-0.3,0.3-0.6,0.7-0.8,1 c-0.2,0.4-0.3,0.8-0.3,1.3c0,0.4,0.1,0.9,0.3,1.3c0.2,0.4,0.4,0.8,0.8,1c0.3,0.3,0.7,0.5,1.1,0.7c0.4,0.2,0.9,0.3,1.4,0.3 c0.5,0,1.1-0.1,1.6-0.3c0.5-0.2,1-0.5,1.5-1l2.8,4.3c-0.5,0.3-0.9,0.6-1.4,0.9c-0.4,0.2-0.9,0.4-1.4,0.6c-0.5,0.2-0.9,0.3-1.4,0.3 c-0.5,0.1-1,0.1-1.6,0.1c-1.3,0-2.4-0.2-3.5-0.7c-1.1-0.4-2-1-2.9-1.8c-0.8-0.7-1.5-1.6-1.9-2.6c-0.5-1-0.7-2.1-0.7-3.2 c0-1.1,0.2-2.2,0.7-3.2c0.5-1,1.1-1.9,1.9-2.6c0.8-0.7,1.8-1.3,2.9-1.8c1.1-0.4,2.3-0.7,3.5-0.7c0.5,0,1,0,1.5,0.1 c0.5,0.1,0.9,0.2,1.3,0.3c0.4,0.1,0.9,0.3,1.3,0.5c0.4,0.2,0.9,0.5,1.3,0.8L37,17.9C36.7,17.6,36.3,17.3,35.7,17.1z M36.2,14.3 c-0.2-0.1-0.4-0.1-0.7-0.2c-0.2-0.1-0.4-0.1-0.6-0.1c-0.2,0-0.4,0-0.7,0c-0.9,0-1.8,0.2-2.6,0.5c-0.8,0.3-1.5,0.7-2.1,1.3 c-0.6,0.5-1.1,1.2-1.4,1.9c-0.3,0.7-0.5,1.5-0.5,2.4c0,0.8,0.2,1.6,0.5,2.4c0.3,0.7,0.8,1.4,1.4,1.9c0.6,0.5,1.3,1,2.1,1.3 c0.8,0.3,1.7,0.5,2.6,0.5c0.5,0,1.1-0.1,1.6-0.2c0.5-0.1,1-0.3,1.5-0.5L37,24.7c-0.4,0.2-0.9,0.4-1.3,0.5c-0.4,0.1-0.9,0.2-1.4,0.2 c-0.8,0-1.6-0.1-2.3-0.4c-0.7-0.3-1.4-0.7-1.9-1.1c-0.5-0.5-1-1-1.3-1.7c-0.3-0.7-0.5-1.4-0.5-2.1c0-0.8,0.2-1.4,0.5-2.1 c0.3-0.7,0.7-1.2,1.3-1.7c0.5-0.5,1.2-0.9,1.9-1.1c0.7-0.3,1.5-0.4,2.3-0.4c0.4,0,0.9,0,1.2,0.1c0.4,0.1,0.8,0.2,1.3,0.4l0.3-0.5 C36.7,14.4,36.4,14.3,36.2,14.3z M23.2,17.1c-0.5-0.2-1.1-0.3-1.6-0.3c-0.5,0-0.9,0.1-1.4,0.3c-0.4,0.2-0.8,0.4-1.1,0.7 c-0.3,0.3-0.6,0.7-0.8,1C18.1,19.2,18,19.6,18,20c0,0.4,0.1,0.9,0.3,1.3c0.2,0.4,0.4,0.8,0.8,1c0.3,0.3,0.7,0.5,1.1,0.7 c0.4,0.2,0.9,0.3,1.4,0.3c0.5,0,1.1-0.1,1.6-0.3c0.5-0.2,1-0.5,1.5-1l2.8,4.3c-0.5,0.3-0.9,0.6-1.4,0.9c-0.4,0.2-0.9,0.4-1.4,0.6 c-0.5,0.2-0.9,0.3-1.4,0.3c-0.5,0.1-1,0.1-1.6,0.1c-1.3,0-2.4-0.2-3.5-0.7c-1.1-0.4-2-1-2.9-1.8c-0.8-0.7-1.5-1.6-1.9-2.6 c-0.5-1-0.7-2.1-0.7-3.2c0-1.2,0.2-2.2,0.7-3.2c0.5-1,1.1-1.9,1.9-2.6c0.8-0.7,1.8-1.3,2.9-1.8c1.1-0.4,2.3-0.7,3.5-0.7 c0.5,0,1,0,1.5,0.1c0.5,0.1,0.9,0.2,1.3,0.3c0.4,0.1,0.9,0.3,1.3,0.5c0.4,0.2,0.9,0.5,1.3,0.8l-2.6,4.4 C24.1,17.6,23.7,17.3,23.2,17.1z M23.6,14.3c-0.2-0.1-0.4-0.1-0.7-0.2c-0.2-0.1-0.4-0.1-0.6-0.1c-0.2,0-0.4,0-0.7,0 c-0.9,0-1.8,0.2-2.6,0.5c-0.8,0.3-1.5,0.7-2.1,1.3c-0.6,0.5-1.1,1.2-1.4,1.9C15.1,18.4,15,19.2,15,20c0,0.8,0.2,1.6,0.5,2.4 c0.3,0.7,0.8,1.4,1.4,1.9c0.6,0.5,1.3,1,2.1,1.3c0.8,0.3,1.7,0.5,2.6,0.5c0.5,0,1.1-0.1,1.6-0.2c0.5-0.1,1-0.3,1.5-0.5l-0.3-0.5 c-0.4,0.2-0.9,0.4-1.3,0.5c-0.4,0.1-0.9,0.2-1.4,0.2c-0.8,0-1.6-0.1-2.3-0.4c-0.7-0.3-1.4-0.7-1.9-1.2c-0.5-0.5-1-1-1.3-1.7 c-0.3-0.7-0.5-1.4-0.5-2.1c0-0.8,0.2-1.4,0.5-2.1c0.3-0.7,0.7-1.2,1.3-1.7c0.5-0.5,1.2-0.9,1.9-1.2c0.7-0.3,1.5-0.4,2.3-0.4 c0.4,0,0.9,0,1.2,0.1c0.4,0.1,0.8,0.2,1.3,0.4l0.3-0.5C24.1,14.4,23.8,14.3,23.6,14.3z M10.6,17.1c-0.5-0.2-1.1-0.3-1.6-0.3 c-0.5,0-0.9,0.1-1.4,0.3c-0.4,0.2-0.8,0.4-1.1,0.7c-0.3,0.3-0.6,0.7-0.8,1c-0.2,0.4-0.3,0.8-0.3,1.3c0,0.4,0.1,0.9,0.3,1.3 c0.2,0.4,0.4,0.8,0.8,1c0.3,0.3,0.7,0.5,1.1,0.7C8,23.3,8.5,23.3,9,23.3c0.5,0,1.1-0.1,1.6-0.3c0.5-0.2,1-0.5,1.5-1l2.8,4.3 c-0.5,0.3-0.9,0.6-1.4,0.9c-0.4,0.2-0.9,0.4-1.4,0.6c-0.5,0.2-0.9,0.3-1.4,0.3c-0.5,0.1-1,0.1-1.6,0.1c-1.3,0-2.4-0.2-3.5-0.7 c-1.1-0.4-2-1-2.9-1.8c-0.8-0.7-1.5-1.6-1.9-2.6C0.2,22.2,0,21.1,0,20c0-1.1,0.2-2.2,0.7-3.2s1.1-1.9,1.9-2.6 c0.8-0.7,1.8-1.3,2.9-1.8C6.6,12,7.8,11.8,9,11.8c0.5,0,1,0,1.5,0.1c0.5,0.1,0.9,0.2,1.3,0.3c0.4,0.1,0.9,0.3,1.3,0.5 c0.4,0.2,0.9,0.5,1.3,0.8l-2.6,4.4C11.5,17.6,11.1,17.3,10.6,17.1z M11,14.3c-0.2-0.1-0.4-0.1-0.7-0.2C10.1,14.1,9.9,14,9.7,14 c-0.2,0-0.4,0-0.7,0c-0.9,0-1.8,0.2-2.6,0.5c-0.8,0.3-1.5,0.7-2.1,1.3c-0.6,0.5-1.1,1.2-1.4,1.9c-0.3,0.7-0.5,1.5-0.5,2.4 c0,0.8,0.2,1.6,0.5,2.4c0.3,0.7,0.8,1.4,1.4,1.9c0.6,0.5,1.3,1,2.1,1.3C7.2,25.8,8.1,26,9,26c0.5,0,1.1-0.1,1.6-0.2 c0.5-0.1,1-0.3,1.5-0.5l-0.3-0.5c-0.4,0.2-0.9,0.4-1.3,0.5c-0.4,0.1-0.9,0.2-1.4,0.2c-0.8,0-1.6-0.1-2.3-0.4 c-0.7-0.3-1.4-0.7-1.9-1.1c-0.5-0.5-1-1-1.3-1.7c-0.3-0.7-0.5-1.4-0.5-2.1c0-0.8,0.2-1.4,0.5-2.1c0.3-0.7,0.7-1.2,1.3-1.7 C5.3,15.7,6,15.3,6.7,15c0.7-0.3,1.5-0.4,2.3-0.4c0.4,0,0.9,0,1.2,0.1c0.4,0.1,0.8,0.2,1.3,0.4l0.3-0.5C11.5,14.4,11.2,14.3,11,14.3 z"/>
</svg>