<!-- (c) Carrd Inc. All rights reserved. All logos and trademarks are property of their respective owners. -->
<svg xmlns="http://www.w3.org/2000/svg" id="icon">
<path d="M36.5,20c-0.1,0.3-0.3,0.4-0.6,0.4c-1.2,0-2.4,0-3.6,0c-0.1,0-0.3,0-0.4,0c0,0.2,0,0.3,0,0.4 c0,4.6,0,9.1,0,13.7c0,0.6-0.1,0.7-0.7,0.7c-1.4,0-2.7,0-4.1,0c-0.4,0-0.6-0.2-0.6-0.6c0-4.1,0-8.3,0-12.4c0-2.4-1.4-3.7-3.1-4.4 c-1.2-0.4-2.4-0.5-3.7-0.5c-1.2,0-2.3,0.2-3.4,0.8c-1.4,0.7-2.4,1.7-2.7,3.3c0,0.2,0,0.5,0,0.7c0,4.2,0,8.3,0,12.5 c0,0.6-0.1,0.7-0.7,0.7c-1.3,0-2.6,0-3.9,0c-0.8,0-0.9-0.1-0.9-0.9c0-4.3,0-8.7,0-13c0-0.3,0-0.6,0-0.9c-0.5,0-1.1,0-1.6,0 c-0.8,0-1.6,0-2.3,0c-0.3,0-0.6-0.1-0.7-0.4c-0.1-0.3,0-0.5,0.3-0.7C5.2,18,6.6,16.8,8,15.5c0.1-0.1,0.2-0.3,0.2-0.4 c0-4.5,0-9,0-13.4C8.2,1,8.3,0.8,9,0.8c1.3,0,2.6,0,4,0c0.5,0,0.7,0.2,0.7,0.7c0,2.8,0,5.6,0,8.5c0,0.1,0,0.2,0,0.4 c0.4-0.4,0.8-0.7,1.1-1c1.6-1.5,3.2-2.9,4.8-4.4c0.3-0.3,0.6-0.3,0.9,0c1.3,1.2,2.6,2.3,3.8,3.5c2.3,2,4.5,4.1,6.8,6.1 c1.7,1.6,3.4,3.1,5.2,4.6C36.5,19.5,36.6,19.8,36.5,20z M15.3,20.5c0.6-0.9,1.5-1.4,2.6-1.8c0.4-0.1,0.8-0.2,1.3-0.3 c0.4-0.1,0.4,0,0.4,0.4c0,0.8,0,1.5,0,2.3c0,0.8,0,1.5,0,2.3c0,0.3-0.1,0.4-0.4,0.4c-1.3,0-2.6,0-3.9,0c-0.3,0-0.4-0.1-0.4-0.4 c0-0.6-0.1-1.2,0-1.7C14.9,21.2,15.1,20.8,15.3,20.5z M15.2,24.7c0.7,0,1.4,0,2,0c0.7,0,1.3,0,2,0c0.3,0,0.4,0.1,0.4,0.4 c0,0.7,0,1.4,0,2.2c0,0.3-0.1,0.4-0.4,0.4c-1.3,0-2.6,0-3.9,0c-0.3,0-0.4-0.1-0.4-0.4c0-0.7,0-1.4,0-2.1 C14.8,24.8,14.9,24.7,15.2,24.7z M20.9,18.3c1,0.2,2.1,0.5,2.9,1.1c0.4,0.3,0.7,0.7,1,1.1c0.3,0.4,0.5,0.8,0.4,1.3c0,0.5,0,1,0,1.5 c0,0.2-0.1,0.3-0.3,0.3c-1.4,0-2.7,0-4.1,0c-0.3,0-0.3-0.1-0.3-0.4c0-0.8,0-1.6,0-2.4c0-0.8,0-1.6,0-2.4 C20.6,18.4,20.6,18.3,20.9,18.3z M20.5,25.1c0-0.3,0.1-0.4,0.4-0.4c0.6,0,1.3,0,1.9,0c0,0,0,0,0,0c0.6,0,1.3,0,1.9,0 c0.3,0,0.4,0.1,0.4,0.4c0,0.7,0,1.3,0,2c0,0.5-0.1,0.6-0.6,0.6c-1.2,0-2.5,0-3.7,0c-0.3,0-0.4-0.1-0.4-0.4 C20.6,26.5,20.6,25.8,20.5,25.1z"/>
</svg>