<!-- (c) Carrd Inc. All rights reserved. All logos and trademarks are property of their respective owners. -->
<svg xmlns="http://www.w3.org/2000/svg" id="icon">
<path d="M14.2,13.3c-0.7-0.1-1.6-0.1-2.4-0.1c-1.5,0-2.8,0.2-4,0.6c-1.1,0.4-2,0.8-2.7,1.3c-0.8,0.6-1.3,1.3-1.7,2 c-0.4,0.7-0.6,1.4-0.6,2.3c0,1.3,0.5,2.5,1.3,3.4c0.8,0.8,2,1.5,3.4,2.1C8,25,8.6,25.3,9.1,25.5c0.6,0.2,0.9,0.4,1.3,0.6 c0.4,0.2,0.7,0.6,0.8,0.8c0.2,0.4,0.4,0.7,0.4,1.2c0,1.1-0.4,1.9-1.1,2.5c-0.7,0.6-1.7,0.9-3.1,0.9c0-0.4-0.2-0.8-0.4-1.4 c-0.2-0.7-0.5-1.3-0.8-1.8C6,27.8,5.5,27.2,5,26.8c-0.5-0.4-1.1-0.6-1.8-0.6c-0.8,0-1.5,0.4-2,0.8c-0.6,0.6-0.8,1.2-0.8,1.9 c0,0.5,0.1,0.8,0.4,1.3c0.2,0.5,0.6,0.9,1.2,1.3s1.3,0.7,2.4,0.9C5.3,32.8,6.5,33,8,33c1.7,0,3.1-0.2,4.2-0.5c1.1-0.4,2-0.8,2.8-1.4 c0.7-0.6,1.3-1.2,1.7-2c0.5-0.8,0.6-1.8,0.6-2.6v-0.7c-0.1-1.1-0.6-1.9-1.2-2.6c-0.8-0.8-2-1.5-3.7-2.1c-0.7-0.4-1.3-0.5-1.8-0.7 s-0.8-0.4-1.2-0.6c-0.2-0.2-0.5-0.5-0.6-0.8c-0.2-0.2-0.4-0.7-0.4-1.2c0-0.9,0.4-1.7,1.1-2.3c0.7-0.6,1.4-0.8,2.3-0.9 c0.1,0.5,0.2,0.8,0.4,1.5c0.2,0.6,0.4,1,0.7,1.6c0.2,0.5,0.6,0.9,1.1,1.3s1.1,0.6,1.8,0.6c0.7,0,1.4-0.2,1.9-0.7 c0.5-0.5,0.7-1.1,0.7-1.8c0-0.7-0.1-1.3-0.5-1.8c-0.4-0.5-1.4-1.2-2.2-1.5C15.8,13.7,15.3,13.4,14.2,13.3z M36,17.5 c-1.2-1.2-2.6-1.8-4.4-1.8c-1.5,0-2.8,0.2-3.9,0.6c-1.1,0.5-2,1.1-2.8,1.8c0.5-1.2,0.9-2.3,1.4-3.3c0.5-1.1,1.1-2,1.9-2.8 c0.7-0.9,1.7-1.7,2.7-2.4c1.1-0.8,2.4-1.3,3.9-1.8l1.9-0.4l-0.1-1.8c-5.8,0.7-10.4,2.8-13.9,6.3c-3.6,3.6-5.2,7.7-5.2,12.7 c0,2.6,0.7,4.6,2.3,6.2c1.5,1.5,3.7,2.4,6.3,2.4c3.3,0,6.1-1.1,8.3-3.2c2.3-2.1,3.4-4.7,3.4-7.6C37.7,20.3,37.2,18.8,36,17.5 M29.8,28.8c-0.9,1.8-2.1,2.7-3.4,2.7c-0.8,0-1.5-0.5-2-1.3c-0.5-0.9-0.7-2.3-0.7-3.9c0-1.5,0-2.8,0.2-3.9c0.2-1.1,0.4-1.9,0.5-2.3 c0.7-0.8,1.3-1.3,1.9-1.7c0.7-0.2,1.3-0.4,2-0.4c0.8,0,1.5,0.4,2.1,1.1c0.6,0.8,0.8,1.8,0.8,3.1C31.2,24.9,30.7,27.1,29.8,28.8" />
</svg>