<!-- (c) Carrd Inc. All rights reserved. All logos and trademarks are property of their respective owners. -->
<svg xmlns="http://www.w3.org/2000/svg" id="icon">
<path d="M30.1,33.8c-2.6,2.7-5.6,3.7-7.5,4c-0.4,0.1-0.8,0.1-1.2,0.2c-0.5,0-0.9,0-1.4,0H9.3c-0.2-0.7-0.1-1.5,0.2-2.2 c1-2.2,2.8-3,5-3c0.5,0,0.8,0,1.2,0c0-3.3,0-20.4,0-23.4c-2,0-3.9,0.2-5.3,2.2c0,0-1.9-2.1-1-4.4c1-2.2,2.8-3,5-3h5.9 c2.3,0,4.6,0.1,6.2-2.2c1.8,2.1,1.2,3.8,1,4.4c-0.8,2.1-2.5,2.9-4.6,3c0,6.5,0,21.2,0,21.5c0.1,1.3,0.8,2,1.8,2c0,0,0.1,0,0.1,0 c0.2,0,0.5,0,0.7-0.1c2.8-0.8,4.3-2.7,4.3-5.6v1.4C31.3,28.8,30.6,33.3,30.1,33.8z"/>
</svg>