<!-- (c) Carrd Inc. All rights reserved. All logos and trademarks are property of their respective owners. -->
<svg xmlns="http://www.w3.org/2000/svg" id="icon">
<path d="M25,29.5c-1.1,0.4-2,0.8-3,1.2c-0.7,0.3-1.2,0.6-1.3,1.4c0,0.2,0,0.4,0,0.5c0,0.7,0,1.3,0,2c0,0.1,0,0.1-0.1,0.2 c-0.3,0.4-2.3,0.8-2.7,0.6c-0.2-0.1-0.4-0.5-0.3-0.7c0.2-0.8,0.4-1.6,0.6-2.4c0.1-0.2,0.2-0.5,0.2-0.7c-0.1-0.9,0-1.2,0.8-1.7 c0.7-0.4,1.5-0.9,2.2-1.3c0.5-0.3,0.4-0.6,0.1-1.1c-0.5-0.7-1.1-0.8-1.9-1c-1.6-0.4-3-1.1-4.2-2.3c-0.2-0.2-0.4-0.3-0.6-0.5 c-0.6-0.6-1.2-1.1-2.3-1c-0.7,0.1-1.4-0.2-2.2-0.4c0,0,0,0.1,0,0.2c0,0.5,0,1,0,1.4c0.4-0.1,0.9-0.1,1.3-0.2 c1.3-0.3,2.2,0.4,2.2,1.8c0,0.2-0.2,0.5-0.4,0.5c-0.9,0.2-1.7,0.4-2.7,0.6c0.1,0.2,0.1,0.4,0.2,0.7c0.3,0.7,0,1.6-0.6,1.9 c-0.5,0.3-1,0.4-1.5,0.6c-0.4,0.1-0.6,0-0.6-0.4c0-0.2-0.1-0.3,0-0.5c0.1-1.3-0.2-2.4-1.1-3.5c-0.7-0.9-0.3-2,0.2-2.8 c0.3-0.5,0.4-0.8,0.1-1.3c-0.3-0.5-0.3-1.1,0.1-1.6c0.6-0.8,1.3-1.5,2.3-1.8c0.2-0.1,0.4-0.1,0.4-0.3c0.4-0.8,0.9-1.5,1.2-2.4 c0.3-0.8,0.4-1.6,0.6-2.4c-0.1,0-0.2-0.1-0.2-0.1c-0.3,0.3-0.6,0.5-0.8,0.9c-0.5,0.6-1,1.1-1.8,1.1c-0.5,0-1.1-0.2-1.3-0.5 c-0.2-0.3-0.1-1,0.1-1.3c0.6-1.1,0.8-2.2,1-3.4C9.2,8.1,8.8,7.2,8,6.2C7,4.9,6.1,3.5,5.2,2.1C5.1,1.9,5.1,1.7,5.1,1.4 c0.2,0.1,0.4,0.2,0.6,0.3c1.6,1.5,3.1,3,4.8,4.6c0.6-1-0.3-1.6-0.2-2.6c1,0.5,2.1,0.4,2.7,1.5c0.1,0.1,0.4,0.2,0.6,0.2 C15.7,5,17.5,5.6,19,7.2c0.5,0.5,1.2,0.8,1.8,1.2c0.1,0.1,0.2,0.2,0.4,0.3c-0.3,0.2-0.5,0.3-0.9,0.5c0.7,0.5,1.2,0.9,1.8,1.3 c0.2,0.2,0.4,0.3,0.6,0.5c-0.2,0.2-0.4,0.3-0.6,0.5c-0.1,0.1-0.2,0.2-0.4,0.3c0.4,0.3,0.8,0.5,1.1,0.8c0.6,0.4,0.9,0.9,0.9,1.7 c-0.1,1.1,0.3,1.5,1.4,1.4c0.1,0,0.2-0.1,0.3-0.1c0.2,0,0.3,0,0.5,0.1c-0.1,0.2-0.1,0.4-0.3,0.5c-0.3,0.2-0.6,0.4-0.9,0.6 c-0.3,0.2-0.7,0.3-1.1,0.5c0.5,0.2,0.9,0.3,1.3,0.5c1.8,0.6,3.4,1.4,4.6,2.9c0.2,0.3,0.7,0.5,1.1,0.7c1,0.7,2.1,1.3,3,2.1 c0.7,0.6,1.2,1.3,1.7,2.1c0.8,1.2,1.6,2.3,3,2.9c0,0.1,0,0.1,0.1,0.2c-0.4,0.2-0.8,0.4-1.2,0.6c0.5,1.3,1.6,1.8,2.9,2 c-0.5,0.5-1,0.6-1.9,0.5c-3.7-0.4-6.4-2.2-7.6-5.7c-0.6,0.5-1.1,0.9-1.7,1.4c-0.3,0.2-0.4,0.5-0.2,0.8c0.2,0.3,0.5,0.6,0.7,0.9 c0.7,0.7,0.7,1.2,0.1,2c-0.9,1.1-1.7,2.3-2.7,3.3c-0.8,0.8-1.3,1.7-1.5,2.8c-0.2,1.3-0.4,1.3-1.7,1.3c-0.5,0-0.9,0-1.4,0 c-0.6,0-0.8-0.3-0.6-0.9c0.1-0.4,0.4-0.7,0.6-1c0.3-0.6,0.6-1.3,0.9-1.9c0.1-0.3,0.2-0.6,0.4-0.9c0.5-0.6,1-1.2,1.6-1.8 C26.2,30.9,26.2,30.4,25,29.5z"/>
</svg>