<!-- (c) Carrd Inc. All rights reserved. All logos and trademarks are property of their respective owners. -->
<svg xmlns="http://www.w3.org/2000/svg" id="icon">
<path d="M25.6,22.2c1.4-1,1.4-3.1,0-4.2c-1.9-1.6-4.1-2.9-6.3-4c-1.6-0.7-3.3,0.3-3.6,2c-0.4,2.6-0.5,5.3-0.2,7.9 c0.2,1.8,1.9,2.8,3.5,2.1C21.4,25.1,23.6,23.8,25.6,22.2L25.6,22.2z M35.8,14.5c3,3.2,3,8.1,0,11.2c-5.1,5.5-11.8,9.4-19.2,11.2 c-3.9,1-7.9-1.3-9-5.1C5.3,24.4,5.6,16,7.8,8.5c1.1-3.9,4.9-6.4,8.8-5.5C23.8,4.7,30.6,9,35.8,14.5z"/>
</svg>