<!-- (c) Carrd Inc. All rights reserved. All logos and trademarks are property of their respective owners. -->
<svg xmlns="http://www.w3.org/2000/svg" id="icon">
<path d="M32.9,15c0,0.5,0,0.9,0,1.4c-0.1,0.6-0.2,1.2-0.3,1.7c-0.5,2.5-1.6,4.8-2.9,7c-2.6,4.3-5.8,8.1-9.4,11.5 c-0.1,0.1-0.2,0.2-0.3,0.3c0,0-0.1,0-0.1,0c-0.3-0.3-0.6-0.7-1-1c-3.4-3.4-6.5-7-9-11.2c-1.2-2.1-2.2-4.3-2.7-6.6 c-0.1-0.6-0.2-1.2-0.3-1.7c0-0.5,0-0.9,0-1.4c0.1-0.4,0.1-0.9,0.2-1.3c0.9-5.2,4.9-9.4,10-10.4c0.7-0.1,1.3-0.2,2-0.3 c0.5,0,1,0,1.4,0c0.6,0.1,1.1,0.2,1.7,0.2c4.9,0.8,9.2,4.9,10.2,9.8C32.7,13.7,32.8,14.4,32.9,15z M9.9,15.7 c0.2,0.1,0.3,0.2,0.5,0.2c2,0.9,4.1,1.8,6.1,2.8c0.2,0.1,0.4,0.3,0.5,0.5c0.9,2,1.9,4,2.8,6.1c0.1,0.1,0.1,0.2,0.2,0.4 c0.1-0.2,0.2-0.3,0.2-0.4c0.9-2,1.9-4,2.8-6c0.1-0.2,0.3-0.4,0.5-0.5c1.2-0.5,2.3-1,3.5-1.5c1-0.5,2-0.9,3.1-1.4 c-0.2-0.1-0.3-0.2-0.4-0.2c-2-0.9-4.1-1.8-6.1-2.8c-0.2-0.1-0.4-0.3-0.5-0.5c-0.9-2-1.9-4-2.8-6C20.2,6.1,20.1,6,20,5.8 c-0.1,0.2-0.2,0.3-0.2,0.4c-0.9,2-1.9,4-2.8,6c-0.1,0.2-0.3,0.4-0.5,0.5c-1.3,0.6-2.7,1.2-4,1.8C11.7,15,10.8,15.3,9.9,15.7z"/>
</svg>