<!-- (c) Carrd Inc. All rights reserved. -->
<svg xmlns="http://www.w3.org/2000/svg" id="icon">
<path d="M5.5,19.9c0-0.3,0.1-0.3,0.1-0.4L18.3,6.7c0.1-0.1,0.1-0.1,0.4-0.1c0.3,0,0.3,0.1,0.4,0.1l1.5,1.5c0.1,0.1,0.1,0.1,0.1,0.4 S20.6,8.9,20.6,9l-9.2,9.2h22.4c0.1,0,0.2,0,0.2,0c0,0,0,0,0,0c0.1,0.1,0.1,0.2,0.1,0.4v2.5c0,0.2-0.1,0.4-0.1,0.5c0,0-0.1,0-0.2,0 H11.4l9.2,9.2c0.1,0.1,0.1,0.1,0.1,0.4c0,0.3-0.1,0.3-0.1,0.4l-1.5,1.5c-0.1,0.1-0.1,0.1-0.4,0.1c-0.3,0-0.3-0.1-0.4-0.1L5.6,20.3 C5.6,20.2,5.5,20.2,5.5,19.9z"/>
</svg>