<!-- (c) Carrd Inc. All rights reserved. All logos and trademarks are property of their respective owners. -->
<svg xmlns="http://www.w3.org/2000/svg" id="icon">
<path d="M35.2,7.8c0,0.1,0,0.1,0,0.2c0,0.1,0,0.2-0.1,0.3c0,0,0,0.1-0.1,0.2c-0.1,0.2-0.1,0.3-0.2,0.4 c-0.1,0.1-0.2,0.3-0.3,0.4c-0.1,0.2-0.3,0.3-0.5,0.4c0,0,0,0,0,0c-0.2,0.1-0.3,0.2-0.5,0.3c-0.4,0.2-0.8,0.2-1.2,0.2 c-0.3,0-0.5-0.1-0.8-0.1c-0.2-0.1-0.5-0.2-0.7-0.3c-0.3-0.1-0.4-0.3-0.6-0.5c-0.2-0.2-0.3-0.4-0.4-0.7c0,0,0,0,0,0 c-0.1-0.1-0.1-0.2-0.1-0.4c0-0.1-0.1-0.2-0.1-0.3c-0.1-0.3-0.1-0.7,0-1c0-0.1,0.1-0.2,0.1-0.3c0,0,0-0.1,0-0.1 c0-0.1,0.1-0.2,0.1-0.2c0,0,0-0.1,0.1-0.1c0.1-0.2,0.2-0.3,0.3-0.4c0.2-0.2,0.4-0.4,0.6-0.6c0.1-0.1,0.2-0.1,0.3-0.2 c0.2-0.1,0.3-0.2,0.5-0.2c0.5-0.2,0.9-0.2,1.4-0.1c0.3,0,0.5,0.1,0.8,0.2C33.7,4.8,33.8,4.9,34,5c0.2,0.1,0.3,0.3,0.5,0.5 c0.2,0.2,0.3,0.4,0.4,0.7c0,0,0,0.1,0,0.1c0,0.1,0.1,0.2,0.1,0.2c0,0.1,0,0.1,0.1,0.2c0,0.1,0,0.2,0.1,0.3c0,0.1,0,0.1,0.1,0.1 C35.3,7.2,35.3,7.5,35.2,7.8C35.2,7.8,35.2,7.8,35.2,7.8z M29.5,31.4C29.5,31.4,29.5,31.4,29.5,31.4c0.2-0.2,0.2-0.5,0.2-0.7 c0-0.1,0-0.2,0-0.4c0-5.3,0-10.5,0-15.8c0-0.1,0-0.2,0-0.2c0-0.2,0.1-0.3,0.2-0.5c0.1-0.1,0.2-0.1,0.3-0.2c0.2-0.1,0.5-0.1,0.7-0.2 c0.4,0,0.8,0,1.2,0.1c0.2,0,0.4,0.1,0.6,0.2c0.3,0.2,0.6,0.4,0.9,0.6c0.1,0.1,0.3,0.3,0.4,0.5c0.1,0.1,0.1,0.2,0.2,0.3 c0.1,0.2,0.2,0.3,0.2,0.5c0,0.1,0,0.2,0.1,0.3c0.1,0.3,0.1,0.7,0.1,1.1c0,3.8,0,7.6,0,11.5c0,0.4,0,0.9-0.1,1.3c0,0.3-0.1,0.7-0.1,1 c0,0.1-0.1,0.2-0.1,0.3c0,0.2-0.1,0.4-0.1,0.6c-0.1,0.2-0.1,0.4-0.2,0.6c0,0,0,0,0,0c0,0.3-0.2,0.6-0.3,0.9 c-0.1,0.2-0.2,0.4-0.3,0.5c-0.1,0.2-0.2,0.3-0.3,0.5c-0.2,0.2-0.4,0.4-0.6,0.6c-0.1,0.1-0.3,0.2-0.4,0.3c-0.2,0.1-0.4,0.3-0.7,0.4 c-0.1,0.1-0.3,0.1-0.4,0.2c-0.3,0.1-0.5,0.2-0.8,0.3c-0.4,0.1-0.9,0.2-1.4,0.3c-0.2,0-0.4,0.1-0.6,0.1c-0.4,0-0.8,0-1.2,0 c-0.4,0-0.8,0-1.3,0c-0.1,0-0.3-0.1-0.4-0.1c-0.2,0-0.4,0-0.6-0.1c-0.3-0.1-0.6-0.1-0.8-0.2c-0.2-0.1-0.5-0.2-0.7-0.3 c-0.3-0.1-0.7-0.3-1-0.5c-0.4-0.3-0.8-0.6-1.1-0.9c-0.2-0.2-0.4-0.5-0.5-0.8c-0.1-0.2-0.2-0.3-0.3-0.5c-0.1-0.2-0.2-0.3-0.2-0.5 c-0.1-0.2-0.2-0.5-0.2-0.7c0-0.1,0-0.1,0-0.2c0-0.1-0.1-0.2-0.1-0.3c-0.1-0.6-0.1-1.1-0.2-1.7c-0.1-0.5-0.1-1.1-0.1-1.6 c0-1.5,0-3,0-4.6c0-0.5,0-1-0.1-1.5c0-0.1,0-0.2,0-0.2c0-0.2-0.1-0.4-0.1-0.6c0-0.1-0.1-0.3-0.1-0.4c0,0,0,0,0-0.1 c-0.1-0.2-0.1-0.3-0.2-0.5c-0.1-0.2-0.2-0.3-0.3-0.5c-0.1-0.2-0.2-0.3-0.3-0.5c-0.1-0.2-0.3-0.3-0.4-0.4c-0.3-0.3-0.6-0.5-1-0.6 c-0.6-0.2-1.2-0.4-1.8-0.4c-0.4,0-0.9,0-1.3,0c-0.2,0-0.4,0.1-0.6,0.1c-0.2,0.1-0.4,0.1-0.7,0.2c-0.1,0-0.2,0.1-0.4,0.2 c-0.1,0.1-0.3,0.1-0.4,0.2c-0.1,0.1-0.2,0.2-0.3,0.2c-0.2,0.2-0.4,0.4-0.6,0.6c-0.2,0.2-0.4,0.5-0.5,0.8c-0.1,0.2-0.1,0.3-0.2,0.5 c-0.1,0.2-0.1,0.3-0.2,0.5c0,0.1,0,0.1,0,0.2c0,0.1,0,0.1-0.1,0.2c0,0.1-0.1,0.1-0.1,0.2c0,0.2-0.1,0.5-0.1,0.7 c-0.1,0.4-0.1,0.8-0.2,1.1c0,0.3,0,0.5,0,0.8c0,3.4,0,6.7,0,10.1c0,0,0,0.1,0,0.1c0,0.4-0.2,0.7-0.5,0.9c-0.1,0.1-0.2,0.1-0.3,0.1 c-0.1,0-0.3,0.1-0.4,0.1c-0.9,0.2-1.8,0.2-2.6,0c-0.1,0-0.2-0.1-0.4-0.1c-0.1,0-0.1,0-0.2-0.1c-0.2-0.1-0.4-0.2-0.5-0.4 c-0.1-0.2-0.2-0.4-0.2-0.6c0-0.7,0-1.3,0-2c0-4.3,0-8.7,0-13c0-4.9,0-9.9,0-14.8c0-0.2,0-0.4,0.1-0.6c0-0.1,0.1-0.2,0.2-0.3 c0.1,0,0.2-0.1,0.2-0.1c0.1,0,0.1,0,0.2-0.1c0.1-0.1,0.3-0.1,0.4-0.1c0.4-0.1,0.9,0,1.3,0c0,0,0.1,0,0.1,0.1c0.1,0,0.1,0.1,0.2,0.1 C7.8,3.8,8,3.8,8.1,3.9C8.3,4,8.4,4.1,8.6,4.2C8.8,4.4,9,4.6,9.1,4.8C9.3,5,9.3,5.2,9.5,5.3c0.2,0.3,0.2,0.5,0.3,0.8 c0.1,0.3,0.1,0.5,0.1,0.8c0,3,0,6.1,0,9.1c0,0.1,0,0.1,0,0.2c0,0,0,0.1,0,0.1c0,0,0,0.1,0.1,0.1c0,0,0.1,0,0.1,0 c0.2-0.3,0.5-0.6,0.7-0.9c0.2-0.2,0.4-0.4,0.6-0.6c0.2-0.2,0.4-0.3,0.6-0.5c0.3-0.2,0.5-0.4,0.8-0.6c0.2-0.1,0.4-0.2,0.6-0.3 c0,0,0.1,0,0.1-0.1c0.1-0.1,0.3-0.1,0.5-0.2c0.4-0.1,0.7-0.2,1.1-0.3c0.4-0.1,0.7-0.1,1.1-0.1c0.5,0,0.9,0,1.4,0 c0.4,0,0.8,0.1,1.2,0.2c0.4,0.1,0.7,0.2,1.1,0.3c0.3,0.1,0.5,0.2,0.8,0.4c0.2,0.1,0.4,0.2,0.6,0.3c0.2,0.1,0.3,0.2,0.4,0.3 c0.3,0.2,0.5,0.5,0.8,0.7c0.2,0.2,0.3,0.4,0.4,0.5c0.2,0.2,0.3,0.4,0.5,0.7c0.1,0.2,0.2,0.4,0.3,0.5c0.1,0.2,0.2,0.3,0.2,0.5 c0.1,0.1,0.1,0.3,0.2,0.4c0,0.1,0.1,0.1,0.1,0.2c0,0,0.1,0.1,0.1,0.1c0.1,0.2,0.1,0.4,0.2,0.6c0,0,0,0.1,0,0.1 c0,0.1,0.1,0.2,0.1,0.2c0,0.2,0,0.3,0.1,0.5c0,0.1,0,0.2,0.1,0.3c0.1,0.4,0.1,0.8,0.1,1.2c0,0.2,0.1,0.3,0.1,0.5c0,0.4,0,0.7,0,1.1 c0,2.6,0,5.2,0,7.8c0,0.2,0,0.4,0,0.6c0,0.2,0.1,0.4,0.2,0.6c0.1,0.2,0.2,0.4,0.3,0.5c0.2,0.3,0.5,0.5,0.8,0.7 c0.1,0.1,0.3,0.1,0.4,0.2c0.3,0.1,0.6,0.1,0.9,0.1c0.3,0,0.6-0.1,0.9-0.3c0.4-0.2,0.7-0.5,0.9-0.9C29.4,31.6,29.5,31.5,29.5,31.4z"/>
</svg>