<!-- (c) Carrd Inc. All rights reserved. All logos and trademarks are property of their respective owners. -->
<svg xmlns="http://www.w3.org/2000/svg" id="icon">
<path d="M18.5,4.8c-2.3,0.3-4,1.2-5.4,2.6c-2,2.1-2.5,3.9-2.2,8.4c0.1,0.8,0.1,1.4,0,1.4c-0.1,0.1-1.1,0-1.7-0.2 c-0.6-0.2-0.7-0.2-1.2-0.1c-0.4,0.1-0.6,0.2-0.9,0.5c-0.3,0.3-0.4,0.4-0.4,0.7c0,0.8,0.6,1.3,2.3,1.9c1.7,0.6,1.9,1.1,1.2,2.4 c-0.5,1.1-1.1,1.8-1.9,2.7c-1.2,1.2-2.4,2-3.9,2.3c-0.8,0.2-1.1,0.5-1,0.9c0,0.2,0.1,0.4,0.2,0.5c0.4,0.5,1.7,1.1,3.3,1.4 C7.6,30.4,8,30.5,8,30.5c0,0.1,0.1,0.4,0.2,0.8c0.3,1.1,0.5,1.3,1.7,1.1c1.8-0.3,2.9-0.2,3.8,0.2c0.2,0.1,0.9,0.5,1.6,1 c2,1.4,2.8,1.7,4.6,1.7s2.5-0.3,4.6-1.7c0.6-0.4,1.3-0.9,1.6-1c0.7-0.3,1.7-0.4,2.8-0.3c1.9,0.2,2,0.2,2.2,0 c0.1-0.1,0.3-0.4,0.3-0.6c0.3-1.3,0.3-1.3,0.8-1.3c0.2,0,0.8-0.1,1.3-0.3c1.5-0.4,2.3-0.8,2.5-1.4c0.3-0.7,0-1-1.1-1.3 c-2.4-0.6-4.3-2.3-5.7-5c-0.7-1.3-0.4-1.8,1.2-2.4c1.7-0.6,2.3-1.1,2.3-1.9c0-0.7-0.9-1.3-1.7-1.3c-0.2,0-0.6,0.1-0.9,0.2 c-0.6,0.2-1.4,0.3-1.5,0.2c0,0,0-0.7,0-1.6c0.1-1.6,0.1-3.6-0.1-4.5c-0.4-2.3-2.4-4.7-4.8-5.7c-1.2-0.5-2.2-0.7-3.7-0.7 C19.4,4.8,18.7,4.8,18.5,4.8L18.5,4.8z"/>
</svg>