<!-- (c) Carrd Inc. All rights reserved. All logos and trademarks are property of their respective owners. -->
<svg xmlns="http://www.w3.org/2000/svg" id="icon">
<path d="M39,25.4c-0.7,1.6-1.7,3.1-3,4.3c-1.3,1.2-2.8,2.1-4.4,2.8c-1.6,0.6-3.4,0.9-5.1,0.8c-3.3,0-6.4-1.2-8.8-3.3 l8.3-8.3c0.4-0.4,0.7-1,0.7-1.6c0-0.6-0.2-1.2-0.7-1.6l-8.1-8.1c2.4-2,5.5-3.1,8.6-3.1l0,0c1.8-0.1,3.5,0.2,5.1,0.8 c1.6,0.6,3.1,1.5,4.4,2.8c1.3,1.2,2.3,2.7,3,4.3c0.7,1.6,1,3.3,1,5.1C40,22.1,39.6,23.8,39,25.4z M13,20.2c0,1.8,0.4,3.7,1.2,5.3 c0.8,1.7,1.9,3.1,3.3,4.3l-2.7,2.7c-0.4,0.4-1,0.7-1.6,0.7c-0.6,0-1.2-0.2-1.6-0.7l-11-11C0.2,21.1,0,20.6,0,20s0.2-1.2,0.7-1.6 l11-11c0.4-0.4,1-0.7,1.6-0.7c0.6,0,1.2,0.2,1.6,0.7l2.9,2.9c-1.5,1.2-2.7,2.7-3.5,4.4C13.4,16.5,13,18.3,13,20.2z"/>
</svg>