<!-- (c) Carrd Inc. All rights reserved. All logos and trademarks are property of their respective owners. -->
<svg xmlns="http://www.w3.org/2000/svg" id="icon">
<path d="M20,3.5c4.8,0.1,8.9,1.9,12.2,5.5c2.2,2.3,3.5,5.1,4,8.3c0.3,1.6,0.4,3.3,0,5c-0.2,0.9-0.7,1.6-1.3,2.3 c-2.4,2.4-4.8,4.8-7.2,7.2c-1.3,1.3-2.6,2.6-3.9,3.8c-0.7,0.7-1.6,0.9-2.5,1c-2.2,0.2-4.3,0-6.4-0.7c-3.5-1.2-6.3-3.2-8.5-6.2 c-2.2-3.2-3.3-6.8-3-10.7c0.3-3.6,1.6-6.7,3.9-9.5c2.1-2.5,4.7-4.1,7.8-5.1C16.8,3.7,18.4,3.5,20,3.5z M20,28.1 c1.1-0.1,2.2-0.3,3.3-0.8c1.3-0.6,2.3-1.5,3.1-2.6c0.4-0.6,0.3-1.4-0.2-1.8c-0.6-0.5-1.3-0.3-1.8,0.4c-0.6,0.8-1.3,1.4-2.2,1.9 c-1.1,0.5-2.3,0.7-3.5,0.3c-1.4-0.4-2.4-1.1-3.2-2.3c-0.3-0.4-0.6-0.6-1.1-0.6c-0.5,0.1-0.8,0.3-1,0.8c-0.3,0.6,0,1,0.3,1.5 C15.3,26.9,17.4,27.9,20,28.1z M13.1,17.1c0.1,0.4,0.1,0.8,0.3,1.2c0.5,1.2,1.8,1.5,2.7,0.7c0.9-0.8,1-2.6,0.2-3.5 c-0.6-0.7-1.3-0.9-2-0.5C13.5,15.4,13.2,16.2,13.1,17.1z M26.8,17.2c0-0.9-0.2-1.4-0.6-1.9c-0.6-0.7-1.6-0.7-2.3-0.1 c-0.8,0.8-0.9,2.3-0.4,3.2c0.6,1,1.8,1.3,2.6,0.6C26.6,18.5,26.8,17.9,26.8,17.2z"/>
</svg>