<!-- (c) Carrd Inc. All rights reserved. All logos and trademarks are property of their respective owners. -->
<svg xmlns="http://www.w3.org/2000/svg" id="icon">
<path d="M31.9,29.7c-0.3,0.2-0.7,0.5-0.9,0.4c-2.5-1.1-5-2.3-7.5-3.4c-0.2-0.1-0.4-0.4-0.4-0.6c0-0.9,0-1.7,0-2.8 c2.5,1.2,4.9,2.3,7.1,3.6C31.1,27.4,31.4,28.7,31.9,29.7z M21.2,39.7c0,0-0.1-0.1-0.1-0.1c0.6-0.5,1.3-1,1.9-1.6 c3-2.4,5.9-4.9,8.9-7.3c0.7-0.5,0.7-1.1,0.3-1.8c-2.8-6-5.7-12-8.5-18.1c-1-2.1-2.1-4.1-2.9-6.2c-0.4-1-0.3-2.3-0.4-3.4 c0.1,0,0.2-0.1,0.3-0.1c5,10.1,10,20.2,15.1,30.5C31,34.3,26.1,37,21.2,39.7z M22.6,25.1c0.1,3.5,0.3,7,0.5,10.5 c0,0.7-0.1,1.3-0.7,1.8c-0.7,0.5-1.4,1.1-2.2,1.7c0-11.5,0-22.9,0-34.3c0.1,0,0.2,0,0.3-0.1C21,6.1,22,7.3,22.1,8.9 C22.3,14.3,22.4,19.7,22.6,25.1z M19.6,40c-5.2-2.8-10.4-5.6-15.6-8.3c4.6-9.4,9.1-18.6,13.7-27.9c0.3,1.1,0,3.8-0.4,4.7 c-3.3,7.1-6.7,14.1-10,21.2c0,0.1-0.1,0.2-0.1,0.5c3.4,1.7,6.7,3.3,10,5c0.8,0.4,2,0.7,2.4,1.4c0.4,0.7,0.1,1.8,0.1,2.7 C19.7,39.4,19.7,39.6,19.6,40z M9.4,30.1c-0.4,0.2-1.1,0-1.7,0c0.3-1.3,0.9-1.7,1.8-2c2.5-0.9,4.9-1.8,7.4-2.8 c0.1,0.1,0.1,0.1,0.2,0.2c-0.2,0.2-0.4,0.4-0.6,0.6C14.1,27.5,11.8,28.8,9.4,30.1z M17,33.2c0.1-2.1,0.2-4.2,0.3-6.3 c0.1-1.3,0.2-2.6,0.3-3.9c0.1-2.7,0.3-5.5,0.4-8.2c0.2-4,0.3-8,0.6-12c0.1-0.9,0.6-1.8,0.9-2.8c0.1,0,0.1,0,0.2,0 c0,11.6,0,23.2,0,35c-0.9-0.5-1.8-1-2.6-1.5C17,33.5,17,33.3,17,33.2z"/>
</svg>