<!-- (c) Carrd Inc. All rights reserved. All logos and trademarks are property of their respective owners. -->
<svg xmlns="http://www.w3.org/2000/svg" id="icon">
<path d="M33.8,5.5c-1.8,0.5-3,2.1-3,3.9c0,1.4,0,2.8,0,4.3c1.6,0,3.3,0,4.9,0c0.2,0.8,0.1,0.8-0.5,0.8 c-1.4,0.1-2.9,0.2-4.3,0.3c0,5.6,0,11.2,0,16.9c0.7,0.1,1.5,0.3,2.3,0.4c0,0.3,0,0.5,0,0.7c-2,0-4,0-6.1,0c0-0.2,0-0.4,0-0.7 c0.7-0.1,1.5-0.3,2.3-0.4c0-5.8,0-11.4,0-17.2c-2.3,0.1-4.6,0.2-6.9,0.4c0,5.6,0,11.2,0,16.9c0.6,0.1,1.1,0.2,1.7,0.3 c0.6,0.1,0.6,0.1,0.5,0.8c-2,0-4,0-6,0c-0.2-0.7-0.1-0.7,0.5-0.8c0.6-0.1,1.1-0.2,1.6-0.3c0-5.7,0-11.2,0-16.9 c-0.7-0.1-1.5-0.2-2.2-0.4c0-0.2,0-0.5,0-0.8c0.7,0,1.5,0,2.2,0c0-1.2,0-2.4,0-3.5c0-1.2,0.3-2.4,1.1-3.4c1-1.4,2.4-2.2,4.2-2.3 c0.5,0,1.1,0,1.6,0c0,0.4,0,0.7,0,1.1c-0.4,0-0.7,0-1.1,0c-2.3,0-4.1,1.5-4.2,3.9c-0.1,1.4,0,2.7,0,4.1c2.3,0,4.6,0,6.9,0 c0-0.1,0-0.3,0-0.5c0-1.2,0-2.4,0-3.6c0-3,2.5-5.4,5.5-5.4c0.4,0,0.7,0,1.1,0c0,0.4,0,0.7,0,1.1C35.1,5.3,34.4,5.3,33.8,5.5z M5.1,32.8c-2.5-0.1-4.4-1.6-4.8-4.3c-0.6-3.4,1.6-6,4.6-6.7c1.8-0.4,3.5-0.9,5.3-1.3c0.3-0.1,0.4-0.2,0.4-0.5c0-0.3,0-0.6-0.1-0.9 c-0.2-0.9-0.7-1.2-1.5-1.2c-1.1,0-2.2,0-3.4,0c-0.1,0.6-0.2,1.2-0.3,1.8c0,0.2-0.2,0.4-0.3,0.4c-1,0-2.1,0-3.2,0c0-2.2,0-4.3,0-6.5 c0.2,0,0.4,0,0.5,0c2.4,0,4.9,0,7.3,0c2.6,0,4.7,1.6,5.3,4.1c0.1,0.5,0.2,1.1,0.2,1.7c0,3,0,6,0,9c0,0.4,0,0.6,0.5,0.6 c0.6,0,1.2,0.2,1.8,0.3c0,1.1,0,2.2,0,3.4c-0.1,0-0.2,0-0.3,0C13.1,32.8,9.1,32.9,5.1,32.8z M10.6,24.7c-0.1,0-0.1,0-0.2,0 c-1.5,0.4-3.1,0.7-4.6,1.1c-0.7,0.2-1.1,0.8-1,1.5c0.1,0.8,0.6,1.3,1.4,1.4c1.4,0,2.7,0,4.1,0c0.1,0,0.3-0.2,0.3-0.3 C10.6,27.1,10.6,25.9,10.6,24.7z"/>
</svg>