<!-- (c) Carrd Inc. All rights reserved. All logos and trademarks are property of their respective owners. -->
<svg xmlns="http://www.w3.org/2000/svg" id="icon">
<path d="M37,20C37,20,37,20,37,20C37,20,37,20,37,20c0,0.7-0.5,1.4-1.4,1.9l-2.2,1.3v-6.5l2.2,1.3 C36.6,18.5,37,19.3,37,20z M36.1,18.4c0,0-0.1-0.1-0.1-0.1c0,0,0,0,0,0C36,18.3,36,18.3,36.1,18.4C36.1,18.4,36.1,18.4,36.1,18.4z M36.2,18.4C36.2,18.4,36.1,18.4,36.2,18.4C36.1,18.4,36.1,18.4,36.2,18.4C36.1,18.4,36.2,18.4,36.2,18.4 C36.2,18.5,36.2,18.5,36.2,18.4C36.2,18.5,36.2,18.5,36.2,18.4C36.2,18.5,36.2,18.5,36.2,18.4z M36.3,18.6 C36.3,18.6,36.3,18.6,36.3,18.6C36.3,18.6,36.3,18.5,36.3,18.6C36.3,18.5,36.3,18.5,36.3,18.6C36.3,18.5,36.3,18.6,36.3,18.6 C36.3,18.6,36.3,18.6,36.3,18.6C36.3,18.6,36.3,18.6,36.3,18.6z M36.4,18.6C36.4,18.6,36.4,18.6,36.4,18.6 C36.4,18.7,36.4,18.7,36.4,18.6C36.4,18.7,36.4,18.7,36.4,18.6C36.4,18.7,36.4,18.7,36.4,18.6z M36.5,18.7 C36.5,18.7,36.5,18.7,36.5,18.7C36.5,18.8,36.5,18.8,36.5,18.7C36.5,18.8,36.5,18.8,36.5,18.7C36.5,18.8,36.5,18.8,36.5,18.7z M36.6,18.9C36.6,18.9,36.6,18.9,36.6,18.9C36.6,18.9,36.6,18.9,36.6,18.9C36.6,18.9,36.6,18.9,36.6,18.9 C36.6,18.9,36.6,18.9,36.6,18.9z M36.7,19C36.7,19,36.7,19,36.7,19C36.7,19,36.7,19,36.7,19C36.7,19,36.7,19,36.7,19 C36.7,19.1,36.7,19,36.7,19z M36.8,19.2C36.8,19.2,36.8,19.2,36.8,19.2c0,0,0-0.1-0.1-0.1C36.8,19.1,36.8,19.2,36.8,19.2 C36.8,19.2,36.8,19.2,36.8,19.2z M36.8,19.3C36.8,19.3,36.8,19.3,36.8,19.3C36.8,19.3,36.8,19.3,36.8,19.3 C36.8,19.3,36.8,19.3,36.8,19.3C36.8,19.3,36.8,19.3,36.8,19.3C36.8,19.3,36.8,19.3,36.8,19.3C36.8,19.3,36.8,19.3,36.8,19.3z M36.9,19.4C36.9,19.4,36.9,19.4,36.9,19.4C36.9,19.4,36.9,19.4,36.9,19.4C36.9,19.4,36.9,19.4,36.9,19.4 C36.9,19.4,36.9,19.4,36.9,19.4C36.9,19.4,36.9,19.4,36.9,19.4C36.9,19.4,36.9,19.4,36.9,19.4z M36.9,19.5 C36.9,19.5,36.9,19.5,36.9,19.5C36.9,19.5,36.9,19.5,36.9,19.5C36.9,19.5,36.9,19.6,36.9,19.5C36.9,19.5,36.9,19.5,36.9,19.5z M37,19.6C37,19.6,37,19.6,37,19.6C37,19.6,37,19.6,37,19.6C36.9,19.6,37,19.6,37,19.6C37,19.6,37,19.6,37,19.6 C37,19.7,37,19.7,37,19.6C37,19.7,37,19.7,37,19.6z M37,19.7C37,19.7,37,19.7,37,19.7C37,19.7,37,19.7,37,19.7 C37,19.7,37,19.7,37,19.7C37,19.7,37,19.7,37,19.7C37,19.8,37,19.8,37,19.7C37,19.8,37,19.8,37,19.7z M32.7,23.6L32.7,23.6 L32.7,23.6l-17.1,10v0V7.4h-4.3v28.8l-1,0.6c-0.1,0-0.1,0.1-0.2,0.1c0,0,0,0,0,0c-0.1,0-0.1,0.1-0.2,0.1c0,0,0,0,0,0 c-0.1,0-0.1,0-0.2,0.1c0,0,0,0,0,0c-0.1,0-0.1,0-0.2,0.1c0,0,0,0,0,0c-0.1,0-0.1,0-0.2,0c0,0,0,0,0,0c-0.1,0-0.1,0-0.2,0 c0,0,0,0,0,0c-0.1,0-0.1,0-0.1,0c0,0,0,0,0,0c0,0-0.1,0-0.1,0c0,0,0,0,0,0c0,0,0,0,0,0c-0.1,0-0.1,0-0.2,0c0,0,0,0,0,0 c-0.1,0-0.1,0-0.1,0c0,0,0,0,0,0c0,0-0.1,0-0.1,0c0,0,0,0,0,0c0,0-0.1,0-0.1,0c0,0,0,0,0,0c0,0-0.1,0-0.1-0.1c0,0,0,0,0,0 c0,0-0.1,0-0.1-0.1c0,0,0,0,0,0c0,0-0.1-0.1-0.1-0.1c0,0,0,0,0,0c0,0-0.1-0.1-0.1-0.1C7.2,36.3,7,35.6,7,34.7V5.5V5.3v0 c0-1.5,0.8-2.4,1.8-2.4c0.2,0,0.3,0,0.5,0.1c0,0,0,0,0,0c0,0,0.1,0,0.1,0c0,0,0,0,0,0c0,0,0.1,0,0.1,0c0,0,0,0,0,0c0,0,0.1,0,0.1,0 c0,0,0,0,0,0c0,0,0.1,0,0.1,0c0,0,0,0,0,0c0,0,0.1,0,0.1,0c0,0,0,0,0,0c0,0,0.1,0,0.1,0c0,0,0,0,0,0c0,0,0.1,0,0.1,0c0,0,0,0,0,0 c0,0,0.1,0,0.1,0.1l1.1,0.6l5.5,3.2h8v6.8l2.2-1.3l2.2,1.3V7.2h2.1h0c0.6,0,1.2,0.5,1.2,1.2v0.1v0.2v7.7l0,0V23.6z M8.9,2.9L8.9,2.9 C8.9,2.9,8.9,2.9,8.9,2.9C8.9,2.9,8.9,2.9,8.9,2.9z M9.1,2.9C9.1,2.9,9.1,2.9,9.1,2.9C9.1,2.9,9.1,2.9,9.1,2.9 C9.1,2.9,9.1,2.9,9.1,2.9z M9.2,2.9C9.2,2.9,9.2,2.9,9.2,2.9C9.2,2.9,9.2,2.9,9.2,2.9C9.2,2.9,9.2,2.9,9.2,2.9z"/>
</svg>