<!-- (c) Carrd Inc. All rights reserved. All logos and trademarks are property of their respective owners. -->
<svg xmlns="http://www.w3.org/2000/svg" id="icon">
<path d="M37.7,26.9c-0.1,0.9-0.4,1.8-1,2.5c-0.9,1.4-2.2,2.2-3.8,2.5c-0.9,0.2-1.3,0.1-2.2-0.1c0,0,0,0-0.1,0 c0.1-0.2,0.2-0.4,0.3-0.7c0.3-0.6,0.4-1.3,0.6-2c0.1-0.6,0.1-1.2,0.1-1.7c0-3.3,0-6.7,0-10c0-0.6-0.2-1.1-0.5-1.5 c0,0-0.1-0.1-0.1-0.1c0,0,0.1,0,0.1,0c1.9,0,3.2,0,5.1,0c0.8,0,1.5,0.6,1.6,1.4c0,0,0,0,0,0.1c0,3.1,0,6.1,0,9.2 C37.7,26.5,37.7,26.7,37.7,26.9z M33,14c-2.1,0-3.9-1.7-3.9-3.9c0-2.2,1.8-3.9,3.9-3.9c2.1,0,3.9,1.7,3.9,3.9 C36.9,12.2,35.2,14,33,14z M29.9,17c0,0.1,0,0.2,0,0.3c0,3.5,0,7.1,0,10.6c0,0.4-0.1,0.7-0.1,1.1c-0.1,0.6-0.3,1.3-0.5,1.9 c-0.2,0.5-0.4,1-0.7,1.5c-0.2,0.4-0.5,0.7-0.7,1.1c-0.4,0.5-0.8,0.9-1.2,1.3c-0.4,0.4-0.8,0.7-1.3,1c-0.5,0.3-1.1,0.6-1.7,0.8 c-0.6,0.2-1.1,0.4-1.7,0.5c-0.3,0.1-0.6,0.1-0.9,0.1c-0.1,0-0.2,0-0.3,0.1c-0.2,0-0.4,0-0.6,0c-0.2,0-0.4,0-0.6-0.1 c-0.8-0.1-1.6-0.3-2.4-0.6c-2.9-1.2-4.8-2.9-5.8-5.9c0,0,0,0,0-0.1c0.1,0,0.1,0,0.1,0c2.5,0,4.9,0,7.4,0c0.6,0,1.5-0.3,1.8-0.8 C21,29.6,21,29.3,21,29c0-4.3,0-8.9,0-13.1c0-0.1,0-0.1,0-0.2c0.1,0,0.1,0,0.1,0c2.6,0,4.6,0,7.2,0C29.1,15.7,29.8,16.3,29.9,17z M22.8,13.8c-0.5,0.1-1,0.2-1.6,0.2c-0.1,0-0.1,0-0.2,0c0,0,0-0.1,0-0.1c0-0.9,0-1.7,0-2.6c0-0.7-1.1-1.9-1.8-2c-0.1,0-0.2,0-0.3,0 c-1.1,0-2.2,0-3.2,0c0,0-0.1,0-0.2,0c0-0.3-0.1-0.1-0.1-0.5c-0.1-1.3,0.3-2.5,1.1-3.6c0.9-1.2,2-1.9,3.4-2.2c0.2,0,0.5-0.1,0.7-0.1 c0.2,0,0.5,0,0.7,0c0.2,0,0.4,0.1,0.6,0.1c1.3,0.2,2.3,0.8,3.2,1.8c0.7,0.8,1.2,1.7,1.3,2.7C27,10.4,25.6,13.1,22.8,13.8z M18.1,10.5c0.7,0,1.3,0.5,1.5,1.2c0,0.1,0.1,0.3,0.1,0.5c0,0.6,0,1.1,0,1.7c0,0.1,0,0.2,0,0.3c0,4.6,0,9.1,0,13.7 c0,0.8-0.5,1.4-1.1,1.6c-0.1,0-0.3,0.1-0.4,0.1c-2.2,0-4.5,0-6.7,0c-3,0-6,0-9,0c-0.7,0-1.3-0.5-1.5-1.1c0-0.1-0.1-0.2-0.1-0.3 c0-5.4,0-10.7,0-16.1c0-0.1,0.1-0.3,0.1-0.4c0.2-0.6,0.8-1,1.5-1c2.8,0,5.7,0,8.5,0c1.2,0,2.4,0,3.6,0 C15.7,10.5,16.9,10.6,18.1,10.5z M14.4,15.7c0-0.3,0-0.6,0-0.8c-2.8,0-5.6,0-8.3,0c0,0.6,0,1.1,0,1.7c1,0,2.1,0,3.1,0 c0,2.9,0,5.7,0,8.6c0.7,0,1.4,0,2,0c0-2.9,0-5.7,0-8.6c0.1,0,0.1,0,0.2,0c1,0,1.9,0,2.9,0c0.1,0,0.1,0,0.1-0.1 C14.4,16.2,14.4,15.9,14.4,15.7z"/>
</svg>