<!-- (c) Carrd Inc. All rights reserved. All logos and trademarks are property of their respective owners. -->
<svg xmlns="http://www.w3.org/2000/svg" id="icon">
<path d="M34.9,26.6c-1.1,0-1.7,0.4-1.7,1c0,0.5,0.4,0.7,1.6,0.9L37,29c2,0.4,3,1.5,3,2.8c0,1.9-1.6,3.3-4.6,3.3 c-3.1,0-4.7-1.4-5.1-3.5h2.5c0.3,1.1,1.2,1.4,2.6,1.4c1.2,0,1.9-0.4,1.9-1c0-0.4-0.3-0.6-1.2-0.8l-2.4-0.6c-2.2-0.5-3.2-1.4-3.2-2.9 c0-2.1,1.9-3.2,4.5-3.2c3.1,0,4.6,1.4,4.7,3.5h-2.5C37,27,36.1,26.6,34.9,26.6z M36.6,12.8v5.6h-1.9V8.5h1.9v1.2 C37.1,9,37.9,8.5,39,8.5h0.7v1.8h-0.8C37.6,10.3,36.6,11.3,36.6,12.8z M28.8,16.9c1.1,0,2.1-0.5,2.8-1.5l1.4,1 c-1,1.3-2.5,2.1-4.2,2.1c-3,0-5.2-2.2-5.2-5.2c0-2.8,2.2-5.1,5.1-5.1c2.8,0,4.9,2.2,4.9,5.1v0.6h-8C25.9,15.7,27.2,16.9,28.8,16.9z M31.6,12.6c-0.3-1.5-1.5-2.5-3-2.5c-1.4,0-2.7,1-3,2.5H31.6z M17.7,18.7c-1.4,0-2.6-0.6-3.5-1.5v1.2h-1.9V4.9h1.9v4.9 c0.9-0.9,2.1-1.5,3.5-1.5c2.9,0,5.2,2.3,5.2,5.2C22.8,16.4,20.6,18.7,17.7,18.7z M17.5,10.1c-1.9,0-3.4,1.5-3.4,3.4 c0,1.9,1.5,3.4,3.4,3.4c1.9,0,3.4-1.5,3.4-3.4C20.9,11.6,19.4,10.1,17.5,10.1z M8.7,17.2c-0.9,0.9-2.2,1.5-3.6,1.5 c-2.9,0-5.1-2.1-5.1-5.3V4.9h2v8.4c0,2.2,1.4,3.6,3.3,3.6c1.9,0,3.3-1.5,3.3-3.6V4.9h2v13.6h-2V17.2z M9.6,23.6H2.7v3.3h6.8v2.3H2.7 v3.4h6.9v2.3H0.1V21.3h9.5V23.6z M15.6,24.6c1.2,0,2.3,0.4,3.2,1.2v-0.9h2.5v10h-2.5V34c-0.9,0.7-2,1.2-3.2,1.2 c-3,0-5.3-2.3-5.3-5.3C10.3,26.9,12.6,24.6,15.6,24.6z M15.8,32.9c1.7,0,3-1.3,3-3.1c0-1.7-1.3-3.1-3-3.1c-1.7,0-3,1.3-3,3.1 C12.8,31.6,14.1,32.9,15.8,32.9z M24.3,22h2.5v2.9h2.8v2.3h-2.8v4.7c0,0.5,0.4,0.8,1,0.8h1.9v2.3H27c-1.7,0-2.7-1.1-2.7-2.4v-5.3 h-1.9v-2.3h1.9V22z"/>
</svg>