<!-- (c) Carrd Inc. All rights reserved. All logos and trademarks are property of their respective owners. -->
<svg xmlns="http://www.w3.org/2000/svg" id="icon">
<path d="M9.8,34.8c-0.1,0-0.2,0-0.3,0c-0.1,0-0.1,0-0.2,0c-1.2-0.1-2.2-0.5-3-1.3c-1-0.9-1.7-2.1-2.2-3.3c-0.9-2.3-1.3-4.7-1.4-7.1 c0-0.5-0.1-1-0.1-1.5c0-1.1,0-2.3,0-3.4c0-0.1,0-0.2,0-0.3c0.1-0.8,0.1-1.5,0.2-2.3c0.1-1.1,0.3-2.3,0.7-3.4c0.4-1.1,0.9-2.2,1.9-3 C6.8,8,9.1,7.9,10.5,9c0.8,0.6,1.3,1.5,1.5,2.6c0.3,1.7,0.2,3.4,0.1,5.1c0,0.4-0.1,0.7-0.1,1.1c0.1-0.1,0.1-0.1,0.2-0.2 c0.9-1.3,1.7-2.7,2.6-3.9C16,12,17.3,10.3,18.9,9c0.8-0.7,1.7-1.3,2.8-1.6c0.3-0.1,0.6-0.1,0.9-0.2c0.2,0,0.4,0,0.6,0 c0.3,0.1,0.6,0.1,0.9,0.2c1.3,0.4,2.1,1.3,2.6,2.6c0.5,1.2,0.6,2.5,0.5,3.8c0,0.8-0.1,1.5-0.2,2.3c0,0,0,0,0,0c1-1.3,2-2.5,3.1-3.7 c1.2-1.3,2.5-2.4,4-3.3c0.9-0.6,1.9-1,3.1-0.9c1,0.1,1.8,0.7,2.1,1.7c0,0.1,0.1,0.2,0.1,0.3c0,0.2,0,0.4,0,0.7 c-0.1,0.3-0.1,0.7-0.3,1c-0.4,0.7-0.8,1.4-1.3,2.1c-1.3,1.9-2.5,3.8-3.7,5.8c-1.5,2.6-2.8,5.3-4.1,7.9c-0.5,1.1-1.2,2-2.2,2.8 c-1.8,1.3-4,1.3-5.7,0c-1.2-0.9-1.8-2.2-2.2-3.6c-0.4-1.5-0.4-3-0.3-4.5c0-0.1,0-0.3,0-0.4c-0.2,0.2-0.3,0.4-0.4,0.6 c-1.1,1.9-2,4-3,6C15.7,30,15,31.4,14,32.7c-0.9,1-1.9,1.8-3.3,2C10.4,34.7,10.1,34.7,9.8,34.8z"/>
</svg>