<!-- (c) Carrd Inc. All rights reserved. All logos and trademarks are property of their respective owners. -->
<svg xmlns="http://www.w3.org/2000/svg" id="icon">
<path d="M32,26.3c-0.9,1.3-11.1,11.5-12,11.9c-1.5,0.6-2.6,0.8-3.9,0.4c-2.3-0.7-3.9-2.7-3.9-5c0-2.4,0-2.4,6.8-9.2 c3.2-3.2,6-6,6.1-6.3c0.5-1,0.2-2.5-0.6-3.2c-0.4-0.3-0.5-0.7-0.3-0.9c0.1-0.1,0.7-0.1,1.3,0c2.7,0.1,5,1.4,6.6,3.8 C33.7,20.1,33.7,23.7,32,26.3z M25.8,9.8c-0.2,0.3-2.7,2.8-5.6,5.7c-2.9,2.9-5.3,5.4-5.4,5.6c-0.5,1.2-0.3,2.2,0.6,3.1 c0.7,0.9,0.5,1-1.2,1c-3.7-0.1-7-3.1-7.5-6.8c-0.3-1.9,0.1-4.1,1.1-5.6C8.4,12,17.5,2.8,18.4,2.1c0.2-0.2,0.8-0.4,1.3-0.6 c2.4-0.8,5.2,0.3,6.5,2.6C27.1,5.8,27,8.3,25.8,9.8z"/>
</svg>