<!-- (c) Carrd Inc. All rights reserved. All logos and trademarks are property of their respective owners. -->
<svg xmlns="http://www.w3.org/2000/svg" id="icon">
<path d="M38.8,15.2c-0.8,3.4-2.9,5.5-6.3,6.4c-2.1,0.5-4.2,0.7-6.3,0.7c-1.6,0-3.2-0.1-4.9-0.1 c-0.1-0.8-0.1-1.6-0.1-2.3C21,17,21,14.3,21.6,11.5C22,9.7,22.6,8,24,6.7c1.4-1.3,3-2.1,4.9-2.4c0.1,0,0.2-0.1,0.2-0.1 c0.6,0,1.2,0,1.8,0c0.1,0,0.2,0.1,0.2,0.1c3.8,0.6,6.3,2.8,7.4,6.4c0.2,0.5,0.2,1.1,0.3,1.6c0,0.6,0,1.1,0,1.7 C38.9,14.4,38.9,14.8,38.8,15.2z M30.9,9.5c-1.6,0-2.9,1.3-2.9,2.9c0,1.6,1.3,2.9,2.9,2.9c1.6,0,2.9-1.3,2.9-2.9 C33.8,10.8,32.5,9.5,30.9,9.5z M18.8,22.1c-0.7,0-1.4,0.1-2,0.1c-3,0.1-6,0.1-8.9-0.6C5.3,21,3.3,19.8,2,17.3 c-0.5-0.9-0.8-1.9-0.9-3c0-0.1-0.1-0.2-0.1-0.3c0-0.6,0-1.1,0-1.7c0-0.1,0.1-0.2,0.1-0.3c0.6-3.7,2.7-6.2,6.2-7.4 C7.9,4.5,8.4,4.4,9,4.3c0.6,0,1.2,0,1.8,0c0.5,0.1,0.9,0.2,1.4,0.3c3.3,1,5.3,3.2,6.1,6.6c0.5,2.4,0.7,4.8,0.6,7.2 C18.9,19.5,18.9,20.8,18.8,22.1z M9.1,9.5c-1.6,0-2.9,1.3-2.9,2.9c0,1.6,1.3,2.9,2.9,2.9c1.6,0,2.9-1.3,2.9-2.9 C12,10.8,10.7,9.5,9.1,9.5z M9.9,24.9c2.8-0.8,5.7-0.6,8.7-0.5c0,1.3,0.1,2.7,0.1,4c0,1.7-0.2,3.4-0.7,5c-0.8,2.4-2.5,3.7-5,4.2 c-0.1,0-0.2,0.1-0.3,0.1c-0.5,0-1,0-1.5,0c-0.4-0.1-0.7-0.2-1.1-0.3c-4.8-1.3-6.5-7.4-3.1-11C7.9,25.6,8.9,25.2,9.9,24.9z M11.4,33.7c1.3,0,2.2-1,2.2-2.2c0-1.2-1-2.2-2.2-2.2c-1.2,0-2.2,1-2.2,2.2C9.2,32.7,10.2,33.7,11.4,33.7z M25,24.3 c1.6,0,3.2,0.2,4.8,0.5c4.2,1,5.7,5.6,4.2,8.9c-1,2.2-2.7,3.5-5.2,3.9c-0.1,0-0.2,0.1-0.2,0.1c-0.5,0-1,0-1.5,0 c-0.4-0.1-0.8-0.2-1.2-0.3c-2.2-0.7-3.6-2.1-4.2-4.3c-0.8-2.8-0.6-5.7-0.4-8.7C22.6,24.4,23.8,24.3,25,24.3z M28.4,33.7 c1.3,0,2.2-1,2.2-2.2c0-1.2-1-2.2-2.2-2.2c-1.2,0-2.2,1-2.2,2.2C26.2,32.7,27.2,33.7,28.4,33.7z"/>
</svg>