<!-- (c) Carrd Inc. All rights reserved. All logos and trademarks are property of their respective owners. -->
<svg xmlns="http://www.w3.org/2000/svg" id="icon">
<path d="M24,14.3c0,1-0.4,1.9-1.1,2.7c-0.7,0.7-1.6,1.1-2.7,1.1c-0.8,0-1.5-0.2-2.2-0.7c-0.8,0.9-1.6,1.8-2.2,2.8 c-3.2,4.8-4.5,10.4-3.9,16.8c0,0.3-0.1,0.5-0.2,0.8s-0.4,0.3-0.7,0.4h-0.1c-0.3,0-0.5-0.1-0.7-0.3c-0.2-0.2-0.3-0.4-0.3-0.7 c-0.2-1.6-0.2-3.2-0.1-4.8c0.1-1.6,0.3-3,0.6-4.2c0.2-1.2,0.6-2.5,1.1-3.6s0.9-2.2,1.3-3c0.4-0.8,0.9-1.7,1.4-2.4 c0.8-1.2,1.7-2.2,2.6-3.2c-0.2-0.5-0.3-1-0.3-1.5c0-1,0.4-1.9,1.1-2.7c0.7-0.7,1.6-1.1,2.7-1.1s1.9,0.4,2.7,1.1 C23.7,12.4,24,13.3,24,14.3L24,14.3z M31.5,14.5c0,2.1-0.5,4-1.5,5.7c-1,1.7-2.4,3.1-4.1,4.1s-3.7,1.5-5.7,1.5 c-0.8,0-1.7-0.1-2.6-0.3c-0.3-0.1-0.5-0.2-0.6-0.5s-0.2-0.5-0.1-0.8c0.1-0.3,0.2-0.5,0.4-0.6c0.2-0.2,0.5-0.2,0.8-0.1 c0.7,0.2,1.4,0.3,2.1,0.3c1.3,0,2.5-0.2,3.6-0.7c1.2-0.5,2.2-1.2,3-2c0.8-0.8,1.5-1.8,2-3c0.5-1.2,0.7-2.4,0.7-3.6s-0.2-2.5-0.7-3.6 s-1.2-2.2-2-3s-1.8-1.5-3-2s-2.4-0.7-3.6-0.7s-2.5,0.2-3.6,0.7c-1.2,0.5-2.2,1.2-3,2c-0.8,0.8-1.5,1.8-2,3c-0.5,1.2-0.7,2.4-0.7,3.6 c0,1.5,0.3,2.9,1,4.3c0.1,0.3,0.2,0.5,0.1,0.8c-0.1,0.3-0.3,0.5-0.5,0.6c-0.2,0.1-0.5,0.2-0.8,0.1c-0.3-0.1-0.5-0.3-0.6-0.5 c-0.8-1.6-1.2-3.3-1.2-5.2c0-1.5,0.3-3,0.9-4.4C10.2,8.7,11,7.5,12,6.5s2.2-1.8,3.6-2.4c1.4-0.6,2.9-0.9,4.4-0.9 c2.1,0,4,0.5,5.7,1.5c1.7,1,3.1,2.4,4.1,4.1S31.5,12.5,31.5,14.5L31.5,14.5z"/>
</svg>