<!-- (c) Carrd Inc. All rights reserved. All logos and trademarks are property of their respective owners. -->
<svg xmlns="http://www.w3.org/2000/svg" id="icon">
<path d="M39.7,25.3c0,0,0,0.1-0.1,0.1c-0.1,0.2-0.2,0.3-0.4,0.5c-0.1,0.1-0.2,0.2-0.3,0.3c-0.8,0.8-1.6,1.6-2.4,2.5 c-0.1,0.1-0.2,0.2-0.4,0.3c-0.1,0.1-0.1,0.1-0.2,0.1c0,0-0.1,0-0.1,0.1c-0.1,0.1-0.3,0.1-0.4,0.2c0,0-0.1,0-0.1,0c0,0,0,0,0,0 c-0.1,0-0.2,0-0.3,0c0,0,0,0,0,0c-0.1,0-0.1,0-0.2,0c-0.1,0-0.1,0-0.2,0c-0.6,0-1.2,0-1.8,0c-4.3,0-8.6,0-12.8,0c-1,0-1.8-0.3-2.5-1 c-1.7-1.7-3.4-3.3-5-5c-0.6-0.6-1.3-1-2.2-1c-0.1,0-0.2,0-0.3,0c-3,0-5.9,0-8.9,0c-0.2,0-0.3,0-0.7,0c0-3.9,0-7.9,0-11.8 c0.4,0,0.6,0,0.8,0c3.7,0,7.5,0,11.2,0c0.2,0,0.3,0,0.5,0c0.2,0,0.3,0,0.5,0c0.2,0,0.3,0,0.5,0c0.3,0,0.6,0.1,0.9,0.2 c0,0,0.1,0,0.1,0c0.1,0,0.2,0,0.2,0.1c0,0,0.1,0,0.1,0c0.1,0,0.2,0.1,0.4,0.1c0.1,0,0.3,0.1,0.4,0.1c0.1,0,0.1,0.1,0.2,0.1 c0.1,0.1,0.3,0.1,0.4,0.2c0.3,0.2,0.7,0.3,1,0.5c0.4,0.3,0.9,0.6,1.3,1c0.1,0.1,0.1,0.1,0.2,0.2c0.1,0.1,0.2,0.2,0.3,0.3 c0.5,0.5,1.1,1,1.6,1.6c0.4,0.4,0.9,0.9,1.3,1.3c0.3,0.4,0.7,0.7,1.1,1.1c0,0,0,0.1,0.1,0.1c0,0,0,0,0,0c0,0,0,0,0,0c0,0,0,0,0,0 c0,0,0,0,0,0c0,0,0,0,0,0c-1.1,1.1-2.2,2.2-3.4,3.4c0,0,0,0,0,0c0,0,0,0,0,0c-0.5-0.5-1-1-1.5-1.5c-0.9-0.9-1.8-1.8-2.7-2.7 c-0.9-0.8-1.9-1.3-3.1-1.3c0,0-0.1,0-0.1,0c-2.3,0-4.7,0-7,0c-0.1,0-0.2,0-0.2,0c0,0.7,0,1.5,0,2.3c0.2,0,0.3,0,0.5,0c2,0,4,0,6,0 c0,0,0.1,0,0.1,0c1,0,1.8,0.4,2.6,1.1c1.7,1.7,3.4,3.4,5.1,5.1c0.5,0.5,1,0.7,1.6,0.8c0.2,0,0.4,0,0.5,0c3.8,0,7.6,0,11.4,0 c0.2,0,0.3,0,0.6,0c-1.5-1.5-2.9-2.9-4.4-4.4c-0.2-0.2-0.3-0.3-0.5-0.5c-1.3-1.3-2.5-2.5-3.8-3.8c0,0,0,0,0,0c0,0,0,0,0,0 c0,0,0,0,0,0c1.2-1.2,2.3-2.3,3.4-3.5c0.4,0.4,0.8,0.8,1.2,1.2c0.3,0.3,0.5,0.5,0.8,0.8c0.4,0.4,0.8,0.8,1.2,1.2 c2.6,2.6,5.1,5.1,7.7,7.7C39.8,24.3,39.9,24.8,39.7,25.3z M23.1,17.7C23.1,17.7,23.1,17.7,23.1,17.7C23.1,17.7,23.1,17.7,23.1,17.7z M24.9,16.2c1.2-1.2,2.3-2.3,3.4-3.5C27.1,13.9,26,15,24.9,16.2z" />
</svg>