<!-- (c) Carrd Inc. All rights reserved. All logos and trademarks are property of their respective owners. -->
<svg xmlns="http://www.w3.org/2000/svg" id="icon">
<path d="M29.4,20l7.1,9.5c1.1,1.5,1,3.6-0.4,4.8c-1.4,1.3-3.7,1.2-5-0.2C31,34,31,33.9,30.9,33.9L21,20.6 c-0.2-0.3-0.2-0.8,0-1.1l9.8-13.2c1.2-1.6,3.4-1.9,4.9-0.7c0.1,0.1,0.2,0.1,0.3,0.2c1.4,1.2,1.4,3.3,0.4,4.8L29.4,20z M9.1,33.9 C9,33.9,9,34,8.9,34.1c-1.3,1.4-3.5,1.5-5,0.2c-1.4-1.2-1.4-3.3-0.4-4.8l7.1-9.5l-7-9.4C2.5,9.2,2.6,7,4,5.8 c0.1-0.1,0.2-0.1,0.3-0.2C5.8,4.4,8,4.8,9.1,6.3L19,19.5c0.2,0.3,0.2,0.8,0,1.1L9.1,33.9z" />
</svg>