<!-- (c) Carrd Inc. All rights reserved. All logos and trademarks are property of their respective owners. -->
<svg xmlns="http://www.w3.org/2000/svg" id="icon">
<path d="M39.5,19c0,0.8,0,0.8-0.8,0.8c-1,0-1.9,0-2.9,0c-0.3,0-0.5-0.1-0.5-0.5c0-3,0-5.9,0-8.9c0-0.4,0.2-0.5,0.6-0.5 c1,0,2.1,0,3.1,0c0.5,0,0.5,0.3,0.5,0.7c0,1.4,0,2.9,0,4.3C39.5,16.3,39.5,17.6,39.5,19z M33,25.5c-1,0-1.9,0-2.9,0 c-0.5,0-0.7-0.2-0.7-0.7c0-3,0-6,0-9c0-3,0-6,0-9c0-0.5,0.2-0.7,0.7-0.7c1,0,1.9,0,2.9,0c0.5,0,0.7,0.2,0.7,0.7c0,4.2,0,8.4,0,12.6 c0,1.8,0,3.5,0,5.3C33.7,25.4,33.5,25.6,33,25.5z M27.9,21.9C27.9,21.9,27.9,21.9,27.9,21.9c0,3,0,5.9,0,8.9c0,0.5-0.1,0.7-0.7,0.7 c-1,0-1.9,0-2.9,0c-0.5,0-0.7-0.2-0.7-0.7c0-1.2,0-2.4,0-3.6c0-4.4,0-8.8,0-13.2c0-0.4,0-0.9,0.1-1.3c0-0.4,0.2-0.5,0.6-0.5 c1,0,2.1,0,3.1,0c0.4,0,0.5,0.2,0.5,0.6c0,2.8,0,5.6,0,8.4C27.9,21.4,27.9,21.7,27.9,21.9z M22.1,36.9c0,0.9,0,0.9-0.9,0.9 c-0.9,0-1.7,0-2.6,0c-0.5,0-0.7-0.2-0.7-0.7c0-0.7,0-1.5,0-2.2c0-5.2,0-10.4,0-15.6c0-0.7,0-0.8,0.8-0.8c0.9,0,1.8,0,2.6,0 c0.8,0,0.8,0,0.8,0.8c0,3,0,5.9,0,8.9c0,0,0,0,0,0C22.1,31,22.1,33.9,22.1,36.9z M15.6,31.5c-0.9,0-1.9,0-2.8,0 c-0.5,0-0.7-0.2-0.7-0.7c0-3,0-6,0-9c0,0,0,0,0,0c0-3,0-5.9,0-8.9c0-0.6,0.2-0.7,0.7-0.7c0.9,0,1.9,0,2.8,0c0.5,0,0.7,0.2,0.7,0.7 c0,3.4,0,6.7,0,10.1c0,2.6,0,5.2,0,7.8C16.3,31.4,16.2,31.5,15.6,31.5z M10.5,24.9c0,0.5-0.2,0.7-0.7,0.7c-1,0-1.9,0-2.9,0 c-0.5,0-0.7-0.2-0.7-0.7c0-6,0-12,0-17.9c0-0.5,0.2-0.7,0.6-0.7c1,0,1.9,0,2.9,0c0.5,0,0.7,0.2,0.7,0.7L10.5,24.9z M4.1,19.8 c-1,0-2,0-3,0c-0.5,0-0.6-0.2-0.6-0.6c0-2.9,0-5.8,0-8.6c0-0.4,0.2-0.6,0.7-0.6c1,0,1.9,0,2.9,0c0.5,0,0.6,0.2,0.6,0.6 c0,1.4,0,2.9,0,4.3c0,1.4,0,2.9,0,4.3C4.7,19.6,4.5,19.8,4.1,19.8z"/>
</svg>