<!-- (c) Carrd Inc. All rights reserved. All logos and trademarks are property of their respective owners. -->
<svg xmlns="http://www.w3.org/2000/svg" id="icon">
<path d="M20.2,36.9V23.4h0c0.1-4.2,3.6-7.6,7.9-7.6c4.3,0,7.7,3.4,7.9,7.6h0v13.5H20.2z M28.1,14.5 c-3.2,0-5.7-2.6-5.7-5.7c0-3.2,2.6-5.7,5.7-5.7c3.2,0,5.7,2.6,5.7,5.7C33.8,11.9,31.3,14.5,28.1,14.5z M10.9,26.3H8.3 c-4.6,0-8.3-3.5-8.3-7.8c0-4.3,3.7-7.8,8.3-7.8h10.9V18C19.2,22.5,15.5,26.3,10.9,26.3z M7.4,17.9c0-0.2,0-0.4,0-0.5 c0-0.2-0.1-0.3-0.1-0.4c-0.1-0.2-0.3-0.4-0.5-0.5c-0.2-0.1-0.4-0.2-0.7-0.2c-0.2,0-0.3,0-0.5,0.1c-0.1,0-0.3,0.1-0.4,0.2 c-0.1,0.1-0.2,0.2-0.4,0.4v-1.5h0c0-0.2,0-0.4-0.1-0.5c-0.1-0.1-0.2-0.2-0.4-0.2c-0.2,0-0.3,0.1-0.4,0.2c-0.1,0.1-0.1,0.3-0.1,0.5 v4.4c0,0.4,0.2,0.6,0.5,0.6c0.2,0,0.3-0.1,0.4-0.2c0.1-0.1,0.1-0.3,0.1-0.5v-1.3c0-0.4,0-0.7,0.1-0.8c0.1-0.2,0.2-0.3,0.3-0.4 c0.1-0.1,0.3-0.2,0.5-0.2c0.3,0,0.5,0.1,0.6,0.3c0.1,0.2,0.1,0.4,0.1,0.7v1.7c0,0.4,0.2,0.6,0.5,0.6c0.2,0,0.3-0.1,0.4-0.2 c0.1-0.1,0.1-0.3,0.1-0.5V17.9z M11.9,17.2c-0.1-0.3-0.4-0.5-0.6-0.6c-0.3-0.2-0.6-0.3-1-0.3c-0.3,0-0.6,0-0.8,0.1 c-0.3,0.1-0.5,0.2-0.6,0.4c-0.2,0.2-0.3,0.4-0.4,0.7c-0.1,0.3-0.1,0.5-0.1,0.8c0,0.6,0.2,1.1,0.5,1.5c0.4,0.4,0.9,0.6,1.5,0.6 c0.3,0,0.5,0,0.8-0.1c0.2-0.1,0.4-0.2,0.5-0.3c0.1-0.1,0.3-0.2,0.3-0.4c0.1-0.1,0.1-0.2,0.1-0.3c0-0.1,0-0.2-0.1-0.2 c-0.1-0.1-0.1-0.1-0.3-0.1c-0.1,0-0.2,0-0.2,0.1c-0.1,0.1-0.2,0.2-0.3,0.3c-0.1,0.1-0.2,0.1-0.3,0.2c-0.1,0.1-0.2,0.1-0.3,0.1 c-0.1,0-0.2,0-0.3,0c-0.2,0-0.3,0-0.5-0.1c-0.2-0.1-0.3-0.2-0.4-0.4c-0.1-0.2-0.1-0.4-0.1-0.6h2l0,0c0.3,0,0.5,0,0.6-0.1 c0.1-0.1,0.2-0.2,0.2-0.5C12.1,17.7,12,17.5,11.9,17.2z M16.1,16.5c0-0.1-0.1-0.1-0.2-0.2c-0.1,0-0.1-0.1-0.2-0.1 c-0.1,0-0.2,0-0.2,0.1c-0.1,0-0.1,0.1-0.2,0.2c-0.1,0.1-0.1,0.3-0.2,0.4l-0.8,2.3l-0.9-2.5c-0.1-0.2-0.1-0.3-0.2-0.4 c-0.1-0.1-0.2-0.1-0.3-0.1c-0.1,0-0.2,0-0.2,0.1c-0.1,0-0.1,0.1-0.2,0.2c0,0.1-0.1,0.2-0.1,0.2c0,0.1,0,0.2,0.1,0.4l1.3,3.1 l-0.1,0.2v0c-0.1,0.2-0.1,0.3-0.2,0.4c-0.1,0.1-0.1,0.1-0.2,0.2c-0.1,0-0.2,0.1-0.3,0.1c0,0-0.1,0-0.2,0c-0.1,0-0.1,0-0.2,0 c-0.1,0-0.2,0-0.3,0.1c-0.1,0.1-0.1,0.2-0.1,0.3c0,0.2,0.1,0.3,0.2,0.4c0.1,0.1,0.4,0.1,0.7,0.1c0.3,0,0.5,0,0.7-0.1 c0.2-0.1,0.3-0.2,0.4-0.4c0.1-0.2,0.2-0.4,0.3-0.7l1.3-3.5c0-0.1,0.1-0.2,0.1-0.3c0-0.1,0-0.2,0-0.2C16.2,16.7,16.2,16.6,16.1,16.5z M9.6,17.3C9.7,17.1,10,17,10.2,17c0.3,0,0.5,0.1,0.6,0.3c0.2,0.2,0.3,0.4,0.3,0.8H9.3C9.3,17.7,9.4,17.5,9.6,17.3z"/>
</svg>