<!-- (c) Carrd Inc. All rights reserved. All logos and trademarks are property of their respective owners. -->
<svg xmlns="http://www.w3.org/2000/svg" id="icon">
<path d="M40,19.7c0-0.2,0-0.3,0-0.5v0c-0.1-1.7-0.7-3.3-1.7-4.7c-0.4-0.6-0.9-1.2-1.4-1.7c-0.8-0.8-1.7-1.4-2.7-1.9 c-1.5-0.7-3.3-1.1-5.1-1.1c-0.2,0-0.4,0-0.6,0c-1.3,0.1-2.5,0.3-3.7,0.7c-1.2,0.4-2.2,1-3,1.7c-0.2,0.1-0.4,0.3-0.6,0.5l-0.1,0.1 L20.9,13h0l-0.1,0.1l0,0l-0.2,0.2c-0.2,0.2-0.3,0.4-0.5,0.6l0,0l0,0c-0.3,0.4-0.6,0.8-0.8,1.2c-0.1,0.2-0.3,0.5-0.4,0.7l-1.9,3.9 l0,0l-0.1,0.2l-0.2,0.4c-0.4,0.8-0.9,1.7-1.4,2.4c-1.1,1.2-2.4,1.8-4,1.8c-0.1,0-0.2,0-0.3,0c-1,0-1.8-0.3-2.6-0.7 c-0.1,0-0.2-0.1-0.2-0.1c-0.6-0.4-1.1-0.9-1.4-1.6C6.2,21.4,6,20.6,6,19.8c0,0,0,0,0-0.1c0.1-1.3,0.5-2.3,1.5-3.1 c0.2-0.2,0.5-0.4,0.7-0.5c0,0,0.1,0,0.1-0.1c0.7-0.4,1.5-0.6,2.5-0.6l0.3,0c1.5,0.1,2.7,0.5,3.6,1.4l2.9-5.2 c-0.7-0.5-1.5-0.9-2.3-1.2c0,0-0.1,0-0.1,0c-0.1,0-0.2-0.1-0.3-0.1C14,10.1,13,9.9,12,9.8c0,0-0.1,0-0.1,0c-0.2,0-0.3,0-0.5,0 c-0.2,0-0.3,0-0.5,0h-0.1c-1.8,0-3.5,0.4-5,1.1c-1.7,0.8-3.1,2-4.2,3.6c-1,1.6-1.6,3.3-1.7,5.2c0,0.2,0,0.3,0,0.5 C0,22.8,0.9,25,2.8,27c2,2,4.5,3.1,7.6,3.2c0.2,0,0.4,0,0.6,0c1.7,0,3.4-0.3,4.8-0.9c0.4-0.2,0.8-0.4,1.2-0.6l0.5-0.3l0.6-0.4 l0.5-0.4c0.1-0.1,0.3-0.3,0.4-0.4l0.5-0.6l0.2-0.2l0.1-0.1l0.1-0.1c0.8-1.3,3.3-6,3.3-6v0l0.1-0.3l0.1-0.2c0.4-0.7,0.6-1.2,1-1.7 l0,0c0.8-1.2,2.2-2,3.9-2.2c2.8-0.2,5.3,1.6,5.5,4.1c0.2,2.5-1.9,4.7-4.7,5c-0.6,0.1-1.1,0-1.7-0.1l0,0c-2.1-0.4-3.4-1.9-4-2.6 l-2.7,5c0,0,0.8,0.8,1.4,1.3c0.6,0.4,1.3,0.8,1.9,1.1c1.4,0.6,3,1,4.7,1c0.2,0,0.2,0,0.4,0c3.1-0.1,5.8-1.3,7.8-3.3 C39,25,40,22.8,40,20.2v-0.1C40,20,40,19.8,40,19.7L40,19.7z"/>
</svg>