<!-- (c) Carrd Inc. All rights reserved. All logos and trademarks are property of their respective owners. -->
<svg xmlns="http://www.w3.org/2000/svg" id="icon">
<path d="M34.6,30.5v4.3c0,0.2-0.1,0.3-0.2,0.3h-4.3c-6.1,4.1-14,4.2-20.1,0.1H5.7c-0.1,0-0.2-0.1-0.2-0.2v-4.3 c-4.2-6.1-4.2-14.1,0-20.1V6.2c0-0.1,0-0.1,0.1-0.2C5.6,6,5.7,6,5.7,6H10c6-4.1,14-4.1,20,0h4.3c0.1,0,0.2,0.1,0.2,0.2v4.3 c2,3,3.1,6.5,3.1,10C37.7,24.1,36.6,27.6,34.6,30.5z M20,5.3c-8.5,0-15.3,6.8-15.3,15.3S11.5,35.8,20,35.8S35.3,29,35.3,20.5 S28.5,5.3,20,5.3z M20,34.7c-7.8,0-14.1-6.3-14.1-14.1S12.2,6.4,20,6.4s14.1,6.3,14.1,14.1S27.8,34.7,20,34.7z M23.9,12.3 c0.4,0.3,0.6,0.8,0.7,1.2c0,0.6-1.7,10.2-1.7,10.2l-2.8-10.8l-2.7,11.1c0,0-1.7-7.1-1.9-9.7c0-0.7,0.1-1.3,0.2-2H9.8 c0.8,0.5,1.3,1.3,1.5,2.2c0.2,0.9,3.3,12.1,3.4,14.3c0,0.8-1.1,1.6-1.1,1.6h5.8c-0.2-0.5-0.4-1-0.4-1.5c0-0.9,1.2-5.7,1.2-5.7 s0.9,4.6,0.9,5.6c0,0.5-0.1,1.1-0.2,1.6h5.7c-0.4-0.6-0.6-1.2-0.7-1.9c0-0.6,1.9-11.3,2.4-13.4c0.3-1.1,0.9-2,1.8-2.8H23.9z"/>
</svg>