<!-- (c) Carrd Inc. All rights reserved. All logos and trademarks are property of their respective owners. -->
<svg xmlns="http://www.w3.org/2000/svg" id="icon">
<path d="M36.2,37.2c-5.4,0-10.8,0-16.2,0c-5.4,0-10.8,0-16.2,0c-0.3,0-0.5,0-0.8,0c0-1.2,0-2.3,0-3.6c2.9,0,5.8,0,8.8,0 c-0.7-2.4-1.3-4.7-2-6.9c-0.1-0.2-0.4-0.4-0.6-0.4c-0.9,0-1.7,0-2.6,0c0-0.2-0.1-0.4-0.1-0.5c0-4.2,0-8.5,0-12.7 c0-0.7,0.4-0.7,0.9-0.7c4.2,0,8.4,0,12.6,0c4.2,0,8.4,0,12.6,0c0.5,0,0.9,0,0.9,0.7c0,4.2,0,8.5,0,12.7c0,0.2-0.1,0.3-0.1,0.5 c-0.9,0-1.7,0-2.6,0c-0.2,0-0.6,0.2-0.6,0.4c-0.7,2.3-1.3,4.5-2,6.9c3,0,5.9,0,8.8,0c0,1.2,0,2.4,0,3.6 C36.7,37.2,36.4,37.2,36.2,37.2z M16.1,33.2c0.1,0.2,0.4,0.4,0.6,0.4c1.1,0,2.2,0,3.4,0c1.1,0,2.2,0,3.4,0c0.2,0,0.5-0.2,0.6-0.4 c0.7-2.3,1.3-4.6,2-6.9c-2,0-4,0-5.9,0s-3.9,0-5.9,0C14.8,28.6,15.4,30.9,16.1,33.2z M28.8,22.5c0-2.2,0-4.4,0-6.6 c-0.4,0-0.7,0-1.1,0c-2.6,0-5.1,0-7.7,0c-2.6,0-5.1,0-7.7,0c-0.3,0-0.7,0-1.1,0c0,2.3,0,4.4,0,6.6c2.9,0,5.8,0,8.8,0 S25.8,22.5,28.8,22.5z M3.7,8.4c0-1.2,0-2.3,0-3.6c0.4,0,0.7,0,1,0c5.1,0,10.2,0,15.3,0c5.1,0,10.2,0,15.3,0c0.3,0,0.6,0,1,0 c0,1.2,0,2.4,0,3.6c-5.4,0-10.9,0-16.3,0S9.1,8.4,3.7,8.4z"/>
</svg>