<!-- (c) Carrd Inc. All rights reserved. All logos and trademarks are property of their respective owners. -->
<svg xmlns="http://www.w3.org/2000/svg" id="icon">
<path d="M34.7,17.5L34.4,17L34,16.7c-0.5-0.4-3.3,0-4-0.6c-0.5-0.5-0.6-1.4-0.8-2.5c-0.3-2.3-0.5-2.4-0.8-3.2 c-1.3-2.7-4.8-4.8-7.2-5.1h-6.5c-5.1,0-9.3,4.2-9.3,9.4v10.9c0,5.1,4.2,9.3,9.3,9.3h10.7c5.1,0,9.3-4.2,9.3-9.3l0.1-7.6 C34.7,17.9,34.7,17.5,34.7,17.5z M14.7,12.8h5.2c1,0,1.8,0.8,1.8,1.8s-0.8,1.8-1.8,1.8h-5.2c-1,0-1.8-0.8-1.8-1.8 S13.7,12.8,14.7,12.8z M25.3,27.1H14.7c-1,0-1.8-0.8-1.8-1.8c0-1,0.8-1.8,1.8-1.8h10.5c1,0,1.8,0.8,1.8,1.8 C27,26.3,26.2,27.1,25.3,27.1z"/>
</svg>