<!-- (c) Carrd Inc. All rights reserved. All logos and trademarks are property of their respective owners. -->
<svg xmlns="http://www.w3.org/2000/svg" id="icon">
<path d="M39.6,23.7c1.1,2.5-1,4.8-3.2,5.2c-1.2,0.3-2.4,0.2-3.6-0.2c-1-0.3-2.2-0.7-3-1.3c0.8,1.6,1.7,3.4,2.2,5.1 c0.3,1.3,0.6,3.2-0.7,3.9c-1.4,0.8-3-0.6-3.9-1.5c-1-1-1.9-2.3-2.7-3.5c0.4,1.7,0.9,3.7,0.6,5.4c-0.3,1.7-1.7,3-3.3,3.1 c-3.7,0.2-3.7-4.8-3.7-7.3c-0.8,1.3-1.8,2.4-3,3.4c-0.9,0.7-2.3,1.5-3.5,1c-2.1-0.8-0.5-3.9,0.1-5.3c-1.8,1.1-5,2.3-7,0.8 c-2.1-1.6-0.8-4.5,0.7-6c-1.3,0.2-5.9,0.7-5.4-1.9c0.2-1.3,1.7-1.8,2.8-2.3c1.4-0.5,2.8-0.9,4.2-1.3c-1.2-0.7-1.7-2.3-1.1-3.5 c0.5-0.9,1.5-1.3,2.5-1.3C7,15.8,5.1,15,3.9,13.7C2.7,12.2,3.2,10.3,5,9.9c1.8-0.4,4,0.4,5.7,0.9c2,0.6,3.9,1.5,5.7,2.5 c-1-2.7-1.7-5.8-1.4-8.7c0.2-2.4,1.7-5.4,4.6-4.4C22,1,23.2,3.6,23.5,6c0.4,2.9,0.1,6-0.5,8.9c1-2,2.6-3.8,4.2-5.3 c1.8-1.7,4.2-3.2,6.7-2.8c1.2,0.3,2.4,0.8,3.1,2c0.7,1.1,0.5,2.2,0.5,3.4c0,0.4-0.1,0.3,0.2,0.4c0.1,0,0.2,0.1,0.3,0.1 c0.2,0.1,0.5,0.3,0.7,0.4c0.4,0.3,0.7,0.8,0.7,1.3c0.2,1.2-0.4,2.3-1.3,2.9c-0.8,0.5-1.8,0.7-2.7,0.9c-1.1,0.3-2.3,0.3-3.3,0.9 C34.6,20,38.4,21,39.6,23.7z M26.5,32.9c0.7,1,1.6,2,2.7,2.7c1.1,0.6,2,0.5,2-0.9c0-1.2-0.6-2.5-1-3.6c-0.5-1.3-1-2.4-1.6-3.6 c-0.3-0.7-0.8-0.8-1.5-1.3c-0.7-0.3-1.2-0.8-1.8-1.2c-1-0.8-2.1-1.6-3-2.5c0.1,1.2,0.4,2.3,0.7,3.5C23.8,28.4,24.9,30.8,26.5,32.9z M25.5,22.1c-0.2-0.3-0.2-0.3-0.6-0.3c-0.5,0-1.2,0.3-1.7,0.3c1,1.1,2.2,1.9,3.5,2.8c0.2,0.2,0.5,0.3,0.9,0.4 c-0.5-0.9-1.1-1.8-1.7-2.6C25.8,22.6,25.7,22.4,25.5,22.1z M25.8,21c0.2,0,0.4-0.1,0.6-0.2c0.9-0.3,1.8-0.6,2.7-1 c-1.6-0.3-3.2-0.4-4.7-0.5c-0.1,0-0.2,0-0.2,0.1c0.4,0.4,0.7,0.9,1.2,1.3C25.5,21,25.4,21,25.8,21z M19.1,32.5 c0.1,1.8,0,6.3,2.7,6.3c3.3,0,2.2-4.9,1.8-6.9c-0.6-2.8-1.4-5.4-2.3-8c-0.2,1.5-0.5,3.1-1,4.6c-0.2,0.7-0.4,1.3-0.7,2 c-0.2,0.3-0.4,0.7-0.5,1S19.1,32.1,19.1,32.5z M17.5,22.7c-2.2,0-4.7,0.9-6.7,1.8c-0.5,0.2-0.9,0.4-1.4,0.7c1.5-0.3,3-0.6,4.4-1 c0.7-0.3,1.3-0.4,2-0.7C16.3,23.3,17.2,23.1,17.5,22.7z M16.4,25.4c-0.9,1.3-1.8,2.7-2.6,4.2c1.3-0.9,2.5-2.1,3.5-3.4 c0.8-1.1,1.6-2.3,2.2-3.6C18.1,23.1,17.2,24.2,16.4,25.4z M15.5,22.1c0.7-0.2,1.4-0.3,2.1-0.4c0.3-0.1,0.9-0.1,1.2-0.3 c0.2-0.1,0.5-0.5,0.7-0.7c0.4-0.3,0.7-0.5,0.3-1c-0.4-0.4-0.9-0.3-1.4-0.2c-2.7,0.3-5.4,0.9-8.1,1.7c0.9,0.3,1.9,0.5,2.9,0.7 C13.8,22,14.8,22.1,15.5,22.1z M19.2,29.7c0.7-1.5,1.2-3.2,1.6-4.9c0.1-0.3,0.6-2,0.2-2.3c-0.4-0.3-0.5,0.8-0.6,1 C19.6,25.6,19.2,27.6,19.2,29.7z M19.5,17.9c0.3,0.4,0.7,0.5,1.2,0.5c0.2,0,0.2,0.1,0.4-0.2c0.3-0.4-0.3-0.8-0.6-1 c-0.7-0.6-1.5-1.2-2.3-1.7C18.6,16.4,19.1,17.1,19.5,17.9z M12,35.7c0.4,0.4,1.3,0.2,1.7,0c1.3-0.6,2.5-1.8,3.4-3 c0.6-0.7,1.1-1.3,1.2-2.2c0-0.8,0.1-1.4,0.2-2.2c0.2-1.4,0.5-2.9,0.9-4.4c-1.2,2.2-2.7,4.3-4.6,5.9c-0.4,0.4-0.9,0.8-1.4,1.1 c-0.5,0.3-0.7,0.9-0.9,1.5C12.3,33,12.2,33.5,12,34C11.8,34.5,11.7,35.3,12,35.7z M4.8,29.4c-0.8,3.7,4.2,2.5,5.8,1.8 c0.7-0.3,1.6-0.6,2-1.2c0.4-0.7,0.7-1.4,1.1-2.1c0.8-1.4,1.7-2.8,2.7-4c-2.3,0.9-4.7,1.6-7.2,2.1c-1,0.3-2,0.3-2.8,0.9 C5.7,27.6,5,28.4,4.8,29.4z M2.6,23.8c-0.4,0.2-1.5,0.8-1.3,1.3c0.2,0.6,1.6,0.6,2.1,0.6c0.9,0.1,1.9-0.1,2.8-0.2 c0.5,0,0.9-0.1,1.3-0.3c0.3-0.3,0.7-0.4,1-0.6c1.7-0.9,3.5-1.6,5.2-2.1c-1.7-0.2-3.5-0.3-5.2-0.9C6.6,22.3,4.4,22.9,2.6,23.8z M7.3,19c0.1,0.6,0.4,0.9,0.8,1.3c0.2,0.2,0.4,0.3,0.7,0.4c0.3,0.1,0.6,0,0.9-0.1c2.7-0.8,5.6-1.3,8.4-1.6c-2.7-1-5.7-1.7-8.6-1.7 C8.3,17.3,7.1,17.4,7.3,19z M12.6,12.7c-1.3-0.5-2.7-0.9-4.2-1.3c-1.1-0.3-2.7-0.7-3.7-0.1c-1.9,1.2,3.6,3.8,4.3,4.1 c2.7,1.1,5.4,1.8,8.2,2.3c0.4,0.1,0.9,0.2,1.4,0.3c-0.4-0.7-0.7-1.3-1.1-2c-0.1-0.3-0.2-0.8-0.4-1c-0.2-0.3-0.3-0.4-0.7-0.6 C15.3,13.8,13.9,13.3,12.6,12.7z M22.2,6.2c-0.2-1.3-0.6-2.7-1.5-3.8c-0.8-0.9-2.2-1.7-3.3-0.8c-2.2,1.7-1.4,6-1,8.2 c0.2,0.7,0.3,1.4,0.5,2.1c0.2,0.6,0.3,1.8,0.7,2.3c0.2,0.3,0.7,0.5,1,0.7c0.3,0.2,0.7,0.4,1,0.7c0.6,0.5,1.2,1,1.8,1.5 c0.1-0.6,0.2-1.3,0.3-1.8C22.2,12.2,22.6,9.1,22.2,6.2z M22.2,20.4c0,0.2-0.1,0.7,0,0.8c0.3,0.8,1.7,0.2,2.4,0 c-0.4-0.5-1-1.4-1.6-1.7c-0.2,0-0.4,0.1-0.6,0.2C22.2,19.9,22.2,20,22.2,20.4z M34,8.1c-1.5-0.3-3,0.1-4.3,0.8 c-3.2,1.8-6,5.2-7.1,8.7c1.6-0.8,3.2-1.5,4.7-2.2c1.7-0.8,3.3-1.4,5-2c0.9-0.3,1.7-0.5,2.7-0.7c0.2-0.1,0.8,0,1.1-0.2 c0.2-0.2,0.2-0.3,0.2-0.6C36.4,10.2,35.8,8.6,34,8.1z M37.6,16.7c0.4-0.5,0.7-1.3,0.6-1.8c-0.1-0.3-0.7-1.3-1.2-1.1 c-0.2,0.1-0.4,0.9-0.5,1.1c-0.2,0.5-0.5,0.8-0.7,1.3c-0.5,0.7-1.2,1.3-1.8,1.9C35.1,17.8,36.8,17.6,37.6,16.7z M33.9,16.4 c0.7-0.8,1.4-1.8,1.8-2.9c-2.4,0.2-4.8,1.2-7.1,2.1c-2,0.8-3.9,1.7-5.8,2.6c0.2,0.3,0.7,0.2,1,0.2c0.8,0.1,1.7,0.1,2.5,0.1 c1.7,0,3.4,0,5.1-0.2C32.3,18.3,33.4,17,33.9,16.4z M36.7,22.4c-1.1-0.6-2.2-1-3.3-1.4c-0.6-0.2-1.1-0.3-1.7-0.5 c-0.3-0.1-0.7-0.3-1-0.3c-0.2-0.1-0.5,0.1-0.8,0.3c-1.2,0.5-2.5,0.9-4,1.3c0.8,1,1.6,2.1,2.2,3.2c0.3,0.6,0.7,1.3,1.2,1.7 c0.5,0.3,1,0.5,1.5,0.7c2,0.8,4.3,1.8,6.4,0.5c0.9-0.6,1.7-1.6,1.6-2.8S37.7,23,36.7,22.4z"/>
</svg>