<!-- (c) Carrd Inc. All rights reserved. All logos and trademarks are property of their respective owners. -->
<svg xmlns="http://www.w3.org/2000/svg" id="icon">
<path d="M26.6,15.4c-1.5,0.8-2.2,0.7-2.5,0.4c-0.2-0.2-0.1-0.6,0.2-0.9c2.8-2.3,2.8-4.2,2.5-6.8 c-0.2-1.7-1.3-2.8-2.6-2.8c-5.4,0-13.2,12.1-12.2,20.8c0.4,3.4,2.5,7.4,6.9,7.4c1.4,0,3-0.4,4.4-1.1c2.1-1.1,3.4-1.9,4.6-3.2 c0.1-0.2,0.2-0.3,0.4-0.4c0,0,0.1-0.1,0.1-0.1l0,0.1c0.2-0.1,0.4-0.1,0.5,0c0.4,0.2,0.6,0.7,0.4,1.1c-0.1,0.2-0.3,0.4-0.5,0.5l0,0.1 c-1.1,1.2-2.3,2.3-3.8,3.3c-2.2,1.4-4.7,2.5-7.7,2.5c-2.7,0-5-1.4-6.3-2.6c-1.9-1.8-2.9-4.4-3.2-6.7C6.9,19.4,11.5,9.5,18.7,5.2 c1.6-1,3.5-1.5,5.2-1.5c3.4,0,6,2.4,6.4,5.3C30.6,11.7,29.5,14,26.6,15.4z" />
</svg>