<!-- (c) Carrd Inc. All rights reserved. All logos and trademarks are property of their respective owners. -->
<svg xmlns="http://www.w3.org/2000/svg" id="icon">
<path d="M33.6,33.1c-3.2-4.6-6.3-9.2-9.4-13.8C29.3,17,31,13,30.1,7.5c4.6,2.9,8.1,6.4,8.7,11.8 C39.5,24.6,38,29.3,33.6,33.1z M20,15.8c-2.7,0.2-5.4,0-8.2,0c0-0.1-0.1-0.3-0.1-0.5c0-2.8,0-5.5,0-8.3c0-0.6,0.2-0.9,0.8-1 c1.5-0.4,3-0.8,4.5-1.2c0.9,0,1.8,0,2.8,0C20,4.9,20.1,4.9,20.3,5c2.9,0.6,4.4,2.5,4.3,5.6C24.6,13.5,22.9,15.6,20,15.8z M11.7,20.7 c0.3,0,0.6-0.1,0.9-0.1c1.8,0,3.6,0,5.4,0c0.7,0,1.1,0.2,1.4,0.8c2.9,4.3,5.9,8.7,8.8,13c0.2,0.2,0.2,0.6,0.3,0.9c-0.7,0-1.3,0-2,0 c-1.7-0.4-3.3-1.2-4.3-2.7c-0.8-1.1-1.4-2.4-2.2-3.5c-0.6-0.9-1.2-1.8-2-2.4c-1.4-1-2.5-0.5-2.8,1.3c-0.2,1.2-0.2,2.4-0.4,3.5 c-0.4,2-1.5,3.3-3.6,3.6c-0.1,0-0.2,0.1-0.3,0.2c-0.6,0-1.2,0-1.8,0c-2.3-0.6-4.1-1.7-5.3-3.8c-0.8-1.4-1.5-3-2-4.6 c-0.4-1.1-0.5-2.3-0.8-3.5c0-1.2,0-2.4,0-3.6c0.3-1,0.5-2,0.8-2.9c0.9-2.6,2.3-4.9,4.5-6.9c0,0.5,0.1,0.8,0.1,1.1 c0,5.4,0,10.8,0,16.2c0,1.9,0.8,2.8,2.5,2.9c1.8,0.1,2.9-1,2.9-2.9C11.7,25.1,11.7,22.9,11.7,20.7z"/>
</svg>