<!-- (c) Carrd Inc. All rights reserved. All logos and trademarks are property of their respective owners. -->
<svg xmlns="http://www.w3.org/2000/svg" id="icon">
<path d="M2.5,26.7c0.1-0.1,0.2-0.3,0.3-0.4c1-1.3,2-2.7,3-4c0.2-0.2,0.3-0.4,0.5-0.7c0.1-0.1,0.1-0.2,0.1-0.3 c-0.1,0-0.2-0.1-0.3-0.1c-1.6,0-3.3,0-4.9,0c-0.1,0-0.2,0-0.3-0.1c0-0.1,0-0.2,0.1-0.3c1.6-2.2,3.3-4.3,4.9-6.5 c0.1-0.1,0.1-0.2,0.1-0.4c0.1-1.1,0.2-2.2,0.3-3.3C6.6,9,6.7,7.1,6.9,5.2c0-0.1,0.1-0.3,0.2-0.4c0.9-1,1.8-2,2.7-3 c0.2-0.2,0.3-0.2,0.5,0c0.5,0.6,1,1.2,1.5,1.8c1.3,1.6,2.6,3.2,3.9,4.7c0.2,0.2,0.3,0.3,0.6,0.3c2.4,0,4.9,0,7.3,0 c0.2,0,0.4-0.1,0.6-0.2c1.1-1.3,2.2-2.7,3.3-4c0.7-0.8,1.3-1.6,2-2.4c0.3-0.4,0.3-0.4,0.7,0c0.9,0.9,1.7,1.9,2.6,2.8 c0.1,0.1,0.2,0.2,0.2,0.4c0.2,1.6,0.3,3.1,0.4,4.7c0.1,1.4,0.2,2.8,0.4,4.3c0,0.3,0.3,0.5,0.5,0.8c1.1,1.5,2.2,2.9,3.3,4.4 c0.4,0.5,0.8,1,1.2,1.6c0.1,0.1,0.1,0.3,0.2,0.4c-0.2,0-0.4,0-0.5,0c-1.6,0-3.2,0-4.7,0c-0.1,0-0.2,0-0.2,0.1c0,0.1,0,0.2,0.1,0.3 c0.7,1,1.5,2,2.3,3c0.5,0.6,1,1.2,1.4,1.9c0.1,0.1,0.1,0.2,0.1,0.3c0,0-0.2,0.1-0.2,0.1c-1.5,0-3,0-4.5,0c-0.3,0-0.4,0.2-0.4,0.4 c0,1.7,0,3.3,0,5c0,0.2,0,0.5,0,0.7c0,0.3-0.1,0.3-0.3,0.2c-0.6-0.4-1.3-0.8-1.9-1.2c-0.2-0.1-0.5-0.3-0.7-0.4 c-0.2-0.1-0.3-0.1-0.4,0.1c-0.6,0.9-1.3,1.7-1.9,2.6c-0.5,0.7-1.1,1.1-1.7,1.5c-1,0.8-2,1.5-3,2.3c-0.3,0.2-0.5,0.3-0.8,0.3 c-1,0-2,0-3,0c-0.3,0-0.6-0.3-0.9-0.5c-1.1-0.8-2.1-1.6-3.2-2.4c-0.7-0.5-1.2-1.1-1.7-1.7c-0.5-0.7-1-1.4-1.5-2 c-0.1-0.2-0.2-0.2-0.4-0.1C9.8,32,9,32.5,8.1,33c-0.4,0.2-0.4,0.2-0.4-0.2c0-1.6,0-3.2,0-4.9c0-0.3,0-0.5,0-0.8 c0-0.2-0.1-0.3-0.3-0.3c-1.3,0-2.5,0-3.8,0C3.3,26.8,2.9,26.8,2.5,26.7C2.5,26.8,2.5,26.7,2.5,26.7z M19.9,29.6c-0.4,0-0.7,0-1.1,0 c-0.1,0-0.3,0-0.4,0.1c-0.3,0.2-0.5,0.4-0.7,0.6c-0.1,0.1-0.1,0.2-0.1,0.3c0.3,0.6,0.6,1.2,0.9,1.8c0.1,0.1,0.2,0.2,0.3,0.2 c0.7,0,1.4,0,2.1,0c0.1,0,0.3-0.1,0.4-0.2c0.3-0.5,0.6-1.1,0.8-1.6c0.1-0.2,0.1-0.3-0.1-0.5c-0.5-0.4-1-0.8-1.7-0.6 C20.3,29.6,20.1,29.6,19.9,29.6z M22.5,24.2c0,0,0.1,0.1,0.1,0.1c1.9-1,3.7-2.1,5.6-3.1c0,0,0-0.1-0.1-0.1c-0.1,0-0.3,0-0.4,0 c-1,0-2,0-3,0c-0.3,0-0.5,0.1-0.6,0.3c-0.3,0.6-0.7,1.1-1,1.7C22.8,23.4,22.7,23.8,22.5,24.2z M11.8,21c0,0.1-0.1,0.1-0.1,0.2 c1.9,1,3.8,2.1,5.7,3.2c0-0.2,0-0.2-0.1-0.3c-0.5-0.9-1-1.8-1.5-2.6C15.7,21.1,15.4,21,15,21c-0.5,0-1,0-1.5,0 C12.9,21,12.4,21,11.8,21z"/>
</svg>