<!-- (c) Carrd Inc. All rights reserved. All logos and trademarks are property of their respective owners. -->
<svg xmlns="http://www.w3.org/2000/svg" id="icon">
<path d="M40,9.8c0,0.1,0,0.3-0.1,0.4c-0.1,0.1-0.2,0.2-0.3,0.2c-0.9,0.1-1.6,0.4-2.2,0.8c-0.6,0.5-1.1,1.4-1.7,2.7 l-9.1,20.4c-0.1,0.2-0.2,0.3-0.5,0.3c-0.2,0-0.4-0.1-0.5-0.3l-5.1-10.6l-5.9,10.6c-0.1,0.2-0.3,0.3-0.5,0.3c-0.3,0-0.4-0.1-0.5-0.3 L4.7,13.9c-0.6-1.3-1.1-2.2-1.8-2.7c-0.6-0.5-1.5-0.8-2.6-0.9c-0.1,0-0.2,0-0.3-0.2C0,10.1,0,10,0,9.9c0-0.3,0.1-0.5,0.3-0.5 c0.8,0,1.6,0,2.5,0.1c0.8,0.1,1.6,0.1,2.3,0.1c0.7,0,1.6,0,2.6-0.1c1-0.1,1.9-0.1,2.7-0.1c0.2,0,0.3,0.2,0.3,0.5 c0,0.3-0.1,0.5-0.2,0.5C9.7,10.4,9,10.6,8.6,11c-0.5,0.3-0.7,0.8-0.7,1.4c0,0.3,0.1,0.6,0.3,1.1L15.6,30l4.2-7.9l-3.9-8.2 c-0.7-1.5-1.3-2.4-1.7-2.8c-0.5-0.4-1.1-0.7-2-0.8c-0.1,0-0.2,0-0.2-0.2c-0.1-0.1-0.1-0.2-0.1-0.3c0-0.3,0.1-0.5,0.2-0.5 c0.8,0,1.5,0,2.2,0.1c0.6,0.1,1.3,0.1,2,0.1c0.7,0,1.5,0,2.3-0.1c0.8-0.1,1.6-0.1,2.4-0.1c0.2,0,0.3,0.2,0.3,0.5 c0,0.3-0.1,0.5-0.2,0.5c-1.6,0.1-2.4,0.6-2.4,1.4c0,0.4,0.2,0.9,0.6,1.6l2.6,5.2l2.6-4.8c0.4-0.7,0.5-1.2,0.5-1.7 c0-1.1-0.8-1.7-2.4-1.7c-0.1,0-0.2-0.2-0.2-0.5c0-0.1,0-0.2,0.1-0.3c0.1-0.1,0.1-0.2,0.2-0.2c0.6,0,1.3,0,2.1,0.1 c0.8,0.1,1.4,0.1,2,0.1c0.4,0,0.9,0,1.6-0.1c0.9-0.1,1.7-0.1,2.3-0.1c0.1,0,0.2,0.1,0.2,0.4c0,0.4-0.1,0.6-0.4,0.6 c-0.9,0.1-1.7,0.4-2.2,0.8c-0.6,0.4-1.3,1.4-2.1,2.8l-3.4,6.3l4.6,9.4L34,13.8c0.2-0.6,0.4-1.1,0.4-1.6c0-1.2-0.8-1.8-2.4-1.8 c-0.1,0-0.2-0.2-0.2-0.5c0-0.3,0.1-0.5,0.3-0.5c0.6,0,1.3,0,2.1,0.1c0.7,0.1,1.4,0.1,1.9,0.1c0.5,0,1.1,0,1.8-0.1 c0.7-0.1,1.4-0.1,1.9-0.1C39.9,9.4,40,9.5,40,9.8z"/>
</svg>