<!-- (c) Carrd Inc. All rights reserved. All logos and trademarks are property of their respective owners. -->
<svg xmlns="http://www.w3.org/2000/svg" id="icon">
<path d="M1.43,33.36c0,1.18,0.96,2.14,2.14,2.14h7.86v-2.86H5c-0.39,0-0.71-0.32-0.71-0.71v-4.29c0-0.39,0.32-0.71,0.71-0.71h6.43 v-2.86H3.57c-1.18,0-2.14,0.96-2.14,2.14V33.36z M12.86,7.64c0-1.18-0.96-2.14-2.14-2.14H3.57c-1.18,0-2.14,0.96-2.14,2.14v7.14 c0,1.18,0.96,2.14,2.14,2.14h5v-2.86H5c-0.39,0-0.71-0.32-0.71-0.71V9.07c0-0.39,0.32-0.71,0.71-0.71h4.29 C9.68,8.36,10,8.68,10,9.07v8.57c0,0.39-0.32,0.71-0.71,0.71H1.43v2.86h9.28c1.18,0,2.14-0.96,2.14-2.14l0,0V7.64z M12.86,26.21 v7.14c0,1.18,0.96,2.14,2.14,2.14h7.14c1.18,0,2.14-0.96,2.14-2.14v-7.14c0-1.18-0.96-2.14-2.14-2.14H15 C13.82,24.07,12.86,25.03,12.86,26.21z M25.71,7.64c0-1.18-0.96-2.14-2.14-2.14h-7.14c-1.18,0-2.14,0.96-2.14,2.14v7.14 c0,1.18,0.96,2.14,2.14,2.14h7.14c1.18,0,2.14-0.96,2.14-2.14V7.64z M38.57,7.64c0-1.18-0.96-2.14-2.14-2.14h-7.14 c-1.18,0-2.14,0.96-2.14,2.14v7.14c0,1.18,0.96,2.14,2.14,2.14h5v-2.86h-3.57c-0.39,0-0.71-0.32-0.71-0.71V9.07 c0-0.39,0.32-0.71,0.71-0.71H35c0.39,0,0.71,0.32,0.71,0.71v8.57c0,0.39-0.32,0.71-0.71,0.71h-7.86v2.86h9.28 c1.18,0,2.14-0.96,2.14-2.14l0,0V7.64z M38.57,24.07H27.86c-1.18,0-2.14,0.96-2.14,2.14v9.29h2.86v-7.86c0-0.39,0.32-0.71,0.71-0.71 h1.43v8.57h2.86v-8.57h2.14v8.57h2.86V24.07z M22.14,14.07h-4.29c-0.39,0-0.71-0.32-0.71-0.71V9.07c0-0.39,0.32-0.71,0.71-0.71h4.29 c0.39,0,0.71,0.32,0.71,0.71v4.29C22.86,13.75,22.54,14.07,22.14,14.07z M16.43,26.93h4.29c0.39,0,0.71,0.32,0.71,0.71v4.29 c0,0.39-0.32,0.71-0.71,0.71h-4.29c-0.39,0-0.71-0.32-0.71-0.71v-4.29C15.71,27.25,16.03,26.93,16.43,26.93z"/>
</svg>