<!-- (c) Carrd Inc. All rights reserved. All logos and trademarks are property of their respective owners. -->
<svg xmlns="http://www.w3.org/2000/svg" id="icon">
<path d="M39.2,26.6c-0.1,0.2-0.4,0.4-0.6,0.4c-2.6,0-5.2,0-7.9,0c0-5,0-9.8,0-14.7c1.3,0,2.5,0,3.9,0 c0,3.8,0,7.5,0,11.4c1.8,0,3.5,0,5.4,0C39.7,24.8,39.5,25.7,39.2,26.6z M24.3,15.6c-2,0-3.3,1.3-3.3,3.5c0.6,0,1.1,0,1.7,0 c0.6,0,1.1,0,1.8,0c0-1.1,0-1.2,0-2.3c0.8,0,1.5,0,2.2,0c0.7,0,1.3,0,2.1,0c0,3.7,0,6.5,0,10.3c-1.4,0-2.8,0-4.3,0 c0-1.6,0-3.1,0-4.8c-1.6,0-2.9,0-4.6,0c0.5,1.4,0.8,2.7,1.4,3.9c0.4,0.8,0.3,1.2-0.4,1.6c-0.8,0.5-1.5,1-2.4,1.6 c-1.6-3.4-2.8-6.7-2.5-10.4c0.4-3.6,3.6-6.4,7.6-6.6c1.4-0.1,2.8-0.1,4.2,0c0.3,0,0.7,0.3,0.9,0.6c0.4,0.8,0.6,1.7,0.9,2.7 C27.7,15.6,26,15.6,24.3,15.6z M10.7,18.6c-0.1,0-0.2-0.1-0.3-0.1c-1.1,1.2-2.1,2.5-3.2,3.8c-1.1-1.3-2.1-2.5-3.2-4c0,3,0,5.8,0,8.6 c-1.4,0-2.6,0-3.9,0c0-4.9,0-9.7,0-14.8c1.2,0,2.4,0,3.6,0c0.3,0,0.6,0.4,0.8,0.6c0.9,1.2,1.8,2.5,2.8,3.8c1-1.3,1.9-2.6,2.9-3.7 c0.3-0.4,0.9-0.6,1.4-0.7c1-0.1,2,0,3,0c0,5,0,9.8,0,14.7c-1.2,0-2.5,0-3.8,0C10.7,24.2,10.7,21.4,10.7,18.6z"/>
</svg>