<!-- (c) Carrd Inc. All rights reserved. All logos and trademarks are property of their respective owners. -->
<svg xmlns="http://www.w3.org/2000/svg" id="icon">
<path d="M35.8,17.6L20,37.8l17.2-12.5c0.2-0.2,0.4-0.4,0.5-0.7c0.1-0.3,0.1-0.5,0-0.8L35.8,17.6L35.8,17.6z M26.5,17.6h-13L20,37.8 l0,0L26.5,17.6z M30.5,5.4l-3.9,12.2h9.1l-4-12.2C31.7,5.1,31.5,5,31.1,5S30.6,5.1,30.5,5.4z M4.2,17.6l-2,6.1 c-0.1,0.3-0.1,0.6,0,0.8c0.1,0.3,0.2,0.5,0.5,0.7L20,37.8L4.2,17.6L4.2,17.6z M4.2,17.6h9.1L9.5,5.4C9.4,5.1,9.2,5,8.9,5 C8.5,5,8.3,5.1,8.2,5.4L4.2,17.6z" />
</svg>