<!-- (c) Carrd Inc. All rights reserved. All logos and trademarks are property of their respective owners. -->
<svg xmlns="http://www.w3.org/2000/svg" id="icon">
<path d="M37.5,35.6c0,0.3-0.2,0.5-0.5,0.5c-0.1,0-0.2,0-0.2,0c-5.4,0-10.8,0-16.2,0c-5.4,0-10.9,0-16.3,0 c-0.6,0-0.7-0.2-0.7-0.7c0-0.5,0-1,0-1.4c0-0.4,0.2-0.6,0.6-0.6c1.2,0,2.4,0,3.5,0c9.7,0,19.4,0,29.1,0c0.1,0,0.2,0,0.3,0 c0.3,0,0.5,0.2,0.5,0.5C37.5,34.5,37.5,35.1,37.5,35.6z M36.7,30.4c-1.8,0.5-3.5,1-5.3,1.6c-0.7,0.2-1.1-0.1-1.3-0.7 c-2.4-8.1-4.8-16.2-7.2-24.4c-0.2-0.7,0-1.2,0.7-1.4c1.8-0.5,3.5-1.1,5.3-1.6c0.1,0,0.3-0.1,0.3-0.1c0.5,0,0.8,0.3,1,0.7 c0.5,1.6,0.9,3.2,1.4,4.8c1.9,6.5,3.8,13,5.8,19.6C37.6,29.7,37.4,30.2,36.7,30.4z M20.1,32c-1.9,0-3.9,0-5.8,0 c-0.5,0-0.9-0.3-0.9-0.8c0-0.1,0-0.2,0-0.2c0-8.5,0-16.9,0-25.4c0-0.6,0.3-1,0.8-1.1c0.1,0,0.2,0,0.3,0c1.9,0,3.7,0,5.6,0 c0.7,0,1.1,0.4,1.1,1.1c0,4.2,0,8.5,0,12.7c0,4.2,0,8.4,0,12.7c0,0.3,0,0.6-0.2,0.8C20.6,31.9,20.4,32,20.1,32z M10.1,32 c-1.8,0-3.7,0-5.5,0c-0.7,0-1.1-0.4-1.1-1.1c0-8.5,0-16.9,0-25.4c0-0.7,0.4-1.1,1.1-1.1c1.8,0,3.7,0,5.5,0c0.7,0,1.1,0.4,1.1,1.1 c0,4.2,0,8.5,0,12.7c0,4.2,0,8.4,0,12.6C11.2,31.7,10.9,32,10.1,32z"/>
</svg>