<!-- (c) Carrd Inc. All rights reserved. All logos and trademarks are property of their respective owners. -->
<svg xmlns="http://www.w3.org/2000/svg" id="icon">
<path d="M16.8,16.7c-0.1,0.3-1.9,3.4-5.4,9.5c-0.4,0.6-0.8,1-1.4,1H5c-0.3,0-0.5-0.1-0.6-0.4c-0.1-0.2-0.1-0.5,0-0.8l5.3-9.4 c0,0,0,0,0,0l-3.4-5.8c-0.2-0.3-0.2-0.6,0-0.8C6.4,9.9,6.6,9.8,7,9.8h5c0.6,0,1,0.3,1.4,0.9L16.8,16.7z M33.6,3.3 c0.2,0.2,0.2,0.5,0,0.8l-11,19.5v0l7,12.8c0.2,0.3,0.2,0.5,0,0.8c-0.1,0.2-0.4,0.3-0.7,0.3h-5c-0.6,0-1-0.3-1.4-0.9l-7.1-13 c0.3-0.4,3.9-7,11.1-19.7C26.9,3.3,27.4,3,27.9,3h5C33.3,3,33.5,3.1,33.6,3.3L33.6,3.3z"/>
</svg>