<!-- (c) Carrd Inc. All rights reserved. All logos and trademarks are property of their respective owners. -->
<svg xmlns="http://www.w3.org/2000/svg" id="icon">
<path d="M18.9,21.1l-9.3,13c-0.5,0.7-1.3,1-2.1,0.9c-0.9-0.1-2.2-0.5-3.5-1.4c-1.3-0.9-2-2-2.5-2.9 c-0.4-0.7-0.3-1.6,0.2-2.3l9.3-13c0.4-0.6,1-1.1,1.7-1.5l1.8-1c0.4-0.2,0.7-0.5,1-0.8c0.9-1,3.3-3.6,7.5-7.9L23.1,4 c0-0.1,0.1-0.1,0.2-0.2l0.2-0.1c0.1,0,0.2-0.1,0.2-0.2l0-0.3c0-0.1,0.1-0.2,0.2-0.2c0.3,0,0.8,0.1,1.6,0.6c0.8,0.6,1,1,1.1,1.3 c0,0.1,0,0.2-0.2,0.3l-0.3,0.1C26,5.3,26,5.4,26,5.5l0,0.2c0,0.1,0,0.2-0.1,0.2l-0.3,0.2c-2.7,5.4-4.4,8.5-5.1,9.7 c-0.2,0.4-0.3,0.8-0.4,1.2l-0.3,2C19.6,19.7,19.3,20.5,18.9,21.1z M39.3,28.4l-9.3-13c-0.4-0.6-1-1.1-1.7-1.5l-1.8-1 c-0.4-0.2-0.7-0.5-1-0.8c-0.2-0.2-0.5-0.6-0.9-1c-0.1-0.1-0.2-0.1-0.2,0c-1.4,2.7-2.4,4.4-2.8,5.1c-0.1,0.2-0.2,0.5-0.3,0.8 c-0.1,0.6-0.1,1.2,0,1.8l0,0.1c0.1,0.8,0.4,1.5,0.9,2.1l9.3,13c0.5,0.7,1.3,1,2.1,0.9c0.9-0.1,2.2-0.5,3.5-1.4c1.3-0.9,2-2,2.5-2.9 C39.8,30,39.7,29.1,39.3,28.4 M14.6,5.2l0.3,0.1C15,5.3,15,5.4,15,5.5l0,0.2c0,0.1,0,0.2,0.1,0.2l0.3,0.2c0.5,1,1,1.9,1.4,2.7 c0,0.1,0.1,0.1,0.2,0c0.7-0.7,1.5-1.6,2.5-2.7c0.1-0.1,0.1-0.2,0-0.3c-0.5-0.5-1-1.1-1.6-1.6L17.9,4c0-0.1-0.1-0.1-0.2-0.2l-0.2-0.1 c-0.1,0-0.2-0.1-0.2-0.2l0-0.3c0-0.1-0.1-0.2-0.2-0.2c-0.3,0-0.8,0.1-1.6,0.6c-0.8,0.6-1,1-1.1,1.3C14.4,5.1,14.5,5.2,14.6,5.2"/>
</svg>