<!-- (c) Carrd Inc. All rights reserved. All logos and trademarks are property of their respective owners. -->
<svg xmlns="http://www.w3.org/2000/svg" id="icon">
<path d="M39.2,22.4c-1.5,2.4-4.7,3.1-7.1,1.6c-2.4-1.5-3.1-4.8-1.6-7.2l-1.7-1.3l-1.1,6.3l0.5,1.2c0,0,0,0,0,0h1.8 c0.2,0,0.3,0.1,0.3,0.3l0,0.1c0,0.2-0.1,0.4-0.2,0.4l-2.1,0.6c0.1,0.4,0,0.8-0.3,1.2c-0.5,0.5-1.2,0.6-1.8,0.1l-0.5,0.3 c0.5,0.8,0.7,1.8,0.6,2.7c-0.2,2.9-2.6,5.1-5.4,4.9c-2.9-0.2-5-2.6-4.9-5.5c0.2-2.9,2.6-5.1,5.4-4.9l0.3-2.1l-2-1.5L19.3,20 c-0.3,0.3-0.8,0.5-1.2,0.6l-0.7,0.1c-0.1,0-0.3,0-0.3-0.1c-0.1-0.2-0.1-0.4,0.1-0.5l1.4-1l-0.1,0c-1-0.8-0.4-3.5-0.3-4c0,0,0,0,0,0 c0,0,0,0,0,0c-1.1,0.6-4.8,0.9-6,0.4c0,0,0,0,0,0c0,0,0-0.1,0-0.1c4.3-1.5,8.9-5.3,9.3-5.7c0,0,0,0,0,0c-0.7-0.4-1.1-0.7-1.3-1.9 c0,0-0.3-1.2,1.2-1.8C22.5,5.3,23,6,23.1,6.1c0,0,0,0,0,0l1.5-0.2c0,0,0,0,0,0c0,0,0,0,0,0l-1,0.9c0,0,0,0,0,0 c0.1,0.1,0.5,1,0.3,1.7c-0.2,0.7-1.2,0.9-1.3,1c0,0,0,0,0,0c0,0,0,0,0,0c0.1,0.2,0.5,0.3,0.8,0.6c0.3,0.3,0.4,1.1,1.3,1.7 c0.6,0.3,2.5,0.2,3.5,0.2l3.6-3.3c0,0,0,0,0,0c0,0,0.1,0,0.1,0l0.9,1.7c0,0,0,0.1,0,0.1l-3.5,3.2c0.8,0.1,1.2,0.2,1.2,0.3 c-0.1,0.3-1,0.7-1.5,0.9l1.8,1.4c0.3-0.4,0.7-0.7,1.1-1c2.4-1.6,5.6-0.9,7.2,1.6l0,0C40.3,18.5,40.3,20.7,39.2,22.4z M26.3,23.7 c0.1-0.1,0.3-0.1,0.4-0.1l0.1-0.7l-1.3-2c0,0,0,0,0,0c0,0,0,0,0,0l-0.8,1.6c0,0,0,0,0,0L26.3,23.7z M25.6,25.1 c-0.1-0.3-0.1-0.5,0-0.8l-0.1,0l-2.2-0.8c-0.2-0.1-0.4-0.4-0.3-0.6l0.1-0.4l-1.1-0.8l-0.2,1.7c1.3,0.2,2.4,1,3.2,2L25.6,25.1z M24.4,19.2l-2,1.8l1,0.8L24.4,19.2z M21.1,28.9c-0.1,0-0.1,0.1-0.2,0c-0.2,0-0.3-0.2-0.3-0.4l0.5-4.1c-0.8,0-1.6,0.2-2.3,0.6 c-1.9,1.2-2.5,3.8-1.3,5.7c1.2,1.9,3.8,2.5,5.7,1.3h0c1.8-1.2,2.4-3.5,1.4-5.4L21.1,28.9z M21.4,27.9l2.9-1.8 c-0.6-0.8-1.5-1.3-2.4-1.5L21.4,27.9z M21.8,20.6l1.6-1.5c-1.1,0.2-2.2,0.3-3.2,0.3L21.8,20.6z M27.3,13.1l-2.4,0l0,0c0,0,0,0,0,0 c0,0,0,0,0,0c0.1,0.2,0.6,0.7,1.1,0.6c0.6-0.1,1.2-0.1,1.7-0.1L27.3,13.1z M27.5,14.6l-2.1,0.7h0c-0.1,0-1.8-0.6-2.6-1.5 c0,0,0,0,0,0c0,0,0,0,0,0c-0.1,0.7-1.3,2.7-1.5,3l0,0c0,0,0,0,0,0c0,0,0,0,0,0c0.4-0.1,2.4-0.3,3.7-0.2c0.3,0,0.6,0.2,0.9,0.4L28,15 L27.5,14.6z M26.1,17.6c0.1,0.3,0.1,0.6,0.1,0.9c0,0,0,0,0,0l1,2.2l0.8-4.8L26.1,17.6z M38.3,17.3c-1.3-1.9-3.8-2.4-5.7-1.1 c-0.3,0.2-0.6,0.5-0.9,0.8l3.3,2.4c0.2,0.1,0.2,0.3,0.1,0.5c0,0-0.1,0.1-0.1,0.1c-0.1,0.1-0.3,0.1-0.4,0l-3.2-2.4 c-0.8,1.3-0.8,3.1,0,4.4c1.2,1.9,3.8,2.5,5.7,1.2l0,0c0.1,0,0.1-0.1,0.1-0.1C39.1,21.8,39.6,19.2,38.3,17.3z M27.9,11.2 c0,0-0.1,0.1-0.2,0.1l-1.2-0.1l0,0c0,0,0,0,0,0c0,0,0-0.1,0-0.1l2.9-2.8c0.1-0.1,0.1-0.1,0.2-0.1l1.2,0.1c0,0,0,0,0,0 c0,0,0,0.1,0,0.1L27.9,11.2z M12.4,22.7l1.7,1.5l-2.3-0.1L11,26.2L10.4,24l-2.3-0.2l1.8-1.2l-0.6-2.3l1.8,1.5l1.9-1.2L12.4,22.7z M9,29.9l1.9-1.2l-0.7,2.2l1.7,1.5l-2.3-0.1l-0.8,2.1l-0.7-2.2l-2.3-0.2l1.9-1.2l-0.6-2.3L9,29.9z M3.7,26.4l-0.8,2.1l-0.7-2.2L0,26 l1.9-1.2l-0.6-2.3L3.1,24L5,22.8L4.2,25L6,26.5L3.7,26.4z"/>
</svg>