<!-- (c) Carrd Inc. All rights reserved. All logos and trademarks are property of their respective owners. -->
<svg xmlns="http://www.w3.org/2000/svg" id="icon">
<path d="M37.7,21.4v0.2C37.5,25.2,35.9,31,26,35c-3.5,1.5-4.8,2.8-5.4,4c-0.3,0.6-0.9,0.6-1.1,0.6 c-0.3,0-0.7-0.2-0.9-0.5c-0.1-0.2-0.1-0.3-0.2-0.4c-4-10.8,7.4-18.3,13.8-19.6c0.3-0.1,0.5-0.3,0.6-0.6c0-0.4-0.3-0.7-0.7-0.7 c-0.1,0-0.1,0-0.2,0c-6.8,1.3-13,4.8-17.6,9.7c-1,1.1-2,2.2-2.9,3.5c0,0-0.1,0.1-0.1,0.1c-0.1,0.1-0.2,0.2-0.2,0.2 c-0.2,0.1-0.4,0.2-0.7,0.2c-0.4,0-0.7-0.2-0.9-0.5c-0.2-0.3-0.2-0.6-0.2-0.9c0,0,0,0,0,0c0-0.1,0-0.1,0.1-0.2 c0.8-2.4,1.9-4.8,3.2-6.9c0.1-0.2,0.2-0.4,0.4-0.6c0.3-0.4,0.3-1.1-0.1-1.5c-0.2-0.2-0.5-0.3-0.8-0.3c-0.2,0-0.4,0-0.6,0.1 c-2.5,1-4.8,2.2-7,3.7c0,0-0.1,0-0.1,0.1c-0.2,0.1-0.5,0.2-0.7,0.2c-0.3,0-0.7-0.2-0.9-0.5c-0.3-0.4-0.3-0.9,0-1.3 c0,0,0.1-0.1,0.1-0.1c2-2.4,4.2-4.4,6.2-6.1c0.1,0.1,0.3,0.1,0.5,0.2c1.7,0.7,5.3,2,5.5,2.1c0.1,0,0.4,0.1,0.7,0.2 c0.1,0,0.2,0,0.3,0c0.6,0,1.1-0.1,1.5-0.4c0.5-0.4,0.9-0.9,1.1-1.6c0.1-0.3,0.1-0.6,0.1-0.7v-5.9v-0.4c0.1-0.1,0.2-0.1,0.4-0.2 c1.9-0.9,4-1.4,6.2-1.3C27,8.7,28.3,9,29.5,9.4C34.4,11.2,37.8,15.9,37.7,21.4z M19.9,30.2c-1.1,2.5-1.2,5.1-0.2,7.7 c0.8-1.2,2.2-2.7,5.9-4.2C25.5,33.7,21.9,33.4,19.9,30.2z M17.2,17.6c-0.3,0.2-0.6,0.2-0.8,0.2c-0.1,0-0.3-0.1-0.4-0.1 c-0.3-0.1-6.7-2.5-6.7-2.5c-1-0.4-2.4-1.3-3.2-1.9c0,0,0,0,0,0C5,12.2,4,11.1,3,9.9C3,9.8,3,9.8,3,9.8v0C2.6,9.2,2.8,8.6,3.3,8.2 c0.1-0.1,0.2-0.1,0.2-0.1c0.1,0,0.2,0,0.2-0.1c1.9-0.4,3.9-0.2,5.6,0.8c0.5-0.4,1.1-0.8,1.2-0.9c0.1-0.1,0.7-0.4,1.3-0.7 c-0.3-1.9,0.2-3.9,1.3-5.5c0.1-0.1,0.1-0.1,0.1-0.2c0.1-0.1,0.1-0.1,0.2-0.2C13.9,1,14.6,1.1,15,1.6l0,0c0,0,0,0.1,0.1,0.1 c0.8,1.3,1.5,2.7,2,4.1c0,0,0,0,0,0.1c0.3,0.9,0.7,2.5,0.6,3.6v7c0,0.1,0,0.3,0,0.4C17.6,17.1,17.5,17.4,17.2,17.6z M4.5,9.4 c0.7,0.9,1.5,1.7,2.4,2.5c0.4-0.7,0.9-1.3,1.5-2C7.1,9.3,5.8,9.1,4.5,9.4z M14.1,2.9c-0.7,1.1-1,2.4-0.9,3.7 c0.8-0.3,1.6-0.5,2.4-0.6C15.2,4.9,14.7,3.8,14.1,2.9z" />
</svg>