<!-- (c) Carrd Inc. All rights reserved. All logos and trademarks are property of their respective owners. -->
<svg xmlns="http://www.w3.org/2000/svg" id="icon">
<path d="M37,36.7c-0.4,0.4-0.8,0.6-1.4,0.6c-1.1,0-2.2,0-3.2,0c-2.1,0-4.2,0-6.3,0c-0.1,0-0.2,0-0.3,0 c0-0.2,0.9-5.4,1-5.6c0.1,0,0.1,0,0.2,0c0.8,0,1.6,0,2.4,0c0.7,0,1.2-0.3,1.6-1c0.3-0.5,0.4-1,0.5-1.6c0-0.2,0.1-0.5,0.1-0.7 c0-0.2,0-0.3-0.1-0.5c-0.1-0.5-0.5-0.8-1-0.8c-0.6,0-1.2,0-1.7,0c-0.3,0-0.6,0-0.8,0c-0.1,0-0.1,0-0.2,0c0-0.1,0-0.2,0-0.3 c0.2-0.8,0.3-1.7,0.5-2.5c0.1-0.6,0.4-1.2,0.7-1.8c0.5-0.8,1.3-1.4,2.3-1.6c0.4-0.1,0.8-0.1,1.1-0.1c0.4,0,0.8,0,1.2,0 c0.3,0,0.6-0.1,0.9-0.2c0.3-0.2,0.5-0.4,0.5-0.8c0-0.4-0.1-0.8-0.1-1.1c-0.1-0.4-0.2-0.8-0.3-1.2c0-0.1-0.1-0.3-0.2-0.4 c-0.2-0.4-0.5-0.6-0.9-0.7c-0.4-0.1-0.7-0.2-1.1-0.2c-1.4,0-2.8,0.1-4.1,0.6c-1.2,0.4-2.3,1-3.2,1.9c-1.2,1.1-2.1,2.4-2.6,3.9 c-0.3,0.8-0.5,1.6-0.6,2.4c-0.1,0.6-0.2,1.3-0.4,1.9c0,0.2,0,0.2-0.2,0.2c-0.9,0-1.7,0-2.6,0c-0.9,0-1.8,0-2.7,0c-0.3,0-0.6,0-1,0.1 c-0.5,0.1-1,0.1-1.6,0.2c-0.5,0-0.9,0.1-1.4,0.1c-0.5,0.1-1,0.1-1.4,0.2c-0.2,0-0.4,0-0.6,0.1c0,0,0,0,0,0c0.1,0,0.2,0,0.3,0.1 c0.9,0.1,1.8,0.3,2.8,0.4c0.7,0.1,1.3,0.2,2,0.3c0.1,0,0.2,0,0.2,0.2c0.1,0.2,0.1,0.4,0.2,0.6c-1.1,0.1-2.2,0.2-3.2,0.3c0,0,0,0,0,0 c0.1,0,0.3,0,0.4,0.1c0.9,0.1,1.8,0.3,2.7,0.4c0.3,0,0.3,0,0.3,0.3c0,0.1,0,0.2,0.1,0.3c-3.4,0.2-6.7,0.4-10.1,0.5c0,0,0,0,0,0 c0,0,0,0,0,0c0.5,0,1.1,0,1.6,0.1c0.6,0,1.1,0,1.7,0.1c0.6,0,1.2,0,1.8,0.1c0.9,0,1.7,0.1,2.6,0.1c0.7,0,1.4,0,2,0.1 c1.7,0.1,3.3,0,5,0c0,0,0.1,0,0.2,0c0,0.2-0.1,0.5-0.1,0.7c-0.2,0.9-0.3,1.9-0.5,2.8c-0.1,0.7-0.2,1.4-0.4,2c0,0.1,0,0.1-0.1,0.1 c-0.1,0-0.1,0-0.2,0c-4.8,0-9.6,0-14.5,0c-0.3,0-0.6,0-0.9-0.2c-0.6-0.3-1-0.8-1.1-1.4c0-0.1,0-0.1,0-0.2c0-8.9,0-17.9,0-26.8 c0-0.1,0-0.1,0-0.2c11.7,0,23.3,0,35,0c0,0.1,0,0.2,0,0.3c0,3.7,0,7.5,0,11.2c0,5,0,10,0,15c0,0.1,0,0.3,0,0.4 C37.5,35.9,37.3,36.3,37,36.7z M28,10.1c-0.1-0.4-0.3-0.6-0.7-0.6c-0.2,0-0.4,0.1-0.4,0.3c0,0.1-0.1,0.3,0,0.4c0,0.4,0,0.8-0.1,1.2 c-0.1,0.6-0.4,1.2-0.7,1.7c-0.3,0.5-0.7,0.9-1.1,1.2c-0.6,0.5-1.3,0.9-2.1,1.1c-0.7,0.2-1.4,0.3-2.1,0.4c-0.7,0-1.4,0-2.1-0.1 c-1.1-0.2-2.1-0.6-3-1.2c-0.6-0.4-1.1-0.9-1.6-1.5c-0.5-0.6-0.8-1.2-0.9-2c-0.1-0.4-0.1-0.8-0.1-1.2c0-0.2-0.1-0.3-0.2-0.3 c-0.1-0.1-0.2-0.1-0.3-0.1c-0.1,0-0.3,0-0.4,0.1C12.1,9.7,12,9.9,12,10.1c0,0.4,0,0.8,0.1,1.3c0.2,1.2,0.8,2.2,1.6,3.1 c0.2,0.2,0.5,0.5,0.7,0.7c0.5,0.4,1,0.7,1.5,1c0.5,0.3,1.1,0.5,1.6,0.6c0.8,0.2,1.7,0.3,2.6,0.3c0.4,0,0.9-0.1,1.3-0.1 c0.8-0.1,1.6-0.3,2.4-0.6c0.5-0.2,1-0.5,1.5-0.8c0.3-0.2,0.7-0.5,0.9-0.8c0.2-0.2,0.3-0.3,0.5-0.5c0.3-0.5,0.6-0.9,0.8-1.5 c0.2-0.5,0.3-1,0.4-1.5c0-0.2,0.1-0.5,0.1-0.7C28.1,10.4,28,10.2,28,10.1z M33.1,7.9c0-1,0-2.1,0-3.1c0.1,0.1,0.2,0.1,0.2,0.1 c0.6,0.4,1.2,0.8,1.8,1.2c0.7,0.5,1.4,1,2.1,1.4c0.1,0.1,0.2,0.2,0.1,0.4C36,7.9,34.5,7.9,33.1,7.9z M33.5,4.2 c0.4-0.2,0.9-0.3,1.3-0.5c0,0,0,0,0,0c0,0.6,0,1.2,0,1.8c-0.6-0.4-1.1-0.7-1.6-1.1C33.3,4.4,33.4,4.3,33.5,4.2z M33.5,4 c-0.3,0.1-0.5,0.3-0.6,0.5c-0.1,0.2-0.1,0.4-0.1,0.6c-0.1,0.9,0,1.8,0,2.6c0,0.1,0,0.1,0,0.2c-8.5,0-17.1,0-25.6,0 c0-0.1,0-0.1,0-0.2c0-0.6,0-1.2,0-1.8c0-0.4,0-0.8-0.1-1.1C7,4.4,6.8,4.1,6.4,4C6.1,3.8,5.7,3.7,5.3,3.6c-0.1,0-0.1,0-0.2-0.1 c0.1,0,0.2-0.1,0.3-0.1C6,3.1,6.7,2.9,7.3,2.7c0,0,0,0,0,0c0,0,0.1,0,0.1,0c8.3,0,16.7,0,25,0c0,0,0,0,0.1,0 c0.4,0.1,0.8,0.3,1.2,0.4c0.3,0.1,0.7,0.3,1,0.4c-0.1,0-0.1,0-0.1,0.1C34.3,3.7,33.9,3.8,33.5,4z M12.8,4.4c-0.5,0-0.9,0.3-0.9,0.9 c0,0.6,0.5,0.9,0.9,0.9c0.5,0,0.9-0.4,0.9-0.9C13.7,4.8,13.2,4.4,12.8,4.4z M27.2,4.4c-0.5,0-0.9,0.4-0.9,0.9c0,0.5,0.4,0.9,0.9,0.9 c0.4,0,0.9-0.3,0.9-0.9C28.1,4.7,27.7,4.4,27.2,4.4z M6.4,4.2c0.1,0.1,0.3,0.1,0.3,0.3C6.2,4.9,5.6,5.2,5.1,5.6c0-0.6,0-1.2,0-1.8 c0,0,0.1,0,0.1,0C5.6,3.9,6,4.1,6.4,4.2z M6.8,4.8c0,0.1,0.1,2.7,0,3.1c-0.1,0-3.8,0.1-4.3,0c0-0.2,0-0.3,0.1-0.3 C3,7.3,3.4,7,3.8,6.8C4.7,6.2,5.6,5.6,6.5,5C6.6,4.9,6.7,4.8,6.8,4.8z"/>
</svg>