<!-- (c) Carrd Inc. All rights reserved. All logos and trademarks are property of their respective owners. -->
<svg xmlns="http://www.w3.org/2000/svg" id="icon">
<path d="M36.1,3.9c0,0-0.3,2.3-0.9,4.5c-0.7,2.2-1.5,3.6-1.5,3.6s-0.8-2.5-2.4-4.3c-1.6-1.8-3.5-2.8-3.5-2.8 s1.7-0.6,3.4-1.1C32.9,3.4,35.2,3,35.2,3C35.8,2.9,36.2,3.3,36.1,3.9z M32.6,18.1v8.4c0,3.5-1.2,6.4-3.7,8.8 c-2.5,2.4-5.4,3.6-8.9,3.6h-4.1c-1.2,0-2.2-0.4-3-1.2c-0.8-0.8-1.3-1.8-1.3-3c0-1.2,0.4-2.1,1.2-3c0.8-0.8,1.8-1.2,3-1.2h4.1 c1.2,0,2.1-0.4,3-1.2c0.8-0.8,1.2-1.8,1.2-2.9v-8.4c0-1.2-0.4-2.1-1.2-2.9C22,14.4,21.1,14,19.9,14c-1.2,0-2.2,0.4-3,1.2 c-0.8,0.8-1.2,1.8-1.2,2.9c0,0.8,0.4,1.7,1.1,2.8c0.7,1,1.1,1.9,1.1,2.8c0,1.2-0.4,2.1-1.2,3c-0.8,0.8-1.8,1.2-3,1.2 c-1.9,0-3.5-1.2-4.8-3.6c-1.1-2-1.6-4-1.6-6.1c0-3.5,1.2-6.4,3.7-8.9c2.5-2.4,5.4-3.7,8.9-3.7c3.5,0,6.5,1.2,9,3.7 C31.3,11.7,32.6,14.6,32.6,18.1z M6.3,12c0,0-0.8-1.4-1.5-3.6C4.2,6.2,3.9,3.9,3.9,3.9c-0.1-0.6,0.3-1,1-0.9c0,0,2.2,0.4,3.9,0.8 c1.7,0.4,3.4,1.1,3.4,1.1S10.3,6,8.7,7.8C7.1,9.5,6.3,12,6.3,12z"/>
</svg>