<!-- (c) Carrd Inc. All rights reserved. All logos and trademarks are property of their respective owners. -->
<svg xmlns="http://www.w3.org/2000/svg" id="icon">
<path d="M25.2,10.7c0,0.2,0,0.3,0,0.5c-0.1,1-0.5,1.7-1.1,2.3c-0.7,0.6-1.5,1-2.4,1c-0.9,0-1.8-0.3-2.5-1c-1.4-1.3-1.5-3.6-0.2-5 c0.1-0.1,0.1-0.1,0.2-0.2c0.6-0.6,1.3-0.9,2.3-1c1-0.1,1.9,0.3,2.6,0.9C24.7,8.9,25.1,9.8,25.2,10.7z M39.3,22.8l-1.1,2 c-0.3,0.6-0.5,1.2-0.6,1.9L37.3,29c-0.3,2-1.5,3.7-3.3,4.6l-2,1c-0.6,0.3-1.2,0.7-1.6,1.2l-1.6,1.6c-1.4,1.4-3.4,2.1-5.4,1.8 L21,38.8c-0.7-0.1-1.3-0.1-2,0l-2.3,0.4c-2,0.3-4-0.3-5.4-1.8l-1.6-1.6c-0.5-0.5-1-0.9-1.6-1.2l-2-1C4.3,32.7,3,31,2.7,29l-0.4-2.3 c-0.1-0.7-0.3-1.3-0.6-1.9l-1.1-2c-0.9-1.8-0.9-3.9,0-5.7l1.1-2c0.3-0.6,0.5-1.2,0.6-1.9L2.7,11C3,9,4.3,7.3,6.1,6.4l2-1 C8.7,5,9.2,4.6,9.7,4.2l1.6-1.6c1.4-1.4,3.4-2.1,5.4-1.8L19,1.2c0.7,0.1,1.3,0.1,2,0l2.3-0.4c2-0.3,4,0.3,5.4,1.8l1.6,1.6 c0.5,0.5,1,0.9,1.6,1.2l2,1c1.8,0.9,3,2.6,3.3,4.6l0.4,2.3c0.1,0.7,0.3,1.3,0.6,1.9l1.1,2C40.2,18.9,40.2,21,39.3,22.8z M27.2,10.6 c0-0.8-0.2-1.5-0.6-2.2c-1-2-3.1-3.2-5.4-3c-0.2,0-0.4,0-0.6,0.1c-1.2,0.2-2.3,0.8-3.1,1.8c-1,1.1-1.5,2.6-1.4,4.1 c0.1,1.5,0.8,2.9,1.8,3.7c0.7,0.6,1.7,1.2,2.8,1.4c2.2,0.3,3.9-0.5,5-1.8C26.8,13.5,27.3,12.1,27.2,10.6z M10.9,21.9 c0.4-0.2,0.8-0.5,1.2-0.7c-0.1-1.6-0.3-3.3-0.4-4.8c1.6-0.7,2.8-2,3.3-3.9c0.4-1.5,0.2-3.3-0.5-4.3c-0.3-0.4-0.6-0.6-1-0.8 c-0.7-0.3-1.5-0.1-2,0.2c-0.3,0.1-0.6,0.3-0.9,0.5c-0.5,0.4-1,0.8-1.5,1.3c0.5,4.1,1,8.5,1.4,12.8C10.7,22,10.8,22,10.9,21.9z M11.2,10c0-0.1,0.3-0.3,0.4-0.4c0.2-0.2,0.4-0.2,0.7-0.3c0.8,0,1,0.6,1,1.4c0,0.4,0,0.8,0,1.2c-0.1,1.3-0.7,2.1-1.7,2.6 c-0.1-0.8-0.1-1.8-0.2-2.7c0-0.4-0.1-0.9-0.2-1.3C11.2,10.2,11.2,10.1,11.2,10L11.2,10z M9.3,20.4c-0.2-0.7-0.4-1.4-0.7-2 c-0.3-0.7-0.5-1.3-0.6-2.1c-0.1-1,0.1-1.9,0.7-2.3c-0.2-0.8-0.4-1.5-0.7-2.3c-1.4,0.7-2.3,2-2.3,4c0,1.2,0.4,2,0.9,2.9 c0.3,0.6,0.5,1.2,0.7,1.8c0.2,0.7,0.4,1.4,0.3,2.1c-0.1,1.3-0.7,2.2-1.4,3c-0.1,0.1-0.3,0.3-0.3,0.3C6,25.9,6,26,6.1,26.1 c0.3,0.6,0.5,1.1,0.8,1.7C6.9,27.8,7,28,7,28c0.1,0,0.2-0.1,0.2-0.2c0.2-0.3,0.5-0.5,0.7-0.8C9.1,25.4,9.8,22.9,9.3,20.4z M13.9,23.2c0.6-1.6,1.1-3.3,1.5-5c0.1-0.5,0.3-1,0.4-1.5c0-0.1,0.1-0.2,0-0.2c-0.7,0.2-1.5,0.4-2.2,0.7c-0.3,2.5-1.1,4.8-1.9,6.9 c-0.9,2.1-1.9,4.1-3,5.9c1.3,1.5,3.1,2.6,4.9,3.5c0.3-0.6,0.7-1.1,1-1.7c-1.2-0.7-2.3-1.4-3.3-2.2C12.3,27.4,13.1,25.3,13.9,23.2 L13.9,23.2z M18.3,18.7c-0.5-0.3-1.1-0.6-1.6-0.8c-1,4-2.4,7.7-3.8,11.4c0.5,0.3,0.9,0.5,1.4,0.8c0.9-1.7,1.4-3.6,2.2-5.5 c0.4-0.9,0.6-1.9,0.9-2.8C17.7,20.8,18,19.8,18.3,18.7L18.3,18.7z M22.3,30.4v-1.7c0-0.4,0-0.8,0-1.5c-1,0.1-2,0.2-3,0.4 c0,0.5,0,1.1-0.1,1.7c0.4,0,1.1-0.1,1.6-0.1c0,0.8,0,1.5,0,2.2c0,0.3,0,0.5,0,0.8c-0.1,0.3-0.4,0.5-0.9,0.5c-0.5-0.1-0.9-0.6-1.2-1 c-0.8-1.5-0.5-4-0.2-5.7c0.2-1.1,0.6-2.2,1.2-3.2c0.6-0.9,1.4-1.7,2.5-2c0-0.5,0-1.1-0.1-1.6c0-0.2,0-0.5-0.1-0.7c0,0,0,0-0.1,0 c-0.7,0.2-1.3,0.6-1.9,1.1c-0.8,0.6-1.5,1.4-2,2.4c-0.2,0.3-0.3,0.6-0.5,1c-0.6,1.3-0.9,2.9-1.1,4.6c-0.1,1.3-0.1,2.5,0.1,3.7 c0.1,0.4,0.2,0.8,0.3,1.1c0.5,1.3,1.4,2.4,3.4,2.1c0.7-0.1,1.3-0.4,2-0.7C22.3,32.6,22.3,31.3,22.3,30.4L22.3,30.4z M28.2,22.9 c-0.1-0.9-0.2-1.9-0.2-2.8c0-1.3,0-2.6,0.1-3.9c0,0,0,0,0,0c-0.5,0.4-1.1,0.8-1.6,1.2c-0.1,0.1-0.2,0.1-0.2,0.2c0,0.1,0,0.2,0,0.3 c0,1.9,0.1,3.9,0.1,5.5C26,23.7,25.5,24,25,24.1c-0.2-1.9-0.3-3.7-0.4-5.7c-0.6,0.2-1.2,0.5-1.8,0.7c0.1,0.9,0.3,1.8,0.3,2.7 c0.2,1.4,0.2,2.7,0.2,4.1c0,0.4,0,0.8,0,1.2c-0.1,0.8,0,1.7-0.1,2.5c-0.1,1.6-0.1,3.3-0.1,4.8c0.3-0.1,0.6-0.3,1-0.5 c0.3-0.1,0.6-0.3,0.9-0.5c0-0.6,0-1.1,0-1.6c0.1-2,0.1-3.6,0-5.4c0.5-0.3,1.1-0.5,1.6-0.7c0.4,2.3,1.1,4.2,1.8,6.3 c0.6-0.4,1.1-1,1.6-1.4c-0.4-1-0.7-2.1-1-3.2C28.7,25.9,28.4,24.4,28.2,22.9L28.2,22.9z M32.5,16.6c0.3-0.1,0.6-0.3,0.9-0.5 c0.3-0.2,0.6-0.3,0.9-0.5c-0.6-1.6-1.3-3.1-2.2-4.3c-0.9-1.2-2-2.4-3.3-3.3c0,0,0,0,0,0c-0.3,0.4-0.6,0.8-0.9,1.2 c-0.1,0.1-0.3,0.4-0.2,0.4c0.1,0.1,0.2,0.2,0.3,0.3c0.1,0.1,0.2,0.2,0.3,0.3c0.5,0.5,0.9,1,1.4,1.5c0.1,0.1,0.2,0.3,0.2,0.4 c0,0.2-0.1,0.3-0.1,0.4c-0.2,0.8-0.4,1.6-0.5,2.4c-0.3,1.6-0.4,3.3-0.3,4.9c0.1,1.8,0.5,3.3,0.8,4.9c0.2,0.8,0.4,1.5,0.7,2.2 c0.2,0.5,0.4,1.1,0.7,1.6c0.1,0.2,0.1,0.4,0.3,0.5c0.5-0.6,1-1.2,1.4-1.8c-0.7-1.2-1.2-2.8-1.5-4.4c-0.1-0.5-0.2-1.1-0.3-1.7 c-0.2-2.3-0.3-4.8,0.3-6.9C31.9,15.1,32.3,15.8,32.5,16.6L32.5,16.6z"/>
</svg>