<!-- (c) Carrd Inc. All rights reserved. All logos and trademarks are property of their respective owners. -->
<svg xmlns="http://www.w3.org/2000/svg" id="icon">
<path d="M38.5,27.1c0,2.3-1.2,4.1-3.2,5.3c-1.1,0.6-2.3,0.9-3.6,0.9c-2.6,0-5.2,0-7.8,0c-0.4,0-0.5,0.1-0.6,0.4 c-0.9,1.5-1.7,3-2.6,4.4c-0.4,0.7-1.1,0.6-1.5,0c-0.9-1.5-1.7-3-2.5-4.3c-0.1-0.2-0.4-0.4-0.7-0.4c-2.6,0-5.3,0-7.9,0 c-1.8,0-3.6-0.6-4.9-2.1c-1.1-1.2-1.7-2.6-1.7-4.2c0-5.2,0-10.2,0-15.4c0-3,2.3-5.7,5.2-6.2c0.4,0,0.7-0.1,1.1-0.1 c4.1,0,8.1,0,12.2,0s8.1,0,12.2,0c3,0,5.8,2.5,6.2,5.2c0,0.4,0.1,0.7,0.1,1.1C38.5,16.9,38.5,22.1,38.5,27.1z M12.7,17.6 c-0.5-0.6-1.1-1-1.8-1.1c-1-0.1-1.8,0-2.6,0.7c0-1,0-2,0-2.8c-0.6,0-1.4,0-2,0c0,3.1,0,6,0,9c0.6,0,1.4,0,2,0c0-0.2,0-0.4,0-0.6 c1.4,1.2,3.1,1,4.2-0.1C13.8,21.4,14,19.2,12.7,17.6z M16.4,15.5c-0.4-0.7-1.8-1.6-2.6-1.4c0,0.5,0,1.1,0,1.7 c0.9,0.4,1.1,0.6,1.1,1.6c0,1.2,0,2.5,0,3.7c0,0.7,0,1.5,0,2.2c0.7,0,1.4,0,2,0c0-0.1,0-0.1,0-0.1c0-2,0-3.9,0-5.9 C16.9,16.6,16.8,16,16.4,15.5z M22,16.4c-2.2,0-3.7,1.7-3.7,3.6c0,2.1,1.6,3.7,3.7,3.7c2,0,3.6-1.5,3.6-3.6S23.7,16.4,22,16.4z M33.7,17.1c0-0.2,0-0.4,0-0.5c-0.6,0-1.2,0-1.8,0c0,0.2,0,0.4,0,0.6c-1.6-1.5-3.6-0.9-4.4,0.2c-1.1,1.2-1.1,3.5,0,4.7 c0.9,1.1,3,1.7,4.4,0.4c0.2,1.4-0.2,2-1.5,2.1c0,0.6,0,1.1,0,1.7c0.2,0,0.5-0.1,0.7-0.1c1.5-0.2,2.7-1.2,2.7-3 C33.7,21.2,33.7,19.2,33.7,17.1z M30.1,21.6c-1.1,0-1.7-0.6-1.7-1.7c-0.1-1,0.9-1.8,1.8-1.7c1.1,0,1.8,0.7,1.8,1.7 C32,20.8,31.2,21.6,30.1,21.6z M21.8,21.8c-1,0-1.7-0.7-1.7-1.8s0.7-1.7,1.7-1.7s1.7,0.9,1.7,1.8C23.6,20.9,22.7,21.8,21.8,21.8z M9.9,21.8C8.8,21.8,8,21.1,8,20c0-1,0.9-2,1.8-1.8c1,0.1,1.8,0.6,1.7,1.8C11.6,21.1,11,21.8,9.9,21.8z"/>
</svg>