<!-- (c) Carrd Inc. All rights reserved. All logos and trademarks are property of their respective owners. -->
<svg xmlns="http://www.w3.org/2000/svg" id="icon">
<path d="M34.4,11c-0.4,0.3-0.8,0.6-1.2,0.8c-0.7,0.5-1.5,0.9-2.2,1.4c-0.8,0.5-1.7,1-2.5,1.6c-0.4,0.2-0.8,0.5-1.2,0.7 c-0.2,0.1-0.5,0.2-0.6,0.2c-0.4,0-0.7-0.1-0.9-0.3c-0.3-0.3-0.5-0.5-0.8-0.8c-0.3-0.3-0.4-0.8-0.2-1.3c0.3-0.8,0.9-1.6,1.4-2.3 c0.4-0.6,0.8-1.3,1.2-1.9c0.4-0.6,0.7-1.1,1.1-1.7c0.2-0.3,0.4-0.7,0.7-1c0.2-0.3,0.4-0.5,0.7-0.7c0.5-0.3,1-0.2,1.5,0.2 c0.9,0.8,1.7,1.6,2.5,2.5c0.3,0.3,0.5,0.6,0.8,0.8c0.1,0.1,0.2,0.3,0.3,0.5C35.1,10.3,34.8,10.7,34.4,11z M25,25.5 c0.3-0.3,0.6-0.6,0.9-0.9c0.4-0.4,0.9-0.4,1.3-0.1c0.8,0.4,1.6,0.9,2.3,1.4c0.7,0.4,1.4,0.9,2.1,1.3c0.5,0.3,0.9,0.6,1.4,0.9 c0.4,0.3,0.8,0.5,1.2,0.8c0.3,0.2,0.6,0.5,0.7,0.9c0.1,0.5,0,0.9-0.4,1.2c-0.9,0.9-1.7,1.7-2.6,2.6c-0.3,0.3-0.6,0.5-0.9,0.7 c-0.2,0.1-0.4,0.2-0.6,0.2c-0.3,0-0.5-0.1-0.7-0.3c-0.4-0.3-0.6-0.7-0.9-1.1c-0.5-0.7-1-1.5-1.5-2.3c-0.5-0.7-1-1.5-1.4-2.2 c-0.3-0.5-0.6-0.9-0.9-1.4c-0.2-0.4-0.4-0.8-0.3-1.2C24.8,25.8,24.9,25.6,25,25.5z M23.3,6c-0.1,0.4-0.2,0.8-0.3,1.2 c0,0.2-0.1,0.4-0.1,0.6c-0.1,0.6-0.2,1.2-0.3,1.7c-0.1,0.4-0.2,0.8-0.3,1.2c-0.1,0.4-0.1,0.7-0.2,1.1c-0.1,0.5-0.3,1-0.7,1.3 c-0.2,0.1-0.3,0.2-0.5,0.2c-0.4,0-0.7,0-1.1,0c-0.5,0-0.8-0.3-1-0.6c-0.2-0.3-0.2-0.7-0.3-1c-0.1-0.4-0.2-0.7-0.3-1.1 c-0.1-0.4-0.2-0.8-0.2-1.2c-0.1-0.4-0.2-0.8-0.3-1.2c0-0.2-0.1-0.4-0.1-0.6c-0.1-0.6-0.2-1.2-0.3-1.7C17.1,5.4,17,5,16.9,4.6 c-0.1-0.4-0.1-0.8-0.1-1.3c0-0.4,0.3-0.8,0.8-0.9c0.3-0.1,0.6-0.1,0.9-0.1c0.7,0,1.4,0,2,0c0,0,0,0,0,0c0.7,0,1.4,0,2.1,0 c0.7,0,1.2,0.5,1.2,1.2c0,0.4-0.1,0.8-0.2,1.3C23.5,5.2,23.4,5.6,23.3,6z M14.7,15.5c-0.3,0.3-0.7,0.2-1,0.1c-0.6-0.3-1.2-0.6-1.8-1 c-0.6-0.4-1.2-0.8-1.8-1.1c-0.9-0.6-1.7-1.1-2.6-1.7c-0.3-0.2-0.6-0.4-0.9-0.6C6.3,11,6,10.7,5.8,10.4C5.7,10,5.8,9.7,5.9,9.5 C6.1,9.2,6.3,9,6.5,8.8C7.4,7.8,8.3,6.9,9.2,6C9.5,5.8,9.7,5.6,10,5.6c0.4-0.1,0.8,0,1.1,0.3c0.3,0.3,0.6,0.7,0.8,1 c0.3,0.5,0.6,0.9,0.9,1.4c0.7,1.1,1.4,2.2,2.1,3.3c0.3,0.5,0.6,1,0.9,1.6c0.1,0.2,0.1,0.4,0.2,0.7c-0.1,0.2-0.1,0.4-0.2,0.5 C15.5,14.8,15.1,15.1,14.7,15.5z M7.7,17.1c0.4,0.1,0.8,0.2,1.2,0.3c0.4,0.1,0.7,0.2,1.1,0.2c0.4,0.1,0.8,0.2,1.2,0.3 c0.4,0.1,0.7,0.2,1,0.4c0.4,0.2,0.7,0.5,0.7,0.9c0,0.4,0,0.8,0,1.2c0,0.5-0.4,0.8-0.8,1c-0.4,0.1-0.8,0.2-1.2,0.3 c-0.5,0.1-1.1,0.3-1.6,0.4c-0.4,0.1-0.8,0.2-1.2,0.2c-0.4,0.1-0.8,0.2-1.2,0.3c-0.2,0.1-0.5,0.1-0.7,0.1c-0.2,0-0.4,0.1-0.6,0.1 C5,23,4.5,23.1,3.9,23.2c-0.5,0.1-1,0.1-1.4-0.2c-0.2-0.2-0.4-0.4-0.4-0.7C2.1,22,2,21.6,2,21.2c0-0.5,0-0.9,0-1.4c0-0.7,0-1.3,0-2 c0-0.4,0.1-0.7,0.3-1c0.3-0.5,0.9-0.6,1.4-0.5c0.5,0.1,1,0.2,1.6,0.3c0.4,0.1,0.8,0.2,1.2,0.3C6.9,16.9,7.3,17,7.7,17.1z M7.4,28.3 c0.9-0.6,1.8-1.1,2.7-1.7c0.8-0.5,1.7-1.1,2.5-1.6c0.3-0.2,0.6-0.4,1-0.5c0.6-0.2,0.9-0.3,1.5,0.2c0.2,0.2,0.5,0.5,0.7,0.7 c0.2,0.2,0.3,0.4,0.3,0.6c0,0.5-0.2,0.8-0.4,1.1c-0.6,1-1.3,2-1.9,3.1c-0.5,0.7-1,1.5-1.5,2.2c-0.3,0.4-0.6,0.9-0.9,1.3 c-0.2,0.3-0.5,0.6-0.9,0.6c-0.4,0.1-0.7-0.1-1-0.3c-0.3-0.3-0.6-0.5-0.9-0.8c-0.7-0.7-1.5-1.4-2.2-2.2c-0.2-0.2-0.4-0.5-0.5-0.7 c-0.3-0.4-0.2-0.8,0.1-1.2C6.4,28.9,6.9,28.6,7.4,28.3z M16.9,35.2c0.1-0.4,0.2-0.8,0.2-1.2c0.1-0.4,0.2-0.8,0.3-1.2 c0.1-0.4,0.2-0.8,0.2-1.2c0.1-0.4,0.2-0.9,0.3-1.3c0.1-0.4,0.2-0.7,0.2-1.1c0.1-0.6,0.2-1.2,0.5-1.8c0.2-0.4,0.5-0.6,1-0.6 c0.3,0,0.7,0,1,0c0.5,0,0.8,0.3,1,0.6c0.2,0.4,0.3,0.9,0.4,1.4c0.1,0.4,0.2,0.8,0.3,1.2c0.1,0.4,0.2,0.8,0.2,1.2 c0.1,0.4,0.2,0.9,0.3,1.3c0,0.2,0.1,0.5,0.1,0.7c0.1,0.4,0.2,0.8,0.3,1.3c0.1,0.7,0.4,1.4,0.4,2.2c0,0.5-0.3,0.9-0.8,1.1 c-0.3,0.1-0.5,0.1-0.8,0.1c-0.7,0-1.4,0-2,0c0,0,0,0,0,0c-0.7,0-1.4,0-2.2,0c-0.7,0-1.2-0.5-1.2-1.2C16.8,36,16.9,35.6,16.9,35.2z"/>
</svg>