<!-- (c) Carrd Inc. All rights reserved. All logos and trademarks are property of their respective owners. -->
<svg xmlns="http://www.w3.org/2000/svg" id="icon">
<path d="M39.6,26.5c0.5,0.7,0.4,1.6-0.2,2.1c-0.7,0.5-1.7,0.4-2.2-0.2l-3.5-4.6l-3.4,4.5c-0.5,0.7-1.5,0.7-2.2,0.2s-0.8-1.4-0.3-2.1 l4-5.3l-4-5.3c-0.5-0.7-0.3-1.7,0.3-2.2c0.7-0.5,1.7-0.3,2.2,0.3l3.4,4.6l3.5-4.4c0.5-0.7,1.4-0.8,2.2-0.3c0.7,0.5,0.7,1.5,0.2,2.2 l-3.9,5.2L39.6,26.5z M21.5,25.9c-2.6,0-4.7-2-4.7-4.7c0-2.5,2.1-4.7,4.7-4.7s4.7,2.1,4.7,4.7C26.1,23.9,24,25.9,21.5,25.9z M7.7,25.9c-2.6,0-4.7-2-4.7-4.7c0-2.5,2.1-4.7,4.7-4.7s4.7,2.1,4.7,4.7C12.4,23.9,10.3,25.9,7.7,25.9z M21.5,13.5 c-2.9,0-5.5,1.6-6.8,4c-1.3-2.4-3.9-4-6.9-4c-1.8,0-3.4,0.6-4.7,1.5V8.5C3.1,7.7,2.4,7,1.6,7C0.7,7.1,0,7.8,0,8.6v12.8 C0.1,25.7,3.5,29,7.7,29c3,0,5.6-1.7,6.9-4.2c1.3,2.4,3.9,4.2,6.8,4.2c4.3,0,7.8-3.4,7.8-7.8C29.3,17,25.8,13.5,21.5,13.5z"/>
</svg>