<!-- (c) Carrd Inc. All rights reserved. All logos and trademarks are property of their respective owners. -->
<svg xmlns="http://www.w3.org/2000/svg" id="icon">
<path d="M32,20.4c-4,2.4-8,4.7-12,7.1c-0.1,0-0.1,0-0.1,0c-3.6-2.1-7.2-4.3-10.8-6.4c-0.4-0.2-0.8-0.5-1.2-0.7 c0,0,0,0,0,0c0,0,0,0,0.1-0.1c1.7-2.9,3.5-5.8,5.2-8.7c2.2-3.6,4.3-7.2,6.5-10.8c0.1-0.2,0.2-0.4,0.3-0.5c0,0,0,0,0,0.1 c1.2,1.9,2.3,3.9,3.5,5.8c2.8,4.7,5.7,9.4,8.5,14.1C32.1,20.3,32.1,20.3,32,20.4C32.1,20.3,32.1,20.3,32,20.4 C32.1,20.3,32.1,20.4,32,20.4z M8.6,23c2.4,1.4,4.8,2.9,7.3,4.3c1.4,0.8,2.7,1.6,4.1,2.4c0.1,0,0.1,0,0.2,0c4-2.4,8-4.7,12-7.1 c0,0,0,0,0,0C28.1,28.3,24,34,20,39.7c-4-5.7-8.1-11.4-12.1-17c0,0,0,0,0,0C8.1,22.8,8.4,22.9,8.6,23z" />
</svg>