<!-- (c) Carrd Inc. All rights reserved. All logos and trademarks are property of their respective owners. -->
<svg xmlns="http://www.w3.org/2000/svg" id="icon">
<path d="M14.9,13.1c-0.1,0.1-0.1,0.3,0,0.4l1.4,1.4c0.1,0.1,0.3,0.1,0.3,0c0.9-0.8,2-1.3,3.4-1.3c1.3,0,2.5,0.5,3.4,1.3 c0.1,0.1,0.3,0.1,0.3,0l1.4-1.4c0.1-0.1,0.1-0.3,0-0.4c-1.3-1.3-3.1-2-5.1-2C18.1,11.1,16.3,11.9,14.9,13.1L14.9,13.1z M34,8.2 L24.2,18c-2.3,2.3-6,2.3-8.3,0L6.1,8.2C5.9,8,5.6,8.1,5.6,8.3v17.4c0,0.6,0.4,1.6,0.8,2l9.4,9.5c2.3,2.3,6,2.3,8.3,0l9.5-9.4 c0.4-0.4,0.8-1.4,0.8-2V8.3C34.5,8.1,34.2,8,34,8.2L34,8.2z M27.3,11.3l1.4-1.4c0.1-0.1,0.1-0.3,0-0.4C26.5,7.4,23.4,6,20,6 c-3.4,0-6.4,1.3-8.7,3.5c-0.1,0.1-0.1,0.3,0,0.4l1.4,1.4c0.1,0.1,0.3,0.1,0.3,0c1.8-1.7,4.2-2.7,6.9-2.7c2.7,0,5.1,1.1,6.9,2.7 C27,11.5,27.2,11.4,27.3,11.3L27.3,11.3z M9.2,7.8c0.1,0.1,0.3,0.1,0.3,0c2.7-2.6,6.4-4.2,10.5-4.2c4.1,0,7.8,1.6,10.5,4.2 c0.1,0.1,0.3,0.1,0.3,0l1.4-1.4c0.1-0.1,0.1-0.3,0-0.4c-3.2-3.1-7.5-5-12.2-5c-4.7,0-9,1.9-12.2,5c-0.1,0.1-0.1,0.3,0,0.4L9.2,7.8z"/>
</svg>