<!-- (c) Carrd Inc. All rights reserved. All logos and trademarks are property of their respective owners. -->
<svg xmlns="http://www.w3.org/2000/svg" id="icon">
<path d="M40,18.3c0,0.1-0.1,0.2-0.1,0.3c-0.2,1.2-0.4,2.4-0.6,3.6c-0.5,3.3-1.1,6.5-1.6,9.8c-0.1,0.3-0.2,0.5-0.5,0.6 c-5.3,2.4-10.6,4.8-15.9,7.3c-0.2,0.1-0.3,0.2-0.4,0.3c0,0-0.1,0-0.1,0c0-0.2,0-0.3,0-0.5c0-1.6,0-3.1,0-4.7c0-0.1,0-0.3,0-0.4 c-4.9,0.7-9.7,1.4-14.5,2.2c-0.1-0.2-0.1-0.3-0.1-0.4c-1.8-5.4-3.5-10.9-5.3-16.3c-0.2-0.7-0.5-1.5-0.8-2.2c0,0,0-0.1,0-0.1 c2,0,4,0,6.1,0c-0.9-3.5-1.9-7-2.8-10.5C3.4,7,3.6,7,3.7,7c3.8-0.6,7.6-1.2,11.4-1.8c3.2-0.5,6.4-1,9.7-1.5c2.8-0.4,5.6-0.9,8.4-1.3 c0.9-0.1,1.9-0.3,2.8-0.5c0.1,0,0.1,0,0.2,0c-0.2,1.7-0.3,3.5-0.5,5.2c-0.2,2.7-0.5,5.4-0.7,8.2c-0.1,0.9-0.2,1.8-0.2,2.8 c1.8,0,3.5,0,5.3,0C40,18.2,40,18.2,40,18.3z M16.8,28.9c2.4,0,4.1-1.7,4.1-4c0-2.2-1.6-4-3.8-4c-2.6,0-4.2,1.5-4.2,4 C12.9,27.2,14.5,28.9,16.8,28.9z M5.8,20.9c0,0.7,0,1.3,0,2c0.8,0,1.6,0,2.4,0c0,0.3,0,0.4,0,0.6c0,1.7,0,3.5,0,5.2 c0,0.4,0.1,0.5,0.5,0.4c0.5-0.1,1-0.1,1.5-0.1c0.3,0,0.4-0.2,0.4-0.5c0-1.7,0-3.4-0.1-5.1c0-0.2,0-0.3,0-0.5c0.8,0,1.5,0,2.3,0 c0-0.6,0-1.3,0-1.9c0-0.1-0.2-0.2-0.3-0.2c-0.7,0-1.4-0.1-2-0.1c-1.5,0-2.9-0.1-4.4-0.1C6,20.7,5.8,20.8,5.8,20.9z M17.9,12.3 c-0.4,0-0.8,0.1-1.2,0.1c-0.4,0-0.6,0.2-0.6,0.6c-0.3,1.2-0.6,2.4-0.9,3.7c-0.3-1.3-0.6-2.5-0.9-3.7c-0.1-0.3-0.2-0.5-0.6-0.4 c-0.3,0.1-0.7,0.1-1,0.1c-0.3,0-0.4,0.1-0.5,0.4c-0.3,1.2-0.6,2.3-0.9,3.6c0-0.2-0.1-0.3-0.1-0.4c-0.2-1-0.5-2.1-0.7-3.1 c-0.1-0.3-0.2-0.3-0.4-0.3c-0.4,0-0.7,0.1-1.1,0.1c-0.4,0-0.5,0.1-0.4,0.5c0.5,1.8,0.9,3.7,1.4,5.5c0.1,0.2,0.2,0.3,0.4,0.3 c0.4,0,0.8,0,1.2,0c0.4,0,0.6-0.1,0.7-0.5c0.2-1,0.5-1.9,0.8-2.9c0,0.1,0.1,0.2,0.1,0.2c0.3,1,0.5,2,0.8,3c0,0.1,0.2,0.3,0.3,0.3 c0.5,0,1.1,0.1,1.6,0.1c0.1,0,0.3-0.1,0.3-0.3c0.6-2.2,1.2-4.3,1.8-6.5C18.2,12.4,18.1,12.3,17.9,12.3z M24.1,12.2 c0-0.1-0.2-0.3-0.3-0.3c-1.6,0.1-3.2,0.2-4.7,0.3c-0.3,0-0.4,0.1-0.4,0.4c0,2.2,0,4.3-0.1,6.5c0,0.3,0.1,0.4,0.4,0.4 c1.4,0,2.7,0.1,4.1,0.1c0.9,0,1,0,1-0.9c0-1,0.1-0.9-0.9-1c-0.8,0-1.6,0-2.5,0c0-0.4,0-0.7,0-1c0.1,0,0.2,0,0.3,0c0.8,0,1.6,0,2.4,0 c0.3,0,0.4-0.1,0.4-0.4c0-0.3,0-0.6,0-0.9c0-0.7,0-0.7-0.6-0.7c-0.8,0-1.6,0-2.4,0c0,0,0-0.1,0-0.2c0-0.6,0-0.6,0.6-0.6 c0.8,0,1.6-0.1,2.4-0.1c0.2,0,0.4,0,0.4-0.3C24.1,13.1,24.1,12.6,24.1,12.2z M21.5,24.7c0,2.1,1.5,3.7,3.5,3.7 c2.1,0,3.7-1.6,3.7-3.7c0-2.1-1.5-3.6-3.6-3.6C22.9,21.1,21.5,22.5,21.5,24.7z M31,15.3c0.6-0.7,0.8-1.5,0.5-2.3 c-0.2-0.8-0.8-1.2-1.5-1.3c-0.4-0.1-0.7-0.1-1.1-0.1c-1.2,0.1-2.4,0.2-3.7,0.2c-0.3,0-0.4,0.1-0.4,0.4c0,2.4,0,4.8,0,7.2 c0,0.1,0.2,0.3,0.3,0.3c1.4,0,2.9,0.1,4.3,0.1c1.5-0.1,2.2-0.7,2.4-2c0.1-0.9-0.2-1.7-1.1-2.1C30.8,15.5,30.9,15.4,31,15.3z M35.1,21.3c-0.4,0-0.7,0-1.1,0c-0.6,0-0.6,0-0.6,0.6c0,0.9,0,1.8,0,2.7c0,0-0.1,0-0.1,0c-0.5-0.7-1-1.4-1.4-2.1 c-0.5-1-1.2-1.4-2.2-1.2c-0.3,0-0.4,0.1-0.4,0.4c0,2,0,4-0.1,6c0,0.1,0,0.2,0,0.3c0.6,0,1.2,0,1.8,0c0.1,0,0.2-0.2,0.2-0.3 c0-0.5,0-1.1,0-1.6c0-0.4,0-0.7,0-1.1c0,0,0.1,0,0.1,0c0.1,0.1,0.2,0.2,0.2,0.3c0.4,0.6,0.9,1.1,1.2,1.7c0.4,0.7,0.8,1,1.6,0.8 c0.1,0,0.3,0,0.4,0c0.2,0,0.3-0.1,0.3-0.3c0.1-1.9,0.1-3.8,0.2-5.7C35.4,21.4,35.3,21.3,35.1,21.3z M28.7,18c-0.6,0-1.2,0-1.8,0 c0-0.4,0-0.8,0-1.2c0.6,0,1.2,0,1.8,0c0.3,0,0.5,0.3,0.5,0.6C29.3,17.7,29.1,17.9,28.7,18z M28.6,14.6c-0.5,0.1-1.1,0.1-1.6,0.1 c0-0.5,0-0.8,0-1.3c0.5,0,1.1,0,1.6,0c0.3,0,0.5,0.2,0.5,0.5C29.1,14.3,28.9,14.6,28.6,14.6z M26.7,24.7c0,1-0.7,1.7-1.6,1.7 c-0.9,0-1.5-0.7-1.5-1.8c0-1,0.6-1.7,1.6-1.7C26.1,23,26.7,23.7,26.7,24.7z M17.5,23.1c0.2,0,0.3,0.1,0.5,0.2c0.7,0.4,1,1.6,0.6,2.5 c-0.3,0.8-1.2,1.2-2,1c-0.8-0.2-1.2-0.9-1.2-1.8C15.3,23.5,16.2,22.7,17.5,23.1z"/>
</svg>