<!-- (c) Carrd Inc. All rights reserved. All logos and trademarks are property of their respective owners. -->
<svg xmlns="http://www.w3.org/2000/svg" id="icon">
<path d="M2.5,13.8c0.1-0.5,0.1-1,0.2-1.4C2.8,11,3.3,9.8,3.9,8.6c0.5-1,1.2-1.8,2-2.6c0.1-0.1,0.3-0.2,0.5-0.2c1.3,0,2.6,0,3.9,0 c0.4,0,0.5,0.1,0.5,0.5c0,1.3,0,2.6,0,3.9c0,0.2-0.1,0.4-0.2,0.5c-1.4,1.5-2.4,3.2-2.9,5.2c-0.3,1.3-0.5,2.7-0.3,4.1 c0.1,1,0.3,1.9,0.6,2.8c0,0,0,0.1,0,0.1c0,0.2,0,0.4-0.1,0.5c-0.1,0.1-0.3,0-0.4,0c-0.8-0.5-1.5-1.1-2.1-1.8 c-1.1-1.2-1.9-2.7-2.4-4.3c-0.2-0.8-0.4-1.7-0.4-2.6c0-0.1,0-0.2,0-0.4C2.5,14.1,2.5,13.9,2.5,13.8z M19.1,37.2 c-1.6,0-3.1-0.2-4.6-0.6c-2.7-0.7-5.1-2-7.3-3.8c-0.2-0.2-0.4-0.4-0.7-0.6c-0.2-0.2-0.3-0.3-0.2-0.6c0.1-0.2,0.4-0.2,0.6-0.1 c0.8,0.2,1.6,0.5,2.4,0.7c2,0.5,3.9,0.6,6,0.5c2-0.2,3.9-0.6,5.7-1.3c3.8-1.5,6.8-4,9-7.4c0.9-1.3,1.5-2.7,2.1-4.2 c0.4-1.3,0.7-2.6,0.9-4c0.2-1.3,0.2-2.7,0.1-4c-0.1-1.8-0.5-3.5-1.2-5.2c-0.1-0.2-0.1-0.4,0.1-0.5c0.2-0.1,0.4,0,0.5,0.1 c1.1,1.1,1.9,2.3,2.7,3.7c0.8,1.5,1.4,3,1.8,4.7c0.4,1.7,0.6,3.5,0.5,5.3c-0.2,2.5-0.8,4.9-1.9,7.2c-1.2,2.5-2.9,4.5-5.1,6.2 c-1.6,1.3-3.4,2.3-5.4,2.9c-1.2,0.4-2.5,0.7-3.8,0.9C20.6,37.1,19.8,37.2,19.1,37.2z M21.2,5.8c0.4,0,0.9,0,1.3,0 c0.2,0,0.4,0.1,0.6,0.3c0.9,1.2,1.6,2.5,2,3.9c0.1,0.2,0.1,0.5,0.2,0.7c0.1,0.4,0,0.6-0.5,0.6c-0.3,0-0.6,0-0.9,0 c-0.4,0-0.4,0.1-0.4,0.4c0,1,0,1.9,0,2.9c0,2.1-1.6,4-3.7,4.3c-2.5,0.3-4.6-1.5-4.8-3.8c0-0.3,0.1-0.5,0.4-0.5 c1.6-0.1,3.1-1.3,3.5-2.8c0.1-0.5,0.2-1,0.2-1.6c0-1.3,0-2.5,0-3.8c0-0.4,0.1-0.6,0.5-0.6C20.2,5.8,20.7,5.8,21.2,5.8z"/>
</svg>