<!-- (c) Font Awesome (fontawesome.io, SIL OFL) -->
<svg xmlns="http://www.w3.org/2000/svg" id="icon">
<path d="M34.8,28.8c0,0.4-0.1,0.8-0.2,1.5c-0.1,0.6-0.2,1.1-0.5,1.4c-0.4,0.7-1.2,1.4-2.6,2.2C30.2,34.7,29,35,27.7,35 c-0.4,0-0.7,0-1.1-0.1c-0.4,0-0.7-0.1-1.2-0.2c-0.5-0.1-0.8-0.2-0.9-0.4c-0.2-0.1-0.6-0.2-1.2-0.5c-0.6-0.2-0.9-0.4-1.1-0.4 c-1.4-0.5-2.6-1.1-3.6-1.8c-1.8-1.1-3.6-2.6-5.5-4.4c-1.9-1.9-3.4-3.7-4.4-5.5C8,20.8,7.4,19.5,7,18.2c0-0.1-0.1-0.5-0.4-1.1 C6.4,16.5,6,16.2,6,16c-0.1-0.2-0.2-0.6-0.4-0.9c-0.1-0.5-0.2-0.8-0.2-1.2s-0.1-0.7-0.1-1.1c0-1.3,0.4-2.6,1.1-3.9 c0.8-1.5,1.5-2.5,2.2-2.7C9,6.1,9.4,5.9,10,5.8c0.6-0.1,1.1-0.2,1.5-0.2c0.2,0,0.4,0,0.5,0.1c0.2,0.1,0.6,0.6,1.1,1.5 c0.1,0.2,0.4,0.6,0.6,1.2c0.2,0.5,0.5,0.9,0.7,1.3c0.2,0.4,0.5,0.8,0.7,1.2c0,0,0.1,0.2,0.4,0.5c0.2,0.2,0.4,0.6,0.5,0.7 c0.1,0.2,0.1,0.4,0.1,0.6c0,0.2-0.2,0.6-0.6,1.1c-0.4,0.5-0.8,0.8-1.3,1.2s-0.9,0.7-1.3,1.1c-0.4,0.4-0.6,0.7-0.6,0.9 c0,0.1,0,0.2,0.1,0.5c0.1,0.2,0.1,0.4,0.2,0.5c0,0.1,0.1,0.2,0.4,0.5c0.1,0.2,0.2,0.4,0.2,0.4c1.1,1.9,2.2,3.5,3.6,4.9 c1.4,1.4,3,2.6,4.9,3.6c0,0,0.1,0.1,0.4,0.2c0.2,0.1,0.4,0.2,0.5,0.4c0.1,0,0.2,0.1,0.5,0.2c0.2,0.1,0.4,0.1,0.5,0.1 c0.2,0,0.6-0.2,0.9-0.6c0.4-0.4,0.7-0.8,1.1-1.3c0.4-0.5,0.7-0.9,1.2-1.3c0.5-0.4,0.8-0.6,1.1-0.6c0.2,0,0.4,0,0.6,0.1 c0.2,0.1,0.5,0.2,0.7,0.5c0.4,0.2,0.5,0.4,0.5,0.4c0.4,0.2,0.7,0.5,1.2,0.7c0.4,0.2,0.8,0.5,1.3,0.7c0.5,0.2,0.8,0.5,1.2,0.6 c0.9,0.5,1.5,0.8,1.6,1.1C34.8,28.5,34.8,28.6,34.8,28.8L34.8,28.8z"/>
</svg>