<!-- (c) Carrd Inc. All rights reserved. All logos and trademarks are property of their respective owners. -->
<svg xmlns="http://www.w3.org/2000/svg" id="icon">
<path d="M-181.7,140.1V-99.2c0-45.3,36.5-81.8,81.8-81.8h239.2c45.3,0,81.8,36.5,81.8,81.8V16.7 c0,45.3-36.5,81.8-81.8,81.8H92.8v41.6c0,45.3-36.5,81.8-81.8,81.8H-99.9C-145.2,221.9-181.7,185.4-181.7,140.1z M-55.8-53.9h-104.5 v-46.6c0-32.7,26.4-60.4,60.4-60.4h44.1V-53.9z M139.4,78.4H95.3V-29.9h104.5v47.8C199.8,50.7,173.3,78.4,139.4,78.4z M10.9,201.7 h-44.1v-99.5H71.4v39C71.4,174,44.9,201.7,10.9,201.7z M-33.1,78.4H71.4V-29.9H-33.1V78.4z M95.3-53.9h104.5v-45.3 c0-34-27.7-60.4-60.4-60.4H95.3V-53.9z M71.4-53.9H-33.1v-107H71.4V-53.9z M-161.6,101v39c0,34,27.7,60.4,60.4,60.4h45.3V101H-161.6 z M-55.8,78.4h-105.8V-29.9h105.8V78.4z"/> <path d="M27,26.9c0,0.1,0,0.1,0,0.2c0,1.1,0,2.1,0,3.2c0,3.1-2.1,5.8-5.1,6.5c-0.5,0.1-1.1,0.2-1.6,0.2c-3,0-6,0-9,0 c-3.2,0-5.9-2.2-6.6-5.3c-0.1-0.4-0.1-0.9-0.1-1.4c0-6.5,0-13.1,0-19.6c0-3.2,2.3-6,5.5-6.6C10.4,4,10.8,4,11.2,4 c6.5,0,13.1,0,19.6,0c3.2,0,5.9,2.2,6.6,5.3c0.1,0.4,0.1,0.9,0.1,1.4c0,3.2,0,6.3,0,9.5c0,3.2-2.3,6-5.4,6.6 c-0.4,0.1-0.9,0.1-1.3,0.1c-1.2,0-2.4,0-3.6,0C27.1,26.9,27,26.9,27,26.9z M14.8,25.2c0,0,0-0.1,0-0.1c0-2.9,0-5.7,0-8.6 c0-0.1,0-0.1-0.1-0.1c-2.8,0-5.6,0-8.4,0c0,0-0.1,0-0.1,0c0,3,0,5.9,0,8.9C9,25.2,11.9,25.2,14.8,25.2z M25.2,16.4 c-2.9,0-5.7,0-8.5,0c0,3,0,5.9,0,8.9c2.9,0,5.7,0,8.5,0C25.2,22.3,25.2,19.3,25.2,16.4z M25.2,14.4c0-2.9,0-5.8,0-8.8 c-2.9,0-5.7,0-8.5,0c0,2.9,0,5.8,0,8.8C19.5,14.4,22.4,14.4,25.2,14.4z M35.7,16.4c0,0-0.1,0-0.1,0c-2.8,0-5.5,0-8.3,0 c-0.1,0-0.1,0-0.1,0.1c0,2.9,0,5.7,0,8.6c0,0,0,0.1,0,0.1c0,0,0.1,0,0.1,0c1.2,0,2.3,0,3.5,0c0.3,0,0.7,0,1-0.1 c2.2-0.4,3.9-2.4,4-4.6C35.8,19.2,35.7,17.8,35.7,16.4C35.7,16.4,35.7,16.4,35.7,16.4z M14.8,14.4c0,0,0-0.1,0-0.1 c0-2.8,0-5.7,0-8.5c0-0.1,0-0.1-0.1-0.1c-1.1,0-2.3,0-3.4,0c-0.3,0-0.6,0-0.9,0.1C8,6.1,6.3,8.2,6.3,10.6c0,1.2,0,2.4,0,3.7 c0,0,0,0.1,0,0.1C9.1,14.4,12,14.4,14.8,14.4z M27.2,5.8c0,2.9,0,5.8,0,8.7c2.9,0,5.7,0,8.5,0c0,0,0-0.1,0-0.1c0-1.2,0-2.4,0-3.6 c0-0.3,0-0.6-0.1-0.9c-0.5-2.4-2.5-4-4.9-4c-1.1,0-2.3,0-3.4,0C27.3,5.8,27.2,5.8,27.2,5.8z M14.8,27.1c-2.9,0-5.8,0-8.6,0 c0,0,0,0.1,0,0.1c0,1,0,2.1,0,3.1c0,0.3,0,0.6,0.1,1c0.5,2.3,2.5,4,4.9,4c1.2,0,2.4,0,3.6,0c0,0,0.1,0,0.1,0 C14.8,32.5,14.8,29.8,14.8,27.1z M16.7,27.2c0,2.7,0,5.4,0,8.1c0,0,0.1,0,0.1,0c1.2,0,2.3,0,3.5,0c0.3,0,0.6,0,0.9-0.1 c2.4-0.4,4.1-2.5,4.1-4.9c0-1,0-2,0-3c0,0,0-0.1,0-0.1C22.4,27.2,19.5,27.2,16.7,27.2z"/>
</svg>