<!-- (c) Carrd Inc. All rights reserved. All logos and trademarks are property of their respective owners. -->
<svg xmlns="http://www.w3.org/2000/svg" id="icon">
<path d="M40,21c0,3.5-0.9,7-2.7,10c-0.3,0.4-0.8,0.6-1.2,0.3l-1.8-1.1c-0.4-0.3-0.6-0.8-0.3-1.2l0,0 c1.4-2.4,2.2-5.2,2.2-8c0-1.6-0.2-3.2-0.7-4.7l0,0c-0.1-0.5,0.1-1,0.6-1.1l2.1-0.6c0.5-0.1,1,0.1,1.1,0.6c0,0,0,0,0,0c0,0,0,0,0,0h0 C39.7,17.1,40,19.1,40,21z M30.6,31.1c-0.3,0.4-0.9,0.4-1.3,0l-1.6-1.5c-0.4-0.3-0.4-0.9,0-1.3l0,0c1.8-2,2.9-4.6,2.9-7.3 c0-5.9-4.7-10.6-10.6-10.6c-5.8,0-10.6,4.8-10.6,10.6c0,2.7,1,5.3,2.9,7.3l0,0c0.3,0.4,0.3,0.9,0,1.3l-1.6,1.5 c-0.4,0.3-0.9,0.3-1.3,0l0,0c-2.5-2.7-3.9-6.3-3.9-10C5.5,13.1,12,6.5,20,6.5c8,0,14.5,6.6,14.5,14.6C34.5,24.8,33.1,28.4,30.6,31.1 L30.6,31.1z M4.7,16.4L4.7,16.4L4.7,16.4C4.2,17.9,4,19.5,4,21c0,2.8,0.8,5.6,2.2,8l0,0c0.2,0.4,0.1,1-0.3,1.2L4,31.4 c-0.4,0.3-1,0.1-1.2-0.3l0,0C1,28,0,24.6,0,21c0-2,0.3-4,0.9-5.9l0,0C1,14.7,1.5,14.5,2,14.6l2.1,0.6C4.5,15.4,4.8,15.9,4.7,16.4 L4.7,16.4z"/>
</svg>