<!-- (c) Carrd Inc. All rights reserved. All logos and trademarks are property of their respective owners. -->
<svg xmlns="http://www.w3.org/2000/svg" id="icon">
<path d="M19.86,36.11c-2.7-0.01-5.35-0.71-7.68-2.02c-3.75-2.13-6.48-5.74-7.49-9.92C4.4,23,4.25,21.73,4.25,20.5 c0-4.7,2.08-9.1,5.72-12.08c2.78-2.27,6.29-3.52,9.89-3.53c8.63,0,14.89,5.46,14.89,12.97c0,4.66-3.82,8.53-8.51,8.63l-0.77,0.02 l-0.19-0.75c-0.11-0.42-0.28-1.02-0.4-1.43c-0.42-1.19-1.45-2.09-2.69-2.33c-0.24-0.05-0.45-0.07-0.7-0.07 c-1.03,0-2.02,0.45-2.7,1.23c-0.61,0.69-0.9,1.46-0.89,2.36c0,0.42,0.05,0.77,0.19,1.15c0.41,1.21,1.44,2.12,2.69,2.37 c1.51,0.32,3,0.47,4.56,0.47l0,0c1.96,0,3.8-0.24,5.65-0.73l0.83-0.22l0.41,1.47l-0.24,0.29c-2.54,3.12-6.13,5.13-10.1,5.64 C21.21,36.07,20.52,36.11,19.86,36.11L19.86,36.11z M13.76,32.74c1.89,0.95,3.92,1.43,6.05,1.43c0,0,0.01,0,0.02,0 c-1.55-2.08-2.78-4.45-3.58-6.89c-0.05-0.15-0.09-0.3-0.13-0.46C15.04,28.66,14.25,30.65,13.76,32.74z M19.93,30.83 c0.64,1.11,1.38,2.16,2.21,3.15c2.24-0.38,4.34-1.31,6.13-2.71c-0.99,0.12-1.97,0.18-2.94,0.18c-1.66,0-3.33-0.17-4.95-0.51 C20.23,30.91,20.08,30.87,19.93,30.83z M6.75,24.4c0.88,2.96,2.74,5.53,5.27,7.31c0.98-3.63,2.81-7.02,5.31-9.83 c0.1-0.12,0.22-0.24,0.33-0.35c-0.01,0-0.06,0-0.06,0C13.74,21.53,10.09,22.49,6.75,24.4z M12.66,8.86 c6.76,2.63,11.87,8.02,14.06,14.87c0.07,0.22,0.15,0.49,0.22,0.76c3.36-0.44,5.86-3.26,5.86-6.64c0-5.48-4.45-11.03-12.95-11.03 h-0.05C17.21,6.83,14.81,7.51,12.66,8.86z M10.81,10.26c-2.93,2.6-4.62,6.32-4.62,10.24c0,0.67,0.04,1.3,0.13,1.93 c3.47-1.85,7.38-2.83,11.33-2.84c1.64,0,3.3,0.17,4.92,0.51c0.17,0.03,0.34,0.08,0.51,0.13C20.41,15.5,16.07,11.98,10.81,10.26z"/> <path d="M21.49,21.68c0.27,0,0.49,0.02,0.75,0.07c1.33,0.26,2.43,1.23,2.88,2.5c0.13,0.41,0.3,1.02,0.41,1.44l0.14,0.55l0.57-0.01 c4.55-0.1,8.26-3.79,8.26-8.38c0-6.94-5.79-12.72-14.64-12.72c-3.65,0.01-7.11,1.34-9.73,3.48C6.69,11.43,4.5,15.71,4.5,20.5 c0,1.23,0.15,2.46,0.43,3.61c1.01,4.18,3.72,7.7,7.37,9.76c2.21,1.24,4.84,1.98,7.56,1.99c0.67,0,1.35-0.05,1.99-0.13 c4-0.52,7.52-2.58,9.94-5.55l0.16-0.19l-0.31-1.11l-0.59,0.16c-1.84,0.49-3.72,0.74-5.71,0.74c-1.59,0-3.11-0.16-4.61-0.48 c-1.35-0.27-2.45-1.25-2.88-2.53c-0.14-0.4-0.2-0.78-0.2-1.23c-0.01-1,0.33-1.82,0.95-2.53C19.31,22.19,20.34,21.68,21.49,21.68z M19.86,6.58c8.19,0,13.2,5.26,13.2,11.28c0,3.6-2.77,6.55-6.3,6.91c-0.09-0.33-0.19-0.69-0.28-0.96 c-2.23-6.98-7.54-12.39-14.37-14.89C14.34,7.42,16.95,6.57,19.86,6.58z M5.94,20.5c0-4.2,1.86-7.97,4.81-10.52 c5.6,1.8,10.19,5.63,12.87,10.71c-0.35-0.15-0.72-0.27-1.1-0.35c-1.56-0.32-3.21-0.5-4.87-0.5c-4.15,0.01-8.12,1.1-11.52,2.98 C6,22.06,5.94,21.3,5.94,20.5z M20.43,30.7c1.57,0.33,3.23,0.51,4.9,0.51c1.27,0,2.54-0.11,3.77-0.3c-1.94,1.73-4.38,2.92-7.06,3.35 c-1.02-1.2-1.91-2.5-2.65-3.88C19.72,30.51,20.07,30.62,20.43,30.7z M20.33,34.41c-0.15,0-0.31,0.01-0.47,0.01 c-2.34,0.01-4.46-0.54-6.39-1.55c0.55-2.44,1.5-4.7,2.78-6.75c0.04,0.38,0.13,0.75,0.24,1.08C17.34,29.82,18.66,32.28,20.33,34.41z M17.52,22.04c-2.5,2.8-4.39,6.29-5.34,10.07c-2.74-1.82-4.8-4.58-5.72-7.83c3.31-1.93,7.08-3.01,11.19-3c0.23,0,0.46,0,0.69,0.01 C18.04,21.51,17.76,21.76,17.52,22.04z"/>
</svg>