<!-- (c) Carrd Inc. All rights reserved. All logos and trademarks are property of their respective owners. -->
<svg xmlns="http://www.w3.org/2000/svg" id="icon">
<path d="M33.8,28h-2.3l1.8-3.4l-3.8-7.1c0.2,0.4,0.3,0.9,0.3,1.5v4.4c0,0.5,0.1,1.3,0.1,1.3H28c0,0-0.1-0.6-0.1-1.3 c0,0-1,1.6-3.9,1.6c-2.2,0-3.8-1-3.8-3c0-0.1,0-0.2,0-0.3c-0.6,2-2.3,3.3-4.5,3.3c-2.7,0-3.7-1.5-3.7-1.5c0,0.6-0.1,1.2-0.1,1.2h-2 c0,0,0-0.9,0-1.5v-2.4h-8c0,1.7,1.3,2.9,3.1,2.9c2.2,0,2.6-1.5,2.6-1.5h2.1c0,0-0.3,2.8-4.6,2.8c-3.7,0-5.2-1.8-5.2-4.6 c0-3.6,2.4-4.8,5.2-4.8v0c3.8,0,4.8,2.5,4.9,4.1V12h2v5c0,0,0.9-1.5,3.6-1.5c3,0,4.7,2.1,4.7,4.7c0,0.3,0,0.6-0.1,0.9 c0.5-1.4,2.1-2,4.9-2h2.5v-0.4c0-1.2-1.1-1.9-2.5-1.9c-2.1,0-2.3,1.4-2.3,1.4h-2.1c0-0.4,0.3-2.7,4.5-2.7c1.5,0,3,0.3,3.8,1.5 l-0.6-1.1H31l3.4,6.8l3.4-6.8H40L33.8,28z M5.1,16.8c-1.5,0-3,0.9-3,2.6h5.8C7.9,17.9,6.8,16.8,5.1,16.8z M15.2,16.9 c-2.1,0-3.1,1.7-3.1,3.3c0,1.8,1.1,3.4,3.1,3.4c1.7,0,3.1-1.3,3.1-3.4C18.4,18.3,17.1,16.9,15.2,16.9z M27.8,20.4 c-3.2,0-5.4,0-5.4,1.6c0,0.9,0.6,1.6,2.2,1.6c2.8,0,3.2-1.9,3.2-2.6V20.4z"/>
</svg>