<!-- (c) Carrd Inc. All rights reserved. All logos and trademarks are property of their respective owners. -->
<svg xmlns="http://www.w3.org/2000/svg" id="icon">
<path d="M22.9,2c0,0,0.1,0,0.1,0c0.6,0.1,1.1,0.3,1.3,0.9c0.4,0.8,0.8,1.6,1.1,2.4c0.4,1,0.8,2,1.2,3c0.1,0.3,0.3,0.6,0.7,0.7 c0.3,0.1,0.6,0.1,0.8,0.2c1.9,0.3,3.8,0.6,5.7,0.9c1.1,0.2,2.2,0.4,3.4,0.6c0.6,0.1,1.1,0.3,1.7,0.4c0,0.2,0,0.4,0,0.7 c0,0-0.1,0.1-0.1,0.1c-0.5,1.5-1,3.1-1.5,4.6c-0.2,0.7-0.4,1.5-0.9,2.1c-0.3,0.4-0.6,0.6-1.1,0.6c-1.6,0.1-3.3,0.2-4.9,0.3 c-1.4,0.1-2.7,0.2-4.1,0.4c-1.7,0.3-3.2,1.1-4.1,2.6c-1.3,2.1-1.5,4.3-0.9,6.7c0.6,2.3,3.1,3.7,5.4,3c1.9-0.5,3.2-2.3,2.6-4.5 c-0.2-0.8-0.6-1.2-1.5-1.2c-0.2,0-0.3,0-0.5,0c-0.5,0-0.9,0.3-1,0.6c-0.1,0.5-0.1,1.1,0.3,1.4c0.3,0.3,0.2,0.4,0,0.7 c-0.7,0.9-1.8,0.7-2.4-0.1c-1-1.3-0.9-3.4,0.3-4.6c0.7-0.7,1.5-1.1,2.4-1.3c1.6-0.3,3,0,4.3,1.1c1.7,1.4,2.2,3.4,2.1,5.5 c-0.2,2.2-1.2,4-2.9,5.4c-2.5,2.1-5.5,2.9-8.8,2.5c-1.6-0.2-3.2-0.7-4.6-1.5c-1.7-0.9-3.2-2-4.4-3.5c-1.4-1.8-2.3-3.8-2.9-5.9 c-0.4-1.7-0.4-3.3-0.3-5c0-0.5,0-0.9,0-1.5c-1,0-2,0.1-3,0.1c-0.5,0-1,0-1.4,0.1c-1.1,0.1-1.6-0.1-2-1.1c0-0.1-0.1-0.3-0.1-0.5 c-0.1-0.8-0.3-1.6-0.4-2.5c-0.2-1.3-0.4-2.6-0.7-3.9c-0.3-1.7-0.5-3.4-0.8-5c0-0.1-0.1-0.1-0.2-0.2c0-0.5,0-1,0-1.5 c0.3-0.3,0.7-0.3,1-0.3C2.5,5.9,3,6,3.4,6c0.9,0.1,1.9,0.2,2.8,0.3c0.7,0.1,1.3,0.1,2,0.2c1,0.1,1.9,0.2,2.9,0.3 C12,6.8,13,6.9,13.9,7c0.1,0,0.3,0,0.4-0.1c1.2-0.8,2.4-1.7,3.6-2.5C19.5,3.5,21,2.5,22.9,2z"/>
</svg>