<!-- (c) Carrd Inc. All rights reserved. All logos and trademarks are property of their respective owners. -->
<svg xmlns="http://www.w3.org/2000/svg" id="icon">
<path d="M39.2,15.2c-0.1-0.3-0.4-0.5-0.7-0.5l-12.4-1.1L20.8,1.7c-0.1-0.3-0.4-0.5-0.7-0.5c-0.3,0-0.6,0.2-0.7,0.5l-5.5,11.5 L1.5,14.6c-0.3,0-0.6,0.2-0.7,0.5c-0.1,0.3,0,0.6,0.2,0.8l9.1,8.3L7.9,36.9c-0.1,0.3,0,0.6,0.3,0.8c0.1,0.1,0.3,0.1,0.5,0.1 c0.1,0,0.3,0,0.4-0.1l11.1-6.3L31,37.8c0.3,0.1,0.6,0.1,0.9-0.1c0.3-0.2,0.4-0.5,0.3-0.8l-1.6-9.3c0.4-0.2,1.7-0.8,2.4-1.5 c-1.1,0.4-1.5,0.5-2.6,0.8v0C23,28.2,11.8,27,11.4,27l12.3-9C19.6,17.3,9.9,17,9.3,16.9c-0.1,0-0.1,0,0,0c0,0,0,0,0,0 c0.5-0.1,13.1-2.1,20.5-0.1l-12.4,8.7c0,0,9.6,0.9,12.9,0.5l-0.2-1.7l9-8.3C39.2,15.8,39.3,15.5,39.2,15.2z" />
</svg>