<!-- (c) Carrd Inc. All rights reserved. All logos and trademarks are property of their respective owners. -->
<svg xmlns="http://www.w3.org/2000/svg" id="icon">
<path d="M34.1,34.6c3.2,0,4.7-0.8,5.5-1.2c0.7-0.3,1.3,5-7.3,5c-9.9,0-13.4-11-14.1-15.4c0,0-1.5,0.6-2.8,1 c-0.8,3.1-1.6,6-1.9,6.8c-0.3,0.7-4.8,1.4-4.1-1.1c0.7-2.5,1.7-6.4,2.4-9.1c0.6-2.2,2-7.6,1.2-9.2c0,0,1.1-1.1,2.5-1.1 c1.2,0,2.3,0.3,2.3,2.3c0,0.9-0.4,2.4-1.5,7.6c2.5-0.8,8.2-3.4,8.2-8.3c0-3.9-2-6.2-5.4-6.2C12.7,6,8.2,12.2,7.4,16.2 c-0.3,1.2-5.4,0-3.6-3.9C6.7,6.2,13.2,3,19.1,3c5.3,0,10.5,2.7,10.5,9.2c0,6.4-7.5,9.7-7.5,9.7S24.2,34.6,34.1,34.6z"/>
</svg>