<!-- (c) Carrd Inc. All rights reserved. All logos and trademarks are property of their respective owners. -->
<svg xmlns="http://www.w3.org/2000/svg" id="icon">
<path d="M35.5,14.3c0,0.1,0,0.1,0,0.2c0,0.1,0,0.2,0,0.3l0,0c0,0,0,0,0,0c0,0,0,0,0,0c0,0,0,0,0,0c0,0,0,0,0,0 c0,0,0,0,0,0c-0.1,0.7-0.2,1.4-0.3,2.1l0,0l0,0c0,0.2-0.1,0.3-0.1,0.5c0,0,0,0,0,0c0,0,0,0,0,0c0,0,0,0,0,0c0,0.2-0.1,0.3-0.2,0.5 c0,0,0,0,0,0c0,0,0,0,0,0c0,0,0,0,0,0c-0.1,0.2-0.1,0.3-0.2,0.5c0,0,0,0,0,0c0,0,0,0,0,0c0,0,0,0,0,0c-0.1,0.1-0.1,0.3-0.2,0.4 c0,0,0,0,0,0c0,0,0,0,0,0c0,0,0,0,0,0c-0.6,1.2-1.3,2.3-2.2,3.2c0,0,0,0,0,0c0,0,0,0,0,0c0,0,0,0-0.1,0.1c0,0,0,0,0,0 c-0.1,0.1-0.2,0.2-0.3,0.3c0,0,0,0,0,0c0,0-0.1,0.1-0.1,0.1c0,0-0.1,0.1-0.1,0.1c0,0,0.1-0.1,0.1-0.1l0,0c0,0-0.1,0.1-0.1,0.1 c-0.1,0.1-0.3,0.2-0.4,0.3l0,0c0.1-0.1,0.3-0.2,0.4-0.3c-0.1,0.1-0.3,0.2-0.4,0.3c0,0,0,0-0.1,0c0,0,0,0,0,0 c-0.2,0.1-0.3,0.2-0.5,0.4c0,0,0,0,0,0c0,0,0,0-0.1,0c0,0,0,0,0,0c-0.2,0.1-0.3,0.2-0.5,0.3c0,0,0,0,0,0c0,0,0,0-0.1,0c0,0,0,0,0,0 c-0.2,0.1-0.3,0.2-0.5,0.3c0,0,0,0,0,0c0,0,0,0,0,0c0,0,0,0,0,0c-0.2,0.1-0.4,0.2-0.6,0.3c0,0,0,0,0,0c0,0,0,0,0,0c0,0,0,0,0,0 c-0.1,0-0.1,0-0.2,0.1c-0.1,0-0.2,0.1-0.3,0.1c0,0,0,0,0,0c0.1,0,0.2-0.1,0.3-0.1c0,0,0,0,0,0c-0.1,0-0.2,0.1-0.3,0.1 c0,0-0.1,0-0.1,0c0,0,0,0,0,0c0,0,0.1,0,0.1,0c0,0-0.1,0-0.1,0c-0.1,0-0.1,0-0.2,0.1c-0.1,0-0.1,0-0.2,0.1c0,0,0,0,0,0 c0.1,0,0.1,0,0.2-0.1c0,0,0,0,0,0c-0.1,0-0.1,0-0.2,0.1c0,0,0,0,0,0c0,0-0.1,0-0.1,0c0,0,0,0,0,0c0.1,0,0.1,0,0.2,0c0,0,0,0,0,0 c-0.1,0-0.1,0-0.2,0c-0.1,0-0.1,0-0.2,0.1c-0.1,0-0.3,0.1-0.5,0.1c0,0-0.1,0-0.1,0c0,0,0,0,0,0c-0.1,0-0.2,0-0.3,0c0,0,0,0,0,0 c-0.1,0-0.1,0-0.2,0c0,0,0,0,0,0c-0.1,0-0.2,0-0.3,0c0,0,0,0,0,0c-0.1,0-0.1,0-0.2,0c0,0,0,0,0,0c-0.1,0-0.2,0-0.3,0c0,0,0,0,0,0 c0,0-0.1,0-0.1,0c0,0,0,0,0,0c-0.2,0-0.3,0-0.5,0H14V6c0-0.1,0-0.1,0-0.2c0,0,0-0.1,0-0.1c0,0,0,0,0,0c0,0,0,0,0,0 c0-0.1,0-0.2,0-0.3c0,0,0-0.1,0-0.1c0,0,0-0.1,0-0.1c0,0,0-0.1,0-0.1c0,0,0-0.1,0-0.1c0,0,0-0.1,0-0.1c0,0,0-0.1,0-0.1 c0,0,0-0.1,0.1-0.1c0,0,0-0.1,0-0.1c0,0,0-0.1,0.1-0.1c0,0,0-0.1,0-0.1c0,0,0.1-0.1,0.1-0.1c0,0,0,0,0-0.1c0,0,0,0,0,0 c0,0,0,0,0-0.1c0,0,0,0,0,0c0,0,0,0,0,0c0,0,0.1-0.1,0.1-0.1c0,0,0,0,0,0c0,0,0,0,0,0C15,3.4,15.6,3,16.2,2.7c0,0,0.1,0,0.1,0 c0,0,0.1,0,0.1,0h0c0.1,0,0.1,0,0.2-0.1c0,0,0,0,0,0c0,0,0.1,0,0.1,0l0,0c0.1,0,0.1,0,0.2,0c0,0,0,0,0,0c0,0,0.1,0,0.1,0l0,0 c0.1,0,0.2,0,0.3,0h0h7.8h0c0.2,0,0.5,0,0.7,0c0,0,0.1,0,0.1,0c0,0-0.1,0-0.1,0l0,0c0,0,0.1,0,0.1,0c0.1,0,0.2,0,0.3,0l0,0 c-0.1,0-0.2,0-0.3,0c0.1,0,0.2,0,0.3,0c0.1,0,0.2,0,0.3,0c0,0,0,0,0,0c0.1,0,0.2,0,0.3,0.1c0,0,0,0,0,0c0.1,0,0.2,0,0.3,0 c0.1,0,0.2,0,0.3,0.1c1.9,0.4,3.6,1.4,5,2.9c0.2,0.2,0.3,0.4,0.5,0.5c0,0,0-0.1-0.1-0.1c0,0,0,0.1,0.1,0.1c0.9,1.1,1.6,2.4,2.1,3.9 c0,0,0,0,0,0c0,0,0,0,0,0c0,0,0,0,0,0c0.1,0.3,0.2,0.6,0.2,0.9c0,0,0,0,0,0c0,0,0,0,0,0c0,0,0,0,0,0c0.1,0.3,0.1,0.6,0.2,0.9 c0,0,0,0,0,0c0,0,0,0,0,0c0,0,0,0,0,0c0,0.1,0,0.3,0.1,0.4c0,0.2,0,0.3,0,0.5l0,0c0,0,0,0,0,0.1c0,0.3,0,0.6,0,0.9 C35.5,13.9,35.5,14.1,35.5,14.3z M27.1,2.7L27.1,2.7c0.1,0,0.2,0,0.3,0.1C27.3,2.7,27.2,2.7,27.1,2.7z M35.3,11.9L35.3,11.9 L35.3,11.9L35.3,11.9z M27.3,24.7c0.1,0,0.3-0.1,0.4-0.1c0,0,0,0,0,0c-0.2,0.1-0.4,0.1-0.6,0.1C27.2,24.8,27.2,24.7,27.3,24.7 C27.3,24.7,27.3,24.7,27.3,24.7z M14,25L14,25l0,9.7c0,0.1,0,0.2,0,0.3l0,0c0,0,0,0.1,0,0.1c0,0,0,0.1,0,0.1l0,0c0,0,0,0.1,0,0.1 l0,0c0,0.1,0,0.1,0,0.2l0,0c0,0,0,0.1,0,0.1l0,0c0,0,0,0,0,0.1c-0.1,0.2-0.1,0.3-0.2,0.4l0,0c0,0,0,0,0,0c0,0.1-0.1,0.1-0.1,0.2l0,0 c0,0-0.1,0.1-0.1,0.1l0,0c-0.1,0.1-0.1,0.1-0.2,0.2c0,0,0,0,0,0l0,0c0,0-0.1,0.1-0.1,0.1l0,0c0,0,0,0-0.1,0.1 c-0.1,0.1-0.3,0.2-0.4,0.3c0,0-0.1,0-0.1,0.1l0,0c-0.1,0-0.1,0.1-0.2,0.1c0,0,0,0-0.1,0l0,0c0,0-0.1,0-0.1,0l0,0c0,0-0.1,0-0.1,0 c-0.1,0-0.1,0-0.2,0l0,0c-0.1,0-0.1,0-0.2,0l0,0c-0.1,0-0.1,0-0.2,0c0,0-0.1,0-0.1,0l0,0c0,0-0.1,0-0.1,0c0,0,0,0,0,0 c0,0-0.1,0-0.1,0h0h-0.3c-0.1,0-0.2,0-0.3,0l0,0l0,0c0,0-0.1,0-0.1,0c0,0,0,0,0,0c-0.1,0-0.2,0-0.3,0c-0.1,0-0.1,0-0.2,0l0,0 c-0.1,0-0.2,0-0.2,0c0.1,0,0.1,0,0.2,0c-0.2,0-0.3-0.1-0.5-0.1c0,0-0.1,0-0.1,0c-0.4-0.1-0.7-0.2-1.1-0.4c0,0,0,0-0.1,0 c-0.2-0.1-0.3-0.2-0.5-0.2c-0.1-0.1-0.2-0.1-0.4-0.2c0,0-0.1-0.1-0.1-0.1c0,0,0,0-0.1,0c0,0-0.1-0.1-0.1-0.1 c-0.2-0.2-0.5-0.4-0.7-0.5c0,0-0.1-0.1-0.1-0.1c0,0,0,0-0.1-0.1c0,0-0.1-0.1-0.1-0.1c-0.2-0.2-0.4-0.4-0.5-0.7c0,0-0.1-0.1-0.1-0.1 c0,0,0,0,0-0.1c0,0-0.1-0.1-0.1-0.1c-0.2-0.2-0.3-0.5-0.4-0.8c0-0.1,0-0.1-0.1-0.2c0,0,0,0,0-0.1c0,0,0-0.1-0.1-0.1 c-0.1-0.1-0.1-0.3-0.1-0.4c0,0,0,0,0,0l0,0c0,0,0,0,0,0c0-0.1-0.1-0.2-0.1-0.3c0,0,0,0,0,0c0,0,0,0,0,0c0-0.1,0-0.2-0.1-0.4 c0,0,0,0,0,0c0,0,0,0,0,0c0,0,0,0,0-0.1c0-0.1,0-0.2,0-0.3c0,0,0,0,0,0c0,0,0,0,0,0c0,0,0,0,0,0c0-0.1,0-0.3,0-0.4v0l0,0 c0-0.1,0-0.2,0-0.3c0-0.1,0-0.3,0-0.4c0,0,0,0,0,0c0-0.1,0-0.1,0-0.2c0,0,0-0.1,0-0.1c0-0.1,0-0.2,0-0.3c0,0,0-0.1,0-0.1 c0,0,0-0.1,0-0.1c0,0,0,0,0,0c0-0.1,0-0.2,0.1-0.3l0,0c0,0.1,0,0.1,0,0.2c0-0.1,0-0.2,0.1-0.2l0,0c0,0,0,0,0-0.1c0,0,0-0.1,0-0.1 l0,0c0-0.1,0-0.1,0.1-0.2C4.9,29,5,28.9,5,28.9c0-0.1,0-0.1,0.1-0.2v0c0,0,0-0.1,0.1-0.1l0,0l0,0c0,0,0-0.1,0.1-0.1 c0,0,0,0.1-0.1,0.1c0-0.1,0.1-0.2,0.1-0.2c0-0.1,0.1-0.1,0.1-0.2c0,0,0,0,0,0c0-0.1,0.1-0.2,0.2-0.3c0,0.1-0.1,0.1-0.1,0.2 c0.1-0.1,0.1-0.2,0.2-0.3c0,0,0-0.1,0.1-0.1c0,0,0,0,0-0.1c0,0,0.1-0.1,0.1-0.1c0.1-0.1,0.1-0.2,0.2-0.3c0,0,0,0,0.1-0.1 c0,0,0.1-0.1,0.1-0.1l0,0l0,0c0,0,0.1-0.1,0.1-0.1c0,0-0.1,0.1-0.1,0.1c0.1-0.1,0.1-0.1,0.2-0.2c0,0,0.1-0.1,0.1-0.1l0,0 c0,0,0.1-0.1,0.1-0.1l0,0l0,0c0,0,0.1-0.1,0.1-0.1l0,0c0,0-0.1,0.1-0.1,0.1c0.1-0.1,0.2-0.1,0.2-0.2c0,0,0.1-0.1,0.1-0.1 c0,0,0.1,0,0.1-0.1c0.1-0.1,0.2-0.1,0.3-0.2c0,0,0.1-0.1,0.1-0.1l0,0c0,0,0,0,0,0l0,0l0,0c0.1-0.1,0.2-0.1,0.3-0.2c0,0,0,0,0,0 c-0.1,0.1-0.2,0.1-0.3,0.2c0.1-0.1,0.3-0.2,0.5-0.3c0,0,0,0,0,0c0,0,0.1,0,0.1,0h0h0c0,0,0.1,0,0.1-0.1c0,0-0.1,0-0.1,0.1 c0.1-0.1,0.3-0.1,0.4-0.2c0,0,0,0,0.1,0c0.2-0.1,0.4-0.1,0.6-0.2l0,0c0,0,0.1,0,0.1,0c0.1,0,0.2-0.1,0.4-0.1c0,0,0.1,0,0.1,0l0,0 c0,0,0.1,0,0.1,0c0.1,0,0.3,0,0.4-0.1c0,0-0.1,0-0.1,0c0,0,0.1,0,0.1,0l0,0l0,0c0.1,0,0.1,0,0.2,0c0,0,0,0,0,0c0.2,0,0.4,0,0.6,0 c0,0,0,0,0.1,0L14,25L14,25z M4.6,30.5L4.6,30.5C4.6,30.5,4.6,30.5,4.6,30.5C4.6,30.5,4.6,30.5,4.6,30.5z M4.6,30.2 C4.6,30.2,4.6,30.2,4.6,30.2C4.6,30.2,4.6,30.2,4.6,30.2L4.6,30.2z M5,29C5,29,5,29,5,29C5,29,5,29,5,29L5,29z M5.3,28.2L5.3,28.2 C5.3,28.2,5.3,28.2,5.3,28.2C5.3,28.2,5.3,28.2,5.3,28.2z M9.1,25.2L9.1,25.2C9.1,25.2,9.1,25.2,9.1,25.2 C9.1,25.2,9.1,25.2,9.1,25.2z M10.5,25L10.5,25c0.1,0,0.2,0,0.3,0C10.7,25,10.6,25,10.5,25z M10.9,37.5c-0.1,0-0.2,0-0.2,0 C10.7,37.5,10.8,37.5,10.9,37.5L10.9,37.5z"/>
</svg>