<!-- (c) Carrd Inc. All rights reserved. All logos and trademarks are property of their respective owners. -->
<svg xmlns="http://www.w3.org/2000/svg" id="icon">
<path d="M20,35.5c-8.5,0-15.5-6.9-15.5-15.5c0-8.5,6.9-15.5,15.5-15.5c8.5,0,15.5,6.9,15.5,15.5C35.5,28.5,28.6,35.5,20,35.5z M31.9,20.4c0-0.1,0-0.3,0-0.4c0-0.2-0.1-0.4-0.2-0.6c-0.2-0.4-0.7-0.7-1.2-0.6c-0.5,0.1-0.8,0.4-1,0.8c-0.1,0.2-0.1,0.4-0.1,0.7 c0,0.9-0.2,1.8-0.5,2.6c-0.7,2.1-1.9,3.7-3.8,5c-1.5,1-3.2,1.6-5,1.6c-0.2,0-0.3,0-0.5,0c-0.6,0.1-1,0.7-0.9,1.3 c0.1,0.6,0.6,1.1,1.2,1.1c0.8,0,1.7-0.1,2.5-0.3c1.5-0.3,3-1,4.2-1.9c1.4-1,2.6-2.3,3.5-3.8C31.3,24.3,31.8,22.4,31.9,20.4z M19.6,8.1c-0.9,0.1-1.8,0.2-2.7,0.4c-2.8,0.8-5.1,2.4-6.7,4.8c-1.4,2-2,4.2-2.1,6.7c0,0.6,0.4,1.1,1,1.2c0.5,0.1,1.1-0.3,1.3-0.8 c0.1-0.2,0.1-0.5,0.1-0.7c0-0.7,0.1-1.4,0.3-2.1c0.5-2.1,1.7-3.7,3.3-5.1c1-0.8,2.1-1.3,3.2-1.7c0.8-0.2,1.7-0.4,2.6-0.4 c0.4,0,0.8-0.2,1.1-0.5c0.4-0.7,0.1-1.6-0.7-1.8C20.1,8.1,19.8,8.1,19.6,8.1z M20.2,26.7c1.2,0,2.2-0.3,3.2-0.9 c1.4-0.8,2.4-2,2.9-3.6c0.3-0.7,0.4-1.4,0.4-2.2c0-0.5-0.4-0.9-0.9-0.9c-0.5,0-0.9,0.3-0.9,0.8c0,0.4,0,0.7-0.1,1.1 c-0.2,0.9-0.6,1.8-1.3,2.4c-0.6,0.6-1.4,1.1-2.2,1.3c-0.4,0.1-0.9,0.1-1.3,0.2c-0.3,0-0.6,0.2-0.7,0.5c-0.1,0.3-0.1,0.6,0.1,0.9 C19.5,26.6,19.8,26.7,20.2,26.7z M13.3,19.8c0,0,0,0.1,0,0.1c0,0.5,0.4,0.9,0.9,0.9c0.5,0,0.9-0.4,0.9-0.8c0-0.2,0-0.4,0.1-0.7 c0.1-1.1,0.6-2.1,1.4-2.9c0.9-0.9,2-1.3,3.2-1.4c0.2,0,0.4,0,0.6-0.1c0.4-0.2,0.6-0.6,0.5-1c-0.1-0.4-0.5-0.7-0.9-0.7 c-1.1,0-2.2,0.3-3.2,0.8C14.6,15.4,13.5,17.3,13.3,19.8z"/>
</svg>