<!-- (c) Carrd Inc. All rights reserved. All logos and trademarks are property of their respective owners. -->
<svg xmlns="http://www.w3.org/2000/svg" id="icon">
<path d="M34.7,18.4c0,0.3,0,0.5,0,0.8c0,0.1,0,0.3-0.1,0.4c-0.1,0.8-0.1,1.7-0.3,2.5c-1.1,4.7-3.6,8.2-8.2,10 c-0.7,0.3-1.3,0.5-2,0.7c0.8,1.6,1.8,3,3.3,4c2.1,1.4,4.4,1.4,6.7,0.7c0.1,0.3,0.2,0.6,0.3,1c-1.2,0.3-2.4,0.7-3.6,0.9 c-1,0.2-2,0.3-3.1,0.5c-0.5,0-1,0-1.5,0c-0.5-0.1-1-0.1-1.6-0.2c-3.9-0.6-7-2.5-8.9-6.1c-0.4-0.7-0.8-1.1-1.6-1.4 c-4.5-1.8-7.3-5.1-8.4-9.8c-0.2-0.9-0.3-1.9-0.4-2.8c0-0.5,0-1.1,0-1.6c0-0.3,0.1-0.6,0.1-0.8c0.6-5.6,3.4-9.6,8.4-12 c3-1.4,6.2-1.5,9.5-0.9c5.7,1,10.3,5.8,11.1,11.5C34.6,16.7,34.6,17.6,34.7,18.4z M12.6,18.9C12.6,18.9,12.7,19,12.6,18.9 c0.2,1.8,0.2,3.6,0.4,5.4c0.2,1.7,0.8,3.4,1.7,4.9c2.3,3.9,8,3.9,10.4,0.1c0.8-1.3,1.4-2.7,1.7-4.3c0.8-4,0.8-8,0.1-11.9 c-0.3-1.9-1-3.7-2-5.2c-2.4-3.5-7.1-3.2-9.3-0.4c-0.9,1.1-1.4,2.3-1.9,3.6C12.8,13.6,12.7,16.3,12.6,18.9z"/>
</svg>