<!-- (c) Carrd Inc. All rights reserved. All logos and trademarks are property of their respective owners. -->
<svg xmlns="http://www.w3.org/2000/svg" id="icon">
<path d="M35.1,30.1c-0.1,0.3-0.3,0.8-0.5,1.1c-1.3,2.4-3.6,3.9-6.2,4.2c-0.6,0.1-5.6,0.1-5.8,0c-0.1,0-0.1-1.5-0.1-15.5 c0-8.5,0-15.4,0-15.5c0,0,1.3,0,2.8,0c2.2,0,2.9,0,3.4,0.1c3.4,0.6,5.9,3.1,6.5,6.4c0.1,0.5,0.1,1.6,0.1,8.9 C35.5,29.2,35.5,28.9,35.1,30.1z M31.7,20.5c-0.3-1-1.2-1.7-2.2-2c-1.6-0.4-3.3,0.5-3.8,2.1c-0.2,0.5-0.2,1.3,0,1.8 c0.5,1.6,2.2,2.6,3.8,2.1c1-0.3,1.8-1,2.2-2C31.9,22,31.9,21.1,31.7,20.5z M15.3,35.5c-3.5,0-4,0-4.4-0.1c-3.2-0.8-5.5-3-6.2-6.3 c-0.1-0.6-0.1-0.8-0.2-8.5c0-8.4,0-9.1,0.3-10.1c0.8-3,3.3-5.3,6.4-5.8c0.4-0.1,1.3-0.1,4.4-0.1c3.8,0,3.9,0,3.9,0.1 c0,0.1,0.1,5,0.1,15.4c0,14,0,15.3-0.1,15.4C19.3,35.5,18.9,35.5,15.3,35.5z M16.9,20V7l-2.5,0c-2.7,0-3.1,0-4,0.4 c-1.7,0.7-2.9,2.2-3.3,4C7,12,7,28,7.2,28.6c0.4,2.1,2,3.7,4,4.2c0.5,0.1,0.7,0.1,3.1,0.2l2.6,0V20z M12.1,16.7 c-0.6,0-0.7,0-1.1-0.3c-0.6-0.3-1.1-0.8-1.4-1.4c-0.2-0.4-0.2-0.5-0.3-1.1c-0.1-1,0.3-1.8,1-2.4c0.3-0.3,0.9-0.6,1.3-0.7 c1.6-0.3,3.2,0.8,3.5,2.4c0.2,1.4-0.6,2.7-2,3.2C12.8,16.7,12.6,16.7,12.1,16.7z"/>
</svg>