<!-- (c) Carrd Inc. All rights reserved. All logos and trademarks are property of their respective owners. -->
<svg xmlns="http://www.w3.org/2000/svg" id="icon">
<path d="M36.4,29.2c-1.2,3.9-4.2,5.8-7.8,6.9c-3.9,1.2-7.9,1.2-11.8,1c-3-0.1-6-0.8-8.6-2.5c-2.8-1.8-4.4-4.4-5.1-7.5 c-0.8-3.8-0.9-7.7,0.5-11.4c0.4-1.1,0.7-2.2,1.5-3.2c-0.7-0.3-1.6,0.3-2-0.6c-0.3-0.7,0.1-1.4,0.7-1.9C4,9.8,4.2,9.5,4,9.2 C2.2,5.8,4.2,4,6.8,2.6C8.4,1.7,9.9,1,11.7,0.8c1.8-0.2,3,0.5,3.7,2.2c0.3,0.7,0.7,1.1,1.7,0.7c1.1-0.4,1.7,0.6,1.3,2.3 c3.1-0.2,6.2,0.1,9.1,1c3.1,0.9,6,2.2,7.8,5.1c1.2,1.9,1.6,4.2,2,6.4C37.8,22.1,37.4,25.7,36.4,29.2z M16,18.2 c-0.1-1.1-0.9-1.9-1.8-1.9c-0.8,0-2,0.4-1.9,1.8c0.1,1.2,0.8,1.7,2.2,1.9C15.2,19.6,16.1,19.3,16,18.2z M14.9,23.5 c-1.1,0-2.2,0-3.4,0c-0.6,0-1.1,0.2-0.7,1c0.4,0.7,0.9,1.3,1.5,1.8c2.8,2.3,5.9,3.8,9.7,3c3.4-0.7,6-2.3,7.6-5.4 c0.1-0.2,0.9-1-0.4-0.9C24.5,23.4,19.7,22.9,14.9,23.5z M27.8,17.6c-0.1-1.2-0.5-1.7-1.7-1.6c-1.3-0.3-1.9,0.8-1.8,1.7 c0.1,0.8,0.6,2.1,1.8,1.9C26.9,19.5,27.9,19,27.8,17.6z"/>
</svg>