<!-- (c) Carrd Inc. All rights reserved. All logos and trademarks are property of their respective owners. -->
<svg xmlns="http://www.w3.org/2000/svg" id="icon">
<path d="M32.9,32.5H7c0,0,0,0,0,0c-2.5,0-4.5-2-4.5-4.6V14.6c0,0,0,0,0,0c0-2.5,2-4.6,4.5-4.6h5.3c0-2.5,2-4.6,4.5-4.6 h6.3c2.5,0,4.6,2,4.6,4.6h5.2c0,0,0,0,0,0c2.5,0,4.6,2,4.6,4.6v13.3c0,0,0,0,0,0C37.5,30.5,35.5,32.5,32.9,32.5z M20,13.2 c-4.4,0-8,3.6-8,8.1c0,4.4,3.6,8.1,8,8.1c4.4,0,8.1-3.6,8.1-8.1C28.1,16.8,24.4,13.2,20,13.2z M20,25.8c-2.5,0-4.5-2-4.6-4.6 c0-2.5,2-4.6,4.6-4.6l0,0c2.5,0,4.5,2,4.6,4.6C24.5,23.8,22.5,25.8,20,25.8z"/>
</svg>