<!-- (c) Carrd Inc. All rights reserved. All logos and trademarks are property of their respective owners. -->
<svg xmlns="http://www.w3.org/2000/svg" id="icon">
<path d="M25.3,34.9c-4,0-13.6,0.1-15.8-0.1c-1.7-0.2-4.9-1.3-5-5.8c0-2.5-0.2-12.8,0.2-15.1c0.7-4.8,2-7.7,7.4-10.2 c4.6-2,14.4-0.4,15.5,7.6c0.2,1.5,0.6,1.7,1.1,1.8C37.6,15,39.6,25,35.4,30.4C32.7,33.8,29.8,34.5,25.3,34.9z M23.7,14.1 c0.3-5.2-4.9-8.9-10.2-6.1c-3.8,2-4.1,4.8-4.3,8.1c-0.3,4.1-0.1,7.1,0,11.3c0,1.9,0.6,3,2.6,3.1c0.5,0,7.6,0,11.3,0 c4.8,0,10.8-2.2,9.8-8.1c-0.5-2.4-2.4-4.3-4.8-4.6c-0.4-0.1-0.8,0.1-1,0.4c-3.1,6.5-10,6.2-12.8,2.6c-2.5-3.2-1.2-8.4,2.1-9.5 c1.2-0.4,2.3,0,2.8,0.8c0.8,1.4,0,2.7-1.1,3.4c-1.2,0.7-1.1,1.8-0.6,2.5c1.1,1.6,3.4,1.3,4.8-0.1C23.3,16.8,23.6,15.5,23.7,14.1z"/>
</svg>