<!-- (c) Carrd Inc. All rights reserved. All logos and trademarks are property of their respective owners. -->
<svg xmlns="http://www.w3.org/2000/svg" id="icon">
<path d="M28.9,17.8c3.2,0.9,7,0,7,0c-1.1,4.8-4.6,7.8-9.6,8.2c-2,4.6-6.6,7.6-11.6,7.6l3.8-12.1 C22.4,9.2,24.4,8.3,33.6,8.3H40C38.9,13,35.3,16.6,28.9,17.8z M14.7,17.2c-2.1,0-3.8,1.7-3.8,3.8s1.7,3.8,3.8,3.8c0,0,0,0,0,0 c0.7,0,1.4-0.2,1.9-0.5l-2.9,9.4C7.1,33.1,2,27.7,2,21C2,14,7.7,8.3,14.7,8.3c2.8,0,5.5,0.9,7.6,2.5c-1.5,2-2.8,4.8-4.1,8.6 C17.6,18.1,16.2,17.2,14.7,17.2z"/>
</svg>