<!-- (c) Carrd Inc. All rights reserved. All logos and trademarks are property of their respective owners. -->
<svg xmlns="http://www.w3.org/2000/svg" id="icon">
<path d="M20,40L2.2,30V10L20,0l17.8,10v20L20,40z M25.6,33.2c5.7-2.6,7.4-7.4,7.4-7.4l-5.8-6.7c0,0-1.1,15.4-16.3,11.6 C10.8,30.7,16.3,36.6,25.6,33.2z M5.9,18.5c-0.5,6.2,2.7,9.9,2.6,9.9l8.8-1.9c0,0-13-8.2-2.1-19.8C15.1,6.6,7,9.2,5.9,18.5z M29.6,9.4c-5-4.3-10.6-3.6-10.6-3.6l-2.8,8.8c0,0,13.1-7.2,17.7,8C33.9,22.7,35.7,14.8,29.6,9.4z"/>
</svg>