<!-- (c) Carrd Inc. All rights reserved. All logos and trademarks are property of their respective owners. -->
<svg xmlns="http://www.w3.org/2000/svg" id="icon">
<path d="M20.1,39.5L20.1,39.5L5.1,32L5,32V20l6.5-3.3c1.9,2.6,5,4.2,8.5,4.2v2.2l4.4,2.2l9.6-4.8l-6-3 c0.3-0.3,0.5-0.6,0.7-0.9L35,20v0l0.1,0v12L20.1,39.5z M6.3,31.3l13.8,7v-9.7l-4.3-2.1L6.3,31.3z M19.9,24.4L19.9,24.4L17,25.9 l3.1,1.6l3.1-1.5L19.9,24.4z M20,20c-5.4,0-9.8-4.4-9.8-9.8s4.4-9.8,9.8-9.8s9.8,4.4,9.8,9.8S25.4,20,20,20z M20,8.6 c-0.9,0-1.7,0.8-1.7,1.7S19.1,12,20,12s1.7-0.8,1.7-1.7S20.9,8.6,20,8.6z"/>
</svg>