<!-- (c) Carrd Inc. All rights reserved. All logos and trademarks are property of their respective owners. -->
<svg xmlns="http://www.w3.org/2000/svg" id="icon">
<path d="M1,33.7c0,0,0-0.1,0-0.1c0.2-0.5,0.4-1,0.5-1.5c0.7-2.6,1.4-5.2,2.1-7.8c1-3.7,2-7.4,3-11.1C7.1,11,7.7,8.8,8.2,6.7 C8.3,6.2,8.5,6.1,9,6.1c3.2,0,6.3,0,9.5,0c0.2,0,0.4,0.2,0.5,0.4c1.2,3,2.3,6,3.5,8.9c0.3,0.8,0.6,1.6,1,2.4 c0.2-0.3,0.2-0.6,0.3-0.8c0.9-3.4,1.8-6.9,2.7-10.3c0.1-0.4,0.3-0.5,0.7-0.5c2.7,0,5.5,0,8.2,0c0.6,0,1.2,0,1.8,0.1 c0,0.1,0,0.2,0,0.2c0,0-0.1,0.1-0.1,0.1c-0.4,1.7-0.9,3.4-1.3,5.2c-0.9,3.4-1.8,6.7-2.7,10.1c-1,3.8-2,7.6-3,11.5 c-0.1,0.4-0.3,0.6-0.8,0.6c-3.1,0-6.1,0-9.2,0c-0.5,0-0.7-0.2-0.9-0.6c-1.4-3.3-2.8-6.5-4.2-9.8c-0.1-0.2-0.2-0.4-0.4-0.8 c-0.1,0.5-0.2,0.8-0.3,1.1c-0.8,3.2-1.7,6.4-2.5,9.6c-0.1,0.4-0.3,0.5-0.6,0.5c-3.1,0-6.3,0-9.4,0C1.4,33.8,1.2,33.8,1,33.7z"/>
</svg>