<!-- (c) Carrd Inc. All rights reserved. All logos and trademarks are property of their respective owners. -->
<svg xmlns="http://www.w3.org/2000/svg" id="icon">
<path d="M38.1,29.5c-0.1,0.1-0.1,0.2-0.2,0.3c-0.9,1.4-2.5,2.7-5.1,2.7l0,0c-1.7,0-3.3-0.4-5-2c-1.3-1.2-2.8-3.4-4-5.4 l-3.5-5.8c-0.1-0.2-0.2-0.3-0.3-0.5c-0.1,0.2-0.2,0.4-0.3,0.5l-1.2,2.2c-2.5,4.4-3.1,5.4-4.3,7c-2.2,2.9-4,4-6.4,4 c-2.9,0-4.7-1.2-5.8-3.1c-0.9-1.5-1.4-3.5-1.4-5.8c0-4.2,1.1-8.5,3.3-11.9c1.9-3,4.7-5.1,7.9-5.1c1.9,0,3.7,0.5,5.6,2.1 c1,0.8,2.1,1.9,3.2,3.3c0.9-1.2,1.9-2.4,3-3.3c1.6-1.4,3.3-2.1,5-2.1c2.9,0,5.6,1.7,7.7,4.8c2.3,3.4,3.4,7.7,3.4,12.1 C39.5,26,39,28,38.1,29.5z M16,13.1c-1-1.1-2.3-2.3-4.3-2.3c-1.7,0-3.1,1.2-4.3,2.9c-1.7,2.5-2.7,6.3-2.7,9.9c0,1.5,0.3,2.6,0.8,3.3 c0.6,0.9,1.4,1.3,2.2,1.3c1.1,0,2.1-0.3,4-2.9c1.6-2.1,3.4-5.2,4.6-7l1.7-2.5C17.2,14.6,16.5,13.7,16,13.1z M33.1,13.1 c-1.3-2-3-3.2-4.9-3.2c-2,0-3.6,1.5-5.5,4.2c-0.1,0.2-0.2,0.3-0.3,0.5c0.6,1,1.3,2,2,3.2l1,1.7c2.4,4,3.8,6.1,4.6,7.1 c1,1.3,1.8,1.6,2.7,1.6c2.4,0,3-2.2,3-4.7C35.8,19.9,34.9,16,33.1,13.1z"/>
</svg>