<!-- (c) Carrd Inc. All rights reserved. All logos and trademarks are property of their respective owners. -->
<svg xmlns="http://www.w3.org/2000/svg" id="icon">
<path d="M32.6,26.6c0.2,1.6-0.3,3.7-1.5,5.8c-1.2,2.1-3.7,3-3.7,3c-2,1.2-4.4,1.9-6.6,1.9h-1.5c0,0.2-0.2,0.2-0.2,0.5 C17.9,39,16.2,40,14.5,40H14c-3.4,0-6.4-2.6-6.6-6.2v-0.2c0-1.2-0.2-3.4,0-5.7c0-1.7,0.2-4.3,0.2-4.3c0-1.7,0.7-3.1,1.7-4.3 c-1-1.9-1.2-4.1-0.7-6.5v-0.5c0.2-1.4,0.5-3.6,1.5-5.7c1.7-3.1,4.9-4.8,8.6-4.8h1.7c1.2-1,2.7-1.7,4.4-1.7c3.7,0,6.9,3.1,6.9,6.7 c0,0,0.3,2.5,0.5,5.7s-1.3,5.9-2,6.5C29.6,19.3,31.7,18.9,32.6,26.6z M18.9,18.4c-1.7-0.2-2.7-1.4-2.2-4.8v-0.5 c0.5-2.9,0.7-3.6,2.2-3.6c0.5,0,1,0.2,1.5,0.7c0.5,0.5,1.5,1.2,2,2.6c0.5,1,0.5,1.7,0.7,2.4v1c0,0.5,0.5,1,1.2,1.2 c0.7,0.2,1.5-0.5,1.7-1.2c0,0,0.5-9.1,0.5-9.3c0-0.7-0.7-1.4-1.5-1.4s-1.5,0.7-1.5,1.4v2.6c-1.2-1.2-2.7-2.4-4.4-2.4 c-4.6-0.7-5.1,3.4-5.4,5.7v0.5c-0.5,4.6,1,7.4,4.6,8.1c3.9,0.7,6.6,1.4,6.6,3.8c0,1-0.5,1.9-1.5,2.6c-1,1-2.4,1.2-3.9,1 c-0.5,0-0.7-0.2-1.2-0.2c-0.5-0.2-2-1-2.4-1.9c-0.2-1-0.5-2.2-0.5-2.9v-0.5c0-0.7-0.7-1.4-1.5-1.4s-1.5,0.7-1.5,1.4 c0,0,0,2.9-0.2,4.6c-0.2,2.9,0,5,0,5.3c0,0.7,0.7,1.4,1.5,1.4s1.5-0.7,1.5-1.4v-2.6c1,0.7,2.4,1.4,4.2,1.7c2.2,0.5,4.4-0.2,6.1-1.7 c1.5-1.2,2.4-3.1,2.4-4.8C28,19.9,21.9,18.9,18.9,18.4z"/>
</svg>