<!-- (c) Carrd Inc. All rights reserved. All logos and trademarks are property of their respective owners. -->
<svg xmlns="http://www.w3.org/2000/svg" id="icon">
<path d="M20,38v-3.4c8.1,0,14.6-6.6,14.6-14.6S28.1,5.4,20,5.4S5.4,11.9,5.4,20H2c0-9.9,8.1-18,18-18s18,8.1,18,18 C38,29.9,29.9,38,20,38z M20,7.9c6.7,0,12.1,5.4,12.1,12.1c0,6.7-5.4,12.1-12.1,12.1v-3.4c4.8,0,8.7-3.9,8.7-8.7 c0-4.8-3.9-8.7-8.7-8.7s-8.7,3.9-8.7,8.7H7.9C7.9,13.3,13.3,7.9,20,7.9z M20,15.4c2.6,0,4.6,2.1,4.6,4.6s-2.1,4.6-4.6,4.6 s-4.6-2.1-4.6-4.6S17.4,15.4,20,15.4z"/>
</svg>