<!-- (c) Carrd Inc. All rights reserved. All logos and trademarks are property of their respective owners. -->
<svg xmlns="http://www.w3.org/2000/svg" id="icon">
<path d="M36.3,23.4c-0.5,1.5-1.2,2.9-2.1,4.2c-0.8,1.3-1.8,2.4-2.8,3.4c-1.1,1-2.2,1.7-3.5,2.3c-1.2,0.5-2.6,0.8-4,0.8 c-0.6,0-1.2-0.1-1.8-0.3c-0.6-0.2-1.1-0.5-1.6-1c-0.5-0.5-0.9-1.1-1.2-1.9c-0.3-0.8-0.5-1.8-0.5-3c0-0.4,0-0.9,0.1-1.4h-0.1 c-0.3,1-0.8,1.9-1.4,2.8c-0.6,0.9-1.2,1.7-2,2.4c-0.8,0.7-1.6,1.3-2.4,1.7c-0.9,0.4-1.7,0.6-2.6,0.6c-1,0-1.8-0.2-2.4-0.5 c-0.6-0.3-1.2-0.8-1.6-1.4c-0.4-0.6-0.7-1.3-0.9-2.1c-0.2-0.8-0.3-1.6-0.3-2.5c0-1.3,0.1-2.7,0.2-4.1C5.7,22,5.8,20.6,6,19.3 c0.2-1.3,0.3-2.6,0.4-3.7c0.1-1.1,0.2-2.1,0.2-2.8c0-0.3,0-0.6,0-0.9c0-0.3-0.1-0.5-0.2-0.8c-0.1-0.2-0.2-0.4-0.4-0.5 c-0.2-0.1-0.4-0.2-0.7-0.2c-0.3,0-0.6,0.1-0.9,0.3c-0.3,0.2-0.6,0.4-0.9,0.8c-0.3,0.4-0.6,0.9-0.9,1.5c-0.3,0.6-0.6,1.4-0.8,2.2 L0.5,15c0.1-0.6,0.3-1.3,0.6-2.1c0.3-0.8,0.7-1.6,1.2-2.3c0.5-0.7,1.1-1.4,1.8-1.9c0.7-0.5,1.6-0.8,2.6-0.8C8,7.9,9,8.3,9.7,9.2 c0.7,0.8,1,2,1,3.6c0,0.7,0,1.6-0.1,2.5c-0.1,0.9-0.2,1.9-0.3,2.9c-0.1,1-0.2,2-0.3,3c-0.1,1-0.2,2-0.3,2.9 c-0.1,0.9-0.2,1.7-0.2,2.5c-0.1,0.7-0.1,1.4-0.1,1.8c0,0.4,0,0.7,0.1,1.1c0.1,0.4,0.2,0.7,0.3,1c0.2,0.3,0.4,0.5,0.6,0.7 c0.3,0.2,0.6,0.3,1,0.3c1.1,0,2.1-0.4,3.1-1.2c1-0.8,1.9-1.9,2.7-3.4c0.8-1.5,1.5-3.3,2-5.5c0.5-2.2,0.8-4.6,0.8-7.4 c0-0.9,0-1.8-0.1-2.7c0-0.9-0.1-1.9-0.3-2.9h4.2C23.9,8.6,24,8.8,24,9C24,9.2,24,9.4,24,9.6c0,0.2,0,0.4,0,0.6c0,0.2,0,0.4,0,0.5 c0,1.7-0.1,3.3-0.3,4.8c-0.2,1.5-0.3,3-0.6,4.4c-0.2,1.4-0.4,2.7-0.6,4c-0.2,1.3-0.2,2.5-0.2,3.6c0,0.5,0,1,0.1,1.4 c0.1,0.5,0.2,0.9,0.4,1.2c0.2,0.4,0.5,0.7,0.8,0.9c0.4,0.2,0.8,0.3,1.4,0.3c0.8,0,1.6-0.2,2.4-0.5c0.8-0.4,1.6-0.9,2.3-1.5 c0.7-0.6,1.4-1.4,2-2.3c0.6-0.9,1.2-1.9,1.7-2.9c0.5-1.1,0.8-2.2,1.1-3.4c0.3-1.2,0.4-2.5,0.4-3.8c0-0.6,0-1.3-0.1-1.9 c-0.1-0.6-0.2-1.2-0.4-1.7c-0.2-0.5-0.4-1-0.7-1.3c-0.3-0.4-0.7-0.7-1.1-0.9c-0.2,0.4-0.5,0.8-0.8,1c-0.4,0.2-0.8,0.3-1.2,0.3 c-0.2,0-0.5,0-0.7-0.1c-0.2-0.1-0.5-0.2-0.7-0.4c-0.2-0.2-0.4-0.4-0.5-0.7c-0.1-0.3-0.2-0.6-0.2-1c0-0.3,0-0.6,0.1-0.9 C29,9.2,29.1,9,29.4,8.7c0.2-0.2,0.5-0.4,0.9-0.6c0.4-0.2,0.9-0.2,1.4-0.2c1,0,1.9,0.2,2.6,0.7c0.7,0.5,1.3,1.1,1.8,1.9 s0.8,1.7,1.1,2.8c0.2,1.1,0.4,2.2,0.4,3.4c0,1.1-0.1,2.2-0.3,3.4C37,21.2,36.7,22.4,36.3,23.4L36.3,23.4z"/>
</svg>