<!-- (c) Carrd Inc. All rights reserved. All logos and trademarks are property of their respective owners. -->
<svg xmlns="http://www.w3.org/2000/svg" id="icon">
<path d="M20,38c-9.9,0-18-8.1-18-18S10.1,2,20,2s18,8.1,18,18S29.9,38,20,38z M20,9.5C14.2,9.5,9.5,14.2,9.5,20 S14.2,30.5,20,30.5S30.5,25.8,30.5,20S25.8,9.5,20,9.5z M20,29.6c-5.3,0-9.6-4.3-9.6-9.6s4.3-9.6,9.6-9.6s9.6,4.3,9.6,9.6 S25.3,29.6,20,29.6z M16.3,14.7v10.5l8.9-5.5L16.3,14.7z"/><path d="M35.3-11.9c-0.1,0.1-0.1,0.3-0.2,0.4"/>
</svg>