<!-- (c) Carrd Inc. All rights reserved. All logos and trademarks are property of their respective owners. -->
<svg xmlns="http://www.w3.org/2000/svg" id="icon">
<path d="M31.4,15.3c0,1.7,0,3.5,0,5.2c0,3.6,0,7.3,0,10.9c0,1.2-1.1,2.1-2.3,1.7c-0.7-0.2-1.1-0.7-1.2-1.4 c0-0.1,0-0.3,0-0.4c0-7.2,0-14.4,0-21.6c0-0.9,0.4-1.5,1.1-1.8c1.1-0.4,2.3,0.4,2.3,1.6C31.4,11.5,31.4,13.4,31.4,15.3z M25.7,36.5 c0,1.1-0.3,1.8-1.3,2.2c-0.3,0-0.6,0-0.8,0c-1-0.4-1.3-1.2-1.3-2.3c0-10.6,0-21.2,0-31.8c0-1.1,0.3-1.9,1.3-2.3c0.3,0,0.6,0,0.8,0 c1,0.4,1.3,1.1,1.3,2.2C25.7,15.2,25.7,25.8,25.7,36.5z M20.1,27.8c0,1.3-1.4,2.2-2.5,1.6c-0.7-0.3-0.9-0.9-0.9-1.7 c0-2.4,0-4.8,0-7.2c0-2.4,0-4.8,0-7.1c0-1.2,1-2,2.1-1.8c0.8,0.2,1.4,0.9,1.4,1.7c0,2.4,0,4.8,0,7.2C20.1,23,20.1,25.4,20.1,27.8z M14.4,32c0,1.1-0.7,1.9-1.7,1.9c-1,0-1.8-0.7-1.8-1.7c0-1.4,0-2.8,0-4.2c0-2.5,0-5,0-7.5c0-3.9,0-7.7,0-11.6c0-1.3,1.1-2.1,2.3-1.7 c0.7,0.2,1.1,0.8,1.2,1.6c0,0.2,0,0.5,0,0.7C14.4,17,14.4,24.5,14.4,32z M7.3,26.3c-0.8,0.1-1.5-0.3-1.9-1c0-0.1-0.1-0.2-0.1-0.2V16 c0.3-0.6,0.6-1.1,1.3-1.2c1.1-0.3,2.2,0.5,2.2,1.6c0,2.8,0,5.6,0,8.3C8.8,25.5,8.1,26.2,7.3,26.3z" />
</svg>