<!-- (c) Carrd Inc. All rights reserved. All logos and trademarks are property of their respective owners. -->
<svg xmlns="http://www.w3.org/2000/svg" id="icon">
<path d="M31,16.6c0,4.2,0,8.4,0,12.6c0,2.5-1.6,4.4-4,4.8c-0.9,0.2-1.9,0.3-2.8,0.2c-1.9-0.2-3-1.6-3.4-3.5c-0.2-1.5,0.7-3.4,2.2-4 c1.3-0.5,2.7-0.8,4-1.1c0.3-0.1,0.5-0.1,0.8-0.2c0.8-0.2,1.2-0.7,1.2-1.7c0-3.9,0-7.8,0-11.6c0-1-0.4-1.2-1.4-1 c-4.4,0.9-8.7,1.8-13.1,2.7c-1.2,0.2-1.3,0.4-1.4,1.6c0,2.7,0,5.3,0,8c0,3.2,0,6.4,0,9.6c0,2.6-1.7,4.5-4.3,4.9 C7.4,37.9,6,38,4.7,37.1c-2.3-1.6-2.3-5.4,0.2-6.7c1.2-0.6,2.6-0.9,3.9-1.3C9,29.1,9.3,29,9.5,29c1.3-0.2,1.8-0.7,1.8-2.1 c0-6.3,0-12.6,0-18.9c0-2,0.7-2.3,2.2-2.5c3.9-0.8,7.9-1.6,11.8-2.4c1.5-0.3,2.9-0.6,4.4-0.9C30.4,2,31,2.5,31,3.6 c0,2.6,0,5.3,0,7.9C31,13.2,31,14.9,31,16.6C31,16.6,31,16.6,31,16.6z"/>
</svg>