<!-- (c) Carrd Inc. All rights reserved. All logos and trademarks are property of their respective owners. -->
<svg xmlns="http://www.w3.org/2000/svg" id="icon">
<path d="M30,27.9c-0.8,1.1-0.7,2.2,0,3c-0.4,0.6-1,1.1-1.3,1.7c-0.3,0.6-0.3,1.4-0.4,2.1c0.1,0,0.1,0.1,0.2,0.1 c-0.3,0.1-0.5,0.2-0.8,0.3c-0.8,0.3-1.4,0.9-1.6,1.7c-0.2,0.6-0.5,0.8-1,0.8c-1,0-1.8,0.4-2.2,1.2c-1-0.1-1.9-0.5-2.7,0.3 c-0.1,0.1-0.3,0.1-0.4,0.1c-0.6-0.1-1.2-0.1-1.8-0.3c-0.3-0.1-0.6-0.2-0.9-0.3c-0.3-0.1-0.7-0.4-1-0.3c-0.7,0-1-0.3-1.4-1 c0.3,0,0.5,0,0.7,0.1c1.5,0.7,3.6-0.6,3.7-2.2c0-0.2,0.4-0.6,0.6-0.6c1.3-0.4,2.2-1.2,2.1-2.7c0-0.2,0.1-0.5,0.3-0.6 c1.2-1,1.5-2,1-3.4c0.7-0.4,0.8-1.8,0.4-2.4c-0.2-0.3-0.2-0.8-0.3-1.2c-0.1-0.4-0.3-0.8-0.4-1.2c-0.1-0.3-0.3-0.7-0.4-1 c-0.1-0.4-0.1-0.8-0.2-1.2c1,0.1,2.2-0.3,2.5,0.9c0.4,0.2,0.6,0.3,0.9,0.5c0.1,0,0.2,0.2,0.3,0.2c1-0.1,1.6,0.4,1.7,1.5 c0,0.2,0.3,0.5,0.5,0.6c0.8,0.2,0.7,0.7,0.8,1.3C29.2,26.5,29.6,27.1,30,27.9z M35.5,30.9c-0.6-0.4-0.8-0.7-0.7-1.4 c0.2-1,0.2-2-1-2.4c-0.1,0-0.2-0.3-0.1-0.5c0.3-1.4-0.1-2.3-1.4-3c-0.3-0.1-0.6-0.5-0.6-0.8c-0.1-1.5-0.4-1.9-1.9-2 c-0.5-0.1-0.7-0.2-1-0.7c-0.3-0.4-0.9-0.6-1.3-0.8c-0.3-0.2-0.7-0.3-1.1-0.4c-0.5-0.1-1.1-0.3-1.7-0.4c-0.7-0.1-1.5-0.1-2.2-0.3 c-0.1,0-0.3-0.5-0.2-0.6c0.2-0.3,0.5-0.6,0.8-0.8c0.4-0.3,0.7-0.5,1.1-0.8c0.1,0,0.1-0.1,0.2-0.1c1.1-0.3,2.2-0.5,3.3-0.8 c0.2,0,0.3,0,0.5,0c1.2-0.7,2.3,0.2,3.4,0.1c0.1,0,0.2,0.1,0.3,0.1c0,0.5-0.1,0.9-0.1,1.3c0.1,0,0.2,0.1,0.2,0.1 c0.3-0.3,0.5-0.6,0.7-0.8c0.5,0.1,1,0.2,1.4,0.4c0.5,0.3,1.1,0.7,1.5,1.2c0.5,0.7,1,1.4,1.9,1.6c0.2,0.1,0.5,0.5,0.5,0.7 c-0.1,1.1,0.1,2,1.2,2.6c-0.8,1-0.7,2-0.3,3.1c0.1,0.1,0.1,0.3,0.1,0.4c-0.9,0.6-0.6,2-1.5,2.5c-0.2,0.1-0.3,0.3-0.4,0.4 C36.4,29.6,35.9,30.2,35.5,30.9z M5,9.3C5,9.6,4.9,9.9,4.9,10.1c-0.1,0.9-0.1,1.8,0.9,2.3c0.4,0.2,0.4,0.4,0.3,0.8 c-0.6,1.4-0.1,2.5,1.3,2.9C7.8,16.3,8,16.5,8,17c0.1,1.1,0.6,1.6,1.7,1.7c0.5,0,0.7,0.2,1,0.6c0.4,0.5,1.1,0.8,1.7,1 c1.4,0.5,2.8,1,4.3,0.5c0.1,0,0.4,0.2,0.5,0.3c0.1,0.1,0,0.4-0.1,0.5c-0.8,0.7-1.5,1.5-2.3,2.1c-0.1,0.1-0.5,0.1-0.7,0.1 c-0.6,0-1,0.1-1.4,0.6c-0.1,0.1-0.3,0.2-0.4,0.2c-0.7,0.1-1.3,0.2-2,0.3c-0.3,0-0.7,0.1-0.8,0c-0.9-0.7-1.8-0.5-2.8-0.2 c-0.4-1-1.2-1.5-2.2-1.8c-0.4-0.1-0.7-0.6-0.9-1c-0.3-0.9-0.8-1.5-1.6-1.7c-0.5-0.1-0.7-0.3-0.5-0.9c0.2-0.6,0.2-1.3,0.3-2 C1.5,17,1.2,16.8,1,16.7c0.1-1,0.2-1.9,0.2-2.8c0-0.1,0-0.3,0.1-0.4c0.7-0.4,0.8-1.1,1.1-1.7c0.3-0.6,1-1,1.2-1.5 C4,9.6,4.3,9.3,5,9.3z M18.2,23.8c0.8-0.1,1.3-0.4,1.3-1.3c0.1,0,0.2,0.1,0.3,0.1c0,0.4,0,0.7,0.1,1.1c0.1,0.4,0.2,0.8,0.2,1.3 c0,0.2,0.1,0.5,0,0.7c-0.2,0.5-0.5,0.9-0.1,1.5c0.1,0.1-0.1,0.5-0.2,0.6c-0.5,0.4-0.7,0.9-0.7,1.6c0,0.3-0.3,0.6-0.5,0.7 c-0.8,0.3-1.2,0.9-1.5,1.7c-0.1,0.2-0.3,0.6-0.4,0.6c-1.3-0.2-2.1,0.8-3.1,1.3c-0.3,0.1-0.6,0.2-0.9,0.2c-0.8,0.1-1.7,0.2-2.6,0.3 c0-0.1-0.2-0.3-0.3-0.6c-0.1,0.3-0.2,0.5-0.3,0.6C8.7,34,7.9,34,7.2,33.8c-0.3-0.1-0.4-0.5-0.7-0.8c0,0-0.2,0.1-0.4,0.2 c-0.1,0-0.1,0-0.1,0c-0.4-0.6-0.9-1.1-1.7-1.2c-0.2,0-0.5-0.3-0.7-0.5c-0.5-0.6-0.9-1.2-1.4-1.9c0-0.2-0.1-0.7-0.1-1.1 c0-0.2,0-0.6,0.1-0.7c0.1-0.1,0.5-0.2,0.7-0.1c0.7,0.4,1.4,0.2,2.1,0.1c0.3-0.1,0.7,0,0.8,0.1c0.7,1.3,2.4,1.3,3.5,0.7 c0.4-0.2,0.7-0.3,1.1-0.2c1,0.2,2,0.1,2.8-0.7c0.2-0.2,0.6-0.3,0.9-0.3c1.1,0.1,1.6-0.3,2.1-1.3c0.1-0.1,0.2-0.3,0.3-0.4 C17.6,25.5,18.1,24.8,18.2,23.8z M19.4,16.8c-0.1-0.3-0.1-0.6-0.2-0.9c0,0,0-0.1,0-0.1c-0.6-1.2,0.1-2.4-0.2-3.7 c0.6-0.5,0.9-1.2,0.9-2c0-0.2,0.3-0.5,0.5-0.5c0.9,0,1.2-0.7,1.2-1.4c0.1-0.8,0.4-1.1,1.2-1.1c0.4,0,0.7-0.2,1.1-0.4 c0.8-0.3,1.5-0.5,2.3-0.8c0.1,0,0.2,0,0.3,0c0.7-0.2,1.5-0.8,2-0.6C29.3,5.8,30,5.9,30.7,6c0.2,0,0.4,0,0.5,0c0.5-0.1,0.8,0,0.9,0.5 c0.3,0.9,0.9,1.1,1.7,1.1c0.4,0,0.6,0.1,0.8,0.5C35,8.4,35.5,8.8,36,9.1c0.3,0.2,0.7,0.3,0.5,0.9c-0.1,0.3,0.3,0.7,0.4,1.1 c0.1,0.3,0.1,0.6,0.2,0.9c-0.3,0-0.6,0.1-0.8,0c-0.8-0.3-1.6-0.5-2.5-0.2c-0.2,0.1-0.5,0-0.7-0.2c-1.3-1.1-2.6-0.8-3.9-0.2 c-0.2,0.1-0.5,0.1-0.7,0.1c-0.9-0.3-1.7,0-2.4,0.5c-0.4,0.2-0.8,0.5-1.2,0.5c-1,0.1-1.7,0.4-2.1,1.3c0,0.1-0.1,0.2-0.2,0.2 c-1.2,0.1-1.3,1.4-2.2,1.9c-0.3,0.2-0.4,0.6-0.7,0.9C19.6,16.8,19.5,16.8,19.4,16.8z M16.2,11.7c-0.9,1-0.9,1.2-0.4,2.4 c0.1,0.2,0,0.4-0.1,0.6c-0.6,1.2-0.5,1.2,0.6,1.8c0.1,0.1,0.3,0.2,0.4,0.4c0.2,0.4,0.4,0.9,0.6,1.4c0.1,0,0.2,0,0.3,0.1 c-0.3,0.2-0.5,0.6-0.8,0.7c-0.2,0-0.4-0.3-0.7-0.5c-0.1-0.1-0.1-0.2-0.2-0.2c-1.1-0.1-1.8-1-2.9-1.3c-0.2-0.1-0.6-0.3-0.6-0.5 c-0.2-0.7-0.6-1.2-1.3-1.5c-0.2-0.1-0.4-0.4-0.4-0.6c0.1-1-0.4-1.5-1.2-2c0.3-0.6,0.2-1.6,1.3-1.8c-0.1-0.7-0.2-1.4-0.3-2 c0-0.2,0-0.4,0.1-0.5c0.6-0.7,0.8-1.4,0.5-2.3c1.1-0.3,1.8-1,2.3-2c0.1-0.3,0.5-0.5,0.8-0.5c0.7-0.1,1.2-0.5,1.6-1.1 c0.1-0.2,0.5-0.3,0.7-0.3c0.4-0.1,0.9,0,1.3,0c1,0,2,0,3,0c0.2,0.7,0,1.2-0.5,1.6c-0.3,0.3-0.7,0.7-0.7,1.1c0,0.9-0.4,1-1.1,1.2 c-1.2,0.3-1.7,1-1.5,2c0.1,0.3,0.3,0.6,0.4,0.8c-0.5,0.5-1.1,0.9-1.5,1.4C15.4,10.5,15.7,11.1,16.2,11.7z"/>
</svg>