<!-- (c) Carrd Inc. All rights reserved. All logos and trademarks are property of their respective owners. -->
<svg xmlns="http://www.w3.org/2000/svg" id="icon">
<path d="M31,25l3.9,5.8c1,1.5,0.6,3.6-0.8,4.6C33.6,35.8,33,36,32.3,36L9.8,36c-1.8,0-3.3-1.5-3.3-3.3V7.3 C6.5,5.5,7.9,4,9.7,4h14.5c6.2,0,11.3,5.2,11.3,11.6C35.5,19.6,33.9,22.9,31,25z M24.2,7H9.7C9.5,7,9.4,7.1,9.4,7.3v25.3 c0,0.2,0.2,0.3,0.4,0.3h22.5c0.1,0,0.1,0,0.2-0.1c0.1-0.1,0.1-0.1,0.1-0.2c0-0.1,0-0.2-0.1-0.3l-4.3-6.4c-0.3-0.4-0.4-0.8-0.4-1.3 c0-0.8,0.4-1.6,1.1-2c2.6-1.6,3.7-4.1,3.7-7.2C32.6,10.9,28.9,7,24.2,7z M21.1,20.1h-2.5l-2.6,2.7v-2.7h0V14c0-0.5,0.4-0.9,0.9-0.9 H21c2.6,0,4.2,1.2,4.2,3.5v0.1C25.3,18.8,23.8,20.1,21.1,20.1z"/>
</svg>