<!-- (c) Carrd Inc. All rights reserved. All logos and trademarks are property of their respective owners. -->
<svg xmlns="http://www.w3.org/2000/svg" id="icon">
<path d="M34.1,28.7L34.1,28.7c-3.8,4.4-12.2,9.7-14.1,10.5c-1.9,0.8-1.6-0.5-1.6-1c0-0.3,0.3-1.5,0.3-1.5 c0.1-0.5,0.1-1.2-0.1-1.6c-0.2-0.5-1-0.8-1.6-0.9C8.4,33,2,26.9,2,19.7C2,11.6,10.1,5,20,5c9.9,0,18,6.6,18,14.7 C38,22.9,36.8,25.8,34.1,28.7z M13.6,22.7c0-0.2-0.2-0.4-0.4-0.4H9.9v-6.3c0-0.2-0.2-0.4-0.4-0.4H8.3c-0.2,0-0.4,0.2-0.4,0.4V24v0 c0,0.1,0,0.2,0.1,0.2c0,0,0,0,0,0c0,0,0,0,0,0c0.1,0.1,0.1,0.1,0.2,0.1h0h5c0.2,0,0.4-0.2,0.4-0.4V22.7z M16.7,16.1 c0-0.2-0.2-0.4-0.4-0.4h-1.3c-0.2,0-0.4,0.2-0.4,0.4V24c0,0.2,0.2,0.4,0.4,0.4h1.3c0.2,0,0.4-0.2,0.4-0.4V16.1z M25.4,16.1 c0-0.2-0.2-0.4-0.4-0.4h-1.3c-0.2,0-0.4,0.2-0.4,0.4v4.7l-3.6-4.9c0,0,0,0,0,0c0,0,0,0,0,0c0,0,0,0,0,0c0,0,0,0,0,0c0,0,0,0,0,0 c0,0,0,0,0,0c0,0,0,0,0,0c0,0,0,0,0,0c0,0,0,0,0,0c0,0,0,0,0,0c0,0,0,0,0,0c0,0,0,0,0,0c0,0,0,0,0,0c0,0,0,0,0,0c0,0,0,0,0,0 c0,0,0,0,0,0c0,0,0,0,0,0c0,0,0,0,0,0c0,0,0,0,0,0h-1.3c-0.2,0-0.4,0.2-0.4,0.4V24c0,0.2,0.2,0.4,0.4,0.4h1.3c0.2,0,0.4-0.2,0.4-0.4 v-4.7l3.6,4.9c0,0,0.1,0.1,0.1,0.1c0,0,0,0,0,0c0,0,0,0,0,0c0,0,0,0,0,0c0,0,0,0,0,0c0,0,0,0,0,0c0,0,0,0,0,0c0,0,0,0,0,0 c0,0,0,0,0,0c0,0,0.1,0,0.1,0H25c0.2,0,0.4-0.2,0.4-0.4V16.1z M32.4,22.7c0-0.2-0.2-0.4-0.4-0.4h-3.4V21H32c0.2,0,0.4-0.2,0.4-0.4 v-1.3c0-0.2-0.2-0.4-0.4-0.4h-3.4v-1.3H32c0.2,0,0.4-0.2,0.4-0.4v-1.3c0-0.2-0.2-0.4-0.4-0.4h-5h0c-0.1,0-0.2,0-0.2,0.1c0,0,0,0,0,0 c0,0,0,0,0,0c-0.1,0.1-0.1,0.1-0.1,0.2v0V24v0c0,0.1,0,0.2,0.1,0.2c0,0,0,0,0,0c0,0,0,0,0,0c0.1,0.1,0.1,0.1,0.2,0.1h0h5 c0.2,0,0.4-0.2,0.4-0.4V22.7z" />
</svg>