<!-- (c) Carrd Inc. All rights reserved. All logos and trademarks are property of their respective owners. -->
<svg xmlns="http://www.w3.org/2000/svg" id="icon">
<path d="M21,35.5c-0.1,0-0.2-0.1-0.3-0.1c-0.6,0-1.1,0-1.7-0.1c-1.7-0.1-3.3-0.5-4.9-1c-3.2-1.1-6-3-8.4-5.5 c-0.2-0.2-0.4-0.4-0.5-0.6c-0.1-0.4-0.1-0.7,0-1.1c0.8-2.1,1.7-4.1,3-6c0.6-0.9,1.3-1.7,2.1-2.4c0.6-0.4,1.2-0.8,1.9-0.9 c0.7-0.1,1.4,0,2.1,0.3c0.7,0.3,1.3,0.8,1.8,1.3c0.4,0.4,0.7,0.7,1,1.1c0.3,0.3,0.6,0.6,1,1c0.1-0.2,0.3-0.3,0.4-0.5 c0.7-0.9,1.4-2,1.9-3c0.5-1,1-1.9,1.5-2.9c0.6-1.3,2.3-1.2,2.9-0.3c0.4,0.6,0.4,1.2,0.1,1.8c-0.5,1.1-1.1,2.2-1.7,3.3 c-0.6,1.2-1.4,2.3-2.3,3.4c-0.3,0.4-0.7,0.7-1.1,1c-0.9,0.8-2,0.8-3.1,0.3c-0.6-0.3-1.1-0.7-1.6-1.2c-0.6-0.6-1.1-1.2-1.7-1.7 c-0.2-0.2-0.4-0.3-0.6-0.5c-0.2-0.1-0.4-0.1-0.6,0c-0.3,0.2-0.5,0.4-0.7,0.7c-0.7,0.9-1.3,1.9-1.8,2.9c-0.4,0.8-0.8,1.7-1.1,2.5 c0,0.1,0,0.1,0,0.2c2.3,2.3,5.1,3.7,8.3,4.4c1.5,0.3,3.1,0.4,4.7,0.3c1.1,0,2.3-0.1,3.4-0.3c2.1-0.3,4.1-0.8,6-1.8 c1.2-0.6,2.3-1.4,3.1-2.6c0.1-0.1,0.2-0.3,0.1-0.5c-0.4-3.4-1.2-6.6-2.5-9.7c-0.8-1.9-1.8-3.6-3.1-5.2c-1.1-1.3-2.3-2.5-3.8-3.3 c-1.3-0.7-2.7-1-4.1-1c-0.2,0-0.4-0.1-0.5-0.1c-0.2,0-0.3,0-0.5,0c-3.4,0.3-6.3,1.7-8.7,4.1c-1.7,1.7-2.9,3.6-4,5.7 c-0.7,1.4-1.3,2.9-1.9,4.4c-0.2,0.6-0.6,1-1.2,1.1c-0.7,0.2-1.9-0.3-2-1.4c0-0.2,0-0.4,0.1-0.6c0.6-1.6,1.2-3.2,1.9-4.7 c1-2.1,2.2-4.1,3.8-5.9c1.8-2.1,3.8-3.7,6.3-4.8c1.5-0.7,3-1.1,4.6-1.3c0.5-0.1,0.9-0.1,1.4-0.1c0,0,0.1,0,0.1,0c0.4,0,0.9,0,1.3,0 c0,0,0.1,0,0.1,0c1.1,0.1,2.3,0.3,3.3,0.7c1.9,0.7,3.6,1.8,5,3.2c1.5,1.4,2.7,3.1,3.7,4.9c1.5,2.6,2.5,5.4,3.2,8.3 c0.4,1.7,0.7,3.5,0.9,5.2c0,0.3,0.1,0.5,0.1,0.8c0,0.1,0,0.3,0,0.4c-0.1,0.3-0.2,0.5-0.3,0.8c-0.4,0.6-0.8,1.2-1.3,1.7 c-1.4,1.5-3.1,2.5-5,3.3c-2.7,1.1-5.5,1.6-8.3,1.7c-0.4,0-0.7,0-1.1,0.1C21.7,35.5,21.3,35.5,21,35.5z"/>
</svg>