<!-- (c) Carrd Inc. All rights reserved. All logos and trademarks are property of their respective owners. -->
<svg xmlns="http://www.w3.org/2000/svg" id="icon">
<path d="M19.3,0.1c0.2-0.1,0.5,0,0.6,0.2c0.1,0.2-0.1,0.4-0.2,0.6C19,2,18.4,3.3,18.2,4.7C18,4.8,18,5,18,5.1c0.1,0,0.2,0.1,0.2,0.1 c1.6-0.1,3.2-0.1,4.8,0.2c2.8,0.6,5.5,2,7.5,4.1c2,2,3.5,4.7,4,7.5c0.6,3.1,0.3,6.3-1,9.1c-2.7,5.8-7.3,10.7-12.9,13.8 c-0.2,0.1-0.4,0.1-0.6-0.1c-0.1-0.2-0.1-0.5,0.1-0.6c0.8-1.1,1.3-2.3,1.6-3.5c0.1-0.3,0.1-0.5,0.1-0.8c-0.1-0.1-0.2-0.1-0.4-0.1 c-2.7,0.3-5.5-0.2-8-1.4c-2.6-1.3-4.9-3.3-6.3-5.9c-1.4-2.3-2.1-5-2-7.7c0-2.5,0.7-4.9,1.9-7.1C9.8,7.4,14.1,2.9,19.3,0.1 M19.2,14.2c-1.6,0.2-3.1,1.2-4,2.5c-0.6,0.9-1,2-1,3.2c0,1.5,0.6,3,1.6,4.1c0.9,1,2.2,1.6,3.5,1.8c1.3,0.2,2.7-0.1,3.9-0.9 c1.2-0.7,2-1.9,2.4-3.2c0.7-2.3-0.1-4.9-2.1-6.3C22.3,14.4,20.7,14,19.2,14.2L19.2,14.2z"/>
</svg>