<!-- (c) Carrd Inc. All rights reserved. All logos and trademarks are property of their respective owners. -->
<svg xmlns="http://www.w3.org/2000/svg" id="icon">
<path d="M23.3,31.8V8.2h5.9v19H39v4.5H23.3z M19.4,29.8c-0.9,0.7-1.9,1.2-2.9,1.5c-1.1,0.3-2.4,0.4-4,0.4H3V8.2h8.3 c1.7,0,3,0.1,3.9,0.2c0.9,0.1,1.7,0.4,2.5,0.8c0.8,0.5,1.5,1.1,1.9,1.8c0.4,0.8,0.6,1.6,0.6,2.6c0,1.1-0.3,2.2-0.9,3.1 c-0.6,0.9-1.4,1.6-2.4,2v0.1c1.5,0.3,2.6,0.9,3.5,1.9c0.9,0.9,1.3,2.2,1.3,3.8c0,1.2-0.2,2.2-0.7,3.1C20.7,28.5,20.1,29.3,19.4,29.8 z M14,13.7c-0.2-0.4-0.5-0.7-0.9-0.9c-0.4-0.2-0.9-0.3-1.4-0.3c-0.5,0-2,0-3.1,0H8.2v5h0.7c1,0,2.4,0,2.8,0c0.4,0,0.8-0.1,1.3-0.3 c0.5-0.2,0.8-0.5,1-0.9c0.2-0.4,0.3-0.8,0.3-1.4C14.3,14.5,14.2,14.1,14,13.7z M15.3,22.7C15,22.3,14.6,22,14,21.8 c-0.4-0.1-0.9-0.2-1.5-0.2c-0.6,0-2.2,0-3.2,0H8.2v5.9h0.3c1.5,0,3.3,0,3.9,0c0.6,0,1.2-0.2,1.8-0.4c0.5-0.2,0.9-0.6,1.2-1 c0.2-0.4,0.4-1,0.4-1.5C15.7,23.7,15.6,23.2,15.3,22.7z"/>
</svg>