<!-- (c) Carrd Inc. All rights reserved. All logos and trademarks are property of their respective owners. -->
<svg xmlns="http://www.w3.org/2000/svg" id="icon">
<path d="M18.6,2.6c0.9,0,1.8,0,2.7,0c0.1,0,0.1,0.1,0.2,0.1C22.3,2.8,23,2.9,23.7,3c6.8,1.4,12.4,7.1,13.6,13.9 c0.1,0.6,0.2,1.2,0.3,1.8c0,0.9,0,1.8,0,2.7c-0.1,0.5-0.1,0.9-0.2,1.4c-1.4,7.2-5.6,11.9-12.6,14.1c-0.5,0.2-1,0.2-1.5,0.4 c0-0.2,0-0.4,0-0.5c0-7,0-13.9,0-20.9c0-1.2-0.9-2.1-2.1-2.1c-3.1,0-6.2,0-9.3,0c-0.1,0-0.3,0-0.4,0c0,2,0,4,0,6.1 c1.9,0,3.7,0,5.5,0c0,5.8,0,11.6,0,17.4c-0.2,0-0.4-0.1-0.6-0.1C9.5,35.9,4,30.2,2.8,23.4c-0.1-0.6-0.2-1.2-0.3-1.8 c0-0.9,0-1.8,0-2.7c0-0.1,0.1-0.1,0.1-0.2c0.1-0.7,0.2-1.4,0.3-2.1C4.3,9.7,10,4.1,16.8,2.9C17.4,2.8,18,2.7,18.6,2.6z M23.3,8.9 c0.1-1.9-1.5-3.4-3.3-3.5c-2.1-0.1-3.5,1.6-3.6,3.3c-0.1,2.1,1.7,3.5,3.4,3.6C21.7,12.4,23.3,10.8,23.3,8.9z"/>
</svg>