<!-- (c) Carrd Inc. All rights reserved. All logos and trademarks are property of their respective owners. -->
<svg xmlns="http://www.w3.org/2000/svg" id="icon">
<path d="M39.4,18.1c-0.1,0.1-0.1,0.2-0.1,0.2c-0.7,1.4-1.5,3.1-1.5,5c0,5.7-2.1,8.7-3.8,10.2c-1.7,1.6-4.3,2.9-7.3,2.9 c-2.2,0-4.4-0.6-6.2-1.8c-2.5-1.7-4.1-4.2-5.4-6.5c-1.1-1.9-2-3.4-3.2-6.3c-0.7-1.6-1.4-3.3-1.9-5.1c-0.5-1.6-0.2-2.7,0.4-3.4 c0.6-0.8,1.5-1.1,2.5-1.2c0.2,0,0.3,0,0.5,0c-0.1-0.6-0.2-1-0.2-1.5c0-1.8,1.4-3.2,3.4-3.2c0.3,0,0.5,0,0.7,0.1 c0-0.3-0.1-0.6-0.1-0.8c0-2,1.6-3.2,3.5-3.2c1.3,0,2.2,0.6,2.8,1.8c0.8-0.5,2-0.7,2.9-0.5c1.3,0.3,2.1,1.2,2.6,4 c0.2,0.9,0.4,2,0.7,2.9c0.4,1.2,0.8,2.1,1.6,3.5c0.3,0.4,0.6,0.9,0.9,1.4l0.3-0.5c0.8-1.6,2.3-3.1,4.4-3.1c0.9,0,2,0.3,2.5,1.3 c0.4,0.5,0.5,1.2,0.5,1.7C40,16.8,39.7,17.6,39.4,18.1z M23.1,11.8c-0.1-0.5-0.5-2.3-0.6-3.1c-0.1-0.8-0.2-1.5-0.4-2.2 c-0.2-0.9-0.5-1.3-1.4-1.3c-0.8,0-1.8,0.4-1.8,1.5c0,0.7,0.2,1.8,0.4,2.6c0.3,0.8,0.4,1.3,0.8,3.1c0.3,1,0.6,2,0.9,2.7 c0.4,1,0.8,1.8,1.4,2.9c0.3,0.5,0.4,0.5,1.1,0.2c0.5-0.3,1.3-0.6,1.9-0.8C24.4,15.2,23.5,13.4,23.1,11.8z M38.1,15.3 c-0.3-0.4-0.7-0.5-1.1-0.5c-1.5,0-2.5,1.1-3,2.1c-0.2,0.4-0.4,0.9-0.5,1.4c-0.3,1-0.6,1.5-1.5,2.2c-0.5,0.4-1.1,1-1.4,1.4 c-0.6,0.8-0.7,1.4-0.9,2.4c0,0.3-0.5,0.4-1.1,0.4c-0.3,0-0.5-0.1-0.5-0.6c0-0.6,0.2-1.4,0.6-2.2c0.6-1,1.2-1.6,1.9-2.1 c0.7-0.5,0.8-0.8,1-1.1c-0.6-0.8-1.2-1.6-1.6-2.4c-0.8-1.4-1.4-2.5-1.8-3.8c-0.3-1-0.6-2.2-0.8-3.1c-0.3-2-0.7-2.5-1.3-2.7 c-0.5-0.1-1.2,0-1.6,0.3C24.1,7.2,23.9,7.4,24,8c0.1,1.4,0.4,2.4,0.6,3.4c0.6,2.3,1.6,4.1,2.1,5.2c0.2,0.4,0.3,0.5,0.6,0.5 c0.4,0,0.6-0.1,0.9,0c0.3,0,0.6,0.2,0.6,0.6c0,0.3-0.1,0.4-0.7,0.5c-1,0.2-2.4,0.6-3.7,1.3c-1.1,0.6-2.1,1.4-2.9,2.5 c-0.1,0.1-0.2,0.2-0.3,0.2c-0.2,0-0.4-0.2-0.5-0.5c-0.2-0.2-0.3-0.4-0.3-0.6c0-0.2,0.1-0.4,0.3-0.6c0.3-0.4,0.7-0.7,0.7-0.9 c0-0.1-0.3-0.5-0.5-0.9c-0.4-0.7-1-2-1.4-3.1c-0.7-1.6-1.1-3.5-1.4-4.7c-0.3-1.3-0.8-1.7-1.5-1.7c-1,0-1.7,0.6-1.7,1.5 c0,0.6,0.2,1.4,0.6,2.7c0.3,0.8,0.5,1.7,0.7,2.3c0.4,1,0.8,2.1,1.2,3.1c0.4,0.8,0.9,1.8,1.2,2.3c0.1,0.3,0.4,0.7,0.4,0.9 c0,0.5-0.3,0.7-0.8,0.7c-0.3,0-0.5-0.1-0.7-0.5c-0.3-0.5-1-1.8-1.5-2.8c-0.4-0.8-1-2.3-1.3-3.3c-0.5-1.6-0.8-2.2-1.7-2.2 c-0.5,0-0.9,0.2-1.2,0.6c-0.3,0.4-0.3,1-0.1,1.8c0.5,1.7,1.2,3.3,1.8,4.9c1.2,2.8,2,4.2,3.1,6.1c1.4,2.3,2.7,4.5,4.9,6 c1.6,1,3.5,1.6,5.3,1.6c2.6,0,4.8-1.1,6.1-2.4c1.4-1.3,3.2-3.8,3.2-9c0-2.3,1-4.4,1.6-5.7c0.2-0.3,0.5-1,0.5-1.6 C38.3,15.9,38.2,15.6,38.1,15.3z M8.8,25.7c-0.6,0.4-3.8,2-4.5,2.3c-0.5,0.2-1.1,0.1-1.4-0.8c-0.4-1.2,0.2-1.5,1-1.8 c0.7-0.3,3.7-1.3,4.3-1.5c0.5-0.1,0.8,0,1,0.6C9.5,25.1,9.3,25.3,8.8,25.7z M6.6,11.8c-1-0.3-3.9-2.1-4.6-2.5 C1.3,8.9,1.2,8.5,1.6,7.6C2.1,6.8,2.5,6.6,3.2,7C4,7.4,6.9,9.6,7.4,10.1c0.5,0.4,0.5,0.6,0.2,1.2C7.3,11.8,7.1,11.9,6.6,11.8z M7,18.1c-0.1,0.7-0.4,0.8-0.8,0.8c-0.9,0-4.4-0.1-5.2-0.2c-0.7-0.1-1-0.4-0.9-1.4c0.1-1.1,0.5-1.2,1.2-1.1c0.8,0.1,4.5,0.7,5.1,0.9 C6.9,17.3,7,17.6,7,18.1z"/>
</svg>