<!-- (c) Carrd Inc. All rights reserved. All logos and trademarks are property of their respective owners. -->
<svg xmlns="http://www.w3.org/2000/svg" id="icon">
<path d="M34.7,31.8c-3.5,1.9-7.1,3.7-10.6,5.6c-1.3,0.7-2.5,1.4-3.8,2.1c-0.2,0-0.3,0-0.5,0c-0.1-0.1-0.3-0.2-0.4-0.3 c-3.1-1.7-6.3-3.3-9.4-5c-1.7-0.9-3.5-1.8-5.2-2.6c0-8.7,0-17.4,0-26.1c0.3,0,0.6,0,0.9,0c9.3,0,18.6,0,27.9,0c0.6,0,1.1,0,1.7,0 c0,8.6,0,17.3,0,25.9C35.1,31.6,34.9,31.7,34.7,31.8z M9.1,9.9c0,0.4,0,0.6,0,0.9c0,5.6,0,11.2,0,16.8c0,1,0.3,1.5,1.2,1.9 c0.1,0,0.2,0.1,0.3,0.1c2.8,1.5,5.6,2.9,8.4,4.4c0.8,0.4,1.3,0.4,2,0c3.1-1.7,6.2-3.3,9.4-4.9c0.5-0.2,0.6-0.5,0.6-1 c0-5.8,0-11.6,0-17.4c0-0.3,0-0.5,0-0.8C23.6,9.9,16.4,9.9,9.1,9.9z M24.9,28.3c0,0.5-0.1,0.8-0.7,0.7c-0.7,0-1.4,0-2.1,0 c-0.6,0-0.9-0.1-0.9-0.8c0.1-0.6,0-1.3,0-2c-1.6,0-3.2,0-4.7,0c-0.7,0-1.4,0-2.2,0c-0.7,0-0.9-0.4-0.6-1c1.2-2.6,2.4-5.2,3.7-7.8 c0.8-1.6,1.5-3.3,2.3-5.1c1.1,0.4,2.2,0.8,3.4,1.2c-1.5,3.2-2.8,6.3-4.2,9.4c0.8,0,1.5,0,2.3,0c0-0.7,0-1.4,0-2 c0-0.2,0.3-0.6,0.5-0.6c1-0.1,2,0,3.1,0c0,0.9,0,1.7,0,2.6c0.5,0,0.9,0.1,1.3,0.1c0,1.1,0,2.1,0,3.2c-0.4,0-0.8,0-1.3,0.1 C24.9,26.9,24.9,27.6,24.9,28.3z"/>
</svg>