<!-- (c) Carrd Inc. All rights reserved. All logos and trademarks are property of their respective owners. -->
<svg xmlns="http://www.w3.org/2000/svg" id="icon">
<path d="M10.6,3c0.4,0,0.8,0,1.3,0c0.1,0,0.2,0.1,0.3,0.1c2.4,0.5,4,1.9,4.8,4.2C17,7.4,17,7.5,17,7.6c0,0,0.1-0.1,0.1-0.1 c0-0.1,0.1-0.2,0.1-0.4c0.7-2,2-3.3,4-3.9c0.3-0.1,0.7-0.2,1.1-0.3c0.4,0,0.8,0,1.2,0c0.1,0,0.1,0.1,0.2,0.1 c3.9,0.6,5.9,4.6,4.7,7.7c-0.3,0.7-0.4,1.5-0.6,2.2c0.2,0.1,0.3,0.1,0.4,0.1c1.2,0.4,2.1,1.1,2.7,2.2c0.2,0.3,0.3,0.4,0.7,0.4 c1.8-0.1,3.3,0.7,4.3,2.2c0.4,0.7,0.6,1.4,0.9,2.2c0,0.5,0,0.9,0,1.4c-0.4,1.5-0.8,3.1-1.3,4.6c-0.4,1.4-1.1,2.5-2.5,3.2 c-0.1,0.1-0.2,0.2-0.3,0.4c-1.5,4.6-4.7,7.5-9.3,8.8c-0.8,0.2-1.7,0.3-2.6,0.5c-0.7,0-1.4,0-2,0c-0.9-0.2-1.8-0.3-2.7-0.5 c-5.2-1.3-9-5.5-9.5-10.9c-0.2-1.8-0.1-3.7-0.1-5.5c0-1.5,0.4-2.7,1.3-3.9c0.1-0.1,0.2-0.4,0.1-0.5C7,15,6.2,12.3,5.4,9.6 c0-0.4,0-0.8,0-1.3c0-0.2,0.1-0.3,0.1-0.5c0.4-2,1.5-3.5,3.5-4.3C9.5,3.3,10.1,3.2,10.6,3z M19.8,26c0.8,1.1,0.8,2.3,0.8,3.5 c0,0.6-0.4,1-1,1c-0.5,0-0.9-0.4-0.9-1c0-0.4,0-0.8,0-1.3c-0.1-1.4-1.1-2.3-2.5-2.3c-0.2,0-0.5,0-0.7,0c-0.5-0.1-0.8-0.4-0.8-0.9 c0-0.4,0.3-0.8,0.7-1c0.2,0,0.3,0,0.5,0c1.6,0,3.2,0,4.8,0c1.1,0,1.9-0.6,2.1-1.6c0.3-1.5-0.6-2.5-2.1-2.5c-2.9,0-5.7,0-8.6,0 c-1.4,0-2.1,0.7-2.1,2.1c0,1.4,0,2.8,0,4.2c0,2.9,1.2,5.3,3.5,7c3.1,2.4,8.1,2.6,11.5,0.5c2.1-1.3,3.4-3,4-5.4c0-0.1,0-0.4-0.1-0.5 c-0.5-0.3-0.9-0.6-1.4-0.9c-0.1,0.1-0.2,0.2-0.3,0.3c-1.8,1.8-4.8,1.4-6-0.9c-0.3-0.5-0.5-0.6-1-0.6C20.2,26,20.1,26,19.8,26z M22.3,18.2c0,0,0,0.1,0,0.1C22.3,18.3,22.4,18.2,22.3,18.2c0.9-2.9,1.8-5.8,2.6-8.8c0.3-1.2-0.5-2.3-1.7-2.6 c-1.1-0.2-2.1,0.5-2.4,1.6c-0.4,1.2-0.7,2.4-1.1,3.7c-0.4,1.2-0.7,2.4-1.1,3.6c-0.3,1.1-1.4,1.5-2.3,1.1c-0.5-0.3-0.7-0.7-0.9-1.2 c-0.7-2.4-1.4-4.7-2.1-7.1c-0.4-1.3-1.5-2-2.7-1.6C9.5,7.2,8.9,8.3,9.3,9.6c0.8,2.7,1.5,5.3,2.3,8c0.1,0.4,0.3,0.5,0.6,0.5 c2.3,0,4.7,0,7,0C20.3,18.1,21.3,18.1,22.3,18.2z M22.8,25.4c0,0.1,0,0.2,0.1,0.2c0.4,0.7,1,1.1,1.8,1c0.9-0.1,1.5-0.6,1.7-1.5 c0.6-2.1,1.2-4.2,1.8-6.3c0.3-1.1-0.2-2.1-1.2-2.4c-1-0.3-2.1,0.2-2.4,1.3c-0.2,0.5-0.3,1-0.5,1.6c0,0.2,0,0.5,0.1,0.7 c0.6,1,0.6,2,0.3,3.1C24.3,24,23.7,24.8,22.8,25.4z M33.1,21.4c0-1-0.6-1.7-1.4-1.9c-0.8-0.1-1.7,0.3-1.9,1.2 c-0.4,1.2-0.7,2.4-1,3.6c-0.2,0.7,0.2,1.5,0.9,1.8c0.7,0.4,1.4,0.3,1.9-0.2c0.3-0.3,0.5-0.7,0.6-1.1c0.3-0.9,0.5-1.7,0.8-2.6 C33,21.8,33.1,21.5,33.1,21.4z"/>
</svg>