<!-- (c) Carrd Inc. All rights reserved. All logos and trademarks are property of their respective owners. -->
<svg xmlns="http://www.w3.org/2000/svg" id="icon">
<path d="M5.2,19.9c0-2.7,0.7-5.3,2-7.6s3.2-4.2,5.4-5.5s4.8-2,7.5-2c4.1,0,7.7,1.5,10.6,4.5s4.4,6.6,4.4,10.8c0,2.7-0.6,5.2-1.9,7.4 c-1.3,2.3-3,4.1-5.2,5.5c0,0,0.1,0.1,0.1,0.2c0.1,0.1,0.2,0.3,0.4,0.5c0.2,0.3,0.4,0.5,0.7,0.7c0.3,0.2,0.6,0.5,1.1,0.7 c0.5,0.2,1,0.4,1.5,0.6v2.6c-0.8,0.2-1.6,0.2-2.3,0.2c-1.1,0-2.1-0.2-2.9-0.6c-1.3-0.7-2.3-1.7-3.1-3.2c-1.1,0.3-2.3,0.4-3.5,0.4 c-2.7,0-5.2-0.7-7.5-2c-2.3-1.4-4.1-3.2-5.5-5.5S5.2,22.6,5.2,19.9L5.2,19.9z M12.7,21.8c0,2.6,0.7,4.8,2.2,6.7 c1.5,1.9,3.3,2.8,5.4,2.8c0.6,0,1.2-0.1,1.8-0.3c0-0.1-0.1-0.2-0.2-0.3s-0.2-0.3-0.5-0.6c-0.2-0.3-0.5-0.6-0.8-0.8 c-0.3-0.2-0.6-0.5-1-0.7c-0.4-0.2-0.8-0.3-1.2-0.3v-3c0.2,0,0.4,0,0.7,0c2.7,0,5,1,6.8,3c1.4-1.8,2.1-4,2.1-6.5v-3.9 c0-2.6-0.7-4.8-2.2-6.7c-1.5-1.9-3.3-2.8-5.4-2.8s-3.9,0.9-5.4,2.8s-2.2,4.1-2.2,6.7C12.7,17.9,12.7,21.8,12.7,21.8z"/>
</svg>