<!-- (c) Carrd Inc. All rights reserved. All logos and trademarks are property of their respective owners. -->
<svg xmlns="http://www.w3.org/2000/svg" id="icon">
<path d="M35.4,17.5c-0.2,2.2-1.1,4.2-2.4,6c-1.3,1.8-2.9,3.2-4.8,4.2c-1.2,0.6-2.4,1.1-3.7,1.5 c-1.9,0.5-3.9,0.7-5.9,0.5c-1.3-0.1-2.5-0.3-3.8-0.7c-0.5-0.1-0.9-0.3-1.4-0.5c-0.2-0.1-0.3-0.1-0.5,0c-1.1,0.3-2.2,0.5-3.2,0.8 c-1.1,0.3-2.1,0.5-3.2,0.8c-0.3,0.1-0.6,0.2-0.9,0.2c0,0-0.1,0-0.2,0c0.1-0.2,0.1-0.5,0.2-0.7c0.2-1,0.5-1.9,0.7-2.9 c0.2-0.9,0.5-1.8,0.7-2.8c0-0.2,0-0.3-0.1-0.5c-0.6-0.8-1-1.6-1.4-2.4c-0.4-0.8-0.6-1.7-0.8-2.6c-0.2-1.2-0.3-2.3-0.2-3.5 c0.1-1.1,0.4-2.2,0.8-3.3c0.9-2.4,2.5-4.3,4.5-5.9c1.5-1.1,3.1-1.9,4.8-2.5c1.6-0.5,3.2-0.8,4.8-0.8c1.5,0,3,0.1,4.4,0.4 c2.2,0.5,4.2,1.4,5.9,2.7c1.9,1.4,3.4,3.1,4.4,5.2C35.3,12.9,35.7,15.2,35.4,17.5z M25.3,15.8c0-0.5-0.3-0.7-0.7-0.8 c-0.1,0-0.2-0.1-0.2-0.2c0-0.5,0-1,0-1.5c0-1.8-0.9-3.2-2.5-4c-1.6-0.8-3.5-0.5-4.8,0.7c-1,0.9-1.5,2-1.5,3.4c0,0.5,0,1,0,1.5 c0,0.1,0,0.2-0.2,0.2c-0.4,0-0.7,0.3-0.7,0.7c0,2,0,4.1,0,6.1c0,0.3,0.1,0.5,0.3,0.6c0.2,0.1,0.4,0.1,0.5,0.1c1.5,0,2.9,0,4.4,0 c1.5,0,3,0,4.4,0c0.6,0,0.8-0.3,0.8-0.8c0-1.9,0-3.8,0-5.7C25.3,16,25.3,15.9,25.3,15.8z M22.4,15c-0.8,0-1.6,0-2.4,0 c-0.8,0-1.6,0-2.4,0c-0.2,0-0.2-0.1-0.2-0.2c0-0.5,0-1,0-1.5c0-1.2,0.8-2.3,2-2.6c1-0.2,1.8,0.1,2.5,0.8c0.5,0.5,0.7,1.1,0.7,1.8 c0,0.5,0,1,0,1.4C22.6,15,22.6,15,22.4,15z M10.5,33.3c1.4,0,2.6,1.2,2.6,2.6c0,1.4-1.2,2.6-2.6,2.6c-1.4,0-2.6-1.2-2.6-2.6 C7.9,34.4,9.1,33.3,10.5,33.3z M20,33.3c1.4,0,2.6,1.2,2.6,2.6c0,1.4-1.2,2.6-2.6,2.6c-1.4,0-2.6-1.2-2.6-2.6 C17.4,34.4,18.6,33.3,20,33.3z M29.5,33.3c1.4,0,2.6,1.2,2.6,2.6c0,1.4-1.2,2.6-2.6,2.6c-1.4,0-2.6-1.2-2.6-2.6 C26.9,34.5,28.1,33.3,29.5,33.3z"/>
</svg>