<!-- (c) Carrd Inc. All rights reserved. All logos and trademarks are property of their respective owners. -->
<svg xmlns="http://www.w3.org/2000/svg" id="icon">
<path d="M32,19.2c5.5-0.1,1.4-4.8-1.1-5.9c0,0,3.3-7.8,3-8c0,0-4,7.7-4,7.7c-2-0.8-4-1.2-6.2-1.5c-2.5-5.1-5.2-7.7-7.3-7.3 C14.2,4.5,13,6,12.8,9.8c-3.3-3.5-5,1.3-4.6,4.3c-3.9,0.2-6.8,2.7-6.8,2.7s4.6-1.8,6.9-1.7c0.1,2.3,0.7,4.3,1.7,6.4 c-4.1,6-5.6,14.4,4.3,10.1c-1.4,3.8,1.8,3.8,5.8,1.8l4.8,5.6L21,32.7c1.9-1.4,3.2-2.9,4.6-4.9C36.9,28.6,39.2,24.4,32,19.2L32,19.2z M21.6,11.3c-3.2-0.1-6.2,1.6-6.2,1.6C15.6,7.1,18.5,5.8,21.6,11.3z M12.9,14.1L10.2,14c-0.4-2,1-4.1,2.5-2.8 C12.4,11.7,12.8,13.5,12.9,14.1z M11,23.1c2.7,4.5,3.7,4.7,3.7,4.7C9.8,29.9,8.4,28,11,23.1z M17.7,29.2l1.4,2.5 C15.8,33.3,13.6,31.5,17.7,29.2z M20.1,31c-0.3-0.8-0.6-1.2-0.9-1.9c1-0.5,3.1-1.2,3.1-1.2s-2.4,0.2-3,0.3c2.3-1.6,7.6-8.1,7.6-8.1 l-1.5-0.8c-2.8,3.1-5.5,5.8-9.2,8c-4.8-5.3-5.4-8.1-6-12.1c0,0,1.8,0.1,2.5,0.2c-0.3,1.2-0.6,3.6-0.6,3.6s0.4-2.1,1.2-3 c0.7,3.6,3.1,10.5,3.1,10.5l1.4-1c-1.1-4-2.2-7.8-2.3-12c5.1-1.9,9.7-0.6,13.3,1.1c-0.5,0.6-1.4,1.8-1.4,1.8s-1.5-1.8-2.9-2.4 c0.9,0.9,1.8,1.9,2.2,2.8c-3.5-1.1-10.7-2.5-10.7-2.5l0,1.6c4.1,0.8,7.9,2.1,11.6,4C26.1,25.1,24.1,28.6,20.1,31L20.1,31z M26.4,26.4c1-1.9,1.9-4.2,2.1-6C32.4,23.3,33.4,26.1,26.4,26.4z M31,18.7l-2.5-1.1c0,0,1-1.6,1.5-2.3C32.8,17.4,32.1,18.4,31,18.7 L31,18.7L31,18.7z"/>
</svg>