<!-- (c) Carrd Inc. All rights reserved. All logos and trademarks are property of their respective owners. -->
<svg xmlns="http://www.w3.org/2000/svg" id="icon">
<path d="M16.6,39c-0.2,0-0.4,0-0.7,0c1.8-5.3,3.5-10.6,5.3-16.1c-6.5,0-12.8,0-19.1,0c0-0.2,0-0.4,0-0.7c0.3-0.2,0.6-0.4,0.9-0.6 C9.6,15.1,16.2,8.5,22.8,1.9C23,1.6,23.2,1.3,23.4,1c0.2,0,0.4,0,0.7,0c-1.7,5.3-3.5,10.6-5.2,16.1c6.5,0,12.7,0,19,0 c0,0.2,0,0.4,0,0.7c-0.4,0.3-0.9,0.7-1.2,1c-6.3,6.3-12.7,12.7-19,19C17.2,38.2,16.9,38.6,16.6,39z"/>
</svg>