<!-- (c) Carrd Inc. All rights reserved. All logos and trademarks are property of their respective owners. -->
<svg xmlns="http://www.w3.org/2000/svg" id="icon">
<path d="M39.7,32.8c-3,0-5.9,0-8.9,0c-1.6-2.5-3.2-5-4.8-7.5c-0.1-0.2-0.2-0.3,0-0.5c1.4-2.2,2.9-4.5,4.3-6.8 c0-0.1,0.1-0.1,0.2-0.3c0.6,0.9,1.1,1.8,1.7,2.7c2.6,4.1,5.1,8.1,7.7,12.1c0,0.1,0.1,0.1,0.2,0.2C39.9,32.7,39.8,32.8,39.7,32.8z M27.3,21.1c-0.6,0.9-1.1,1.7-1.7,2.6c-0.1,0.1-0.1,0.2-0.2,0.3c-0.7-1.2-1.4-2.3-2.1-3.3c-0.8-1.2-1.5-2.4-2.3-3.6 c-0.1-0.1-0.1-0.4,0-0.5c1.3-2,2.5-4,3.8-6c0.2-0.3,0.4-0.6,0.6-1c0.4,0.6,0.8,1.2,1.1,1.8c1.1,1.7,2.2,3.5,3.3,5.2 c0.2,0.3,0,0.4-0.1,0.6C28.9,18.5,28.1,19.8,27.3,21.1z M18.7,14.5c-1.1-1.7-2.2-3.5-3.3-5.2c-0.2-0.3-0.2-0.4,0-0.7 c1.5-2.4,3-4.8,4.6-7.2c0,0,0.1-0.1,0.2-0.2c1.6,2.6,3.3,5.1,4.9,7.7c-1.6,2.6-3.2,5.1-4.9,7.7C19.6,15.9,19.2,15.2,18.7,14.5z M19.1,16.6c0.1,0.2,0.1,0.4,0,0.6c-1.3,2.1-2.6,4.1-3.9,6.2c-0.1,0.2-0.3,0.4-0.5,0.7c-1.6-2.4-3.1-4.8-4.6-7.2 c1.5-2.4,3-4.7,4.6-7.2c0.4,0.5,0.7,1,1,1.5C16.8,13,18,14.8,19.1,16.6z M14,24.7c0.1,0.2,0.1,0.4,0,0.6c-1.6,2.5-3.2,5-4.8,7.5 c-3,0-5.9,0-8.9,0c-0.1,0-0.2-0.1-0.3-0.1c0.4-0.6,0.8-1.1,1.1-1.7c2.7-4.3,5.5-8.7,8.2-13c0.1-0.1,0.1-0.2,0.2-0.3 c0.6,1,1.2,1.9,1.8,2.8C12.2,21.9,13.1,23.3,14,24.7z"/>
</svg>