<!-- (c) Carrd Inc. All rights reserved. All logos and trademarks are property of their respective owners. -->
<svg xmlns="http://www.w3.org/2000/svg" id="icon">
<path d="M39.8,25.9c-0.2,0.6-0.4,1.1-0.7,1.7c-4.6-2.8-9.2-5.5-13.8-8.3c0.1-0.1,0.2-0.1,0.3-0.1 c1.5-0.6,2.9-1.2,4.4-1.8c1.1-0.4,2.2-0.7,3.4-0.6c1.8,0.1,3.4,0.7,4.9,1.8c0.1,0.1,0.2,0.3,0.3,0.4c0.7,1,1.2,2.1,1.4,3.3 c0,0,0,0,0,0c0,1,0,2,0,3C39.9,25.5,39.9,25.7,39.8,25.9z M28.8,16.2c-1.7,0.7-3.4,1.4-5.1,2.1c-0.1,0-0.1,0-0.2,0 c-2.8-1.6-5.5-3.3-8.3-4.9c-1-0.6-2-1.1-3.2-1.3c-0.7-0.2-1.5-0.2-2.2-0.2c0,0-0.1,0-0.1,0c0.1-0.2,0.2-0.3,0.3-0.5 c1.9-2.6,4.4-4.2,7.5-4.9c0.7-0.2,1.4-0.2,2.1-0.3c0,0,0.1,0,0.1,0c0.3,0,0.7,0,1,0c0.1,0,0.3,0,0.4,0c2.6,0.2,4.8,1.1,6.9,2.7 c2.2,1.7,3.6,4,4.4,6.7c0,0,0,0.1,0,0.1c-0.1,0-0.2,0-0.3,0C31,15.5,29.9,15.7,28.8,16.2z M21.7,19c0,0,0.1,0,0.1,0.1 c-6.7,2.8-13.4,5.7-20.2,8.5c0,0-0.1-0.1-0.1-0.1c-0.8-1.1-1.3-2.4-1.5-3.7c0-0.1,0-0.2-0.1-0.2c0-1.1,0-2.3,0-3.4 c0-0.2,0.1-0.3,0.1-0.5c0.3-1.5,1-2.8,1.9-4c0.3-0.4,0.7-0.6,1-0.9c1.2-0.9,2.6-1.4,4.1-1.6c2.4-0.4,4.7,0.1,6.8,1.3 C16.6,15.9,19.1,17.5,21.7,19z M23.6,19.9c0.1,0,0.1,0,0.2,0c4.8,2.9,9.7,5.8,14.5,8.7c0,0,0.1,0,0.1,0.1c-0.2,0.2-0.3,0.4-0.5,0.6 c-1.1,1.2-2.5,2-4,2.3c-0.4,0.1-0.7,0.1-1.1,0.2c-0.1,0-0.2,0-0.3,0c-7.7,0-15.4,0-23,0c-0.1,0-0.2,0-0.3,0c-1-0.1-1.9-0.3-2.8-0.7 c-1-0.4-1.9-0.9-2.8-1.6c-0.3-0.2-0.5-0.5-0.8-0.7c0,0,0,0-0.1-0.1c0.1,0,0.1-0.1,0.2-0.1C9.7,25.8,16.6,22.8,23.6,19.9z"/>
</svg>