<!-- (c) Carrd Inc. All rights reserved. All logos and trademarks are property of their respective owners. -->
<svg xmlns="http://www.w3.org/2000/svg" id="icon">
<path d="M24.4,14.1c0-3.5,0-7.1,0-10.6c0.3-0.1,6.8-1.5,7-1.5c0,0.1,0,0.2,0,0.3c0,0.6,0,1.2,0,1.7c0.1,10.5,0,21.1,0,31.6 c0,0.1,0,0.2,0,0.3c-2.3,0-4.6,0-7,0c0-0.4,0-0.9,0-1.3c0-0.4,0-0.9,0-1.3c-0.1,0-0.1,0.1-0.2,0.1c-0.5,0.4-1,0.8-1.6,1.2 c-1.1,0.7-2.3,1.2-3.6,1.3C18.8,36,18.4,36,18,36c-0.6,0-1.2,0-1.8,0c-0.5,0-1.1-0.1-1.6-0.2c-1-0.2-2-0.6-2.9-1.1 c-0.8-0.4-1.5-1-2.1-1.6c-0.9-0.8-1.7-1.8-2.4-2.8c-0.8-1.3-1.3-2.7-1.6-4.2c-0.1-0.5-0.2-1.1-0.2-1.6c0-0.5,0-0.9,0-1.4 c0.1-2.9,1.2-5.5,3.1-7.7c0.7-0.8,1.4-1.5,2.2-2.1c1.4-1,2.9-1.7,4.6-2c0.9-0.2,1.8-0.2,2.7-0.2c1,0,1.9,0.2,2.9,0.5 c1.1,0.4,2.1,1,2.9,1.8C23.9,13.6,24.2,13.8,24.4,14.1C24.4,14.1,24.4,14.1,24.4,14.1z M18.8,29.5c0.6,0,1.1,0,1.6-0.2 c1.2-0.3,2.1-1,2.9-1.9c1-1.3,1.4-2.8,1.3-4.4c-0.1-1.1-0.5-2.1-1.1-3c-1.1-1.6-2.7-2.4-4.6-2.6c-0.5,0-0.9,0-1.3,0.1 c-0.8,0.2-1.6,0.5-2.3,0.9c-2,1.3-3.1,3.8-2.6,6.2c0.2,1,0.6,1.9,1.3,2.7c0.7,0.8,1.5,1.3,2.5,1.7C17.2,29.4,18.1,29.5,18.8,29.5z"/>
</svg>