<!-- (c) Carrd Inc. All rights reserved. All logos and trademarks are property of their respective owners. -->
<svg xmlns="http://www.w3.org/2000/svg" id="icon">
<path d="M33.3,32c-0.5,0.3-1.1,0.8-1.2,1.4c-1,2.9-3,4.5-6.2,4.5C23,38,22.2,38.2,20,40c-1.6-1.7-3.6-2.1-5.7-2.1 C11,37.9,9,36.3,8,33.2c-0.1-0.5-0.6-1-1-1.2c-2.4-1.1-3.5-3-3.4-5.6c0.1-1.4,0-2.9,0-4.5c1.4,0.7,2.7,1.3,4.1,1.9 c0.3-1.3,0.2-2.2-0.8-3c-3.5-3-3.7-8.4-0.6-12C6.5,8.6,6.7,8.3,7,8C4.3,5.8,5.8,2.9,5.3,0c0.6,0.3,1,0.4,1.4,0.6 c3.4,1.7,6.8,3.5,10.3,5.1c1.3,0.6,2.5,1.4,2.9,2.9c0.2,0,0.3,0,0.3-0.1c0.6-1.7,1.9-2.4,3.4-3.1c3.3-1.6,6.6-3.3,9.9-4.9 C33.7,0.5,34,0.3,34.7,0c-0.4,2.8,1,5.7-1.6,8c0.2,0.2,0.3,0.5,0.5,0.7c3.4,3.7,3.2,9-0.6,12.3c-0.9,0.8-1,1.7-0.7,2.9 c1.3-0.6,2.6-1.2,3.9-1.9c0.1,0.4,0.1,0.6,0.1,0.9c0,1.3,0,2.7,0,4C36.5,29.3,35.4,30.9,33.3,32z M12.6,8.9c-3.2,0-5.7,2.5-5.7,5.6 c0,3.1,2.6,5.7,5.7,5.7c3.1,0,5.6-2.6,5.6-5.7C18.2,11.4,15.7,8.9,12.6,8.9z M20.9,17.2c-0.5-0.3-1.4-0.2-1.9,0 c-0.7,0.3-1,1.1-0.7,1.9c0.4,1,1,1.9,1.5,2.9c0.2,0,0.3,0,0.5,0c0.5-1,1.1-2,1.4-3.1C21.8,18.4,21.4,17.5,20.9,17.2z M33.1,14.6 c0-3.2-2.4-5.7-5.5-5.7c-3.3,0-5.8,2.5-5.8,5.7c0,3,2.7,5.6,5.7,5.7C30.5,20.2,33.1,17.7,33.1,14.6z M34.9,24.3 c-0.5,0.2-0.9,0.4-1.3,0.5c-3.7,1.8-7.3,3.6-11,5.5c-1,0.5-1.9,1.3-2.6,1.9c-1-0.6-2.1-1.5-3.2-2.1c-3.5-1.8-7-3.5-10.5-5.3 c-0.3-0.2-0.7-0.3-1.3-0.5c0,1.1,0,2,0,2.9C5,28.7,5.7,29.8,7,30.5c4.1,2.1,8.2,4.1,12.3,6.1c0.4,0.2,1,0.2,1.3,0 c4.1-2,8.2-4.1,12.3-6.1c1-0.5,1.8-1.3,2-2.4C35.1,27,34.9,25.7,34.9,24.3z M27.4,19.1c-1.3,0-2.2-0.9-2.1-2.3 c0-1.4,0.9-2.2,2.2-2.2c1.4,0,2.3,0.9,2.3,2.3C29.7,18.2,28.8,19.1,27.4,19.1z M12.6,19.1c-1.2,0-2.1-1.4-2.1-2.5c0-1.1,0.9-2,2.2-2 c1.3,0,2.3,1,2.3,2.2C14.9,18.1,13.9,19.1,12.6,19.1z"/>
</svg>