<!-- (c) Carrd Inc. All rights reserved. All logos and trademarks are property of their respective owners. -->
<svg xmlns="http://www.w3.org/2000/svg" id="icon">
<path d="M37.1,21.7c-1.3,3.2-2.6,6.4-3.9,9.6c-0.4,0.9-1,1.6-2,2c-3.4,1.4-6.7,2.7-10.1,4.1c-0.8,0.3-1.6,0.3-2.3,0 c-3.4-1.4-6.7-2.8-10.1-4.2c-0.9-0.4-1.6-1-1.9-2c-1.4-3.3-2.7-6.7-4.1-10c-0.3-0.8-0.3-1.6,0-2.4c1.4-3.3,2.7-6.7,4.1-10 c0.4-1,1.1-1.6,2-2c3.3-1.4,6.7-2.7,10-4.1c0.8-0.3,1.6-0.3,2.3,0c3.4,1.4,6.7,2.8,10.1,4.1c1,0.4,1.6,1.1,2,2.1 c1.3,3.3,2.7,6.5,4,9.8c0.2,0.4,0.3,0.8,0.3,1.3C37.5,20.6,37.3,21.2,37.1,21.7z M30.4,31c0.3-0.1,0.5-0.3,0.6-0.6 c0.7-1.7,1.4-3.5,2.2-5.2c0.1-0.3,0.3-0.6,0.4-1c-0.1,0-0.1,0-0.1,0.1c-1.9,1.1-3.9,2.2-5.8,3.3c-0.1,0-0.1,0.1-0.2,0.2 c-1.1,1.9-2.2,3.8-3.3,5.8c0,0,0,0.1-0.1,0.1C26.2,32.8,28.3,31.9,30.4,31z M14.4,21.6c0,1.1,0,2.1,0,3.2c0,0.5,0.4,0.9,0.9,0.9 c3.1,0,6.2,0,9.4,0c0.1,0,0.1,0,0.2,0c0.5-0.1,0.7-0.4,0.7-1c0-1.5,0-3.1,0-4.6c0-0.5,0-0.9,0-1.4c0-1.1,0-2.2,0-3.3 c0-0.6-0.5-0.9-1-0.9c-3.1,0-6.2,0-9.3,0c-0.5,0-1,0.4-1,1C14.4,17.5,14.4,19.5,14.4,21.6z M19.2,34.7c0.1,0.2,0.3,0.4,0.6,0.5 c0.5,0.1,0.8,0,1.1-0.5c1.3-2.2,2.6-4.4,3.8-6.6c0,0,0-0.1,0.1-0.2c-3.2,0-6.3,0-9.5,0c0,0.1,0.1,0.1,0.1,0.1 c0.8,1.3,1.5,2.6,2.3,3.9C18.1,32.9,18.6,33.8,19.2,34.7z M6.4,24.2c0.9,2.1,1.7,4.2,2.6,6.2c0.1,0.3,0.3,0.5,0.6,0.6 c1.5,0.6,3.1,1.3,4.6,1.9c0.5,0.2,1.1,0.5,1.7,0.7c0-0.1-0.1-0.1-0.1-0.2c-1.1-1.9-2.2-3.8-3.3-5.7c0-0.1-0.1-0.2-0.2-0.2 c-1.3-0.8-2.6-1.5-3.9-2.3C7.7,24.9,7,24.5,6.4,24.2C6.4,24.2,6.4,24.2,6.4,24.2z M5.2,20.8c2,1.1,4,2.3,6.1,3.5 c0.2,0.1,0.5,0.3,0.8,0.4c0-3.2,0-6.3,0-9.5c-0.1,0-0.1,0-0.1,0.1c-2.2,1.3-4.4,2.6-6.7,3.8C4.6,19.6,4.6,20.5,5.2,20.8z M9.6,9 C9.3,9.1,9.1,9.3,8.9,9.7c-0.5,1.2-1,2.4-1.5,3.6c-0.4,0.9-0.7,1.7-1.1,2.7c0.1,0,0.1,0,0.1-0.1c1.9-1.1,3.9-2.2,5.8-3.3 c0.1,0,0.1-0.1,0.2-0.2c1.1-1.9,2.2-3.8,3.3-5.7c0,0,0-0.1,0.1-0.2C13.7,7.3,11.7,8.1,9.6,9z M20.8,5.3c-0.1-0.2-0.3-0.4-0.5-0.4 c-0.5-0.1-0.8,0-1.1,0.5c-1,1.7-1.9,3.4-2.9,5c-0.3,0.6-0.7,1.1-1,1.7c3.2,0,6.3,0,9.5,0c-0.1-0.2-0.2-0.3-0.3-0.5 C23.2,9.5,22,7.4,20.8,5.3z M33.5,15.7c-0.8-2-1.7-4-2.5-6c-0.1-0.4-0.4-0.6-0.7-0.8c-1.7-0.7-3.4-1.4-5-2.1 c-0.4-0.2-0.7-0.3-1.1-0.5c0,0.1,0,0.1,0.1,0.1c1.1,1.9,2.2,3.9,3.3,5.8c0,0.1,0.1,0.1,0.2,0.2c1.7,1,3.4,2,5.1,2.9 c0.3,0.1,0.5,0.3,0.8,0.5C33.5,15.8,33.5,15.8,33.5,15.7z M34.7,19.2c-2.2-1.3-4.4-2.5-6.5-3.8c-0.1,0-0.2-0.1-0.2-0.1 c0,3.2,0,6.3,0,9.4c0,0,0,0,0.1,0c2.3-1.3,4.5-2.6,6.8-3.9c0.2-0.1,0.4-0.3,0.4-0.5C35.3,19.8,35.1,19.5,34.7,19.2z" />
</svg>