<!-- (c) Carrd Inc. All rights reserved. All logos and trademarks are property of their respective owners. -->
<svg xmlns="http://www.w3.org/2000/svg" id="icon">
<path d="M32.6,30.6c0-0.7,0-1.4,0-2.2c2.4,0,4.8,0,7.3,0c0,0.7,0,1.5,0,2.2C37.4,30.6,35,30.6,32.6,30.6z M33,27.8 c-0.1,0-0.2,0-0.4,0c0-0.7,0-1.4,0-2.1c0.1,0,0.1,0,0.1,0c2.4,0,4.7,0,7.1,0c0,0.7,0,1.5,0,2.2c-0.1,0-0.2,0-0.4,0 C37.3,27.8,35.1,27.8,33,27.8z M32.6,25c0-0.7,0-1.4,0-2.2c2.4,0,4.8,0,7.2,0c0,0.7,0,1.5,0,2.2c-2.3,0-4.6,0-6.9,0 C32.8,25,32.7,25,32.6,25z M32.6,22.2c0-0.7,0-1.4,0-2.1c0.1,0,0.1,0,0.1,0c2.4,0,4.7,0,7.1,0c0,0.7,0,1.4,0,2.1c-2.4,0-4.7,0-7.1,0 C32.7,22.2,32.7,22.2,32.6,22.2z M32.6,19.4c0-0.7,0-1.4,0-2.2c2.4,0,4.8,0,7.2,0c0,0.7,0,1.5,0,2.2c-2.3,0-4.5,0-6.8,0 C32.9,19.4,32.8,19.4,32.6,19.4z M32.6,14.4c0.1,0,0.2,0,0.4,0c2.2,0,4.3,0,6.5,0c0.1,0,0.2,0,0.4,0c0,0.7,0,1.5,0,2.2 c-2.4,0-4.8,0-7.2,0C32.6,15.9,32.6,15.2,32.6,14.4z M33,13.8c-0.1,0-0.2,0-0.4,0c0-0.7,0-1.4,0-2.2c2.4,0,4.8,0,7.2,0 c0,0.7,0,1.5,0,2.2c-0.1,0-0.2,0-0.4,0C37.3,13.8,35.1,13.8,33,13.8z M32.6,8.8c2.4,0,4.8,0,7.3,0c0,0.7,0,1.5,0,2.2 c-2.4,0-4.8,0-7.3,0C32.6,10.3,32.6,9.5,32.6,8.8z M24.5,28.4c2.4,0,4.8,0,7.2,0c0,0.7,0,1.4,0,2.2c-2.4,0-4.8,0-7.2,0 C24.5,29.9,24.5,29.2,24.5,28.4z M24.5,25.6c2.4,0,4.8,0,7.2,0c0,0.7,0,1.4,0,2.1c-2.4,0-4.8,0-7.2,0C24.5,27.1,24.5,26.4,24.5,25.6 z M24.5,25c0-0.7,0-1.4,0-2.1c2.4,0,4.8,0,7.2,0c0,0.7,0,1.4,0,2.1C29.3,25,26.9,25,24.5,25z M24.5,20.1c2.4,0,4.8,0,7.2,0 c0,0.7,0,1.4,0,2.1c-2.4,0-4.8,0-7.2,0C24.5,21.5,24.5,20.8,24.5,20.1z M24.5,17.2c2.4,0,4.8,0,7.2,0c0,0.7,0,1.4,0,2.1 c-2.4,0-4.8,0-7.2,0C24.5,18.7,24.5,18,24.5,17.2z M16.4,28.4c2.4,0,4.8,0,7.3,0c0,0.7,0,1.4,0,2.2c-2.4,0-4.8,0-7.3,0 C16.4,29.9,16.4,29.2,16.4,28.4z M16.4,11.7c2.4,0,4.8,0,7.2,0c0,0.7,0,1.4,0,2.1c-2.4,0-4.8,0-7.2,0C16.4,13.1,16.4,12.4,16.4,11.7 z M16.4,14.5c2.4,0,4.8,0,7.2,0c0,0.7,0,1.4,0,2.1c-2.4,0-4.8,0-7.2,0C16.4,15.9,16.4,15.2,16.4,14.5z M16.4,25.6c2.4,0,4.8,0,7.2,0 c0,0.7,0,1.4,0,2.1c-2.4,0-4.8,0-7.2,0C16.4,27.1,16.4,26.4,16.4,25.6z M23.6,22.2c-2.4,0-4.8,0-7.2,0c0-0.7,0-1.4,0-2.1 c2.4,0,4.8,0,7.2,0C23.6,20.8,23.6,21.5,23.6,22.2z M23.6,25c-2.4,0-4.8,0-7.2,0c0-0.7,0-1.4,0-2.1c2.4,0,4.8,0,7.2,0 C23.6,23.5,23.6,24.3,23.6,25z M23.6,19.4c-2.4,0-4.8,0-7.2,0c0-0.7,0-1.4,0-2.1c2.4,0,4.8,0,7.2,0C23.6,17.9,23.6,18.7,23.6,19.4z M8.3,28.8c0-0.1,0-0.3,0-0.4c2.4,0,4.8,0,7.2,0c0,0.7,0,1.4,0,2.2c-2.4,0-4.8,0-7.3,0C8.3,30,8.3,29.4,8.3,28.8z M15.5,27.8 c-2.4,0-4.8,0-7.2,0c0-0.7,0-1.4,0-2.1c2.4,0,4.8,0,7.2,0C15.5,26.4,15.5,27.1,15.5,27.8z M8.3,22.8c2.4,0,4.8,0,7.2,0 c0,0.7,0,1.4,0,2.1c-2.4,0-4.8,0-7.2,0C8.3,24.3,8.3,23.6,8.3,22.8z M0.2,28.4c2.4,0,4.8,0,7.3,0c0,0.7,0,1.4,0,2.2 c-2.4,0-4.8,0-7.3,0C0.2,29.9,0.2,29.2,0.2,28.4z M0.2,25.6c2.4,0,4.8,0,7.2,0c0,0.7,0,1.4,0,2.1c-2.4,0-4.8,0-7.2,0 C0.2,27.1,0.2,26.4,0.2,25.6z M7.4,25c-2.4,0-4.8,0-7.2,0c0-0.7,0-1.4,0-2.1c2.4,0,4.8,0,7.2,0C7.4,23.6,7.4,24.3,7.4,25z M0.2,20 c2.4,0,4.8,0,7.2,0c0,0.7,0,1.4,0,2.1c-2.4,0-4.8,0-7.2,0C0.2,21.5,0.2,20.8,0.2,20z M0.2,17.2c2.4,0,4.8,0,7.2,0c0,0.7,0,1.4,0,2.1 c-2.4,0-4.8,0-7.2,0C0.2,18.7,0.2,18,0.2,17.2z" />
</svg>