<!-- (c) Carrd Inc. All rights reserved. All logos and trademarks are property of their respective owners. -->
<svg xmlns="http://www.w3.org/2000/svg" id="icon">
<path d="M36.8,17.9c0,0.2,0,0.4,0,0.6c0,0,0,0.1,0,0.1c0,0.1,0,0.1,0,0.2c-0.1,0.4-0.2,0.7-0.5,0.9c-0.1,0.1-0.3,0.2-0.4,0.3 c-0.3,0.2-0.5,0.3-0.8,0.4c-0.6,0.3-1.2,0.5-1.8,0.7c-0.9,0.3-1.9,0.7-2.8,1c-0.1,0.1-0.3,0.1-0.4,0.2c-0.1,0-0.1,0.1-0.1,0.2 c0.8,1.9,1.6,3.8,2.4,5.7c0.7,1.6,1.3,3.2,2,4.8c0.2,0.4,0.3,0.8,0.5,1.3c0.1,0.2,0.1,0.5,0.1,0.7c-0.1,0.5-0.5,0.8-0.9,0.8 c-0.4,0-0.7,0-1.1,0c-1.1,0-2.2,0-3.3,0c-0.3,0-0.5,0-0.8-0.1c-0.3-0.1-0.6-0.3-0.7-0.6c-0.1-0.2-0.2-0.3-0.3-0.5 c-0.2-0.4-0.3-0.7-0.5-1.1c-0.6-1.4-1.2-2.8-1.8-4.3c-0.6-1.4-1.2-2.8-1.7-4.1c0,0,0-0.1,0-0.1c0,0-0.1,0-0.1,0 c-0.1,0.1-0.3,0.1-0.4,0.2c-1.1,0.6-2.2,1.2-3.3,1.8c-1.3,0.8-2.7,1.7-3.9,2.6c-1.5,1.1-2.9,2.3-4.2,3.5c-0.6,0.6-1.1,1.1-1.7,1.7 c-0.2,0.2-0.4,0.4-0.7,0.6c-0.2,0.2-0.5,0.3-0.7,0.3c-0.2,0-0.5,0-0.7,0c-0.4,0-0.9,0-1.3,0c0,0,0,0-0.1,0c-0.2,0-0.3,0-0.5,0 c0,0,0,0-0.1,0c-0.1,0-0.3,0-0.4,0c-0.5,0-1,0-1.5-0.1c-0.5,0-0.8-0.3-0.8-0.8c0,0,0-0.1,0-0.1c0,0,0-0.1,0-0.1c0-0.1,0-0.1,0-0.2 c0-0.2,0-0.3,0.1-0.5c0.2-0.4,0.3-0.8,0.5-1.2c1-2.6,2.1-5.2,3.1-7.8c1.3-3.1,2.5-6.2,3.8-9.3c1.4-3.3,2.7-6.6,4.1-10 c0.2-0.5,0.4-1.1,0.7-1.6c0.2-0.5,0.6-1,1-1.4C17.1,2.4,17.8,2,18.6,2c0,0,0,0,0.1,0c0.1,0,0.2,0,0.2,0c0,0,0,0,0.1,0 c0.2,0,0.3,0,0.5,0.1c1,0.2,1.8,0.7,2.4,1.6C21.9,3.8,22,3.9,22,4c0.2,0.5,0.4,0.9,0.7,1.4c0.6,1.3,1.1,2.6,1.7,4 c0.9,2.1,1.9,4.3,2.8,6.4c0.2,0.4,0.3,0.7,0.5,1.1c0,0,0,0.1,0.1,0.1c0,0,0.1,0,0.1,0c0.4-0.1,0.7-0.2,1.1-0.4 c1.2-0.4,2.4-0.8,3.6-1.2c0.4-0.1,0.7-0.2,1.1-0.3c0.2,0,0.3-0.1,0.5,0c0.4,0.1,0.7,0.2,1,0.4C36.1,15.9,36.7,16.8,36.8,17.9 C36.8,17.9,36.8,17.9,36.8,17.9z M21.5,19.6C21.5,19.6,21.5,19.6,21.5,19.6c-0.1-0.3-0.2-0.6-0.3-0.8c-0.3-0.9-0.6-1.8-1-2.6 c-0.2-0.4-0.3-0.7-0.5-1.1c-0.1-0.1-0.2-0.3-0.3-0.4c-0.1-0.1-0.2-0.2-0.3-0.2c-0.3-0.1-0.6-0.1-0.9,0.1c-0.1,0.1-0.2,0.2-0.3,0.4 c-0.1,0.1-0.1,0.2-0.2,0.4c-0.2,0.5-0.4,1-0.6,1.5c-0.8,1.9-1.5,3.8-2.3,5.8c-0.2,0.6-0.5,1.1-0.7,1.7c0,0,0,0.1,0,0.1c0,0,0,0,0,0 c1.2-0.9,2.4-1.8,3.6-2.6C18.9,21.1,20.2,20.3,21.5,19.6z"/>
</svg>