<!-- (c) Carrd Inc. All rights reserved. All logos and trademarks are property of their respective owners. -->
<svg xmlns="http://www.w3.org/2000/svg" id="icon">
<path d="M39.9,25.6c-0.3,2.2-1.6,3.7-3.6,4.6C35,30.8,33.5,31,32,31c-2.8,0-5.6,0-8.5,0c-0.9,0-1.1-0.3-1.1-1.1 c0-6.6,0-13.3,0-19.9c0-0.9,0.3-1.1,1.2-1.1c2.6,0,5.2,0,7.8,0c0.8,0,1.6,0.1,2.3,0.3c2.6,0.6,4.1,2.4,4.3,5 c0.1,1.6-0.1,3.2-1.2,4.6C39.7,20.4,40.3,22.8,39.9,25.6z M19.2,31c-5.6,0-11.2,0-16.7,0c-0.9,0-1.2-0.3-1.2-1.1 c0-6.6,0-13.2,0-19.8C1.3,9.2,1.6,9,2.5,9c2.7,0,5.4,0,8.1,0c0.6,0,1.3,0.1,1.9,0.2c5.2,1,7.6,6.7,4.6,11c-0.3,0.5-0.8,0.9-1.2,1.3 c-0.4,0.4-1,0.6-1.5,1c0.7,0.9,1.3,1.7,2,2.5c1.2,1.5,2.4,3,3.6,4.6c0.2,0.3,0.4,0.8,0.2,1C20.1,30.8,19.6,31,19.2,31z"/>
</svg>